<svg id="b5a4b4a5-6b27-408e-9293-51de610922e8" data-name="レイヤー 1" xmlns="http://www.w3.org/2000/svg" viewBox="0 0 375 412">
  <defs>
    <style>
      .af5aebba-3474-40a3-b244-f218a495b581 {
        fill: none;
        stroke: #979797;
        stroke-miterlimit: 10;
      }

      .e9b39fc0-5749-4b6b-b8eb-0de4cbf61816 {
        font-size: 16px;
        letter-spacing: 0.1em;
      }

      .bc4ea53c-0e36-456c-892a-5cd880d66def, .e9b39fc0-5749-4b6b-b8eb-0de4cbf61816 {
        font-family: HiraKakuProN-W3-83pv-RKSJ-H, Hiragino Kaku Gothic ProN;
      }

      .bc4ea53c-0e36-456c-892a-5cd880d66def {
        font-size: 14px;
        letter-spacing: 0.1em;
      }

      .abd5644d-f200-4711-97c4-132d1553cf18 {
        letter-spacing: -0.4em;
      }

      .fc824da1-87eb-4643-887d-5983fbfd0ef7 {
        font-size: 30px;
        font-family: Arial-BoldMT, Arial;
        font-weight: 700;
      }

      .b141a653-6e1b-4026-bcd6-689b5ce96e01 {
        fill: #b1b1b1;
      }
    </style>
  </defs>
  <line class="af5aebba-3474-40a3-b244-f218a495b581" x1="27.28" y1="13.03" x2="353.28" y2="13.03"/>
  <line class="af5aebba-3474-40a3-b244-f218a495b581" x1="27.28" y1="156.03" x2="353.28" y2="156.03"/>
  <text class="e9b39fc0-5749-4b6b-b8eb-0de4cbf61816" transform="translate(80.13 57.89)">初期費用や月額費用がかか<tspan x="0" y="28">らないのですか？</tspan></text>
  <text class="bc4ea53c-0e36-456c-892a-5cd880d66def" transform="translate(83.13 131.89)">はい、一切かかりません<tspan class="abd5644d-f200-4711-97c4-132d1553cf18" x="169.4" y="0">。</tspan></text>
  <text class="fc824da1-87eb-4643-887d-5983fbfd0ef7" transform="translate(37.03 61.05)">Q</text>
  <text class="fc824da1-87eb-4643-887d-5983fbfd0ef7" transform="translate(40.03 136.05)">A</text>
  <g>
    <g>
      <polygon class="b141a653-6e1b-4026-bcd6-689b5ce96e01" points="323.76 45.51 323.76 49.32 310.32 60.93 310.32 57.12 323.76 45.51"/>
      <path class="b141a653-6e1b-4026-bcd6-689b5ce96e01" d="M324.83,45.51v3.81a1.05,1.05,0,0,1-.37.81L311,61.74a1.08,1.08,0,0,1-1.78-.81V57.12a1.08,1.08,0,0,1,.37-.81L323.06,44.7a1.06,1.06,0,0,1,1.77.81Zm-2.15,3.32v-1l-11.29,9.75v1Z"/>
    </g>
    <g>
      <polygon class="b141a653-6e1b-4026-bcd6-689b5ce96e01" points="323.76 45.51 323.76 49.32 337.2 60.93 337.2 57.12 323.76 45.51"/>
      <path class="b141a653-6e1b-4026-bcd6-689b5ce96e01" d="M338.28,57.12v3.81a1.08,1.08,0,0,1-1.78.81L323.06,50.13a1.06,1.06,0,0,1-.38-.81V45.51a1.09,1.09,0,0,1,.63-1,1.08,1.08,0,0,1,1.15.17L337.9,56.31A1.06,1.06,0,0,1,338.28,57.12Zm-2.15,1.46v-1l-11.3-9.75v1Z"/>
    </g>
  </g>
  <line class="af5aebba-3474-40a3-b244-f218a495b581" x1="27.28" y1="276.03" x2="353.28" y2="276.03"/>
  <text class="e9b39fc0-5749-4b6b-b8eb-0de4cbf61816" transform="translate(80.13 200.89)">現在、会社に勤めているの<tspan x="0" y="28">ですが、会員登録できます</tspan><tspan x="0" y="56">か？</tspan></text>
  <text class="fc824da1-87eb-4643-887d-5983fbfd0ef7" transform="translate(37.03 204.05)">Q</text>
  <g>
    <g>
      <polygon class="b141a653-6e1b-4026-bcd6-689b5ce96e01" points="323.76 203.93 323.76 200.12 337.2 188.51 337.2 192.32 323.76 203.93"/>
      <path class="b141a653-6e1b-4026-bcd6-689b5ce96e01" d="M322.68,203.93v-3.81a1.06,1.06,0,0,1,.38-.81L336.5,187.7a1.08,1.08,0,0,1,1.15-.17,1.09,1.09,0,0,1,.63,1v3.81a1.06,1.06,0,0,1-.38.81l-13.44,11.61a1.08,1.08,0,0,1-1.78-.81Zm2.15-3.32v1l11.3-9.75v-1Z"/>
    </g>
    <g>
      <polygon class="b141a653-6e1b-4026-bcd6-689b5ce96e01" points="323.76 203.93 323.76 200.12 310.32 188.51 310.32 192.32 323.76 203.93"/>
      <path class="b141a653-6e1b-4026-bcd6-689b5ce96e01" d="M309.24,192.32v-3.81a1.09,1.09,0,0,1,.63-1,1.08,1.08,0,0,1,1.15.17l13.44,11.61a1.05,1.05,0,0,1,.37.81v3.81a1.06,1.06,0,0,1-.62,1,1.07,1.07,0,0,1-1.15-.16l-13.45-11.61A1.08,1.08,0,0,1,309.24,192.32Zm2.15-1.46v1l11.29,9.75v-1Z"/>
    </g>
  </g>
  <line class="af5aebba-3474-40a3-b244-f218a495b581" x1="27.28" y1="399.03" x2="353.28" y2="399.03"/>
  <text class="e9b39fc0-5749-4b6b-b8eb-0de4cbf61816" transform="translate(80.13 321.89)">現在、会社に勤めているの<tspan x="0" y="28">ですが、会員登録できます</tspan><tspan x="0" y="56">か？</tspan></text>
  <text class="fc824da1-87eb-4643-887d-5983fbfd0ef7" transform="translate(37.03 325.05)">Q</text>
  <g>
    <g>
      <polygon class="b141a653-6e1b-4026-bcd6-689b5ce96e01" points="323.76 324.93 323.76 321.12 337.2 309.51 337.2 313.32 323.76 324.93"/>
      <path class="b141a653-6e1b-4026-bcd6-689b5ce96e01" d="M322.68,324.93v-3.81a1.06,1.06,0,0,1,.38-.81L336.5,308.7a1.08,1.08,0,0,1,1.15-.17,1.09,1.09,0,0,1,.63,1v3.81a1.06,1.06,0,0,1-.38.81l-13.44,11.61a1.08,1.08,0,0,1-1.78-.81Zm2.15-3.32v1l11.3-9.75v-1Z"/>
    </g>
    <g>
      <polygon class="b141a653-6e1b-4026-bcd6-689b5ce96e01" points="323.76 324.93 323.76 321.12 310.32 309.51 310.32 313.32 323.76 324.93"/>
      <path class="b141a653-6e1b-4026-bcd6-689b5ce96e01" d="M309.24,313.32v-3.81a1.09,1.09,0,0,1,.63-1,1.08,1.08,0,0,1,1.15.17l13.44,11.61a1.05,1.05,0,0,1,.37.81v3.81a1.06,1.06,0,0,1-.62,1,1.07,1.07,0,0,1-1.15-.16l-13.45-11.61A1.08,1.08,0,0,1,309.24,313.32Zm2.15-1.46v1l11.29,9.75v-1Z"/>
    </g>
  </g>
</svg>
