<svg id="fe24600b-424a-45a6-affb-d8d3f2a557ce" data-name="レイヤー 1" xmlns="http://www.w3.org/2000/svg" viewBox="0 0 375 52">
  <defs>
    <style>
      .be632c14-8caa-4af9-b650-c3762af1b391, .fc6d56dc-c359-4fef-8e7d-75850a1a702c {
        font-size: 14px;
        letter-spacing: 0.1em;
      }

      .be632c14-8caa-4af9-b650-c3762af1b391 {
        font-family: HiraKakuProN-W3-83pv-RKSJ-H, Hiragino Kaku Gothic ProN;
      }

      .fc6d56dc-c359-4fef-8e7d-75850a1a702c {
        font-family: HiraKakuProN-W6-83pv-RKSJ-H, Hiragino Kaku Gothic ProN;
      }

      .b2c0fd01-4524-4218-9862-52fd912bdcec {
        fill: #dc4335;
      }

      .f5045692-e48f-4e07-8a79-b94581a52b32 {
        fill: none;
        stroke: #dc4335;
        stroke-miterlimit: 10;
      }
    </style>
  </defs>
  <a href="/"><text class="be632c14-8caa-4af9-b650-c3762af1b391" transform="translate(27.27 32.46)">トップページ</text></a>
  <a href="."><text class="fc6d56dc-c359-4fef-8e7d-75850a1a702c" transform="translate(160.27 31.46)">はじめての方へ</text></a>
  <path class="b2c0fd01-4524-4218-9862-52fd912bdcec" d="M145.62,26.3l-1-1h0l-4.16-4.16a.37.37,0,0,0-.53,0l-1,1a.39.39,0,0,0,0,.52l2.75,2.74h-9.06a.31.31,0,0,0-.3.31v1.71a.3.3,0,0,0,.3.3h9.06L139,30.47a.39.39,0,0,0,0,.52l1,1a.4.4,0,0,0,.27.11.38.38,0,0,0,.26-.11l4.16-4.16h0l1-1A.37.37,0,0,0,145.62,26.3Z"/>
  <line class="f5045692-e48f-4e07-8a79-b94581a52b32" x1="30.73" y1="37.55" x2="117.73" y2="37.55"/>
</svg>
