<svg id="a5ab4899-d59b-431b-93e5-8420b8ec5459" data-name="レイヤー 1" xmlns="http://www.w3.org/2000/svg" viewBox="0 0 375 235">
  <defs>
    <style>
      .aff933cc-d83c-4193-adb5-2a2ec49b84be {
        fill: none;
        stroke: #e4e4e4;
        stroke-miterlimit: 10;
        stroke-width: 5px;
      }

      .bc31d472-b60e-45ba-82be-11bce3e81af7, .ede19779-be05-4944-94ca-055d487dba96 {
        fill: #fff;
      }

      .a2c32232-5672-44f9-8e3f-dfb65a44478f, .ede19779-be05-4944-94ca-055d487dba96 {
        font-size: 14px;
      }

      .ede19779-be05-4944-94ca-055d487dba96 {
        font-family: HiraginoSans-W6-83pv-RKSJ-H, Hiragino Sans;
        letter-spacing: 0.3em;
      }

      .a2c32232-5672-44f9-8e3f-dfb65a44478f {
        font-family: HiraKakuProN-W3-83pv-RKSJ-H, Hiragino Kaku Gothic ProN;
        letter-spacing: 0.1em;
      }

      .f196c64c-691d-4b3d-a6f4-59b71a06e03b {
        letter-spacing: -0.4em;
      }
    </style>
  </defs>
  <rect class="aff933cc-d83c-4193-adb5-2a2ec49b84be" x="29.28" y="23.53" width="322.22" height="159.97" rx="2.01"/>
  <g>
    <rect x="51.28" y="148.95" width="286" height="60" rx="30"/>
    <g>
      <circle cx="299.71" cy="181.99" r="13.51"/>
      <g>
        <path class="bc31d472-b60e-45ba-82be-11bce3e81af7" d="M301,182.21l0-.05h0l0-.06v0a.38.38,0,0,0,0-.15h0l0-.06v0s0,0,0-.05l0-.06-5.42-5.41a.38.38,0,0,0-.55,0l-1,1a.36.36,0,0,0-.12.27.38.38,0,0,0,.12.28L298,182l-4.11,4.11a.36.36,0,0,0-.12.27.36.36,0,0,0,.12.28l1,1a.35.35,0,0,0,.27.11.38.38,0,0,0,.28-.11l5.42-5.42Z"/>
        <path class="bc31d472-b60e-45ba-82be-11bce3e81af7" d="M307,182.16h0a.14.14,0,0,0,0-.06v0a.38.38,0,0,0,0-.15h0a.14.14,0,0,0,0-.06v0a.17.17,0,0,0,0-.05l-.05-.06-5.42-5.41a.38.38,0,0,0-.55,0l-1,1a.36.36,0,0,0-.12.27.38.38,0,0,0,.12.28L304,182l-4.11,4.11a.36.36,0,0,0-.12.27.36.36,0,0,0,.12.28l1,1a.38.38,0,0,0,.27.11.38.38,0,0,0,.28-.11l5.42-5.42.05-.06S307,182.18,307,182.16Z"/>
      </g>
    </g>
    <text class="ede19779-be05-4944-94ca-055d487dba96" transform="translate(137.18 187.22)">お問い合わせ</text>
  </g>
  <text class="a2c32232-5672-44f9-8e3f-dfb65a44478f" transform="translate(61.19 72.28)">よくある質問に記載されていない内容<tspan x="0" y="24.5">でお悩みの方・ご質問のある方は、下</tspan><tspan x="0" y="49">記よりお問い合わせください</tspan><tspan class="f196c64c-691d-4b3d-a6f4-59b71a06e03b" x="200.2" y="49">。</tspan></text>
</svg>
