<svg id="f6765c2a-8cd4-4787-906e-48a64b77834a" data-name="レイヤー 1" xmlns="http://www.w3.org/2000/svg" viewBox="0 0 375 220">
  <defs>
    <style>
      .faadbd92-ce03-4eac-b131-1aca219c0198 {
        fill: #83ccd2;
      }

      .a31bcb5f-8adb-4629-9822-727e628ec1aa, .a5c1ac03-292b-4957-a8c2-5fcd03f2ecf7 {
        fill: #fff;
      }

      .a31bcb5f-8adb-4629-9822-727e628ec1aa {
        font-size: 14px;
        font-family: HiraginoSans-W6-83pv-RKSJ-H, Hiragino Sans;
        letter-spacing: 0.3em;
      }
    </style>
  </defs>
  <g>
    <rect class="faadbd92-ce03-4eac-b131-1aca219c0198" x="27.12" y="25.2" width="320" height="60" rx="30"/>
    <g>
      <circle class="faadbd92-ce03-4eac-b131-1aca219c0198" cx="309.52" cy="57.61" r="13.51"/>
      <g>
        <path class="a5c1ac03-292b-4957-a8c2-5fcd03f2ecf7" d="M310.78,57.83l0,0v0a.14.14,0,0,0,0-.06h0a.38.38,0,0,0,0-.15v0a.14.14,0,0,0,0-.06h0l0-.05s0,0,0-.06l-5.42-5.42a.39.39,0,0,0-.55,0l-1,1a.4.4,0,0,0-.12.28.4.4,0,0,0,.12.27l4.11,4.11-4.11,4.11a.4.4,0,0,0-.12.28.4.4,0,0,0,.12.27l1,1a.39.39,0,0,0,.28.12.36.36,0,0,0,.27-.12l5.42-5.41Z"/>
        <path class="a5c1ac03-292b-4957-a8c2-5fcd03f2ecf7" d="M316.78,57.78v0s0,0,0-.06h0a.38.38,0,0,0,0-.15v0s0,0,0-.06h0l0-.05a.1.1,0,0,0-.05-.06l-5.42-5.42a.39.39,0,0,0-.55,0l-1,1a.39.39,0,0,0-.11.28.39.39,0,0,0,.11.27l4.11,4.11-4.11,4.11a.39.39,0,0,0-.11.28.39.39,0,0,0,.11.27l1,1a.39.39,0,0,0,.28.12.36.36,0,0,0,.27-.12l5.42-5.41.05-.06Z"/>
      </g>
    </g>
    <text class="a31bcb5f-8adb-4629-9822-727e628ec1aa" transform="translate(91.03 63.47)">ご利用の流れはこちら</text>
  </g>
  <g>
    <rect class="faadbd92-ce03-4eac-b131-1aca219c0198" x="27.73" y="121.17" width="320" height="60" rx="30"/>
    <g>
      <circle class="faadbd92-ce03-4eac-b131-1aca219c0198" cx="310.14" cy="153.57" r="13.51"/>
      <g>
        <path class="a5c1ac03-292b-4957-a8c2-5fcd03f2ecf7" d="M311.39,153.79l0,0v0a.43.43,0,0,0,0-.05v0a.38.38,0,0,0,0-.15h0s0,0,0-.06v0l0,0-.05-.06-5.42-5.42a.39.39,0,0,0-.55,0l-1,1a.39.39,0,0,0-.11.27.43.43,0,0,0,.11.28l4.11,4.11-4.11,4.11a.39.39,0,0,0-.11.27.41.41,0,0,0,.11.28l1,1a.43.43,0,0,0,.28.11.39.39,0,0,0,.27-.11l5.42-5.42Z"/>
        <path class="a5c1ac03-292b-4957-a8c2-5fcd03f2ecf7" d="M317.39,153.74v0s0,0,0-.05v0a.38.38,0,0,0,0-.15h0s0,0,0-.06v0l0,0-.05-.06-5.41-5.42a.39.39,0,0,0-.55,0l-1,1a.39.39,0,0,0-.11.27.43.43,0,0,0,.11.28l4.11,4.11-4.11,4.11a.39.39,0,0,0-.11.27.41.41,0,0,0,.11.28l1,1a.39.39,0,0,0,.27.11.43.43,0,0,0,.28-.11l5.41-5.42.05-.06Z"/>
      </g>
    </g>
    <text class="a31bcb5f-8adb-4629-9822-727e628ec1aa" transform="translate(105.64 159.43)">案件情報一覧をみる</text>
  </g>
</svg>
