<svg id="e5b2ae48-833d-4902-b734-cd3afbcc5283" data-name="レイヤー 1" xmlns="http://www.w3.org/2000/svg" viewBox="0 0 375 320">
  <defs>
    <style>
      .ecb4d784-16a5-4679-85cc-c5774e553da8 {
        fill: none;
        stroke: #e3e3e3;
        stroke-miterlimit: 10;
        stroke-width: 4.01px;
      }

      .a1c9d2a6-663f-4c18-812d-b684f58e76d3, .a8bafbbd-9c6f-489e-a827-c1bded5deb4e {
        fill: #fff;
      }

      .a8bafbbd-9c6f-489e-a827-c1bded5deb4e, .a995c03e-34db-47f7-9c2e-6da6703ead26 {
        font-size: 14px;
      }

      .a8bafbbd-9c6f-489e-a827-c1bded5deb4e {
        font-family: HiraginoSans-W6-83pv-RKSJ-H, Hiragino Sans;
        letter-spacing: 0.3em;
      }

      .a995c03e-34db-47f7-9c2e-6da6703ead26 {
        font-family: HiraKakuProN-W3-83pv-RKSJ-H, Hiragino Kaku Gothic ProN;
        letter-spacing: 0.1em;
      }

      .a4d0264d-bae4-4a10-aaf3-3d51a16ec0a0 {
        letter-spacing: -0.4em;
      }
    </style>
  </defs>
  <rect class="ecb4d784-16a5-4679-85cc-c5774e553da8" x="34.08" y="59.46" width="308.3" height="181.89" rx="2.09"/>
  <g>
    <rect x="56.08" y="211.89" width="265" height="60" rx="30"/>
    <g>
      <circle cx="283.49" cy="244.29" r="13.51"/>
      <g>
        <path class="a1c9d2a6-663f-4c18-812d-b684f58e76d3" d="M284.74,244.51l0,0h0s0,0,0-.06v0a.38.38,0,0,0,0-.15h0a.14.14,0,0,1,0-.06v0l0,0-.05-.06-5.42-5.42a.39.39,0,0,0-.55,0l-1,1a.39.39,0,0,0-.11.27.43.43,0,0,0,.11.28l4.11,4.11-4.11,4.11a.39.39,0,0,0-.11.27.39.39,0,0,0,.11.28l1,1a.38.38,0,0,0,.28.11.35.35,0,0,0,.27-.11l5.42-5.42Z"/>
        <path class="a1c9d2a6-663f-4c18-812d-b684f58e76d3" d="M290.74,244.46h0s0,0,0-.06v0a.38.38,0,0,0,0-.15h0s0,0,0-.06v0l0,0,0-.06-5.41-5.42a.39.39,0,0,0-.55,0l-1,1a.39.39,0,0,0-.11.27.43.43,0,0,0,.11.28l4.11,4.11-4.11,4.11a.39.39,0,0,0-.11.27.39.39,0,0,0,.11.28l1,1a.35.35,0,0,0,.27.11.38.38,0,0,0,.28-.11l5.41-5.42,0-.06Z"/>
      </g>
    </g>
    <text class="a8bafbbd-9c6f-489e-a827-c1bded5deb4e" transform="translate(121.99 250.16)">お問い合わせ</text>
  </g>
  <text class="a995c03e-34db-47f7-9c2e-6da6703ead26" transform="translate(64.99 104.22)">弊社の教育サービスに興味のある<tspan x="0" y="24.5">方は、下記よりお問い合わせくだ</tspan><tspan x="0" y="49">さい。詳しい内容は直接ご説明い</tspan><tspan x="0" y="73.5">たします</tspan><tspan class="a4d0264d-bae4-4a10-aaf3-3d51a16ec0a0" x="61.6" y="73.5">。</tspan></text>
</svg>
