<svg id="f29a8942-1c97-4165-9ceb-8b2154710cee" data-name="レイヤー 1" xmlns="http://www.w3.org/2000/svg" xmlns:xlink="http://www.w3.org/1999/xlink" viewBox="0 0 375 447">
  <defs>
    <style>
      .aceafe09-7d84-4589-95ff-b28240f76b85 {
        fill: #fff;
      }

      .a3debc48-b1e6-420b-842b-68e062ee699a {
        opacity: 0.3;
      }

      .a81e3768-4db3-4fb7-94af-d466c27750b3 {
        fill: #dc4335;
      }

      .aa8f36a7-8b81-404c-bd6d-af147a1080c3 {
        fill: none;
        stroke: #000;
        stroke-miterlimit: 10;
      }

      .bff1664e-d8bb-49a8-92b0-3756f1704bca {
        font-size: 18px;
        font-family: KozGoPr6N-Bold-83pv-RKSJ-H, Kozuka Gothic Pr6N;
      }

      .a3dc7c1a-e435-4537-947b-c0c1f058c0e5 {
        font-size: 42px;
        font-family: FutoGoB101Pr6N-Bold, FutoGoB101Pr6N Bold-83pv-RKSJ-H;
        font-weight: 700;
        letter-spacing: 0.2em;
      }
    </style>
  </defs>
  <image width="1980" height="1386" transform="translate(-1216 -28) scale(1.4)" xlink:href="http://3.112.250.183/wp-content/uploads/2021/11/pixta_79583965_XL.jpg"/>
  <rect class="aceafe09-7d84-4589-95ff-b28240f76b85" x="20.95" y="21.91" width="337" height="75" rx="10"/>
  <g class="a3debc48-b1e6-420b-842b-68e062ee699a">
    <path class="a81e3768-4db3-4fb7-94af-d466c27750b3" d="M348,21.91a10,10,0,0,1,10,10v55a10,10,0,0,1-10,10H31a10,10,0,0,1-10-10v-55a10,10,0,0,1,10-10H348m0-5H31a15,15,0,0,0-15,15v55a15,15,0,0,0,15,15H348a15,15,0,0,0,15-15v-55a15,15,0,0,0-15-15Z"/>
  </g>
  <line class="aa8f36a7-8b81-404c-bd6d-af147a1080c3" x1="51.95" y1="53.91" x2="89.95" y2="53.91"/>
  <line class="aa8f36a7-8b81-404c-bd6d-af147a1080c3" x1="51.95" y1="62.41" x2="89.95" y2="62.41"/>
  <line class="aa8f36a7-8b81-404c-bd6d-af147a1080c3" x1="51.95" y1="71.41" x2="89.95" y2="71.41"/>
  <text class="bff1664e-d8bb-49a8-92b0-3756f1704bca" transform="translate(162.57 69.93)">サイバースミス</text>
  <rect class="aceafe09-7d84-4589-95ff-b28240f76b85" x="25" y="164" width="280" height="226"/>
  <text class="a3dc7c1a-e435-4537-947b-c0c1f058c0e5" transform="translate(42.62 233.05)">幸福が<tspan x="0" y="60">循環する</tspan><tspan x="0" y="120">社会を創る</tspan></text>
</svg>
