<svg id="a9433a48-2fc3-4657-8628-dc872b891269" data-name="レイヤー 1" xmlns="http://www.w3.org/2000/svg" viewBox="0 0 375 54">
  <defs>
    <style>
      .e43d2ee7-f8fb-47d4-8d29-4a01d85cbc80, .edc192ee-1ec4-4fd9-8609-c15a944413fc {
        font-size: 14px;
        letter-spacing: 0.1em;
      }

      .edc192ee-1ec4-4fd9-8609-c15a944413fc {
        font-family: HiraKakuProN-W3-83pv-RKSJ-H, Hiragino Kaku Gothic ProN;
      }

      .e43d2ee7-f8fb-47d4-8d29-4a01d85cbc80 {
        font-family: HiraKakuProN-W6-83pv-RKSJ-H, Hiragino Kaku Gothic ProN;
      }

      .f4c59066-fb8c-45e5-b7ef-0f5425ab5bcd {
        fill: #dc4335;
      }

      .b71a4ccb-f07b-4d18-ac04-db269df9e58e {
        fill: none;
        stroke: #dc4335;
        stroke-miterlimit: 10;
      }
    </style>
  </defs>
  <text class="edc192ee-1ec4-4fd9-8609-c15a944413fc" transform="translate(27.27 34.45)">トップページ</text>
  <text class="e43d2ee7-f8fb-47d4-8d29-4a01d85cbc80" transform="translate(160.27 33.45)">よくある質問</text>
  <path class="f4c59066-fb8c-45e5-b7ef-0f5425ab5bcd" d="M145.62,28.3l-1-1h0l-4.16-4.16a.37.37,0,0,0-.53,0l-1,1a.39.39,0,0,0,0,.52l2.75,2.74h-9.06a.31.31,0,0,0-.3.31v1.71a.3.3,0,0,0,.3.3h9.06L139,32.47a.39.39,0,0,0,0,.52l1,1a.4.4,0,0,0,.27.11.38.38,0,0,0,.26-.11l4.16-4.16h0l1-1A.37.37,0,0,0,145.62,28.3Z"/>
  <line class="b71a4ccb-f07b-4d18-ac04-db269df9e58e" x1="30.73" y1="39.55" x2="117.73" y2="39.55"/>
</svg>
