<svg id="fccb2f68-e3cf-4acd-86d9-82db26ac3383" data-name="レイヤー 1" xmlns="http://www.w3.org/2000/svg" viewBox="0 0 375 584">
  <defs>
    <style>
      .b51d4f2a-ab2a-47a0-8518-6859cf4b802a {
        fill: #e3e3e3;
      }

      .adcd7588-73ad-4e25-bc21-def1071a796f, .b52e8f22-055b-48ee-b3e6-0917c1029d7b {
        font-size: 12px;
      }

      .adcd7588-73ad-4e25-bc21-def1071a796f, .b2990a25-74f5-4347-be3c-f158491b4e5d, .b52e8f22-055b-48ee-b3e6-0917c1029d7b, .b6513d4a-596e-41c8-a4cd-2a63aad41e94, .bec36c3c-9aba-4f8c-abec-44aebee402bb {
        font-family: HiraKakuProN-W3-83pv-RKSJ-H, Hiragino Kaku Gothic ProN;
      }

      .a6f9013e-c4b5-4c80-b8e1-e0f4bba23d58, .adcd7588-73ad-4e25-bc21-def1071a796f, .b52e8f22-055b-48ee-b3e6-0917c1029d7b {
        letter-spacing: 0.1em;
      }

      .ab0a0e9a-43c0-49d7-bf27-289d084a049e, .fcccf506-7c70-426f-910e-3310b5a400b0 {
        fill: none;
        stroke-miterlimit: 10;
      }

      .fcccf506-7c70-426f-910e-3310b5a400b0 {
        stroke: #cbcbcb;
        stroke-width: 0.62px;
      }

      .b1f9aa73-9843-4867-bf85-eca9030f6ce4, .b6513d4a-596e-41c8-a4cd-2a63aad41e94 {
        font-size: 16px;
        letter-spacing: 0.1em;
      }

      .bf976410-6392-475b-b108-6f1c11efad3b {
        letter-spacing: 0.35em;
      }

      .ab2a4a98-4db8-49f2-8055-2a5c048cb5bf, .b2990a25-74f5-4347-be3c-f158491b4e5d {
        font-size: 14px;
        letter-spacing: 0.1em;
      }

      .b23125ac-51b2-492c-9481-b1ba2332483c {
        letter-spacing: 0.35em;
      }

      .ef638532-0892-4bdb-b202-40f8e0c89f3a {
        letter-spacing: 0.1em;
      }

      .a30f95b6-289c-4fc5-a79c-098198c9525e, .b1f9aa73-9843-4867-bf85-eca9030f6ce4 {
        fill: #be272d;
      }

      .ab2a4a98-4db8-49f2-8055-2a5c048cb5bf, .b1f9aa73-9843-4867-bf85-eca9030f6ce4 {
        font-family: HiraginoSans-W6-83pv-RKSJ-H, Hiragino Sans;
      }

      .ab36b32d-6414-4484-860a-702345a7edfa, .bec36c3c-9aba-4f8c-abec-44aebee402bb {
        font-size: 10px;
      }

      .ab36b32d-6414-4484-860a-702345a7edfa, .fe3defea-7578-4c9f-9a59-cbf472d2c578 {
        fill: #fff;
      }

      .ab36b32d-6414-4484-860a-702345a7edfa {
        font-family: Verdana-Bold, Verdana;
        font-weight: 700;
      }

      .ab36b32d-6414-4484-860a-702345a7edfa, .f362d63a-dd57-4b4e-9249-c5242a7c5947 {
        letter-spacing: 0.1em;
      }

      .bec36c3c-9aba-4f8c-abec-44aebee402bb {
        letter-spacing: 0.35em;
      }

      .a4529158-dbe9-4646-8971-d69832701145 {
        letter-spacing: -0.4em;
      }

      .bbae1d34-66db-4d4c-bf53-9efb2bb24d94 {
        letter-spacing: 0.35em;
      }

      .f75292bc-312b-4a8c-a294-e0ae087e3a1d {
        letter-spacing: 0.06em;
      }

      .f9b1039d-5ef3-4b11-82dd-d3dfdba96876 {
        letter-spacing: -0.4em;
      }

      .fdd8f855-1a02-444e-87fe-aae5473860d9 {
        letter-spacing: 0.1em;
      }

      .ab0a0e9a-43c0-49d7-bf27-289d084a049e {
        stroke: #83ccd2;
        stroke-width: 5px;
      }

      .bb4aa91d-d0d5-4f7b-871a-f66c4735ca93 {
        fill: #83ccd2;
      }

      .ab2a4a98-4db8-49f2-8055-2a5c048cb5bf {
        fill: #546363;
      }

      .adcd7588-73ad-4e25-bc21-def1071a796f {
        fill: #969696;
      }
    </style>
  </defs>
  <rect class="b51d4f2a-ab2a-47a0-8518-6859cf4b802a" x="33" y="115" width="101" height="32" rx="4.17"/>
  <text class="b52e8f22-055b-48ee-b3e6-0917c1029d7b" transform="translate(149.05 136.11)">製造業</text>
  <rect class="fcccf506-7c70-426f-910e-3310b5a400b0" x="22.85" y="4.26" width="331.65" height="572.24" rx="4.58"/>
  <text class="b6513d4a-596e-41c8-a4cd-2a63aad41e94" transform="translate(90.9 38.9)">SAP(BASIS<tspan class="bf976410-6392-475b-b108-6f1c11efad3b" x="102.18" y="0">)</tspan><tspan x="113.47" y="0">システム構築支</tspan><tspan x="0" y="28">援</tspan></text>
  <text class="b2990a25-74f5-4347-be3c-f158491b4e5d" transform="translate(40.61 138.44)">業種</text>
  <rect class="b51d4f2a-ab2a-47a0-8518-6859cf4b802a" x="33" y="232" width="101" height="32" rx="4.17"/>
  <text class="b2990a25-74f5-4347-be3c-f158491b4e5d" transform="translate(40.61 254.44)">スキル</text>
  <rect class="b51d4f2a-ab2a-47a0-8518-6859cf4b802a" x="33" y="194" width="101" height="32" rx="4.17"/>
  <text class="b52e8f22-055b-48ee-b3e6-0917c1029d7b" transform="translate(150.05 216.11)">2021/1<tspan class="b23125ac-51b2-492c-9481-b1ba2332483c" x="52.31" y="0">0～</tspan><tspan class="ef638532-0892-4bdb-b202-40f8e0c89f3a" x="80.59" y="0">2022/12/31</tspan></text>
  <text class="b2990a25-74f5-4347-be3c-f158491b4e5d" transform="translate(40.61 216.44)">期間</text>
  <rect class="b51d4f2a-ab2a-47a0-8518-6859cf4b802a" x="33" y="154" width="101" height="33" rx="4.23"/>
  <text class="b1f9aa73-9843-4867-bf85-eca9030f6ce4" transform="translate(150.05 177.11)">10<tspan class="b23125ac-51b2-492c-9481-b1ba2332483c" x="25.98" y="0">0～</tspan><tspan x="64.58" y="0">12</tspan><tspan class="bf976410-6392-475b-b108-6f1c11efad3b" x="90.56" y="0">0</tspan><tspan class="ef638532-0892-4bdb-b202-40f8e0c89f3a" x="107.55" y="0">万円</tspan></text>
  <text class="b2990a25-74f5-4347-be3c-f158491b4e5d" transform="translate(40.61 176.44)">報酬</text>
  <rect class="a30f95b6-289c-4fc5-a79c-098198c9525e" x="33" y="17" width="45" height="30" rx="5.15"/>
  <text class="ab36b32d-6414-4484-860a-702345a7edfa" transform="translate(40.56 37.1)">NEW</text>
  <text class="bec36c3c-9aba-4f8c-abec-44aebee402bb" transform="translate(296.67 176.05)">(<tspan class="f362d63a-dd57-4b4e-9249-c5242a7c5947" x="7.06" y="0">税</tspan><tspan x="18.06" y="0">別</tspan><tspan class="f362d63a-dd57-4b4e-9249-c5242a7c5947" x="31.56" y="0">)</tspan></text>
  <text class="b52e8f22-055b-48ee-b3e6-0917c1029d7b" transform="translate(142.11 245.27)">【必須スキル<tspan class="a4529158-dbe9-4646-8971-d69832701145" x="79.2" y="0">】</tspan><tspan x="3" y="21">・SA</tspan><tspan class="bbae1d34-66db-4d4c-bf53-9efb2bb24d94" x="35.63" y="21">P</tspan><tspan x="47.77" y="21">システム構築</tspan><tspan x="0" y="42">（S/4HANA,BW/4HANA,HAN</tspan><tspan class="bbae1d34-66db-4d4c-bf53-9efb2bb24d94"><tspan x="6" y="63">A</tspan><tspan class="a6f9013e-c4b5-4c80-b8e1-e0f4bba23d58" x="19.2" y="63">インストー</tspan><tspan class="f75292bc-312b-4a8c-a294-e0ae087e3a1d" x="85.2" y="63">ル・</tspan><tspan class="a6f9013e-c4b5-4c80-b8e1-e0f4bba23d58" x="110.69" y="63">システムコピー</tspan></tspan><tspan x="6" y="84">作業</tspan><tspan class="f9b1039d-5ef3-4b11-82dd-d3dfdba96876" x="32.4" y="84">）</tspan><tspan x="3" y="105">・アプリ開発支援（ユーザ作成</tspan><tspan class="a4529158-dbe9-4646-8971-d69832701145" x="187.8" y="105">、</tspan><tspan x="6" y="126">移送適用、クライアント管理等</tspan><tspan class="a4529158-dbe9-4646-8971-d69832701145" x="190.8" y="126">）</tspan><tspan x="0" y="147">【尚可</tspan><tspan class="a4529158-dbe9-4646-8971-d69832701145" x="39.6" y="147">】</tspan><tspan x="3" y="168">・英語スキ</tspan><tspan class="bbae1d34-66db-4d4c-bf53-9efb2bb24d94" x="69" y="168">ル(</tspan><tspan class="fdd8f855-1a02-444e-87fe-aae5473860d9" x="93.67" y="168">読</tspan><tspan class="bbae1d34-66db-4d4c-bf53-9efb2bb24d94" x="106.87" y="168">解</tspan><tspan x="123.07" y="168">)...</tspan><tspan x="3" y="189">・Linux</tspan><tspan class="bbae1d34-66db-4d4c-bf53-9efb2bb24d94" x="53.54" y="189">/</tspan><tspan class="fdd8f855-1a02-444e-87fe-aae5473860d9" x="63.43" y="189">クラスタ</tspan><tspan x="0" y="210">（Pacemaker）操作</tspan><tspan x="3" y="231">・AW</tspan><tspan class="bbae1d34-66db-4d4c-bf53-9efb2bb24d94" x="39.67" y="231">S</tspan><tspan x="51.9" y="231">基礎知識（用語等</tspan><tspan class="f9b1039d-5ef3-4b11-82dd-d3dfdba96876" x="157.5" y="231">）</tspan></text>
  <g>
    <rect class="ab0a0e9a-43c0-49d7-bf27-289d084a049e" x="36.14" y="497.27" width="307" height="60" rx="30"/>
    <g>
      <circle class="bb4aa91d-d0d5-4f7b-871a-f66c4735ca93" cx="305.55" cy="529.67" r="13.51"/>
      <g>
        <path class="fe3defea-7578-4c9f-9a59-cbf472d2c578" d="M306.8,529.89l0,0v0a.14.14,0,0,0,0-.06h0a.43.43,0,0,0,0-.16h0a.14.14,0,0,0,0-.06h0l0-.06-.05-.06L301.33,524a.38.38,0,0,0-.55,0l-1,1a.39.39,0,0,0-.11.27.39.39,0,0,0,.11.28l4.11,4.11-4.11,4.11a.39.39,0,0,0-.11.28.39.39,0,0,0,.11.27l1,1a.39.39,0,0,0,.28.12.36.36,0,0,0,.27-.12l5.42-5.42S306.78,529.92,306.8,529.89Z"/>
        <path class="fe3defea-7578-4c9f-9a59-cbf472d2c578" d="M312.8,529.85v0s0,0,0-.06h0a.43.43,0,0,0,0-.16h0s0,0,0-.06h0l0-.06,0-.06L307.3,524a.38.38,0,0,0-.55,0l-1,1a.39.39,0,0,0-.11.27.39.39,0,0,0,.11.28l4.11,4.11-4.11,4.11a.39.39,0,0,0-.11.28.39.39,0,0,0,.11.27l1,1a.39.39,0,0,0,.28.12.36.36,0,0,0,.27-.12l5.42-5.42a.1.1,0,0,0,0-.06Z"/>
      </g>
    </g>
    <text class="ab2a4a98-4db8-49f2-8055-2a5c048cb5bf" transform="translate(72.05 535.54)">案件の詳細をみる・応募する</text>
  </g>
  <text class="adcd7588-73ad-4e25-bc21-def1071a796f" transform="translate(34.9 90.86)">案<tspan class="b23125ac-51b2-492c-9481-b1ba2332483c" x="13.2" y="0">件</tspan><tspan x="29.4" y="0">#1305 公開</tspan><tspan class="bbae1d34-66db-4d4c-bf53-9efb2bb24d94" x="106.42" y="0">日</tspan><tspan class="ef638532-0892-4bdb-b202-40f8e0c89f3a" x="122.62" y="0">: 2021/09/11</tspan></text>
</svg>
