<svg id="b8d60cbf-1f9d-4496-a668-b269e7647ab8" data-name="レイヤー 1" xmlns="http://www.w3.org/2000/svg" xmlns:xlink="http://www.w3.org/1999/xlink" viewBox="0 0 375 283">
  <defs>
    <style>
      .a5129f86-6cf5-4ebf-b137-3c6a3d070373, .eedd6f4a-c194-4908-ae13-ad323636cd36 {
        fill: none;
      }

      .adc83d12-1ab7-4786-8e02-7d9c9054b20b {
        clip-path: url(#af755103-75d7-47de-9793-9c7aeda4eb5c);
      }

      .b98bb6c9-db51-492f-8ced-a3bc1aabcbec {
        fill: #6e6c6b;
      }

      .ab4c4efe-e258-47c2-8cb5-9d526366e5fd {
        fill: #20c6ff;
      }

      .a2db8ab3-e7c0-45e9-a5df-b2d4fdd1af64 {
        fill: #97e6fc;
      }

      .f9e081c3-52fa-431b-8155-114e44278a2f {
        fill: #62d9fa;
      }

      .fa4a560f-8c8b-4989-85e7-4d06721cc6f7 {
        fill: #c9f2fd;
      }

      .a2acce31-e1ed-4177-b123-243f1613a64d {
        fill: #fafeff;
      }

      .bea01e7c-263b-4523-abd1-c6f7ec6a5f25 {
        fill: #79deff;
      }

      .f73aabe6-8378-49be-ba8b-fc14a5f9317e {
        fill: #c1f0fd;
      }

      .a8f7b41a-27cd-4717-9e4f-6122aa5da804 {
        fill: #a1e9fc;
      }

      .bd5b5ea8-ea39-444a-a87b-5ae712802d90 {
        fill: #def7fe;
      }

      .f18de957-94d8-4df7-8f5f-3f8cb90701fb {
        fill: #4c453f;
      }

      .ae816319-2f55-4f94-bba2-ed960d0101d8 {
        fill: #5e5b5a;
      }

      .b4904b11-e1f6-4979-b359-3d9ec5de96d3 {
        fill: #5b5756;
      }

      .aa1de9ab-15d6-409f-89a4-5618e1799c52 {
        fill: #589caf;
      }

      .fee2f816-8294-4075-a264-54af95fc82b9 {
        fill: #ffa986;
      }

      .e21037c4-b07c-435c-9cd8-e8db7f1dd6d4 {
        fill: #fc9b7a;
      }

      .bf25e9ef-be81-499f-b562-da8d3161bec9 {
        fill: #eadcd3;
      }

      .ff3baeff-9616-4857-8ab6-3d8b3e4a591e {
        fill: #fff6f0;
      }

      .fc46216c-3a36-4fa0-aa8f-9147d298c1b8 {
        fill: #ceaf9b;
      }

      .fc89c760-1556-47ef-9f5e-2c0517018fe5 {
        fill: #373463;
      }

      .beacfe96-1b08-4a93-b6ff-6acd66680ad0 {
        fill: #6b5d4b;
      }

      .e61df27b-70e4-4001-b47b-3f0f2ad305cf {
        fill: #d8d3ce;
      }

      .ea2038c1-ec33-4e1a-b585-05c47d78e1ef {
        fill: #f4eeea;
      }

      .b94d63c9-1918-4b94-aede-fab9629789e1 {
        fill: #585866;
      }

      .f5f14d35-2736-41a4-8bd9-71a1b28b1a4d {
        fill: #e8b16d;
      }

      .ed16add6-d9ab-41b3-88bd-54a9c8f5153e {
        fill: #d68d2d;
      }

      .aa606f36-1af0-4844-9f81-d355599b1cb7 {
        fill: #646470;
      }

      .ee70567b-4ce9-4cf1-a008-80c58ef56db7 {
        fill: #1a1c1e;
      }

      .aac8151c-83d8-4863-bac6-1016dded4913 {
        fill: #7e7e89;
      }

      .b946ea64-902f-4bb6-a058-fb3138890ddf {
        fill: #383865;
      }

      .b500e2ae-201f-4d20-8a70-cc115d9061d8 {
        fill: #696977;
      }

      .a5e57e6b-7572-4a7f-9039-1ba9d5b218f2 {
        fill: #445773;
      }

      .b73f0672-a163-4d38-ace7-25e0e9818c90 {
        fill: #474241;
      }

      .b25a5b79-7392-4217-993e-80b4d07258e5 {
        fill: #fff;
      }

      .e9e10df8-453b-42a8-9280-767c83b7b57c {
        fill: #82776e;
      }

      .a51a1baf-d893-47db-bab4-8cb223e067ed {
        fill: #c1bbb6;
      }

      .a525c3b1-d8c4-40de-acd3-aec44353d850 {
        font-size: 21px;
        font-family: FutoGoB101Pr6N-Bold, FutoGoB101Pr6N Bold-83pv-RKSJ-H;
        font-weight: 700;
        letter-spacing: 0.2em;
      }

      .a22e325c-2cf0-4276-96c3-4f6fe869dc93 {
        font-size: 10px;
        letter-spacing: 0.3em;
      }

      .a5072def-1e1c-4966-8824-adf3411b994e {
        fill: #83ccd2;
      }

      .e9894120-9377-4b37-b915-d421a90bb246 {
        opacity: 0.3;
      }

      .affbdbc4-6a68-4d89-9067-57573781b3e7 {
        fill: #dc4335;
      }

      .a5129f86-6cf5-4ebf-b137-3c6a3d070373 {
        stroke: #000;
        stroke-miterlimit: 10;
      }

      .a0b338ff-9ee1-4b76-9372-2c645255312c {
        font-size: 18px;
        font-family: KozGoPr6N-Bold-83pv-RKSJ-H, Kozuka Gothic Pr6N;
      }
    </style>
    <clipPath id="af755103-75d7-47de-9793-9c7aeda4eb5c">
      <rect class="eedd6f4a-c194-4908-ae13-ad323636cd36" x="-89.71" y="-4" width="951.41" height="266.29"/>
    </clipPath>
  </defs>
  <g class="adc83d12-1ab7-4786-8e02-7d9c9054b20b">
    <g>
      <g>
        <rect class="b98bb6c9-db51-492f-8ced-a3bc1aabcbec" x="-81.01" y="244.16" width="927.99" height="52.94"/>
        <g>
          <path class="ab4c4efe-e258-47c2-8cb5-9d526366e5fd" d="M269.65,119h-5v7h5Zm0,7h-5v-7h5Z"/>
          <polygon class="ab4c4efe-e258-47c2-8cb5-9d526366e5fd" points="-21.96 123.76 -21.96 105.22 -3.62 105.22 -3.62 81.57 27.05 81.57 90.36 -111.72 -81.01 -111.72 -81.01 88.19 -69.14 88.19 -69.14 103.73 -37.33 103.73 -37.33 244.16 -81.01 244.16 -81.01 244.16 -29.4 244.16 -29.4 123.76 -21.96 123.76"/>
          <rect class="ab4c4efe-e258-47c2-8cb5-9d526366e5fd" x="269.65" y="143.98" height="6.95"/>
          <polygon class="ab4c4efe-e258-47c2-8cb5-9d526366e5fd" points="264.67 131.49 269.65 131.49 269.65 138.44 269.65 138.44 269.65 131.49 264.67 131.49 264.67 138.44 264.67 138.44 264.67 131.49"/>
          <polygon class="ab4c4efe-e258-47c2-8cb5-9d526366e5fd" points="551.06 69.28 551.06 61.52 556.26 61.52 556.26 69.28 564.9 69.28 564.9 55.03 586.06 55.03 586.06 105.22 604.01 105.22 675.06 -111.72 310.48 -111.72 261.15 38.9 262.17 38.9 262.17 48.52 266.78 48.52 266.78 58.26 268.44 58.26 268.44 72.52 273.76 72.52 273.76 244.16 273.79 244.16 273.79 77.06 295.27 77.06 295.27 69.49 301.1 69.49 301.1 77.06 318.19 77.06 318.19 107.19 349.73 107.19 349.73 125.74 356.7 125.74 356.7 95.8 362.11 95.8 362.11 88.53 402.46 88.53 402.46 95.8 407.87 95.8 407.87 244.16 417.5 244.16 417.5 123.76 414.48 123.76 414.48 117.27 424.54 117.27 424.54 103.71 428.33 103.71 428.33 99.77 439.32 99.77 439.32 103.71 451.03 103.71 451.03 117.27 477.51 117.27 477.51 88.18 489.46 88.18 489.46 103.71 530.49 103.71 530.49 244.16 535.81 244.16 535.81 69.28 551.06 69.28"/>
          <rect class="ab4c4efe-e258-47c2-8cb5-9d526366e5fd" x="269.65" y="106.5" height="6.95"/>
          <polygon class="ab4c4efe-e258-47c2-8cb5-9d526366e5fd" points="217.44 172.35 217.44 244.16 230.72 244.16 230.72 131.81 217.44 172.35"/>
          <polygon class="ab4c4efe-e258-47c2-8cb5-9d526366e5fd" points="264.67 94.01 269.65 94.01 269.65 100.96 269.65 100.96 269.65 94.01 264.67 94.01 264.67 100.96 264.67 100.96 264.67 94.01"/>
          <polygon class="ab4c4efe-e258-47c2-8cb5-9d526366e5fd" points="254.87 138.44 254.87 138.44 254.87 131.49 249.67 131.49 249.67 131.49 254.87 131.49 254.87 138.44"/>
          <polygon class="ab4c4efe-e258-47c2-8cb5-9d526366e5fd" points="254.87 100.96 254.87 100.96 254.87 94.01 249.67 94.01 249.67 94.01 254.87 94.01 254.87 100.96"/>
          <polygon class="ab4c4efe-e258-47c2-8cb5-9d526366e5fd" points="262.37 100.96 262.37 100.96 262.37 94.01 257.17 94.01 257.17 94.01 262.37 94.01 262.37 100.96"/>
          <polygon class="ab4c4efe-e258-47c2-8cb5-9d526366e5fd" points="254.87 125.94 249.67 125.94 249.67 125.94 254.87 125.94 254.87 118.99 249.67 118.99 249.67 118.99 254.87 118.99 254.87 125.94"/>
          <rect class="ab4c4efe-e258-47c2-8cb5-9d526366e5fd" x="262.37" y="81.52" height="6.95"/>
          <polygon class="ab4c4efe-e258-47c2-8cb5-9d526366e5fd" points="257.17 163.42 257.17 163.42 262.37 163.42 262.37 156.47 262.37 156.47 262.37 163.42 257.17 163.42"/>
          <rect class="ab4c4efe-e258-47c2-8cb5-9d526366e5fd" x="262.37" y="106.5" height="6.95"/>
          <polygon class="ab4c4efe-e258-47c2-8cb5-9d526366e5fd" points="262.37 125.94 257.17 125.94 257.17 125.94 262.37 125.94 262.37 118.99 257.17 118.99 257.17 118.99 262.37 118.99 262.37 125.94"/>
          <rect class="ab4c4efe-e258-47c2-8cb5-9d526366e5fd" x="262.37" y="143.98" height="6.95"/>
          <polygon class="ab4c4efe-e258-47c2-8cb5-9d526366e5fd" points="262.37 138.44 262.37 138.44 262.37 131.49 257.17 131.49 257.17 131.49 262.37 131.49 262.37 138.44"/>
          <polygon class="ab4c4efe-e258-47c2-8cb5-9d526366e5fd" points="269.65 156.47 269.65 156.47 269.65 163.42 264.67 163.42 264.67 156.47 264.67 156.47 264.67 163.42 269.65 163.42 269.65 156.47"/>
          <rect class="ab4c4efe-e258-47c2-8cb5-9d526366e5fd" x="234.82" y="163.42" width="5.05"/>
          <rect class="ab4c4efe-e258-47c2-8cb5-9d526366e5fd" x="234.82" y="131.49" width="5.05"/>
          <rect class="ab4c4efe-e258-47c2-8cb5-9d526366e5fd" x="242.17" y="163.42" width="5.2"/>
          <rect class="ab4c4efe-e258-47c2-8cb5-9d526366e5fd" x="269.65" y="81.52" height="6.95"/>
          <rect class="ab4c4efe-e258-47c2-8cb5-9d526366e5fd" x="242.17" y="125.94" width="5.2"/>
          <rect class="ab4c4efe-e258-47c2-8cb5-9d526366e5fd" x="242.17" y="118.99" width="5.2"/>
          <polygon class="ab4c4efe-e258-47c2-8cb5-9d526366e5fd" points="249.67 163.42 249.67 163.42 254.87 163.42 254.87 156.47 254.87 156.47 254.87 163.42 249.67 163.42"/>
          <rect class="ab4c4efe-e258-47c2-8cb5-9d526366e5fd" x="242.17" y="131.49" width="5.2"/>
          <polygon class="ab4c4efe-e258-47c2-8cb5-9d526366e5fd" points="168.13 99.36 168.13 83.89 179.84 83.89 179.84 79.39 186.11 79.39 248.7 -111.72 226.15 -111.72 157.01 99.36 168.13 99.36"/>
          <polygon class="a2db8ab3-e7c0-45e9-a5df-b2d4fdd1af64" points="-3.62 81.57 -3.62 105.22 19.3 105.22 27.05 81.57 -3.62 81.57"/>
          <path class="f9e081c3-52fa-431b-8155-114e44278a2f" d="M-10.64,196.63h-1.69v-5.35h3.44l1.4-4.27h-4.84v-5.35h6.59l1.4-4.27h-8V172h8.81v2.86L.38,163v-.54H.56L2,158.16H.38v-5.35H3.71l1.4-4.26H.38V143.2H6.86l1.4-4.27H.38v-5.35H9.19v2.51L19.3,105.22H-22v18.54H-29.4V244.18h3.19Zm-1.69-63h8.81v5.35h-8.81Zm0,9.62h8.81v5.35h-8.81Zm0,9.61h8.81v5.35h-8.81Zm0,9.62h8.81v5.35h-8.81Zm-12.34-28.85h8.44v5.35h-8.44Zm0,9.62h8.44v5.35h-8.44Zm0,9.61h8.44v5.35h-8.44Zm0,9.62h8.44v5.35h-8.44Zm0,9.61h8.44v5.35h-8.44Zm0,9.62h8.44V187h-8.44Zm0,9.62h8.44v5.35h-8.44Z"/>
          <path class="a2db8ab3-e7c0-45e9-a5df-b2d4fdd1af64" d="M163,150v-1.59h.52l22.61-69h-6.27v4.5H168.13V99.36H157l-20.68,63.15v2.25h-.74l-2.07,6.33h2.81V179h-5.41l-3.53,10.77v3.49h-1.14l-16.67,50.9h22.55Zm-32.79,35.34h6.14v7.94h-6.14Z"/>
          <path class="a2db8ab3-e7c0-45e9-a5df-b2d4fdd1af64" d="M287.1,156.24h-8.05v-5.35h8.05v-4.27h-8.05v-5.35h8.05V137h-8.05v-5.35h8.05v-4.27h-8.05V122h9v3.7h4V122h7.57v-4.27h-7.57v-5.35h7.57v-4.26h-7.57v-5.35h9v4.38h4v-4.38h8.66v4.38h4.4V77.06H301.1V69.49h-5.83v7.57H273.79v167.1H287.1Zm18-63.05h8.66v5.35h-8.66Zm-13,0h9v5.35h-9Zm-13,0h9v5.35h-9Zm0,9.62h9v5.35h-9Zm0,9.61h9v5.35h-9Z"/>
          <path class="a2db8ab3-e7c0-45e9-a5df-b2d4fdd1af64" d="M250.14,72.52l-2.95,9h.18v7h-2.46L243.1,94h4.27V101h-5.2V96.83L239,106.5h.86v7h-3.14L234.92,119h5v7h-5.05v-6.66l-4.1,12.53V244.16h43V72.52Zm14.53,9h5v7h-5Zm0,12.49h5V101h-5Zm0,12.49h5v7h-5Zm0,12.49h5v7h-5Zm0,12.5h5v6.95h-5Zm0,12.49h5v7h-5Zm0,12.49h5v6.95h-5Zm-7.5-74.95h5.2v7h-5.2Zm0,12.49h5.2V101h-5.2Zm0,12.49h5.2v7h-5.2Zm0,12.49h5.2v7h-5.2Zm0,12.5h5.2v6.95h-5.2Zm0,12.49h5.2v7h-5.2Zm0,12.49h5.2v6.95h-5.2Zm-7.5-74.95h5.2v7h-5.2Zm0,12.49h5.2V101h-5.2Zm0,12.49h5.2v7h-5.2Zm0,12.49h5.2v7h-5.2Zm0,12.5h5.2v6.95h-5.2Zm0,12.49h5.2v7h-5.2Zm0,12.49h5.2v6.95h-5.2Zm-7.5-50h5.2v7h-5.2Zm0,12.49h5.2v7h-5.2Zm0,12.5h5.2v6.95h-5.2Zm0,12.49h5.2v7h-5.2Zm0,12.49h5.2v6.95h-5.2Zm-7.35-25h5.05v6.95h-5.05Zm0,12.49h5.05v7h-5.05Zm0,12.49h5.05v6.95h-5.05Z"/>
          <polygon class="f9e081c3-52fa-431b-8155-114e44278a2f" points="268.44 72.52 268.44 58.26 266.78 58.26 266.78 48.52 262.17 48.52 262.17 38.9 261.15 38.9 250.14 72.52 268.44 72.52"/>
          <polygon class="f9e081c3-52fa-431b-8155-114e44278a2f" points="212.7 186.81 213.68 186.81 213.68 191.06 211.31 191.06 210.2 194.46 213.68 194.46 213.68 198.71 208.81 198.71 207.69 202.1 213.68 202.1 213.68 206.36 206.88 206.36 206.88 204.6 193.91 244.18 217.44 244.18 217.44 172.35 212.7 186.81"/>
          <polygon class="f9e081c3-52fa-431b-8155-114e44278a2f" points="162.98 150 163.5 148.41 162.98 148.41 162.98 150"/>
          <polygon class="fa4a560f-8c8b-4989-85e7-4d06721cc6f7" points="136.33 164.76 136.33 162.51 135.59 164.76 136.33 164.76"/>
          <polygon class="fa4a560f-8c8b-4989-85e7-4d06721cc6f7" points="136.33 179.02 136.33 171.09 133.52 171.09 130.92 179.02 136.33 179.02"/>
          <polygon class="fa4a560f-8c8b-4989-85e7-4d06721cc6f7" points="127.39 193.28 127.39 189.79 126.25 193.28 127.39 193.28"/>
          <rect class="fa4a560f-8c8b-4989-85e7-4d06721cc6f7" x="130.19" y="185.34" width="6.14" height="7.93"/>
          <polygon class="a2db8ab3-e7c0-45e9-a5df-b2d4fdd1af64" points="0.38 133.58 0.38 138.93 8.26 138.93 9.19 136.09 9.19 133.58 0.38 133.58"/>
          <polygon class="a2db8ab3-e7c0-45e9-a5df-b2d4fdd1af64" points="0.38 148.55 5.11 148.55 6.86 143.2 0.38 143.2 0.38 148.55"/>
          <polygon class="a2db8ab3-e7c0-45e9-a5df-b2d4fdd1af64" points="0.38 158.16 1.96 158.16 3.71 152.81 0.38 152.81 0.38 158.16"/>
          <polygon class="a2db8ab3-e7c0-45e9-a5df-b2d4fdd1af64" points="0.38 162.97 0.56 162.43 0.38 162.43 0.38 162.97"/>
          <rect class="fa4a560f-8c8b-4989-85e7-4d06721cc6f7" x="257.17" y="81.52" width="5.2" height="6.95"/>
          <rect class="fa4a560f-8c8b-4989-85e7-4d06721cc6f7" x="249.67" y="81.52" width="5.2" height="6.95"/>
          <rect class="fa4a560f-8c8b-4989-85e7-4d06721cc6f7" x="264.67" y="81.52" width="4.98" height="6.95"/>
          <polygon class="fa4a560f-8c8b-4989-85e7-4d06721cc6f7" points="247.37 88.47 247.37 81.52 247.19 81.52 244.91 88.47 247.37 88.47"/>
          <rect class="fa4a560f-8c8b-4989-85e7-4d06721cc6f7" x="257.17" y="94.01" width="5.2" height="6.95"/>
          <rect class="fa4a560f-8c8b-4989-85e7-4d06721cc6f7" x="264.67" y="94.01" width="4.98" height="6.95"/>
          <rect class="fa4a560f-8c8b-4989-85e7-4d06721cc6f7" x="249.67" y="94.01" width="5.2" height="6.95"/>
          <polygon class="fa4a560f-8c8b-4989-85e7-4d06721cc6f7" points="242.18 100.96 247.37 100.96 247.37 94.01 243.1 94.01 242.18 96.83 242.18 100.96"/>
          <rect class="fa4a560f-8c8b-4989-85e7-4d06721cc6f7" x="242.17" y="106.5" width="5.2" height="6.95"/>
          <rect class="fa4a560f-8c8b-4989-85e7-4d06721cc6f7" x="249.67" y="106.5" width="5.2" height="6.95"/>
          <polygon class="fa4a560f-8c8b-4989-85e7-4d06721cc6f7" points="239.87 113.45 239.87 106.5 239.01 106.5 236.73 113.45 239.87 113.45"/>
          <rect class="fa4a560f-8c8b-4989-85e7-4d06721cc6f7" x="257.17" y="106.5" width="5.2" height="6.95"/>
          <rect class="fa4a560f-8c8b-4989-85e7-4d06721cc6f7" x="264.67" y="106.5" width="4.98" height="6.95"/>
          <polygon class="fa4a560f-8c8b-4989-85e7-4d06721cc6f7" points="234.82 125.94 239.87 125.94 239.87 118.99 234.92 118.99 234.82 119.28 234.82 125.94"/>
          <rect class="fa4a560f-8c8b-4989-85e7-4d06721cc6f7" x="242.17" y="118.99" width="5.2" height="6.95"/>
          <rect class="fa4a560f-8c8b-4989-85e7-4d06721cc6f7" x="264.67" y="118.99" width="4.98" height="6.95"/>
          <rect class="fa4a560f-8c8b-4989-85e7-4d06721cc6f7" x="249.67" y="118.99" width="5.2" height="6.95"/>
          <rect class="fa4a560f-8c8b-4989-85e7-4d06721cc6f7" x="257.17" y="118.99" width="5.2" height="6.95"/>
          <rect class="fa4a560f-8c8b-4989-85e7-4d06721cc6f7" x="257.17" y="131.49" width="5.2" height="6.95"/>
          <rect class="fa4a560f-8c8b-4989-85e7-4d06721cc6f7" x="249.67" y="131.49" width="5.2" height="6.95"/>
          <rect class="fa4a560f-8c8b-4989-85e7-4d06721cc6f7" x="234.82" y="131.49" width="5.05" height="6.95"/>
          <rect class="fa4a560f-8c8b-4989-85e7-4d06721cc6f7" x="242.17" y="131.49" width="5.2" height="6.95"/>
          <rect class="fa4a560f-8c8b-4989-85e7-4d06721cc6f7" x="264.67" y="131.49" width="4.98" height="6.95"/>
          <rect class="fa4a560f-8c8b-4989-85e7-4d06721cc6f7" x="249.67" y="143.98" width="5.2" height="6.95"/>
          <rect class="fa4a560f-8c8b-4989-85e7-4d06721cc6f7" x="242.17" y="143.98" width="5.2" height="6.95"/>
          <rect class="fa4a560f-8c8b-4989-85e7-4d06721cc6f7" x="257.17" y="143.98" width="5.2" height="6.95"/>
          <rect class="fa4a560f-8c8b-4989-85e7-4d06721cc6f7" x="264.67" y="143.98" width="4.98" height="6.95"/>
          <rect class="fa4a560f-8c8b-4989-85e7-4d06721cc6f7" x="234.82" y="143.98" width="5.05" height="6.95"/>
          <rect class="fa4a560f-8c8b-4989-85e7-4d06721cc6f7" x="264.67" y="156.47" width="4.98" height="6.95"/>
          <rect class="fa4a560f-8c8b-4989-85e7-4d06721cc6f7" x="249.67" y="156.47" width="5.2" height="6.95"/>
          <rect class="fa4a560f-8c8b-4989-85e7-4d06721cc6f7" x="257.17" y="156.47" width="5.2" height="6.95"/>
          <rect class="fa4a560f-8c8b-4989-85e7-4d06721cc6f7" x="242.17" y="156.47" width="5.2" height="6.95"/>
          <rect class="fa4a560f-8c8b-4989-85e7-4d06721cc6f7" x="234.82" y="156.47" width="5.05" height="6.95"/>
          <path class="f9e081c3-52fa-431b-8155-114e44278a2f" d="M402.46,95.8V88.53H362.11V95.8H356.7v29.94h-7V107.19H313.79v-4.38h-8.66v4.38h-4v-4.38h-9v5.35h7.57v4.26h-7.57v5.35h7.57V122h-7.57v3.7h-4V122h-9v5.35h8.05v4.27h-8.05V137h8.05v4.26h-8.05v5.35h8.05v4.27h-8.05v5.35h8.05v87.92h69.6v0h51.17V95.8ZM395,105.52h5.09v6.93H395ZM395,118h5.09v6.94H395Zm0,12.47h5.09v6.94H395Zm0,12.47h5.09v6.93H395Zm0,12.46h5.09v6.94H395Zm0,12.47h5.09v6.93H395Zm0,12.46h5.09v6.94H395Zm-7.68-74.79h5.32v6.93h-5.32Zm0,12.46h5.32v6.94h-5.32Zm0,12.47h5.32v6.94h-5.32Zm0,12.47h5.32v6.93h-5.32Zm0,12.46h5.32v6.94h-5.32Zm0,12.47h5.32v6.93h-5.32Zm0,12.46h5.32v6.94h-5.32Zm-7.67-74.79H385v6.93h-5.32Zm0,12.46H385v6.94h-5.32Zm0,12.47H385v6.94h-5.32Zm0,12.47H385v6.93h-5.32Zm0,12.46H385v6.94h-5.32Zm0,12.47H385v6.93h-5.32Zm0,12.46H385v6.94h-5.32ZM372,105.52h5.31v6.93H372ZM372,118h5.31v6.94H372Zm0,12.47h5.31v6.94H372Zm0,12.47h5.31v6.93H372Zm0,12.46h5.31v6.94H372Zm0,12.47h5.31v6.93H372Zm0,12.46h5.31v6.94H372Zm-7.53-74.79h5.17v6.93h-5.17Zm0,12.46h5.17v6.94h-5.17Zm0,12.47h5.17v6.94h-5.17Zm0,12.47h5.17v6.93h-5.17Zm0,12.46h5.17v6.94h-5.17Zm0,12.47h5.17v6.93h-5.17Zm0,12.46h5.17v6.94h-5.17Z"/>
          <rect class="f9e081c3-52fa-431b-8155-114e44278a2f" x="305.13" y="93.19" width="8.66" height="5.35"/>
          <rect class="f9e081c3-52fa-431b-8155-114e44278a2f" x="292.09" y="93.19" width="9.03" height="5.35"/>
          <rect class="f9e081c3-52fa-431b-8155-114e44278a2f" x="279.05" y="93.19" width="9.03" height="5.35"/>
          <rect class="f9e081c3-52fa-431b-8155-114e44278a2f" x="279.05" y="102.81" width="9.03" height="5.35"/>
          <rect class="f9e081c3-52fa-431b-8155-114e44278a2f" x="279.05" y="112.42" width="9.03" height="5.35"/>
          <rect class="a2db8ab3-e7c0-45e9-a5df-b2d4fdd1af64" x="371.99" y="105.52" width="5.31" height="6.94"/>
          <rect class="a2db8ab3-e7c0-45e9-a5df-b2d4fdd1af64" x="364.46" y="105.52" width="5.17" height="6.94"/>
          <rect class="a2db8ab3-e7c0-45e9-a5df-b2d4fdd1af64" x="371.99" y="117.98" width="5.31" height="6.94"/>
          <rect class="a2db8ab3-e7c0-45e9-a5df-b2d4fdd1af64" x="364.46" y="117.98" width="5.17" height="6.94"/>
          <rect class="a2db8ab3-e7c0-45e9-a5df-b2d4fdd1af64" x="371.99" y="130.45" width="5.31" height="6.94"/>
          <rect class="a2db8ab3-e7c0-45e9-a5df-b2d4fdd1af64" x="364.46" y="130.45" width="5.17" height="6.94"/>
          <rect class="a2db8ab3-e7c0-45e9-a5df-b2d4fdd1af64" x="371.99" y="142.92" width="5.31" height="6.94"/>
          <rect class="a2db8ab3-e7c0-45e9-a5df-b2d4fdd1af64" x="364.46" y="142.92" width="5.17" height="6.94"/>
          <rect class="a2db8ab3-e7c0-45e9-a5df-b2d4fdd1af64" x="371.99" y="155.38" width="5.31" height="6.94"/>
          <rect class="a2db8ab3-e7c0-45e9-a5df-b2d4fdd1af64" x="364.46" y="155.38" width="5.17" height="6.94"/>
          <rect class="a2db8ab3-e7c0-45e9-a5df-b2d4fdd1af64" x="364.46" y="167.85" width="5.17" height="6.94"/>
          <rect class="a2db8ab3-e7c0-45e9-a5df-b2d4fdd1af64" x="371.99" y="167.85" width="5.31" height="6.94"/>
          <rect class="a2db8ab3-e7c0-45e9-a5df-b2d4fdd1af64" x="364.46" y="180.31" width="5.17" height="6.94"/>
          <rect class="a2db8ab3-e7c0-45e9-a5df-b2d4fdd1af64" x="371.99" y="180.31" width="5.31" height="6.94"/>
          <polygon class="a2db8ab3-e7c0-45e9-a5df-b2d4fdd1af64" points="213.68 191.06 213.68 186.81 212.7 186.81 211.31 191.06 213.68 191.06"/>
          <polygon class="a2db8ab3-e7c0-45e9-a5df-b2d4fdd1af64" points="213.68 198.71 213.68 194.46 210.2 194.46 208.81 198.71 213.68 198.71"/>
          <polygon class="a2db8ab3-e7c0-45e9-a5df-b2d4fdd1af64" points="206.88 206.36 213.68 206.36 213.68 202.1 207.69 202.1 206.88 204.6 206.88 206.36"/>
          <polygon class="a2acce31-e1ed-4177-b123-243f1613a64d" points="88.68 244.16 83.36 244.16 83.36 244.18 -26.21 244.18 -26.22 244.2 109.57 244.2 109.58 244.18 88.68 244.18 88.68 244.16"/>
          <polygon class="bea01e7c-263b-4523-abd1-c6f7ec6a5f25" points="33.01 81.57 33.01 93.82 47.95 93.82 47.95 87.15 56.96 87.15 56.96 93.82 83.36 93.82 83.36 244.16 88.68 244.16 88.68 83.89 129.71 83.89 129.71 66.16 141.65 66.16 141.65 99.36 157.01 99.36 226.15 -111.72 90.36 -111.72 27.05 81.57 33.01 81.57"/>
          <polygon class="f73aabe6-8378-49be-ba8b-fc14a5f9317e" points="56.96 93.82 56.96 87.15 47.95 87.15 47.95 93.82 33.01 93.82 33.01 81.57 27.05 81.57 19.3 105.22 26.84 105.22 26.84 123.76 39.08 123.76 39.08 244.18 83.36 244.18 83.36 93.82 56.96 93.82"/>
          <path class="a8f7b41a-27cd-4717-9e4f-6122aa5da804" d="M39.08,123.76H26.84V105.22H19.3L9.19,136.09v2.84H8.26l-1.4,4.27H9.19v5.35H5.11l-1.4,4.26H9.19v5.35H2l-1.4,4.27H9.19v5.35H.38V163l-3.9,11.93v2.49h-.82l-1.4,4.27h2.22V187h-4l-1.4,4.27h5.37v5.35h-7.12l-15.57,47.55H39.08ZM25.8,133.58h8.56v5.35H25.8Zm0,9.62h8.56v5.35H25.8Zm0,9.61h8.56v5.35H25.8Zm0,9.62h8.56v5.35H25.8Zm0,9.61h8.56v5.35H25.8Zm0,9.62h8.56V187H25.8Zm0,9.62h8.56v5.35H25.8Zm-12.71-57.7H21.9v5.35H13.09Zm0,9.62H21.9v5.35H13.09Zm0,9.61H21.9v5.35H13.09Zm0,9.62H21.9v5.35H13.09Zm0,9.61H21.9v5.35H13.09Zm0,9.62H21.9V187H13.09Zm0,9.62H21.9v5.35H13.09ZM.38,172H9.19v5.35H.38Zm0,9.62H9.19V187H.38Zm0,9.62H9.19v5.35H.38Z"/>
          <path class="f73aabe6-8378-49be-ba8b-fc14a5f9317e" d="M126.25,193.28h-5.17v-7.94h6.31v4.45L130.92,179h-.73v-7.93h3.33l2.07-6.33h-5.4v-7.93h6.14v5.68L157,99.36H141.65V66.16H129.71V83.89h-41V244.18h20.9Zm3.94-93.47h6.14v7.93h-6.14Zm0,14.26h6.14V122h-6.14Zm0,14.25h6.14v7.93h-6.14Zm0,14.26h6.14v7.93h-6.14Zm-9.11-42.77h6.31v7.93h-6.31Zm0,14.26h6.31V122h-6.31Zm0,14.25h6.31v7.93h-6.31Zm0,14.26h6.31v7.93h-6.31Zm0,14.25h6.31v7.93h-6.31Zm0,14.26h6.31V179h-6.31ZM112,99.81h6.32v7.93H112Zm0,14.26h6.32V122H112Zm0,14.25h6.32v7.93H112Zm0,14.26h6.32v7.93H112Zm0,14.25h6.32v7.93H112Zm0,14.26h6.32V179H112Zm0,14.25h6.32v7.94H112Zm-9.11-85.53h6.31v7.93h-6.31Zm0,14.26h6.31V122h-6.31Zm0,14.25h6.31v7.93h-6.31Zm0,14.26h6.31v7.93h-6.31Zm0,14.25h6.31v7.93h-6.31Zm0,14.26h6.31V179h-6.31Zm0,14.25h6.31v7.94h-6.31ZM94,99.81h6v7.93H94Zm0,14.26h6V122H94Zm0,14.25h6v7.93H94Zm0,14.26h6v7.93H94Zm0,14.25h6v7.93H94Zm0,14.26h6V179H94Zm0,14.25h6v7.94H94Z"/>
          <rect class="bd5b5ea8-ea39-444a-a87b-5ae712802d90" x="130.19" y="142.58" width="6.14" height="7.93"/>
          <rect class="bd5b5ea8-ea39-444a-a87b-5ae712802d90" x="111.96" y="156.83" width="6.31" height="7.93"/>
          <rect class="bd5b5ea8-ea39-444a-a87b-5ae712802d90" x="121.08" y="156.83" width="6.31" height="7.93"/>
          <rect class="bd5b5ea8-ea39-444a-a87b-5ae712802d90" x="111.96" y="99.81" width="6.31" height="7.93"/>
          <rect class="bd5b5ea8-ea39-444a-a87b-5ae712802d90" x="102.85" y="99.81" width="6.31" height="7.93"/>
          <rect class="bd5b5ea8-ea39-444a-a87b-5ae712802d90" x="130.19" y="99.81" width="6.14" height="7.93"/>
          <rect class="bd5b5ea8-ea39-444a-a87b-5ae712802d90" x="121.08" y="99.81" width="6.31" height="7.93"/>
          <rect class="bd5b5ea8-ea39-444a-a87b-5ae712802d90" x="94" y="99.81" width="6.05" height="7.93"/>
          <rect class="bd5b5ea8-ea39-444a-a87b-5ae712802d90" x="111.96" y="114.07" width="6.31" height="7.93"/>
          <rect class="bd5b5ea8-ea39-444a-a87b-5ae712802d90" x="121.08" y="114.07" width="6.31" height="7.93"/>
          <rect class="bd5b5ea8-ea39-444a-a87b-5ae712802d90" x="102.85" y="114.07" width="6.31" height="7.93"/>
          <rect class="bd5b5ea8-ea39-444a-a87b-5ae712802d90" x="94" y="114.07" width="6.05" height="7.93"/>
          <rect class="bd5b5ea8-ea39-444a-a87b-5ae712802d90" x="130.19" y="114.07" width="6.14" height="7.93"/>
          <rect class="bd5b5ea8-ea39-444a-a87b-5ae712802d90" x="102.85" y="128.32" width="6.31" height="7.93"/>
          <rect class="bd5b5ea8-ea39-444a-a87b-5ae712802d90" x="111.96" y="128.32" width="6.31" height="7.93"/>
          <rect class="bd5b5ea8-ea39-444a-a87b-5ae712802d90" x="94" y="128.32" width="6.05" height="7.93"/>
          <rect class="bd5b5ea8-ea39-444a-a87b-5ae712802d90" x="121.08" y="128.32" width="6.31" height="7.93"/>
          <rect class="bd5b5ea8-ea39-444a-a87b-5ae712802d90" x="130.19" y="128.32" width="6.14" height="7.93"/>
          <rect class="bd5b5ea8-ea39-444a-a87b-5ae712802d90" x="111.96" y="142.58" width="6.31" height="7.93"/>
          <rect class="bd5b5ea8-ea39-444a-a87b-5ae712802d90" x="94" y="142.58" width="6.05" height="7.93"/>
          <rect class="bd5b5ea8-ea39-444a-a87b-5ae712802d90" x="121.08" y="142.58" width="6.31" height="7.93"/>
          <rect class="bd5b5ea8-ea39-444a-a87b-5ae712802d90" x="102.85" y="142.58" width="6.31" height="7.93"/>
          <rect class="bd5b5ea8-ea39-444a-a87b-5ae712802d90" x="94" y="156.83" width="6.05" height="7.93"/>
          <rect class="bd5b5ea8-ea39-444a-a87b-5ae712802d90" x="102.85" y="156.83" width="6.31" height="7.93"/>
          <polygon class="bd5b5ea8-ea39-444a-a87b-5ae712802d90" points="130.19 156.83 130.19 164.76 135.59 164.76 136.33 162.51 136.33 156.83 130.19 156.83"/>
          <rect class="bd5b5ea8-ea39-444a-a87b-5ae712802d90" x="102.85" y="171.09" width="6.31" height="7.93"/>
          <rect class="bd5b5ea8-ea39-444a-a87b-5ae712802d90" x="121.08" y="171.09" width="6.31" height="7.93"/>
          <rect class="bd5b5ea8-ea39-444a-a87b-5ae712802d90" x="94" y="171.09" width="6.05" height="7.93"/>
          <rect class="bd5b5ea8-ea39-444a-a87b-5ae712802d90" x="111.96" y="171.09" width="6.31" height="7.93"/>
          <polygon class="bd5b5ea8-ea39-444a-a87b-5ae712802d90" points="130.19 179.02 130.92 179.02 133.52 171.09 130.19 171.09 130.19 179.02"/>
          <rect class="bd5b5ea8-ea39-444a-a87b-5ae712802d90" x="111.96" y="185.34" width="6.31" height="7.93"/>
          <rect class="bd5b5ea8-ea39-444a-a87b-5ae712802d90" x="94" y="185.34" width="6.05" height="7.93"/>
          <polygon class="bd5b5ea8-ea39-444a-a87b-5ae712802d90" points="121.08 185.34 121.08 193.28 126.25 193.28 127.39 189.79 127.39 185.34 121.08 185.34"/>
          <rect class="bd5b5ea8-ea39-444a-a87b-5ae712802d90" x="102.85" y="185.34" width="6.31" height="7.93"/>
          <polygon class="f73aabe6-8378-49be-ba8b-fc14a5f9317e" points="9.19 138.93 9.19 136.09 8.26 138.93 9.19 138.93"/>
          <rect class="f73aabe6-8378-49be-ba8b-fc14a5f9317e" x="13.09" y="133.58" width="8.8" height="5.35"/>
          <rect class="f73aabe6-8378-49be-ba8b-fc14a5f9317e" x="25.8" y="133.58" width="8.56" height="5.35"/>
          <polygon class="f73aabe6-8378-49be-ba8b-fc14a5f9317e" points="9.19 148.55 9.19 143.2 6.86 143.2 5.11 148.55 9.19 148.55"/>
          <rect class="f73aabe6-8378-49be-ba8b-fc14a5f9317e" x="25.8" y="143.2" width="8.56" height="5.35"/>
          <rect class="f73aabe6-8378-49be-ba8b-fc14a5f9317e" x="13.09" y="143.2" width="8.8" height="5.35"/>
          <polygon class="f73aabe6-8378-49be-ba8b-fc14a5f9317e" points="9.19 158.16 9.19 152.81 3.71 152.81 1.96 158.16 9.19 158.16"/>
          <rect class="f73aabe6-8378-49be-ba8b-fc14a5f9317e" x="13.09" y="152.81" width="8.8" height="5.35"/>
          <rect class="f73aabe6-8378-49be-ba8b-fc14a5f9317e" x="25.8" y="152.81" width="8.56" height="5.35"/>
          <polygon class="f73aabe6-8378-49be-ba8b-fc14a5f9317e" points="0.38 167.78 9.19 167.78 9.19 162.43 0.56 162.43 0.38 162.97 0.38 167.78"/>
          <rect class="f73aabe6-8378-49be-ba8b-fc14a5f9317e" x="25.8" y="162.43" width="8.56" height="5.35"/>
          <rect class="f73aabe6-8378-49be-ba8b-fc14a5f9317e" x="13.09" y="162.43" width="8.8" height="5.35"/>
          <rect class="f73aabe6-8378-49be-ba8b-fc14a5f9317e" x="0.38" y="172.04" width="8.8" height="5.35"/>
          <rect class="f73aabe6-8378-49be-ba8b-fc14a5f9317e" x="13.09" y="172.04" width="8.8" height="5.35"/>
          <rect class="f73aabe6-8378-49be-ba8b-fc14a5f9317e" x="25.8" y="172.04" width="8.56" height="5.35"/>
          <rect class="f73aabe6-8378-49be-ba8b-fc14a5f9317e" x="0.38" y="181.66" width="8.8" height="5.35"/>
          <rect class="f73aabe6-8378-49be-ba8b-fc14a5f9317e" x="25.8" y="181.66" width="8.56" height="5.35"/>
          <rect class="f73aabe6-8378-49be-ba8b-fc14a5f9317e" x="13.09" y="181.66" width="8.8" height="5.35"/>
          <rect class="f73aabe6-8378-49be-ba8b-fc14a5f9317e" x="0.38" y="191.28" width="8.8" height="5.35"/>
          <rect class="f73aabe6-8378-49be-ba8b-fc14a5f9317e" x="25.8" y="191.28" width="8.56" height="5.35"/>
          <rect class="f73aabe6-8378-49be-ba8b-fc14a5f9317e" x="13.09" y="191.28" width="8.8" height="5.35"/>
          <polygon class="a2acce31-e1ed-4177-b123-243f1613a64d" points="132.13 244.18 132.13 244.2 193.91 244.2 193.91 244.18 132.13 244.18"/>
          <polygon class="bea01e7c-263b-4523-abd1-c6f7ec6a5f25" points="190.84 79.39 190.84 83.89 194.62 83.89 194.62 99.36 204.68 99.36 204.68 106.77 201.66 106.77 201.66 148.41 217.44 148.41 217.44 172.35 230.72 131.81 230.72 72.52 236.04 72.52 236.04 58.26 237.69 58.26 237.69 48.52 242.31 48.52 242.31 38.9 251.23 38.9 251.23 14.21 253.24 14.21 253.24 38.9 261.15 38.9 310.48 -111.72 248.7 -111.72 186.11 79.39 190.84 79.39"/>
          <polygon class="f73aabe6-8378-49be-ba8b-fc14a5f9317e" points="162.98 150 132.13 244.18 162.98 244.18 162.98 150"/>
          <polygon class="f73aabe6-8378-49be-ba8b-fc14a5f9317e" points="204.68 106.77 204.68 99.36 194.62 99.36 194.62 83.89 190.84 83.89 190.84 79.39 186.11 79.39 163.5 148.41 201.66 148.41 201.66 106.77 204.68 106.77"/>
          <path class="f73aabe6-8378-49be-ba8b-fc14a5f9317e" d="M230.72,72.52v59.29l4.1-12.53V119h.1l1.81-5.54h-1.91v-7H239l3.16-9.67V94h.93l1.81-5.54h-2.74v-7h5l2.95-9ZM239.87,101h-5.05V94h5.05Zm0-12.49h-5.05v-7h5.05Z"/>
          <polygon class="a8f7b41a-27cd-4717-9e4f-6122aa5da804" points="253.24 14.21 251.23 14.21 251.23 38.9 242.31 38.9 242.31 48.52 237.69 48.52 237.69 58.26 236.04 58.26 236.04 72.52 250.14 72.52 261.15 38.9 253.24 38.9 253.24 14.21"/>
          <path class="a8f7b41a-27cd-4717-9e4f-6122aa5da804" d="M206.88,204.6v-2.5h.81l1.12-3.39h-1.93v-4.25h3.32l1.11-3.4h-4.43v-4.25h5.82l4.74-14.46V148.41H163.5L163,150v94.18h30.93Zm0-48.38h6.8v4.25h-6.8Zm0,7.65h6.8v4.25h-6.8Zm0,7.64h6.8v4.26h-6.8Zm0,7.65h6.8v4.26h-6.8Zm-10.11-22.94h7v4.25h-7Zm0,7.65h7v4.25h-7Zm0,7.64h7v4.26h-7Zm0,7.65h7v4.26h-7Zm0,7.65h7v4.25h-7Zm0,7.65h7v4.25h-7Zm0,7.64h7v4.26h-7Zm-10.11-45.88h7v4.25h-7Zm0,7.65h7v4.25h-7Zm0,7.64h7v4.26h-7Zm0,7.65h7v4.26h-7Zm0,7.65h7v4.25h-7Zm0,7.65h7v4.25h-7Zm0,7.64h7v4.26h-7Zm-10.11-45.88h7v4.25h-7Zm0,7.65h7v4.25h-7Zm0,7.64h7v4.26h-7Zm0,7.65h7v4.26h-7Zm0,7.65h7v4.25h-7Zm0,7.65h7v4.25h-7Zm0,7.64h7v4.26h-7Zm-9.82-45.88h6.72v4.25h-6.72Zm0,7.65h6.72v4.25h-6.72Zm0,7.64h6.72v4.26h-6.72Zm0,7.65h6.72v4.26h-6.72Zm0,7.65h6.72v4.25h-6.72Zm0,7.65h6.72v4.25h-6.72Zm0,7.64h6.72v4.26h-6.72Z"/>
          <rect class="bd5b5ea8-ea39-444a-a87b-5ae712802d90" x="234.82" y="81.52" width="5.05" height="6.95"/>
          <polygon class="bd5b5ea8-ea39-444a-a87b-5ae712802d90" points="242.18 88.47 244.91 88.47 247.19 81.52 242.18 81.52 242.18 88.47"/>
          <rect class="bd5b5ea8-ea39-444a-a87b-5ae712802d90" x="234.82" y="94.01" width="5.05" height="6.95"/>
          <polygon class="bd5b5ea8-ea39-444a-a87b-5ae712802d90" points="242.18 96.83 243.1 94.01 242.18 94.01 242.18 96.83"/>
          <polygon class="bd5b5ea8-ea39-444a-a87b-5ae712802d90" points="234.82 113.45 236.73 113.45 239.01 106.5 234.82 106.5 234.82 113.45"/>
          <polygon class="bd5b5ea8-ea39-444a-a87b-5ae712802d90" points="234.82 119.28 234.92 118.99 234.82 118.99 234.82 119.28"/>
          <rect class="f73aabe6-8378-49be-ba8b-fc14a5f9317e" x="186.66" y="156.22" width="7" height="4.25"/>
          <rect class="f73aabe6-8378-49be-ba8b-fc14a5f9317e" x="176.55" y="156.22" width="7" height="4.25"/>
          <rect class="f73aabe6-8378-49be-ba8b-fc14a5f9317e" x="166.73" y="156.22" width="6.71" height="4.25"/>
          <rect class="f73aabe6-8378-49be-ba8b-fc14a5f9317e" x="196.77" y="156.22" width="7" height="4.25"/>
          <rect class="f73aabe6-8378-49be-ba8b-fc14a5f9317e" x="206.88" y="156.22" width="6.8" height="4.25"/>
          <rect class="f73aabe6-8378-49be-ba8b-fc14a5f9317e" x="176.55" y="163.87" width="7" height="4.25"/>
          <rect class="f73aabe6-8378-49be-ba8b-fc14a5f9317e" x="186.66" y="163.87" width="7" height="4.25"/>
          <rect class="f73aabe6-8378-49be-ba8b-fc14a5f9317e" x="166.73" y="163.87" width="6.71" height="4.25"/>
          <rect class="f73aabe6-8378-49be-ba8b-fc14a5f9317e" x="206.88" y="163.87" width="6.8" height="4.25"/>
          <rect class="f73aabe6-8378-49be-ba8b-fc14a5f9317e" x="196.77" y="163.87" width="7" height="4.25"/>
          <rect class="f73aabe6-8378-49be-ba8b-fc14a5f9317e" x="176.55" y="171.51" width="7" height="4.25"/>
          <rect class="f73aabe6-8378-49be-ba8b-fc14a5f9317e" x="186.66" y="171.51" width="7" height="4.25"/>
          <rect class="f73aabe6-8378-49be-ba8b-fc14a5f9317e" x="166.73" y="171.51" width="6.71" height="4.25"/>
          <rect class="f73aabe6-8378-49be-ba8b-fc14a5f9317e" x="196.77" y="171.51" width="7" height="4.25"/>
          <rect class="f73aabe6-8378-49be-ba8b-fc14a5f9317e" x="206.88" y="171.51" width="6.8" height="4.25"/>
          <rect class="f73aabe6-8378-49be-ba8b-fc14a5f9317e" x="186.66" y="179.16" width="7" height="4.25"/>
          <rect class="f73aabe6-8378-49be-ba8b-fc14a5f9317e" x="176.55" y="179.16" width="7" height="4.25"/>
          <rect class="f73aabe6-8378-49be-ba8b-fc14a5f9317e" x="166.73" y="179.16" width="6.71" height="4.25"/>
          <rect class="f73aabe6-8378-49be-ba8b-fc14a5f9317e" x="206.88" y="179.16" width="6.8" height="4.25"/>
          <rect class="f73aabe6-8378-49be-ba8b-fc14a5f9317e" x="196.77" y="179.16" width="7" height="4.25"/>
          <rect class="f73aabe6-8378-49be-ba8b-fc14a5f9317e" x="186.66" y="186.81" width="7" height="4.26"/>
          <rect class="f73aabe6-8378-49be-ba8b-fc14a5f9317e" x="176.55" y="186.81" width="7" height="4.26"/>
          <rect class="f73aabe6-8378-49be-ba8b-fc14a5f9317e" x="166.73" y="186.81" width="6.71" height="4.26"/>
          <rect class="f73aabe6-8378-49be-ba8b-fc14a5f9317e" x="196.77" y="186.81" width="7" height="4.26"/>
          <polygon class="f73aabe6-8378-49be-ba8b-fc14a5f9317e" points="206.88 191.06 211.31 191.06 212.7 186.81 206.88 186.81 206.88 191.06"/>
          <rect class="f73aabe6-8378-49be-ba8b-fc14a5f9317e" x="186.66" y="194.46" width="7" height="4.26"/>
          <rect class="f73aabe6-8378-49be-ba8b-fc14a5f9317e" x="176.55" y="194.46" width="7" height="4.26"/>
          <rect class="f73aabe6-8378-49be-ba8b-fc14a5f9317e" x="166.73" y="194.46" width="6.71" height="4.26"/>
          <polygon class="f73aabe6-8378-49be-ba8b-fc14a5f9317e" points="206.88 198.71 208.81 198.71 210.2 194.46 206.88 194.46 206.88 198.71"/>
          <rect class="f73aabe6-8378-49be-ba8b-fc14a5f9317e" x="196.77" y="194.46" width="7" height="4.26"/>
          <rect class="f73aabe6-8378-49be-ba8b-fc14a5f9317e" x="186.66" y="202.1" width="7" height="4.26"/>
          <rect class="f73aabe6-8378-49be-ba8b-fc14a5f9317e" x="176.55" y="202.1" width="7" height="4.26"/>
          <rect class="f73aabe6-8378-49be-ba8b-fc14a5f9317e" x="166.73" y="202.1" width="6.71" height="4.26"/>
          <polygon class="f73aabe6-8378-49be-ba8b-fc14a5f9317e" points="206.88 204.6 207.69 202.1 206.88 202.1 206.88 204.6"/>
          <rect class="f73aabe6-8378-49be-ba8b-fc14a5f9317e" x="196.77" y="202.1" width="7" height="4.26"/>
        </g>
        <g>
          <rect class="f18de957-94d8-4df7-8f5f-3f8cb90701fb" x="221.39" y="-111.72" width="3.27" height="355.88"/>
          <rect class="f18de957-94d8-4df7-8f5f-3f8cb90701fb" x="57.04" y="-111.72" width="3.27" height="355.88"/>
        </g>
        <g>
          <polygon class="ae816319-2f55-4f94-bba2-ed960d0101d8" points="317.79 289.17 379.66 289.17 375.33 271.51 313.75 271.51 317.79 289.17"/>
          <polygon class="ae816319-2f55-4f94-bba2-ed960d0101d8" points="75.01 271.51 77.97 289.17 298.74 289.17 294.75 271.51 75.01 271.51"/>
          <polygon class="ae816319-2f55-4f94-bba2-ed960d0101d8" points="54.75 271.51 -8.97 271.51 -6.37 289.17 57.65 289.17 54.75 271.51"/>
          <polygon class="b4904b11-e1f6-4979-b359-3d9ec5de96d3" points="294.75 271.51 288.58 244.16 70.44 244.16 75.01 271.51 294.75 271.51"/>
          <polygon class="b4904b11-e1f6-4979-b359-3d9ec5de96d3" points="50.24 244.16 -13.01 244.16 -8.97 271.51 54.75 271.51 50.24 244.16"/>
          <polygon class="b4904b11-e1f6-4979-b359-3d9ec5de96d3" points="307.5 244.16 313.75 271.51 375.33 271.51 368.63 244.16 307.5 244.16"/>
        </g>
      </g>
      <g>
        <g>
          <g>
            <g>
              <g>
                <path class="aa1de9ab-15d6-409f-89a4-5618e1799c52" d="M274.26,241.64l-7.91,1.6s-.44-.7,4.73-3.52l2.84,0Z"/>
                <path class="fee2f816-8294-4075-a264-54af95fc82b9" d="M276,222.44l-2,17.24h0l-2.84,0-1.46-17.85C271.75,222.15,273.89,222.33,276,222.44Z"/>
              </g>
              <g>
                <path class="aa1de9ab-15d6-409f-89a4-5618e1799c52" d="M259.1,240.16l3,0-.25,2.49h-8.07S253.47,241.92,259.1,240.16Z"/>
                <path class="fee2f816-8294-4075-a264-54af95fc82b9" d="M259.34,219.54a43.57,43.57,0,0,0,6.24,1.67l-3.49,19-3,0Z"/>
              </g>
              <path class="aa1de9ab-15d6-409f-89a4-5618e1799c52" d="M268.21,181.38l25.21-12.55a4,4,0,0,0,2.1,1.53c5.09,1.6,13.12,5.11,19.71,3.67,1.44,5.38,6.73,18.52-10,18.18h-13.3l.85,29.85a113.23,113.23,0,0,1-16.79.38c-2.06-.11-4.2-.29-6.33-.57-1.35-.18-2.71-.4-4-.66a43.57,43.57,0,0,1-6.24-1.67q-1.14-.39-2.22-.87l2.19-26.17C259.7,187.91,264.28,183.78,268.21,181.38Z"/>
            </g>
            <g>
              <path class="e21037c4-b07c-435c-9cd8-e8db7f1dd6d4" d="M262.77,157.51c0,.66,2.38-.5,3.64-.5a7.72,7.72,0,0,1,1,.08,1.09,1.09,0,0,1,.37-.46,17.07,17.07,0,0,1,2.75-.84h0a2.32,2.32,0,0,1,2-.41c.67.36,5.24,2.37,5.24,2.37l3.71-1L295,153c0-.32,0-.65,0-1,0-.79-.05-1.59-.09-2.38l-.83-.93c-.31,1.49-.48,2.41-.48,2.41l-14.83,2.76-3.71.74s-4.43-1.93-5.24-2.37a2.33,2.33,0,0,0-2,.42h0a16.1,16.1,0,0,0-2.75.84c-.63.37-.76,2.12-.76,2.12a1.5,1.5,0,0,0-.62,1C263.14,156.83,262.77,157.12,262.77,157.51Zm2.63-2.26.3-.78,1.21-.47-.38.75Z"/>
              <path class="fee2f816-8294-4075-a264-54af95fc82b9" d="M266.41,159.75a1.48,1.48,0,0,1,.62-1,5.8,5.8,0,0,1,.39-1.67,1.09,1.09,0,0,1,.37-.46,17.07,17.07,0,0,1,2.75-.84h0a2.32,2.32,0,0,1,2-.41c.67.36,4.91,2.22,4.92,2.23l.32.14,3.71-1L295,153l3.1-.87s.06-.4.18-1.11a51.05,51.05,0,0,0,7.3,1.24c1.33.14,2.62.24,3.8.31l-.64,3.73a4.76,4.76,0,0,1-4.58,3.93l-10.15.22-12.8.27-4.28.13-3.1.15a9.56,9.56,0,0,1-2.51-.46,6.14,6.14,0,0,0-2.14-.37c-1.25,0-3.63,1.16-3.63.5C265.53,160.26,265.9,160,266.41,159.75Z"/>
              <g>
                <path class="bf25e9ef-be81-499f-b562-da8d3161bec9" d="M294.62,144.78c0,.34,0,.68.05,1,.07,1.26.15,2.54.21,3.83l-.83-.93-.68-.76S294,146.41,294.62,144.78Z"/>
                <path class="bf25e9ef-be81-499f-b562-da8d3161bec9" d="M305.94,126.53a5,5,0,0,1,2-.67,2.77,2.77,0,0,1,2,.89c1.65,1.51,3.69,5.37,4.57,14.72.29,3.1.46,6.81.43,11.24,0,0-2.34,0-5.58-.16-1.18-.07-2.47-.17-3.8-.31a51.05,51.05,0,0,1-7.3-1.24l-.5-.14S299.13,130.57,305.94,126.53Z"/>
              </g>
            </g>
            <g>
              <path class="ff3baeff-9616-4857-8ab6-3d8b3e4a591e" d="M292.84,165.38l1.15-4.95,10.15-.22a4.76,4.76,0,0,0,4.58-3.93l.64-3.73c3.24.19,5.58.16,5.58.16,0-4.43-.14-8.14-.43-11.24-.88-9.35-2.92-13.21-4.57-14.72a2.77,2.77,0,0,0-2-.89,5,5,0,0,0-2,.67c-6.81,4-8.18,24.33-8.18,24.33l.5.14c-.12.71-.18,1.11-.18,1.11L295,153c0-.32,0-.65,0-1,0-.79-.05-1.59-.09-2.38-.06-1.29-.14-2.57-.21-3.83,0-.34,0-.68-.05-1-.15-3.64-.08-7,1.13-9.38,1.28-2.2,3.11-6.17,4.27-8.74l-1-.17,3.24-5.1.06,1.68h0l5.78-3.26.82-.46,1.24,1.47,1.4,1.67-.56.3c1.7,2.47,5,7.7,5.45,11.49.4,3.5.69,6.46.91,9,1.09,12.55.22,13.85.22,13.85l-1.38,7c.88,5.64,1.75,9.12,0,9.66-.32.09-.64.18-1,.25-6.59,1.44-14.62-2.07-19.71-3.67a4,4,0,0,1-2.1-1.53A4.06,4.06,0,0,1,292.84,165.38Z"/>
              <path class="fc46216c-3a36-4fa0-aa8f-9147d298c1b8" d="M299.73,125.8s2.26-2.11,2.37-2.13a.25.25,0,0,1,.3.19l.67,2.91,3.08-1.94a.27.27,0,0,1,.3,0,.25.25,0,0,1,0,.41L303,127.38a.23.23,0,0,1-.14,0,.15.15,0,0,1-.09,0,.23.23,0,0,1-.15-.17l-.64-2.79-2,1.74a.27.27,0,0,1-.17.06.25.25,0,0,1-.18-.08A.25.25,0,0,1,299.73,125.8Z"/>
            </g>
            <g>
              <path class="e21037c4-b07c-435c-9cd8-e8db7f1dd6d4" d="M306.6,117c-.14-.87-.62-4-.65-4a3.66,3.66,0,0,0,2-2c.42-1.19-.4-2.13-1.4-1.66a10.82,10.82,0,0,0-1.28,2.23s-2.62-2.74-5.27-3.2c0-1.63.46-4.51.37-4.71-.11.1-1.35,2.55-2.47,4.32a5.82,5.82,0,0,0-2.07-.18c.06.57.13,1.16.2,1.76l-1.11,1.76c-.55.9-.72,1.23,0,1.47l1.11.42.16,1.67c.19,1.65.42,2.48,2.36,2.57l3.58.16.11,3.76.06,1.68h0l5.78-3.26Zm0,0Zm0,0Z"/>
              <g>
                <path class="fc89c760-1556-47ef-9f5e-2c0517018fe5" d="M306.6,117v0Z"/>
                <path class="fc89c760-1556-47ef-9f5e-2c0517018fe5" d="M301.81,97.53c2.92-.32,4.24-.55,7.07.49,5.15,1.89,6.33,10.71,3.84,13.64,3.1.8,4.5,2.17,4.58,5.07a1.36,1.36,0,0,0,1,1.27c5.6,1.45,5.7,5.59,5.17,8.12A2.63,2.63,0,0,0,325,128.7c3.32,2.27,3.83,11.42-3.29,14.25a6.85,6.85,0,0,1-4.3.29c-.22-2.51-.51-5.47-.91-9-.43-3.79-3.75-9-5.45-11.49l.56-.3-1.4-1.67.06-.39c.36-2.19,1-4.75.68-6-1.53,1.05-4.3,2.62-4.3,2.62-.14-.87-.62-4-.65-4a3.66,3.66,0,0,0,2-2c.42-1.19-.4-2.13-1.4-1.66a10.82,10.82,0,0,0-1.28,2.23s-2.62-2.74-5.27-3.2c0-1.63.46-4.51.37-4.71-.11.1-1.35,2.55-2.47,4.32a5.82,5.82,0,0,0-2.07-.18c-.35,0-.59.06-.61.06a8.81,8.81,0,0,1-.55-2.71C294.09,98.59,300.72,97.65,301.81,97.53Z"/>
                <path class="fc89c760-1556-47ef-9f5e-2c0517018fe5" d="M306.6,117s0,0,0,0Z"/>
              </g>
            </g>
          </g>
          <path class="beacfe96-1b08-4a93-b6ff-6acd66680ad0" d="M346.4,236.7a3.74,3.74,0,0,0-1.07.15V234.9l-23.11-10.39v-9.43H320V202.4h10.23c-.22,0,3.75-5,5-6.52h4.65a3,3,0,0,0,2.94-3.23l-2.2-24,8.28-39.28a2.74,2.74,0,0,0-2.11-3.24,2.79,2.79,0,0,0-1.6.15l-4.18.39a3.78,3.78,0,0,0-3.35,3l-7.13,34.93a16.22,16.22,0,0,0-.28,4.34l.09,1.39c-2.16,0-6.05-.05-13.25,0-7.46,0-14.93.1-15,.1a1.72,1.72,0,0,0-1.48.86,1.74,1.74,0,0,0,0,1.71l9.73,17.45-17.54,0a2.73,2.73,0,1,0,0,5.46h6.74l3.78,6.48h11.5v12.68h-2.21v9.78l-22.31,10v2.3a3.67,3.67,0,0,0-1.86-.5,3.72,3.72,0,1,0,2.47.93l19.32-5-2.05,2.27v2a3.79,3.79,0,0,0-1.07-.15,3.72,3.72,0,1,0,1.94.54l9.49-6v-.11h1l24.55,6.39a3.73,3.73,0,1,0,2.28-.78Zm-32.3-46.63-9-16.21c.48,0,19.92.18,25.57.18l1.1,16Z"/>
        </g>
        <path class="beacfe96-1b08-4a93-b6ff-6acd66680ad0" d="M-21.41,240.43a3.73,3.73,0,0,0,3.73,3.73,3.73,3.73,0,0,0,3.73-3.73,3.72,3.72,0,0,0-1.45-3l24.54-6.39h1v.11l9.49,6a3.74,3.74,0,1,0,1.94-.54,3.79,3.79,0,0,0-1.07.15v-2l-2.05-2.27,19.32,5a3.73,3.73,0,1,0,2.47-.93,3.71,3.71,0,0,0-1.87.5v-2.3l-22.3-10v-9.78H13.89V202.4H25.38l3.79-6.48h6.74a2.73,2.73,0,1,0,0-5.46l-17.54,0L28.1,173a1.72,1.72,0,0,0-1.49-2.57c-.08,0-7.55-.07-15-.1-7.2,0-11.09,0-13.25,0l0,.23h0l.11-1.62a16.22,16.22,0,0,0-.28-4.34L-9,129.68a3.79,3.79,0,0,0-3.35-3l-4.18-.39a2.79,2.79,0,0,0-1.6-.15,2.73,2.73,0,0,0-2.11,3.24l8.28,39.28-2.21,24a3,3,0,0,0,3,3.23h4.65c1.27,1.57,5.24,6.52,5,6.52H8.71v12.68H6.5v9.43L-16.61,234.9v1.95a3.79,3.79,0,0,0-1.07-.15A3.73,3.73,0,0,0-21.41,240.43Zm39.47-66.3L9.17,190.07H-3l1.1-16C3.74,174,11.62,174.08,18.06,174.13Zm5.6-.27-9,16.21H13.14l9-16.22Z"/>
        <g>
          <g>
            <rect class="e61df27b-70e4-4001-b47b-3f0f2ad305cf" x="27.39" y="202.4" width="5.18" height="12.69"/>
            <g>
              <path class="e61df27b-70e4-4001-b47b-3f0f2ad305cf" d="M37.16,232.6l2.06,2.27v2a3.79,3.79,0,0,1,1.07-.15,3.72,3.72,0,1,1-1.94.54l-9.49-6v-.11h2.48Z"/>
              <path class="ea2038c1-ec33-4e1a-b585-05c47d78e1ef" d="M1,236.7a3.79,3.79,0,0,1,1.07.15V234.9l23.1-10.39v-9.43h9.61v9.78l22.3,10v2.3a3.73,3.73,0,1,1-1.86,3.23,3.76,3.76,0,0,1,1.26-2.8l-19.33-5-5.82-1.51H27.83L3.29,237.48A3.73,3.73,0,1,1,1,236.7Z"/>
            </g>
            <path class="ea2038c1-ec33-4e1a-b585-05c47d78e1ef" d="M11.77,195.4l15.62,0h5.19l15.62,0-4.13,7.06H17.16C17.43,202.4,11.77,195.4,11.77,195.4Z"/>
          </g>
          <path class="b94d63c9-1918-4b94-aede-fab9629789e1" d="M59,236.37l.78.08.46,6.18,8.55,1.72s.48-.76-5.11-3.81l.29-3.66,1,.1,2.5-43.33H53.93Z"/>
          <g>
            <path class="f5f14d35-2736-41a4-8bd9-71a1b28b1a4d" d="M3.82,128.24l8.45,40.09-2,22.08h5.41L17.13,169a15.82,15.82,0,0,0-.29-4.34L9.72,129.68a3.8,3.8,0,0,0-3.35-3l-4.18-.39A2.7,2.7,0,0,1,3.82,128.24Z"/>
            <path class="ed16add6-d9ab-41b3-88bd-54a9c8f5153e" d="M54.61,190.47l-39-.05H10.24l2-22.08L3.82,128.24a2.7,2.7,0,0,0-1.63-2,2.79,2.79,0,0,0-1.6-.15,2.73,2.73,0,0,0-2.11,3.24l8.28,39.28-2.21,24a3,3,0,0,0,3,3.23l47.1.06a2.73,2.73,0,1,0,0-5.46Z"/>
          </g>
          <g>
            <polygon class="e61df27b-70e4-4001-b47b-3f0f2ad305cf" points="15.66 190.34 27.71 190.34 27.86 190.07 15.68 190.07 15.66 190.34"/>
            <path class="e61df27b-70e4-4001-b47b-3f0f2ad305cf" d="M46.78,171.29a1.72,1.72,0,0,0-1.48-.86c-.08,0-7.55-.07-15-.1-7.2,0-11.1,0-13.25,0l0,.23,7.67,0,15,.1a1.75,1.75,0,0,1,1.48.86,1.73,1.73,0,0,1,0,1.72l-.33.58h1.48l-9,16.21H31.83l-.21.37h5.44L46.79,173A1.71,1.71,0,0,0,46.78,171.29Z"/>
          </g>
          <g>
            <path class="aa606f36-1af0-4844-9f81-d355599b1cb7" d="M84.73,241l-.3-2.6,1.08-.09L84,191.16a7.19,7.19,0,0,0-5-6.62S45.17,172,44.65,171.31l-1.28-.06c.05,1.46.09,2.77.12,3.88,0,.79,0,1.46.06,2,0,1,0,1.56,0,1.69-.06,1.06-8.59,4-26.12.07.07,6,2.52,15,17.43,14.74H70.27L75,216.3l4.28,22.58,1.12-.1,1.38,5,8.72,0S90.81,242.92,84.73,241Z"/>
            <path class="ee70567b-4ce9-4cf1-a008-80c58ef56db7" d="M45.21,166.75l-2,.06c.06,1.58.12,3.07.17,4.44l1.28.06C45.42,171.34,45.21,166.75,45.21,166.75Z"/>
            <g>
              <path class="aac8151c-83d8-4863-bac6-1016dded4913" d="M37.61,157.78a7.16,7.16,0,0,1-6.7-5.93c-1-5.92-2.48-14.79-2.63-18-.23-5.1.27-11.54,2.46-14.14a2.92,2.92,0,0,1,3.28-1,6.29,6.29,0,0,1,1.8.9c1.88,1.68,3.74,8.27,5.17,14.69-.58-4.5-1.24-10.2-2.56-14.22a1.85,1.85,0,0,0-.22-.45,25.11,25.11,0,0,0-4.76-4.77L32.36,114c-1.46-1.18-2.67-2.09-3-2.3l-.07-.06s-4.94,8.55-6.39,13.27c-3,9.91-6.33,27.54-6.33,31.2v22.65l.85.18c17.53,3.93,26.06,1,26.12-.07,0-.13,0-.73,0-1.69,0-.56,0-1.23-.06-2,0-1.11-.07-2.42-.12-3.88s-.11-2.86-.17-4.44c-.1-2.76-.22-5.77-.35-8.76l-2.93-.15Z"/>
              <g>
                <path class="b946ea64-902f-4bb6-a058-fb3138890ddf" d="M45.51,158.18l.05,1.46.08,2s.63,3.55.72,4c0,.17.07-3.11.09-7.36Z"/>
                <path class="b946ea64-902f-4bb6-a058-fb3138890ddf" d="M46.42,148.62c0-.65,0-1.28,0-1.84,0-.22,0-.55,0-.93,0-1.64,0-4.37-.06-4.86a60.71,60.71,0,0,0-1.39-9.31c-.35-1.57-.62-2.6-.62-2.6L44,128l-1.47-5.5-.87-3.3h-.27l.21,1.09-.79-.15-.9-.16,1.5,3.55,3.38,15.35.25,9.51,1.25.24Z"/>
              </g>
              <g>
                <path class="ff3baeff-9616-4857-8ab6-3d8b3e4a591e" d="M43.59,148.09l1,.18.5.09-.25-9.51L41.43,123.5,39.93,120l.9.16.79.15-.21-1.09-.61-3.29-2.55-.58L32.36,114l1.09.89a25.11,25.11,0,0,1,4.76,4.77,1.85,1.85,0,0,1,.22.45c1.32,4,2,9.72,2.56,14.22.84,3.8,1.54,7.55,2,10.17C43.37,146.67,43.59,148.09,43.59,148.09Z"/>
                <path class="ff3baeff-9616-4857-8ab6-3d8b3e4a591e" d="M45.51,158.18l-1.77-.09-.89,0h0c.13,3,.25,6,.35,8.76l2-.06a68.4,68.4,0,0,0,.35-7.11Z"/>
              </g>
              <path class="b94d63c9-1918-4b94-aede-fab9629789e1" d="M37.71,119.32l-5.37-2.15-3.22-4.3a.14.14,0,0,0-.19,0,.13.13,0,0,0,0,.19l3.24,4.32a.09.09,0,0,0,.06,0l5.4,2.17h0a.14.14,0,0,0,.13-.09A.13.13,0,0,0,37.71,119.32Z"/>
            </g>
            <g>
              <path class="b500e2ae-201f-4d20-8a70-cc115d9061d8" d="M47.77,148.87l-1.16-.22-.19,0-.11,0-1.25-.24-.5-.09-1-.18s-.22-1.42-.6-3.62c-.46-2.62-1.16-6.37-2-10.17h0c-1.43-6.42-3.29-13-5.17-14.69a6.29,6.29,0,0,0-1.8-.9,2.92,2.92,0,0,0-3.28,1c-2.19,2.6-2.69,9-2.46,14.14.15,3.17,1.61,12,2.63,18a7.16,7.16,0,0,0,6.7,5.93l2.31.12,2.93.15h0l.89,0,1.77.09.94,0h.31l1,.05,16.63.84.06-.94.1-1.62.13-2.05.15-2.46Z"/>
              <path class="fee2f816-8294-4075-a264-54af95fc82b9" d="M80.77,157.05a1.81,1.81,0,0,0-.73-1.16,6.67,6.67,0,0,0-.46-2,1.16,1.16,0,0,0-.43-.53,18.29,18.29,0,0,0-3.23-1h0a2.73,2.73,0,0,0-2.36-.49c-.64.35-3.23,1.5-4.84,2.21l-.9.4-.41.18-2.69-.18-.13,2.05-.1,1.62,4,.12,3.64.18a11.46,11.46,0,0,0,3-.54,7.06,7.06,0,0,1,2.5-.44c1.48,0,4.27,1.36,4.27.59C81.8,157.65,81.37,157.31,80.77,157.05Z"/>
            </g>
            <g>
              <path class="b94d63c9-1918-4b94-aede-fab9629789e1" d="M46.38,145.85c0,.38,0,.71,0,.93,0,.66,0,1.42,0,2.2l18.45,3.09-.15,2.46,2.69.18.41-.18.9-.4.2-3.22.07-1.19Z"/>
              <path class="e21037c4-b07c-435c-9cd8-e8db7f1dd6d4" d="M73.56,151.92a2.73,2.73,0,0,1,2.36.49h0a18.29,18.29,0,0,1,3.23,1,1.16,1.16,0,0,1,.43.53,9,9,0,0,1,1.19-.09c1.48,0,4.27,1.36,4.27.59,0-.46-.43-.8-1-1.06a1.78,1.78,0,0,0-.73-1.16s-.15-2.05-.89-2.49a18.29,18.29,0,0,0-3.23-1h0a2.74,2.74,0,0,0-2.36-.49c-1,.52-6.15,2.79-6.15,2.79l-1.73-.11-.2,3.21C70.33,153.42,72.92,152.27,73.56,151.92Zm8-1.06.35.92-1.32-.59-.45-.89Z"/>
            </g>
            <g>
              <path class="e21037c4-b07c-435c-9cd8-e8db7f1dd6d4" d="M38.25,115.3l.48-5.56s1.26.18,2.85.45,1.81-1.53,2-3.33l.18-1.79,1.2-.46c.78-.26.6-.62,0-1.59l-1.2-1.91c.14-1.21.3-2.39.34-3.51A11,11,0,0,1,40.83,96l-.2-.12a2.08,2.08,0,0,1-1.21.81,2.69,2.69,0,0,1-.89.14,2.82,2.82,0,0,1-1.8,2c-.74.36-.43,1.46-.37,2.16l.37,1.44-1.12.36a9.84,9.84,0,0,0-1.12-2.52c-.37-1.08-3.72,0-.74,4.32l-3.84,2.14h0a5.42,5.42,0,0,1,0,1.38l-.49,3.48c.29.21,1.5,1.12,3,2.3Z"/>
              <path class="a5e57e6b-7572-4a7f-9039-1ba9d5b218f2" d="M34.41,95.18a4.7,4.7,0,0,0-1.7-1.4c-2.46-1.11-4.85,1.24-5.84,1.13a.31.31,0,0,1-.28-.14l.06.37a9,9,0,0,0,1.13,6.07,15.81,15.81,0,0,1,1.59,3.7l.54,1.9h0l3.84-2.14c-3-4.32.37-5.4.74-4.32a9.84,9.84,0,0,1,1.12,2.52l1.12-.36-.37-1.44c-.06-.7-.37-1.8.37-2.16a2.82,2.82,0,0,0,1.8-2C36.2,96.75,36,97.11,34.41,95.18Z"/>
              <path class="fc89c760-1556-47ef-9f5e-2c0517018fe5" d="M26.59,94.77a.42.42,0,0,0,.28.14c1,.11,3.38-2.24,5.84-1.13a4.7,4.7,0,0,1,1.7,1.4c1.54,1.93,1.79,1.57,4.12,1.68a2.69,2.69,0,0,0,.89-.14,2.08,2.08,0,0,0,1.21-.81l.2.12A11,11,0,0,0,44.1,97.6a8.51,8.51,0,0,0,1.21.23c2.6.36,1.49-1.08,0-1.8,1.86,0,4.47-1.8,1.49-2.16-.8-.09-2-2.31-3-2.93,1.83,0,2.85-1.38.76-1.38a7.25,7.25,0,0,1-4.47-1.08l-.39-.21c-6.46-5.24-8.2.64-8.56.64h0l-.06,0c-1.78.39-4.9,1.91-4.53,5.63C26.58,94.65,26.58,94.71,26.59,94.77Z"/>
            </g>
          </g>
          <path class="ea2038c1-ec33-4e1a-b585-05c47d78e1ef" d="M41.18,171.55a1.75,1.75,0,0,0-1.48-.86l-15-.1-7.67,0c-7.87,0-8.12.1-8.48.25a1.72,1.72,0,0,0-1.08,1.44L5.58,191.91A1.72,1.72,0,0,0,7.3,193.8H28.73a1.73,1.73,0,0,0,1.51-.88l1.38-2.48.21-.37,9-16.22.33-.58A1.73,1.73,0,0,0,41.18,171.55ZM27.86,190.07l-.15.27H9.21l1.55-16.26c4.1-.08,16.58,0,26,0Z"/>
        </g>
        <g>
          <g>
            <rect class="e61df27b-70e4-4001-b47b-3f0f2ad305cf" x="336.65" y="202.4" width="5.18" height="12.69"/>
            <g>
              <path class="e61df27b-70e4-4001-b47b-3f0f2ad305cf" d="M332.06,232.6,330,234.87v2a3.67,3.67,0,0,0-1.06-.15,3.73,3.73,0,1,0,1.93.54l9.49-6v-.11h-2.48Z"/>
              <path class="ea2038c1-ec33-4e1a-b585-05c47d78e1ef" d="M368.21,236.7a3.67,3.67,0,0,0-1.06.15V234.9L344,224.51v-9.43h-9.6v9.78l-22.31,10v2.3a3.71,3.71,0,1,0,.6.43l19.33-5,5.82-1.51h3.51l24.54,6.39a3.73,3.73,0,1,0,2.28-.78Z"/>
            </g>
            <path class="ea2038c1-ec33-4e1a-b585-05c47d78e1ef" d="M357.45,195.4l-15.62,0h-5.18l-15.63,0,4.13,7.06h26.91C351.79,202.4,357.45,195.4,357.45,195.4Z"/>
          </g>
          <g>
            <path class="f5f14d35-2736-41a4-8bd9-71a1b28b1a4d" d="M365.4,128.24,357,168.33l2,22.08h-5.41L352.09,169a16.22,16.22,0,0,1,.29-4.34l7.13-34.93a3.78,3.78,0,0,1,3.35-3l4.17-.39A2.72,2.72,0,0,0,365.4,128.24Z"/>
            <path class="ed16add6-d9ab-41b3-88bd-54a9c8f5153e" d="M314.61,190.47l39-.05H359l-2-22.08,8.45-40.09a2.72,2.72,0,0,1,1.63-2,2.8,2.8,0,0,1,1.6-.15,2.73,2.73,0,0,1,2.11,3.24l-8.27,39.28,2.2,24a3,3,0,0,1-2.95,3.23l-47.1.06a2.73,2.73,0,0,1,0-5.46Z"/>
          </g>
          <g>
            <g>
              <polygon class="e61df27b-70e4-4001-b47b-3f0f2ad305cf" points="353.57 190.34 341.51 190.34 341.36 190.07 353.55 190.07 353.57 190.34"/>
              <path class="e61df27b-70e4-4001-b47b-3f0f2ad305cf" d="M322.44,171.29a1.72,1.72,0,0,1,1.49-.86c.07,0,7.55-.07,15-.1,7.19,0,11.09,0,13.25,0v.23l-7.67,0-15,.1a1.74,1.74,0,0,0-1.5,2.58l.33.58h-1.47l9,16.21h1.48l.2.37h-5.44L322.43,173A1.74,1.74,0,0,1,322.44,171.29Z"/>
            </g>
            <path class="ea2038c1-ec33-4e1a-b585-05c47d78e1ef" d="M328,173.27l.33.58,9,16.22.2.37,1.38,2.48a1.75,1.75,0,0,0,1.51.88h21.43a1.72,1.72,0,0,0,1.72-1.89l-1.87-19.65a1.73,1.73,0,0,0-1.09-1.44c-.36-.15-.61-.25-8.48-.25l-7.67,0-15,.1a1.74,1.74,0,0,0-1.5,2.58Zm4.45.86c9.41-.07,21.89-.13,26,0L360,190.34H341.51l-.15-.27Z"/>
          </g>
        </g>
        <g>
          <path class="b73f0672-a163-4d38-ace7-25e0e9818c90" d="M71.65,163.29v81.07h217V163.29Zm3.94,6.18H177v72.84H75.59Zm209.06,72.84H183.22V169.47H284.65Z"/>
          <rect class="b25a5b79-7392-4217-993e-80b4d07258e5" x="70.22" y="158.79" width="219.9" height="4.93" rx="1.56"/>
        </g>
        <g>
          <path class="f18de957-94d8-4df7-8f5f-3f8cb90701fb" d="M254.23,156.11l-2.47-.07h0l-5.88-30.89a2,2,0,0,0-1.73-1.52,2.73,2.73,0,0,0-1,.16,1.92,1.92,0,0,0-.82.69l0,0a2.53,2.53,0,0,0-.18.37,1.78,1.78,0,0,0-.07.92l6.27,33h6.35Z"/>
          <g>
            <path class="e9e10df8-453b-42a8-9280-767c83b7b57c" d="M252.23,125.15a2,2,0,0,0-1.73-1.52h0a2.73,2.73,0,0,0-1,.16,2,2,0,0,0-.82.69l0,0a2.53,2.53,0,0,0-.18.37,1.78,1.78,0,0,0-.07.92L254.2,156l1.78,0h.53l1.61,0Z"/>
            <path class="a51a1baf-d893-47db-bab4-8cb223e067ed" d="M285.45,156.73,258.12,156h0L254.2,156h0l.52,2.82h32.81A2.09,2.09,0,0,0,285.45,156.73Z"/>
          </g>
          <g>
            <path class="e9e10df8-453b-42a8-9280-767c83b7b57c" d="M114.37,125.15a2,2,0,0,1,1.74-1.52h0a2.71,2.71,0,0,1,1,.16,2,2,0,0,1,.83.69v0a1.41,1.41,0,0,1,.18.37,1.78,1.78,0,0,1,.07.92L112.4,156l-1.78,0h-.53l-1.6,0Z"/>
            <path class="a51a1baf-d893-47db-bab4-8cb223e067ed" d="M81.15,156.73l27.34-.69h0l3.91-.07h0l-.52,2.82H79.07A2.1,2.1,0,0,1,81.15,156.73Z"/>
          </g>
          <path class="f18de957-94d8-4df7-8f5f-3f8cb90701fb" d="M132.18,120.57l3.91-27L132.16,93l-8,55,3.93.57,3.06-21.13c2.17,8.4,5.51,22.09,6,28.71H121.72a1.35,1.35,0,0,0,0,2.7H139.9v-1.35C139.9,149.3,133.59,125.73,132.18,120.57Z"/>
        </g>
      </g>
    </g>
  </g>
  <rect class="b25a5b79-7392-4217-993e-80b4d07258e5" x="19.22" y="205" width="162.78" height="96.45" rx="8.02"/>
  <text class="a525c3b1-d8c4-40de-acd3-aec44353d850" transform="translate(40.84 269.5)">企業様へ</text>
  <text class="a22e325c-2cf0-4276-96c3-4f6fe869dc93" transform="translate(65.43 240.94)">FOR CLIENTS</text>
  <line class="a5072def-1e1c-4966-8824-adf3411b994e" x1="59.22" y1="224.45" x2="43.22" y2="240.45"/>
  <rect class="b25a5b79-7392-4217-993e-80b4d07258e5" x="20.95" y="21.91" width="337" height="75" rx="10"/>
  <g class="e9894120-9377-4b37-b915-d421a90bb246">
    <path class="affbdbc4-6a68-4d89-9067-57573781b3e7" d="M348,21.91a10,10,0,0,1,10,10v55a10,10,0,0,1-10,10H31a10,10,0,0,1-10-10v-55a10,10,0,0,1,10-10H348m0-5H31a15,15,0,0,0-15,15v55a15,15,0,0,0,15,15H348a15,15,0,0,0,15-15v-55a15,15,0,0,0-15-15Z"/>
  </g>
  <line class="a5129f86-6cf5-4ebf-b137-3c6a3d070373" x1="51.95" y1="53.91" x2="89.95" y2="53.91"/>
  <line class="a5129f86-6cf5-4ebf-b137-3c6a3d070373" x1="51.95" y1="62.41" x2="89.95" y2="62.41"/>
  <line class="a5129f86-6cf5-4ebf-b137-3c6a3d070373" x1="51.95" y1="71.41" x2="89.95" y2="71.41"/>
  <text class="a0b338ff-9ee1-4b76-9372-2c645255312c" transform="translate(162.57 69.93)">サイバースミス</text>
</svg>
