<svg id="b843eebf-af54-4870-a3c2-c88200b4f6e3" data-name="レイヤー 1" xmlns="http://www.w3.org/2000/svg" xmlns:xlink="http://www.w3.org/1999/xlink" viewBox="0 0 376 190">
  <defs>
    <style>
      .b27f5e78-21a4-46f5-99eb-7e0315252f24 {
        font-size: 24px;
        font-family: FutoGoB101Pr6N-Bold, FutoGoB101Pr6N Bold-83pv-RKSJ-H;
        font-weight: 700;
        letter-spacing: 0.1em;
      }

      .af3536ff-5ae4-43c9-9f1d-47276bad35dd {
        letter-spacing: -0.4em;
      }

      .ac5b7278-d366-4ef6-9686-c8322a978e89 {
        fill: #797979;
      }
    </style>
  </defs>
  <g id="fb7fed41-e6c6-48ba-a527-128e811c814f" data-name="uMbnFm">
    <image id="b044fa5f-0652-4e7e-a5a5-fa164ba32dfd" data-name="uMbnFm" width="284" height="160" transform="translate(64.84 72.23) scale(0.82)" xlink:href="VD_SP_for_worker1.png"/>
  </g>
  <text class="b27f5e78-21a4-46f5-99eb-7e0315252f24" transform="translate(83.56 59.83)">お取引企業（一部<tspan class="af3536ff-5ae4-43c9-9f1d-47276bad35dd" x="211.2" y="0">）</tspan></text>
  <path d="M295.42,120.37a2.83,2.83,0,0,1,5.65-.16v.18a2.83,2.83,0,0,1-5.65,0Zm5.2,0a2.38,2.38,0,1,0-2.37,2.46A2.36,2.36,0,0,0,300.62,120.37Zm-1,1.58h-.46l-.9-1.45h-.71V122h-.39V118.8h1.38c.83,0,1.11.31,1.11.84s-.43.85-1,.86l1,1.45Zm-1.48-1.75c.44,0,1.1.07,1.1-.57,0-.49-.4-.55-.79-.55h-.9v1.12h.59"/>
  <path class="ac5b7278-d366-4ef6-9686-c8322a978e89" d="M-35.57,108.29h21.5v3.07h-21.5Zm0,5.87h21.5v3.07h-21.5Zm6.14,5.85h9.22v3.09h-9.22Zm0,5.87h9.22v3.06h-9.22Zm0,5.87h9.22v3.06h-9.22Zm0,5.85h9.22v3.08h-9.22Zm-6.14,5.87h21.5v3.07h-21.5Zm0,5.86h21.5v3.07h-21.5ZM-11,114.16H22.12a14,14,0,0,1,1,3.07H-11v-3.07M-4.86,120h9.2v3.09h-9.2Zm18.42,0h9.82a12.1,12.1,0,0,1-.51,3.09H13.56V120M-4.86,131.75H18.81a17.55,17.55,0,0,1,2.75,3.06H-4.86v-3.06m0,5.85h9.2v3.08h-9.2Zm18.42,0H22.9a13.38,13.38,0,0,1,.54,3.08H13.56V137.6M-11,143.47H23.05a10.65,10.65,0,0,1-1,3.07H-11v-3.07m0,5.86H19.78c-2.72,2.28-5.14,3.07-9.36,3.07H-11v-3.07m43-23.45H49.43l1,2.75,1-2.75H68.83v3.06H59.62v-2.48l-.88,2.48H42.07l-.88-2.48v2.48H32v-3.06m0,5.87h9.21v3.06H32Zm0,5.85h9.21v3.08H32Zm-6.14,5.87H41.19v3.06H25.84Zm0,5.86H41.19v3.07H25.84Zm31.8-41H75v3.07H56.55l1.09-3.07m-2.08,5.87H75v3.07H54.46l1.1-3.07M53.48,120H68.83v3.09H52.38l1.1-3.09m6.14,11.74h9.2v3.06h-9.2Zm0,5.85h9.2v3.08h-9.2Zm0,5.87H75v3.06H59.62Zm0,5.86H75v3.07H59.62ZM43,131.75H57.77l-1.06,3.06H44.11L43,131.75m2,5.85H55.73l-1.07,3.08h-8.5l-1.08-3.08m2.06,5.87h6.54l-1.06,3.06H48.21l-1.07-3.06m2.06,5.86h2.44l-1.07,3.07h-.31l-1.06-3.07M-4.86,129H18.81a18,18,0,0,0,2.75-3.07H-4.86V129m48-20.66H25.85v3.07H44.28l-1.1-3.07m2.08,5.87H25.85v3.07H46.36l-1.1-3.07M47.34,120H32v3.09H48.44L47.34,120M-11,111.36H19.78c-2.73-2.28-5.14-3.07-9.36-3.07H-11v3.07"/>
  <image width="246" height="66" transform="translate(288.78 107.37) scale(0.69)" xlink:href="http://3.112.250.183/wp-content/uploads/2021/11/Acc_Logo_Black_Purple_RGB.PNG"/>
</svg>
