<svg id="ba1701d7-30a5-468b-a578-c56a5befe4ab" data-name="レイヤー 1" xmlns="http://www.w3.org/2000/svg" xmlns:xlink="http://www.w3.org/1999/xlink" viewBox="0 0 375 619">
  <defs>
    <style>
      .bb9c6bd7-3828-4552-856c-f9718820cadc, .e9308dd9-99b0-4f05-8419-3720c70d4c4e {
        fill: none;
      }

      .a125fc0c-4784-4c3f-b654-126131b1a7c8, .b46209b3-b09a-413b-8bf4-d093925b6f92 {
        font-size: 14px;
      }

      .b46209b3-b09a-413b-8bf4-d093925b6f92, .f2a8ffbf-b152-4140-ac73-5cf0d4237924 {
        font-family: HiraKakuProN-W3-83pv-RKSJ-H, Hiragino Kaku Gothic ProN;
      }

      .b46209b3-b09a-413b-8bf4-d093925b6f92 {
        letter-spacing: 0.1em;
      }

      .a2c895af-a702-40d5-9488-771c02496820 {
        letter-spacing: -0.4em;
      }

      .bb9c6bd7-3828-4552-856c-f9718820cadc {
        stroke: #000;
        stroke-miterlimit: 10;
      }

      .f2a8ffbf-b152-4140-ac73-5cf0d4237924 {
        font-size: 18px;
        letter-spacing: 0.1em;
      }

      .a003a906-213c-40e0-9f11-7cc005f9e6b1 {
        letter-spacing: -0.4em;
      }

      .bea6a22f-b278-4ec0-a3ba-2ba26cdcc30f {
        clip-path: url(#a6cc311a-91d6-4a2b-8aa3-9a41690fe30e);
      }

      .ff784f1e-7a79-48b0-ba42-355c0dcc2091 {
        letter-spacing: -0.4em;
      }

      .af34231e-1322-4711-84e3-fe71503f4ba3 {
        letter-spacing: -0.4em;
      }

      .a125fc0c-4784-4c3f-b654-126131b1a7c8 {
        font-family: HiraginoSans-W6-83pv-RKSJ-H, Hiragino Sans;
        letter-spacing: 0.3em;
      }

      .bc5bbf4f-2571-4083-b89c-4c3431646cee {
        fill: #fff;
      }

      .b13904b4-ac42-41b5-989c-6246d3b6843e {
        opacity: 0.19;
        font-size: 200px;
        font-family: Avenir-Black, Avenir;
        font-weight: 800;
        letter-spacing: 0.1em;
      }
    </style>
    <clipPath id="a6cc311a-91d6-4a2b-8aa3-9a41690fe30e">
      <rect class="e9308dd9-99b0-4f05-8419-3720c70d4c4e" x="39" y="26" width="305.33" height="229" rx="3.82"/>
    </clipPath>
  </defs>
  <text class="b46209b3-b09a-413b-8bf4-d093925b6f92" transform="translate(27.28 -63.94)">当サイトでは下記のような流れで、皆様に最適<tspan x="0" y="24.5">な案件をご紹介しております</tspan><tspan class="a2c895af-a702-40d5-9488-771c02496820" x="200.2" y="24.5">。</tspan></text>
  <line class="bb9c6bd7-3828-4552-856c-f9718820cadc" x1="30.63" y1="-0.47" x2="351.5" y2="-0.47"/>
  <line class="bb9c6bd7-3828-4552-856c-f9718820cadc" x1="26.5" y1="618.5" x2="361" y2="618.5"/>
  <text class="f2a8ffbf-b152-4140-ac73-5cf0d4237924" transform="translate(44.49 309.39)">案件ごとにお申し込みください<tspan class="a003a906-213c-40e0-9f11-7cc005f9e6b1" x="277.2" y="0">。</tspan></text>
  <g class="bea6a22f-b278-4ec0-a3ba-2ba26cdcc30f">
    <image width="1980" height="1320" transform="translate(-3.75 -9.88) scale(0.22)" xlink:href="http://3.112.250.183/wp-content/uploads/2021/11/pixta_70179233_XL.jpg"/>
  </g>
  <text class="b46209b3-b09a-413b-8bf4-d093925b6f92" transform="translate(43.93 352.2)">「案件情報一覧」の中で、気になる案件があ<tspan x="7" y="24.5">りましたら弊社までまずはお問い合わせく</tspan><tspan x="7" y="49">ださい</tspan><tspan class="ff784f1e-7a79-48b0-ba42-355c0dcc2091" x="53.2" y="49">。</tspan><tspan x="7" y="73.5">また、サイトに掲載されていない案件もご</tspan><tspan x="7" y="98">ざいますので、下記ページから会員登録も</tspan><tspan x="7" y="122.5">おすすめいたします</tspan><tspan class="af34231e-1322-4711-84e3-fe71503f4ba3" x="145.6" y="122.5">。</tspan></text>
  <text class="b13904b4-ac42-41b5-989c-6246d3b6843e" transform="translate(117.3 648.1)">01</text>
  <g><a href="../matter_list_sp/">
    <text class="a125fc0c-4784-4c3f-b654-126131b1a7c8" transform="translate(93.33 525.8)">案件情報一覧</text>
    <line class="bb9c6bd7-3828-4552-856c-f9718820cadc" x1="92.52" y1="533.27" x2="198.52" y2="533.27"/>
    <circle cx="65.06" cy="520.99" r="13.51"/>
    <g>
      <path class="bc5bbf4f-2571-4083-b89c-4c3431646cee" d="M66.31,521.21l0-.05v0a.14.14,0,0,0,0-.06h0a.38.38,0,0,0,0-.15v0a.14.14,0,0,0,0-.06h0l0-.05,0-.06-5.42-5.42a.39.39,0,0,0-.55,0l-1,1a.39.39,0,0,0-.11.28.39.39,0,0,0,.11.27L63.37,521l-4.11,4.11a.41.41,0,0,0-.11.28.39.39,0,0,0,.11.27l1,1a.43.43,0,0,0,.28.11.39.39,0,0,0,.27-.11l5.42-5.42Z"/>
      <path class="bc5bbf4f-2571-4083-b89c-4c3431646cee" d="M72.31,521.16v0s0,0,0-.06h0a.38.38,0,0,0,0-.15v0a.14.14,0,0,1,0-.06h0l0-.05,0-.06-5.42-5.42a.39.39,0,0,0-.55,0l-1,1a.39.39,0,0,0-.11.28.39.39,0,0,0,.11.27L69.34,521l-4.11,4.11a.41.41,0,0,0-.11.28.39.39,0,0,0,.11.27l1,1a.43.43,0,0,0,.28.11.39.39,0,0,0,.27-.11l5.42-5.42,0-.06Z"/>
    </g>
  </a></g>
  <g><a href="../for_worker_sp/">
    <text class="a125fc0c-4784-4c3f-b654-126131b1a7c8" transform="translate(93.34 569.15)">お仕事を探している方へ</text>
    <line class="bb9c6bd7-3828-4552-856c-f9718820cadc" x1="92.54" y1="576.63" x2="289.04" y2="576.63"/>
    <circle cx="65.07" cy="564.34" r="13.51"/>
    <g>
      <path class="bc5bbf4f-2571-4083-b89c-4c3431646cee" d="M66.32,564.56l0,0h0s0,0,0-.06v0a.38.38,0,0,0,0-.15h0s0,0,0-.06v0l0,0,0-.06-5.42-5.42a.39.39,0,0,0-.55,0l-1,1a.39.39,0,0,0-.11.27.43.43,0,0,0,.11.28l4.11,4.11-4.11,4.11a.39.39,0,0,0-.11.27.41.41,0,0,0,.11.28l1,1a.38.38,0,0,0,.28.11.35.35,0,0,0,.27-.11l5.42-5.42Z"/>
      <path class="bc5bbf4f-2571-4083-b89c-4c3431646cee" d="M72.32,564.51h0l0-.06v0a.38.38,0,0,0,0-.15h0l0-.06v0l0,0-.05-.06-5.41-5.42a.39.39,0,0,0-.55,0l-1,1a.39.39,0,0,0-.11.27.43.43,0,0,0,.11.28l4.11,4.11-4.11,4.11a.39.39,0,0,0-.11.27.41.41,0,0,0,.11.28l1,1a.35.35,0,0,0,.27.11.38.38,0,0,0,.28-.11l5.41-5.42.05-.06Z"/>
    </g>
  </a></g>
</svg>
