<svg xmlns="http://www.w3.org/2000/svg" xmlns:xlink="http://www.w3.org/1999/xlink" viewBox="0 0 375 670">
  <defs>
    <style>
      .fd969939-3eb6-423a-a022-42d2d2307ff3 {
        isolation: isolate;
      }

      .a414c8a9-859c-4f71-bf17-52faf8301ae1, .b10e4c89-7b26-4423-95c2-a2329bbb4517, .bb4207e9-b3b7-4194-b9d6-b76c934bfbf5 {
        fill: #83ccd2;
      }

      .b10e4c89-7b26-4423-95c2-a2329bbb4517 {
        opacity: 0.5;
      }

      .a2e2fc26-aa5c-40a2-bbef-6308cde2096a {
        fill: none;
        stroke: #fff;
        stroke-miterlimit: 10;
        stroke-width: 2.71px;
      }

      .bb4207e9-b3b7-4194-b9d6-b76c934bfbf5 {
        opacity: 0.1;
      }

      .e8ac3951-65a0-4a4e-a2e7-294926be8535 {
        mix-blend-mode: multiply;
        opacity: 0.45;
      }

      .b2332169-2fd4-4f34-8a01-1b58831328eb {
        fill: #fff;
      }

      .ac92f308-6f1e-4766-902c-b7a90620bc67 {
        font-size: 18px;
        letter-spacing: 0.1em;
      }

      .ac92f308-6f1e-4766-902c-b7a90620bc67, .b212b577-9d50-491c-a948-b13e1759e5bb {
        font-family: HiraKakuProN-W3-83pv-RKSJ-H, Hiragino Kaku Gothic ProN;
      }

      .b8b0a73e-0cf6-4d46-a93e-5d62476abf1b {
        letter-spacing: 0.35em;
      }

      .ac411fb9-f49e-4474-aa4f-f8772e2c51a4, .b212b577-9d50-491c-a948-b13e1759e5bb {
        font-size: 12px;
      }

      .b212b577-9d50-491c-a948-b13e1759e5bb {
        fill: #333;
        letter-spacing: 0.1em;
      }

      .ff203d1e-3486-4fd9-a43c-f3fc6a879cb4 {
        letter-spacing: 0.35em;
      }

      .a7e4a328-c222-407e-a1c1-d57908cb2cbd {
        letter-spacing: 0.35em;
      }

      .a4b0e4a9-3f6a-43d5-968d-2a3d49d57f2d {
        letter-spacing: -0.15em;
      }

      .ae1c369a-04bb-4a4b-98ec-94eb4fc084e3 {
        letter-spacing: -0.15em;
      }

      .b09ee94e-7bd5-4274-b7e4-72fed804b7b2 {
        letter-spacing: 0.1em;
      }

      .ac411fb9-f49e-4474-aa4f-f8772e2c51a4 {
        font-family: HiraginoSans-W6-83pv-RKSJ-H, Hiragino Sans;
        letter-spacing: 0.3em;
      }
    </style>
  </defs>
  <g class="fd969939-3eb6-423a-a022-42d2d2307ff3">
    <g id="ba64f3e1-4771-4e0b-a1bb-cbf576f83380" data-name="レイヤー 1">
      <rect class="b10e4c89-7b26-4423-95c2-a2329bbb4517" x="35.98" y="68.15" width="378.35" height="264.14"/>
      <image width="1980" height="1320" transform="translate(80.37 157.46) scale(0.15)" xlink:href="http://3.112.250.183/wp-content/uploads/2021/11/pixta_31928671_XL.jpg"/>
      <image width="1980" height="1320" transform="translate(158.31 21.07) scale(0.12)" xlink:href="http://3.112.250.183/wp-content/uploads/2021/11/pixta_81398354_XL.jpg"/>
      <image width="1980" height="1317" transform="translate(-3.61 91.55) scale(0.12)" xlink:href="http://3.112.250.183/wp-content/uploads/2021/11/pixta_57919330_XL.jpg"/>
      <line class="a2e2fc26-aa5c-40a2-bbef-6308cde2096a" x1="-13" y1="90.35" x2="228.14" y2="90.35"/>
      <line class="a2e2fc26-aa5c-40a2-bbef-6308cde2096a" x1="-13" y1="245.69" x2="228.14" y2="245.69"/>
      <line class="a2e2fc26-aa5c-40a2-bbef-6308cde2096a" x1="227.86" y1="175.33" x2="469" y2="175.33"/>
      <line class="a2e2fc26-aa5c-40a2-bbef-6308cde2096a" x1="227.86" y1="89.26" x2="227.86" y2="245.69"/>
      <line class="a2e2fc26-aa5c-40a2-bbef-6308cde2096a" x1="158.04" y1="9.97" x2="158.04" y2="90.89"/>
      <line class="a2e2fc26-aa5c-40a2-bbef-6308cde2096a" x1="78.72" y1="247.23" x2="78.72" y2="328.15"/>
      <rect class="bb4207e9-b3b7-4194-b9d6-b76c934bfbf5" x="-16.04" y="670" width="405.04" height="1127"/>
      <g>
        <image class="e8ac3951-65a0-4a4e-a2e7-294926be8535" width="267" height="296" transform="translate(24.08 300.08)" xlink:href="VD_SP_for_worker1.png"/>
        <rect class="b2332169-2fd4-4f34-8a01-1b58831328eb" x="32.3" y="308.89" width="250" height="278.68" rx="5.18"/>
      </g>
      <text class="ac92f308-6f1e-4766-902c-b7a90620bc67" transform="translate(47.11 351.79)">SAP(BASIS<tspan class="b8b0a73e-0cf6-4d46-a93e-5d62476abf1b" x="114.95" y="0">)</tspan><tspan x="127.65" y="0">システム</tspan><tspan x="0" y="31.5">構築支援</tspan></text>
      <text class="b212b577-9d50-491c-a948-b13e1759e5bb" transform="translate(50.26 428.34)">製造<tspan class="ff203d1e-3486-4fd9-a43c-f3fc6a879cb4" x="26.4" y="0">業2</tspan><tspan x="54.68" y="0">社が合併をして新会社を設</tspan><tspan x="0" y="21">立するにあたって</tspan><tspan class="a7e4a328-c222-407e-a1c1-d57908cb2cbd" x="105.6" y="21">の</tspan><tspan x="121.8" y="21">SA</tspan><tspan class="a7e4a328-c222-407e-a1c1-d57908cb2cbd" x="141.23" y="21">P</tspan><tspan x="153.37" y="21">導入</tspan><tspan class="a4b0e4a9-3f6a-43d5-968d-2a3d49d57f2d" x="179.77" y="21"> </tspan><tspan x="181.97" y="21">・対</tspan><tspan x="0" y="42">象</tspan><tspan class="a7e4a328-c222-407e-a1c1-d57908cb2cbd" x="13.2" y="42">は</tspan><tspan x="29.4" y="42">SAP S/4HANA FICO</tspan><tspan class="ae1c369a-04bb-4a4b-98ec-94eb4fc084e3" x="168.66" y="42"> </tspan><tspan x="170.85" y="42">・導入</tspan><tspan x="0" y="63">にあたってのチーム管理支</tspan><tspan class="ff203d1e-3486-4fd9-a43c-f3fc6a879cb4" x="158.4" y="63">援(</tspan><tspan x="183.07" y="63">アプ</tspan><tspan x="0" y="84">リ関連のチームの予</tspan><tspan class="ff203d1e-3486-4fd9-a43c-f3fc6a879cb4" x="118.8" y="84">定</tspan><tspan x="135" y="84">) </tspan><tspan class="ff203d1e-3486-4fd9-a43c-f3fc6a879cb4" x="145.67" y="84">～</tspan><tspan class="b09ee94e-7bd5-4274-b7e4-72fed804b7b2" x="161.87" y="84">2022</tspan><tspan class="ff203d1e-3486-4fd9-a43c-f3fc6a879cb4"><tspan x="0" y="105">年</tspan><tspan class="b09ee94e-7bd5-4274-b7e4-72fed804b7b2" x="16.2" y="105">...</tspan></tspan></text>
      <g>
        <rect class="a414c8a9-859c-4f71-bf17-52faf8301ae1" x="52.64" y="549.56" width="22.65" height="22.65" rx="5.81"/>
        <g>
          <g>
            <rect class="b2332169-2fd4-4f34-8a01-1b58831328eb" x="64.05" y="559.48" width="1.25" height="6.59" transform="translate(-287.52 1006.45) rotate(-135)"/>
            <path class="b2332169-2fd4-4f34-8a01-1b58831328eb" d="M62.8,565.88a.31.31,0,0,1-.24-.1l-.89-.89a.33.33,0,0,1,0-.47l4.66-4.66a.33.33,0,0,1,.47,0l.89.89a.33.33,0,0,1,0,.47L63,565.78A.3.3,0,0,1,62.8,565.88Zm-.42-1.22.42.41L67,560.89l-.41-.42Z"/>
          </g>
          <g>
            <rect class="b2332169-2fd4-4f34-8a01-1b58831328eb" x="64.05" y="555.71" width="1.25" height="6.59" transform="translate(-376.33 209.46) rotate(-45)"/>
            <path class="b2332169-2fd4-4f34-8a01-1b58831328eb" d="M66.57,562.11h0a.35.35,0,0,1-.24-.1l-4.66-4.66a.33.33,0,0,1,0-.47l.89-.89a.35.35,0,0,1,.47,0l4.66,4.66a.33.33,0,0,1,0,.47l-.89.89A.34.34,0,0,1,66.57,562.11Zm-4.19-5,4.19,4.18.41-.41L62.8,556.7Z"/>
          </g>
        </g>
      </g>
      <text class="ac411fb9-f49e-4474-aa4f-f8772e2c51a4" transform="translate(86.95 565.85)">VIEW MORE</text>
      <g>
        <image class="e8ac3951-65a0-4a4e-a2e7-294926be8535" width="267" height="296" transform="translate(306.08 300.08)" xlink:href="VD_SP_for_worker2.png"/>
        <rect class="b2332169-2fd4-4f34-8a01-1b58831328eb" x="314.3" y="308.89" width="250" height="278.68" rx="5.18"/>
      </g>
      <text class="ac92f308-6f1e-4766-902c-b7a90620bc67" transform="translate(329.11 351.79)">SAP(BASIS<tspan class="b8b0a73e-0cf6-4d46-a93e-5d62476abf1b" x="114.95" y="0">)</tspan><tspan x="127.65" y="0">システム</tspan><tspan x="0" y="31.5">構築支援</tspan></text>
      <text class="b212b577-9d50-491c-a948-b13e1759e5bb" transform="translate(332.26 428.34)">製造<tspan class="ff203d1e-3486-4fd9-a43c-f3fc6a879cb4" x="26.4" y="0">業2</tspan><tspan x="54.68" y="0">社が合併をして新会社を設</tspan><tspan x="0" y="21">立するにあたって</tspan><tspan class="a7e4a328-c222-407e-a1c1-d57908cb2cbd" x="105.6" y="21">の</tspan><tspan x="121.8" y="21">SA</tspan><tspan class="a7e4a328-c222-407e-a1c1-d57908cb2cbd" x="141.23" y="21">P</tspan><tspan x="153.37" y="21">導入</tspan><tspan class="a4b0e4a9-3f6a-43d5-968d-2a3d49d57f2d" x="179.77" y="21"> </tspan><tspan x="181.97" y="21">・対</tspan><tspan x="0" y="42">象</tspan><tspan class="a7e4a328-c222-407e-a1c1-d57908cb2cbd" x="13.2" y="42">は</tspan><tspan x="29.4" y="42">SAP S/4HANA FICO</tspan><tspan class="ae1c369a-04bb-4a4b-98ec-94eb4fc084e3" x="168.66" y="42"> </tspan><tspan x="170.85" y="42">・導入</tspan><tspan x="0" y="63">にあたってのチーム管理支</tspan><tspan class="ff203d1e-3486-4fd9-a43c-f3fc6a879cb4" x="158.4" y="63">援(</tspan><tspan x="183.07" y="63">アプ</tspan><tspan x="0" y="84">リ関連のチームの予</tspan><tspan class="ff203d1e-3486-4fd9-a43c-f3fc6a879cb4" x="118.8" y="84">定</tspan><tspan x="135" y="84">) </tspan><tspan class="ff203d1e-3486-4fd9-a43c-f3fc6a879cb4" x="145.67" y="84">～</tspan><tspan class="b09ee94e-7bd5-4274-b7e4-72fed804b7b2" x="161.87" y="84">2022</tspan><tspan class="ff203d1e-3486-4fd9-a43c-f3fc6a879cb4"><tspan x="0" y="105">年</tspan><tspan class="b09ee94e-7bd5-4274-b7e4-72fed804b7b2" x="16.2" y="105">...</tspan></tspan></text>
      <g>
        <rect class="a414c8a9-859c-4f71-bf17-52faf8301ae1" x="334.64" y="549.56" width="22.65" height="22.65" rx="5.81"/>
        <g>
          <g>
            <rect class="b2332169-2fd4-4f34-8a01-1b58831328eb" x="346.05" y="559.48" width="1.25" height="6.59" transform="translate(193.88 1205.85) rotate(-135)"/>
            <path class="b2332169-2fd4-4f34-8a01-1b58831328eb" d="M344.8,565.88a.31.31,0,0,1-.24-.1l-.89-.89a.33.33,0,0,1,0-.47l4.66-4.66a.33.33,0,0,1,.47,0l.89.89a.33.33,0,0,1,0,.47L345,565.78A.3.3,0,0,1,344.8,565.88Zm-.42-1.22.42.41,4.18-4.18-.41-.42Z"/>
          </g>
          <g>
            <rect class="b2332169-2fd4-4f34-8a01-1b58831328eb" x="346.05" y="555.71" width="1.25" height="6.59" transform="translate(-293.73 408.87) rotate(-45)"/>
            <path class="b2332169-2fd4-4f34-8a01-1b58831328eb" d="M348.57,562.11h0a.35.35,0,0,1-.24-.1l-4.66-4.66a.33.33,0,0,1,0-.47l.89-.89a.35.35,0,0,1,.47,0l4.66,4.66a.33.33,0,0,1,0,.47l-.89.89A.34.34,0,0,1,348.57,562.11Zm-4.19-5,4.19,4.18.41-.41-4.18-4.19Z"/>
          </g>
        </g>
      </g>
      <text class="ac411fb9-f49e-4474-aa4f-f8772e2c51a4" transform="translate(368.95 565.85)">VIEW MORE</text>
    </g>
  </g>
</svg>
