<svg id="b6afca27-7fc3-459b-9697-9763f63d58a5" data-name="レイヤー 1" xmlns="http://www.w3.org/2000/svg" viewBox="0 0 375 540">
  <defs>
    <style>
      .e8350cf5-64a7-40b0-9abf-539246e83a30 {
        font-size: 12px;
        font-family: HiraKakuProN-W3-83pv-RKSJ-H, Hiragino Kaku Gothic ProN;
        letter-spacing: 0.1em;
      }

      .b1a48bfc-e436-4b58-891b-df7310cb8751 {
        font-size: 20px;
        font-family: FutoGoB101Pr6N-Bold, FutoGoB101Pr6N Bold-83pv-RKSJ-H;
        font-weight: 700;
        letter-spacing: 0.1em;
      }

      .a604d1ad-3e07-46ec-9b4b-83f6388cad27 {
        font-size: 16px;
        letter-spacing: 0.1em;
      }

      .a604d1ad-3e07-46ec-9b4b-83f6388cad27, .ac5d2220-bcc0-4595-93f4-6536ed0fe36e {
        font-family: HiraKakuProN-W6-83pv-RKSJ-H, Hiragino Kaku Gothic ProN;
      }

      .ac5d2220-bcc0-4595-93f4-6536ed0fe36e {
        font-size: 36px;
        fill: #b9272d;
        letter-spacing: 0.1em;
      }

      .e213a5b0-9a68-4404-8430-48319bc1e4e6 {
        letter-spacing: 0.35em;
      }

      .bc8ffb2f-aa89-402e-80c0-4b90935a6f67 {
        letter-spacing: 0.35em;
      }

      .e804b47f-6cad-4e1d-a281-0f3f6e752801 {
        fill: none;
        stroke: #e3e3e3;
        stroke-miterlimit: 10;
        stroke-width: 5.85px;
      }

      .ab8b0d2e-c5dc-49cd-928a-3a98a11cdf65 {
        fill: #fff;
      }

      .bb6ef3c2-3ed1-446c-9ca1-0b6dff5cfde3 {
        fill: #ffaf9b;
      }

      .f8613f7c-b0ef-489b-9e5c-5ed458afecda {
        fill: #ffcfba;
      }

      .ee4bcfc7-3db5-43f4-bc64-0b323802b2fa {
        fill: #505050;
      }

      .b2b3952f-e1c8-45dc-95f6-8380508320e4 {
        fill: #e5e5e5;
      }

      .a76a6ba3-af72-43a6-bd25-b61cca756ca6 {
        fill: #f76e57;
      }

      .b8aaf209-f87d-4689-bbf3-f5dd0caea1b5 {
        fill: #d1d1d1;
      }
    </style>
  </defs>
  <text class="e8350cf5-64a7-40b0-9abf-539246e83a30" transform="translate(67.45 406.62)">サンプルサンプルサンプルサンプルサンプ<tspan x="0" y="21">ルサンプルサンプルサンプルサンプルサン</tspan><tspan x="0" y="42">プルサンプルサンプルサンプルサンプルサ</tspan><tspan x="0" y="63">ンプルサンプルサンプルサンプルサンプル</tspan><tspan x="0" y="84">サンプルサンプルサンプルサン</tspan></text>
  <text class="e8350cf5-64a7-40b0-9abf-539246e83a30" transform="translate(61.45 310.62)">利用言語＊＊＊＊</text>
  <text class="b1a48bfc-e436-4b58-891b-df7310cb8751" transform="translate(47.93 55.87)">ご利用者の事例</text>
  <text class="a604d1ad-3e07-46ec-9b4b-83f6388cad27" transform="translate(66.93 360.87)">年収</text>
  <text class="a604d1ad-3e07-46ec-9b4b-83f6388cad27" transform="translate(250.93 360.87)">万円</text>
  <text class="ac5d2220-bcc0-4595-93f4-6536ed0fe36e" transform="translate(113.93 361.87)">2,400 </text>
  <text class="a604d1ad-3e07-46ec-9b4b-83f6388cad27" transform="translate(59.69 289.13)">＊＊＊ソフトウェア経<tspan class="e213a5b0-9a68-4404-8430-48319bc1e4e6" x="176" y="0">験</tspan><tspan x="197.6" y="0">1</tspan><tspan class="bc8ffb2f-aa89-402e-80c0-4b90935a6f67" x="210.59" y="0">0</tspan><tspan x="227.58" y="0">年</tspan></text>
  <rect class="e804b47f-6cad-4e1d-a281-0f3f6e752801" x="27.89" y="11.61" width="313.11" height="505.39" rx="3.52"/>
  <g>
    <path class="ab8b0d2e-c5dc-49cd-928a-3a98a11cdf65" d="M155.92,166.85c.06,0,.05,0,0,0l0,0Z"/>
    <path class="ab8b0d2e-c5dc-49cd-928a-3a98a11cdf65" d="M175.91,123.23l-.06-1.63a16.15,16.15,0,0,1-.76,1.67A7.27,7.27,0,0,1,175.91,123.23Z"/>
    <path class="ab8b0d2e-c5dc-49cd-928a-3a98a11cdf65" d="M243.18,211.12v0Z"/>
    <path class="ab8b0d2e-c5dc-49cd-928a-3a98a11cdf65" d="M155.9,166.85l-.16,0,0,0Z"/>
    <path class="ab8b0d2e-c5dc-49cd-928a-3a98a11cdf65" d="M243.13,209v0Z"/>
    <path class="ab8b0d2e-c5dc-49cd-928a-3a98a11cdf65" d="M243.43,224.49c0-.18,0-.05,0,0Z"/>
    <path class="ab8b0d2e-c5dc-49cd-928a-3a98a11cdf65" d="M142.85,185.48Z"/>
    <path class="ab8b0d2e-c5dc-49cd-928a-3a98a11cdf65" d="M243.13,208.89v0a.36.36,0,0,0,0-.09A.36.36,0,0,1,243.13,208.89Z"/>
    <path class="ab8b0d2e-c5dc-49cd-928a-3a98a11cdf65" d="M145.15,177.21a.1.1,0,0,1,0,0S145.14,177.2,145.15,177.21Z"/>
    <path class="ab8b0d2e-c5dc-49cd-928a-3a98a11cdf65" d="M167.89,163.44s-.11,0-.1,0Z"/>
    <path class="ab8b0d2e-c5dc-49cd-928a-3a98a11cdf65" d="M237.46,174.83l0,.06S237.48,174.86,237.46,174.83Z"/>
    <path class="ab8b0d2e-c5dc-49cd-928a-3a98a11cdf65" d="M233.21,169.53l0,0C233.33,169.73,233.27,169.6,233.21,169.53Z"/>
    <path class="ab8b0d2e-c5dc-49cd-928a-3a98a11cdf65" d="M241.13,184.86s0,0,0,.06Z"/>
    <path class="ab8b0d2e-c5dc-49cd-928a-3a98a11cdf65" d="M241.67,192.25c0,.07,0,.07,0,0Z"/>
    <path class="ab8b0d2e-c5dc-49cd-928a-3a98a11cdf65" d="M224.91,165.26s-.07,0-.13,0S224.9,165.27,224.91,165.26Z"/>
    <path class="ab8b0d2e-c5dc-49cd-928a-3a98a11cdf65" d="M242.86,205.42a.22.22,0,0,0,0,.06A.21.21,0,0,0,242.86,205.42Z"/>
    <path class="ab8b0d2e-c5dc-49cd-928a-3a98a11cdf65" d="M218.73,163.65Z"/>
    <path class="ab8b0d2e-c5dc-49cd-928a-3a98a11cdf65" d="M222.67,164.57s0,0-.06,0Z"/>
    <path class="ab8b0d2e-c5dc-49cd-928a-3a98a11cdf65" d="M174.76,162.09s-.08,0-.07,0,0,0,.07,0Z"/>
    <path class="ab8b0d2e-c5dc-49cd-928a-3a98a11cdf65" d="M222.3,164.5l0,0S222.32,164.5,222.3,164.5Z"/>
    <path class="ab8b0d2e-c5dc-49cd-928a-3a98a11cdf65" d="M145.18,177.15Z"/>
    <path class="ab8b0d2e-c5dc-49cd-928a-3a98a11cdf65" d="M241.72,216.59l-24.92-.12c.94.18,1.61.29,1.61.29l-1.11,10a29.85,29.85,0,0,1-3.79,0,2.8,2.8,0,0,0,0,.4,1.1,1.1,0,0,1,.69-.31.94.94,0,0,1,.92.92c0,.11,0,.23,0,.34l9.83,3.64a3.43,3.43,0,0,1,.56.06l.42.12h0l.32,0a1.58,1.58,0,0,1,.87.21l.35-.05a3,3,0,0,1,.84.05,2.49,2.49,0,0,1,.92.26c.18.11.35.24.53.37a.93.93,0,0,1,.37,1.16c.29.11.55.26.83.38a.93.93,0,0,1,.66-1l.56-.13a1.33,1.33,0,0,1,.28,0l9.28-15.48a1.66,1.66,0,0,1,0-.22l.06-.24A1.66,1.66,0,0,1,241.72,216.59Z"/>
    <path class="ab8b0d2e-c5dc-49cd-928a-3a98a11cdf65" d="M231,234.29c-.28-.12-.54-.27-.83-.38a.36.36,0,0,1,0,.09.92.92,0,0,1-.38.35c.48.17,1,.31,1.46.43a1,1,0,0,1-.19-.36A.51.51,0,0,1,231,234.29Z"/>
    <path class="ab8b0d2e-c5dc-49cd-928a-3a98a11cdf65" d="M228.87,234.33l-.36-.25-.11-.06-.24-.07-.14,0-.23,0h-.11l-.42.08a1.57,1.57,0,0,1-1-.22l-.35.05a1.7,1.7,0,0,1-.59-.1,2,2,0,0,1-.26-.08,3.42,3.42,0,0,1-.65-.06,3,3,0,0,1-.47-.17l-.28,0a1.86,1.86,0,0,1-.92-.24,3,3,0,0,1-.42,0,2.28,2.28,0,0,1-.89-.32l-.31-.1a.44.44,0,0,1-.15,0h0l-.16,0a.44.44,0,0,1-.16,0l-.18,0a2.42,2.42,0,0,1-.85,0,2,2,0,0,1-.72-.18,3.37,3.37,0,0,1-.31-.21,2.07,2.07,0,0,1-.85-.08,6.62,6.62,0,0,1-.78-.3l-.38,0a1.16,1.16,0,0,1-.73-.24c-.21-.14-.42-.26-.64-.39a2.61,2.61,0,0,1-.83-.09,1.48,1.48,0,0,1-.93-.54c-.1-.19-.17-.42-.25-.62a6.8,6.8,0,0,1-.31-.86,1.28,1.28,0,0,1,.37-1.09l0-.37a.73.73,0,0,1,.23-.61,2.8,2.8,0,0,1,0-.4c-2.92-.15-6.69-.8-8.18-3-1.27-1.93-5.8-2.58-7.71.92a3.37,3.37,0,0,1-3.91,1.86c-1.42-.41-1.65-1.54-1.16-2.75-.84,1.52-1.19,2.55-2.12,3.14-2.45,1.55-3.86-.94-3.33-3.08a.2.2,0,0,1-.08,0,.94.94,0,0,1-.33-1.26l.1-.25-.16.06a2,2,0,0,1-2-.37,1.71,1.71,0,0,1-.47-1.05,1.13,1.13,0,0,1-.32,0,1,1,0,0,1-.65-1.13l.09-.45h0c0-.11,0-.22,0-.33a1.21,1.21,0,0,1,.35-.88l.18-.16a2,2,0,0,1,.11-.52,1.3,1.3,0,0,1,.42-.51s0-.08,0-.12a1.35,1.35,0,0,1,.07-.36,3.55,3.55,0,0,1-1.72.41,2.71,2.71,0,0,1-1.51-.55h-1.95l4.62,14.92h18.83a.36.36,0,0,1,.36.36v3.21h28.18c-.48-.12-1-.26-1.46-.43A.87.87,0,0,1,228.87,234.33Z"/>
    <path class="bb6ef3c2-3ed1-446c-9ca1-0b6dff5cfde3" d="M184.76,155.65s.07-.11.08-.11S184.89,155.69,184.76,155.65Z"/>
    <path class="bb6ef3c2-3ed1-446c-9ca1-0b6dff5cfde3" d="M204.41,154s.08,0,.11-.07,0,0,0,0S204.44,154,204.41,154Z"/>
    <path class="bb6ef3c2-3ed1-446c-9ca1-0b6dff5cfde3" d="M204.51,153.8c.07,0,0-.08,0-.06l-.14.1Z"/>
    <path class="bb6ef3c2-3ed1-446c-9ca1-0b6dff5cfde3" d="M180.68,153a3.41,3.41,0,0,1,.66.53c.27,0,.59-.05.81.12a1.93,1.93,0,0,1,.5.45c.08,0,.07.19.15.23l0,0c.11,0,.23,0,.34.06a1.15,1.15,0,0,1,.75.53c0,.07,0,.25,0,.32a4,4,0,0,1,.41.11c.08.05.11.15.18.2s.15,0,.2.07a2.66,2.66,0,0,1,.69.21,2,2,0,0,1,.52.33c.08,0,.14.12.22.15.26.08.57.07.74.28l.16.2c.08,0,0,.27.11.32l0-.11c.41.08.71.47,1,.72s.48.13.64.3a2.2,2.2,0,0,1,.8.35c.09.07.14.2.23.27s0,.08,0,.08.18,0,.25,0c.23.14.36.45.59.59s.44.12.59.28a2.06,2.06,0,0,1,.81.34c.09.07.06.3.15.37s.08-.13.09-.12.19-.06.26,0c.23.1.33.55.52.7.14-.11.32-.39.46-.46a2.26,2.26,0,0,1,.72-.34s.09.22.1.22a2.41,2.41,0,0,0,.25-.08,2.8,2.8,0,0,0,.43-.27s-.09-.14-.08-.14.1-.2.17-.26c.29-.28.79-.27,1.12-.49s.28-.49.52-.59l.21-.06c.08-.1.14-.21.22-.31s.52-.05.68-.17.32-.55.63-.59c0,0,0,.1,0,.09s.22,0,.27-.08.32-.43.57-.5c.09,0,.24.12.33.1s.15-.15.22-.2.18-.07.21-.11l.21-.21c.14-.15.19-.4.36-.52a3.5,3.5,0,0,1,.71-.32l.26-.26c.2-.19.47-.13.73-.2s.36-.22.55-.29.11-.13.16-.2a1.57,1.57,0,0,1,.89-.61s.08,0,.11,0,.09-.15.15-.18,0-.07.05-.08.16.1.18.09-.07-.2,0-.23c.21-.2.52-.32.75-.51s.39-.33.64-.5c.1-.39.29-.38.29-.78s-.08-.41-.08-.82,0-.41,0-.82,0-.41,0-.82-.1-.41-.1-.82,0-.41,0-.82.25-.45.13-.85c-.17.24-.49.44-.68.66s-.24.58-.45.79-.42.41-.64.62-.55.26-.77.45l-.68.56c-.23.18-.33.55-.57.72s-.54.25-.79.41-.55.22-.81.36l-.78.41c-.27.12-.57.15-.84.26s-.53.25-.81.35-.52.31-.8.39-.57.13-.86.2-.56.22-.85.27-.58.13-.87.16-.6-.05-.9,0-.59.05-.88.05v-.25c-.29,0-.57.07-.86,0s-.57.08-.86.06-.56-.12-.84-.16-.6.07-.88,0-.54-.21-.82-.28-.49-.35-.76-.44l-.8-.28c-.27-.11-.63,0-.89-.1s-.54-.21-.8-.34-.44-.38-.69-.52-.58-.16-.82-.32-.44-.38-.67-.55-.39-.44-.61-.62-.54-.25-.75-.44-.37-.45-.57-.65-.47-.35-.67-.56-.28-.51-.46-.73c-.12.42,0,.43,0,.87s0,.44,0,.87.13.44.13.88.07.44.07.88-.27.44-.27.88a8.81,8.81,0,0,0,0,.89c.05.05.18.12.23.17S180.64,153,180.68,153Z"/>
    <path class="f8613f7c-b0ef-489b-9e5c-5ed458afecda" d="M194.08,141.67v.1s0-.08,0-.08S194.1,141.67,194.08,141.67Z"/>
    <path class="f8613f7c-b0ef-489b-9e5c-5ed458afecda" d="M195,141.26s.1.17.18.1S195,141.26,195,141.26Z"/>
    <path class="f8613f7c-b0ef-489b-9e5c-5ed458afecda" d="M189.4,141.78c-.1,0-.1,0,0,0Z"/>
    <path class="f8613f7c-b0ef-489b-9e5c-5ed458afecda" d="M189.64,143.6s.06-.13.07-.13S189.58,143.58,189.64,143.6Z"/>
    <path class="f8613f7c-b0ef-489b-9e5c-5ed458afecda" d="M192.63,142.19s.12-.17.12-.18Z"/>
    <path class="f8613f7c-b0ef-489b-9e5c-5ed458afecda" d="M193.14,153.54v-.19c.29,0,.58,0,.87-.06s.61.25.9.22.59-.11.88-.16.53-.33.82-.39.57-.11.85-.19.63,0,.9-.09a8.51,8.51,0,0,0,.78-.43c.28-.11.55-.22.81-.35s.52-.28.77-.42.46-.38.71-.53.59-.17.83-.34.5-.32.73-.5.48-.35.7-.54.4-.44.61-.64.49-.35.69-.56.29-.53.48-.76.36-.46.54-.69.26-.53.43-.78.41-.43.57-.68.21-.56.35-.82.58-.37.71-.64,0-.65.1-.93.41-.47.51-.75.07-.6.16-.88.26-.55.33-.83,0-.6.08-.9.15-.57.19-.86,0-.59,0-.89.24-.58.26-.87,0-.6,0-.9-.29-.43-.15-.8a7.34,7.34,0,0,0,.94,0,6.46,6.46,0,0,0,.81-.36,5.43,5.43,0,0,0,.82-.34c.25-.16.38-.48.6-.67a6.24,6.24,0,0,0,.71-.53,6.36,6.36,0,0,0,.43-.77,7.22,7.22,0,0,0,.36-.8c.11-.26.4-.47.48-.76s-.12-.61-.08-.91a6.19,6.19,0,0,0,.15-.86c0-.3.15-.6.13-.88a8.18,8.18,0,0,0-.08-.89c0-.3-.36-.52-.44-.79s0-.65-.1-.9-.54-.36-.7-.59-.21-.59-.42-.78a4.51,4.51,0,0,0-.7-.54c-.25-.15-.6-.07-.87-.17a5,5,0,0,0-.76-.29c-.1.26-.1.52-.23.8s-.39.32-.53.58c-.1-.26-.25-.38-.36-.65s-.24-.51-.34-.77-.2-.53-.31-.79,0-.61-.12-.87-.27-.51-.38-.77-.35-.47-.46-.73-.25-.51-.36-.77-.08-.59-.19-.85-.46-.43-.57-.69,0-.65-.07-.91-.39-.45-.5-.72l-.33-.79c-.12-.26-.12-.57-.23-.84s-.26-.51-.37-.77-.4-.46-.51-.73,0-.6-.16-.86-.35-.48-.46-.74,0-.62-.1-.88-.28-.62-.38-.88l-.94.24c-.27.07-.53.22-.81.29s-.52.25-.8.32-.58,0-.86.11-.53.24-.8.31-.53.24-.81.31-.57.06-.85.14-.54.17-.82.24-.57.09-.84.16-.57.09-.85.16-.5.33-.78.4-.64,0-.91.08c.17-.24.3-.56.48-.79s.31-.48.49-.72l.52-.69c.17-.23.56-.31.73-.54l.51-.7c.17-.24.33-.48.5-.71s.1-.46.27-.69c-.29,0-.45-.14-.73-.1s-.54.27-.82.31l-.85.11c-.29,0-.58,0-.86.07s-.58,0-.86.06-.55.24-.82.28-.56.17-.84.22-.61-.14-.89-.08-.52.34-.8.39-.59,0-.87,0-.52.32-.79.39-.65-.19-.92-.12-.48.43-.75.51-.58.06-.85.14l-.82.26c-.28.09-.5.33-.75.43s-.58.11-.84.22-.62.05-.87.17-.49.34-.73.47-.48.33-.72.48-.59.18-.8.35-.26.6-.46.79a7.22,7.22,0,0,0-.65.55,6.54,6.54,0,0,0-.55.65c-.16.24-.25.51-.39.76s-.43.42-.54.69-.13.56-.23.83-.19.53-.27.81-.25.51-.33.79-.16.54-.24.82-.11.56-.19.83-.23.52-.32.8,0,.58-.06.85a4.39,4.39,0,0,0,0,.81,1.79,1.79,0,0,1,0,.83,8.44,8.44,0,0,0-.87,0s0,.28,0,.31,0-.25,0-.28a7.72,7.72,0,0,0-.83.2,6.71,6.71,0,0,0-.78.32,4.88,4.88,0,0,0-.78.31,4.22,4.22,0,0,0-.63.57c-.19.19-.53.28-.69.52a5.12,5.12,0,0,0-.38.78,6.7,6.7,0,0,0-.24.83c-.07.25-.08.54-.13.83a7,7,0,0,0-.14.84c0,.27.15.55.15.85s-.25.6-.21.87.37.51.45.77a5.94,5.94,0,0,0,.33.77c.14.25.05.66.23.88s.56.25.79.44.37.46.62.6a5.68,5.68,0,0,0,.77.41,8.11,8.11,0,0,0,.86.14,8.38,8.38,0,0,0,.87,0c.28,0,.67.21,1,.21.14-.4-.29-.46-.3-.88s.2-.42.2-.84-.12-.42-.13-.84.09-.42.09-.84-.16-.42-.17-.84.2-.42.2-.84-.19-.42-.2-.84.21-.43.2-.85-.35-1.18-.1-.84.11.43.13.87-.08.44-.06.88-.13.44-.11.88,0,.43.07.87.23.43.25.87,0,.44,0,.87-.25.45-.23.89,0,.44.06.87.19.44.21.88-.13.44-.12.89,0,.44,0,.88c0,.28.07.57.09.85s.08.57.11.85,0,.58,0,.86.06.58.11.86.34.51.41.78,0,.58.12.86.17.54.27.81.28.5.39.76.22.53.34.78.25.52.38.77.33.46.48.71.18.55.34.79.37.44.54.66.23.55.41.77.44.39.63.6.56.25.76.46.26.55.47.74.57.22.79.4.45.34.68.51.33.53.57.69.57.15.82.3l.76.4c.25.13.53.19.79.31s.41.49.68.59.56.16.83.25.58.08.85.15a8.36,8.36,0,0,0,.85.14c.28.06.54.19.83.24s.56.09.85.12.57.16.85.17S192.85,153.54,193.14,153.54Zm5.64-29.67a1.39,1.39,0,0,1,1,.22,1.51,1.51,0,0,1,.44,1c0,.35-.4.56-.63.79a1,1,0,0,1-.79.35c-.35,0-.74.06-1-.17a1.44,1.44,0,0,1-.37-1c0-.35.3-.59.53-.82A1.11,1.11,0,0,1,198.78,123.87ZM190,134.77c0-.11-.05-.32,0-.41a.82.82,0,0,1,.32-.24c.11-.06.29.2.41.2a1.39,1.39,0,0,1,.41,0c.06,0,.2-.17.25-.15l0,0c.17,0,.34.16.51.16a.85.85,0,0,1,.65.15.93.93,0,0,1,.27.65.9.9,0,0,1,0,.37c0,.11,0,.3-.13.38s-.5.13-.74.14h-.47c-.05,0-.1,0-.15,0s-.24.05-.35,0-.11-.14-.17-.17-.07.13-.08.13a1.06,1.06,0,0,1-.59-.26,1.15,1.15,0,0,1-.4-.67C189.66,135,189.9,134.88,190,134.77Zm-3,6.55c.11-.19.21-.48.42-.56a1.16,1.16,0,0,1,.76,0l-.06.29a2,2,0,0,1,.34,0c.23.05.47,0,.66.1a3.9,3.9,0,0,1,.51.4s0,.24,0,.32.24-.11.36-.09h.05a0,0,0,0,1,0,0c.09,0,.2-.11.3-.1s.46.26.59.29l.42.1a1.16,1.16,0,0,0,.14.09l.07-.06s.06.08.11.07.27-.2.41-.2a2.46,2.46,0,0,1,.62.09s-.05-.11,0-.11.2,0,.28,0,.34-.22.53-.27.3.29.43.27,0-.29.06-.29.3,0,.41-.07a2.14,2.14,0,0,1,.6-.35s0,.07.06.06.07-.21.14-.27a1.14,1.14,0,0,1,.7-.24,1,1,0,0,1,.72.22c.16.16.08.48.09.73a.6.6,0,0,1-.24.55c-.2.17-.3.52-.53.65s-.46,0-.67.08c0,0,0,.14-.07.16s-.25.09-.37.15-.18.27-.31.29,0-.13-.06-.13,0,.1,0,.1l-.34.1c-.41.08-.83.07-1.23.15-.21.05-.42.3-.63.25,0,0-.16-.16-.24-.18a.86.86,0,0,0,0-.16,3,3,0,0,1-.42,0c-.27,0-.54.18-.8.1,0,0,0-.24,0-.24-.12,0-.28.27-.4.24a2.46,2.46,0,0,1-.17-.27l-.27,0c-.1,0-.21.2-.32.18s-.24,0-.32,0a1.7,1.7,0,0,1-.45,0c-.3-.09-.37-.52-.54-.77,0,0-.21,0-.24-.06v0a1.3,1.3,0,0,1-.18-.15c-.25,0-.41-.26-.62-.4a.85.85,0,0,1-.4-.46A.74.74,0,0,1,187,141.32ZM185.36,124a1.39,1.39,0,0,1,1,.22,1.53,1.53,0,0,1,.44,1c0,.35-.4.56-.63.79a1,1,0,0,1-.79.35c-.35,0-.74.06-1-.17a1.44,1.44,0,0,1-.37-1c0-.35.3-.58.53-.81A1.09,1.09,0,0,1,185.36,124Z"/>
    <polygon class="ee4bcfc7-3db5-43f4-bc64-0b323802b2fa" points="175.2 123.33 175.56 122.48 175.88 121.61 176.2 120.81 176.27 119.93 176.71 119.16 176.87 118.31 176.97 117.44 177.35 116.66 177.56 115.81 178 115.06 178.45 114.32 179.15 113.78 179.72 113.16 180.29 112.51 180.95 111.96 181.77 111.67 182.53 111.28 183.24 110.75 184.06 110.49 184.89 110.27 185.71 110.02 186.55 109.84 187.36 109.57 188.21 109.44 189.04 109.22 189.9 109.15 190.69 108.73 191.58 108.8 192.41 108.54 193.24 108.32 194.09 108.2 194.97 108.26 195.79 107.95 196.66 107.85 197.64 107.66 196.96 108.41 196.52 109.17 196.01 109.87 195.54 110.6 195.01 111.29 194.45 111.96 193.79 112.72 194.74 112.44 195.61 112.36 196.38 111.91 197.26 111.89 198.1 111.72 198.85 111.22 199.75 111.27 200.59 111.08 201.37 110.67 202.18 110.39 203.08 110.44 203.93 109.94 204.18 110.85 204.34 111.71 204.88 112.4 204.99 113.28 205.37 114.04 205.83 114.77 206.2 115.54 206.6 116.3 206.75 117.17 207.31 117.87 207.52 118.71 207.96 119.45 208.24 120.27 208.61 121.05 208.78 121.92 209.12 122.7 209.54 123.46 209.96 124.21 210.14 125.09 210.48 124.25 210.93 123.49 211.24 122.66 211.49 121.81 211.62 120.93 211.6 120.04 211.61 119.16 211.8 118.3 211.87 117.42 212.03 116.55 212.15 115.69 212.28 114.83 212.19 113.96 212.23 113.11 211.96 112.28 212.15 111.39 211.97 110.56 211.65 109.75 211.5 108.92 211.38 108.09 210.77 107.49 210.49 106.7 209.74 106.33 209.18 105.67 208.34 105.77 207.24 105.62 207.62 104.82 207.62 103.92 207.75 103.05 207.93 102.15 207.49 101.33 207.52 100.4 207.03 99.64 206.53 98.91 206.29 98.01 205.7 97.37 205 96.87 204.35 96.31 203.68 95.78 202.86 95.5 202.1 95.13 201.35 94.7 200.48 94.63 199.64 94.53 198.82 94.39 198.02 94.01 197.17 94.06 196.33 94.28 195.5 94.31 194.67 94.36 193.83 94.39 192.98 94.29 192.14 94.32 191.31 94.66 190.46 94.78 189.6 94.84 188.78 95.14 187.92 95.24 187.08 95.45 186.23 95.59 185.35 95.56 184.49 95.69 183.66 95.94 182.82 96.12 181.99 96.34 181.2 96.75 180.32 96.79 179.51 97.1 178.74 97.53 177.84 97.53 177.04 97.86 176.2 98.07 175.43 98.49 174.56 98.59 173.82 99.09 172.99 99.29 173.67 99.68 174.38 100.04 175.13 100.32 175.78 100.78 176.41 101.28 177.06 101.57 176.45 102 175.58 102.07 174.86 102.48 174.2 102.98 173.64 103.59 173.12 104.2 172.51 104.79 172.23 105.59 172.16 106.55 172.47 107.47 172.26 108.44 172.72 109.22 172.55 110.1 172.82 110.9 172.94 111.73 172.95 112.57 173.24 113.37 173.51 114.17 173.43 115.03 173.64 115.85 173.97 116.64 174 117.5 174.32 118.29 174.26 119.16 174.59 119.95 174.48 120.83 174.76 121.63 174.8 122.47 174.9 123.3 175.03 123.33 175.2 123.33"/>
    <path class="ab8b0d2e-c5dc-49cd-928a-3a98a11cdf65" d="M163.21,166.2l-.07-.1Z"/>
    <polygon class="ab8b0d2e-c5dc-49cd-928a-3a98a11cdf65" points="241.81 213.23 241.77 213.29 241.87 213.19 241.81 213.23"/>
    <polygon class="ab8b0d2e-c5dc-49cd-928a-3a98a11cdf65" points="216.48 215.58 216.28 215.49 216.38 215.57 216.48 215.6 216.48 215.58"/>
    <polygon class="ab8b0d2e-c5dc-49cd-928a-3a98a11cdf65" points="179.99 165.48 179.91 165.44 179.96 165.29 179.99 165.48"/>
    <polygon class="ab8b0d2e-c5dc-49cd-928a-3a98a11cdf65" points="179.94 165.31 179.86 165.19 179.83 165.42 179.94 165.27 179.94 165.31"/>
    <polygon class="ab8b0d2e-c5dc-49cd-928a-3a98a11cdf65" points="216.49 215.47 216.5 215.29 216.52 215.28 216.49 215.47"/>
    <polygon class="ab8b0d2e-c5dc-49cd-928a-3a98a11cdf65" points="242.06 215.78 242.03 215.71 241.84 215.1 241.63 214.01 241.8 213.64 241.72 213.55 241.62 213.52 241.75 213.22 241.69 213.16 241.7 213.05 241.57 212.21 241.38 212.15 241.48 212.07 241.31 211.63 241.27 210.76 241.25 210.59 241.46 210.16 241.5 209.7 241.23 209.67 241.51 209.67 241.5 209.75 241.29 209.6 241.24 208.66 241.3 208.55 241.27 208.19 241.17 207.16 241.11 207.19 241.33 207.07 241.07 206.69 241.19 206.32 240.99 206.22 241.2 205.38 240.89 204.57 240.99 204.45 240.9 204.08 240.66 203.42 240.79 202.76 240.78 202.22 240.63 201.72 240.58 201.62 240.67 201.14 240.45 200.33 240.63 200.15 240.44 199.34 240.26 198.51 240.49 198.04 240.31 197.8 240.21 197.28 240.32 196.93 240.32 196.85 240.22 195.66 240.31 195.51 240.06 195.47 240.03 195.21 240.09 195.22 240.01 194.1 239.88 193.31 239.9 192.34 239.92 191.65 239.64 190.59 239.78 190.31 239.74 190.28 239.91 189.96 239.6 189.41 239.57 188.68 239.47 188.47 239.45 187.91 239.34 187.57 239.41 186.63 239.26 185.69 239.2 184.72 239.26 184.13 239.01 183.5 238.88 182.84 238.76 181.77 238.36 181.09 238.02 180.18 238.09 179.67 237.67 179.56 237.54 178.63 237.12 178.25 236.94 177.43 236.53 176.69 236.01 175.83 235.5 175 235.24 174.4 234.73 173.98 234.04 173.27 233.93 172.57 233.88 172.35 233.81 172.36 233.43 172.38 232.6 171.69 232.14 170.82 231.6 170.22 230.57 169.92 229.82 169.23 229.68 168.91 229.29 168.84 228.92 168.68 228.79 168.51 227.99 168.1 227.56 168.01 227.37 167.82 227.29 167.81 226.99 167.9 226.02 167.44 225.56 167.37 225.02 167.11 224.13 166.89 223.18 166.37 223.11 166.18 222.96 166.25 222.16 166.49 221.11 165.84 220.32 166 219.54 165.86 218.75 165.43 217.87 165.34 217.59 165.18 217.47 165.22 217.3 164.84 216.53 164.73 215.78 164.68 215.04 164.61 214.17 164.57 213.72 164.45 213.53 164.32 212.68 164.5 212.03 163.87 211.43 164.07 210.75 163.77 210.34 163.78 210.21 163.85 209.26 163.59 209.18 163.46 209.06 163.57 208.97 163.74 208.85 163.91 208.82 163.96 208.64 164.11 208.08 164.65 207.76 164.65 207.55 164.51 207.31 164.71 206.76 165.06 206.84 165.3 206.37 165.31 206.16 165.77 205.77 165.96 205.63 165.82 205.38 166.16 204.7 166.28 204.28 166.84 203.62 166.92 202.84 167.83 202.38 168.2 201.77 168.28 201.09 168.87 200.43 169.48 199.54 169.76 198.76 170.09 198.63 170.52 197.99 170.94 197.24 170.78 196.76 170.4 196.25 169.43 195.5 168.44 195.1 167.89 195.03 167.21 194.74 167.01 194.69 166.59 194.23 165.95 194.11 165.58 193.75 164.6 193.39 164.29 193.13 164.15 192.95 164.64 192.64 165.25 192.56 165.43 192.12 166.04 191.88 166.22 191.7 166.52 191.68 167.28 191.28 167.87 191.04 168.77 190.55 168.92 190.51 169.16 190.19 169.92 189.95 170.05 189.87 170.39 190.1 170.44 190.11 170.51 189.67 171.01 189.65 171.12 189.63 171.17 189.07 171.05 189.01 171.15 188.92 171.21 188.85 171.24 188.58 170.8 188.43 170.94 188.14 170.66 187.82 170.58 187.21 170.38 186.63 169.76 186.66 169.42 186.18 169.33 185.63 168.81 185.51 168.82 185.37 168.61 184.69 168.43 184.42 168 184.01 167.99 184.11 167.9 184.02 167.8 183.87 167.73 183.25 167.44 182.77 167.1 182.05 166.9 181.91 166.62 181.89 166.48 181.74 166.68 181.46 166.62 180.96 166.15 180.57 165.9 180.42 165.64 180.19 165.53 180.27 165.38 180.16 165.46 180.06 165.22 179.87 165.36 179 164.74 178.84 164.5 178.63 164.68 178.72 164.5 178.46 164.47 178.4 164.29 177.99 164.31 177.24 163.85 176.98 163.6 176.55 163.66 176.18 163.59 176.14 163.5 175.69 163.59 174.54 163.73 174.38 163.83 174.24 163.96 173.64 164.12 173.29 164.09 173.25 164.07 172.99 164.07 172.28 164.45 171.53 164.39 171.15 164.69 170.53 164.63 169.84 164.79 169.25 164.81 168.3 165.39 167.45 165.28 167.53 165.09 167.43 165.07 167.07 165.17 166.37 165.57 165.6 165.6 164.88 165.83 164.14 165.93 163.44 166.09 163.43 165.91 163.38 165.99 163.16 166.03 163.09 166.1 162.77 166.4 162.11 166.69 161.43 166.93 160.28 166.96 159.15 167.45 158.49 167.63 157.86 167.9 157.68 167.99 157.63 167.92 157.37 168.19 156.71 168.39 155.97 168.69 155.91 168.62 155.93 168.85 155.8 168.87 155.29 169.36 154.57 169.5 154.2 170.04 153.57 170.23 152.92 170.67 152.63 170.74 152.21 171.09 151.88 171.54 151.87 171.52 151.61 171.79 151.22 172.25 150.89 172.77 150.03 173.09 149.74 173.85 149.6 173.83 149.41 173.97 149.11 174.47 148.4 175.23 148.19 175.62 147.98 175.71 148.01 175.81 148.05 175.81 147.81 176.03 147.76 176.03 147.53 176.66 147.34 176.98 147.37 177.22 147.38 177.21 146.99 177.4 146.41 178.4 146.37 178.75 146.07 178.62 146.26 178.94 145.87 179.59 145.71 180.26 145.04 181.02 144.88 181.97 144.51 182.68 144.44 183.29 144.35 183.74 144.5 184.24 144.4 184.59 144.69 184.65 144.61 185.46 144.63 186.21 144.66 186.46 145.5 186.74 146.36 186.66 147.21 186.52 148.07 186.75 148.93 186.65 149.78 186.54 150.64 186.65 151.5 186.54 152.36 186.58 153.22 186.46 154.08 186.52 154.94 186.66 155.79 186.7 156.65 186.66 157.51 186.49 158.37 186.74 159.22 186.61 160.08 186.59 160.94 186.59 161.8 186.74 162.66 186.62 163.52 186.5 164.38 186.51 165.24 186.69 166.1 186.51 166.96 186.63 167.83 186.46 168.69 186.72 169.56 186.7 170.11 187.26 170.42 188.08 170.71 188.89 170.88 189.75 171.13 190.58 171.64 191.33 171.69 192.22 171.85 193.08 172.21 193.88 172.38 194.73 172.63 195.56 173.15 196.31 173.36 197.16 173.53 198.01 173.71 198.87 173.93 199.71 174.48 200.44 174.7 201.29 174.88 202.14 174.99 203.02 175.31 203.82 175.46 204.69 176 205.43 176.24 206.26 176.23 207.18 176.66 207.95 177 208.76 177.28 209.58 177.28 210.49 177.81 211.24 177.85 212.14 178.17 212.95 178.41 213.79 178.66 214.63 179.11 215.41 179.16 216.37 180.2 216.23 181.15 216.19 180.56 215.7 180.28 214.89 180.47 214.04 180.66 213.19 181.18 212.47 181.38 211.6 182.07 211.04 182.5 210.31 183.02 209.65 183.29 208.81 183.87 208.18 184.42 207.45 185.08 206.82 185.69 206.17 186.36 205.56 187.21 205.22 188.1 205.5 188.98 205.59 189.88 205.7 190.69 206.07 191.49 205.57 192.35 205.3 193.19 205.02 194 205.3 194.8 205.59 195.47 206.13 196.25 206.58 197.15 206.72 197.97 207.09 198.87 207.14 199.73 207.38 200.6 207.66 201.51 207.56 202.41 207.54 203.32 207.51 204.17 207.93 205.08 207.95 205.95 208.24 206.55 208.86 207.23 209.35 207.71 210.04 208.34 210.62 208.87 211.29 209.3 212.03 209.82 212.7 210.18 213.47 210.58 214.23 211.12 214.9 212.07 215.21 212.97 215.49 213.89 215.68 214.64 216.01 214.71 214.99 215.2 214.17 216.02 213.69 216.49 213.47 216.63 213.39 216.92 213.29 217.75 213.08 218.02 213.24 218.21 213.41 219.12 213.15 219.18 213.45 219.58 213.25 219.57 213.31 219.58 213.2 219.99 213.12 220.73 213.2 221.43 213.41 222.31 213.24 222.94 213.3 223.24 213.42 223.76 213.47 224.31 213.54 224.93 213.18 225.78 213.26 225.83 213.43 226.09 213.54 226.42 213.35 226.56 213.36 227.86 213.31 228.85 213.54 229.06 213.5 230.06 213.29 230.73 213.49 230.81 213.57 231.02 213.65 231.47 213.49 231.81 213.43 232.5 213.52 233.06 213.57 233.65 213.79 234.04 214.36 233.84 215.13 233.07 215.28 232.74 215.37 232.59 215.22 231.9 215.46 231.32 215.2 230.47 215.43 230.21 215.15 230.07 215.23 229.78 215.19 229.8 215.34 229.8 215.35 228.59 215.19 228.22 215.23 227.52 215.3 227.32 215.36 227.35 215.33 226.67 215.21 225.83 215.2 224.98 215.14 224.34 215.17 223.78 215.11 222.92 215.2 222.51 215.02 222.44 214.97 222.14 215.23 222.05 215.19 221.01 215.18 220.79 214.99 219.94 215.23 219.4 215.06 218.49 215.24 217.57 215.26 216.66 215.25 216.58 215.36 216.52 215.38 216.37 215.43 216.35 215.55 216.19 215.86 215.88 216.21 216.81 216.42 217.66 216.42 218.52 216.64 219.37 216.65 220.23 216.66 221.09 216.4 221.94 216.54 222.8 216.54 223.66 216.38 224.52 216.42 225.38 216.67 226.24 216.41 227.09 216.46 227.95 216.56 228.81 216.37 229.67 216.4 230.53 216.69 231.38 216.68 232.24 216.44 233.1 216.7 233.96 216.58 234.82 216.6 235.68 216.54 236.54 216.4 237.4 216.42 238.26 216.54 239.12 216.67 239.98 216.57 240.85 216.76 241.72 216.52 241.57 216.57 242.06 215.78"/>
    <polygon class="ab8b0d2e-c5dc-49cd-928a-3a98a11cdf65" points="216.38 215.51 216.41 215.46 216.63 215.54 216.38 215.51"/>
    <path class="ab8b0d2e-c5dc-49cd-928a-3a98a11cdf65" d="M176,163.54v0Z"/>
    <path class="ab8b0d2e-c5dc-49cd-928a-3a98a11cdf65" d="M206.88,165.07l-.19.07Z"/>
    <path class="ab8b0d2e-c5dc-49cd-928a-3a98a11cdf65" d="M185.28,168.85l0-.13Z"/>
    <path class="ab8b0d2e-c5dc-49cd-928a-3a98a11cdf65" d="M185.69,168.84l0-.05Z"/>
    <path class="ab8b0d2e-c5dc-49cd-928a-3a98a11cdf65" d="M209.09,163.63l-.05.11Z"/>
    <path class="ab8b0d2e-c5dc-49cd-928a-3a98a11cdf65" d="M239.37,188.66l.23-.13Z"/>
    <path class="ab8b0d2e-c5dc-49cd-928a-3a98a11cdf65" d="M184,167.71l-.13.11Z"/>
    <polygon class="ab8b0d2e-c5dc-49cd-928a-3a98a11cdf65" points="216.61 215.44 216.66 215.51 216.43 215.41 216.58 215.35 216.61 215.44"/>
    <path class="ab8b0d2e-c5dc-49cd-928a-3a98a11cdf65" d="M174.6,163.79h0Z"/>
    <polygon class="ab8b0d2e-c5dc-49cd-928a-3a98a11cdf65" points="241.85 212.97 241.94 213.09 241.85 213.23 241.85 212.97"/>
    <path class="ab8b0d2e-c5dc-49cd-928a-3a98a11cdf65" d="M178.34,164.41h0Z"/>
    <path class="ab8b0d2e-c5dc-49cd-928a-3a98a11cdf65" d="M183.88,167.69l0,0Z"/>
    <path class="ab8b0d2e-c5dc-49cd-928a-3a98a11cdf65" d="M156.14,168.55h0Z"/>
    <polygon class="ab8b0d2e-c5dc-49cd-928a-3a98a11cdf65" points="147.29 177.16 147.21 177.09 147.32 177.19 147.29 177.16"/>
    <path class="ab8b0d2e-c5dc-49cd-928a-3a98a11cdf65" d="M146.32,178.63l0,.05Z"/>
    <path class="ab8b0d2e-c5dc-49cd-928a-3a98a11cdf65" d="M144.51,184.9l0-.12Z"/>
    <polygon class="ab8b0d2e-c5dc-49cd-928a-3a98a11cdf65" points="184.23 167.87 184.16 167.81 184.15 167.88 184.23 167.87"/>
    <path class="ab8b0d2e-c5dc-49cd-928a-3a98a11cdf65" d="M146.23,178.71l-.1-.09Z"/>
    <path class="ab8b0d2e-c5dc-49cd-928a-3a98a11cdf65" d="M147.21,177.11l.08-.15Z"/>
    <path class="ab8b0d2e-c5dc-49cd-928a-3a98a11cdf65" d="M147.9,175.71h0Z"/>
    <polygon class="ab8b0d2e-c5dc-49cd-928a-3a98a11cdf65" points="157.56 167.8 157.53 167.81 157.59 167.83 157.56 167.8"/>
    <polygon class="ab8b0d2e-c5dc-49cd-928a-3a98a11cdf65" points="157.64 167.98 157.56 167.81 157.65 167.98 157.64 167.98"/>
    <polygon class="ab8b0d2e-c5dc-49cd-928a-3a98a11cdf65" points="184.06 167.88 184.01 167.97 184.08 167.92 184.06 167.88"/>
    <polygon class="ab8b0d2e-c5dc-49cd-928a-3a98a11cdf65" points="147.96 175.8 148.01 175.81 147.94 175.67 147.96 175.8"/>
    <path class="b2b3952f-e1c8-45dc-95f6-8380508320e4" d="M155.93,166.83c-.1,0-.36-.1-.19,0l.16,0Z"/>
    <path class="b2b3952f-e1c8-45dc-95f6-8380508320e4" d="M243.13,209s0,0,0-.09V209Z"/>
    <path class="b2b3952f-e1c8-45dc-95f6-8380508320e4" d="M148,175.75Z"/>
    <path class="b2b3952f-e1c8-45dc-95f6-8380508320e4" d="M241.81,213.21l0-.07a.59.59,0,0,0,0,.08Z"/>
    <path class="b2b3952f-e1c8-45dc-95f6-8380508320e4" d="M243.68,219.42a1.56,1.56,0,0,0,.15-.52,2,2,0,0,0-.07-.42c0-.24-.09-.47-.13-.7a2.41,2.41,0,0,0,.12-.63,1.11,1.11,0,0,0,0-.19,1,1,0,0,0,.07-.36,12.93,12.93,0,0,0-.3-2.32,3,3,0,0,0,.05-1.65c0-.07-.07-.26-.13-.31h0c0-.12,0-.24,0-.37a4.25,4.25,0,0,0-.12-.6.39.39,0,0,1,0-.1.34.34,0,0,1,0-.09,3.94,3.94,0,0,0-.07-1v0a.8.8,0,0,0,0-.27,2,2,0,0,0,0-.54c0-.09,0-.22,0-.33v-.07a.36.36,0,0,0,0-.11.36.36,0,0,1,0,.09v0a1.72,1.72,0,0,0,0-.32,2.1,2.1,0,0,0-.16-.75,2.71,2.71,0,0,0,.08-.55c0-.27,0-.54-.06-.81a5.71,5.71,0,0,0-.14-1v-.15c0-.12,0-.24,0-.36a5.11,5.11,0,0,0-.06-1c0-.1,0-.19-.08-.28a.19.19,0,0,0-.05-.09c0-.11,0-.25,0-.32,0-.22.06-.44.06-.66a2.14,2.14,0,0,0-.28-.84c0-.26-.07-.52-.11-.77,0-.09.08-.17.11-.26a1.81,1.81,0,0,0,0-1.15,2.62,2.62,0,0,0-.18-.56l-.06-.12c0-.11,0-.22,0-.33s.06-.41.06-.62a1.69,1.69,0,0,0-.21-.74v-.09c0-.12,0-.23,0-.35a2.43,2.43,0,0,0-.13-.64,3.52,3.52,0,0,0,0-1.37,3.06,3.06,0,0,0-.13-.43h0v0a2.54,2.54,0,0,0,0-.39,1.57,1.57,0,0,0,0-.23,2.16,2.16,0,0,0-.07-1l0-.09h0a1.32,1.32,0,0,0,0-.28.43.43,0,0,1,0-.05l.06-.25a1.56,1.56,0,0,0,.06-.57,1.72,1.72,0,0,0-.26-.63,3.69,3.69,0,0,0,.05-.75,2.47,2.47,0,0,0-.28-1,3.49,3.49,0,0,0,0-1,1.79,1.79,0,0,0,.1-.75,2,2,0,0,0-.24-.64l0-.28v0a.52.52,0,0,1,0-.11,3.53,3.53,0,0,0,0-1.17s0,0,0-.07,0,0,0-.06a2.42,2.42,0,0,0,0-.46,1.91,1.91,0,0,0-.27-.79,2.31,2.31,0,0,0-.2-1.05c-.1-.2-.18-.39-.27-.59a1.81,1.81,0,0,0-.29-1.36.61.61,0,0,1,0-.11c0-.12,0-.25-.06-.37s-.11-.4-.17-.59a4,4,0,0,0-.29-.78l-.19-.29,0-.09a1.9,1.9,0,0,0-.29-.8c-.08-.12-.17-.23-.26-.34-.22-.8-.44-1.81-1.16-2.25l0,0a1.75,1.75,0,0,0-.18-.29l0-.09c0-.13,0-.26-.07-.39a3.82,3.82,0,0,0-.92-1.21,5.29,5.29,0,0,0-.41-.41l-.07-.06c-.06-.09-.15-.22-.2-.28a.06.06,0,0,1,0,0,3,3,0,0,0-.09-.41,1.26,1.26,0,0,0-.55-.71,4.38,4.38,0,0,0-.54-.39l-.22-.14-.17-.16a9.53,9.53,0,0,0-.83-.85s-.09-.09-.15-.13-.13-.21-.2-.32a1.74,1.74,0,0,0-.79-.6l-1-.47a4.05,4.05,0,0,0-.21-.35,1.54,1.54,0,0,0-1-.56l-.06,0-.33-.21a4.27,4.27,0,0,0-.6-.21,2.89,2.89,0,0,0-.89-.55,3.19,3.19,0,0,0-.84-.16,1.73,1.73,0,0,0-.49-.34,2.36,2.36,0,0,0-.61-.12,1.35,1.35,0,0,0-1-.39,2.19,2.19,0,0,0-.36,0l0,0-.18-.06a2.33,2.33,0,0,0-.94-.58,2,2,0,0,0-.64-.12l-.3,0a.88.88,0,0,0-.16,0h0l-.16,0-.11,0-.42-.26a2.84,2.84,0,0,0-1.2-.16l-.29,0a2.38,2.38,0,0,0-.52-.15c-.06,0-.72-.12-1-.19l-.11-.06-.26-.14c-.2-.1-.42-.18-.63-.26s-.64-.13-1-.21-.74-.15-1.11-.21a3.18,3.18,0,0,0-1-.07l-.29,0a4.42,4.42,0,0,0-.71-.13h-.34l-.08,0-.27-.08-.16-.08a3.42,3.42,0,0,0-.42-.23,1.73,1.73,0,0,0-.93,0l-.08,0,.09-.06a.95.95,0,0,0,.33-1.26,4.24,4.24,0,0,0-.33-.59c0-.06-.23-.4-.29-.4h0l-.06-.15a4,4,0,0,0-.48-.85,1.76,1.76,0,0,1-.21-.38c0-.12,0-.24,0-.35a1.88,1.88,0,0,0-.25-.8,4.72,4.72,0,0,0-.36-.55l-.19-.24-.13-.17,0,.07c.16.19,0-.06-.06-.11l-.19-.28c-.1-.15-.18-.31-.28-.46l0,0-.09-.22a2.11,2.11,0,0,1-.12-.43,1.32,1.32,0,0,0-.53-.94l-.14-.11a3,3,0,0,0-.17-.56l-.27-.61a.92.92,0,0,0-1.26-.33l-.47.29a10,10,0,0,0-1.4,1.1.73.73,0,0,1-.09.08s.05,0,0,0l0,0-.09.09a.29.29,0,0,1,.07-.08l-.1,0-.19.09-.11,0a1.65,1.65,0,0,0-.93.57l-.14.19c-.19.07-.37.14-.57.2a1.46,1.46,0,0,0-.68.34l-.26.27a3.44,3.44,0,0,0-.69.35,2.52,2.52,0,0,0-.49.37,2.2,2.2,0,0,0-.2.23s-.15.14-.15.16l-.22.15-.28.07a1.27,1.27,0,0,0-.65.36l-.15.2h-.08a1.38,1.38,0,0,0-.75.29,3.65,3.65,0,0,0-.48.38c-.09.1-.17.21-.25.31l-.24.09a2.67,2.67,0,0,0-.63.37,7.27,7.27,0,0,0-.95.7,2.18,2.18,0,0,0-.22.21h0a2.36,2.36,0,0,1-.42.28l-.23.1h-.07a2.12,2.12,0,0,0-.73.18,2.69,2.69,0,0,0-.44.28,2.89,2.89,0,0,0-.61-.39,1.19,1.19,0,0,0-.2-.08h0l-.26-.22a1.91,1.91,0,0,0-.78-.36,2.29,2.29,0,0,0-.5-.44c-.23-.14-.48-.26-.71-.4a2.12,2.12,0,0,0-.2-.12h0l-.28-.22a2.15,2.15,0,0,0-.76-.37c-.17-.17-.33-.33-.51-.48a2.55,2.55,0,0,0-1.11-.59h0L187,157l-.19-.22a1.22,1.22,0,0,0-.6-.42l-.27-.07a1.79,1.79,0,0,0-.44-.43,2.83,2.83,0,0,0-.71-.26l-.14-.09-.23-.14a3,3,0,0,0-.36-.16l-.11-.19a1.17,1.17,0,0,0-.74-.58l-.33-.1h0l-.24-.12a2,2,0,0,0-.43-.51,1.56,1.56,0,0,0-.76-.25,3.29,3.29,0,0,0-.68-.47,1.42,1.42,0,0,0-.18-.11l-.15-.14-.23-.21a.92.92,0,0,0-1.44.19,3.67,3.67,0,0,0-.44.71,2.34,2.34,0,0,0-.11.84c0,.09-.08.18-.13.27s-.22.3-.33.46a3.81,3.81,0,0,0-.54,1.11.58.58,0,0,1,0,.13l-.1.18a3.13,3.13,0,0,0-.25.48c-.08.17-.15.34-.24.5l-.13.23-.06.06c-.34.27-.63.46-.66,1,0,.11,0,.22,0,.33l-.57.63a1.09,1.09,0,0,0-.27.6,2,2,0,0,0-.07.35l-.06.09-.18.29a.92.92,0,0,0,.14,1.11l.06.06h0l-.26,0a1.82,1.82,0,0,0-.57.07l-.25.05h0a2.81,2.81,0,0,0-1.15.08,1.65,1.65,0,0,0-.62.31,1.3,1.3,0,0,0-.55,0,1.59,1.59,0,0,0-.61.24,1.68,1.68,0,0,0-.67,0,1.42,1.42,0,0,0-.49.28,1.59,1.59,0,0,0-.65,0,2.52,2.52,0,0,0-.49.25s-.14.07-.19.11l-.27.09h0a2.11,2.11,0,0,0-.26,0,4.75,4.75,0,0,0-1,.1,12.67,12.67,0,0,0-1.48.34c-.05,0-.2,0-.23.07h0l-.38,0a2,2,0,0,0-.76.29,3.64,3.64,0,0,0-1,.06,3.18,3.18,0,0,0-1,.44,3.84,3.84,0,0,1-.34.23.3.3,0,0,0-.14,0l-.37,0-.43.06h0l-.37,0a2.94,2.94,0,0,0-1.14.44l-.29.13c-.08,0-.31.07-.11.05s-.11,0-.18,0l-.29.07a7.63,7.63,0,0,0-2.05.89l-.13.09s0,0,0,0h0l-.12.07,0,0h-.06a2.21,2.21,0,0,0-.61.21,2,2,0,0,0-.75.57l-.12.16a1.52,1.52,0,0,0-.52.17,1.61,1.61,0,0,0-.45.45l-.32.09a3.11,3.11,0,0,0-.84.61c.3-.26,0-.07-.1,0a2.36,2.36,0,0,0-.28.12,1.79,1.79,0,0,0-.36.31c-.14.13-.38.31-.1.13a4,4,0,0,0-.66.5,2.14,2.14,0,0,0-.28.32h0l0,0a1.38,1.38,0,0,0-.8.77s0,.09,0,.14a1.38,1.38,0,0,0-.69.48,2.72,2.72,0,0,0-.27.42l-.21.24a1.86,1.86,0,0,0-.29.44l-.1.24v0c-.22.09-.55.61-.67.74a5.15,5.15,0,0,0-.68.64,4.94,4.94,0,0,0-.53,1c0,.08-.14.22-.09.16l0,.06a3.66,3.66,0,0,0-.28.56c0,.09-.08.18-.11.27l-.1.17h0a1.84,1.84,0,0,0-.15.23l0,0a1.78,1.78,0,0,0-.26.22,1.61,1.61,0,0,0-.34.52,2.93,2.93,0,0,0-.27,1.15,4.53,4.53,0,0,1-.5.79,1.73,1.73,0,0,0-.45.8,2.82,2.82,0,0,0,0,.58c-.11.21-.23.42-.33.64a2.56,2.56,0,0,0-.21,1,1.53,1.53,0,0,0-.24,1.06,4.32,4.32,0,0,0,.12.45c0,.07,0,.17,0,.23a2.56,2.56,0,0,0,.05.55,2.18,2.18,0,0,0,.11.46,2.25,2.25,0,0,0,0,.26c0,.13,0,.27,0,.4s0,.15,0,.22h0l0,.12h1.86a2.6,2.6,0,0,0,0-.4,3.67,3.67,0,0,0-.14-1.51v-.11c0-.12,0-.24,0-.35a2.22,2.22,0,0,0-.1-.5,2.09,2.09,0,0,0,.17-.41,3,3,0,0,0,.06-.61c.11-.23.23-.45.35-.68a1.57,1.57,0,0,0,.16-1,6,6,0,0,0,.57-.78,3,3,0,0,0,.36-1.36l.11-.23s0,0,0-.05l.21-.18a3.36,3.36,0,0,0,.65-1l.12-.3v0h0a.39.39,0,0,1,.1-.14l.18-.32c.1-.2.17-.42.26-.63h0a.9.9,0,0,0,.17-.26h0l0,0,0,0c.11-.18.11-.08,0,0l.16-.15a1.67,1.67,0,0,0,.31-.28c.24-.25.49-.49.73-.75a1.47,1.47,0,0,0,.31-.56,1.44,1.44,0,0,1,.08-.17l.05-.06c.16-.19.3-.38.44-.58a1.54,1.54,0,0,0,.78-.43,1.94,1.94,0,0,0,.25-.59,2.23,2.23,0,0,0,.5-.37,1.55,1.55,0,0,0,.24-.28v0c.14-.1.29-.2.43-.32a4.38,4.38,0,0,0,.39-.36.85.85,0,0,0,.26-.11,2.66,2.66,0,0,0,.65-.44,2.52,2.52,0,0,0,.62-.21,1.54,1.54,0,0,0,.44-.44,1.66,1.66,0,0,0,.65-.25,2.44,2.44,0,0,0,.45-.54l.13-.08.08,0h0a2,2,0,0,0,.79-.23c.19-.11.37-.24.56-.36a3.69,3.69,0,0,0,.33-.18c-.09.06-.22.06,0,0h0l0,0,0,0,.19-.07c.43-.14.88-.24,1.31-.37a6.79,6.79,0,0,0,1.12-.54c.38,0,.76-.08,1.14-.13a4,4,0,0,0,.69-.13,4.77,4.77,0,0,0,.63-.34c.06,0,.22-.16.36-.24h.06a.85.85,0,0,0,.23,0h.06a1.75,1.75,0,0,0,1.41-.3c.75-.13,1.47-.37,2.23-.48l.36-.06h0a1.8,1.8,0,0,0,.8,0,3.72,3.72,0,0,0,1-.39,2.06,2.06,0,0,0,.6.05,1.36,1.36,0,0,0,.65-.34,1.52,1.52,0,0,0,.6,0,1.59,1.59,0,0,0,.42-.19,1.39,1.39,0,0,0,.75.05A1.91,1.91,0,0,0,173,164l.28,0h.08a1.83,1.83,0,0,0,.33,0,1.85,1.85,0,0,0,.58-.08l.16,0s.11,0,.14,0a2.46,2.46,0,0,0,1.2-.18c.14,0,.32-.06.45-.11h0l.37,0a1.69,1.69,0,0,0,.45-.07,1.16,1.16,0,0,0,.28.26,4.15,4.15,0,0,0,.76.38l.36.11.13.09.18.14s.22.17,0,0,0,0,0,0l.2.21a2,2,0,0,0,1,.48l-.07-.05.12.07a.15.15,0,0,1,.08,0l.16.08.05,0,0,0,.16.18.2.22.32.31a2.17,2.17,0,0,0,.57.33l.27.1c.05,0,.29.12.05,0s0,0,0,.05l.23.16a2.3,2.3,0,0,0,.67.27,2.22,2.22,0,0,0,.44.38,3.24,3.24,0,0,0,.66.26l.13.09.1.06,0,0a.05.05,0,0,1,0,0l.08,0c.15.1,0,.05-.07,0s.15.14.19.19a1.7,1.7,0,0,0,.37.34,2.6,2.6,0,0,0,.66.26l.17.12.05,0a2.43,2.43,0,0,0,.6.51,2.05,2.05,0,0,0,.43.18l.1.17a1.8,1.8,0,0,0,.6.53,2.81,2.81,0,0,0,.55.27l.35.07.29.3h0a.76.76,0,0,0,.4.23h.18a.87.87,0,0,0,.5-.1l0,0,.06,0a.74.74,0,0,0,.36-.5v-.06h0l.06-.35,0-.2a5.53,5.53,0,0,0,.42-.69,2,2,0,0,0,.11-.2l.27-.31a1.63,1.63,0,0,0,.31-.84,1.22,1.22,0,0,0,.49-.54,1.87,1.87,0,0,0,.11-.75c.05-.09.1-.17.14-.26l.19-.2a1.46,1.46,0,0,0,.39-.65l.06-.23a1.77,1.77,0,0,0,.5-.48,1.26,1.26,0,0,0,.14-.53,1,1,0,0,0,.1.15c.1.11.21.21.32.31a4.2,4.2,0,0,0,.45.93,2.79,2.79,0,0,0,.07.38,1.61,1.61,0,0,0,.4.72l.22.27a2.78,2.78,0,0,0,.21.27,5,5,0,0,0,.43,1.25,5.26,5.26,0,0,0,.75,1,5.68,5.68,0,0,0,.47,1,1,1,0,0,0,1.26.33,2.45,2.45,0,0,0,.64-.34,1.77,1.77,0,0,1,1.06-.57c.26-.16.54-.26.81-.41a7.46,7.46,0,0,0,1.36-1.16,3.08,3.08,0,0,0,.53-.21c.17-.1.32-.22.48-.32a9.21,9.21,0,0,0,.91-.71,2.66,2.66,0,0,0,.58-.21,2.1,2.1,0,0,1,1.06-.73l.31-.27.08-.06a1.69,1.69,0,0,0,.36-.17,1.52,1.52,0,0,0,.34-.22l.3-.24.06,0a6.49,6.49,0,0,0,.55-.36,2.05,2.05,0,0,0,.26-.16l.13,0,.3-.08a1.13,1.13,0,0,0,.56-.42l.15-.18s0,0,.05-.05l.17-.11.14-.09.07,0,.06,0a1.55,1.55,0,0,0,1,.16h.12l.39.09a4.53,4.53,0,0,0,.71.16,1.83,1.83,0,0,0,.57,0,3.45,3.45,0,0,0,1.52.45l.19,0a2.52,2.52,0,0,0,.46.1,2.27,2.27,0,0,0,.86,0c.5.08,1,.17,1.48.28a6.06,6.06,0,0,1,.74.15l.27.1.1,0c.1.06.21.14.28.17a12,12,0,0,0,1.69.46,5.36,5.36,0,0,0,1.5.18,3.41,3.41,0,0,0,1.1.43,1.91,1.91,0,0,0,.79,0l.08,0,.11,0a2.21,2.21,0,0,0,.94.57,2.48,2.48,0,0,0,.93.09,1.42,1.42,0,0,0,.53.31,3.14,3.14,0,0,0,.46.08,1.68,1.68,0,0,0,1,.44h.37l.23.09.3.26a2.45,2.45,0,0,0,.89.41l.12.07a2.53,2.53,0,0,0,.36.2,2.13,2.13,0,0,0,.33.11,2.26,2.26,0,0,0,.16.26,1.84,1.84,0,0,0,.85.59l.93.44a2.61,2.61,0,0,0,.52.63,4.58,4.58,0,0,1,.65.67,3.43,3.43,0,0,0,.79.68,1.69,1.69,0,0,0,.29.17h0l.14.12a1.77,1.77,0,0,0,.2.64,4.07,4.07,0,0,0,.61.76c.31.31.6.64.89,1a2.77,2.77,0,0,0,.33.91,2.88,2.88,0,0,0,.69.74c.1.28.2.55.29.84a4.08,4.08,0,0,0,.25.77,4.35,4.35,0,0,0,.32.43,2.28,2.28,0,0,0,.31.82,1,1,0,0,0,.17.27c0,.14.11.28.15.41a8.2,8.2,0,0,1,.23,1,2.14,2.14,0,0,0,.28.7,2.06,2.06,0,0,0,.16,1.08c.09.21.19.42.28.62a2.19,2.19,0,0,0,0,.68,2.24,2.24,0,0,0,.23.53,5.51,5.51,0,0,0,.08,1c0,.31-.09.62-.13.93a1.65,1.65,0,0,0,.2.91,2.66,2.66,0,0,0-.07.37,1.81,1.81,0,0,0,.06.57c0,.07,0,.14.05.21s-.06.69,0,.76a2.72,2.72,0,0,0,.26.58c0,.1,0,.21,0,.26v0a2.93,2.93,0,0,0,0,.29,1.48,1.48,0,0,0,.21,1.05,2.25,2.25,0,0,0-.06.69,5.17,5.17,0,0,0,.16,1,6.82,6.82,0,0,0-.09.79,2,2,0,0,0,.2,1.1h0a1.75,1.75,0,0,0,0,.24.25.25,0,0,1,0,.07s0,.09,0,.14a2.05,2.05,0,0,0,.06,1.25v0a2.11,2.11,0,0,0,0,.36,1.35,1.35,0,0,0,.11.52,1.17,1.17,0,0,0,.09.24,1.91,1.91,0,0,0,0,.47,6.47,6.47,0,0,0,.33,1.63,2.72,2.72,0,0,0-.11.25,1.24,1.24,0,0,0-.08.78,1.7,1.7,0,0,0,.08.45s0,.07,0,.1a2.42,2.42,0,0,0,.06.54,2.3,2.3,0,0,0,.2.49,4.19,4.19,0,0,0,.06,1.32c0,.12.06.26.1.38v.12c0,.28,0,.55,0,.82a3,3,0,0,0,.12.79c0,.06,0,.13,0,.14s0,.24,0,.36a2.85,2.85,0,0,0,0,.42.08.08,0,0,0,0,.06h0a2.29,2.29,0,0,0,0,1,2.56,2.56,0,0,0,.1.34v.11a4.85,4.85,0,0,0,.06.93.83.83,0,0,0,0,.22l0-.1a2.22,2.22,0,0,0,0,.45,2.9,2.9,0,0,0,.06.41l0,.21a7.78,7.78,0,0,0,0,.83,3.28,3.28,0,0,0,.11.45l0,.05v.11a3,3,0,0,0,.19.82l0,.1s0-.06,0,0a.94.94,0,0,1,0,.12v0c.06.1,0,.06,0,0,0,.13,0,.3,0,.32v0a.25.25,0,0,0,0,.07c0,.13-.05.26-.07.39a3.67,3.67,0,0,0,.1,1.09l.12.62h0a3.34,3.34,0,0,0-.19.83v0a1.66,1.66,0,0,0,.15.6l-.06.24a1.66,1.66,0,0,0,0,.22,2.67,2.67,0,0,0,.06.56c0,.19.07.38.11.57a1.58,1.58,0,0,0-.2.82,1.93,1.93,0,0,0,.29.7c0,.29,0,.59,0,.88l0,.45h0a2,2,0,0,0-.14.34,1.47,1.47,0,0,0-.05.83l.05.24v.07c0,.1,0,.2,0,.3v0a3.1,3.1,0,0,0-.17.73,2.45,2.45,0,0,0,0,.81,3.52,3.52,0,0,0,.15.42,5.47,5.47,0,0,1-.15.58,1.85,1.85,0,0,0-.1.57c0,.12,0,.24,0,.37a2,2,0,0,0-.22.59,1.64,1.64,0,0,0,.11.69,2.67,2.67,0,0,0-.14.36,1.73,1.73,0,0,0,0,.51c0,.07,0,.41,0,.24l0,.15-.06.38a2.16,2.16,0,0,0,0,.44,1.8,1.8,0,0,0-.34.58,6.53,6.53,0,0,1-.2.76,2.6,2.6,0,0,0-.14.92s0,0,0,.06,0,0,0,0v.11h0a.17.17,0,0,1,0-.07v0l-.07.17-.1.13-.67.15a3.78,3.78,0,0,0-.79.3,3.63,3.63,0,0,0-.92.12l-.18,0h0a3.91,3.91,0,0,0-.48-.05,2.36,2.36,0,0,0-.53,0l-.3-.07a1.76,1.76,0,0,0-1.13.21h-.19a2.16,2.16,0,0,0-.7-.27,1.79,1.79,0,0,0-.75.1,1.17,1.17,0,0,0-.26,0l-.29-.17a1.18,1.18,0,0,0-.64-.18,1.33,1.33,0,0,0-.28,0l-.56.13a.93.93,0,0,0-.66,1,2.18,2.18,0,0,0,.95.23,2.18,2.18,0,0,1-.95-.23.51.51,0,0,0,0,.13.94.94,0,0,0,1.13.65l.26-.07a2.63,2.63,0,0,0,.78.3,1.84,1.84,0,0,0,.81,0l.22-.05.16.08a2,2,0,0,0,.85.16,1.83,1.83,0,0,0,.83-.15l.14-.07.26.06a4.37,4.37,0,0,0,.81,0,5.6,5.6,0,0,1,.59.07,2.32,2.32,0,0,0,.74-.15l.05,0H239a2.07,2.07,0,0,0,.9-.26L240,235l.2,0,.54-.12a1.3,1.3,0,0,0,.81-.37,3.07,3.07,0,0,0,.57-.83,4.16,4.16,0,0,0,.23-.54,1.87,1.87,0,0,0,0-.47s0-.17,0-.27l0-.09c0-.11.09-.21.12-.32a2.8,2.8,0,0,0,.12-.48l.06-.09A3.06,3.06,0,0,0,243,231a1.68,1.68,0,0,0,.13-1,.35.35,0,0,0,0-.06l.06-.36a3.25,3.25,0,0,0,0-.44,2.53,2.53,0,0,0,0-.29l.08-.18a1.42,1.42,0,0,0,.13-.5,1.58,1.58,0,0,0-.11-.55l0-.11a1.4,1.4,0,0,0,.09-.92s0-.05,0-.08l.06-.22a5,5,0,0,0,.12-.49,1.72,1.72,0,0,0,0-.87,3.42,3.42,0,0,0-.13-.34.15.15,0,0,0,0-.06c0-.09,0-.18,0-.27h0a3.2,3.2,0,0,0,.18-.74,4.3,4.3,0,0,0-.06-1.08,2.48,2.48,0,0,0,.22-.73c0-.29,0-.58,0-.87s0-.54,0-.8A1.69,1.69,0,0,0,243.68,219.42ZM142.85,185.48h0Zm1.68-.67v0Zm.62-7.6s0,0,0,0A.1.1,0,0,0,145.15,177.21Zm0-.06Zm1,1.54c0,.09-.09.09,0,0Zm0,0a.24.24,0,0,0,0-.08A.24.24,0,0,1,146.21,178.69Zm9.84-10,0,0S156.07,168.65,156.05,168.66Zm7.08-2.57a.19.19,0,0,1,.13,0S163.18,166.08,163.13,166.09Zm4.66-2.63s.05,0,.1,0Zm6.67.38s.07,0,.07,0S174.51,163.85,174.46,163.84Zm.23-1.74s0,0,.07,0h0S174.69,162.11,174.69,162.1Zm1.37,1.48h0Zm8.75-8,0,0C184.9,155.6,184.93,155.68,184.81,155.59Zm-4.83-1,0,0,0,0Zm-1.57,9.69.05,0C178.66,164.37,178.5,164.34,178.41,164.29Zm5.43,3.45h0C183.73,167.7,183.76,167.67,183.84,167.74Zm0,0,.1,0Zm1.43.94h0C185.2,168.67,185.23,168.63,185.32,168.7Zm.23.17.08,0C185.77,169,185.66,169,185.55,168.87Zm6.58-6.28a2,2,0,0,0-.58.54,1.38,1.38,0,0,0-.15.65l-.28.23a1.64,1.64,0,0,0-.33.83,4,4,0,0,0-.55.75,1.83,1.83,0,0,0-.25.78.28.28,0,0,1,0,.09,1.56,1.56,0,0,0-.43.42,1.75,1.75,0,0,0-.17.74c-.08.1-.16.19-.23.29a4.18,4.18,0,0,0-.37.65l-.17.25-.2,0h0l-.21-.12a2.3,2.3,0,0,0-.35-.51,1.81,1.81,0,0,0-.75-.36,7.27,7.27,0,0,0-.67-.55,3.53,3.53,0,0,0-.76-.36,4.09,4.09,0,0,0-.7-.6,3.72,3.72,0,0,0-.76-.35,2.29,2.29,0,0,0-.47-.42,1.69,1.69,0,0,0-.43-.15l-.24-.08c.09,0,.1.08,0,0h0l-.1,0h.1l-.15-.1a1.7,1.7,0,0,0-.22-.15,3.4,3.4,0,0,0-.51-.22l-.29-.28a2.66,2.66,0,0,0-.57-.59,4.8,4.8,0,0,0-1.07-.46,5.16,5.16,0,0,0-.91-.77,2.37,2.37,0,0,0-.72-.26l-.09,0-.09-.05a2.14,2.14,0,0,0-.45-.57,1.79,1.79,0,0,0-.71-.26,2.17,2.17,0,0,0-.53-.4l-.16-.06c0-.12,0-.25.07-.38l.51-.56a1.43,1.43,0,0,0,.4-.9V159l.21-.17a2.13,2.13,0,0,0,.4-.62c.18-.32.3-.66.5-1a2.59,2.59,0,0,0,.28-.64,2.76,2.76,0,0,0,.08-.27l0-.05c.19-.31.44-.6.61-.91a3.31,3.31,0,0,0,.33-.77.13.13,0,0,0,.08,0l.09.08a2.37,2.37,0,0,0,.38.33,1.51,1.51,0,0,0,.57.16l0,0a1.51,1.51,0,0,0,.6.52,4.51,4.51,0,0,0,.72.29,2.54,2.54,0,0,0,.16.28,1.69,1.69,0,0,0,.91.58h0l.16.1a3,3,0,0,0,.3.18,2.77,2.77,0,0,0,.53.2,1.83,1.83,0,0,0,.45.43,2.38,2.38,0,0,0,.55.19,2.15,2.15,0,0,0,.69.57,6.65,6.65,0,0,0,.83.35,5.68,5.68,0,0,1,.51.47,1.45,1.45,0,0,0,.63.43l.35.11a8.44,8.44,0,0,0,1.17.77l.14.08c.09.11.21.22.31.32a1.88,1.88,0,0,0,.85.38l.22.18a1.46,1.46,0,0,0,.43.25l.21.09,0,0,.1.08.23.2Zm2.33-.47c.13-.09,0,0-.05,0Zm-.09,0h0Zm1.1,2.14s0,0,0,0Zm2.55,4.84h0a.25.25,0,0,1,0,.09A.3.3,0,0,0,198,169.14Zm3.52-2.7.05,0Zm5.25-1.31.08-.07Zm2.23-1.44.09,0C209.05,163.7,208.83,163.76,209,163.69Zm.81-2.5a2.36,2.36,0,0,0-.65.21,2.26,2.26,0,0,0-.48.45,3.77,3.77,0,0,0-.73.35,2,2,0,0,0-.48.35,2.31,2.31,0,0,0-.2.24,2,2,0,0,0-.73.29c-.26.19-.53.35-.79.53a5.85,5.85,0,0,0-.49.38h0a1.75,1.75,0,0,0-.24.11,2.9,2.9,0,0,0-.73.51,3.11,3.11,0,0,0-.53.22,2.53,2.53,0,0,1-1.2.78c-.11.1-.23.21-.33.32h0l-.09.06c-.22.16-.45.3-.67.45l0,0h0a3.66,3.66,0,0,0-.58.22,4.56,4.56,0,0,0-.65.59l-.36.33h0l-.09.06a3.72,3.72,0,0,1-.67.38,2,2,0,0,0-.25.14l-.21.13a4.56,4.56,0,0,0-.44.14,1.59,1.59,0,0,0-.32.16,1.38,1.38,0,0,0-.2-.33l-.25-.27-.09-.09-.15-.24c0-.05-.06-.11-.1-.16h0c0-.14-.11-.28-.16-.43a2.68,2.68,0,0,0-.24-.79,8.35,8.35,0,0,0-.69-.88,3.55,3.55,0,0,0-.09-.47,1.5,1.5,0,0,0-.24-.45l-.12-.2h0a2.49,2.49,0,0,0-.32-.76,2.44,2.44,0,0,0-.35-.37,2.06,2.06,0,0,0-.31-.81l-.14-.23h0l.24,0c.1,0,.21,0,.31-.05a3.46,3.46,0,0,0,1.2-.67,4.63,4.63,0,0,0,.58-.5h0l.34-.22a3.08,3.08,0,0,0,.46-.31l.37-.14a1.54,1.54,0,0,0,.77-.68v0h0l.18-.13a2.28,2.28,0,0,0,.66-.13,1.42,1.42,0,0,0,.55-.51,2.24,2.24,0,0,0,.75-.32,3.34,3.34,0,0,0,.48-.36,2,2,0,0,0,.36-.4l.22-.15.05,0,.17-.07a1.85,1.85,0,0,0,.64-.36l.22-.22.72-.24a1.61,1.61,0,0,0,.76-.56,1.13,1.13,0,0,1,.1-.13c.23-.09.47-.18.7-.29a3.54,3.54,0,0,0,.9-.69l.36-.3a1.36,1.36,0,0,0,.5.67l.1.07a3.38,3.38,0,0,0,.17.6,6.08,6.08,0,0,0,.53,1.05,10.56,10.56,0,0,0,.62.87l.12.15v0l.16.29v.25a2.2,2.2,0,0,0,.2.75c.07.14.12.29.2.43a1.9,1.9,0,0,0,.34.45h0l.11.27a2.22,2.22,0,0,0,.29.52l.07.11Zm8.9,2.46Zm3.57.85s0,0,0,0Zm.31.06s.07,0,.06,0Zm2.17.68c.06,0,.15,0,.13,0S224.85,165.26,224.78,165.24Zm8.45,4.32,0,0C233.27,169.6,233.33,169.73,233.23,169.56Zm4.25,5.33,0-.06S237.49,174.88,237.48,174.89Zm2.05,13.73Zm1.6-3.76v.06S241.12,184.87,241.13,184.86Zm.54,7.39c0,.07,0,.07,0,0Zm-1.12,40.51h0s0,0,0,0Zm1.31-9.63v0C241.89,223.25,241.88,223.2,241.86,223.13Zm1-17.65a.22.22,0,0,1,0-.06A.21.21,0,0,1,242.87,205.48Zm.31,5.64v0Zm.25,13.37c0-.05,0-.18,0,0Z"/>
    <path class="b2b3952f-e1c8-45dc-95f6-8380508320e4" d="M241.35,209.71h0C241.38,209.58,241.3,209.57,241.35,209.71Z"/>
    <path class="b2b3952f-e1c8-45dc-95f6-8380508320e4" d="M147.35,177a.71.71,0,0,1-.1.14h0A1,1,0,0,0,147.35,177Z"/>
    <path class="b2b3952f-e1c8-45dc-95f6-8380508320e4" d="M157.66,167.93Z"/>
    <polygon class="ab8b0d2e-c5dc-49cd-928a-3a98a11cdf65" points="180.2 154.68 180.01 154.73 180.12 154.69 179.76 155.47 178.9 156.23 178.94 156.34 179.08 156.67 178.78 157.36 178.29 158.33 177.82 158.96 177.47 159 177.38 159.18 177.19 160.13 176.69 160.68 176.55 161.02 176.77 160.94 177.28 161.39 178.04 161.61 178.5 162.24 178.44 162.44 178.55 162.55 179.25 162.74 180.15 163.53 181.22 163.98 181.93 164.43 182.09 164.85 182.64 165 182.97 165 182.97 165.32 183.05 165.26 183.27 165.41 183.76 165.42 184.13 166 185.01 166.17 185.66 166.85 186.4 167.23 187.09 167.76 187.93 168.04 188.21 168.62 188.33 168.85 188.39 168.87 188.54 168.69 188.92 168.64 189.25 168 189.45 167.64 189.51 166.86 189.93 166.41 190.13 166.38 190.36 165.66 190.87 164.89 191 163.89 191.55 163.84 191.4 163.04 192.23 162.7 192.23 162.36 192.01 162.14 192 161.94 191.84 162.03 191.59 162.06 191.29 161.6 191.01 161.45 190.06 161.22 189.84 160.81 189.61 160.88 189.12 160.33 188.45 160.08 188.21 159.74 187.53 159.45 187.07 158.88 186.25 158.51 185.48 158.08 184.99 157.8 184.43 157.53 183.89 157.37 183.75 156.93 183.6 156.86 183.47 157.04 182.53 156.4 182.5 155.99 181.71 155.79 181.12 155.27 181.08 155.25 180.45 155.18 180.2 154.68"/>
    <polygon class="ab8b0d2e-c5dc-49cd-928a-3a98a11cdf65" points="180.03 154.53 180.03 154.55 179.97 154.63 180.03 154.53"/>
    <polygon class="ab8b0d2e-c5dc-49cd-928a-3a98a11cdf65" points="182.92 165.11 183.03 165.23 183.02 165.23 182.92 165.11"/>
    <polygon class="ab8b0d2e-c5dc-49cd-928a-3a98a11cdf65" points="183.08 165.23 183 165.4 182.9 165.16 183.08 165.23"/>
    <path class="b2b3952f-e1c8-45dc-95f6-8380508320e4" d="M180,165.32l-.07,0h-.06C180,165.32,180,165.33,180,165.32Z"/>
    <polygon class="b2b3952f-e1c8-45dc-95f6-8380508320e4" points="184.1 167.91 184.1 167.9 184.11 167.91 184.1 167.91"/>
    <path class="b2b3952f-e1c8-45dc-95f6-8380508320e4" d="M183,165.25h0l0,0Z"/>
    <polygon class="ab8b0d2e-c5dc-49cd-928a-3a98a11cdf65" points="205.18 155.47 204.5 155.79 204.47 156.04 203.72 156.68 202.94 156.77 202.71 157.01 202.16 157.53 201.97 157.55 201.89 157.53 201.66 157.66 201.26 158.02 200.81 158.41 200.03 158.67 199.49 159.2 198.82 159.21 198.74 159.58 198.55 159.44 198.63 159.51 197.91 160.25 197.54 160.36 196.98 160.52 196.74 160.9 196.73 160.89 196.24 161.51 195.56 161.74 194.96 162.1 194.65 162.16 194.41 162.26 194.46 162.13 194.55 162.38 194.7 163.27 195.16 163.59 195.35 164.38 195.57 164.29 195.53 164.59 195.7 165.03 196.07 165.39 196.53 166.41 196.72 167.18 197.08 167.54 197.13 167.5 197 167.81 197.41 167.88 197.39 168.05 197.51 168.43 197.86 168.58 198.21 168.65 198.63 168.47 198.8 168.21 199.03 168.03 199.66 167.6 199.87 167.7 199.71 167.52 200.17 167.29 200.76 166.6 201.39 166.42 201.39 166.39 201.52 166.52 202.18 166.06 202.22 165.91 202.14 165.83 202.61 165.64 203.3 165.21 203.81 164.89 204.36 164.69 205.09 164.21 205.3 164.07 205.24 163.94 205.69 163.49 206.56 163.08 207.29 162.8 207.57 162.62 208.03 162.3 208.76 161.95 209.16 161.36 209.84 161.22 209.77 161.09 209.98 160.91 209.69 160.43 209.44 160.22 209.46 160.2 209.25 159.68 208.79 159.38 208.81 158.57 208.56 158.38 208.69 157.98 208.42 158.1 208.44 157.85 207.87 156.94 207.16 155.98 207.04 155.35 207.1 155.13 206.41 154.71 206.06 154.8 205.18 155.47"/>
    <polygon class="ab8b0d2e-c5dc-49cd-928a-3a98a11cdf65" points="197.91 169.22 198.09 169.1 197.98 169.2 197.91 169.22"/>
    <path class="ab8b0d2e-c5dc-49cd-928a-3a98a11cdf65" d="M195.34,164.37l.16,0Z"/>
    <path class="ab8b0d2e-c5dc-49cd-928a-3a98a11cdf65" d="M201.61,166.48l-.06,0Z"/>
    <polygon class="ab8b0d2e-c5dc-49cd-928a-3a98a11cdf65" points="194.37 162.13 194.37 162.22 194.32 162.28 194.37 162.13"/>
    <path class="ab8b0d2e-c5dc-49cd-928a-3a98a11cdf65" d="M194.39,162l0,.21Z"/>
    <path class="b2b3952f-e1c8-45dc-95f6-8380508320e4" d="M204.49,153.92h0l.05,0Z"/>
    <polygon class="ee4bcfc7-3db5-43f4-bc64-0b323802b2fa" points="198.78 126.43 199.59 125.88 200.11 125.07 199.77 124.08 198.78 123.69 197.89 124.18 197.42 125.07 197.79 126.06 198.78 126.43"/>
    <polygon class="ee4bcfc7-3db5-43f4-bc64-0b323802b2fa" points="185.36 126.63 186.19 126.04 186.53 125.22 186.2 124.38 185.36 123.95 184.5 124.35 183.94 125.22 184.54 126.04 185.36 126.63"/>
    <path class="a76a6ba3-af72-43a6-bd25-b61cca756ca6" d="M190.65,136h0l.21.08a2,2,0,0,0,.35.05h.16c.16,0,.31,0,.47,0a.93.93,0,0,0,.65-.27.7.7,0,0,0,.19-.29.73.73,0,0,0,.08-.36,1,1,0,0,0-.27-.65,1,1,0,0,0-.65-.27l-.51,0h0l-.17-.07a1.34,1.34,0,0,0-.44-.06.64.64,0,0,0-.36.08.85.85,0,0,0-.48.48.64.64,0,0,0-.08.36.91.91,0,0,0,.83.91Z"/>
    <path class="a76a6ba3-af72-43a6-bd25-b61cca756ca6" d="M187.27,142.54a1.38,1.38,0,0,0,.72.21,1.53,1.53,0,0,0,.21.14h0l.1.15a1.26,1.26,0,0,0,.68.54,1.45,1.45,0,0,0,.41.06,1.34,1.34,0,0,0,.33,0l.31,0h.26l.22.05a2,2,0,0,0,.35.06c-.05,0,0,0,0,0a2.28,2.28,0,0,0,.77.14,3.11,3.11,0,0,0,.44-.06h0l.26.09a1.4,1.4,0,0,0,.61,0c.4-.08.78-.27,1.19-.36l.36,0a1.36,1.36,0,0,0,.37-.13,2.46,2.46,0,0,0,.34-.22l.09-.08a3.16,3.16,0,0,0,.61-.22,4.48,4.48,0,0,0,.64-.51.94.94,0,0,0,0-1.3,1,1,0,0,0-1.31,0l-.21.19h0a2.54,2.54,0,0,0-.65.24,2.34,2.34,0,0,0-.31.24l-.15,0-.36.06L193,142l-.23.08h0a2.94,2.94,0,0,0-.6-.1,2.12,2.12,0,0,0-.43.06h-.13l-.15-.06c-.14,0-.29-.05-.43-.08a4.48,4.48,0,0,0-.61-.11l-.29,0H190l-.31,0-.13-.16a3.68,3.68,0,0,0-.51-.37,1.78,1.78,0,0,0-.58-.3l-.36,0h0a.92.92,0,0,0-.84,1.63Zm7.74-1.23c-.07.07,0,0,0,0Zm-.92.45h0Zm-1.28.41h0Zm-3.14,1.44h0C189.58,143.59,189.6,143.59,189.67,143.61Zm-.27-1.8h0C189.3,141.83,189.3,141.83,189.4,141.81Z"/>
    <path class="a76a6ba3-af72-43a6-bd25-b61cca756ca6" d="M194.52,143.55h0Z"/>
    <path class="ab8b0d2e-c5dc-49cd-928a-3a98a11cdf65" d="M241.93,223.14l0,0Z"/>
    <polygon class="ab8b0d2e-c5dc-49cd-928a-3a98a11cdf65" points="240.61 232.73 240.6 232.74 240.56 232.63 240.48 232.66 240.61 232.73"/>
    <polygon class="ab8b0d2e-c5dc-49cd-928a-3a98a11cdf65" points="240.62 232.69 240.66 232.65 240.42 232.47 240.56 232.6 240.62 232.69"/>
    <polygon class="ab8b0d2e-c5dc-49cd-928a-3a98a11cdf65" points="233.49 233.33 233.68 233.44 234.43 233.49 235.2 233.55 235.34 233.74 236.43 233.61 236.75 233.38 237.29 233.7 237.78 233.5 237.78 233.44 237.93 233.41 238.94 233.57 239.73 233.29 240.34 232.94 240.4 232.83 240.45 232.65 240.44 232.67 240.43 232.52 240.55 231.55 240.89 230.85 241.38 230.32 241.4 229.85 241.43 229.47 241.24 229.29 241.24 229.06 241.44 228.57 241.5 228.19 241.55 227.53 241.57 226.9 241.4 226.54 241.57 225.95 241.67 225.4 241.5 225.01 241.73 224.17 241.89 223.45 241.87 223.41 241.94 223.12 241.99 223.02 241.95 222.76 241.68 221.91 242.06 221.69 241.85 221.61 242.05 221.18 242.18 220.27 241.92 219.58 241.82 218.76 241.74 218.23 241.87 217.72 241.2 218.3 240.77 219.05 240.46 219.85 240.1 220.63 239.61 221.33 239.01 221.97 238.83 222.87 238.14 223.45 237.88 224.3 237.3 224.95 236.97 225.75 236.59 226.53 236.06 227.22 235.55 227.92 235.01 228.6 234.71 229.41 234.41 230.24 233.89 230.93 233.52 231.72 232.91 232.37 232.62 233.17 233.11 233.37 233.49 233.33"/>
    <polygon class="ab8b0d2e-c5dc-49cd-928a-3a98a11cdf65" points="240.51 232.77 240.72 232.75 240.43 232.81 240.51 232.77"/>
    <path class="b2b3952f-e1c8-45dc-95f6-8380508320e4" d="M240.54,232.67s0,0,0,0v0s0,0,0-.07S240.53,232.58,240.54,232.67Z"/>
    <path class="f8613f7c-b0ef-489b-9e5c-5ed458afecda" d="M194.89,219.18s.1,0,.11,0l-.18-.16S194.9,219.17,194.89,219.18Z"/>
    <path class="f8613f7c-b0ef-489b-9e5c-5ed458afecda" d="M190.51,218.23c-.11.11.1,0,.14-.11l-.24-.16S190.54,218.2,190.51,218.23Z"/>
    <path class="f8613f7c-b0ef-489b-9e5c-5ed458afecda" d="M190.49,218.05l.18.06s-.07-.08-.07-.09S190.49,218,190.49,218.05Z"/>
    <path class="f8613f7c-b0ef-489b-9e5c-5ed458afecda" d="M194.84,219s.22.11.21.14l0,0C195.08,219.1,194.9,218.86,194.84,219Z"/>
    <path class="f8613f7c-b0ef-489b-9e5c-5ed458afecda" d="M195.13,218.67h0s.15,0,.15,0Z"/>
    <path class="f8613f7c-b0ef-489b-9e5c-5ed458afecda" d="M195.17,218.68s.09.12.08.14-.28-.12-.31-.09,0,.06.07,0l.09.08A.69.69,0,0,0,195.17,218.68Z"/>
    <path class="f8613f7c-b0ef-489b-9e5c-5ed458afecda" d="M215.08,216.08a.76.76,0,0,1-.25-.18c-.31-.07-.65-.08-1-.16s-.66-.06-.94-.15a7,7,0,0,1-.83-.48,2.9,2.9,0,0,1-.81-.39,8.35,8.35,0,0,1-.6-.59c-.18-.22-.4-.4-.56-.64s-.43-.39-.58-.63-.18-.56-.32-.8-.43-.4-.58-.64-.23-.52-.39-.75-.15-.59-.33-.81-.38-.44-.58-.64a6,6,0,0,0-.64-.59,4.9,4.9,0,0,0-.81-.33,5.24,5.24,0,0,0-.86-.24,6.42,6.42,0,0,0-.87-.19c-.29-.05-.57-.16-.88-.19s-.59-.18-.89-.19-.6.06-.9,0-.6,0-.9,0-.57-.24-.86-.28-.59,0-.88-.1-.61,0-.9-.09-.56-.2-.84-.3-.57-.17-.85-.28-.51-.31-.78-.44l-.75-.35a7.58,7.58,0,0,0-.82-.21c-.26-.1-.49-.34-.76-.38a2.43,2.43,0,0,0-.85,0c-.32,0-.53.35-.8.51s-.64.06-.86.29c-.26-.11-.51,0-.81-.11s-.57-.14-.87-.21-.57-.23-.86-.27a6.41,6.41,0,0,0-.9,0,1.9,1.9,0,0,0-.85.2,4.8,4.8,0,0,0-.86.39c-.23.2-.26.61-.46.84s-.43.42-.61.67-.27.55-.44.8-.59.28-.75.51-.07.63-.23.87-.42.39-.58.62-.17.56-.33.8-.58.3-.73.53-.13.58-.28.83a6.63,6.63,0,0,0-.31.82c-.13.27-.52.44-.59.73a2.57,2.57,0,0,0,.05.91,2.07,2.07,0,0,0,.23.86,2.57,2.57,0,0,0,.65.62,2.82,2.82,0,0,0,.76.31,3.09,3.09,0,0,0,.79.31,3.56,3.56,0,0,0,.92-.1c.29-.08.5-.35.77-.48,0-.14,0-.29.07-.42.15-.29.56-.4.77-.64.06-.19,0-.45.12-.62s.38-.26.52-.41c.12-.32.15-.7.29-1s0-.53.12-.75l.35-.64c.11-.21.42-.32.52-.54s.25-.63.4-.93.07-.52.23-.72.33,0,.4-.13a4.22,4.22,0,0,0,.14-.74c.07-.36.4-.5.63-.73,0-.11-.17-.31-.16-.41a2.58,2.58,0,0,1,.36-.93,1.33,1.33,0,0,1,.66-.49c.23-.07.46.23.68.36s.44.22.5.45a.81.81,0,0,1-.21.64c-.07.11,0,.29-.09.4a2.39,2.39,0,0,1,0,.71c-.09.22-.43.32-.61.49a2.33,2.33,0,0,1-.07.53c-.05.14-.06.29-.11.43a2.66,2.66,0,0,1-.42.71s-.08,0-.1,0-.07,0-.08,0-.2.24-.26.37-.24.35-.34.54,0,.48-.15.67-.25.37-.35.57-.27.43-.39.66c0,.06.08.21,0,.27l-.19-.08c0,.09-.11.17-.15.27s.16.54.08.75a2.51,2.51,0,0,1-.51.74c0,.09-.09.11-.12.2-.1.24-.37.35-.54.55l-.16.15.17.11c0,.08-.32.08-.36.16a2.19,2.19,0,0,1-.08.73c-.09.21-.05.49-.23.64,0,.17-.25.24-.31.39a1.69,1.69,0,0,1-.49.51,8.87,8.87,0,0,1-.17,1,.75.75,0,0,1-.71.64c0,.39.38.68.66,1s.25.45.48.53a2,2,0,0,0,.73.1c.24,0,.43-.21.66-.29.06,0,.09,0,.14,0l0-.08c0,.12,0-.07,0-.11.13-.3.38-.55.52-.84,0,0,.1,0,.12-.09s-.13-.38-.09-.53.31-.41.45-.6.08-.33.11-.5.37-.48.49-.69.17-.18.24-.29-.23-.21-.2-.25a5.28,5.28,0,0,1,.24-.77,2.58,2.58,0,0,1,.43-.66c.08-.1.3-.09.39-.19a2.69,2.69,0,0,1,.19-.38h0c.08-.23,0-.56.11-.77s.38-.67.56-1c.06-.12.18-.2.24-.31s.08-.38.15-.56.39-.36.45-.59,0-.5.09-.69.18-.36.27-.53.21-.18.27-.3,0-.05,0-.06c.06-.21.22-.38.3-.59s.25-.37.34-.57-.06-.68.12-.87.28-.13.39-.22,0-.18.07-.27c.08-.25.36-.3.57-.42s.39-.33.64-.27.36.32.48.53.36.48.29.71a2.72,2.72,0,0,1-.52,1c-.08.08-.13.22-.21.29s0,0-.06,0-.38.29-.45.44-.11.19-.16.29.19.17.17.22c-.07.21-.36.34-.45.54s-.17.4-.28.6l-.21.3s-.07,0-.07.05c-.05.19.1.44,0,.63s-.13.55-.23.81-.22.52-.33.78-.44.39-.59.63.11.39,0,.5,0,0,0,0c-.08.22-.18.45-.28.66a3.24,3.24,0,0,1-.5.62c-.08.1-.07.27-.15.36s-.12-.07-.13-.06h-.09c0,.08.11.29.08.35l-.18-.06.14,0c0,.23-.3.55-.41.74s-.29.29-.39.46.12.28.08.38a1.94,1.94,0,0,1-.44.94l-.2.27c0,.14.13.37.08.51a4.07,4.07,0,0,1-.35.6s-.15,0-.17,0,.05.12,0,.16c-.14.34-.3.66-.44,1s-.25.48-.47.54-.56-.16-.75-.24a3.71,3.71,0,0,0,0,.94,3.26,3.26,0,0,0,0,.88,2.59,2.59,0,0,0,.41.77,2.09,2.09,0,0,0,.49.72,1.8,1.8,0,0,0,.81.39,2.26,2.26,0,0,0,.88-.16,2.85,2.85,0,0,0,.87-.26,2.93,2.93,0,0,0,.65-.75,6.28,6.28,0,0,0,.56-.78c.14-.26.18-.6.34-.91s.36-.4.53-.71a2.4,2.4,0,0,0-.23.72,1.54,1.54,0,0,0,.22.79,1.39,1.39,0,0,0,.37.71,2.37,2.37,0,0,0,.79.28c.32.09.6.31.9.3a3.3,3.3,0,0,0,.94-.15,3.55,3.55,0,0,0,.79-.51,3.81,3.81,0,0,0,.75-.57,4.72,4.72,0,0,0,.51-.8,5.82,5.82,0,0,1,.47-.68,4.94,4.94,0,0,1,.52-.65,5.31,5.31,0,0,1,.68-.49c.24-.14.56-.09.81-.19s.45-.42.72-.47a5.83,5.83,0,0,1,.84-.07,4.62,4.62,0,0,1,.82.18,5.14,5.14,0,0,1,.8.15c.27.08.62,0,.86.11a4.46,4.46,0,0,1,.72.47,2.91,2.91,0,0,1,.52.69,4,4,0,0,0,.52.65c.2.2.3.54.54.71s.63,0,.89.17.39.47.66.58.53.23.8.32.57.11.85.17.58,0,.86,0,.55.19.83.23.58-.06.86,0,.56.15.84.17.57.23.85.24.58,0,.86,0,.59,0,.86,0,.61-.08.85-.09c.53,0,.52.25.7-.13s.05-.36.1-.77.28-.39.33-.81.1-.4.14-.82-.18-.44-.14-.85.28-.4.32-.81-.17-.44-.12-.86.2-.39.25-.81-.14-.43-.09-.85.09-.41.14-.83,0-.41.07-.83.19-.4.23-.82a1.6,1.6,0,0,0,0-.84c-.1-.4-.29,0-.78-.13l-.81-.14c-.31-.06-.63-.19-1-.26A.79.79,0,0,1,215.08,216.08Zm-19.32,1.38-.17.17a1.77,1.77,0,0,1-.24.7c-.08.1-.07.27-.16.37s-.2,0-.23,0-.06.24-.12.32,0,.05,0,.05,0,.11,0,.15c-.08.25-.06.55-.23.76s-.24.06-.31.13.07.15,0,.19-.2.17-.26.27-.4.3-.53.49a.14.14,0,0,1,0,.06c0,.12-.12.24-.16.37s.08.46,0,.66a2.92,2.92,0,0,1-.53.94c-.14.15-.3.3-.46.45a1.09,1.09,0,0,1-.72.21c-.24,0-.39-.19-.58-.37a.8.8,0,0,1-.31-.57.83.83,0,0,1,.22-.68c.23-.21.59-.33.79-.56a5,5,0,0,1,.16-.79,4.27,4.27,0,0,1,.2-.76c.13-.25.3-.48.45-.72a4.12,4.12,0,0,1,.4-.56,4.18,4.18,0,0,1,.43-.77,5.6,5.6,0,0,1,.49-.68c.06-.3,0-.71.24-.92s.45-.15.64-.27a1.09,1.09,0,0,0,.06-.11s-.17-.12-.15-.15c0-.23.44-.46.54-.62s.12-.5.29-.65c0-.05,0-.11,0-.16s.14,0,.14,0a2.12,2.12,0,0,1,.1-.89,1.71,1.71,0,0,1,.48-.49c0-.1.21-.15.23-.25.06-.25,0-.58.24-.69a1.26,1.26,0,0,1,.77,0,1.09,1.09,0,0,1,.68.42c.12.21-.16.5-.21.74s.16.77,0,1-.34.17-.48.27.16.07.15.09c0,.29-.43.43-.55.69s-.14.6-.34.82a3.34,3.34,0,0,1-.28,1C196.38,217.33,196,217.3,195.76,217.46Z"/>
    <polygon class="b8aaf209-f87d-4689-bbf3-f5dd0caea1b5" points="184.69 235.32 185.55 235.2 186.4 235.13 187.26 235.28 188.11 235.35 188.97 235.23 189.82 235.45 190.67 235.33 191.53 235.15 192.38 235.24 193.23 235.29 194.09 235.46 194.94 235.35 195.8 235.22 196.66 235.25 197.51 235.24 198.37 235.15 199.22 235.18 200.08 235.39 200.94 235.41 201.8 235.41 202.67 235.44 203.17 234.93 202.96 234.09 203 233.25 202.96 232.41 203.06 231.57 202.67 231.22 201.81 231.23 200.96 231.28 200.11 231.35 199.25 231.07 198.4 231.21 197.54 231.24 196.69 231.13 195.83 231.04 194.98 231.32 194.13 231.34 193.28 231.28 192.42 231.15 191.56 231.23 190.71 231.17 189.85 231.16 188.99 231.1 188.14 231.21 187.28 231.13 186.43 231.09 185.56 231.36 184.7 231.14 183.76 231.16 184.13 232.09 184.31 233.02 184.51 233.94 185.06 234.76 184.69 235.32"/>
    <polygon class="b2b3952f-e1c8-45dc-95f6-8380508320e4" points="114.9 235.39 115.76 235.29 116.61 235.45 117.47 235.47 118.32 235.41 119.17 235.26 120.03 235.44 120.89 235.26 121.74 235.36 122.6 235.43 123.45 235.57 124.31 235.45 125.17 235.52 126.02 235.41 126.88 235.38 127.73 235.36 128.59 235.42 129.44 235.45 130.3 235.54 131.15 235.28 132.01 235.28 132.86 235.59 133.72 235.56 134.58 235.41 135.43 235.48 136.29 235.38 137.15 235.31 138 235.51 138.85 235.57 139.71 235.44 140.56 235.35 141.41 235.44 142.26 235.58 143.12 235.33 143.97 235.54 144.82 235.58 145.67 235.54 146.53 235.49 147.38 235.44 148.23 235.4 149.09 235.25 149.95 235.48 150.81 235.25 151.66 235.41 152.52 235.5 153.37 235.25 154.23 235.43 155.08 235.38 155.94 235.39 156.79 235.59 157.65 235.57 158.51 235.32 159.37 235.38 160.23 235.38 161.09 235.39 161.94 235.46 162.8 235.46 163.66 235.29 164.51 235.25 165.38 235.48 166.23 235.54 167.09 235.57 167.95 235.44 168.81 235.53 169.67 235.34 170.53 235.26 171.38 235.35 172.25 235.38 173.1 235.44 173.96 235.29 174.82 235.41 175.68 235.38 176.54 235.5 177.4 235.3 178.26 235.35 179.12 235.59 179.98 235.39 180.84 235.44 181.7 235.44 182.57 235.48 183.43 235.32 184.3 235.5 184.65 235.24 184.96 234.79 184.77 233.87 184.44 232.99 184.26 232.06 183.99 231.16 183.43 230.42 183.43 229.52 183.21 228.68 182.76 227.91 182.48 227.1 182.2 226.28 182.11 225.4 181.75 224.6 181.55 223.76 181.28 222.94 181.19 222.06 180.6 221.33 180.5 220.45 180.1 219.67 180.06 218.77 179.89 217.91 179.34 217.17 179.27 216.28 178.85 215.5 178.55 214.69 178.43 213.82 178.09 213.02 177.95 212.15 177.82 211.28 177.46 210.49 177.25 209.64 176.86 208.86 176.65 208.01 176.34 207.2 175.99 206.4 176 205.49 175.66 204.68 175.38 203.86 175.14 203.03 174.7 202.25 174.6 201.37 174.33 200.55 174.14 199.7 173.78 198.9 173.61 198.04 173.15 197.28 173.12 196.38 172.86 195.55 172.6 194.72 172.38 193.88 172.04 193.07 171.87 192.21 171.47 191.42 171.28 190.57 171.1 189.71 170.76 188.9 170.4 188.1 170.31 187.22 169.56 186.59 168.7 186.56 167.84 186.74 166.99 186.71 166.13 186.71 165.28 186.74 164.42 186.66 163.56 186.63 162.7 186.57 161.84 186.49 160.98 186.43 160.13 186.62 159.27 186.56 158.41 186.69 157.55 186.53 156.69 186.76 155.83 186.69 154.98 186.69 154.12 186.74 153.26 186.56 152.4 186.55 151.54 186.53 150.68 186.44 149.82 186.73 148.96 186.69 148.1 186.66 147.24 186.71 146.38 186.58 145.51 186.67 144.64 186.7 143.71 186.75 142.78 186.55 141.94 186.52 141.09 186.75 140.24 186.65 139.4 186.65 138.55 186.44 137.7 186.72 136.85 186.44 136 186.51 135.15 186.59 134.3 186.63 133.45 186.54 132.59 186.75 131.74 186.77 130.89 186.47 130.04 186.72 129.19 186.45 128.34 186.69 127.5 186.71 126.64 186.58 125.79 186.7 124.94 186.67 124.08 186.44 123.23 186.72 122.38 186.66 121.53 186.71 120.68 186.76 119.82 186.76 118.97 186.72 118.12 186.55 117.26 186.72 116.41 186.61 115.56 186.53 114.7 186.68 113.85 186.69 113 186.74 112.14 186.66 111.29 186.76 110.44 186.51 109.59 186.78 108.73 186.62 107.88 186.55 107.02 186.62 106.17 186.59 105.31 186.61 104.46 186.5 103.6 186.45 102.74 186.49 101.89 186.62 101.02 186.63 100.16 186.77 99.67 187.2 99.78 188.06 99.98 188.89 100.14 189.74 100.62 190.48 100.71 191.35 100.9 192.19 101.22 192.98 101.39 193.82 101.81 194.58 102.05 195.4 102.37 196.19 102.61 197.01 102.68 197.89 103.15 198.63 103.28 199.49 103.42 200.34 103.89 201.09 104.11 201.93 104.27 202.78 104.48 203.61 104.69 204.44 105.16 205.19 105.26 206.06 105.58 206.85 105.81 207.68 106.25 208.44 106.2 209.35 106.67 210.11 106.97 210.91 107.27 211.72 107.28 212.62 107.56 213.43 107.75 214.26 108.14 215.04 108.33 215.89 108.53 216.73 108.81 217.54 109.19 218.32 109.52 219.12 109.51 220.02 110.03 220.76 110.26 221.59 110.31 222.47 110.81 223.22 110.95 224.07 111.35 224.85 111.41 225.73 111.66 226.55 112.09 227.32 112.1 228.22 112.54 228.99 112.74 229.83 112.84 230.7 113.37 231.43 113.58 232.27 113.58 233.18 114.1 233.93 114.16 234.81 114.9 235.39"/>
    <polygon class="ab8b0d2e-c5dc-49cd-928a-3a98a11cdf65" points="218.5 215.09 218.43 214.94 218.37 214.98 218.38 215.18 218.5 215.09"/>
    <polygon class="ab8b0d2e-c5dc-49cd-928a-3a98a11cdf65" points="220.57 215 220.4 215.09 220.12 215.26 219.94 215.12 220.79 215.13 220.61 215.2 220.57 215"/>
    <polygon class="ab8b0d2e-c5dc-49cd-928a-3a98a11cdf65" points="218.47 214.94 218.47 214.98 218.51 215.1 218.47 214.94"/>
    <path class="ab8b0d2e-c5dc-49cd-928a-3a98a11cdf65" d="M220.76,215l0-.05Z"/>
    <polygon class="ab8b0d2e-c5dc-49cd-928a-3a98a11cdf65" points="218.35 215.06 217.99 215.04 217.59 215.13 217.2 215.26 216.87 215.27 216.77 215.18 216.8 215.41 216.67 215.5 217.57 215.18 218.48 215.12 219.42 215.33 218.49 215.21 218.35 215.06"/>
    <polygon class="ab8b0d2e-c5dc-49cd-928a-3a98a11cdf65" points="216.82 215.24 216.65 215.22 216.8 215.26 216.82 215.24"/>
    <polygon class="ab8b0d2e-c5dc-49cd-928a-3a98a11cdf65" points="216.71 215.41 216.59 215.44 216.65 215.38 216.71 215.41"/>
    <polygon class="ab8b0d2e-c5dc-49cd-928a-3a98a11cdf65" points="216.77 215.16 216.72 215.14 216.76 215.27 216.77 215.16"/>
    <path class="b2b3952f-e1c8-45dc-95f6-8380508320e4" d="M216.55,215.42l0,0,0,0Z"/>
    <path class="b2b3952f-e1c8-45dc-95f6-8380508320e4" d="M216.44,215.54s0,0,0,0v0a.19.19,0,0,0,.07-.1h0S216.45,215.53,216.44,215.54Z"/>
    <path class="b2b3952f-e1c8-45dc-95f6-8380508320e4" d="M215,216.23a1,1,0,0,0,.83,0,.82.82,0,0,0,.43-.37l.15-.3-.07,0s.07-.06.1-.1,0-.06,0,0l.07-.08h-.06l.07,0,0,0,0,0c.06-.07,0,0,0,0l0,0,.06,0,.1-.05h0l.07,0c.14-.07.06,0,0,0l.06,0,.31-.07a2.66,2.66,0,0,0,.39-.16l.42.05h.36c-.06,0-.06,0,.06,0l.09,0h0a6.57,6.57,0,0,0,.89.12,2,2,0,0,0,.54,0l.15,0,.3-.08h.26l.14.05.22.06a1.44,1.44,0,0,0,1-.07l.1,0a2.63,2.63,0,0,0,.3,0h.06l.42.17a1.78,1.78,0,0,0,.88-.07,2.81,2.81,0,0,0,.55.08,2.43,2.43,0,0,0,.64-.13,9.72,9.72,0,0,0,1.69.19,3,3,0,0,0,.65-.13h.2c.23,0,.47,0,.7,0l.31.14a1.51,1.51,0,0,0,1.23-.07h0a2.58,2.58,0,0,0,.29,0l.11,0,.31.09a2.89,2.89,0,0,0,.83,0c.19,0,.38.06.58.06a2.49,2.49,0,0,0,.69-.14l.16,0,.32,0a.92.92,0,0,0,.92-.92.94.94,0,0,0-.92-.92l-.56-.06a2.07,2.07,0,0,0-.69.14c-.11,0-.23,0-.34,0a1.93,1.93,0,0,0-.48,0h-.19l-.08,0a2.19,2.19,0,0,0-.67-.11,4.55,4.55,0,0,0-1,.17l-.19-.09a2.34,2.34,0,0,0-1-.13,5,5,0,0,0-1.27.14h-.18l-.31,0-.27,0c-.14,0-.55-.13-.08,0a3.89,3.89,0,0,0-.82-.13,2.27,2.27,0,0,0-.62.12,2.67,2.67,0,0,0-.55-.07,1.89,1.89,0,0,0-.52.09l-.3-.12a1.91,1.91,0,0,0-.63-.07,4.29,4.29,0,0,1-2.3,0,2.85,2.85,0,0,0-.39.11h-.06a2.33,2.33,0,0,0-.38,0h-.09a4.3,4.3,0,0,0-.88-.08H218l-.29-.05a1.23,1.23,0,0,0-.8.1l-.28.14-.16,0a2.09,2.09,0,0,0-.5.16,2.27,2.27,0,0,0-.79.54,3.09,3.09,0,0,0-.53.8,1,1,0,0,0,.11,1.07A.82.82,0,0,0,215,216.23Zm5.75-1.16c.16,0,.05,0,0,0Z"/>
    <path class="b2b3952f-e1c8-45dc-95f6-8380508320e4" d="M218.51,215.08h-.16A.28.28,0,0,0,218.51,215.08Z"/>
    <path class="b2b3952f-e1c8-45dc-95f6-8380508320e4" d="M216.76,215.3h0l.05,0Z"/>
    <polygon class="ab8b0d2e-c5dc-49cd-928a-3a98a11cdf65" points="214.99 228.87 215 229.21 215 229.34 215.79 229.73 216.79 230.11 217.06 230.25 217.85 230.25 217.95 230.54 218 230.51 218.34 230.41 218.36 230.64 218.83 230.32 219.63 230.62 219.8 230.81 220 231.08 220.5 230.8 221.36 230.8 222.49 231.47 223.34 231.3 223.69 231.5 224.06 231.63 224.65 231.75 224.84 231.88 225 231.71 224.12 231.57 223.32 231.21 222.56 230.77 221.73 230.5 220.92 230.16 220.03 230.06 219.25 229.66 218.48 229.21 217.66 228.91 216.75 228.85 216.02 228.29 215.13 228.2 214.99 228.87"/>
    <path class="b2b3952f-e1c8-45dc-95f6-8380508320e4" d="M229.49,233.79a2,2,0,0,1,.68.12.93.93,0,0,0-.37-1.16c-.18-.13-.35-.26-.53-.37a2.49,2.49,0,0,0-.92-.26,3,3,0,0,0-.84-.05l-.35.05a1.58,1.58,0,0,0-.87-.21l-.32,0h0l-.42-.12a3.43,3.43,0,0,0-.56-.06h-.07a.7.7,0,0,0-.23-.08,1.61,1.61,0,0,0-.62-.15l-.37,0-.37-.16a1.87,1.87,0,0,0-.78-.07,4.22,4.22,0,0,0-1.19-.42,3.88,3.88,0,0,0-.83-.07l-.52.09-.22,0-.23-.15a1.07,1.07,0,0,0-.71-.26,2.2,2.2,0,0,0-.5,0h0a2.46,2.46,0,0,0-.29-.09h0l-.2-.09a1.79,1.79,0,0,0-.75-.21l-.28,0a5.54,5.54,0,0,0-.93-.55,2,2,0,0,0-.88-.08l-.12-.33a1.73,1.73,0,0,0,.19-.28,1.19,1.19,0,0,0,.1-.77c0-.11,0-.23,0-.34a.94.94,0,0,0-.92-.92c-.45,0-1,.4-.92.92l0,.37a1.28,1.28,0,0,0-.37,1.09,6.8,6.8,0,0,0,.31.86c.08.2.15.43.25.62a1.48,1.48,0,0,0,.93.54,2.61,2.61,0,0,0,.83.09c.22.13.43.25.64.39a1.16,1.16,0,0,0,.73.24l.38,0a6.62,6.62,0,0,0,.78.3,2.07,2.07,0,0,0,.85.08,3.37,3.37,0,0,0,.31.21,2,2,0,0,0,.72.18,2.42,2.42,0,0,0,.85,0l.18,0a.44.44,0,0,0,.16,0l.16,0h0a.44.44,0,0,0,.15,0l.31.1a2.28,2.28,0,0,0,.89.32,3,3,0,0,0,.42,0,1.86,1.86,0,0,0,.92.24l.28,0a3,3,0,0,0,.47.17,3.42,3.42,0,0,0,.65.06,2,2,0,0,0,.26.08,1.7,1.7,0,0,0,.59.1l.35-.05a1.57,1.57,0,0,0,1,.22l.42-.08h.11l.23,0,.14,0,.24.07.11.06.36.25a.92.92,0,0,0,1.26-.33.36.36,0,0,0,0-.09A2,2,0,0,0,229.49,233.79Z"/>
    <path class="bb6ef3c2-3ed1-446c-9ca1-0b6dff5cfde3" d="M195.08,218.81h0a.38.38,0,0,0,.09-.14h0Z"/>
    <path class="bb6ef3c2-3ed1-446c-9ca1-0b6dff5cfde3" d="M194.89,219.13v0Z"/>
    <path class="bb6ef3c2-3ed1-446c-9ca1-0b6dff5cfde3" d="M196.77,216.09a2.6,2.6,0,0,0,.52-.74,2.3,2.3,0,0,0,.24-.77v-.07a1.84,1.84,0,0,0,.38-.35,2.23,2.23,0,0,0,.3-.91.94.94,0,0,0-.64-1.14.93.93,0,0,0-1.13.65l-.07.3a1.62,1.62,0,0,0-.5.47,2.1,2.1,0,0,0-.18.88l0,.07a1,1,0,0,0-.07.15,2.93,2.93,0,0,0-.47.54,2.4,2.4,0,0,0-.23.73l-.06.1,0,.08a3,3,0,0,0-.53.39,1.64,1.64,0,0,0-.36.84,5.42,5.42,0,0,0-.48.67,4,4,0,0,0-.37.82,3.19,3.19,0,0,0-.43.54c-.15.24-.28.48-.42.73a5.58,5.58,0,0,0-.51,1.47c-.2.23-.41.44-.64.66a.93.93,0,0,0,0,1.3.94.94,0,0,0,1.3,0c.15-.14.32-.28.46-.43a2.7,2.7,0,0,0,.61-.87c.06-.21.07-.42.13-.63s.09-.24.13-.36l0,0c.12-.19.21-.41.33-.6l.19-.32.09-.11.2-.23a1.84,1.84,0,0,0,.32-.66l0-.13,0,0,0,0,0-.09c.05-.16.05,0,0,.07a2.19,2.19,0,0,0,.17-.29s-.06,0,0,0a.39.39,0,0,1,.08-.1l0,0v0l.25-.3a1.75,1.75,0,0,0,.31-.7l.14-.09a1.83,1.83,0,0,0,.53-.58A3.2,3.2,0,0,0,196.77,216.09Z"/>
    <polygon class="bb6ef3c2-3ed1-446c-9ca1-0b6dff5cfde3" points="190.51 218.06 190.51 218.06 190.51 218.06 190.51 218.06"/>
    <path class="bb6ef3c2-3ed1-446c-9ca1-0b6dff5cfde3" d="M188.28,223.46l.42-1a.61.61,0,0,1,.05-.12l0-.09a5,5,0,0,0,.29-.62c0-.14.08-.29.11-.44s.12-.17.18-.25a2,2,0,0,0,.28-1c0-.1.09-.2.14-.29s.24-.32.34-.49a2.15,2.15,0,0,0,.24-.78h0v0a1.46,1.46,0,0,0,.13-.28c0,.09-.19.2-.08.09l.08-.09v0a0,0,0,0,1,0,0l0,0c.08-.09.17-.17.25-.27a3.71,3.71,0,0,0,.4-.67c.1-.21.18-.43.26-.65l0-.05c.08-.11.15-.23.22-.34a14.16,14.16,0,0,0,1-2.3c.06-.19.11-.39.16-.58v0a3.37,3.37,0,0,0,.19-.32,6.08,6.08,0,0,0,.55-1.22.69.69,0,0,0,0-.13l.13-.3a3.11,3.11,0,0,0,.25-.52l.09-.08a3,3,0,0,0,.26-.24,2.49,2.49,0,0,0,.42-1,.92.92,0,0,0-1.78-.49l-.09.29-.32.29a2.26,2.26,0,0,0-.38.7c-.18.41-.36.81-.5,1.23v0l-.18.35-.31.5a10.22,10.22,0,0,0-.44,1.32l-.19.54-.17.36c-.17.35-.38.68-.58,1a4.53,4.53,0,0,0-.28.69h0a2.58,2.58,0,0,0-.19.37l-.27.29a2.44,2.44,0,0,0-.36.65,5.56,5.56,0,0,0-.26.75s-.05.09-.07.12a3.37,3.37,0,0,0-.21.31,3.29,3.29,0,0,0-.34.77,2.84,2.84,0,0,0-.07.52,1.94,1.94,0,0,0-.36.62,4.05,4.05,0,0,0-.12.47l0,.11c-.15.29-.27.59-.39.89,0,.05-.09.21,0,.1l-.05.11-.1.25a.94.94,0,0,0,.33,1.26.2.2,0,0,0,.08,0A.92.92,0,0,0,188.28,223.46Z"/>
    <path class="bb6ef3c2-3ed1-446c-9ca1-0b6dff5cfde3" d="M184.93,220.26c.06-.33.11-.65.14-1a1.58,1.58,0,0,0,.44-.53,2,2,0,0,0,.1-.5,1.34,1.34,0,0,0,.45-.53,2.35,2.35,0,0,0,.11-.75l.11-.23v0l.15-.16a2.1,2.1,0,0,0,.39-.62,2.77,2.77,0,0,0,.1-.26,2.45,2.45,0,0,0,.49-.7c.08-.21.14-.42.23-.63s.07-.19.11-.28h0l.09-.19q.18-.35.33-.69c.19-.4.42-.78.62-1.18.09-.19.2-.38.29-.57a2.93,2.93,0,0,0,.19-.4,0,0,0,0,0,0,0l.06-.07a2.46,2.46,0,0,0,.44-.66c.06-.13.11-.27.17-.4a2.83,2.83,0,0,0,.13-.5,1.71,1.71,0,0,0,.45-.56,2.2,2.2,0,0,0,.11-.68l.21-.33a.92.92,0,0,0-1.59-.93,2.14,2.14,0,0,0-.43.85l0,.31a1.54,1.54,0,0,0-.5.82,4.91,4.91,0,0,1-.2.71l-.22.27a2.88,2.88,0,0,0-.36.61c-.14.31-.31.6-.45.9-.31.66-.7,1.27-1,1.94-.14.32-.26.65-.38,1a2.93,2.93,0,0,0-.39.48,2.63,2.63,0,0,0-.22.55,3.85,3.85,0,0,0-.55.77,3.2,3.2,0,0,0-.16.39,1.35,1.35,0,0,0-.07.36s0,.08,0,.12a1.3,1.3,0,0,0-.42.51,2,2,0,0,0-.11.52l-.18.16a1.21,1.21,0,0,0-.35.88c0,.11,0,.22,0,.33h0l-.09.45a1,1,0,0,0,.65,1.13,1.13,1.13,0,0,0,.32,0A.86.86,0,0,0,184.93,220.26Z"/>
  </g>
  <g>
    <circle cx="341" cy="254" r="23"/>
    <g>
      <path class="ab8b0d2e-c5dc-49cd-928a-3a98a11cdf65" d="M341.94,254.9l0-.05v0s0,0,0-.06h0a.38.38,0,0,0,0-.15h0s0,0,0-.06v0l0-.05-.05-.06L336.47,249a.39.39,0,0,0-.55,0l-1,1a.43.43,0,0,0-.11.28.39.39,0,0,0,.11.27l4.11,4.12-4.11,4.11a.39.39,0,0,0-.11.27.43.43,0,0,0,.11.28l1,1a.43.43,0,0,0,.28.11.39.39,0,0,0,.27-.11l5.42-5.42Z"/>
      <path class="ab8b0d2e-c5dc-49cd-928a-3a98a11cdf65" d="M347.94,254.85v0s0,0,0-.06h0a.38.38,0,0,0,0-.15h0s0,0,0-.06v0l0-.05-.05-.06L342.45,249a.39.39,0,0,0-.55,0l-1,1a.43.43,0,0,0-.11.28.39.39,0,0,0,.11.27l4.12,4.12-4.12,4.11a.39.39,0,0,0-.11.27.43.43,0,0,0,.11.28l1,1a.39.39,0,0,0,.27.11.43.43,0,0,0,.28-.11l5.41-5.42.05-.06Z"/>
    </g>
  </g>
</svg>
