<svg id="a808e38b-2dce-4ade-a6f1-02b4db42f028" data-name="レイヤー 1" xmlns="http://www.w3.org/2000/svg" xmlns:xlink="http://www.w3.org/1999/xlink" viewBox="0 0 375 309">
  <defs>
    <style>
      .b35cd778-8b59-438b-9ff4-b090532bd29c {
        font-size: 24px;
        font-family: FutoGoB101Pr6N-Bold, FutoGoB101Pr6N Bold-83pv-RKSJ-H;
        font-weight: 700;
        letter-spacing: 0.1em;
      }

      .a30c727a-04d1-43f6-84a4-55ca29b6dfda {
        font-size: 14px;
        font-family: HiraKakuProN-W3-83pv-RKSJ-H, Hiragino Kaku Gothic ProN;
        letter-spacing: 0.1em;
      }

      .b66c4b7c-0a7a-417c-95e7-e3eff92342a1 {
        letter-spacing: -0.4em;
      }

      .bee11b83-4873-4bfe-8439-19bcec90df67 {
        letter-spacing: 0.35em;
      }

      .bfaa2d02-f98b-4a6a-920e-7d2b8ac1d099 {
        letter-spacing: 0.35em;
      }

      .bc03bacc-1b0d-4812-b9ad-9c184dda1f41 {
        letter-spacing: -0.4em;
      }

      .f090e1f9-1869-4523-9342-63d718ae9d4e {
        letter-spacing: -0.39em;
      }

      .b7eb5e7f-5ea3-4e20-a767-58d22cb1596a {
        letter-spacing: -0.39em;
      }

      .b2ed36a4-c50a-4563-85ac-92ae3cfa532d {
        letter-spacing: 0.1em;
      }

      .a0cc4ae9-36d2-4cb1-95e3-f9e38dc08a69, .b2980f70-b967-42e3-ba6b-1fd769eab590, .bfbed45c-ffd7-4381-aaaf-7759f15b0638 {
        fill-rule: evenodd;
      }

      .a0cc4ae9-36d2-4cb1-95e3-f9e38dc08a69 {
        fill: url(#a310899c-9f8f-4d7d-8fbd-98198336c9fb);
      }

      .bfbed45c-ffd7-4381-aaaf-7759f15b0638 {
        fill: #fff;
      }

      .b393ebe4-8795-4ad7-b0ad-8b3e8001e00b {
        fill: none;
      }

      .b2980f70-b967-42e3-ba6b-1fd769eab590 {
        fill: #009fde;
      }
    </style>
    <linearGradient id="a310899c-9f8f-4d7d-8fbd-98198336c9fb" data-name="名称未設定グラデーション 2" x1="-0.48" y1="-6512.29" x2="-0.48" y2="-6564.45" gradientTransform="matrix(1, 0, 0, -1, 0, -6297.28)" gradientUnits="userSpaceOnUse">
      <stop offset="0" stop-color="#00aced"/>
      <stop offset="0.21" stop-color="#0095da"/>
      <stop offset="0.52" stop-color="#007cc3"/>
      <stop offset="0.79" stop-color="#006cb6"/>
      <stop offset="1" stop-color="#0066b1"/>
    </linearGradient>
  </defs>
  <g id="ec4778bd-ab94-497d-b0b9-fdd7aba6312d" data-name="uMbnFm">
    <image id="f842a5a6-a148-42f5-8fca-770bb01dba66" data-name="uMbnFm" width="284" height="160" transform="translate(64.84 -117.77) scale(0.82)" xlink:href="VD_SP_for_worker1.png"/>
  </g>
  <text class="b35cd778-8b59-438b-9ff4-b090532bd29c" transform="translate(95.36 29.83)">領域・注力する<tspan x="0" y="42">ソリューション</tspan></text>
  <text class="a30c727a-04d1-43f6-84a4-55ca29b6dfda" transform="translate(20 112.98)">戦略コンサル、業務コンサル、SAP<tspan class="b66c4b7c-0a7a-417c-95e7-e3eff92342a1" x="248.93" y="0">、</tspan><tspan x="0" y="24.5">Dynamics、mcfram</tspan><tspan class="bee11b83-4873-4bfe-8439-19bcec90df67" x="156.11" y="24.5">e</tspan><tspan x="169.24" y="24.5">等</tspan><tspan class="bfaa2d02-f98b-4a6a-920e-7d2b8ac1d099" x="184.64" y="24.5">の</tspan><tspan x="203.54" y="24.5">ERP</tspan><tspan class="bc03bacc-1b0d-4812-b9ad-9c184dda1f41" x="236.18" y="24.5">、</tspan><tspan x="0" y="49">salesforce</tspan><tspan class="f090e1f9-1869-4523-9342-63d718ae9d4e" x="85.5" y="49">、</tspan><tspan x="94.07" y="49">インフラ</tspan><tspan class="f090e1f9-1869-4523-9342-63d718ae9d4e" x="155.67" y="49">、</tspan><tspan x="164.25" y="49">オープン系</tspan><tspan class="b7eb5e7f-5ea3-4e20-a767-58d22cb1596a" x="241.25" y="49">、</tspan><tspan x="249.82" y="49">汎用系</tspan><tspan class="f090e1f9-1869-4523-9342-63d718ae9d4e" x="296.02" y="49">、</tspan><tspan class="b2ed36a4-c50a-4563-85ac-92ae3cfa532d" x="304.6" y="49">デー</tspan><tspan x="0" y="73.5">タサイエンス関</tspan><tspan class="bfaa2d02-f98b-4a6a-920e-7d2b8ac1d099" x="107.8" y="73.5">係</tspan><tspan x="126.7" y="73.5">..</tspan><tspan class="bee11b83-4873-4bfe-8439-19bcec90df67" x="136.22" y="73.5">.</tspan><tspan x="144.48" y="73.5">など</tspan></text>
  <path class="a0cc4ae9-36d2-4cb1-95e3-f9e38dc08a69" d="M-53.21,267.18H.09L52.24,215H-53.21v52.17"/>
  <path class="bfbed45c-ffd7-4381-aaaf-7759f15b0638" d="M9.37,225.44H-1l0,24.5-9.06-24.5h-9l-7.74,20.46c-.82-5.21-6.2-7-10.44-8.35-2.8-.9-5.77-2.22-5.74-3.68,0-1.2,1.59-2.31,4.7-2.14a17,17,0,0,1,7.6,2.05l3.6-6.29a28.13,28.13,0,0,0-11.75-2.78h0c-4.42,0-8.1,1.44-10.38,3.79a8.74,8.74,0,0,0-2.48,6.06,8.14,8.14,0,0,0,3.56,7.25A24.34,24.34,0,0,0-41.11,245c2.88.89,5.23,1.66,5.21,3.32a2.47,2.47,0,0,1-.69,1.62A4.57,4.57,0,0,1-39.93,251c-2.94.06-5.12-.4-8.6-2.45l-3.2,6.36a22.31,22.31,0,0,0,11.33,3h.94a14.17,14.17,0,0,0,9-2.83c.14-.11.26-.22.38-.33l-.39,2,8.78,0,1.58-4a17.39,17.39,0,0,0,5.54.88,17.49,17.49,0,0,0,5.41-.83l1.1,4,15.77,0,0-9.2h3.35c8.11,0,12.9-4.13,12.9-11.05C24,228.8,19.29,225.44,9.37,225.44Zm-24,20.94a9.43,9.43,0,0,1-3.32-.58l3.29-10.38h.06l3.24,10.41a9.75,9.75,0,0,1-3.27.55Zm24.6-6H7.7v-8.37H10c3,0,5.49,1,5.49,4.13S13,240.42,10,240.42"/>
  <path class="b393ebe4-8795-4ad7-b0ad-8b3e8001e00b" d="M-53.21,215H53.44v52.17H-53.21Z"/>
  <g>
    <path class="b2980f70-b967-42e3-ba6b-1fd769eab590" d="M119.85,219.09a14.58,14.58,0,0,1,23.37,3.08,17.75,17.75,0,0,1,7.25-1.55,18.08,18.08,0,1,1-3.53,35.81,13.1,13.1,0,0,1-11.44,6.71,13,13,0,0,1-5.73-1.32,14.94,14.94,0,0,1-27.78-.67,14.45,14.45,0,0,1-2.86.29,14,14,0,0,1-6.93-26.16,16.14,16.14,0,0,1,27.65-16.19"/>
    <path class="bfbed45c-ffd7-4381-aaaf-7759f15b0638" d="M97.3,242.92l.34-.94c0-.16.17-.1.22-.07l.28.17a4,4,0,0,0,2.2.64c.74,0,1.2-.4,1.2-.93v0c0-.58-.71-.8-1.53-1.05l-.18-.06c-1.13-.32-2.33-.78-2.33-2.2v0a2.39,2.39,0,0,1,2.65-2.3h.17a4.88,4.88,0,0,1,2.45.66.16.16,0,0,1,.08.19l-.35.93c-.06.16-.23.06-.23.06a4.92,4.92,0,0,0-2.16-.56c-.66,0-1.09.35-1.09.83v0c0,.55.73.79,1.58,1.07l.14,0c1.12.36,2.32.85,2.32,2.2v0c0,1.46-1.06,2.36-2.77,2.36a5.06,5.06,0,0,1-2.48-.58c-.16-.09-.32-.17-.48-.28a.16.16,0,0,1,0-.19Zm25,0,.34-.94a.14.14,0,0,1,.22-.07c.1.05.16.1.28.17a4.05,4.05,0,0,0,2.2.64c.74,0,1.2-.4,1.2-.93v0c0-.58-.7-.8-1.52-1.05l-.19-.06c-1.12-.32-2.33-.78-2.33-2.2v0a2.4,2.4,0,0,1,2.66-2.3h.17a4.84,4.84,0,0,1,2.44.66.14.14,0,0,1,.08.19l-.34.93c-.06.16-.23.06-.23.06a5,5,0,0,0-2.17-.56c-.66,0-1.08.35-1.08.83v0c0,.55.73.79,1.57,1.07l.15,0c1.12.36,2.31.85,2.31,2.2v0c0,1.46-1.06,2.36-2.76,2.36a5.07,5.07,0,0,1-2.49-.58c-.16-.09-.31-.17-.47-.28A.15.15,0,0,1,122.26,242.92Zm18.47-4.39a5.68,5.68,0,0,1,0,3.06,3.39,3.39,0,0,1-.65,1.23,3,3,0,0,1-1.09.83,3.66,3.66,0,0,1-1.53.3,3.62,3.62,0,0,1-1.52-.3,3.08,3.08,0,0,1-1.1-.83,3.53,3.53,0,0,1-.64-1.23,5,5,0,0,1-.21-1.53,5.34,5.34,0,0,1,.21-1.53,3.4,3.4,0,0,1,.64-1.24,3.2,3.2,0,0,1,1.1-.83,3.58,3.58,0,0,1,1.52-.31,3.66,3.66,0,0,1,1.53.31,3.1,3.1,0,0,1,1.09.83A3.42,3.42,0,0,1,140.73,238.53Zm-1.42,1.53a3.48,3.48,0,0,0-.46-1.93,1.77,1.77,0,0,0-2.77,0,3.57,3.57,0,0,0-.45,1.93,3.62,3.62,0,0,0,.45,1.93,1.75,1.75,0,0,0,2.77,0A3.53,3.53,0,0,0,139.31,240.06Zm13.11,2.39.35,1a.14.14,0,0,1-.06.17,5.86,5.86,0,0,1-2,.36,3.6,3.6,0,0,1-2.82-1.06,4.13,4.13,0,0,1-.94-2.83,5,5,0,0,1,.23-1.53,3.75,3.75,0,0,1,.69-1.24,3.39,3.39,0,0,1,1.15-.83,3.91,3.91,0,0,1,1.58-.3,6.69,6.69,0,0,1,1.07.07,5.65,5.65,0,0,1,1,.24.12.12,0,0,1,.09.17c-.13.38-.22.62-.35,1,0,.15-.16.1-.16.1a4.7,4.7,0,0,0-1.51-.22,1.87,1.87,0,0,0-1.58.7,3,3,0,0,0-.54,1.87,2.67,2.67,0,0,0,.61,1.95,2.19,2.19,0,0,0,1.63.61,4.84,4.84,0,0,0,.78-.06,3.58,3.58,0,0,0,.66-.19A.14.14,0,0,1,152.42,242.45Zm7.28-4.19a5.29,5.29,0,0,1,.15,2.07.15.15,0,0,1-.14.13h-4.82a2.25,2.25,0,0,0,.56,1.6,2.3,2.3,0,0,0,1.65.56,4.57,4.57,0,0,0,2-.35.14.14,0,0,1,.18.08l.31.89c.07.14,0,.2,0,.23a5.18,5.18,0,0,1-2.43.48,4.76,4.76,0,0,1-1.74-.29,3.13,3.13,0,0,1-1.22-.8,3.24,3.24,0,0,1-.7-1.22,5.35,5.35,0,0,1-.21-1.54,5.41,5.41,0,0,1,.21-1.54,3.46,3.46,0,0,1,.65-1.25,3.2,3.2,0,0,1,1.11-.85,3.89,3.89,0,0,1,1.59-.31,3.46,3.46,0,0,1,1.38.28,2.92,2.92,0,0,1,.92.7,3,3,0,0,1,.61,1.13Zm-4.79,1h3.44a2.43,2.43,0,0,0-.32-1.14,1.5,1.5,0,0,0-1.35-.7,1.54,1.54,0,0,0-1.38.7,2.79,2.79,0,0,0-.39,1.14Zm-33.8-1a5.29,5.29,0,0,1,.15,2.07.15.15,0,0,1-.14.13H116.3a2.25,2.25,0,0,0,.56,1.6,2.3,2.3,0,0,0,1.65.56,4.57,4.57,0,0,0,2-.35.14.14,0,0,1,.18.08l.31.89c.06.14,0,.2,0,.23a5.22,5.22,0,0,1-2.43.48,4.86,4.86,0,0,1-1.75-.29,3.16,3.16,0,0,1-1.21-.8,3.24,3.24,0,0,1-.7-1.22,5,5,0,0,1-.21-1.54,5.41,5.41,0,0,1,.21-1.54,3.48,3.48,0,0,1,.65-1.25,3.2,3.2,0,0,1,1.11-.85,3.89,3.89,0,0,1,1.59-.31,3.66,3.66,0,0,1,1.38.28,2.92,2.92,0,0,1,.92.7A3,3,0,0,1,121.11,238.26Zm-4.79,1h3.44a2.55,2.55,0,0,0-.32-1.14,1.5,1.5,0,0,0-1.35-.7,1.53,1.53,0,0,0-1.38.7,2.79,2.79,0,0,0-.39,1.14Zm-8.5-.23s.38,0,.8.09v-.2c0-.65-.14-1-.4-1.15a1.92,1.92,0,0,0-1.19-.31,4.89,4.89,0,0,0-2.1.48l-.08,0a.12.12,0,0,1-.16-.07l-.34-.92a.15.15,0,0,1,0-.19,4.66,4.66,0,0,1,1.49-.54,7,7,0,0,1,1.29-.12,3.28,3.28,0,0,1,2.21.66,2.7,2.7,0,0,1,.77,2.13v4.41a.14.14,0,0,1-.11.15l-.34.09c-.16,0-.74.16-1.21.24A8.9,8.9,0,0,1,107,244a6.22,6.22,0,0,1-1.28-.13,2.69,2.69,0,0,1-1-.43,1.91,1.91,0,0,1-.63-.75,2.45,2.45,0,0,1-.22-1.1,2.33,2.33,0,0,1,.26-1.11,2.24,2.24,0,0,1,.7-.8,3,3,0,0,1,1-.46,4.68,4.68,0,0,1,1.19-.16q.45,0,.75,0Zm-1.92,3.38a2.21,2.21,0,0,0,1.42.28,9.73,9.73,0,0,0,1.3-.17v-2.19a10.21,10.21,0,0,0-1.31-.11,2.2,2.2,0,0,0-1.4.35,1,1,0,0,0-.43.93,1.13,1.13,0,0,0,.15.63A.92.92,0,0,0,105.9,242.42Zm40.79-5.87c-.05.13-.28.79-.37,1s-.08.14-.17.13a3,3,0,0,0-.53-.06,2.3,2.3,0,0,0-.65.09,1.39,1.39,0,0,0-.59.36,1.82,1.82,0,0,0-.43.71,4.39,4.39,0,0,0-.16,1.26v3.59a.14.14,0,0,1-.14.15h-1.27a.15.15,0,0,1-.14-.15h0v-7.18a.13.13,0,0,1,.14-.15h1.23a.14.14,0,0,1,.14.15V237a2.26,2.26,0,0,1,.81-.6,2.55,2.55,0,0,1,1.25-.2,4.26,4.26,0,0,1,.8.14.14.14,0,0,1,.08.17Zm-11.89-3.33s.13.06.09.17l-.37,1c0,.08-.05.12-.21.08a2,2,0,0,0-.64-.1,1.72,1.72,0,0,0-.52.07,1,1,0,0,0-.4.25,1.42,1.42,0,0,0-.34.52,7.31,7.31,0,0,0-.25,1.08h1.54c.13,0,.17.06.16.16l-.18,1a.17.17,0,0,1-.16.14h-1.59l-1.09,6.14a9.19,9.19,0,0,1-.42,1.62,3.27,3.27,0,0,1-.63,1.08,2.14,2.14,0,0,1-.89.62,3.53,3.53,0,0,1-1.18.18,3.09,3.09,0,0,1-.71-.06l-.44-.13a.15.15,0,0,1-.07-.2l.36-1a.13.13,0,0,1,.17-.08,1,1,0,0,0,.26.08,2.58,2.58,0,0,0,.39,0,1.61,1.61,0,0,0,.56-.08.83.83,0,0,0,.44-.34,2.15,2.15,0,0,0,.34-.68,6.68,6.68,0,0,0,.29-1.19l1.08-6h-1.06c-.13,0-.18-.06-.16-.16l.18-1a.17.17,0,0,1,.16-.14h1.09l.06-.32a4,4,0,0,1,1-2.19,2.74,2.74,0,0,1,2-.73,3.28,3.28,0,0,1,.66.05A3,3,0,0,1,134.8,233.22Zm-21.52,10.42a.15.15,0,0,1-.14.15h-1.28a.15.15,0,0,1-.14-.15V233.36a.15.15,0,0,1,.14-.15h1.28a.15.15,0,0,1,.14.15Z"/>
  </g>
  <image width="556" height="86" transform="translate(203.46 224.91) scale(0.48)" xlink:href="http://3.112.250.183/wp-content/uploads/2021/11/mcframe-logo.png"/>
</svg>
