<svg id="a0860242-787a-4f2b-b194-ca97d4c80e35" data-name="レイヤー 1" xmlns="http://www.w3.org/2000/svg" xmlns:xlink="http://www.w3.org/1999/xlink" viewBox="0 0 375 537">
  <defs>
    <style>
      .b5abf074-a06d-4327-9ae8-1f6be586e2aa, .e76081f5-966f-4cf0-9d71-99de52fc19ec {
        fill: none;
      }

      .fdebe95a-0820-4f64-ae3a-bc7c38127a21 {
        clip-path: url(#f45a5ff1-fdb1-4ae9-8bde-d4d30f064513);
      }

      .a881ead2-5295-4732-8040-22bb65490114 {
        font-size: 16px;
        letter-spacing: 0.1em;
      }

      .a881ead2-5295-4732-8040-22bb65490114, .bb4aa5e0-ce97-42ce-8c0e-66f0f830f6a9 {
        font-family: HiraKakuProN-W3-83pv-RKSJ-H, Hiragino Kaku Gothic ProN;
      }

      .ff700ff8-8753-48a3-8e0e-7f57dde4b872 {
        font-size: 12px;
        font-family: HiraginoSans-W6-83pv-RKSJ-H, Hiragino Sans;
        letter-spacing: 0.3em;
      }

      .a861d0a1-dbd5-46f5-a030-c94281ebd13d {
        fill: #fff;
      }

      .b5abf074-a06d-4327-9ae8-1f6be586e2aa {
        stroke: #000;
        stroke-miterlimit: 10;
      }

      .bb4aa5e0-ce97-42ce-8c0e-66f0f830f6a9 {
        font-size: 14px;
        letter-spacing: 0.1em;
      }

      .b0be5ec6-59a1-4ec0-839a-4150b0e1b9b0 {
        letter-spacing: 0.35em;
      }

      .b89c2c58-b9a6-49b7-be55-a6c8a7f1dbaf {
        letter-spacing: 0.1em;
      }

      .bc81bc99-0f54-4208-9c1a-1311aceb4774 {
        letter-spacing: -0.4em;
      }
    </style>
    <clipPath id="f45a5ff1-fdb1-4ae9-8bde-d4d30f064513">
      <rect class="e76081f5-966f-4cf0-9d71-99de52fc19ec" x="25.99" y="23.28" width="315.01" height="315.01" rx="7.69"/>
    </clipPath>
  </defs>
  <g class="fdebe95a-0820-4f64-ae3a-bc7c38127a21">
    <image width="1980" height="850" transform="translate(-86.18 7.79) scale(0.39)" xlink:href="http://3.112.250.183/wp-content/uploads/2021/11/pixta_76898798_XL.jpg"/>
  </g>
  <text class="a881ead2-5295-4732-8040-22bb65490114" transform="translate(24.2 392.56)">教育サービス</text>
  <g><a href="../education_sp/">
    <text class="ff700ff8-8753-48a3-8e0e-7f57dde4b872" transform="translate(67.4 517)">教育サービス</text>
    <line class="b5abf074-a06d-4327-9ae8-1f6be586e2aa" x1="65.51" y1="524.61" x2="157" y2="524.61"/>
    <circle cx="39.12" cy="512.19" r="13.51"/>
    <g>
      <path class="a861d0a1-dbd5-46f5-a030-c94281ebd13d" d="M40.37,512.41l0,0h0s0,0,0-.06v0a.38.38,0,0,0,0-.15h0l0-.06v0l0,0,0-.06-5.41-5.42a.39.39,0,0,0-.55,0l-1,1a.39.39,0,0,0-.11.27.43.43,0,0,0,.11.28l4.11,4.11-4.11,4.11a.39.39,0,0,0-.11.27.39.39,0,0,0,.11.28l1,1a.35.35,0,0,0,.27.11.38.38,0,0,0,.28-.11l5.41-5.42Z"/>
      <path class="a861d0a1-dbd5-46f5-a030-c94281ebd13d" d="M46.37,512.36h0s0,0,0-.06v0a.38.38,0,0,0,0-.15h0s0,0,0-.06v0s0,0,0,0l-.05-.06-5.42-5.42a.39.39,0,0,0-.55,0l-1,1a.36.36,0,0,0-.12.27.39.39,0,0,0,.12.28l4.11,4.11-4.11,4.11a.36.36,0,0,0-.12.27.36.36,0,0,0,.12.28l1,1a.35.35,0,0,0,.27.11.38.38,0,0,0,.28-.11l5.42-5.42.05-.06S46.36,512.38,46.37,512.36Z"/>
    </g>
  </a></g>
  <text class="bb4aa5e0-ce97-42ce-8c0e-66f0f830f6a9" transform="translate(26.14 434.2)">小中高・大学・社会人と幅広い各年代に応じ<tspan x="0" y="24.5">て</tspan><tspan class="b0be5ec6-59a1-4ec0-839a-4150b0e1b9b0" x="15.4" y="24.5">た</tspan><tspan class="b89c2c58-b9a6-49b7-be55-a6c8a7f1dbaf" x="34.3" y="24.5">I</tspan><tspan class="b0be5ec6-59a1-4ec0-839a-4150b0e1b9b0" x="39.19" y="24.5">T</tspan><tspan x="53.17" y="24.5">の学びを教育を通して向き合ってい</tspan><tspan x="0" y="49">ます</tspan><tspan class="bc81bc99-0f54-4208-9c1a-1311aceb4774" x="30.8" y="49">。</tspan></text>
</svg>
