<svg id="faf05089-1f04-4e0c-80a0-e26e1ad2b08b" data-name="レイヤー 1" xmlns="http://www.w3.org/2000/svg" xmlns:xlink="http://www.w3.org/1999/xlink" viewBox="0 0 375 243">
  <defs>
    <style>
      .aaaa5d19-99e6-4b64-9ea4-16ff13308bd9, .e2bfcee7-9335-4cec-bdc9-bf8cd6dd21fd, .e82dc944-62ad-438a-8c2e-7df221ba6c08, .f0d18e9c-3649-414b-b61a-fb8431077446 {
        fill: none;
      }

      .bd835659-2db2-4906-a534-bc2ff7d50062 {
        clip-path: url(#f7d20de2-a26e-4e7c-9b38-b0869b66c495);
      }

      .bf45ebd0-37f2-4419-8a16-d4d228e34cc9 {
        font-size: 13px;
        font-family: HiraKakuProN-W6-83pv-RKSJ-H, Hiragino Kaku Gothic ProN;
        letter-spacing: 0.1em;
      }

      .e09fca6e-deaf-414b-9812-961a3e59ba78 {
        font-size: 12px;
        font-family: HiraKakuProN-W3-83pv-RKSJ-H, Hiragino Kaku Gothic ProN;
        letter-spacing: 0.1em;
      }

      .aa0399cb-7116-4ed7-85a2-d8458396c3c1 {
        letter-spacing: 0.35em;
      }

      .e2bfcee7-9335-4cec-bdc9-bf8cd6dd21fd, .f0d18e9c-3649-414b-b61a-fb8431077446 {
        stroke: #000;
      }

      .aaaa5d19-99e6-4b64-9ea4-16ff13308bd9, .e2bfcee7-9335-4cec-bdc9-bf8cd6dd21fd, .f0d18e9c-3649-414b-b61a-fb8431077446 {
        stroke-miterlimit: 10;
      }

      .f0d18e9c-3649-414b-b61a-fb8431077446 {
        stroke-width: 1.7px;
      }

      .b1e6dfe7-b31c-4fd0-83c9-0020a955150c, .bc467e8e-457f-4b7c-9d36-8343336d1009 {
        fill: #fff;
      }

      .aaaa5d19-99e6-4b64-9ea4-16ff13308bd9 {
        stroke: #e3e3e3;
        stroke-width: 2px;
      }

      .e2bfcee7-9335-4cec-bdc9-bf8cd6dd21fd {
        stroke-width: 1.45px;
      }

      .a865a9aa-f267-471c-a1f4-6de464b110ba {
        letter-spacing: 0.35em;
      }

      .f8bcceb1-d2b4-4520-bcf8-b845e891519f {
        letter-spacing: 0.1em;
      }

      .fd2ef01f-a419-44c7-beb6-d48d6ed68db1 {
        fill: #83ccd2;
      }

      .b1e6dfe7-b31c-4fd0-83c9-0020a955150c {
        font-size: 14px;
        font-family: HiraginoSans-W6-83pv-RKSJ-H, Hiragino Sans;
        letter-spacing: 0.3em;
      }
    </style>
    <clipPath id="f7d20de2-a26e-4e7c-9b38-b0869b66c495">
      <rect class="e82dc944-62ad-438a-8c2e-7df221ba6c08" x="-205.63" y="-331.03" width="910.63" height="288.31"/>
    </clipPath>
  </defs>
  <g class="bd835659-2db2-4906-a534-bc2ff7d50062">
    <image width="1980" height="1123" transform="translate(-230.1 -522.88) scale(0.48)" xlink:href="http://3.112.250.183/wp-content/uploads/2021/11/pixta_55338341_XL.jpg"/>
  </g>
  <text class="bf45ebd0-37f2-4419-8a16-d4d228e34cc9" transform="translate(20.6 34.94)">フリーワード<tspan x="0" y="22.75">検索</tspan></text>
  <text class="bf45ebd0-37f2-4419-8a16-d4d228e34cc9" transform="translate(22.1 106.44)">報酬</text>
  <text class="e09fca6e-deaf-414b-9812-961a3e59ba78" transform="translate(149.1 105.44)">6<tspan class="aa0399cb-7116-4ed7-85a2-d8458396c3c1" x="9.08" y="0">0</tspan><tspan x="21.17" y="0">万円〜</tspan></text>
  <rect class="f0d18e9c-3649-414b-b61a-fb8431077446" x="124.49" y="27.74" width="224.56" height="29.52" rx="3.22"/>
  <path d="M346.5,58H316.11c.48,0,.48-31,0-31H346.5a3.34,3.34,0,0,1,3.29,3.38V54.62A3.34,3.34,0,0,1,346.5,58Z"/>
  <path class="bc467e8e-457f-4b7c-9d36-8343336d1009" d="M340,48.24l-2.65-2.66A6.1,6.1,0,1,0,336,46.92l2.66,2.65ZM329.48,45a4.17,4.17,0,1,1,5.9,0A4.26,4.26,0,0,1,329.48,45Z"/>
  <line class="aaaa5d19-99e6-4b64-9ea4-16ff13308bd9" x1="17.49" y1="72" x2="354" y2="72"/>
  <circle class="e2bfcee7-9335-4cec-bdc9-bf8cd6dd21fd" cx="132.99" cy="99.5" r="8"/>
  <circle class="e2bfcee7-9335-4cec-bdc9-bf8cd6dd21fd" cx="236.5" cy="99.5" r="8"/>
  <circle class="e2bfcee7-9335-4cec-bdc9-bf8cd6dd21fd" cx="132.5" cy="125.5" r="8"/>
  <circle class="e2bfcee7-9335-4cec-bdc9-bf8cd6dd21fd" cx="241.5" cy="125.5" r="8"/>
  <text class="e09fca6e-deaf-414b-9812-961a3e59ba78" transform="translate(251.6 105.94)">8<tspan class="aa0399cb-7116-4ed7-85a2-d8458396c3c1" x="9.08" y="0">0</tspan><tspan x="21.17" y="0">万円〜</tspan></text>
  <text class="e09fca6e-deaf-414b-9812-961a3e59ba78" transform="translate(145.6 131.94)">10<tspan class="a865a9aa-f267-471c-a1f4-6de464b110ba" x="18.17" y="0">0</tspan><tspan class="f8bcceb1-d2b4-4520-bcf8-b845e891519f" x="30.25" y="0">万円〜</tspan></text>
  <text class="e09fca6e-deaf-414b-9812-961a3e59ba78" transform="translate(254.6 131.94)">12<tspan class="a865a9aa-f267-471c-a1f4-6de464b110ba" x="18.17" y="0">0</tspan><tspan class="f8bcceb1-d2b4-4520-bcf8-b845e891519f" x="30.25" y="0">万円〜</tspan></text>
  <g>
    <rect class="fd2ef01f-a419-44c7-beb6-d48d6ed68db1" x="23.5" y="154.37" width="328" height="60" rx="30"/>
    <g>
      <circle class="fd2ef01f-a419-44c7-beb6-d48d6ed68db1" cx="313.91" cy="186.78" r="13.51"/>
      <g>
        <path class="bc467e8e-457f-4b7c-9d36-8343336d1009" d="M315.16,187l0-.05v0s0,0,0-.06h0a.38.38,0,0,0,0-.15v0s0,0,0-.06h0l0-.05-.05-.06-5.42-5.42a.39.39,0,0,0-.55,0l-1,1a.39.39,0,0,0-.11.28.39.39,0,0,0,.11.27l4.11,4.11-4.11,4.11a.43.43,0,0,0-.11.28.39.39,0,0,0,.11.27l1,1a.43.43,0,0,0,.28.11.39.39,0,0,0,.27-.11l5.42-5.42Z"/>
        <path class="bc467e8e-457f-4b7c-9d36-8343336d1009" d="M321.16,187v0s0,0,0-.06h0a.38.38,0,0,0,0-.15v0l0-.06h0l0-.05-.05-.06-5.41-5.42a.4.4,0,0,0-.56,0l-1,1a.39.39,0,0,0-.11.28.39.39,0,0,0,.11.27l4.11,4.11-4.11,4.11a.43.43,0,0,0-.11.28.39.39,0,0,0,.11.27l1,1a.41.41,0,0,0,.56,0l5.41-5.42.05-.06Z"/>
      </g>
    </g>
    <text class="b1e6dfe7-b31c-4fd0-83c9-0020a955150c" transform="translate(105.41 192.64)">指定条件で検索する</text>
  </g>
</svg>
