<svg id="f22cebdf-05a0-467f-a66f-fbf03c94dbfb" data-name="レイヤー 1" xmlns="http://www.w3.org/2000/svg" viewBox="0 0 375 1066">
  <defs>
    <style>
      .b72502ac-9f35-4e92-911e-c1025abe7f0e {
        font-size: 24px;
        font-family: FutoGoB101Pr6N-Bold, FutoGoB101Pr6N Bold-83pv-RKSJ-H;
        font-weight: 700;
        letter-spacing: 0.1em;
      }

      .a25f1197-975b-41e3-b09e-9ef952ce1c0a, .b4c81da9-0bc5-4a0c-a65d-378540dbff88 {
        fill: #e3e3e3;
        stroke: #b0b0b0;
        stroke-miterlimit: 10;
      }

      .b4c81da9-0bc5-4a0c-a65d-378540dbff88 {
        stroke-width: 0.84px;
      }

      .ab87f363-ce7b-4f49-b325-75105ac50a06 {
        font-size: 16px;
        font-family: HiraKakuProN-W6-83pv-RKSJ-H, Hiragino Kaku Gothic ProN;
        letter-spacing: 0.1em;
      }

      .afd40cec-489a-4a9b-9c17-fd2c47ae5bfe {
        font-size: 14px;
        font-family: HiraKakuProN-W3-83pv-RKSJ-H, Hiragino Kaku Gothic ProN;
        letter-spacing: 0.1em;
      }

      .ae9d192d-9f55-45d6-abc6-e3d58615a112 {
        letter-spacing: -0.4em;
      }

      .b6cc7fa8-bbcb-425e-9375-9874992e303b {
        fill: #83ccd2;
      }

      .a25f1197-975b-41e3-b09e-9ef952ce1c0a {
        stroke-width: 1.21px;
      }
    </style>
  </defs>
  <text class="b72502ac-9f35-4e92-911e-c1025abe7f0e" transform="translate(134.7 86.82)">対応範囲</text>
  <rect class="b4c81da9-0bc5-4a0c-a65d-378540dbff88" x="165.5" y="113.5" width="50" height="300" rx="4.21" transform="translate(454 73) rotate(90)"/>
  <text class="ab87f363-ce7b-4f49-b325-75105ac50a06" transform="translate(111.3 269.84)">システム化の方向性</text>
  <text class="afd40cec-489a-4a9b-9c17-fd2c47ae5bfe" transform="translate(30.77 157.98)">プロジェクトマネージメント、構想策定、要件<tspan x="0" y="24.5">定義、システム設計開発、テスト、運用保守と</tspan><tspan x="0" y="49">幅広くお任せください</tspan><tspan class="ae9d192d-9f55-45d6-abc6-e3d58615a112" x="154" y="49">。</tspan></text>
  <g>
    <path class="b6cc7fa8-bbcb-425e-9375-9874992e303b" d="M205.41,300.2a2.08,2.08,0,1,0-2.08,2.07A2.08,2.08,0,0,0,205.41,300.2Z"/>
    <path class="b6cc7fa8-bbcb-425e-9375-9874992e303b" d="M199,300.2a2.08,2.08,0,1,0-2.07,2.07A2.08,2.08,0,0,0,199,300.2Z"/>
    <path class="b6cc7fa8-bbcb-425e-9375-9874992e303b" d="M192.57,300.2a2.07,2.07,0,1,0-2.07,2.07A2.08,2.08,0,0,0,192.57,300.2Z"/>
    <path class="b6cc7fa8-bbcb-425e-9375-9874992e303b" d="M186.16,300.2a2.08,2.08,0,1,0-2.08,2.07A2.08,2.08,0,0,0,186.16,300.2Z"/>
    <path class="b6cc7fa8-bbcb-425e-9375-9874992e303b" d="M179.74,300.2a2.08,2.08,0,1,0-2.07,2.07A2.08,2.08,0,0,0,179.74,300.2Z"/>
    <path class="b6cc7fa8-bbcb-425e-9375-9874992e303b" d="M199,306.85a2.08,2.08,0,1,0-2.07,2.08A2.07,2.07,0,0,0,199,306.85Z"/>
    <path class="b6cc7fa8-bbcb-425e-9375-9874992e303b" d="M192.57,306.85a2.07,2.07,0,1,0-2.07,2.08A2.07,2.07,0,0,0,192.57,306.85Z"/>
    <path class="b6cc7fa8-bbcb-425e-9375-9874992e303b" d="M186.16,306.85a2.08,2.08,0,1,0-2.08,2.08A2.08,2.08,0,0,0,186.16,306.85Z"/>
    <path class="b6cc7fa8-bbcb-425e-9375-9874992e303b" d="M192.57,313.43a2.07,2.07,0,1,0-2.07,2.07A2.08,2.08,0,0,0,192.57,313.43Z"/>
  </g>
  <rect class="b4c81da9-0bc5-4a0c-a65d-378540dbff88" x="165.5" y="200.5" width="50" height="300" rx="4.21" transform="translate(541 160) rotate(90)"/>
  <text class="ab87f363-ce7b-4f49-b325-75105ac50a06" transform="translate(130.3 356.84)">システム化計画</text>
  <g>
    <path class="b6cc7fa8-bbcb-425e-9375-9874992e303b" d="M205.41,387.2a2.08,2.08,0,1,0-2.08,2.07A2.08,2.08,0,0,0,205.41,387.2Z"/>
    <path class="b6cc7fa8-bbcb-425e-9375-9874992e303b" d="M199,387.2a2.08,2.08,0,1,0-2.07,2.07A2.08,2.08,0,0,0,199,387.2Z"/>
    <path class="b6cc7fa8-bbcb-425e-9375-9874992e303b" d="M192.57,387.2a2.07,2.07,0,1,0-2.07,2.07A2.08,2.08,0,0,0,192.57,387.2Z"/>
    <path class="b6cc7fa8-bbcb-425e-9375-9874992e303b" d="M186.16,387.2a2.08,2.08,0,1,0-2.08,2.07A2.08,2.08,0,0,0,186.16,387.2Z"/>
    <path class="b6cc7fa8-bbcb-425e-9375-9874992e303b" d="M179.74,387.2a2.08,2.08,0,1,0-2.07,2.07A2.08,2.08,0,0,0,179.74,387.2Z"/>
    <path class="b6cc7fa8-bbcb-425e-9375-9874992e303b" d="M199,393.85a2.08,2.08,0,1,0-2.07,2.08A2.07,2.07,0,0,0,199,393.85Z"/>
    <path class="b6cc7fa8-bbcb-425e-9375-9874992e303b" d="M192.57,393.85a2.07,2.07,0,1,0-2.07,2.08A2.07,2.07,0,0,0,192.57,393.85Z"/>
    <path class="b6cc7fa8-bbcb-425e-9375-9874992e303b" d="M186.16,393.85a2.08,2.08,0,1,0-2.08,2.08A2.08,2.08,0,0,0,186.16,393.85Z"/>
    <path class="b6cc7fa8-bbcb-425e-9375-9874992e303b" d="M192.57,400.43a2.07,2.07,0,1,0-2.07,2.07A2.08,2.08,0,0,0,192.57,400.43Z"/>
  </g>
  <rect class="b4c81da9-0bc5-4a0c-a65d-378540dbff88" x="165.5" y="286.5" width="50" height="300" rx="4.21" transform="translate(627 246) rotate(90)"/>
  <text class="ab87f363-ce7b-4f49-b325-75105ac50a06" transform="translate(155.3 442.84)">要件定義</text>
  <g>
    <path class="b6cc7fa8-bbcb-425e-9375-9874992e303b" d="M205.41,473.2a2.08,2.08,0,1,0-2.08,2.07A2.08,2.08,0,0,0,205.41,473.2Z"/>
    <path class="b6cc7fa8-bbcb-425e-9375-9874992e303b" d="M199,473.2a2.08,2.08,0,1,0-2.07,2.07A2.08,2.08,0,0,0,199,473.2Z"/>
    <path class="b6cc7fa8-bbcb-425e-9375-9874992e303b" d="M192.57,473.2a2.07,2.07,0,1,0-2.07,2.07A2.08,2.08,0,0,0,192.57,473.2Z"/>
    <path class="b6cc7fa8-bbcb-425e-9375-9874992e303b" d="M186.16,473.2a2.08,2.08,0,1,0-2.08,2.07A2.08,2.08,0,0,0,186.16,473.2Z"/>
    <path class="b6cc7fa8-bbcb-425e-9375-9874992e303b" d="M179.74,473.2a2.08,2.08,0,1,0-2.07,2.07A2.08,2.08,0,0,0,179.74,473.2Z"/>
    <path class="b6cc7fa8-bbcb-425e-9375-9874992e303b" d="M199,479.85a2.08,2.08,0,1,0-2.07,2.08A2.07,2.07,0,0,0,199,479.85Z"/>
    <path class="b6cc7fa8-bbcb-425e-9375-9874992e303b" d="M192.57,479.85a2.07,2.07,0,1,0-2.07,2.08A2.07,2.07,0,0,0,192.57,479.85Z"/>
    <path class="b6cc7fa8-bbcb-425e-9375-9874992e303b" d="M186.16,479.85a2.08,2.08,0,1,0-2.08,2.08A2.08,2.08,0,0,0,186.16,479.85Z"/>
    <path class="b6cc7fa8-bbcb-425e-9375-9874992e303b" d="M192.57,486.43a2.07,2.07,0,1,0-2.07,2.07A2.08,2.08,0,0,0,192.57,486.43Z"/>
  </g>
  <rect class="b4c81da9-0bc5-4a0c-a65d-378540dbff88" x="165.5" y="372.5" width="50" height="300" rx="4.21" transform="translate(713 332) rotate(90)"/>
  <text class="ab87f363-ce7b-4f49-b325-75105ac50a06" transform="translate(136.3 528.84)">システム設計</text>
  <g>
    <path class="b6cc7fa8-bbcb-425e-9375-9874992e303b" d="M205.41,559.2a2.08,2.08,0,1,0-2.08,2.07A2.08,2.08,0,0,0,205.41,559.2Z"/>
    <path class="b6cc7fa8-bbcb-425e-9375-9874992e303b" d="M199,559.2a2.08,2.08,0,1,0-2.07,2.07A2.08,2.08,0,0,0,199,559.2Z"/>
    <path class="b6cc7fa8-bbcb-425e-9375-9874992e303b" d="M192.57,559.2a2.07,2.07,0,1,0-2.07,2.07A2.08,2.08,0,0,0,192.57,559.2Z"/>
    <path class="b6cc7fa8-bbcb-425e-9375-9874992e303b" d="M186.16,559.2a2.08,2.08,0,1,0-2.08,2.07A2.08,2.08,0,0,0,186.16,559.2Z"/>
    <path class="b6cc7fa8-bbcb-425e-9375-9874992e303b" d="M179.74,559.2a2.08,2.08,0,1,0-2.07,2.07A2.08,2.08,0,0,0,179.74,559.2Z"/>
    <path class="b6cc7fa8-bbcb-425e-9375-9874992e303b" d="M199,565.85a2.08,2.08,0,1,0-2.07,2.08A2.07,2.07,0,0,0,199,565.85Z"/>
    <path class="b6cc7fa8-bbcb-425e-9375-9874992e303b" d="M192.57,565.85a2.07,2.07,0,1,0-2.07,2.08A2.07,2.07,0,0,0,192.57,565.85Z"/>
    <path class="b6cc7fa8-bbcb-425e-9375-9874992e303b" d="M186.16,565.85a2.08,2.08,0,1,0-2.08,2.08A2.08,2.08,0,0,0,186.16,565.85Z"/>
    <path class="b6cc7fa8-bbcb-425e-9375-9874992e303b" d="M192.57,572.43a2.07,2.07,0,1,0-2.07,2.07A2.08,2.08,0,0,0,192.57,572.43Z"/>
  </g>
  <rect class="b4c81da9-0bc5-4a0c-a65d-378540dbff88" x="165.5" y="601.5" width="50" height="300" rx="4.21" transform="translate(942 561) rotate(90)"/>
  <text class="ab87f363-ce7b-4f49-b325-75105ac50a06" transform="translate(128.3 757.84)">システムテスト</text>
  <g>
    <path class="b6cc7fa8-bbcb-425e-9375-9874992e303b" d="M205.41,788.2a2.08,2.08,0,1,0-2.08,2.07A2.08,2.08,0,0,0,205.41,788.2Z"/>
    <path class="b6cc7fa8-bbcb-425e-9375-9874992e303b" d="M199,788.2a2.08,2.08,0,1,0-2.07,2.07A2.08,2.08,0,0,0,199,788.2Z"/>
    <path class="b6cc7fa8-bbcb-425e-9375-9874992e303b" d="M192.57,788.2a2.07,2.07,0,1,0-2.07,2.07A2.08,2.08,0,0,0,192.57,788.2Z"/>
    <path class="b6cc7fa8-bbcb-425e-9375-9874992e303b" d="M186.16,788.2a2.08,2.08,0,1,0-2.08,2.07A2.08,2.08,0,0,0,186.16,788.2Z"/>
    <path class="b6cc7fa8-bbcb-425e-9375-9874992e303b" d="M179.74,788.2a2.08,2.08,0,1,0-2.07,2.07A2.08,2.08,0,0,0,179.74,788.2Z"/>
    <path class="b6cc7fa8-bbcb-425e-9375-9874992e303b" d="M199,794.85a2.08,2.08,0,1,0-2.07,2.08A2.07,2.07,0,0,0,199,794.85Z"/>
    <path class="b6cc7fa8-bbcb-425e-9375-9874992e303b" d="M192.57,794.85a2.07,2.07,0,1,0-2.07,2.08A2.07,2.07,0,0,0,192.57,794.85Z"/>
    <path class="b6cc7fa8-bbcb-425e-9375-9874992e303b" d="M186.16,794.85a2.08,2.08,0,1,0-2.08,2.08A2.08,2.08,0,0,0,186.16,794.85Z"/>
    <path class="b6cc7fa8-bbcb-425e-9375-9874992e303b" d="M192.57,801.43a2.07,2.07,0,1,0-2.07,2.07A2.08,2.08,0,0,0,192.57,801.43Z"/>
  </g>
  <rect class="b4c81da9-0bc5-4a0c-a65d-378540dbff88" x="165.5" y="688.5" width="50" height="300" rx="4.21" transform="translate(1029 648) rotate(90)"/>
  <text class="ab87f363-ce7b-4f49-b325-75105ac50a06" transform="translate(148.3 844.84)">運用テスト</text>
  <g>
    <path class="b6cc7fa8-bbcb-425e-9375-9874992e303b" d="M205.41,875.2a2.08,2.08,0,1,0-2.08,2.07A2.08,2.08,0,0,0,205.41,875.2Z"/>
    <path class="b6cc7fa8-bbcb-425e-9375-9874992e303b" d="M199,875.2a2.08,2.08,0,1,0-2.07,2.07A2.08,2.08,0,0,0,199,875.2Z"/>
    <path class="b6cc7fa8-bbcb-425e-9375-9874992e303b" d="M192.57,875.2a2.07,2.07,0,1,0-2.07,2.07A2.08,2.08,0,0,0,192.57,875.2Z"/>
    <path class="b6cc7fa8-bbcb-425e-9375-9874992e303b" d="M186.16,875.2a2.08,2.08,0,1,0-2.08,2.07A2.08,2.08,0,0,0,186.16,875.2Z"/>
    <path class="b6cc7fa8-bbcb-425e-9375-9874992e303b" d="M179.74,875.2a2.08,2.08,0,1,0-2.07,2.07A2.08,2.08,0,0,0,179.74,875.2Z"/>
    <path class="b6cc7fa8-bbcb-425e-9375-9874992e303b" d="M199,881.85a2.08,2.08,0,1,0-2.07,2.08A2.07,2.07,0,0,0,199,881.85Z"/>
    <path class="b6cc7fa8-bbcb-425e-9375-9874992e303b" d="M192.57,881.85a2.07,2.07,0,1,0-2.07,2.08A2.07,2.07,0,0,0,192.57,881.85Z"/>
    <path class="b6cc7fa8-bbcb-425e-9375-9874992e303b" d="M186.16,881.85a2.08,2.08,0,1,0-2.08,2.08A2.08,2.08,0,0,0,186.16,881.85Z"/>
    <path class="b6cc7fa8-bbcb-425e-9375-9874992e303b" d="M192.57,888.43a2.07,2.07,0,1,0-2.07,2.07A2.08,2.08,0,0,0,192.57,888.43Z"/>
  </g>
  <rect class="b4c81da9-0bc5-4a0c-a65d-378540dbff88" x="165.5" y="776.5" width="50" height="300" rx="4.21" transform="translate(1117 736) rotate(90)"/>
  <text class="ab87f363-ce7b-4f49-b325-75105ac50a06" transform="translate(173.3 932.84)">運用</text>
  <g>
    <path class="b6cc7fa8-bbcb-425e-9375-9874992e303b" d="M205.41,963.2a2.08,2.08,0,1,0-2.08,2.07A2.08,2.08,0,0,0,205.41,963.2Z"/>
    <path class="b6cc7fa8-bbcb-425e-9375-9874992e303b" d="M199,963.2a2.08,2.08,0,1,0-2.07,2.07A2.08,2.08,0,0,0,199,963.2Z"/>
    <path class="b6cc7fa8-bbcb-425e-9375-9874992e303b" d="M192.57,963.2a2.07,2.07,0,1,0-2.07,2.07A2.08,2.08,0,0,0,192.57,963.2Z"/>
    <path class="b6cc7fa8-bbcb-425e-9375-9874992e303b" d="M186.16,963.2a2.08,2.08,0,1,0-2.08,2.07A2.08,2.08,0,0,0,186.16,963.2Z"/>
    <path class="b6cc7fa8-bbcb-425e-9375-9874992e303b" d="M179.74,963.2a2.08,2.08,0,1,0-2.07,2.07A2.08,2.08,0,0,0,179.74,963.2Z"/>
    <path class="b6cc7fa8-bbcb-425e-9375-9874992e303b" d="M199,969.85a2.08,2.08,0,1,0-2.07,2.08A2.07,2.07,0,0,0,199,969.85Z"/>
    <path class="b6cc7fa8-bbcb-425e-9375-9874992e303b" d="M192.57,969.85a2.07,2.07,0,1,0-2.07,2.08A2.07,2.07,0,0,0,192.57,969.85Z"/>
    <path class="b6cc7fa8-bbcb-425e-9375-9874992e303b" d="M186.16,969.85a2.08,2.08,0,1,0-2.08,2.08A2.08,2.08,0,0,0,186.16,969.85Z"/>
    <path class="b6cc7fa8-bbcb-425e-9375-9874992e303b" d="M192.57,976.43a2.07,2.07,0,1,0-2.07,2.07A2.08,2.08,0,0,0,192.57,976.43Z"/>
  </g>
  <rect class="b4c81da9-0bc5-4a0c-a65d-378540dbff88" x="165.5" y="865.5" width="50" height="300" rx="4.21" transform="translate(1206 825) rotate(90)"/>
  <text class="ab87f363-ce7b-4f49-b325-75105ac50a06" transform="translate(173.3 1021.84)">保守</text>
  <rect class="a25f1197-975b-41e3-b09e-9ef952ce1c0a" x="138.5" y="485.5" width="104" height="300" rx="6.07" transform="translate(826 445) rotate(90)"/>
  <text class="ab87f363-ce7b-4f49-b325-75105ac50a06" transform="translate(112.9 614.84)">ソフトウェアテスト<tspan x="17.6" y="28">プログラミング</tspan><tspan x="8.8" y="56">ソフトウェア設計</tspan></text>
  <g>
    <path class="b6cc7fa8-bbcb-425e-9375-9874992e303b" d="M205.41,700.2a2.08,2.08,0,1,0-2.08,2.07A2.08,2.08,0,0,0,205.41,700.2Z"/>
    <path class="b6cc7fa8-bbcb-425e-9375-9874992e303b" d="M199,700.2a2.08,2.08,0,1,0-2.07,2.07A2.08,2.08,0,0,0,199,700.2Z"/>
    <path class="b6cc7fa8-bbcb-425e-9375-9874992e303b" d="M192.57,700.2a2.07,2.07,0,1,0-2.07,2.07A2.08,2.08,0,0,0,192.57,700.2Z"/>
    <path class="b6cc7fa8-bbcb-425e-9375-9874992e303b" d="M186.16,700.2a2.08,2.08,0,1,0-2.08,2.07A2.08,2.08,0,0,0,186.16,700.2Z"/>
    <path class="b6cc7fa8-bbcb-425e-9375-9874992e303b" d="M179.74,700.2a2.08,2.08,0,1,0-2.07,2.07A2.08,2.08,0,0,0,179.74,700.2Z"/>
    <path class="b6cc7fa8-bbcb-425e-9375-9874992e303b" d="M199,706.85a2.08,2.08,0,1,0-2.07,2.08A2.07,2.07,0,0,0,199,706.85Z"/>
    <path class="b6cc7fa8-bbcb-425e-9375-9874992e303b" d="M192.57,706.85a2.07,2.07,0,1,0-2.07,2.08A2.07,2.07,0,0,0,192.57,706.85Z"/>
    <path class="b6cc7fa8-bbcb-425e-9375-9874992e303b" d="M186.16,706.85a2.08,2.08,0,1,0-2.08,2.08A2.08,2.08,0,0,0,186.16,706.85Z"/>
    <path class="b6cc7fa8-bbcb-425e-9375-9874992e303b" d="M192.57,713.43a2.07,2.07,0,1,0-2.07,2.07A2.08,2.08,0,0,0,192.57,713.43Z"/>
  </g>
</svg>
