<svg id="afab93e5-39b2-46a6-991f-b764cc5b17d0" data-name="レイヤー 1" xmlns="http://www.w3.org/2000/svg" viewBox="0 0 375 555">
  <defs>
    <style>
      .a5eb05dc-7af2-4ccf-b104-ea4a46b377c2 {
        fill: #fff;
      }

      .a5b1debc-e87f-4eae-98f7-02e20c7421ac {
        font-size: 26px;
        font-family: A1MinchoStd-Bold-83pv-RKSJ-H, A-OTF A1 Mincho Std;
        letter-spacing: 0.2em;
      }

      .a1854233-feb9-4117-896f-2054d8301472 {
        font-size: 14px;
        font-family: HiraKakuProN-W3-83pv-RKSJ-H, Hiragino Kaku Gothic ProN;
      }

      .a1854233-feb9-4117-896f-2054d8301472, .f479553b-4db0-4728-8b9a-07cbb7cb0b29 {
        letter-spacing: 0.1em;
      }

      .efcf074d-c43e-468a-b52c-ec1810611332 {
        letter-spacing: 0.35em;
      }

      .fd4aadad-dfd3-4ce3-abd0-2e44d5869b6c {
        letter-spacing: 0.35em;
      }

      .a9daa492-7146-4afe-b180-de6c3434478a {
        letter-spacing: -0.4em;
      }

      .a00a0972-f893-4c51-98a1-6acdec9691ad {
        letter-spacing: 0.1em;
      }

      .b032b730-5c45-4446-be88-5bd0ee4758d2 {
        fill: #4f3a4e;
      }

      .b7011706-fbb3-4bc9-aa06-cb01524a2df0 {
        fill: #ffd5c9;
      }

      .a029c60f-722e-4af1-9a3a-d9d5140a6054 {
        fill: #855d88;
      }

      .a0c831f8-eeed-4fd9-b63e-cd273e6ad31f {
        fill: #604661;
      }

      .f4f6ee86-facc-43d4-b826-f91a773e9e4f {
        fill: #ffbfb4;
      }

      .a23514de-8f7c-433e-8091-669e1672da26 {
        fill: #f72;
      }

      .b182332a-e90f-4639-8df0-b46f8fb31556 {
        fill: #ffbaa9;
      }

      .b7dec0d6-e874-4f82-a500-49f3097c59d4 {
        fill: #d3db00;
      }

      .b8777744-d8be-43c2-af39-2e3a2c77f851 {
        fill: #b1b200;
      }

      .b5db9ae0-688f-4ee8-ab8f-f73d634c4fc2 {
        fill: #f1a694;
      }

      .a8d35903-5ef3-4922-bee6-6df975b81efd {
        fill: #a4cdff;
      }

      .a257699f-e410-4b57-a378-93d7f6912b91 {
        fill: #ccdfff;
      }

      .b6b1c20a-bb75-457f-8b1f-64204664ba7d {
        fill: #ffac47;
      }

      .abc4a2db-32b7-4cdb-86cc-7fb89abd426f {
        fill: #0d73a4;
      }

      .ac87aca2-81e8-4885-8fb4-2385bc5ed2ec {
        fill: #ffd1c5;
      }

      .b5870fb8-66c4-45e3-8ca6-6a677614d88d {
        fill: #4f3b50;
      }

      .bbd8c748-eaef-4dbf-908c-a9493422dcc0 {
        fill: #3389c8;
      }

      .a4c83c4a-0355-463a-8eea-eac90ac94b69 {
        fill: #fdbab0;
      }

      .fd78b502-33ee-49ee-8b79-e8673f6ca8b5 {
        fill: #fbb5a4;
      }

      .fe9ba9dc-3b47-4938-9552-ff5861eb2979 {
        fill: #7b749d;
      }

      .b0b435a9-01f4-4401-8c17-3470616d4b62 {
        fill: #595481;
      }

      .fe35d2a6-5e36-45e2-92c8-0c867560c6c8 {
        fill: #ffd3c7;
      }

      .ec6e0540-9e13-4887-bc08-439498dce9e2 {
        fill: #fdb7a6;
      }

      .ab2cf175-c761-46a0-909d-18534bd64e09 {
        fill: #988db7;
      }

      .f2882623-c734-4312-96b4-ee219e7c5be6 {
        fill: #dceeff;
      }

      .aa4e8863-bce2-473c-b33b-bb1a28f2171a {
        fill: #e83f47;
      }

      .bb61d200-7782-42a7-aa47-7b1746375f8c {
        fill: #ff6560;
      }

      .a172442e-9a8a-4a90-bced-23671a328e60 {
        fill: #94bceb;
      }

      .bd613a6e-ac8d-4972-b14f-e99c95acdbd4 {
        fill: #815b89;
      }

      .a526c66d-1301-47be-bbc2-8b52aa4697a8 {
        fill: #52d3f8;
      }

      .ab9dbd2d-6f03-42f3-b55b-908c954ded62 {
        fill: #ffb156;
      }

      .a9409003-81d9-4c6e-96e5-aa18547ed06b {
        fill: #ffa23c;
      }

      .a49571aa-634b-4afe-a4e7-7d21087d9d09 {
        fill: #97809a;
      }

      .edc09e2c-dad3-4ae6-bbe7-685773d31887 {
        fill: #44bce6;
      }

      .a0446a83-aa0e-499c-842a-0b81b4799115 {
        fill: #68e6ff;
      }

      .b6f486f5-ae84-4a05-8c8f-11b76aa10972 {
        fill: #c56c5d;
      }

      .be689961-3d46-4f95-9faa-5baf4f8dd251 {
        fill: #e38c82;
      }

      .eaad4617-4673-497c-a3c1-336f4deea053 {
        fill: #9862ed;
      }

      .b8068def-393d-41ea-a04e-680dd006c289 {
        fill: #ac80e0;
      }

      .b775c4e8-3283-4107-93ec-89df279de7cd {
        fill: #ffc000;
      }

      .f61e6f1a-92dd-494e-a199-02449ec65d6c {
        fill: #ff5457;
      }
    </style>
  </defs>
  <rect class="a5eb05dc-7af2-4ccf-b104-ea4a46b377c2" x="19.22" y="-96" width="162.78" height="96.45" rx="8.02"/>
  <text class="a5b1debc-e87f-4eae-98f7-02e20c7421ac" transform="translate(38.62 53.31)">新たな<tspan x="0" y="52">価値創造を通じて</tspan><tspan x="0" y="104">社会課題を解決する</tspan></text>
  <text class="a1854233-feb9-4117-896f-2054d8301472" transform="translate(24.36 433.24)">教育で日本<tspan class="efcf074d-c43e-468a-b52c-ec1810611332" x="77" y="0">の</tspan><tspan x="95.9" y="0">I</tspan><tspan class="fd4aadad-dfd3-4ce3-abd0-2e44d5869b6c" x="100.79" y="0">T</tspan><tspan x="114.77" y="0">人材不足の課題を解決し</tspan><tspan class="a9daa492-7146-4afe-b180-de6c3434478a" x="284.17" y="0">、</tspan><tspan x="292.57" y="0">「日</tspan><tspan class="efcf074d-c43e-468a-b52c-ec1810611332"><tspan x="0" y="24.5">本</tspan><tspan class="f479553b-4db0-4728-8b9a-07cbb7cb0b29" x="18.9" y="24.5">I</tspan><tspan class="fd4aadad-dfd3-4ce3-abd0-2e44d5869b6c" x="23.79" y="24.5">T</tspan><tspan class="f479553b-4db0-4728-8b9a-07cbb7cb0b29" x="37.77" y="24.5">先進国化」を目指すと共に、どうせ教育</tspan></tspan><tspan x="0" y="49">やるならイノベーター人材を育成し</tspan><tspan class="a9daa492-7146-4afe-b180-de6c3434478a" x="246.4" y="49">、</tspan><tspan class="a00a0972-f893-4c51-98a1-6acdec9691ad" x="254.8" y="49">「スター</tspan><tspan x="0" y="73.5">トアップ大国日本」を創り上げ、日本から</tspan><tspan x="0" y="98">GAF</tspan><tspan class="efcf074d-c43e-468a-b52c-ec1810611332" x="33.68" y="98">A</tspan><tspan x="49.08" y="98">を超える企業を排出する</tspan><tspan class="a9daa492-7146-4afe-b180-de6c3434478a" x="218.48" y="98">。</tspan></text>
  <g>
    <g>
      <path class="b032b730-5c45-4446-be88-5bd0ee4758d2" d="M172.85,298.59a.3.3,0,0,1-.07-.16l-.26,0s-.49,1.92-.69,3.19a.59.59,0,0,1,0,.13,2.65,2.65,0,0,0,0,.87c.19.59,9.71,1.7,10.47.09a2.2,2.2,0,0,0-.41-.87,2.62,2.62,0,0,0-1.69-1,9.11,9.11,0,0,1-1.26-.34l-.47-.18,0,0a4.18,4.18,0,0,0-1,1.54c-.13.27-.52,0-.4-.23a5.3,5.3,0,0,1,.91-1.52l-.39-.19a3.86,3.86,0,0,0-1.08,1.48c-.11.27-.55.15-.44-.12a4.35,4.35,0,0,1,1.09-1.58c-.14-.08-.28-.15-.4-.23a4.14,4.14,0,0,0-1.31,1.59.23.23,0,0,1-.39-.23,5.05,5.05,0,0,1,1.29-1.64,1.81,1.81,0,0,1-.61-.62c-.06-.16-.28-.25-.57-.3l-.08.45A2.08,2.08,0,0,1,172.85,298.59Z"/>
      <path class="b7011706-fbb3-4bc9-aa06-cb01524a2df0" d="M172.77,297.27a5.92,5.92,0,0,0,0,1.16.3.3,0,0,0,.07.16,2.08,2.08,0,0,0,2.21.21l.08-.45.17-.94A5.24,5.24,0,0,1,172.77,297.27Z"/>
      <path class="a029c60f-722e-4af1-9a3a-d9d5140a6054" d="M177,301.71c-.12.26.27.5.4.23a4.18,4.18,0,0,1,1-1.54l0,0c.18-.18-.13-.48-.35-.3l-.12.11A5.3,5.3,0,0,0,177,301.71Z"/>
      <path class="a029c60f-722e-4af1-9a3a-d9d5140a6054" d="M176,301.36c-.11.27.33.39.44.12a3.86,3.86,0,0,1,1.08-1.48l.07-.05c.23-.19-.1-.51-.32-.33-.07.05-.12.11-.18.16A4.35,4.35,0,0,0,176,301.36Z"/>
      <path class="a029c60f-722e-4af1-9a3a-d9d5140a6054" d="M175,300.91a.23.23,0,0,0,.39.23,4.14,4.14,0,0,1,1.31-1.59h0a.23.23,0,0,0-.23-.4l-.19.13A5.05,5.05,0,0,0,175,300.91Z"/>
      <path class="a0c831f8-eeed-4fd9-b63e-cd273e6ad31f" d="M175.31,297.41a4.94,4.94,0,0,0,.95-.24s7.12-19.4,7.51-21.11a38.9,38.9,0,0,0-3.06-15.24c-1.39.66-4.63,1.32-4-2.21.1-1.25.18-2.46.25-3.64a4.31,4.31,0,0,1-.52-1,15.12,15.12,0,0,1-2.92.3,10.94,10.94,0,0,1-.56,3.77.9.9,0,0,1-.73.53,2.35,2.35,0,0,1-.77-.07s.25-2.39.31-4.26l-1.53-.1-.15,0c-.12,3.72-.38,6.38-.87,6.69-1.82,1.17-6,0-6.09-.44a5.38,5.38,0,0,1,0-.62,35.83,35.83,0,0,0,.28,6.78c.55,4.11,1,6.78,1.41,8.49-1.77,3.71-7.34,16.81-6.58,25.76,0,0,.26.1.67.21a6.6,6.6,0,0,0,2.51.29,2.44,2.44,0,0,0,.9-.29c.33-2.68,9.21-24.39,9.21-24.39.8-4.65-.28-13.57-.35-17,.44,0,.71,0,.9,0,1.2,3.89,2.82,9.65,4.35,16.68-2.36,6.15-4.88,18.88-4.31,20.61a3.91,3.91,0,0,0,.68.28A5.24,5.24,0,0,0,175.31,297.41Z"/>
      <path class="a029c60f-722e-4af1-9a3a-d9d5140a6054" d="M176.43,254a4.31,4.31,0,0,0,.52,1c0-.37.05-.75.07-1.12A5.66,5.66,0,0,1,176.43,254Z"/>
      <path class="a029c60f-722e-4af1-9a3a-d9d5140a6054" d="M171.76,254.27c-.06,1.87-.31,4.26-.31,4.26a2.35,2.35,0,0,0,.77.07.9.9,0,0,0,.73-.53,10.94,10.94,0,0,0,.56-3.77C172.92,254.31,172.33,254.29,171.76,254.27Z"/>
      <path class="b032b730-5c45-4446-be88-5bd0ee4758d2" d="M158.88,302.82a1.34,1.34,0,0,1-.07-.67l-.51,0s-.57,1.81-.84,3.06v.05a3.26,3.26,0,0,0-.11,1c.15.6,9.6,2.21,10.45.64a2.07,2.07,0,0,0-.28-.75,2.64,2.64,0,0,0-1.72-1.21,9.13,9.13,0,0,1-1-.32q-.39-.15-.78-.33a.19.19,0,0,1-.08.07,2.57,2.57,0,0,0-1,1.25c-.13.26-.53,0-.39-.23a3,3,0,0,1,1-1.32l-.36-.2a.19.19,0,0,1-.09.05,2.09,2.09,0,0,0-1.21,1.38c-.1.27-.54.15-.44-.12a2.73,2.73,0,0,1,1.27-1.6l-.33-.22h0a3.6,3.6,0,0,0-1.79,1.59c-.14.25-.53,0-.39-.23a4,4,0,0,1,1.79-1.67,1.61,1.61,0,0,1-.48-.58.48.48,0,0,0-.26-.24l-.11.63A1.67,1.67,0,0,1,158.88,302.82Z"/>
      <path class="b7011706-fbb3-4bc9-aa06-cb01524a2df0" d="M158.88,301c0,.45-.07.83-.07,1.13a1.34,1.34,0,0,0,.07.67,1.67,1.67,0,0,0,2.23.11l.11-.63.17-1A6.6,6.6,0,0,1,158.88,301Z"/>
      <path class="a029c60f-722e-4af1-9a3a-d9d5140a6054" d="M162.5,305.46c-.14.26.26.49.39.23a2.57,2.57,0,0,1,1-1.25.19.19,0,0,0,.08-.07.24.24,0,0,0-.31-.32l-.16.09A3,3,0,0,0,162.5,305.46Z"/>
      <path class="a029c60f-722e-4af1-9a3a-d9d5140a6054" d="M161.42,305.25c-.1.27.34.39.44.12a2.09,2.09,0,0,1,1.21-1.38.19.19,0,0,0,.09-.05c.15-.14,0-.46-.21-.39l-.26.1A2.73,2.73,0,0,0,161.42,305.25Z"/>
      <path class="a029c60f-722e-4af1-9a3a-d9d5140a6054" d="M160.17,304.79c-.14.25.25.48.39.23a3.6,3.6,0,0,1,1.79-1.59h0c.26-.12.14-.54-.13-.44l-.27.13A4,4,0,0,0,160.17,304.79Z"/>
      <path class="a5eb05dc-7af2-4ccf-b104-ea4a46b377c2" d="M170.08,254.15l.15,0,1.53.1c.57,0,1.16,0,1.75,0a15.12,15.12,0,0,0,2.92-.3,5.66,5.66,0,0,0,.59-.15c1-18.2-1.29-27.23-1.52-28.1a.19.19,0,0,0,0-.07l-.51-.87a.18.18,0,0,0-.2-.07.2.2,0,0,0-.08.08c-.21.42-.6,1.23-.73,1.46a.17.17,0,0,0,0,.14v0l.74,1.53c0,.07,0,.12-.05.13a1.89,1.89,0,0,1-.43.12c1,3.7,1.28,17.61,1.28,17.61l-1,1.37L173,246.09l-.18-17.66h0a.6.6,0,0,1-.3,0,1.21,1.21,0,0,1-.19-.47l.76-1.36h0a.18.18,0,0,0,0-.21l-2.63-2.26,0,0a.16.16,0,0,0-.23.1l-.41,1.29a.13.13,0,0,0,0,.06h0S170.42,243.9,170.08,254.15Z"/>
      <path class="b032b730-5c45-4446-be88-5bd0ee4758d2" d="M175.5,225.75c.23.87,2.51,9.9,1.52,28.1,0,.37,0,.75-.07,1.12-.07,1.18-.15,2.39-.25,3.64-.62,3.53,2.62,2.87,4,2.21.37-.17.61-.35.61-.44,0-.47-1.12-9.67-1.12-9.67l.59-5c.33-2.84.67-5.67,1-8.5.31-2.63.83-5.41-.15-8a5.65,5.65,0,0,0-3-2.86l-.63-.26-2.54-.46A.19.19,0,0,1,175.5,225.75Z"/>
      <path class="f4f6ee86-facc-43d4-b826-f91a773e9e4f" d="M174.71,223.36a7.1,7.1,0,0,1-2.44-.88,3.7,3.7,0,0,1-1.69-1.65c-.06.44-.15,1.24-.2,2.17a6.12,6.12,0,0,0,4.37,1.56A9.82,9.82,0,0,1,174.71,223.36Z"/>
      <path class="b7011706-fbb3-4bc9-aa06-cb01524a2df0" d="M173,226.35a.18.18,0,0,1,0,.21h0c.31-.05.66-.09.92-.11v0a.17.17,0,0,1,0-.14c.13-.23.52-1,.73-1.46a.2.2,0,0,1,.08-.08,1.1,1.1,0,0,0,0-.18,6.12,6.12,0,0,1-4.37-1.56c0,.34,0,.7,0,1.07l0,0Z"/>
      <path class="b7011706-fbb3-4bc9-aa06-cb01524a2df0" d="M172.27,222.48a7.1,7.1,0,0,0,2.44.88,8.85,8.85,0,0,0,1.63.08.66.66,0,0,0,.62-.52,24.08,24.08,0,0,0,.6-6.57,1,1,0,0,0-.77.16c-.13.12-.33-.08-.2-.2a1.28,1.28,0,0,1,.94-.26l-.06-.47a13.79,13.79,0,0,1-6.57-.74,4,4,0,0,1-1,2.75l.05.06a1.6,1.6,0,0,1,.33.71c0,.17,0,.35,0,.5a.7.7,0,0,1,.27.11c.27.17.59.46,1,.82.67.57.42,1.31.21,1.29a5.83,5.83,0,0,1-2.17-1.51.82.82,0,0,1-.06-.19.36.36,0,0,0-.15.1c-.13.13-.33-.08-.2-.2a.76.76,0,0,1,.38-.21l0,0c-.18-.17-.52-.44-.78-.4s-.26-.25-.08-.27a1.33,1.33,0,0,1,1.14.55l.09,0a1.38,1.38,0,0,0-.44-1h0v0h0a1.59,1.59,0,0,0-.39-.23,1.61,1.61,0,0,1-.27-.1.49.49,0,0,0-.49.13l-.06.07c-.56.83.79,3,2.23,2.92l0,.06.05.1A3.7,3.7,0,0,0,172.27,222.48Zm4.81-4.61a.24.24,0,0,1,.34-.06.25.25,0,1,1-.29.41A.25.25,0,0,1,177.08,217.87Zm-1-.37a.76.76,0,0,1,0-.14c0-.14.22-.47.37-.23a.33.33,0,0,1,0,.17,5.33,5.33,0,0,0,.6,2.32,1,1,0,0,1,.15.38.3.3,0,0,1-.05.24.34.34,0,0,1-.24.11c-.23,0-.73.08-.84-.19a.51.51,0,0,1,0-.24C176.09,219.12,176.1,218.31,176.1,217.5Zm.14,4.21c.18,0,.18.27,0,.28a4.19,4.19,0,0,1-2.31-.44c-.16-.08,0-.33.15-.24A3.93,3.93,0,0,0,176.24,221.71Zm-1.87-3.53a.24.24,0,0,1,.34-.06.25.25,0,0,1,.06.35.25.25,0,1,1-.4-.29Zm-1.39-1a1.53,1.53,0,0,1,2.12-.74c.16.09,0,.33-.15.25a1.24,1.24,0,0,0-1.7.57A.14.14,0,0,1,173,217.21Z"/>
      <path class="f4f6ee86-facc-43d4-b826-f91a773e9e4f" d="M176.14,220.16c.11.27.61.22.84.19a.34.34,0,0,0,.24-.11.3.3,0,0,0,.05-.24,1,1,0,0,0-.15-.38,5.33,5.33,0,0,1-.6-2.32.33.33,0,0,0,0-.17c-.15-.24-.34.09-.37.23a.76.76,0,0,0,0,.14c0,.81,0,1.62,0,2.42A.51.51,0,0,0,176.14,220.16Z"/>
      <path class="b032b730-5c45-4446-be88-5bd0ee4758d2" d="M174.77,218.47a.25.25,0,0,0-.06-.35.25.25,0,1,0,.06.35Z"/>
      <path class="b032b730-5c45-4446-be88-5bd0ee4758d2" d="M177.13,218.22a.25.25,0,1,0,.29-.41.24.24,0,0,0-.34.06A.25.25,0,0,0,177.13,218.22Z"/>
      <path class="b032b730-5c45-4446-be88-5bd0ee4758d2" d="M164.62,201.22v0l-.06.09Z"/>
      <path class="a23514de-8f7c-433e-8091-669e1672da26" d="M169.1,217.65h0a1.59,1.59,0,0,1,.39.23h0A1,1,0,0,0,169.1,217.65Z"/>
      <path class="a23514de-8f7c-433e-8091-669e1672da26" d="M168.83,217.55c-.1-.05-.18-.12-.08-.19a.55.55,0,0,1,.3-.11,1,1,0,0,1,.86.34,4,4,0,0,0,1-2.75,13.79,13.79,0,0,0,6.57.74l1-.1a2.57,2.57,0,0,0,1-.33,2.39,2.39,0,0,0-.31-4.51c-1.42-.18-1.81.76-2.48.18-5.66-4.22-8.34,1.6-8.34,1.6h0v0l-.06.06a1.76,1.76,0,0,0-.31.6c-.6,1.77-.38,3.81.35,4.58A.49.49,0,0,1,168.83,217.55Z"/>
      <path class="b032b730-5c45-4446-be88-5bd0ee4758d2" d="M164,227.18l.38-.29-.52.29.08,0S163.92,227.15,164,227.18Z"/>
      <path class="b032b730-5c45-4446-be88-5bd0ee4758d2" d="M169.21,260.84c.49-.31.75-3,.87-6.69.34-10.25-.38-28.62-.38-28.62h0a5.71,5.71,0,0,0-1.37,0,3.17,3.17,0,0,1-.31.55v0c-.76,1.36-1.54,2.63-2.31,3.8l0,.08a7.28,7.28,0,0,1,.33,2.22,6.35,6.35,0,0,1-1.3,4,4.55,4.55,0,0,1-1.23.92c-.05,2.38-.41,19.17-.4,22.62a5.38,5.38,0,0,0,0,.62C163.23,260.85,167.39,262,169.21,260.84Z"/>
      <path class="b182332a-e90f-4639-8df0-b46f8fb31556" d="M169.8,219l.07,0a1.33,1.33,0,0,0-1.14-.55c-.18,0-.1.3.08.27s.6.23.78.4l0,0a.76.76,0,0,0-.38.21c-.13.12.07.33.2.2a.36.36,0,0,1,.15-.1A.43.43,0,0,1,169.8,219Z"/>
      <path class="a0c831f8-eeed-4fd9-b63e-cd273e6ad31f" d="M164,227.18s0,0-.06,0l-.08,0a13.07,13.07,0,0,0-3.7,2.9C161.38,229.1,162.74,228.1,164,227.18Z"/>
      <path class="a0c831f8-eeed-4fd9-b63e-cd273e6ad31f" d="M164.73,236.24a6.35,6.35,0,0,0,1.3-4,7.28,7.28,0,0,0-.33-2.22l0-.08c-4.29,6.49-8.56,10.09-10.4,9.87a.91.91,0,0,1-.54-.25h0c0,.1.57.3.65.33a3,3,0,0,0,.83.15,6.76,6.76,0,0,0,3.21-.91,32.46,32.46,0,0,0,3.18-1.43l.9-.52A4.55,4.55,0,0,0,164.73,236.24Z"/>
      <path class="f4f6ee86-facc-43d4-b826-f91a773e9e4f" d="M165.67,229.92c.77-1.17,1.55-2.44,2.31-3.8v0a3.17,3.17,0,0,0,.31-.55,3.24,3.24,0,0,0,0-2.83,17.55,17.55,0,0,0-1.08-2.34,7.32,7.32,0,0,1-.44-2.58,1.93,1.93,0,0,0-.55-.94.21.21,0,0,0-.13,0,.16.16,0,0,1,.07.13c0,.77-.23,1.51-.24,2.28a6,6,0,0,0,.32,2.18c.07.19-.24.28-.31.08a6.32,6.32,0,0,1-.34-2.12c0-.72.16-1.41.22-2.12a1.49,1.49,0,0,0-.39-.68.18.18,0,0,0-.09,0,.16.16,0,0,1,.05.15c-.13.77-.2,1.55-.26,2.33a4.73,4.73,0,0,0,.25,2.36c.08.19-.2.36-.28.17a4.92,4.92,0,0,1-.3-2.43c0-.25,0-.5.06-.74a1.4,1.4,0,0,0-.35-.54.2.2,0,0,0-.33.13l-.21,2.44c0,.08.38,2,.4,2l.74,2.3a5.38,5.38,0,0,0,.45,1.24l-1.2.93-.38.29c-1.21.92-2.57,1.92-3.84,2.9a40,40,0,0,0-4.27,3.6,5.26,5.26,0,0,0-1.37,2.18c-.36,1.08-.51,3,.26,3.68a.91.91,0,0,0,.54.25C157.11,240,161.38,236.41,165.67,229.92Zm-.45-9.2,0-.12Z"/>
      <path class="b032b730-5c45-4446-be88-5bd0ee4758d2" d="M173.25,217.29a1.24,1.24,0,0,1,1.7-.57c.17.08.31-.16.15-.25a1.53,1.53,0,0,0-2.12.74A.14.14,0,0,0,173.25,217.29Z"/>
      <path class="b032b730-5c45-4446-be88-5bd0ee4758d2" d="M176.59,216.31c-.13.12.07.32.2.2a1,1,0,0,1,.77-.16.23.23,0,0,1,.15.12c.08.16.32,0,.24-.15a.52.52,0,0,0-.42-.27A1.28,1.28,0,0,0,176.59,216.31Z"/>
      <path class="b7dec0d6-e874-4f82-a500-49f3097c59d4" d="M172.78,228.43l.18,17.66,1.57,1.12,1-1.37s-.33-13.91-1.28-17.61a9.87,9.87,0,0,1-1.45.2Z"/>
      <path class="b8777744-d8be-43c2-af39-2e3a2c77f851" d="M172.29,227.92a1.21,1.21,0,0,0,.19.47.6.6,0,0,0,.3,0,9.87,9.87,0,0,0,1.45-.2,1.89,1.89,0,0,0,.43-.12s0-.06.05-.13l-.74-1.53c-.26,0-.61.06-.92.11Z"/>
      <path class="b182332a-e90f-4639-8df0-b46f8fb31556" d="M173.93,221.55a4.19,4.19,0,0,0,2.31.44c.18,0,.18-.3,0-.28a3.93,3.93,0,0,1-2.16-.4C173.91,221.22,173.77,221.47,173.93,221.55Z"/>
      <path class="a0c831f8-eeed-4fd9-b63e-cd273e6ad31f" d="M169.05,217.25a.55.55,0,0,0-.3.11c-.1.07,0,.14.08.19a1.61,1.61,0,0,0,.27.1h0a1,1,0,0,1,.42.21,1.38,1.38,0,0,1,.44,1l-.09,0-.07,0a.43.43,0,0,0-.21.42.82.82,0,0,0,.06.19,5.83,5.83,0,0,0,2.17,1.51c.21,0,.46-.72-.21-1.29-.44-.36-.76-.65-1-.82a.7.7,0,0,0-.27-.11c0-.15,0-.33,0-.5a1.6,1.6,0,0,0-.33-.71l-.05-.06A1,1,0,0,0,169.05,217.25Z"/>
      <path class="b5db9ae0-688f-4ee8-ab8f-f73d634c4fc2" d="M165.91,221.47c.07.2.38.11.31-.08a6,6,0,0,1-.32-2.18c0-.77.2-1.51.24-2.28a.16.16,0,0,0-.07-.13.17.17,0,0,0-.26.13c0,.1,0,.2,0,.3-.06.71-.21,1.4-.22,2.12A6.32,6.32,0,0,0,165.91,221.47Z"/>
      <path class="b5db9ae0-688f-4ee8-ab8f-f73d634c4fc2" d="M165.07,221.52c.08.19.36,0,.28-.17a4.73,4.73,0,0,1-.25-2.36c.06-.78.13-1.56.26-2.33a.16.16,0,0,0-.05-.15c-.09-.08-.24-.08-.26.06-.1.59-.17,1.18-.22,1.78,0,.24-.05.49-.06.74A4.92,4.92,0,0,0,165.07,221.52Z"/>
    </g>
    <g>
      <rect class="a8d35903-5ef3-4922-bee6-6df975b81efd" x="201.61" y="340.7" width="12.64" height="8.08" transform="translate(-116.99 107.02) rotate(-22.71)"/>
      <polygon class="a257699f-e410-4b57-a378-93d7f6912b91" points="207.93 344.74 212.21 338.57 200.54 343.46 207.93 344.74"/>
    </g>
    <g>
      <rect class="a8d35903-5ef3-4922-bee6-6df975b81efd" x="218.13" y="327.86" width="21.87" height="13.97" transform="translate(56.11 -32.14) rotate(9.14)"/>
      <polygon class="a5eb05dc-7af2-4ccf-b104-ea4a46b377c2" points="229.06 334.85 240.97 329.69 219.38 326.21 229.06 334.85"/>
    </g>
    <g>
      <path class="b6b1c20a-bb75-457f-8b1f-64204664ba7d" d="M282.37,276.89a.82.82,0,0,0,1.18-.08l-1-17c-.78.15-1.72.33-2.76.51C280.42,265.25,281.87,275.9,282.37,276.89Z"/>
      <path class="b6b1c20a-bb75-457f-8b1f-64204664ba7d" d="M259.71,282.19a1,1,0,0,0,1.35.17l2.75-20.69-3.25-.89C260.32,264.51,259.31,280.77,259.71,282.19Z"/>
      <path class="b6b1c20a-bb75-457f-8b1f-64204664ba7d" d="M239.19,262.63c-.54,4.76-1.07,9.87-.91,10.61a.82.82,0,0,0,1.17.21l2.85-14.64v-.23C241.3,260,240.23,261.37,239.19,262.63Z"/>
      <path class="b7dec0d6-e874-4f82-a500-49f3097c59d4" d="M265.09,259.19c.06,1.31.62,3.06,1.23,3.16s8.19-1.11,13.45-2.06c1-.18,2-.36,2.76-.51a13.79,13.79,0,0,0,2.22-.53,9.69,9.69,0,0,0,.25-3A99.79,99.79,0,0,1,265.09,259.19Z"/>
      <path class="b8777744-d8be-43c2-af39-2e3a2c77f851" d="M264,258.63a5.84,5.84,0,0,1-4-1.09A22,22,0,0,1,248.75,256c.06.48.1,1,.14,1.51,3.66,1.05,8.15,2.3,11.67,3.27l3.25.89,2.51.68c-.61-.1-1.17-1.85-1.23-3.16A99.79,99.79,0,0,0,285,256.24h0a4.64,4.64,0,0,0,0-1C280.86,257,269.84,258.15,264,258.63Z"/>
      <path class="b7dec0d6-e874-4f82-a500-49f3097c59d4" d="M251.37,237.35l.42.06.09-.39A2.69,2.69,0,0,1,251.37,237.35Z"/>
      <path class="b7dec0d6-e874-4f82-a500-49f3097c59d4" d="M236.84,243.25l0-.05-.24.05.15,0Z"/>
      <path class="b7dec0d6-e874-4f82-a500-49f3097c59d4" d="M240.73,247.57l-1.13-5.82-.64.18a6.7,6.7,0,0,1,0,.91c0,.53-.67.94-1.12,1.17a4.14,4.14,0,0,1,.77,2.21c.12,1.72-.69,3.17-1.8,3.25s-2.11-1.26-2.22-3a3.16,3.16,0,0,1,1.31-3.12,16.13,16.13,0,0,1-1.68.23h0a.14.14,0,0,1-.09.12,7.57,7.57,0,0,0,0,4.22,4.76,4.76,0,0,0,4,3.52l2.53-3.78Z"/>
      <path class="b7dec0d6-e874-4f82-a500-49f3097c59d4" d="M282.73,215.4a48.68,48.68,0,0,0-12.13-1.3,19.9,19.9,0,0,0-3.53.31,2.63,2.63,0,0,1-1.37,2.32,3.53,3.53,0,0,1,.08.4c6.18-.88,13.77-.79,15.94,2.46,1.68,2.52.1,11.64-1.55,19a23.85,23.85,0,0,1,0,6.13h0a3.7,3.7,0,0,1-1.49,2.42c-.8.61-1.68.34-2.65.4-2.78.14-6.15-.65-9.72-1a3.84,3.84,0,0,1-2.78.71c-2.19.7-3.88,1.53-4.59,2.49v0a6.11,6.11,0,0,0-.45,5.78,4.42,4.42,0,0,0,1.54,2,5.84,5.84,0,0,0,4,1.09c5.83-.48,16.85-1.59,21-3.34a5.5,5.5,0,0,0,1.13-.62c3-2.34,1.47-7.3-1-9.17a123.67,123.67,0,0,0,3.56-22.06C288.91,219.45,286.79,216.55,282.73,215.4Zm-23.86,38.32c-.12-1.72.69-3.18,1.8-3.25s2.1,1.26,2.22,3-.7,3.18-1.81,3.25S259,255.44,258.87,253.72Z"/>
      <path class="b7dec0d6-e874-4f82-a500-49f3097c59d4" d="M259.14,218.88l-.05-.06c-.19.25-.28.4-.28.4h0A2.65,2.65,0,0,1,259.14,218.88Z"/>
      <path class="b8777744-d8be-43c2-af39-2e3a2c77f851" d="M260.5,220.83a3.75,3.75,0,0,0,.13-.6.6.6,0,0,1-.49-.37,1.12,1.12,0,0,0-.05-.13h0a3.33,3.33,0,0,1-.95-.85,2.65,2.65,0,0,0-.33.34,7.51,7.51,0,0,0-1.28,2.9A16,16,0,0,1,260.5,220.83Z"/>
      <path class="b8777744-d8be-43c2-af39-2e3a2c77f851" d="M265.8,217.62a14.49,14.49,0,0,1,.12,2.71,41.28,41.28,0,0,1,7.41,2.37,3,3,0,0,1,.95.39c2.13,1.27,4.94,6.43,5.17,11.42v0a30.82,30.82,0,0,1,.72,4c1.65-7.33,3.23-16.45,1.55-19-2.17-3.25-9.76-3.34-15.94-2.46A2.07,2.07,0,0,1,265.8,217.62Z"/>
      <path class="abc4a2db-32b7-4cdb-86cc-7fb89abd426f" d="M230.61,268.63c-1.73-.24-1.75-1.56-1.75-1.56l.35-.52a.51.51,0,0,0-.45,0c-.61.37-3.22,0-4.92-.82a2.47,2.47,0,0,0-2.79.24c-.34,1.76,8,6.52,8.5,6.15s1.89-3.82,1.89-3.82-.07-.08-.2-.2C230.92,268.43,230.7,268.63,230.61,268.63Z"/>
      <path class="ac87aca2-81e8-4885-8fb4-2385bc5ed2ec" d="M229.21,266.55l-.35.52s0,1.32,1.75,1.56c.09,0,.31-.2.63-.54s.66-.75,1.08-1.28a18.12,18.12,0,0,1-2.19-1.59Z"/>
      <path class="abc4a2db-32b7-4cdb-86cc-7fb89abd426f" d="M243.61,276.79v-.63a.53.53,0,0,0-.38.25c-.29.65-2.66,1.82-4.51,2.11a2.47,2.47,0,0,0-2.16,1.78c.71,1.65,10.28.84,10.48.25s-.61-4.22-.61-4.22l-.28-.05a1.78,1.78,0,0,1-.21.8A1.75,1.75,0,0,1,243.61,276.79Z"/>
      <path class="ac87aca2-81e8-4885-8fb4-2385bc5ed2ec" d="M243.61,274.17v2.62a1.75,1.75,0,0,0,2.33.29,1.78,1.78,0,0,0,.21-.8c.08-.52.15-1.27.2-2.15A5,5,0,0,1,243.61,274.17Z"/>
      <path class="b5870fb8-66c4-45e3-8ca6-6a677614d88d" d="M248.75,256A22,22,0,0,0,260,257.54a4.42,4.42,0,0,1-1.54-2,6.11,6.11,0,0,1,.45-5.78c-.73-.22-1.45-.44-2.12-.68l-2.33,1.14-13.72-2.46,0-.15-.08.12-2.53,3.78-8.77,13.08s.3.28.78.67a18.12,18.12,0,0,0,2.19,1.59,6,6,0,0,0,2,.83c.38.07,2.53-2.11,4.91-5,1-1.26,2.11-2.65,3.11-4.05v.23l.18,14.42a1.89,1.89,0,0,0,1.13.94,5,5,0,0,0,2.74,0l.3-.09,1.38-.46c.6-.26,1.31-9.64.86-16.07C248.85,257,248.81,256.48,248.75,256Z"/>
      <path class="b8777744-d8be-43c2-af39-2e3a2c77f851" d="M235.33,244.92a.19.19,0,0,1-.23-.26,2.82,2.82,0,0,1,1.67-1.39l-.15,0-.38,0-.38.08a3.16,3.16,0,0,0-1.31,3.12c.11,1.72,1.11,3,2.22,3s1.92-1.53,1.8-3.25a4.14,4.14,0,0,0-.77-2.21c-.25.14-.45.21-.46.23Z"/>
      <path class="ac87aca2-81e8-4885-8fb4-2385bc5ed2ec" d="M239,240.81a2.27,2.27,0,0,1-.07.39,5.58,5.58,0,0,1,.05.73l.64-.18-.5-2.59-1,.71A1.33,1.33,0,0,1,239,240.81Z"/>
      <path class="ac87aca2-81e8-4885-8fb4-2385bc5ed2ec" d="M251.37,237.35a2.69,2.69,0,0,0,.51-.33,9,9,0,0,1,1-2.35l0,0a4.41,4.41,0,0,1-3.15-3.56c-.75,1.46-1.53,3.16-1.55,3.21h0a20.25,20.25,0,0,0-4.53,2Z"/>
      <path class="ac87aca2-81e8-4885-8fb4-2385bc5ed2ec" d="M260.09,219.73h0a1.12,1.12,0,0,1,.05.13.6.6,0,0,0,.49.37.65.65,0,0,0,.14,0,6,6,0,0,0,2.48-.83h0s2.44.06,2.55-1.78a2.07,2.07,0,0,0,0-.49,3.53,3.53,0,0,0-.08-.4,2.63,2.63,0,0,0,1.37-2.32.89.89,0,0,0-.21-.58l-.06-.05c-.28-.22-.64,0-1,.35h0c-1.13-.35-1.57-1.85-1.71-2.52a11.82,11.82,0,0,1-5.6,1.7c0,.14,0,.29,0,.44a1.07,1.07,0,0,1,.85.07c.14.09,0,.31-.13.23a.88.88,0,0,0-.7,0,16.89,16.89,0,0,0,.3,1.8h0a3.12,3.12,0,0,0,.24,3l.05.06A3.33,3.33,0,0,0,260.09,219.73Zm1.23-4.55a.22.22,0,0,1,.31,0,.25.25,0,0,1,0,.33.21.21,0,0,1-.31,0A.23.23,0,0,1,261.32,215.18Zm-.52,3.57c-.16,0-.16-.24,0-.26a2.2,2.2,0,0,0,1.08-.41c.14-.1.27.12.13.22A2.48,2.48,0,0,1,260.8,218.75Zm1.27.19-.44.2a.14.14,0,0,1-.18,0,.13.13,0,0,1,.05-.18l.45-.2a.13.13,0,0,1,.12.22Zm4.49-4.22c-.26,0-.52.31-.65.52a.6.6,0,0,1,.36.12c.13.09,0,.31-.13.22a.38.38,0,0,0-.38-.06,2,2,0,0,0-.13.43c0,.1-.11.11-.18.07a.91.91,0,0,0-.07-.14h0a2,2,0,0,1,.41-.91,1.16,1.16,0,0,1,.77-.51C266.73,214.45,266.73,214.71,266.56,214.72Zm-5.85-1a1.34,1.34,0,0,1,2,.32c.07.15-.15.28-.22.13a1.08,1.08,0,0,0-1.57-.27C260.76,214,260.58,213.86,260.71,213.75Zm-1.8,1.57a.21.21,0,0,1,.31,0,.23.23,0,0,1,0,.32.21.21,0,0,1-.31,0A.23.23,0,0,1,258.91,215.32Zm.7-.61a.37.37,0,0,1,0-.15c.09-.25.31,0,.36.14a.39.39,0,0,1,0,.13c.13.73.27,1.46.39,2.19a.38.38,0,0,1,0,.21c-.06.27-.5.3-.71.31a.29.29,0,0,1-.22-.06.33.33,0,0,1-.09-.21,1.61,1.61,0,0,1,.07-.37A4.9,4.9,0,0,0,259.61,214.71Z"/>
      <path class="abc4a2db-32b7-4cdb-86cc-7fb89abd426f" d="M252.87,234.62a4.49,4.49,0,0,1,1.75-1.41s.5-.29.51-.25c-1.47-7.64,1.85-10.55,2.13-10.69l.13-.07a9.24,9.24,0,0,0-3.56,2.35,22.65,22.65,0,0,0-3.37,4.1l-.42.69a2.63,2.63,0,0,0-.32,1.72A4.41,4.41,0,0,0,252.87,234.62Z"/>
      <path class="bbd8c748-eaef-4dbf-908c-a9493422dcc0" d="M262.87,247.05s-.72-.14-1.36-.31l-4.7,2.3c.67.24,1.39.46,2.12.68v0c.71-1,2.4-1.79,4.59-2.49A4.16,4.16,0,0,1,262.87,247.05Z"/>
      <path class="bbd8c748-eaef-4dbf-908c-a9493422dcc0" d="M260.6,244.76h0Z"/>
      <path class="bbd8c748-eaef-4dbf-908c-a9493422dcc0" d="M255.13,233s-.49.24-.51.25a4.49,4.49,0,0,0-1.75,1.41l0,0a9,9,0,0,0-1,2.35l-.09.39.88.12,1,6.64,4.52.66.07,0a.55.55,0,0,1-.28-.26.36.36,0,0,1,0-.33l0,0h0a10.06,10.06,0,0,1,2.24-.45.38.38,0,0,1,.15,0h0a3.7,3.7,0,0,1,1.07,0,.12.12,0,0,1,.1.07l1.8.18a5.62,5.62,0,0,1,1.91.26,66.37,66.37,0,0,1,10.14-2.59,25.23,25.23,0,0,1-1.71-4.37l-.25,0L270,230.62a6.52,6.52,0,0,1-.31-6.13,3.14,3.14,0,0,1,3.65-1.79,41.28,41.28,0,0,0-7.41-2.37c0,.16,0,.31,0,.47a2,2,0,0,1-1.56,1.56,4.13,4.13,0,0,1-2.72,0c-.57-.23-1.3-.92-1.13-1.45l0-.1a16,16,0,0,0-3,1.29l-.14.08-.13.07C257,222.41,253.66,225.32,255.13,233Z"/>
      <path class="a4c83c4a-0355-463a-8eea-eac90ac94b69" d="M265.8,217.62c-.11,1.84-2.55,1.78-2.55,1.78h0a6,6,0,0,1-2.48.83.65.65,0,0,1-.14,0,3.75,3.75,0,0,1-.13.6l0,.1c-.17.53.56,1.22,1.13,1.45a4.13,4.13,0,0,0,2.72,0,2,2,0,0,0,1.56-1.56c0-.16,0-.31,0-.47A14.49,14.49,0,0,0,265.8,217.62Z"/>
      <path class="a4c83c4a-0355-463a-8eea-eac90ac94b69" d="M259.46,216.9a1.61,1.61,0,0,0-.07.37.33.33,0,0,0,.09.21.29.29,0,0,0,.22.06c.21,0,.65,0,.71-.31a.38.38,0,0,0,0-.21c-.12-.73-.26-1.46-.39-2.19a.39.39,0,0,0,0-.13c-.05-.12-.27-.39-.36-.14a.37.37,0,0,0,0,.15A4.9,4.9,0,0,1,259.46,216.9Z"/>
      <path class="b5870fb8-66c4-45e3-8ca6-6a677614d88d" d="M261.64,215.5a.25.25,0,0,0,0-.33.22.22,0,0,0-.31,0,.23.23,0,0,0,0,.32A.21.21,0,0,0,261.64,215.5Z"/>
      <path class="b5870fb8-66c4-45e3-8ca6-6a677614d88d" d="M259.23,215.64a.23.23,0,0,0,0-.32.21.21,0,0,0-.31,0,.23.23,0,0,0,0,.32A.21.21,0,0,0,259.23,215.64Z"/>
      <path class="b5870fb8-66c4-45e3-8ca6-6a677614d88d" d="M265.82,214.13h0c.33-.34.69-.57,1-.35.51-.81.37-2.69-.43-4.19a1.77,1.77,0,0,0-.37-.49.23.23,0,0,0-.07-.07h0s-3.28-4.83-7.52-.13c-.5.63-1-.16-2.2.22a2.22,2.22,0,0,0,.47,4.12,2.07,2.07,0,0,0,.92.14c.32,0,.62,0,.91-.06a11.82,11.82,0,0,0,5.6-1.7C264.25,212.28,264.69,213.78,265.82,214.13Z"/>
      <path class="fd78b502-33ee-49ee-8b79-e8673f6ca8b5" d="M265.79,215a2,2,0,0,0-.41.91h0a.91.91,0,0,1,.07.14c.07,0,.16,0,.18-.07a2,2,0,0,1,.13-.43.38.38,0,0,1,.38.06c.13.09.26-.13.13-.22a.6.6,0,0,0-.36-.12c.13-.21.39-.51.65-.52s.17-.27,0-.26A1.16,1.16,0,0,0,265.79,215Z"/>
      <path class="b5870fb8-66c4-45e3-8ca6-6a677614d88d" d="M260.89,213.93a1.08,1.08,0,0,1,1.57.27c.07.15.29,0,.22-.13a1.34,1.34,0,0,0-2-.32C260.58,213.86,260.76,214,260.89,213.93Z"/>
      <path class="b5870fb8-66c4-45e3-8ca6-6a677614d88d" d="M259.25,214.05c.14.08.27-.14.13-.23a1.07,1.07,0,0,0-.85-.07.47.47,0,0,0-.33.31c0,.16.21.23.25.07a.19.19,0,0,1,.1-.12A.88.88,0,0,1,259.25,214.05Z"/>
      <path class="fd78b502-33ee-49ee-8b79-e8673f6ca8b5" d="M262,218.72l-.45.2a.13.13,0,0,0-.05.18.14.14,0,0,0,.18,0l.44-.2a.13.13,0,0,0-.12-.22Z"/>
      <path class="fd78b502-33ee-49ee-8b79-e8673f6ca8b5" d="M261.88,218.08a2.2,2.2,0,0,1-1.08.41c-.16,0-.16.28,0,.26a2.48,2.48,0,0,0,1.21-.45C262.15,218.2,262,218,261.88,218.08Z"/>
      <path class="fe9ba9dc-3b47-4938-9552-ff5861eb2979" d="M257.09,245.31a.28.28,0,0,1,.05-.13l0,0,0,0c.17-.06.52-.18.93-.3l-4.52-.66.1.68Z"/>
      <path class="fe9ba9dc-3b47-4938-9552-ff5861eb2979" d="M260.66,246.62h0a3.67,3.67,0,0,0-1.07,0c-.32,0-.65,0-.95,0h-.21l-4.17,2,.16,1.12Z"/>
      <path class="b5870fb8-66c4-45e3-8ca6-6a677614d88d" d="M258.43,246.66a1.25,1.25,0,0,1-.82-.26.49.49,0,0,1-.14-.42h0v0h0l0,0h.07a.73.73,0,0,1-.47-.33.4.4,0,0,1,0-.21l-3.37-.46.54,3.77Z"/>
      <path class="b0b435a9-01f4-4401-8c17-3470616d4b62" d="M261.51,246.74a5.29,5.29,0,0,1-.66-.2h0a.14.14,0,0,1-.18.07l-6.24,3.12.06.44,2.33-1.14Z"/>
      <path class="fe35d2a6-5e36-45e2-92c8-0c867560c6c8" d="M233.87,240.89a.13.13,0,0,1-.11.16,8.27,8.27,0,0,0-2.86,1.6l0,0s.15.1.55,0a10,10,0,0,1,1.26-.9l.13-.07a2.36,2.36,0,0,1,1-.33.15.15,0,0,1,.16.12.14.14,0,0,1-.12.16,2,2,0,0,0-.9.3l-.13.06a9.74,9.74,0,0,0-1.1.79.16.16,0,0,1-.11.12h-.06c-.43.34-.85.69-1.08.89l0,0s.18.11.67,0a.12.12,0,0,1,.1,0l.22-.19a7.12,7.12,0,0,1,.65-.54,7.21,7.21,0,0,1,.88-.55,3.42,3.42,0,0,1,1.2-.45.14.14,0,0,1,.17.1.14.14,0,0,1-.11.17,3.29,3.29,0,0,0-1.13.42,8.17,8.17,0,0,0-.85.54,7.85,7.85,0,0,0-.62.51c-.19.17-.38.34-.56.48a.18.18,0,0,0,.09.07c.32.14,1.1-.26,1.68-.55a3,3,0,0,1,1.13-.44.14.14,0,0,1,.13.14,16.13,16.13,0,0,0,1.68-.23l.38-.08.38,0,.24-.05,0,.05-.07,0a2.82,2.82,0,0,0-1.67,1.39.19.19,0,0,0,.23.26l2-.68s.21-.09.46-.23c.45-.23,1.07-.64,1.12-1.17a6.7,6.7,0,0,0,0-.91,5.58,5.58,0,0,0-.05-.73,2.27,2.27,0,0,0,.07-.39,1.33,1.33,0,0,0-.9-.94,3.9,3.9,0,0,0-2.52.42l-1.74.52A.1.1,0,0,1,233.87,240.89Zm-.5,1.12-.1,0Z"/>
      <path class="fe35d2a6-5e36-45e2-92c8-0c867560c6c8" d="M232.69,241.15a.46.46,0,0,0-.14.07l.15-.08Z"/>
      <path class="ec6e0540-9e13-4887-bc08-439498dce9e2" d="M234.18,243.61h0a.14.14,0,0,0-.13-.14,3,3,0,0,0-1.13.44c-.58.29-1.36.69-1.68.55a.18.18,0,0,1-.09-.07c.18-.14.37-.31.56-.48a7.85,7.85,0,0,1,.62-.51,8.17,8.17,0,0,1,.85-.54,3.29,3.29,0,0,1,1.13-.42.14.14,0,0,0,.11-.17.14.14,0,0,0-.17-.1,3.42,3.42,0,0,0-1.2.45,7.21,7.21,0,0,0-.88.55,7.12,7.12,0,0,0-.65.54l-.22.19a.12.12,0,0,0-.1,0c-.49.11-.63,0-.67,0l0,0c.23-.2.65-.55,1.08-.89h.06a.16.16,0,0,0,.11-.12,9.74,9.74,0,0,1,1.1-.79L233,242a2,2,0,0,1,.9-.3.14.14,0,0,0,.12-.16.15.15,0,0,0-.16-.12,2.36,2.36,0,0,0-1,.33l-.13.07a10,10,0,0,0-1.26.9c-.4.08-.52,0-.55,0l0,0a8.27,8.27,0,0,1,2.86-1.6.13.13,0,0,0,.11-.16.1.1,0,0,0-.05-.08.11.11,0,0,0-.11,0,4.25,4.25,0,0,0-1,.36l-.15.08a10.22,10.22,0,0,0-1.89,1.27l0,0v0a.4.4,0,0,0,.1.32.54.54,0,0,0,.36.13c-.35.29-.66.54-.8.68l0,0v0a.37.37,0,0,0,.11.32.58.58,0,0,0,.43.14h.12l0,0h0a.08.08,0,0,0,0,0h0v0h0a.52.52,0,0,0,.29.34.76.76,0,0,0,.27,0,4.45,4.45,0,0,0,1.64-.61,3.41,3.41,0,0,1,1-.41h.06A.14.14,0,0,0,234.18,243.61Z"/>
      <path class="ac87aca2-81e8-4885-8fb4-2385bc5ed2ec" d="M273.73,237.31a25.23,25.23,0,0,0,1.71,4.37,66.37,66.37,0,0,0-10.14,2.59l-1,.31a1.09,1.09,0,0,0,.35,2l.85-.14.79.08c3.57.37,6.94,1.16,9.72,1,1-.06,1.85.21,2.65-.4a3.7,3.7,0,0,0,1.49-2.42h0a23.85,23.85,0,0,0,0-6.13,30.82,30.82,0,0,0-.72-4C278.44,237.47,274.73,237.38,273.73,237.31Z"/>
      <path class="abc4a2db-32b7-4cdb-86cc-7fb89abd426f" d="M279.45,234.53v0c-.23-5-3-10.15-5.17-11.42a3,3,0,0,0-.95-.39,3.14,3.14,0,0,0-3.65,1.79,6.52,6.52,0,0,0,.31,6.13l3.49,6.66.25,0C274.73,237.38,278.44,237.47,279.45,234.53Z"/>
      <path class="ab2cf175-c761-46a0-909d-18534bd64e09" d="M239.6,241.75l1.13,5.82,0,.15,13.72,2.46-.06-.44-.16-1.12-.54-3.77-.1-.68-1-6.64-.88-.12-.42-.06-7.74-1.07-5.23-.72.7,3.6Zm7.27,1.32c-.45.44-1.36,1.17-1.36,1.17s-1.3-1.37-1.34-2a.62.62,0,0,1,1.06-.42l.33.37a1.55,1.55,0,0,1,1-.45C247.1,241.83,247.32,242.63,246.87,243.07Z"/>
      <path class="b8777744-d8be-43c2-af39-2e3a2c77f851" d="M261.08,256.7c1.11-.07,1.92-1.53,1.81-3.25s-1.11-3-2.22-3-1.92,1.53-1.8,3.25S260,256.77,261.08,256.7Z"/>
      <path class="fe9ba9dc-3b47-4938-9552-ff5861eb2979" d="M246.58,241.78a1.55,1.55,0,0,0-1,.45l-.33-.37a.62.62,0,0,0-1.06.42c0,.59,1.34,2,1.34,2s.91-.73,1.36-1.17S247.1,241.83,246.58,241.78Z"/>
      <path class="fe35d2a6-5e36-45e2-92c8-0c867560c6c8" d="M260.41,243.71a.38.38,0,0,0-.15,0h.15Z"/>
      <path class="fe35d2a6-5e36-45e2-92c8-0c867560c6c8" d="M265.52,246.41l-.85.14a1.09,1.09,0,0,1-.35-2l1-.31a5.62,5.62,0,0,0-1.91-.26l-1.8-.18a.13.13,0,0,1,0,.09.14.14,0,0,1-.16.11,8.38,8.38,0,0,0-3.26.38,0,0,0,0,0,0,0s.1.15.5.23a10.26,10.26,0,0,1,1.51-.35h.14a2.38,2.38,0,0,1,1,.07.15.15,0,0,1,.1.17.14.14,0,0,1-.16.11,2.11,2.11,0,0,0-.95-.07h-.15a10.18,10.18,0,0,0-1.32.3.14.14,0,0,1-.12.07h-.08c-.53.15-1.05.31-1.34.41,0,0,0,0,0,0s.12.17.62.25a.1.1,0,0,1,.08.05l.28-.1c.28-.09.57-.19.81-.25a8.35,8.35,0,0,1,1-.17,3.92,3.92,0,0,1,1.28,0,.15.15,0,0,1,.12.16.14.14,0,0,1-.16.12,3.58,3.58,0,0,0-1.22,0,8.37,8.37,0,0,0-1,.17,6.58,6.58,0,0,0-.77.24l-.7.22a.19.19,0,0,0,.06.1c.24.25,1.12.18,1.76.13a3.09,3.09,0,0,1,1.21,0,.15.15,0,0,1,.07.18,5.29,5.29,0,0,0,.66.2c.64.17,1.36.31,1.36.31a4.16,4.16,0,0,0,.66.15,3.84,3.84,0,0,0,2.78-.71Zm-4.81-1.64h0Z"/>
      <path class="ec6e0540-9e13-4887-bc08-439498dce9e2" d="M257.21,245.13l0,0,0,0a.28.28,0,0,0-.05.13.4.4,0,0,0,0,.21.73.73,0,0,0,.47.33h-.07l0,0h0v0h0a.49.49,0,0,0,.14.42,1.25,1.25,0,0,0,.82.26h.21c.3,0,.63,0,.95,0a3.67,3.67,0,0,1,1.07,0h0a.14.14,0,0,0,.18-.07h0a.15.15,0,0,0-.07-.18,3.09,3.09,0,0,0-1.21,0c-.64,0-1.52.12-1.76-.13a.19.19,0,0,1-.06-.1l.7-.22a6.58,6.58,0,0,1,.77-.24,8.37,8.37,0,0,1,1-.17,3.58,3.58,0,0,1,1.22,0,.14.14,0,0,0,.16-.12.15.15,0,0,0-.12-.16,3.92,3.92,0,0,0-1.28,0,8.35,8.35,0,0,0-1,.17c-.24.06-.53.16-.81.25l-.28.1a.1.1,0,0,0-.08-.05c-.5-.08-.6-.21-.62-.25s0,0,0,0c.29-.1.81-.26,1.34-.41h.08a.14.14,0,0,0,.12-.07,10.18,10.18,0,0,1,1.32-.3h.15a2.11,2.11,0,0,1,.95.07.14.14,0,0,0,.16-.11.15.15,0,0,0-.1-.17,2.38,2.38,0,0,0-1-.07h-.14a10.26,10.26,0,0,0-1.51.35c-.4-.08-.48-.19-.5-.23a0,0,0,0,1,0,0,8.38,8.38,0,0,1,3.26-.38.14.14,0,0,0,.16-.11.13.13,0,0,0,0-.09.12.12,0,0,0-.1-.07,3.7,3.7,0,0,0-1.07,0h-.16a10.06,10.06,0,0,0-2.24.45h0l0,0a.36.36,0,0,0,0,.33.55.55,0,0,0,.28.26l-.07,0C257.73,245,257.38,245.07,257.21,245.13Z"/>
    </g>
    <g>
      <path class="b032b730-5c45-4446-be88-5bd0ee4758d2" d="M30.94,247.07c.7-.69,2.69-1.28,4-1.65h0l.64-.19v0a4.43,4.43,0,0,0,.64-2.31,10.3,10.3,0,0,1-2.88.39q-.15-.45-.3-1a2.5,2.5,0,0,1-1.59-2.21,3.21,3.21,0,0,1,.57-2.45c0-.23-.05-.46-.08-.69a.16.16,0,0,1-.13-.27l.1-.08,0-.44a17.2,17.2,0,0,0-1,11l0,0Z"/>
      <path class="b032b730-5c45-4446-be88-5bd0ee4758d2" d="M35.38,246.61a2.57,2.57,0,0,1-.43-1.19A2.42,2.42,0,0,0,35.38,246.61Z"/>
      <path class="b032b730-5c45-4446-be88-5bd0ee4758d2" d="M54,255.72a8.24,8.24,0,0,1-2.69-4c-.32-1.07-.55-2.17-.78-3.27-.58-2.79-1.11-5.6-1.86-8.35-1.06-3.87-3.34-10.38-8.78-10.72h-.44a5.18,5.18,0,0,0-2.82-.55c-4.5.19-6.49,4-5.2,6.83a2.85,2.85,0,0,0,.4,0c2.23-.33,5.21-2.35,6.31-3.14.06.48.51,4.08,1.41,5,.25-.34,1.83-2.43,2.53-1.57s-.22,2.6-1.43,3.26a1.52,1.52,0,0,1,.21.8,2.8,2.8,0,0,1-1,2,8.32,8.32,0,0,0,.16,4.7,3.43,3.43,0,0,0,.51.84c.77.94,2.12,1.49,4.35,1.26a15.37,15.37,0,0,0,2.11-.4h.05c3.77,1.48.76,9,.76,9a3.18,3.18,0,0,1-.35,0c-.13.46-.27.92-.43,1.37-.41,1.14-1,2.22-1.49,3.31.37,1,1.09,2.43,1.62,4,3.16-.38,7.07-1.19,8.52-3.82C57,260,55.83,257.35,54,255.72Z"/>
      <path class="f2882623-c734-4312-96b4-ee219e7c5be6" d="M15.33,238.77s2.48-1.81.54-5.2S4.35,232,3.93,235.33s3.5,5.65,8,5a4.47,4.47,0,0,0,1.82-.56l2.2,2.07Zm-3.16-2.93a3.24,3.24,0,0,1-.82,1.24,5.37,5.37,0,0,1-.57.5,2,2,0,0,1-.45.32s-.23-.12-.26-.15l-.29-.24L9.2,237c-.43-.41-1.24-1.12-.83-1.77A1,1,0,0,1,9.79,235a.81.81,0,0,1,.36.57,1.19,1.19,0,0,1,.38-.8,1.54,1.54,0,0,1,.76-.46,1,1,0,0,1,.38,0,.68.68,0,0,1,.36.26A1.47,1.47,0,0,1,12.17,235.84Z"/>
      <path class="b7011706-fbb3-4bc9-aa06-cb01524a2df0" d="M27.9,267.09a18.13,18.13,0,0,1,1.53-6.44l.24-.5c.06-.11.56-.95.28-1a2.47,2.47,0,0,1-1.7-2.32,3.35,3.35,0,0,1,.45-2,5.38,5.38,0,0,1-1.56-1.24,26,26,0,0,0-.72,5.57c-1.65-1.5-3.44-3.07-4.7-4.05a.62.62,0,0,1-.38,0c-.1.43-.44.86-1.48.75,1.47,5.3,5.53,10.38,8,12C27.91,267.57,27.91,267.33,27.9,267.09Z"/>
      <path class="b032b730-5c45-4446-be88-5bd0ee4758d2" d="M45.83,326.24l-.59.59c-.57.58-1.14,1.16-1.76,1.7a9,9,0,0,1-1.54,1.2,5.44,5.44,0,0,1-1.78.51,17.71,17.71,0,0,1-2.91.19c-.08,0-.18,0-.22-.08s.06.95.4,1a28.33,28.33,0,0,0,4.93-.29,19.83,19.83,0,0,0,4.18-2l-.23-3.38C46.25,325.9,46,326.08,45.83,326.24Z"/>
      <path class="b7011706-fbb3-4bc9-aa06-cb01524a2df0" d="M32.69,316.74h0l1,3.64h0c-.37.88-.53,1.85-.9,2.86A7.19,7.19,0,0,1,32,325a5,5,0,0,1,.83.62c2.28-1.12,2.28-3.67,3.31-5.62a1.26,1.26,0,0,1,.2-.27h0c0-.69.1-2.09.15-3.3A3.34,3.34,0,0,1,32.69,316.74Z"/>
      <path class="b7011706-fbb3-4bc9-aa06-cb01524a2df0" d="M41.57,319.51l.46,3.08h0c-.34.87-.51,1.82-.87,2.81a7.19,7.19,0,0,1-.84,1.74,4.92,4.92,0,0,1,.83.61c2.28-1.12,2.28-3.66,3.31-5.61a1.05,1.05,0,0,1,.2-.27l0,0a13.45,13.45,0,0,0,.36-2.74A3.06,3.06,0,0,1,41.57,319.51Z"/>
      <path class="aa4e8863-bce2-473c-b33b-bb1a28f2171a" d="M44.46,322.14c-1,1.95-1,4.49-3.31,5.61a4.92,4.92,0,0,0-.83-.61,1.58,1.58,0,0,1-.23.22,4,4,0,0,1-1.5.9,2,2,0,0,0-1.45,1.1,2.69,2.69,0,0,0-.14.8.26.26,0,0,0,0,.19c0,.07.14.08.22.08a17.71,17.71,0,0,0,2.91-.19,5.44,5.44,0,0,0,1.78-.51,9,9,0,0,0,1.54-1.2c.62-.54,1.19-1.12,1.76-1.7l.59-.59c.16-.16.42-.34.48-.56a3.71,3.71,0,0,0-1.65-3.81A1.05,1.05,0,0,0,44.46,322.14Z"/>
      <path class="b032b730-5c45-4446-be88-5bd0ee4758d2" d="M37.46,324.08l-.58.59c-.58.57-1.15,1.15-1.77,1.7a9,9,0,0,1-1.54,1.19,5.21,5.21,0,0,1-1.78.51,17.71,17.71,0,0,1-2.91.19.25.25,0,0,1-.22-.08s.06,1,.4,1a30.49,30.49,0,0,0,4.93-.29,20.39,20.39,0,0,0,4.19-2l-.24-3.37C37.88,323.74,37.62,323.92,37.46,324.08Z"/>
      <path class="aa4e8863-bce2-473c-b33b-bb1a28f2171a" d="M36.09,320c-1,1.95-1,4.5-3.31,5.62A5,5,0,0,0,32,325a2.39,2.39,0,0,1-.22.23,4.08,4.08,0,0,1-1.51.89,2,2,0,0,0-1.45,1.1,2.69,2.69,0,0,0-.14.8.3.3,0,0,0,0,.19.25.25,0,0,0,.22.08,17.71,17.71,0,0,0,2.91-.19,5.21,5.21,0,0,0,1.78-.51,9,9,0,0,0,1.54-1.19c.62-.55,1.19-1.13,1.77-1.7l.58-.59c.16-.16.42-.34.48-.56a3.7,3.7,0,0,0-1.64-3.82h0A1.26,1.26,0,0,0,36.09,320Z"/>
      <path class="a8d35903-5ef3-4922-bee6-6df975b81efd" d="M35.81,274.76l-7.06-.63c0-.08-.05-.17-.08-.25a35.84,35.84,0,0,0-1.05,4.71c-1.23,7.81-1.93,18-1.67,18.34,1.86,8,6,19.26,6.72,19.8h0a3.34,3.34,0,0,0,3.76-.34l.18-.15S39.22,304.8,32.28,297c2-2.73,3.66-10.7,3.72-15.83.27-.12.54-.13.59.2.17,1.23-1.59,15.18-1.29,17v0c.77,8.19,5.7,20.43,6.05,21l.23.12a3.06,3.06,0,0,0,3.4-.42,2.71,2.71,0,0,0,.23-.22s3.4-13.38-3.43-21.39c.8-4,6.1-11.59,6.73-17.48a14.36,14.36,0,0,0-1.08-7.44,2,2,0,0,0-.08.22C43.8,276.08,35.81,274.76,35.81,274.76Zm-6.24,23.15s2.15,0,2.67-.61C32.92,298.17,31.33,298.65,29.57,297.91Zm6.24-19.55v0Zm6,19.43c.69.87-.9,1.35-2.66.61C39.18,298.4,41.33,298.39,41.84,297.79Z"/>
      <path class="bb61d200-7782-42a7-aa47-7b1746375f8c" d="M28.7,254.77l.15-.19c.78-.84,1.76-5.22,1.76-5.22a10.35,10.35,0,0,1,.29-2.23l0,0a6.82,6.82,0,0,0-4.33,5.44,3.93,3.93,0,0,0,.62.94A5.38,5.38,0,0,0,28.7,254.77Z"/>
      <path class="aa4e8863-bce2-473c-b33b-bb1a28f2171a" d="M34.42,250.47l0,.11Z"/>
      <path class="aa4e8863-bce2-473c-b33b-bb1a28f2171a" d="M37.6,248a2.43,2.43,0,0,1-1.32-.47,1.33,1.33,0,0,1,0,.6l.14-.21a.14.14,0,0,1,.24,0,.14.14,0,0,1,.08.09,1.69,1.69,0,0,1,0,.94,6.49,6.49,0,0,0-.74,2.15,11.54,11.54,0,0,1-.11,1.93c.31-.57.66-1.21.77-1.36s.76,0,.76,0a27.45,27.45,0,0,0-1.14,2.91A1.85,1.85,0,0,1,34.23,256l4.88,8.66a65.89,65.89,0,0,1,2.8-8.45l-.46-.22c.81-3.76,2-6.16,3.48-7.12-2.23.23-3.58-.32-4.35-1.26A6.23,6.23,0,0,1,37.6,248Z"/>
      <path class="aa4e8863-bce2-473c-b33b-bb1a28f2171a" d="M45.54,262.16c-1,2.11-2.79,7.07-7.39,7.33-5.95-2.29-5.62-14.22-5.62-14.22h0a3,3,0,0,1,.09-1.71l.39-2.05c0-.06.5-1.67.54-1.72L34.73,248a.17.17,0,0,1,.3,0,1.2,1.2,0,0,1,0,.56q.44-.65.9-1.26l0,0a3.28,3.28,0,0,1-.62-.72,2.42,2.42,0,0,1-.43-1.19h0c-1.32.37-3.31,1-4,1.65l0,.06a10.35,10.35,0,0,0-.29,2.23s-1,4.38-1.76,5.22l-.15.19a3.35,3.35,0,0,0-.45,2,2.47,2.47,0,0,0,1.7,2.32c.28.06-.22.9-.28,1l-.24.5a18.13,18.13,0,0,0-1.53,6.44c0,.24,0,.48,0,.71a15.8,15.8,0,0,0,.77,6.08c0,.08,0,.17.08.25l7.06.63s8,1.32,11.53-2a2,2,0,0,1,.08-.22,9.8,9.8,0,0,0-.22-6.44c-.53-1.61-1.25-3-1.62-4Z"/>
      <path class="aa4e8863-bce2-473c-b33b-bb1a28f2171a" d="M34.08,255.9l.15.06.09-.18A1.34,1.34,0,0,1,34.08,255.9Z"/>
      <path class="bb61d200-7782-42a7-aa47-7b1746375f8c" d="M35.59,245.23l-.64.19h0a2.57,2.57,0,0,0,.43,1.19,3.28,3.28,0,0,0,.62.72c.07-.07.17,0,.2.08a.11.11,0,0,1,.06.07.25.25,0,0,0,0,.07,2.43,2.43,0,0,0,1.32.47,6.23,6.23,0,0,0,3-.45,3.43,3.43,0,0,1-.51-.84C37.93,248,35.55,245.7,35.59,245.23Z"/>
      <path class="f4f6ee86-facc-43d4-b826-f91a773e9e4f" d="M36.31,242.88h0l-.08,0a4.43,4.43,0,0,1-.64,2.31v0c0,.47,2.34,2.81,4.48,1.5a8.32,8.32,0,0,1-.16-4.7A4.42,4.42,0,0,1,36.31,242.88Z"/>
      <path class="b7011706-fbb3-4bc9-aa06-cb01524a2df0" d="M32.66,236.4c.2,0,.28.27.08.31a1.26,1.26,0,0,0-.69.22.19.19,0,0,1-.1,0c0,.23.05.46.08.69a3.21,3.21,0,0,0-.57,2.45,2.5,2.5,0,0,0,1.59,2.21q.15.51.3,1a10.3,10.3,0,0,0,2.88-.39l.08,0h0a4.42,4.42,0,0,0,3.6-.85,2.8,2.8,0,0,0,1-2,1.52,1.52,0,0,0-.21-.8c1.21-.66,2-2.53,1.43-3.26s-2.28,1.23-2.53,1.57c-.9-.94-1.35-4.54-1.41-5-1.1.79-4.08,2.81-6.31,3.14,0,.19,0,.37,0,.56l0,.44A1.73,1.73,0,0,1,32.66,236.4Zm-.35,1.08a.29.29,0,0,1,.39.09.28.28,0,0,1-.1.39.28.28,0,0,1-.38-.1A.28.28,0,0,1,32.31,237.48Zm1.78,3.73h0c-.21,0-.21-.32,0-.32a5.46,5.46,0,0,0,3.45-1.41c.15-.14.38.09.23.23l-.2.17a3.37,3.37,0,0,1-2,1.59A1.37,1.37,0,0,1,34.09,241.21Zm1.23-3.9a.28.28,0,0,1,.38.09.28.28,0,1,1-.48.29A.27.27,0,0,1,35.32,237.31Zm4.71.43a1.89,1.89,0,0,1,1.45-1.24c.2,0,.29.28.09.31a1.56,1.56,0,0,0-1.23,1C40.27,238,40,237.93,40,237.74ZM37.46,239a.85.85,0,0,1,.95.84c0,.21-.31.21-.32,0a.54.54,0,0,0-.63-.52C37.26,239.29,37.26,239,37.46,239Zm-2.58-2.87c.74-.08,1.7-.09,2.12.62a.16.16,0,0,1-.28.16c-.34-.58-1.25-.52-1.84-.46C34.68,236.42,34.68,236.1,34.88,236.08Zm-1.42.54a.38.38,0,0,1,0-.19c.16-.29.39.08.43.23a1.43,1.43,0,0,1,0,.16c0,.91.08,1.82.11,2.74a.58.58,0,0,1,0,.26c-.12.31-.69.28-.95.26a.41.41,0,0,1-.28-.11.33.33,0,0,1-.06-.27,1.41,1.41,0,0,1,.14-.44A5.87,5.87,0,0,0,33.46,236.62Z"/>
      <path class="f4f6ee86-facc-43d4-b826-f91a773e9e4f" d="M32.75,239.7a.33.33,0,0,0,.06.27.41.41,0,0,0,.28.11c.26,0,.83,0,.95-.26a.58.58,0,0,0,0-.26c0-.92-.07-1.83-.11-2.74a1.43,1.43,0,0,0,0-.16c0-.15-.27-.52-.43-.23a.38.38,0,0,0,0,.19,5.87,5.87,0,0,1-.57,2.64A1.41,1.41,0,0,0,32.75,239.7Z"/>
      <path class="b032b730-5c45-4446-be88-5bd0ee4758d2" d="M35.61,237.79a.29.29,0,0,0,.09-.39.28.28,0,0,0-.38-.09.27.27,0,0,0-.1.38A.29.29,0,0,0,35.61,237.79Z"/>
      <path class="b032b730-5c45-4446-be88-5bd0ee4758d2" d="M32.22,237.86a.28.28,0,0,0,.38.1.28.28,0,0,0,.1-.39.29.29,0,0,0-.39-.09A.28.28,0,0,0,32.22,237.86Z"/>
      <path class="b5870fb8-66c4-45e3-8ca6-6a677614d88d" d="M34.88,236.4c.59-.06,1.5-.12,1.84.46a.16.16,0,0,0,.28-.16c-.42-.71-1.38-.7-2.12-.62C34.68,236.1,34.68,236.42,34.88,236.4Z"/>
      <path class="b5870fb8-66c4-45e3-8ca6-6a677614d88d" d="M32.74,236.71c.2,0,.12-.35-.08-.31a1.73,1.73,0,0,0-.74.23l-.1.08A.16.16,0,0,0,32,237a.19.19,0,0,0,.1,0A1.26,1.26,0,0,1,32.74,236.71Z"/>
      <path class="b182332a-e90f-4639-8df0-b46f8fb31556" d="M40.34,237.82a1.56,1.56,0,0,1,1.23-1c.2,0,.11-.34-.09-.31A1.89,1.89,0,0,0,40,237.74C40,237.93,40.27,238,40.34,237.82Z"/>
      <path class="f4f6ee86-facc-43d4-b826-f91a773e9e4f" d="M41.91,256.17a65.89,65.89,0,0,0-2.8,8.45L34.23,256l-.15-.06a1.34,1.34,0,0,0,.24-.12l-.09.18a1.85,1.85,0,0,0,2.08-1.32,27.45,27.45,0,0,1,1.14-2.91s-.57-.3-.76,0-.46.79-.77,1.36a11.54,11.54,0,0,0,.11-1.93,6.49,6.49,0,0,1,.74-2.15,1.69,1.69,0,0,0,0-.94.14.14,0,0,0-.08-.09.1.1,0,0,1,0,.13c-.36.58-.82,1.08-1.15,1.67a5.32,5.32,0,0,0-.64,1.76c0,.18-.3.1-.27-.08a5.31,5.31,0,0,1,.59-1.69c.31-.57.73-1.05,1.09-1.59a1.33,1.33,0,0,0,0-.6.25.25,0,0,1,0-.07.11.11,0,0,0-.06-.07.12.12,0,0,1,0,.14c-.42.54-.81,1.11-1.18,1.68a4.26,4.26,0,0,0-.78,1.89c0,.18-.3.18-.28,0a4.34,4.34,0,0,1,.76-2c.13-.19.25-.38.38-.56a1.2,1.2,0,0,0,0-.56.17.17,0,0,0-.3,0l-1.18,1.77c0,.05-.52,1.66-.54,1.72l-.39,2.05a3,3,0,0,0-.09,1.71h0s-.33,11.93,5.62,14.22c4.6-.26,6.36-5.22,7.39-7.33l0-.08c.52-1.09,1.08-2.17,1.49-3.31.16-.45.3-.91.43-1.37A15.64,15.64,0,0,1,41.91,256.17Zm-7.52-5.59,0-.11Z"/>
      <path class="bb61d200-7782-42a7-aa47-7b1746375f8c" d="M41.45,256l.46.22a15.64,15.64,0,0,0,5.59,1.23,3.18,3.18,0,0,0,.35,0s3-7.49-.76-9H47a15.37,15.37,0,0,1-2.11.4C43.48,249.79,42.26,252.19,41.45,256Z"/>
      <path class="a5eb05dc-7af2-4ccf-b104-ea4a46b377c2" d="M37.54,239.88a5.82,5.82,0,0,1-3.45,1.33,1.37,1.37,0,0,0,1.45.26A3.37,3.37,0,0,0,37.54,239.88Z"/>
      <path class="b182332a-e90f-4639-8df0-b46f8fb31556" d="M37.74,239.71c.15-.14-.08-.37-.23-.23a5.46,5.46,0,0,1-3.45,1.41c-.21,0-.21.33,0,.32h0a5.82,5.82,0,0,0,3.45-1.33Z"/>
      <path class="a172442e-9a8a-4a90-bced-23671a328e60" d="M29.57,297.91c1.76.74,3.35.26,2.67-.61C31.72,297.9,29.57,297.91,29.57,297.91Z"/>
      <path class="a172442e-9a8a-4a90-bced-23671a328e60" d="M41.84,297.79c-.51.6-2.66.61-2.66.61C40.94,299.14,42.53,298.66,41.84,297.79Z"/>
      <path class="ac87aca2-81e8-4885-8fb4-2385bc5ed2ec" d="M21.34,255.05a.62.62,0,0,0,.38,0l.05,0a10.83,10.83,0,0,0,.37-2.39c-.05-.79-1.28-3.3-1.25-3.77s-.69-.05-.77.46a16.72,16.72,0,0,1,.92,3.32c-.09.35-1.59,1.19-2.73,1.59a1.17,1.17,0,0,1-1.47-.69c-.09-.23-.19-.49-.29-.78a.47.47,0,0,0,.29-.42c0-.26-.3-.42-.55-.46a.46.46,0,0,0,.28-.47c0-.28-.4-.4-.65-.38a.26.26,0,0,0-.24.1c-.39.43.19.9.19.9h.05c-.31.37.15.85.15.85a4.45,4.45,0,0,0,3.43,2.87l.36.05C20.9,255.91,21.24,255.48,21.34,255.05Z"/>
      <path class="b5870fb8-66c4-45e3-8ca6-6a677614d88d" d="M16.57,251.42a.46.46,0,0,1-.28.47c.25,0,.55.2.55.46a.47.47,0,0,1-.29.42c.1.29.2.55.29.78a1.17,1.17,0,0,0,1.47.69c1.14-.4,2.64-1.24,2.73-1.59a16.72,16.72,0,0,0-.92-3.32,29.39,29.39,0,0,0-1.95-4.9c-.45-.36-3.17.65-3.53,1.67a3.61,3.61,0,0,0,.19,1.49c.25,0,.63.17.63.46a.5.5,0,0,1-.38.46c.14.45.29.94.46,1.43.25,0,.62.1.65.38s-.14.41-.35.51l.08.21C16.17,251,16.53,251.14,16.57,251.42Zm3,1.87a.44.44,0,1,1,.18-.59A.44.44,0,0,1,19.54,253.29Zm-4.3-6.95,2.93-1.46,2.23,6.66-2.92,1.56Z"/>
      <path class="ac87aca2-81e8-4885-8fb4-2385bc5ed2ec" d="M15.46,248.05c0-.29-.38-.46-.63-.46-.1,0-.18,0-.21.07-.45.39.07.92.07.92a1.11,1.11,0,0,0,.39-.07A.5.5,0,0,0,15.46,248.05Z"/>
      <path class="ac87aca2-81e8-4885-8fb4-2385bc5ed2ec" d="M16.19,250.32c0-.28-.4-.4-.65-.38s-.2,0-.23.1c-.4.43.18.9.18.9a1.18,1.18,0,0,0,.35-.11C16.05,250.73,16.23,250.57,16.19,250.32Z"/>
      <path class="a5eb05dc-7af2-4ccf-b104-ea4a46b377c2" d="M17.48,253.1l2.92-1.56-2.23-6.66-2.93,1.46Zm2-3.3-1.9.74-.23-.76,1.85-.78ZM18,245.6l.42,1.06-1.89.8-.37-1.07ZM16,248l1.84-.78L18.5,249l-1.89.81Zm2.91,2.29.41,1.06-1.89.81-.37-1.08Z"/>
      <path class="bd613a6e-ac8d-4972-b14f-e99c95acdbd4" d="M19.13,252.52a.44.44,0,1,0,.41.77.44.44,0,0,0-.41-.77Z"/>
      <polygon class="a526c66d-1301-47be-bbc2-8b52aa4697a8" points="18.46 246.66 18.04 245.6 16.2 246.39 16.57 247.46 18.46 246.66"/>
      <polygon class="a526c66d-1301-47be-bbc2-8b52aa4697a8" points="19.34 251.38 18.92 250.32 17.07 251.11 17.44 252.19 19.34 251.38"/>
      <polygon class="a526c66d-1301-47be-bbc2-8b52aa4697a8" points="17.56 250.54 19.46 249.8 19.18 249 17.33 249.78 17.56 250.54"/>
      <polygon class="a526c66d-1301-47be-bbc2-8b52aa4697a8" points="17.86 247.25 16.01 248.03 16.61 249.77 18.5 248.97 17.86 247.25"/>
      <path class="bb61d200-7782-42a7-aa47-7b1746375f8c" d="M11.67,234.29a1,1,0,0,0-.38,0,1.54,1.54,0,0,0-.76.46,1.19,1.19,0,0,0-.38.8.81.81,0,0,0-.36-.57,1,1,0,0,0-1.42.23c-.41.65.4,1.36.83,1.77l.58.52.29.24s.22.17.26.15a2,2,0,0,0,.45-.32,5.37,5.37,0,0,0,.57-.5,3.24,3.24,0,0,0,.82-1.24,1.47,1.47,0,0,0-.14-1.29A.68.68,0,0,0,11.67,234.29Z"/>
      <path class="b5db9ae0-688f-4ee8-ab8f-f73d634c4fc2" d="M34.6,251.43c0,.18.24.26.27.08a5.32,5.32,0,0,1,.64-1.76c.33-.59.79-1.09,1.15-1.67a.1.1,0,0,0,0-.13.14.14,0,0,0-.24,0l-.14.21c-.36.54-.78,1-1.09,1.59A5.31,5.31,0,0,0,34.6,251.43Z"/>
      <path class="b5db9ae0-688f-4ee8-ab8f-f73d634c4fc2" d="M33.94,251.12c0,.18.26.18.28,0a4.26,4.26,0,0,1,.78-1.89c.37-.57.76-1.14,1.18-1.68a.12.12,0,0,0,0-.14c0-.09-.13-.15-.2-.08l0,0q-.46.61-.9,1.26c-.13.18-.25.37-.38.56A4.34,4.34,0,0,0,33.94,251.12Z"/>
      <path class="b182332a-e90f-4639-8df0-b46f8fb31556" d="M37.46,239.27a.54.54,0,0,1,.63.52c0,.21.33.21.32,0a.85.85,0,0,0-.95-.84C37.26,239,37.26,239.29,37.46,239.27Z"/>
    </g>
    <g>
      <path class="a029c60f-722e-4af1-9a3a-d9d5140a6054" d="M325.92,275.59h0c-1.54-2-3.2-3.47-4-4.51-1.08-1.36-6.54-7.27-8.36-7.54h0a33.74,33.74,0,0,0-5.21-.87l1.19.22,0,10.77-3.08,25.49s-.84,8.15,7.3,5.54h0a3.29,3.29,0,0,0,.6-.49c.46-.23-.42-7.39-.45-9.07a97.57,97.57,0,0,1,.09-10.71c.45-1.75.78-6,1-7.3.06-.27.1-.55.14-.85,1.6,1.41,3.27,2.76,4.39,3.82a10.17,10.17,0,0,0,4.82,2.55h0c2.26.87,10.73-3.09,17.21-9.33l-3-4.07C334.27,271.55,328.06,274.34,325.92,275.59Z"/>
      <path class="a029c60f-722e-4af1-9a3a-d9d5140a6054" d="M341.6,267.9h0Z"/>
      <path class="a029c60f-722e-4af1-9a3a-d9d5140a6054" d="M343.08,269.84v-.07h0Z"/>
      <path class="a0c831f8-eeed-4fd9-b63e-cd273e6ad31f" d="M277.21,303.15a1.94,1.94,0,0,1,1.4,2.1L269,303.39a1.93,1.93,0,0,1,2.24-1.4l.4.07a2.51,2.51,0,0,1,.1-.62c.07-.23.15-.46.23-.69l-.48-.09a3.26,3.26,0,0,0-3.82,2.48l-3.28-.64-1.12-.21-.87-.17a1.23,1.23,0,0,0-1.44,1l-.17.88-.77,4a1.2,1.2,0,0,0,.56,1.27l9.1,5.59v0a.68.68,0,0,1,.8-.54l2.74.53a.68.68,0,0,1,.53.79v0l10.54-1.88a1.24,1.24,0,0,0,1-1h0l.93-4.83a1.23,1.23,0,0,0-1-1.44l-5.27-1a3.3,3.3,0,0,0-2.1-3.58,3.82,3.82,0,0,1-.35.81C277.4,302.88,277.31,303,277.21,303.15Z"/>
      <path class="a029c60f-722e-4af1-9a3a-d9d5140a6054" d="M275.9,344.51a.81.81,0,0,1,.21-.31l-.38-.31s-2.33,1.26-3.81,2.25c1.92,4.38,4.67,8.71,9.11,10.74a3.65,3.65,0,0,0-.55-2.88,13.47,13.47,0,0,1-.71-1.31c-1-2.1-1.54-4.62-1.2-5.37a.89.89,0,0,0-.17-.77l-.41.28S276.17,346.83,275.9,344.51Z"/>
      <path class="b7011706-fbb3-4bc9-aa06-cb01524a2df0" d="M277.85,342.63a17.16,17.16,0,0,0-1.74,1.57.81.81,0,0,0-.21.31c.27,2.32,2.09,2.32,2.09,2.32l.41-.28,1.34-.93A6.7,6.7,0,0,1,277.85,342.63Z"/>
      <path class="a029c60f-722e-4af1-9a3a-d9d5140a6054" d="M303.74,357.42a.34.34,0,0,1-.05-.17l-.32,0s-.86,2.63-1.24,4.38c4.44,1.75,9.33,2.79,13.91,1.18a3.67,3.67,0,0,0-2.26-1.51,12.52,12.52,0,0,1-1.72-.59c-2.06-.86-4-2.2-4.26-2.94-.09-.24-.42-.39-.87-.49l-.08.35S305.54,358.91,303.74,357.42Z"/>
      <path class="b032b730-5c45-4446-be88-5bd0ee4758d2" d="M302.13,361.66c0,.06,0,.12,0,.18a3.8,3.8,0,0,0-.12,1.21c.21.84,13.37,3.21,14.57,1a3,3,0,0,0-.5-1.24C311.46,364.45,306.57,363.41,302.13,361.66Z"/>
      <path class="b7011706-fbb3-4bc9-aa06-cb01524a2df0" d="M303.91,354.33a14.63,14.63,0,0,0-.22,2.92.34.34,0,0,0,.05.17c1.8,1.49,3.11.24,3.11.24l.08-.35.48-2.32A6.49,6.49,0,0,1,303.91,354.33Z"/>
      <path class="b032b730-5c45-4446-be88-5bd0ee4758d2" d="M271.92,346.14l-.06,0a4.29,4.29,0,0,0-1.12.93c-.43.75,7.47,11.54,9.84,10.79a2.81,2.81,0,0,0,.45-1C276.59,354.85,273.84,350.52,271.92,346.14Z"/>
      <path class="a029c60f-722e-4af1-9a3a-d9d5140a6054" d="M301.09,262.91c0-.07,0-.15,0-.22h0l0,.22Z"/>
      <path class="f4f6ee86-facc-43d4-b826-f91a773e9e4f" d="M301.05,262.44c0,.08,0,.17,0,.25s0,.15,0,.22h0a4,4,0,0,0,5.06-.11h0l0-.52a5,5,0,0,1-.89-2.57,10.21,10.21,0,0,1-2.56-1.08,4.69,4.69,0,0,1-2.18-2.3l0-.08-.29,0c.25,1.41.62,3.79.83,6.21Z"/>
      <path class="b7011706-fbb3-4bc9-aa06-cb01524a2df0" d="M300.55,256.33a4.69,4.69,0,0,0,2.18,2.3,10.21,10.21,0,0,0,2.56,1.08,11.68,11.68,0,0,0,3.29.23,35.57,35.57,0,0,0,1.13-7.27.21.21,0,0,1-.12,0,1.33,1.33,0,0,0-.76-.19c-.23,0-.23-.39,0-.37a2.05,2.05,0,0,1,.89.22,16.81,16.81,0,0,0-.08-2,4.84,4.84,0,0,1-1.4.28,7.19,7.19,0,0,1-5.81-2c-.3,1.33-1.07,4.1-2.34,4.85-.6-.6-1.46-1.31-2-1.14a.61.61,0,0,0-.32.24c-.71,1,.76,3.53,2.48,3.79l.29,0Zm8.36-2.93a.31.31,0,0,1,.43-.13.32.32,0,0,1,.14.43.34.34,0,0,1-.44.13A.32.32,0,0,1,308.91,253.4Zm-1.46-.94c0-.18.27-.61.47-.3a.51.51,0,0,1,.06.21,6.72,6.72,0,0,0,.83,3,1.68,1.68,0,0,1,.2.48.38.38,0,0,1-.06.31.44.44,0,0,1-.3.15c-.3,0-.94.12-1.1-.23a.94.94,0,0,1-.05-.3c0-1,0-2.07-.06-3.11A1.28,1.28,0,0,1,307.45,252.46Zm.17,4.8a.19.19,0,0,1,0,.37h0a1.54,1.54,0,0,1-1.63.4,3.85,3.85,0,0,1-2.39-1.65l-.25-.19c-.18-.15.08-.41.26-.26A6.14,6.14,0,0,0,307.62,257.26Zm-2.13-3.83a.32.32,0,0,1,.43-.14.32.32,0,0,1,.13.43.32.32,0,0,1-.43.14A.31.31,0,0,1,305.49,253.43Zm-1.52-.71c.42-.83,1.53-.89,2.36-.85.24,0,.24.38,0,.36-.67,0-1.7,0-2,.67C304.18,253.11,303.86,252.93,304,252.72Zm-.36,2.59c.24,0,.24.38,0,.37a.62.62,0,0,0-.66.65c0,.24-.36.24-.37,0A1,1,0,0,1,303.61,255.31Zm-5.14-1.92c-.24,0-.24-.39,0-.36a2.14,2.14,0,0,1,1.76,1.26c.09.21-.23.4-.32.18A1.78,1.78,0,0,0,298.47,253.39Z"/>
      <path class="ab9dbd2d-6f03-42f3-b55b-908c954ded62" d="M300.09,253.34c1.27-.75,2-3.52,2.34-4.85a7.19,7.19,0,0,0,5.81,2,4.84,4.84,0,0,0,1.4-.28,3.91,3.91,0,0,0,2.81-3.75,1.21,1.21,0,0,0,0-.19c-.18-2.41-2.37-3.23-4.3-3.55a9.71,9.71,0,0,0-8,2.19,2,2,0,0,0-.29.1c-2.08.87-2.58,5-1.81,7.15C298.63,252,299.49,252.74,300.09,253.34Z"/>
      <path class="f4f6ee86-facc-43d4-b826-f91a773e9e4f" d="M307.55,256.05c.16.35.8.27,1.1.23a.44.44,0,0,0,.3-.15.38.38,0,0,0,.06-.31,1.68,1.68,0,0,0-.2-.48,6.72,6.72,0,0,1-.83-3,.51.51,0,0,0-.06-.21c-.2-.31-.43.12-.47.3a1.28,1.28,0,0,0,0,.18c0,1,0,2.08.06,3.11A.94.94,0,0,0,307.55,256.05Z"/>
      <path class="b032b730-5c45-4446-be88-5bd0ee4758d2" d="M306.05,253.72a.32.32,0,0,0-.13-.43.32.32,0,0,0-.43.14.31.31,0,0,0,.13.43A.32.32,0,0,0,306.05,253.72Z"/>
      <path class="b032b730-5c45-4446-be88-5bd0ee4758d2" d="M309,253.83a.34.34,0,0,0,.44-.13.32.32,0,0,0-.14-.43.31.31,0,0,0-.43.13A.32.32,0,0,0,309,253.83Z"/>
      <path class="a9409003-81d9-4c6e-96e5-aa18547ed06b" d="M304.29,252.9c.34-.68,1.37-.7,2-.67.24,0,.24-.35,0-.36-.83,0-1.94,0-2.36.85C303.86,252.93,304.18,253.11,304.29,252.9Z"/>
      <path class="a9409003-81d9-4c6e-96e5-aa18547ed06b" d="M308.83,252.43a1.33,1.33,0,0,1,.76.19.21.21,0,0,0,.12,0c.15,0,.28-.19.14-.3a.51.51,0,0,0-.13-.09,2.05,2.05,0,0,0-.89-.22C308.6,252,308.6,252.4,308.83,252.43Z"/>
      <polygon class="a029c60f-722e-4af1-9a3a-d9d5140a6054" points="302.34 294.76 302.34 294.76 302.34 294.76 302.34 294.76"/>
      <path class="a029c60f-722e-4af1-9a3a-d9d5140a6054" d="M306.22,295.23h0l-3.88-.47Z"/>
      <path class="a029c60f-722e-4af1-9a3a-d9d5140a6054" d="M302.39,297.73s-3-19.44-3.68-23.44a65.84,65.84,0,0,1-.44-10.79c-2.26.5-5.08,1-6.57,1.85-5.26,1.5-9.79,5.21-12,7.12a23.75,23.75,0,0,0-3.11,3.47h0a1.64,1.64,0,0,0-.19.25,7.47,7.47,0,0,0-1.43,3.28c-.29,1.65-.76,4.92-1,7.43-.29,2.76-.72,5-.76,7.46l5.58,1.09c.92-4.83,2.81-9.74,3.91-14.43.09-.37.2-.76.3-1.15a66.33,66.33,0,0,0,9.55-3.95c0,.3,0,.59,0,.88,0,5.07-.34,13.41-.55,16.05-.36,4.55-.92,12.1,0,12.1l.47.2,0,0S302.87,307,302.39,297.73Z"/>
      <path class="b182332a-e90f-4639-8df0-b46f8fb31556" d="M299.91,254.47c.09.22.41,0,.32-.18a2.14,2.14,0,0,0-1.76-1.26c-.24,0-.24.34,0,.36A1.78,1.78,0,0,1,299.91,254.47Z"/>
      <path class="b7011706-fbb3-4bc9-aa06-cb01524a2df0" d="M273.07,299.35a12.61,12.61,0,0,0-.93,2.21,1.9,1.9,0,0,0-.06.75,1.18,1.18,0,0,0,.18.67c.32.29.74-.14.9-.39s.3-.6.45-.9.51,0,.38.23a4.62,4.62,0,0,1-.69,1.22c.21.27.66-.07.8-.27s.31-.62.5-.92.54,0,.38.23a6.59,6.59,0,0,1-.7,1.17.53.53,0,0,0,.69,0,2.27,2.27,0,0,0,.29-.4l.54-.77c.16-.23.54,0,.38.23l-.54.77c-.09.13-.18.28-.29.41a.66.66,0,0,0,.58.09,1.66,1.66,0,0,0,.35-.18,1,1,0,0,0,.29-.25,3.57,3.57,0,0,0,.6-.84,4,4,0,0,0-.22-3.82.19.19,0,0,1,0-.14c-.84-.12-1.86-.3-2.71-.51A3.85,3.85,0,0,0,273.07,299.35Z"/>
      <path class="b182332a-e90f-4639-8df0-b46f8fb31556" d="M276.92,298.42a.19.19,0,0,0,0,.14,4,4,0,0,1,.22,3.82,3.57,3.57,0,0,1-.6.84,1,1,0,0,1-.29.25,1.66,1.66,0,0,1-.35.18.66.66,0,0,1-.58-.09c.11-.13.2-.28.29-.41l.54-.77c.16-.24-.22-.46-.38-.23l-.54.77a2.27,2.27,0,0,1-.29.4.53.53,0,0,1-.69,0,6.59,6.59,0,0,0,.7-1.17c.16-.24-.23-.47-.38-.23s-.3.63-.5.92-.59.54-.8.27a4.62,4.62,0,0,0,.69-1.22c.13-.26-.25-.49-.38-.23s-.28.61-.45.9-.58.68-.9.39a1.18,1.18,0,0,1-.18-.67,1.9,1.9,0,0,1,.06-.75,12.61,12.61,0,0,1,.93-2.21,3.85,3.85,0,0,1,1.14-1.44l-.53-.15a4.48,4.48,0,0,0-.93,1.26,14.3,14.3,0,0,0-.81,1.73c-.08.23-.16.46-.23.69a2.51,2.51,0,0,0-.1.62,1.49,1.49,0,0,0,.45,1.33,1,1,0,0,0,.9,0,.83.83,0,0,0,1,.21,1,1,0,0,0,1.06.23,1.21,1.21,0,0,0,1.11.23,2,2,0,0,0,.69-.41,3.1,3.1,0,0,0,.44-.51c.1-.13.19-.27.28-.41a3.82,3.82,0,0,0,.35-.81,4.62,4.62,0,0,0-.43-3.44Z"/>
      <path class="a5eb05dc-7af2-4ccf-b104-ea4a46b377c2" d="M303.58,256.38A3.85,3.85,0,0,0,306,258a1.54,1.54,0,0,0,1.63-.4A6.57,6.57,0,0,1,303.58,256.38Z"/>
      <path class="b182332a-e90f-4639-8df0-b46f8fb31556" d="M303.33,256.19l.25.19a6.57,6.57,0,0,0,4,1.25h0a.19.19,0,0,0,0-.37,6.14,6.14,0,0,1-4-1.33C303.41,255.78,303.15,256,303.33,256.19Z"/>
      <path class="b182332a-e90f-4639-8df0-b46f8fb31556" d="M303,256.33a.62.62,0,0,1,.66-.65c.24,0,.24-.36,0-.37a1,1,0,0,0-1,1C302.59,256.57,303,256.57,303,256.33Z"/>
      <path class="a0c831f8-eeed-4fd9-b63e-cd273e6ad31f" d="M272.81,294.29a24.83,24.83,0,0,0-.21,2.92,2.65,2.65,0,0,0,1.08.55l.53.15c.85.21,1.87.39,2.71.51l.49.07,1.18.14.33-3.15-.16,0-5.58-1.09Z"/>
      <path class="a5eb05dc-7af2-4ccf-b104-ea4a46b377c2" d="M301.09,262.91h0c.16,2.85,1,17.92,1.26,31.85h0l3.88.47-.77-18.12.7-14.31h0A4,4,0,0,1,301.09,262.91Z"/>
      <path class="a0c831f8-eeed-4fd9-b63e-cd273e6ad31f" d="M306.39,299.15l3.08-25.49,0-10.77-1.19-.22-2.14-.39,0,.52-.7,14.31.77,18.12h0l-3.88-.47h0c-.28-13.93-1.1-29-1.26-31.85l0-.22v-.25h0l-2.77.81s0,.09,0,.25a65.84,65.84,0,0,0,.44,10.79c.71,4,3.68,23.44,3.68,23.44.48,9.22-9.86,7.45-9.87,7.45l0,0c0,.29,0,.56,0,.84h0c0,.27.05.53.08.79.73,6.49,3.74,14.28,5.27,19.73-8.22,5-20.23,15.37-20.23,15.37a6.93,6.93,0,0,0,.21.75,6.7,6.7,0,0,0,1.89,3,3.36,3.36,0,0,0,1.76.76c.78-.3,14.87-7.5,22.58-15.06l1.23-1.25a2.84,2.84,0,0,0,.78-2.24h0c.22-2.57-2.19-19.19-2.22-22.22,1.63,5.53,3.82,17.23,4.91,22.93-2.75,6.07-5.93,25.21-5.93,25.21a8,8,0,0,0,1.06.58,6.49,6.49,0,0,0,3.5.66,3.52,3.52,0,0,0,1.45-.54c.74-.49,5.31-15.53,7.14-26.2.27-.51-.76-13.42-2.31-23.56h0C305.55,307.3,306.39,299.15,306.39,299.15Z"/>
      <polygon class="a029c60f-722e-4af1-9a3a-d9d5140a6054" points="263.24 302.29 263.24 302.29 264.36 302.5 263.24 302.29"/>
      <path class="a029c60f-722e-4af1-9a3a-d9d5140a6054" d="M284.26,313.77l-10.54,1.88-.18.91a.67.67,0,0,1-.79.53l-2.74-.53a.67.67,0,0,1-.54-.79l.18-.91-9.1-5.59A1.2,1.2,0,0,1,260,308l.77-4h0l-2.25,11.71a2.12,2.12,0,0,0,1.67,2.48l21.1,4.06a2.11,2.11,0,0,0,2.47-1.68l1.5-7.75A1.24,1.24,0,0,1,284.26,313.77Z"/>
      <path class="a49571aa-634b-4afe-a4e7-7d21087d9d09" d="M270,316.56l2.74.53a.67.67,0,0,0,.79-.53l.18-.91v0a.68.68,0,0,0-.53-.79l-2.74-.53a.68.68,0,0,0-.8.54v0l-.18.91A.67.67,0,0,0,270,316.56Z"/>
      <path class="a029c60f-722e-4af1-9a3a-d9d5140a6054" d="M336.23,263.68l5.54,2.44a6.5,6.5,0,0,1,.43-.78l-4.34-1.92s8.93-5.47,9-5.47,16.83,6.6,16.83,6.6L354.87,271l-11.24-5v0a2.72,2.72,0,0,0-.23.84l4.24,1.87,7.42,3.27L366,264.36l-19.29-7.61Z"/>
      <path class="ab2cf175-c761-46a0-909d-18534bd64e09" d="M348.74,244.77l-2.07,12L366,264.36l4-13.6Zm16.73,18L347.63,256l1.73-10.22,19.26,5.69Z"/>
      <path class="edc09e2c-dad3-4ae6-bbe7-685773d31887" d="M349.36,245.75,347.63,256l17.84,6.76,3.15-11.29Zm9.75,11.41a3.26,3.26,0,0,1-1.36.3A3.23,3.23,0,0,1,355,255.9a3.26,3.26,0,0,1-.46-1.66,3.22,3.22,0,1,1,4.58,2.92Z"/>
      <path class="a0c831f8-eeed-4fd9-b63e-cd273e6ad31f" d="M342.78,264.69c.87-.62,2.64-.16,3.2-.29.32.36.21.93-.48,1s-1.64.24-1.87.56l11.24,5,8.86-6.41S347,258,346.9,258s-9,5.47-9,5.47l4.34,1.92A2.5,2.5,0,0,1,342.78,264.69Z"/>
      <path class="b7011706-fbb3-4bc9-aa06-cb01524a2df0" d="M343.62,266v0c.23-.32,1.19-.48,1.87-.56s.8-.65.48-1c-.56.13-2.33-.33-3.2.29a2.5,2.5,0,0,0-.58.65,6.5,6.5,0,0,0-.43.78,12.16,12.16,0,0,0-.56,1.32c.12.13.24.28.38.45h0c.45.55,1,1.22,1.43,1.87h0c.35,0,3.27-.23,4.33-.91l.23-.16-4.24-1.87A2.72,2.72,0,0,1,343.62,266Z"/>
      <path class="a0c831f8-eeed-4fd9-b63e-cd273e6ad31f" d="M341.6,267.9h0c-.14-.17-.26-.32-.38-.45-.36-.43-.61-.71-.61-.71l-2.36,2.1.3.41,3,4.07.4.53a24,24,0,0,0,2.13-2,4.57,4.57,0,0,0-1-2l-.05-.07C342.58,269.12,342.05,268.45,341.6,267.9Z"/>
      <path class="a0446a83-aa0e-499c-842a-0b81b4799115" d="M361,254.24a3.22,3.22,0,0,0-6.44,0,3.26,3.26,0,0,0,.46,1.66c.57-.9,1.62-2.2,2.73-1.93s1.32,1.95,1.39,3.19A3.22,3.22,0,0,0,361,254.24Zm-2.86-.44a1.13,1.13,0,1,1,1.12-1.13A1.12,1.12,0,0,1,358.11,253.8Z"/>
      <path class="a5eb05dc-7af2-4ccf-b104-ea4a46b377c2" d="M358.11,251.55a1.13,1.13,0,1,0,1.12,1.12A1.12,1.12,0,0,0,358.11,251.55Z"/>
      <path class="a5eb05dc-7af2-4ccf-b104-ea4a46b377c2" d="M357.72,254c-1.11-.27-2.16,1-2.73,1.93a3.23,3.23,0,0,0,2.76,1.56,3.26,3.26,0,0,0,1.36-.3C359,255.92,358.76,254.22,357.72,254Z"/>
    </g>
    <g>
      <path class="b6f486f5-ae84-4a05-8c8f-11b76aa10972" d="M112.18,231.52a.55.55,0,0,0,.3.45.66.66,0,0,0,.75-.23.46.46,0,0,0,0-.85A5.39,5.39,0,0,1,112.18,231.52Z"/>
      <path class="b6f486f5-ae84-4a05-8c8f-11b76aa10972" d="M114.86,234a.68.68,0,0,0,.81-.16,1.74,1.74,0,0,0,.31-.37s-.28-.95-1-.69c-.08,0-.17.1-.23.23C114.59,233.32,114.55,233.83,114.86,234Z"/>
      <path class="b6f486f5-ae84-4a05-8c8f-11b76aa10972" d="M116,235a.63.63,0,0,0,.72-.08c-.08.31,0,.76.27.89a.64.64,0,0,0,.67-.14c.3.28.57.53.8.76a1.54,1.54,0,0,1,.09,2.14c-1.07,1.17-2.84,2.58-3.32,2.51a23.54,23.54,0,0,1-3.58-2.82c-.66-.15-1.46.53-.94.71s3,3,4,3.44a6.81,6.81,0,0,0,1.38.44c.37-.64,2.08-3.33,3.87-3.53a5.81,5.81,0,0,0-1.89-4.18s-.34-.8-1-.61a.21.21,0,0,1,0-.06s-.28-.94-1-.68c-.09,0-.17.1-.24.23C115.73,234.34,115.7,234.84,116,235Z"/>
      <path class="a5eb05dc-7af2-4ccf-b104-ea4a46b377c2" d="M114.22,239.75,117.6,237l-6-5.23-.43.12a23.51,23.51,0,0,1-.18,2.59.75.75,0,0,1,.14.12.24.24,0,0,1-.2.39c-.08.55-.17,1.09-.27,1.64Z"/>
      <path class="bd613a6e-ac8d-4972-b14f-e99c95acdbd4" d="M116.86,238.79a.57.57,0,1,0-.08.8A.56.56,0,0,0,116.86,238.79Z"/>
      <path class="be689961-3d46-4f95-9faa-5baf4f8dd251" d="M67.76,290.14a14.58,14.58,0,0,0-1.1,2.61,2.23,2.23,0,0,0-.07.89,1.5,1.5,0,0,0,.2.81c.33.37.88-.09,1.07-.39a10.32,10.32,0,0,0,.58-1.15c.16-.31.62,0,.47.27a5.77,5.77,0,0,1-.84,1.49c.25.33.8-.08,1-.33s.37-.76.6-1.11.65,0,.46.27a8.17,8.17,0,0,1-.85,1.43.64.64,0,0,0,.7.06,1.49,1.49,0,0,0,.43-.5l.71-1c.2-.29.66,0,.47.27s-.42.59-.62.89-.25.38-.39.55a.84.84,0,0,0,.59.15,1.69,1.69,0,0,0,.43-.2,1.43,1.43,0,0,0,.45-.35,5.26,5.26,0,0,0,.74-1,4.78,4.78,0,0,0-.28-4.63l0-.09a8.12,8.12,0,0,1-3.38-.65A5.23,5.23,0,0,0,67.76,290.14Z"/>
      <path class="b182332a-e90f-4639-8df0-b46f8fb31556" d="M72.46,289l0,.09a4.78,4.78,0,0,1,.28,4.63,5.26,5.26,0,0,1-.74,1,1.43,1.43,0,0,1-.45.35,1.69,1.69,0,0,1-.43.2.84.84,0,0,1-.59-.15c.14-.17.26-.37.39-.55s.41-.59.62-.89-.27-.56-.47-.27l-.71,1a1.49,1.49,0,0,1-.43.5.64.64,0,0,1-.7-.06,8.17,8.17,0,0,0,.85-1.43c.19-.29-.28-.56-.46-.27s-.36.76-.6,1.11-.73.66-1,.33a5.77,5.77,0,0,0,.84-1.49c.15-.31-.31-.58-.47-.27a10.32,10.32,0,0,1-.58,1.15c-.19.3-.74.76-1.07.39a1.5,1.5,0,0,1-.2-.81,2.23,2.23,0,0,1,.07-.89,14.58,14.58,0,0,1,1.1-2.61,5.23,5.23,0,0,1,1.32-1.76,3,3,0,0,1-.49-.29,5.73,5.73,0,0,0-1.24,1.67,15.54,15.54,0,0,0-1.21,2.85c-.19.61-.22,1.92.39,2.34a1.2,1.2,0,0,0,1.12,0,1,1,0,0,0,1.15.26,1.2,1.2,0,0,0,1.29.28,1.47,1.47,0,0,0,1.39.26,2.48,2.48,0,0,0,.82-.5,5.06,5.06,0,0,0,.75-6.26Z"/>
      <path class="b8777744-d8be-43c2-af39-2e3a2c77f851" d="M68.87,347.42a1.07,1.07,0,0,1,.26-.38l-.46-.37s-2.83,1.52-4.63,2.73c2.34,5.31,5.68,10.56,11.06,13a4.44,4.44,0,0,0-.67-3.49,14.11,14.11,0,0,1-.86-1.59l-.09-.2a.3.3,0,0,1-.28.05,3.88,3.88,0,0,0-2.43.41c-.42.17-.6-.51-.19-.68a4.76,4.76,0,0,1,2.61-.45c-.08-.21-.17-.42-.24-.63a.39.39,0,0,1-.26,0,3.14,3.14,0,0,0-2.78.37c-.4.21-.75-.4-.35-.61a4.11,4.11,0,0,1,3.12-.51l-.18-.6a5.49,5.49,0,0,0-3.73,0c-.43.15-.61-.52-.19-.67a6,6,0,0,1,3.71-.12,5.44,5.44,0,0,1-.17-2.84,1.06,1.06,0,0,0-.22-.94l-.49.34S69.21,350.23,68.87,347.42Z"/>
      <path class="be689961-3d46-4f95-9faa-5baf4f8dd251" d="M71.24,345.14a19.83,19.83,0,0,0-2.11,1.9,1.07,1.07,0,0,0-.26.38c.34,2.81,2.54,2.81,2.54,2.81l.49-.34,1.64-1.13A8.09,8.09,0,0,1,71.24,345.14Z"/>
      <path class="b8777744-d8be-43c2-af39-2e3a2c77f851" d="M140.94,366.14a4.45,4.45,0,0,0-3.16-1,15,15,0,0,1-2.2-.08c-.32,0-.64-.08-1-.13a.05.05,0,0,1,0,0,6.32,6.32,0,0,0-.59,2.63c0,.44-.75.44-.7,0a8.22,8.22,0,0,1,.58-2.79l-.62-.13v0a6,6,0,0,0-.88,2.8c0,.45-.72.45-.7,0a6.69,6.69,0,0,1,.88-3l-.71-.21a.41.41,0,0,1-.08.25,6.28,6.28,0,0,0-1.1,3c-.08.45-.76.26-.68-.18a7.07,7.07,0,0,1,1.25-3.27,3.8,3.8,0,0,1-1.64-1c-.18-.25-.63-.31-1.18-.26l0,.43s-1.09,1.91-3.7.81a.63.63,0,0,1-.11-.18l-.37.14s-.07,3.36.1,5.52C130.14,370.12,136.18,369.61,140.94,366.14Z"/>
      <path class="b032b730-5c45-4446-be88-5bd0ee4758d2" d="M140.94,366.14c-4.76,3.47-10.8,4-16.57,3.49,0,.07,0,.15,0,.22a4.61,4.61,0,0,0,.29,1.45c.53.91,16.65-.94,17.28-3.89A3.78,3.78,0,0,0,140.94,366.14Z"/>
      <path class="be689961-3d46-4f95-9faa-5baf4f8dd251" d="M124.75,364.15c2.61,1.1,3.7-.81,3.7-.81l0-.43-.25-2.87a7.79,7.79,0,0,1-4.29.45,18.37,18.37,0,0,0,.76,3.48A.63.63,0,0,0,124.75,364.15Z"/>
      <path class="b032b730-5c45-4446-be88-5bd0ee4758d2" d="M64,349.4l-.07,0a5.85,5.85,0,0,0-1.36,1.13c-.52.92,9.06,14,11.94,13.09a3.64,3.64,0,0,0,.55-1.24C69.72,360,66.38,354.71,64,349.4Z"/>
      <path class="a0c831f8-eeed-4fd9-b63e-cd273e6ad31f" d="M128.17,360a4.19,4.19,0,0,0,1.49-1.14c.69-.82.75-19.89-.86-32.92.14-.7-5.74-15.75-11.15-27.06-.34-.7-.68-1.39-1-2-3.34,0-6.58-3.4-7.78-6.66l-1.69.16c-.83.09-1.65.14-2.48.17.11,2.59.11,6.18-.55,7.84a1.4,1.4,0,0,1-1.08.87,3.76,3.76,0,0,1-1.19-.06s.26-5.09.23-8.65c-.75,0-1.5-.06-2.24-.11s-1.68-.13-2.51-.25l-.58-.08C96,293.61,94,298.54,89,298.3c0,.33.06,3,.09,3.35.89,7.88,4.54,17.33,6.39,23.94C85.55,331.64,71,344.22,71,344.22s.08.37.26.92a8.09,8.09,0,0,0,2.3,3.62,4.11,4.11,0,0,0,2.12.93c1-.36,18-9.1,27.39-18.27,0,0,1.49-1.51,1.49-1.52a3.42,3.42,0,0,0,.95-2.72h0c.26-3-2.46-21.94-2.68-26.52,0-.11.76-.29,1.36-.39a.87.87,0,0,1,.86.38c4,6.21,12.31,22.1,15.49,28.19-1.07,8,1.92,31.36,1.92,31.36a9.36,9.36,0,0,0,1.44.29A7.79,7.79,0,0,0,128.17,360ZM95.75,325.75c0,1.22,2.33,3.29,2.33,3.29C95.35,328.25,94.08,326.14,95.75,325.75Zm25.06,3.17c1,.68,4-.31,4-.31C122.76,330.55,120.29,330.56,120.81,328.92Z"/>
      <path class="a029c60f-722e-4af1-9a3a-d9d5140a6054" d="M120.81,328.92c-.52,1.64,2,1.63,4-.31C124.83,328.61,121.83,329.6,120.81,328.92Z"/>
      <path class="a029c60f-722e-4af1-9a3a-d9d5140a6054" d="M95.75,325.75c-1.67.39-.4,2.5,2.33,3.29C98.08,329,95.7,327,95.75,325.75Z"/>
      <path class="eaad4617-4673-497c-a3c1-336f4deea053" d="M116.06,242.87,116,243s.58.65,1.42,1.81c1.72,2.41,4,5.73,6.09,8.77-2.87-2.42-7-5.74-8.95-6.32a6.2,6.2,0,0,1,3,3.09c.09.21.16.42.23.64.57,2.1,1.64,5.34,1.43,7.49-.11,1.09-.24,2.18-.39,3.26.36.22.71.44,1.07.63a37.72,37.72,0,0,0,8.88,3.49c2.8.69,6.19.89,8.62-1.17,2.27-3.56-6.79-18.05-17.11-25.35h-.39C118.14,239.54,116.43,242.23,116.06,242.87Z"/>
      <path class="a5eb05dc-7af2-4ccf-b104-ea4a46b377c2" d="M134,367.64a6.32,6.32,0,0,1,.59-2.63.05.05,0,0,0,0,0c.19-.36-.39-.69-.62-.32a2,2,0,0,0-.11.2,8.22,8.22,0,0,0-.58,2.79C133.26,368.08,134,368.08,134,367.64Z"/>
      <path class="a5eb05dc-7af2-4ccf-b104-ea4a46b377c2" d="M132.38,367.54a6,6,0,0,1,.88-2.8v0a.35.35,0,0,0-.61-.34l-.1.17a6.69,6.69,0,0,0-.88,3C131.66,368,132.36,368,132.38,367.54Z"/>
      <path class="a5eb05dc-7af2-4ccf-b104-ea4a46b377c2" d="M130.67,367.58a6.28,6.28,0,0,1,1.1-3,.41.41,0,0,0,.08-.25c0-.28-.36-.52-.58-.25l0,0A7.07,7.07,0,0,0,130,367.4C129.91,367.84,130.59,368,130.67,367.58Z"/>
      <path class="a5eb05dc-7af2-4ccf-b104-ea4a46b377c2" d="M70.58,356.92c-.41.17-.23.85.19.68a3.88,3.88,0,0,1,2.43-.41.3.3,0,0,0,.28-.05.35.35,0,0,0-.1-.63l-.19,0A4.76,4.76,0,0,0,70.58,356.92Z"/>
      <path class="a5eb05dc-7af2-4ccf-b104-ea4a46b377c2" d="M69.56,355.58c-.4.21,0,.82.35.61a3.14,3.14,0,0,1,2.78-.37.39.39,0,0,0,.26,0,.34.34,0,0,0,.09-.63,2.67,2.67,0,0,0-.36-.14A4.11,4.11,0,0,0,69.56,355.58Z"/>
      <path class="a5eb05dc-7af2-4ccf-b104-ea4a46b377c2" d="M68.58,353.79c-.42.15-.24.82.19.67a5.49,5.49,0,0,1,3.73,0h0c.43.16.61-.52.19-.67l-.41-.13A6,6,0,0,0,68.58,353.79Z"/>
      <path class="a029c60f-722e-4af1-9a3a-d9d5140a6054" d="M111.57,289.76a16.8,16.8,0,0,1-2.72.46c1.2,3.26,4.44,6.67,7.78,6.66h0c-1.39-3.77-2.64-6.87-3.19-8.2A3.35,3.35,0,0,1,111.57,289.76Z"/>
      <path class="a029c60f-722e-4af1-9a3a-d9d5140a6054" d="M102.09,290.55c0,3.56-.23,8.65-.23,8.65a3.76,3.76,0,0,0,1.19.06,1.4,1.4,0,0,0,1.08-.87c.66-1.66.66-5.25.55-7.84C103.82,290.57,103,290.57,102.09,290.55Z"/>
      <path class="a029c60f-722e-4af1-9a3a-d9d5140a6054" d="M96.76,290.11c-.62-.1-1.24-.22-1.86-.35-.43-.1-.86-.22-1.29-.34a9.64,9.64,0,0,1-2.33-.82c-.23-.13-.45-.28-.67-.42a.91.91,0,0,0-.16-.11A23.94,23.94,0,0,0,89,298.3h0C94,298.54,96,293.61,96.76,290.11Z"/>
      <path class="b8068def-393d-41ea-a04e-680dd006c289" d="M91.28,288.6a9.64,9.64,0,0,0,2.33.82c.43.12.86.24,1.29.34.62.13,1.24.25,1.86.35l.58.08c.83.12,1.67.2,2.51.25s1.49.09,2.24.11,1.73,0,2.59,0,1.65-.08,2.48-.17l1.69-.16a16.8,16.8,0,0,0,2.72-.46,3.35,3.35,0,0,0,1.87-1.08,4.44,4.44,0,0,0,.77-2.08c1.06-5.81,2.51-11.51,3.47-17.33.08-.45.15-.91.23-1.36l-.54.07a.88.88,0,0,1-.86-1.32l2.18-3.69c.06-.41.12-.82.17-1.23.15-1.08.28-2.17.39-3.26.21-2.15-.86-5.39-1.43-7.49-.07-.22-.14-.43-.23-.64a6.2,6.2,0,0,0-3-3.09,7,7,0,0,0-1.75-.6c-1.63-.35-3.54-.67-5.07-.9a3.53,3.53,0,0,1-3.23,3.37c-2.12.2-3.77-1.18-5-2.81l.2-.07a67.48,67.48,0,0,0-7.22,1.88s3.42,8.55-.55,13.25l-1.7,1.05,1.16-.06a.88.88,0,0,1,.77,1.38l-2.88,4.16c-.25.36-.85.31-1.22.16a32.47,32.47,0,0,1-.15-4.28l0,0c-.31,6.77,2.61,24.25,2.61,24.25h0a.91.91,0,0,1,.16.11C90.83,288.32,91.05,288.47,91.28,288.6Zm21.09-28.68,4.94-.78a.88.88,0,0,1,.91,1.29l-2.43,4.45a.88.88,0,0,1-1.5.07l-2.51-3.67A.87.87,0,0,1,112.37,259.92Zm-.45,3.71,2.38,3.76a.87.87,0,0,1-.63,1.34l-5,.61a.88.88,0,0,1-.86-1.32l2.58-4.36A.88.88,0,0,1,111.92,263.63Zm-8.13-2.55,4.95-.7a.88.88,0,0,1,.89,1.3l-2.49,4.41a.88.88,0,0,1-1.5.05l-2.46-3.7A.88.88,0,0,1,103.79,261.08Zm-1.16,3.14L105,268a.89.89,0,0,1-.64,1.35l-5,.6a.88.88,0,0,1-.86-1.32l2.58-4.36A.88.88,0,0,1,102.63,264.22Zm-7.9-2.82,5-.25a.88.88,0,0,1,.76,1.38l-2.88,4.17a.78.78,0,0,1-1.41-.17l-2.12-3.91A.78.78,0,0,1,94.73,261.4ZM90,269.32,92.58,265a.87.87,0,0,1,1.49,0l2.39,3.76a.87.87,0,0,1-.63,1.34l-5,.61A.88.88,0,0,1,90,269.32Z"/>
      <path class="a5eb05dc-7af2-4ccf-b104-ea4a46b377c2" d="M105.64,266.14a.88.88,0,0,0,1.5-.05l2.49-4.41a.88.88,0,0,0-.89-1.3l-4.95.7a.88.88,0,0,0-.61,1.36Z"/>
      <path class="a5eb05dc-7af2-4ccf-b104-ea4a46b377c2" d="M108.7,269.34l5-.61a.87.87,0,0,0,.63-1.34l-2.38-3.76a.88.88,0,0,0-1.5,0L107.84,268A.88.88,0,0,0,108.7,269.34Z"/>
      <path class="a5eb05dc-7af2-4ccf-b104-ea4a46b377c2" d="M117.37,268l.54-.07h0a29.06,29.06,0,0,0,.78-4.94h0l-2.18,3.69A.88.88,0,0,0,117.37,268Z"/>
      <path class="a5eb05dc-7af2-4ccf-b104-ea4a46b377c2" d="M96.2,266.53a.78.78,0,0,0,1.41.17l2.88-4.17a.88.88,0,0,0-.76-1.38l-5,.25a.78.78,0,0,0-.65,1.22Z"/>
      <path class="a5eb05dc-7af2-4ccf-b104-ea4a46b377c2" d="M88,268.07c.37.15,1,.2,1.22-.16l2.88-4.16a.88.88,0,0,0-.77-1.38l-1.16.06c-.64.38-1.43.85-2.32,1.36A32.47,32.47,0,0,0,88,268.07Z"/>
      <path class="a5eb05dc-7af2-4ccf-b104-ea4a46b377c2" d="M99.41,269.92l5-.6A.89.89,0,0,0,105,268l-2.39-3.75a.88.88,0,0,0-1.5,0l-2.58,4.36A.88.88,0,0,0,99.41,269.92Z"/>
      <path class="a5eb05dc-7af2-4ccf-b104-ea4a46b377c2" d="M90.86,270.64l5-.61a.87.87,0,0,0,.63-1.34l-2.39-3.76a.87.87,0,0,0-1.49,0L90,269.32A.88.88,0,0,0,90.86,270.64Z"/>
      <path class="a5eb05dc-7af2-4ccf-b104-ea4a46b377c2" d="M114.29,265a.88.88,0,0,0,1.5-.07l2.43-4.45a.88.88,0,0,0-.91-1.29l-4.94.78a.87.87,0,0,0-.59,1.36Z"/>
      <path class="eaad4617-4673-497c-a3c1-336f4deea053" d="M104.49,249.13a3.53,3.53,0,0,0,3.23-3.37h0c-.4-.09-.78-.22-1.06-.29l-.09,0,.14.18c1.23,1.48-2.28,5.36-6.38.53V246l-.64.21-.2.07C100.72,248,102.37,249.33,104.49,249.13Z"/>
      <path class="eaad4617-4673-497c-a3c1-336f4deea053" d="M90.21,262.43l1.7-1.05c4-4.7.55-13.24.55-13.25h0c-7.25,1.32-13.65,6.77-16.63,9.33a30,30,0,0,0-3.77,4.21h0a2.37,2.37,0,0,0-.23.3,9.22,9.22,0,0,0-1.74,4c-.34,2-.91,6-1.24,9-.5,4.63-1.3,8-.72,12.66a2.45,2.45,0,0,0,.46.45,3,3,0,0,0,.49.29,8.12,8.12,0,0,0,3.38.65h.59c.42,0,.68,0,.68,0s.63-2.49.88-4c1.08-6.58,3.24-10.51,4.78-16.94a68.55,68.55,0,0,0,8.45-4.21l0,0C88.78,263.28,89.57,262.81,90.21,262.43Z"/>
      <path class="b6f486f5-ae84-4a05-8c8f-11b76aa10972" d="M100.33,246.16c4.1,4.83,7.61,1,6.38-.53l-.14-.18a5.3,5.3,0,0,1-.72-1.73,10.86,10.86,0,0,1-4.31-2.12,6,6,0,0,1-2-2.25c.27,1.82.58,4.23.76,6.69Z"/>
      <path class="be689961-3d46-4f95-9faa-5baf4f8dd251" d="M101.54,241.6a10.86,10.86,0,0,0,4.31,2.12,18.47,18.47,0,0,0,2.71.36,51.17,51.17,0,0,0,2-6.82c0-.22.09-.43.13-.64.1-.55.19-1.09.27-1.64a.16.16,0,0,1-.13-.07,1.81,1.81,0,0,0-1-.38c-.29-.06-.16-.51.13-.44a2.42,2.42,0,0,1,1,.38,23.51,23.51,0,0,0,.18-2.59,6.19,6.19,0,0,1-1.76.17,8.78,8.78,0,0,1-6.87-3.41c-.54,1.62-1.79,4.94-3.32,6.12-.7-.95-2-2.39-2.76-1.91a.84.84,0,0,0-.21.18c-.52.6-.37,1.82.18,2.93a3.82,3.82,0,0,0,2.79,2.31l0,.1a5.56,5.56,0,0,0,.39,1A6,6,0,0,0,101.54,241.6Zm7.91-3.35a2.34,2.34,0,0,1,.18.64.54.54,0,0,1-.11.39.53.53,0,0,1-.4.15c-.37,0-1.16,0-1.31-.45a1,1,0,0,1,0-.38c.1-1.33.22-2.65.33-4a.86.86,0,0,1,0-.24c.06-.22.4-.74.61-.31a.61.61,0,0,1,0,.27A8.93,8.93,0,0,0,109.45,238.25Zm.38-2.46a.38.38,0,0,1,.54-.11.41.41,0,0,1,.11.57.37.37,0,0,1-.54.11A.41.41,0,0,1,109.83,235.79Zm-6-1.52a1.55,1.55,0,0,1,1.2-.79,6.17,6.17,0,0,1,1.87,0c.29.05.17.49-.12.44a6.36,6.36,0,0,0-1.38,0,1.27,1.27,0,0,0-1.17.6C104.07,234.75,103.68,234.52,103.83,234.27Zm2.44,1.54a.37.37,0,0,1-.54.11.41.41,0,0,1-.11-.57.39.39,0,0,1,.54-.11A.41.41,0,0,1,106.27,235.81Zm1.43,4.73c.3,0,.3.48,0,.46h0a1.87,1.87,0,0,1-2.06.29,4.81,4.81,0,0,1-2.71-2.43l-.27-.27c-.21-.21.12-.54.32-.33A7.5,7.5,0,0,0,107.7,240.54Zm-4.6-3c.29,0,.17.48-.12.44a.77.77,0,0,0-.86.73c0,.29-.48.3-.46,0A1.23,1.23,0,0,1,103.1,237.51Zm-6-3.62a2.68,2.68,0,0,1,2,1.87.23.23,0,0,1-.45.13A2.22,2.22,0,0,0,97,234.33C96.67,234.27,96.8,233.82,97.08,233.89Z"/>
      <path class="b5870fb8-66c4-45e3-8ca6-6a677614d88d" d="M99.2,234.76c1.53-1.18,2.78-4.5,3.32-6.12a8.78,8.78,0,0,0,6.87,3.41,6.19,6.19,0,0,0,1.76-.17l.43-.12,6,5.23-3.38,2.76-3.58-3.13c0,.21-.08.42-.13.64l1.15,1a23.54,23.54,0,0,0,3.58,2.82c.48.07,2.25-1.34,3.32-2.51a1.54,1.54,0,0,0-.09-2.14c-.23-.23-.5-.48-.8-.76a.64.64,0,0,1-.67.14c-.3-.13-.35-.58-.27-.89a.63.63,0,0,1-.72.08c-.31-.18-.28-.68-.13-1l-.21-.19a.68.68,0,0,1-.81.16c-.31-.18-.27-.69-.12-1-.52-.45-1-.89-1.51-1.28a.66.66,0,0,1-.75.23.55.55,0,0,1-.3-.45,5.39,5.39,0,0,0,1.06-.63,4.61,4.61,0,0,0,1.86-3.4c0-.08,0-.16,0-.25.09-3.09-2.48-4.44-4.81-5.11a11.77,11.77,0,0,0-10.1,1.68l-.36.1c-2.57.79-3.84,5.88-3.4,8.94C97.25,232.37,98.5,233.81,99.2,234.76Zm17.58,4.83a.57.57,0,1,1,.08-.8A.56.56,0,0,1,116.78,239.59Z"/>
      <path class="b6f486f5-ae84-4a05-8c8f-11b76aa10972" d="M108.82,234.35a.61.61,0,0,0,0-.27c-.21-.43-.55.09-.61.31a.86.86,0,0,0,0,.24c-.11,1.32-.23,2.64-.33,4a1,1,0,0,0,0,.38c.15.46.94.46,1.31.45a.53.53,0,0,0,.4-.15.54.54,0,0,0,.11-.39,2.34,2.34,0,0,0-.18-.64A8.93,8.93,0,0,1,108.82,234.35Z"/>
      <path class="b5870fb8-66c4-45e3-8ca6-6a677614d88d" d="M105.62,235.35a.41.41,0,0,0,.11.57.37.37,0,0,0,.54-.11.41.41,0,0,0-.11-.57A.39.39,0,0,0,105.62,235.35Z"/>
      <path class="b5870fb8-66c4-45e3-8ca6-6a677614d88d" d="M109.94,236.36a.37.37,0,0,0,.54-.11.41.41,0,0,0-.11-.57.38.38,0,0,0-.54.11A.41.41,0,0,0,109.94,236.36Z"/>
      <path class="b5870fb8-66c4-45e3-8ca6-6a677614d88d" d="M104.23,234.5a1.27,1.27,0,0,1,1.17-.6,6.36,6.36,0,0,1,1.38,0c.29.05.41-.39.12-.44a6.17,6.17,0,0,0-1.87,0,1.55,1.55,0,0,0-1.2.79C103.68,234.52,104.07,234.75,104.23,234.5Z"/>
      <path class="b5870fb8-66c4-45e3-8ca6-6a677614d88d" d="M111.11,234.59a.75.75,0,0,0-.14-.12,2.42,2.42,0,0,0-1-.38c-.29-.07-.42.38-.13.44a1.81,1.81,0,0,1,1,.38.16.16,0,0,0,.13.07A.24.24,0,0,0,111.11,234.59Z"/>
      <path class="a5eb05dc-7af2-4ccf-b104-ea4a46b377c2" d="M102.89,238.86a4.81,4.81,0,0,0,2.71,2.43,1.87,1.87,0,0,0,2.06-.29A8,8,0,0,1,102.89,238.86Z"/>
      <path class="fd78b502-33ee-49ee-8b79-e8673f6ca8b5" d="M102.62,238.59l.27.27a8,8,0,0,0,4.77,2.14h0c.3,0,.3-.44,0-.46a7.5,7.5,0,0,1-4.76-2.28C102.74,238.05,102.41,238.38,102.62,238.59Z"/>
      <path class="fd78b502-33ee-49ee-8b79-e8673f6ca8b5" d="M101.66,238.68c0,.3.44.29.46,0A.77.77,0,0,1,103,238c.29,0,.41-.4.12-.44A1.23,1.23,0,0,0,101.66,238.68Z"/>
      <path class="b5870fb8-66c4-45e3-8ca6-6a677614d88d" d="M96.41,236a10.56,10.56,0,0,0,.46,2.36c.56,1.8,2,1.89,2.28,1.5s0-1.45,0-1.45l0-.1A3.82,3.82,0,0,1,96.41,236Z"/>
      <path class="fd78b502-33ee-49ee-8b79-e8673f6ca8b5" d="M97,234.33a2.22,2.22,0,0,1,1.65,1.56.23.23,0,0,0,.45-.13,2.68,2.68,0,0,0-2-1.87C96.8,233.82,96.67,234.27,97,234.33Z"/>
      <path class="b775c4e8-3283-4107-93ec-89df279de7cd" d="M121.24,220.36a4,4,0,1,0-5.08-2.45A4,4,0,0,0,121.24,220.36Zm-.45-5.91.63.3.31-.63.68.33-.64,1.31-1.31-.63Zm1.24,2.16,0,0a1.87,1.87,0,0,1-1,2.43l-.5.17a1.88,1.88,0,0,1-2.27-1.34Zm-5-.83.63.3.3-.63.68.33-.3.63h0l-.33.68-1.31-.63Z"/>
      <polygon class="f61e6f1a-92dd-494e-a199-02449ec65d6c" points="118.3 216.41 118.3 216.41 118.6 215.78 117.92 215.45 117.62 216.08 116.99 215.78 116.66 216.46 117.97 217.09 118.3 216.41"/>
      <polygon class="f61e6f1a-92dd-494e-a199-02449ec65d6c" points="122.41 214.45 121.73 214.12 121.42 214.75 120.79 214.45 120.46 215.13 121.77 215.76 122.41 214.45"/>
      <path class="a5eb05dc-7af2-4ccf-b104-ea4a46b377c2" d="M120.55,219.26l.5-.17a1.87,1.87,0,0,0,1-2.43l0,0-3.75,1.31A1.88,1.88,0,0,0,120.55,219.26Z"/>
      <path class="b775c4e8-3283-4107-93ec-89df279de7cd" d="M129,231.91a6.14,6.14,0,1,0-1.77-8.5A6.15,6.15,0,0,0,129,231.91Zm5-5.38a2.16,2.16,0,0,1,1.78.22,1.77,1.77,0,0,1,.59,1.58.29.29,0,0,1-.29.29h0a.29.29,0,0,1-.29-.3,1.26,1.26,0,0,0-.36-1.1,1.65,1.65,0,0,0-1.25-.12.29.29,0,0,1-.37-.2A.28.28,0,0,1,134,226.53Zm-4.6-2.55a2.21,2.21,0,0,1,1.78-.25,1.8,1.8,0,0,1,1,1.38.28.28,0,0,1-.22.35h-.06a.29.29,0,0,1-.29-.23,1.27,1.27,0,0,0-.63-1,1.64,1.64,0,0,0-1.25.2.28.28,0,0,1-.4-.09A.29.29,0,0,1,129.35,224Zm-.18,2,5.11,3.35,0,.06a2.86,2.86,0,0,1-3.89,1.07l-.69-.46A2.89,2.89,0,0,1,129.17,226Z"/>
      <path class="a5eb05dc-7af2-4ccf-b104-ea4a46b377c2" d="M129.66,230l.69.46a2.86,2.86,0,0,0,3.89-1.07l0-.06L129.17,226A2.89,2.89,0,0,0,129.66,230Z"/>
      <path class="b5870fb8-66c4-45e3-8ca6-6a677614d88d" d="M129.66,224.48a1.64,1.64,0,0,1,1.25-.2,1.27,1.27,0,0,1,.63,1,.29.29,0,0,0,.29.23h.06a.28.28,0,0,0,.22-.35,1.8,1.8,0,0,0-1-1.38,2.21,2.21,0,0,0-1.78.25.29.29,0,0,0-.09.41A.28.28,0,0,0,129.66,224.48Z"/>
      <path class="b5870fb8-66c4-45e3-8ca6-6a677614d88d" d="M134.12,227.09a1.65,1.65,0,0,1,1.25.12,1.26,1.26,0,0,1,.36,1.1.29.29,0,0,0,.29.3h0a.29.29,0,0,0,.29-.29,1.77,1.77,0,0,0-.59-1.58,2.16,2.16,0,0,0-1.78-.22.28.28,0,0,0-.2.36A.29.29,0,0,0,134.12,227.09Z"/>
    </g>
    <path class="bb61d200-7782-42a7-aa47-7b1746375f8c" d="M222.08,224.18c.08,0,.38-.21.44-.26s.32-.27.48-.4c.32-.28.65-.56,1-.85.71-.68,2-1.87,1.38-2.95a1.7,1.7,0,0,0-2.37-.38,1.42,1.42,0,0,0-.59.94,2,2,0,0,0-.63-1.32,2.48,2.48,0,0,0-1.25-.75,1.35,1.35,0,0,0-.63,0,1.06,1.06,0,0,0-.61.43,2.38,2.38,0,0,0-.22,2.14,5.32,5.32,0,0,0,1.35,2.05,10.76,10.76,0,0,0,1,.84A3.46,3.46,0,0,0,222.08,224.18Z"/>
    <path class="bb61d200-7782-42a7-aa47-7b1746375f8c" d="M200.91,314.42c.13,0,.44-.52.5-.63.17-.28.31-.57.47-.85.31-.6.62-1.19.91-1.8.64-1.4,1.91-3.92.32-5.11a2.68,2.68,0,0,0-3.68.82,2.19,2.19,0,0,0-.32,1.72,3,3,0,0,0-1.68-1.57,4,4,0,0,0-2.27-.38,2.23,2.23,0,0,0-.93.34,1.64,1.64,0,0,0-.63,1,3.79,3.79,0,0,0,.9,3.26,8.42,8.42,0,0,0,3.16,2.21,14.26,14.26,0,0,0,1.86.67A5,5,0,0,0,200.91,314.42Z"/>
    <path class="bb61d200-7782-42a7-aa47-7b1746375f8c" d="M209.85,321.61c.06,0,.33-.14.39-.18s.29-.19.43-.29c.29-.2.58-.4.86-.62.65-.49,1.86-1.36,1.4-2.31a1.4,1.4,0,0,0-1.92-.52,1.19,1.19,0,0,0-.57.73,1.6,1.6,0,0,0-.41-1.15,2.08,2.08,0,0,0-1-.73,1.13,1.13,0,0,0-.52-.07.88.88,0,0,0-.53.31,1.94,1.94,0,0,0-.37,1.74,4.37,4.37,0,0,0,.94,1.81,8.63,8.63,0,0,0,.71.77A2.47,2.47,0,0,0,209.85,321.61Z"/>
    <polygon class="a5eb05dc-7af2-4ccf-b104-ea4a46b377c2" points="93.33 243.3 93.33 236.59 88.11 239.83 93.33 243.3"/>
    <g>
      <rect class="a8d35903-5ef3-4922-bee6-6df975b81efd" x="73.97" y="231.46" width="13.54" height="8.66"/>
      <polygon class="a257699f-e410-4b57-a378-93d7f6912b91" points="80.74 235.79 87.52 231.46 73.97 231.46 80.74 235.79"/>
    </g>
    <g>
      <path class="b032b730-5c45-4446-be88-5bd0ee4758d2" d="M190.17,237c-1.35-2.91-3.17-6.38-4.85-8a12.21,12.21,0,0,0-8.06-3.07l4.37,8.39a56,56,0,0,0,6.91,9.47h0A11.94,11.94,0,0,1,190.17,237Z"/>
      <path class="a029c60f-722e-4af1-9a3a-d9d5140a6054" d="M190,243.33c-.94-1.68-.27-4,1.28-6.7h0a.79.79,0,0,0-1.06.28l-.08.12a11.94,11.94,0,0,0-1.63,6.82h0c.51,1.22,2,1.27,3.24.76a2.67,2.67,0,0,0,1.65-2.59,3.38,3.38,0,0,1-.24.41C192.67,243.23,190.73,244.64,190,243.33Z"/>
      <path class="b5870fb8-66c4-45e3-8ca6-6a677614d88d" d="M204.29,223.33c.06-.25.42-.32.64-.27a3.12,3.12,0,0,0,.46-1.27c-.1-1-2.26-2.38-2.73-2.16a26.67,26.67,0,0,0-2.67,3.86,15.87,15.87,0,0,0-1.49,2.71c0,.33,1.15,1.35,2.06,1.93a1,1,0,0,0,1.42-.3l.41-.62a.44.44,0,0,1-.17-.43c.06-.22.35-.3.57-.28a.42.42,0,0,1-.14-.47c.08-.23.42-.26.64-.2a1.4,1.4,0,0,0,.1-.16.45.45,0,0,1-.19-.52c.08-.23.43-.26.64-.2.24-.39.48-.78.69-1.15A.43.43,0,0,1,204.29,223.33ZM200.23,227a.39.39,0,1,1,0-.54A.38.38,0,0,1,200.23,227Zm1.28.29-2.22-1.94,3.29-5.35,2.25,1.86Z"/>
      <path class="ac87aca2-81e8-4885-8fb4-2385bc5ed2ec" d="M204.93,223.06c-.22-.05-.58,0-.64.27a.43.43,0,0,0,.24.47.89.89,0,0,0,.32.14s.56-.36.25-.78A.19.19,0,0,0,204.93,223.06Z"/>
      <path class="ac87aca2-81e8-4885-8fb4-2385bc5ed2ec" d="M203.2,225.15a.45.45,0,0,0,.19.52,1,1,0,0,0,.29.16s.6-.29.34-.75c0-.05-.08-.1-.18-.13S203.28,224.92,203.2,225.15Z"/>
      <path class="ac87aca2-81e8-4885-8fb4-2385bc5ed2ec" d="M202.65,226a.42.42,0,0,0,.14.47c-.22,0-.51.06-.57.28a.44.44,0,0,0,.17.43l-.41.62a1,1,0,0,1-1.42.3c-.91-.58-2.05-1.6-2.06-1.93a15.87,15.87,0,0,1,1.49-2.71c0-.45-.53-.91-.59-.54s-1.64,2.35-1.84,3a9.4,9.4,0,0,0-.17,2.12,77.82,77.82,0,0,0-6.08,8.54c-1.55,2.72-2.22,5-1.28,6.7.7,1.31,2.64-.1,3.16-.9a3.38,3.38,0,0,0,.24-.41,8,8,0,0,0,.34-.8c1-2.49,2-5,3.21-7.38.75-1.54,1.54-3.06,2.26-4.62v0a4,4,0,0,0,3.54-1.8s.49-.32.29-.71l0,0s.6-.29.34-.74c0-.06-.08-.11-.18-.14S202.73,225.8,202.65,226Z"/>
      <polygon class="bd613a6e-ac8d-4972-b14f-e99c95acdbd4" points="202.58 220.02 199.29 225.37 201.51 227.31 204.83 221.88 202.58 220.02"/>
      <path class="bd613a6e-ac8d-4972-b14f-e99c95acdbd4" d="M199.65,226.51a.39.39,0,1,0,.54,0A.38.38,0,0,0,199.65,226.51Z"/>
    </g>
    <g>
      <circle class="b775c4e8-3283-4107-93ec-89df279de7cd" cx="305.6" cy="226.65" r="3.88"/>
      <g>
        <rect class="f61e6f1a-92dd-494e-a199-02449ec65d6c" x="307.23" y="226.76" width="1.41" height="0.73" transform="translate(-36.27 59.99) rotate(-10.51)"/>
        <rect class="f61e6f1a-92dd-494e-a199-02449ec65d6c" x="307.17" y="226.15" width="0.73" height="1.41" transform="translate(-36.22 59.91) rotate(-10.51)"/>
        <rect class="f61e6f1a-92dd-494e-a199-02449ec65d6c" x="304" y="224.54" width="1.41" height="0.73" transform="translate(-35.92 59.36) rotate(-10.51)"/>
        <rect class="f61e6f1a-92dd-494e-a199-02449ec65d6c" x="303.95" y="223.93" width="0.73" height="1.41" transform="translate(-35.87 59.28) rotate(-10.51)"/>
      </g>
      <path class="a5eb05dc-7af2-4ccf-b104-ea4a46b377c2" d="M303.62,226.13l3.18,2.18h0a1.81,1.81,0,0,1-2.46.68l-.44-.29a1.81,1.81,0,0,1-.3-2.53Z"/>
    </g>
    <g>
      <circle class="b775c4e8-3283-4107-93ec-89df279de7cd" cx="291.37" cy="233.02" r="5.96"/>
      <path class="a5eb05dc-7af2-4ccf-b104-ea4a46b377c2" d="M288.89,234.93l5.64-1.83h0a2.79,2.79,0,0,1-1.49,3.64l-.76.26a2.78,2.78,0,0,1-3.37-2Z"/>
      <path class="b5870fb8-66c4-45e3-8ca6-6a677614d88d" d="M292.26,231.94a.23.23,0,0,1-.14,0,.28.28,0,0,1-.12-.38,1.72,1.72,0,0,1,1.27-1,2.1,2.1,0,0,1,1.61.69.28.28,0,0,1,0,.4.28.28,0,0,1-.4,0,1.6,1.6,0,0,0-1.12-.52,1.26,1.26,0,0,0-.83.75A.29.29,0,0,1,292.26,231.94Z"/>
      <path class="b5870fb8-66c4-45e3-8ca6-6a677614d88d" d="M287.52,233.81h-.07a.28.28,0,0,1-.21-.34,1.76,1.76,0,0,1,.95-1.34,2.17,2.17,0,0,1,1.73.25.28.28,0,0,1,.09.4.29.29,0,0,1-.39.09,1.59,1.59,0,0,0-1.21-.21,1.27,1.27,0,0,0-.62.94A.28.28,0,0,1,287.52,233.81Z"/>
    </g>
    <g>
      <circle class="b775c4e8-3283-4107-93ec-89df279de7cd" cx="15.17" cy="311.35" r="3.88"/>
      <g>
        <rect class="f61e6f1a-92dd-494e-a199-02449ec65d6c" x="16.84" y="310.8" width="1.41" height="0.73" transform="translate(-135.84 39.87) rotate(-26.26)"/>
        <rect class="f61e6f1a-92dd-494e-a199-02449ec65d6c" x="16.73" y="310.31" width="0.73" height="1.41" transform="translate(-135.82 39.65) rotate(-26.26)"/>
        <rect class="f61e6f1a-92dd-494e-a199-02449ec65d6c" x="13.14" y="309.54" width="1.41" height="0.73" transform="translate(-135.67 38.1) rotate(-26.26)"/>
        <rect class="f61e6f1a-92dd-494e-a199-02449ec65d6c" x="13.02" y="309.05" width="0.73" height="1.41" transform="translate(-135.64 37.88) rotate(-26.26)"/>
      </g>
      <path class="a5eb05dc-7af2-4ccf-b104-ea4a46b377c2" d="M13.13,311.38l3.65,1.24h0a1.83,1.83,0,0,1-2.19,1.32l-.49-.17a1.78,1.78,0,0,1-1-2.34Z"/>
    </g>
    <g>
      <circle class="b775c4e8-3283-4107-93ec-89df279de7cd" cx="57.89" cy="310.22" r="5.96" transform="translate(-256.5 282.92) rotate(-74.47)"/>
      <path class="a5eb05dc-7af2-4ccf-b104-ea4a46b377c2" d="M55.4,312.13,61,310.3h0a2.8,2.8,0,0,1-1.48,3.64l-.76.26a2.78,2.78,0,0,1-3.37-2Z"/>
      <path class="b5870fb8-66c4-45e3-8ca6-6a677614d88d" d="M58.77,309.14a.22.22,0,0,1-.13,0,.27.27,0,0,1-.12-.38,1.71,1.71,0,0,1,1.27-1,2.1,2.1,0,0,1,1.6.69.28.28,0,0,1,0,.4.3.3,0,0,1-.41,0,1.54,1.54,0,0,0-1.11-.51A1.22,1.22,0,0,0,59,309,.29.29,0,0,1,58.77,309.14Z"/>
      <path class="b5870fb8-66c4-45e3-8ca6-6a677614d88d" d="M54,311H54a.29.29,0,0,1-.22-.34,1.75,1.75,0,0,1,1-1.34,2.19,2.19,0,0,1,1.73.25.29.29,0,1,1-.31.49,1.57,1.57,0,0,0-1.21-.2,1.19,1.19,0,0,0-.61.93A.29.29,0,0,1,54,311Z"/>
    </g>
  </g>
</svg>
