<svg id="f148582e-924d-4675-9cb6-991658e7d47b" data-name="レイヤー 1" xmlns="http://www.w3.org/2000/svg" xmlns:xlink="http://www.w3.org/1999/xlink" viewBox="0 0 375 1277">
  <defs>
    <style>
      .fac52adb-8ad5-4752-84f7-8e81d3e2963c {
        fill: #fff;
        opacity: 0.82;
      }

      .b4d4fc51-8800-4865-ad26-a25f6a787837, .bd2a25f0-feb6-4f90-a263-6f892d25707d {
        font-size: 20px;
        font-family: HiraKakuProN-W6-83pv-RKSJ-H, Hiragino Kaku Gothic ProN;
        letter-spacing: 0.1em;
      }

      .b4d4fc51-8800-4865-ad26-a25f6a787837 {
        stroke: #fff;
        stroke-miterlimit: 10;
        stroke-width: 5px;
      }

      .bce5e0d6-8435-4f86-853e-fb8dbaffe412 {
        letter-spacing: -0.4em;
      }

      .e66d5323-390f-4709-bef4-df5882c206c7 {
        letter-spacing: -0.06em;
      }
    </style>
  </defs>
  <image width="1980" height="1386" transform="translate(-1216 -475) scale(1.4)" xlink:href="http://3.112.250.183/wp-content/uploads/2021/11/pixta_79583965_XL.jpg"/>
  <rect class="fac52adb-8ad5-4752-84f7-8e81d3e2963c" x="-7" width="399" height="1278"/>
  <text class="b4d4fc51-8800-4865-ad26-a25f6a787837" transform="translate(30.26 53.12)">現代社会ではテクノロジーが進<tspan x="0" y="35">歩し、変化のスピードが加速す</tspan><tspan x="0" y="70">ると共に、これまでになかった</tspan><tspan x="0" y="105">問題が発生し 、新しい需要が生</tspan><tspan x="0" y="140">まれています</tspan><tspan class="bce5e0d6-8435-4f86-853e-fb8dbaffe412" x="132" y="140">。</tspan><tspan x="0" y="175">そんな中、人間のみが昔と変わ</tspan><tspan x="0" y="210">らず、喜怒哀楽があり、肉体を</tspan><tspan x="0" y="245">持ち、財を欲し、快楽を求め</tspan><tspan class="bce5e0d6-8435-4f86-853e-fb8dbaffe412" x="286" y="245">、</tspan><tspan x="0" y="280">病気に怯え、孤立を恐れる</tspan><tspan class="bce5e0d6-8435-4f86-853e-fb8dbaffe412" x="264" y="280">。</tspan><tspan x="0" y="350">人の幸せは、健康であること</tspan><tspan class="bce5e0d6-8435-4f86-853e-fb8dbaffe412" x="286" y="350">、</tspan><tspan x="0" y="385">生理的に満たされること、安全</tspan><tspan x="0" y="420">であることを前提に、他者に存</tspan><tspan x="0" y="455">在価値を認められ、愛し愛され</tspan><tspan x="0" y="490">ることである</tspan><tspan class="bce5e0d6-8435-4f86-853e-fb8dbaffe412" x="132" y="490">。</tspan><tspan x="0" y="525">いつの時代も変わらないはずの</tspan><tspan x="0" y="560">切望が、社会の発展がもたらす</tspan><tspan x="0" y="595">新たな価値創造によって翻弄さ</tspan><tspan x="0" y="630">れ、何が幸せなのかがわからな</tspan><tspan x="0" y="665">くなり、あたかも幸せのかたち</tspan><tspan x="0" y="700">が変化したかのように思える</tspan><tspan class="bce5e0d6-8435-4f86-853e-fb8dbaffe412" x="286" y="700">。</tspan><tspan x="0" y="770">しかし、人の幸せは変わらない</tspan><tspan class="bce5e0d6-8435-4f86-853e-fb8dbaffe412" x="308" y="770">。</tspan><tspan x="0" y="805">技術革新によっていつか精神が</tspan><tspan x="0" y="840">肉体から解放される時代が訪れ</tspan><tspan x="0" y="875">ようとも、ウェルビーイングを</tspan><tspan x="0" y="910">求める人の心は変わらない。人</tspan><tspan x="0" y="945">と人とが創る社会の中心に</tspan><tspan class="e66d5323-390f-4709-bef4-df5882c206c7" x="264" y="945">、</tspan><tspan x="282.74" y="945">個々</tspan><tspan x="0" y="980">の幸せへの尊重があって欲しい</tspan><tspan class="bce5e0d6-8435-4f86-853e-fb8dbaffe412" x="308" y="980">。</tspan><tspan x="0" y="1015">互いが手をとりあい認めあい</tspan><tspan class="bce5e0d6-8435-4f86-853e-fb8dbaffe412" x="286" y="1015">、</tspan><tspan x="0" y="1050">貢献しあう世界があって欲しい</tspan><tspan class="bce5e0d6-8435-4f86-853e-fb8dbaffe412" x="308" y="1050">。</tspan><tspan x="320" y="1050"> </tspan><tspan x="0" y="1120">幸福の循環がある上で成り立つ</tspan><tspan x="0" y="1155">社会発展の中で、皆が等しく幸</tspan><tspan x="0" y="1190">福を享受する</tspan><tspan class="bce5e0d6-8435-4f86-853e-fb8dbaffe412" x="132" y="1190">。</tspan></text>
  <text class="bd2a25f0-feb6-4f90-a263-6f892d25707d" transform="translate(30.26 53.12)">現代社会ではテクノロジーが進<tspan x="0" y="35">歩し、変化のスピードが加速す</tspan><tspan x="0" y="70">ると共に、これまでになかった</tspan><tspan x="0" y="105">問題が発生し 、新しい需要が生</tspan><tspan x="0" y="140">まれています</tspan><tspan class="bce5e0d6-8435-4f86-853e-fb8dbaffe412" x="132" y="140">。</tspan><tspan x="0" y="175">そんな中、人間のみが昔と変わ</tspan><tspan x="0" y="210">らず、喜怒哀楽があり、肉体を</tspan><tspan x="0" y="245">持ち、財を欲し、快楽を求め</tspan><tspan class="bce5e0d6-8435-4f86-853e-fb8dbaffe412" x="286" y="245">、</tspan><tspan x="0" y="280">病気に怯え、孤立を恐れる</tspan><tspan class="bce5e0d6-8435-4f86-853e-fb8dbaffe412" x="264" y="280">。</tspan><tspan x="0" y="350">人の幸せは、健康であること</tspan><tspan class="bce5e0d6-8435-4f86-853e-fb8dbaffe412" x="286" y="350">、</tspan><tspan x="0" y="385">生理的に満たされること、安全</tspan><tspan x="0" y="420">であることを前提に、他者に存</tspan><tspan x="0" y="455">在価値を認められ、愛し愛され</tspan><tspan x="0" y="490">ることである</tspan><tspan class="bce5e0d6-8435-4f86-853e-fb8dbaffe412" x="132" y="490">。</tspan><tspan x="0" y="525">いつの時代も変わらないはずの</tspan><tspan x="0" y="560">切望が、社会の発展がもたらす</tspan><tspan x="0" y="595">新たな価値創造によって翻弄さ</tspan><tspan x="0" y="630">れ、何が幸せなのかがわからな</tspan><tspan x="0" y="665">くなり、あたかも幸せのかたち</tspan><tspan x="0" y="700">が変化したかのように思える</tspan><tspan class="bce5e0d6-8435-4f86-853e-fb8dbaffe412" x="286" y="700">。</tspan><tspan x="0" y="770">しかし、人の幸せは変わらない</tspan><tspan class="bce5e0d6-8435-4f86-853e-fb8dbaffe412" x="308" y="770">。</tspan><tspan x="0" y="805">技術革新によっていつか精神が</tspan><tspan x="0" y="840">肉体から解放される時代が訪れ</tspan><tspan x="0" y="875">ようとも、ウェルビーイングを</tspan><tspan x="0" y="910">求める人の心は変わらない。人</tspan><tspan x="0" y="945">と人とが創る社会の中心に</tspan><tspan class="e66d5323-390f-4709-bef4-df5882c206c7" x="264" y="945">、</tspan><tspan x="282.74" y="945">個々</tspan><tspan x="0" y="980">の幸せへの尊重があって欲しい</tspan><tspan class="bce5e0d6-8435-4f86-853e-fb8dbaffe412" x="308" y="980">。</tspan><tspan x="0" y="1015">互いが手をとりあい認めあい</tspan><tspan class="bce5e0d6-8435-4f86-853e-fb8dbaffe412" x="286" y="1015">、</tspan><tspan x="0" y="1050">貢献しあう世界があって欲しい</tspan><tspan class="bce5e0d6-8435-4f86-853e-fb8dbaffe412" x="308" y="1050">。</tspan><tspan x="320" y="1050"> </tspan><tspan x="0" y="1120">幸福の循環がある上で成り立つ</tspan><tspan x="0" y="1155">社会発展の中で、皆が等しく幸</tspan><tspan x="0" y="1190">福を享受する</tspan><tspan class="bce5e0d6-8435-4f86-853e-fb8dbaffe412" x="132" y="1190">。</tspan></text>
</svg>
