<svg id="b225973a-c0d5-460f-9df5-90f90e8b2323" data-name="レイヤー 1" xmlns="http://www.w3.org/2000/svg" viewBox="0 0 375 64">
  <defs>
    <style>
      .a03b88e1-ef61-4fb7-8aca-4e0b6d29232c, .e825b7d7-d3cf-46b8-a995-8aeba9d2f20c {
        font-size: 14px;
        letter-spacing: 0.1em;
      }

      .e825b7d7-d3cf-46b8-a995-8aeba9d2f20c {
        font-family: HiraKakuProN-W3-83pv-RKSJ-H, Hiragino Kaku Gothic ProN;
      }

      .a03b88e1-ef61-4fb7-8aca-4e0b6d29232c {
        font-family: HiraKakuProN-W6-83pv-RKSJ-H, Hiragino Kaku Gothic ProN;
      }

      .ac74ee50-fd2a-4c00-9c75-92f8b2e22b86 {
        fill: #dc4335;
      }

      .a22ba802-a24f-4778-9bff-ff90eaf12d69 {
        fill: none;
        stroke: #dc4335;
        stroke-miterlimit: 10;
      }
    </style>
  </defs>
  <a href="/"><text class="e825b7d7-d3cf-46b8-a995-8aeba9d2f20c" transform="translate(27.27 44.46)">トップページ</text></a>
  <a href="."><text class="a03b88e1-ef61-4fb7-8aca-4e0b6d29232c" transform="translate(160.27 43.46)">企業様へ</text></a>
  <path class="ac74ee50-fd2a-4c00-9c75-92f8b2e22b86" d="M145.62,38.3l-1-1h0l-4.16-4.16a.37.37,0,0,0-.53,0l-1,1a.39.39,0,0,0,0,.52l2.75,2.74h-9.06a.31.31,0,0,0-.3.31v1.71a.3.3,0,0,0,.3.3h9.06L139,42.47a.39.39,0,0,0,0,.52l1,1a.4.4,0,0,0,.27.11.38.38,0,0,0,.26-.11l4.16-4.16h0l1-1A.37.37,0,0,0,145.62,38.3Z"/>
  <line class="a22ba802-a24f-4778-9bff-ff90eaf12d69" x1="30.73" y1="49.55" x2="117.73" y2="49.55"/>
</svg>
