<svg id="b3a478ff-5039-4898-9259-4faedee5f4b6" data-name="レイヤー 1" xmlns="http://www.w3.org/2000/svg" xmlns:xlink="http://www.w3.org/1999/xlink" viewBox="0 0 375 288">
  <defs>
    <style>
      .b56d7926-4b44-4b14-89f2-7dddf9d2ff19, .b90bcd9f-b9ae-405e-a36d-17c0a1c92787 {
        fill: none;
      }

      .b3e7e023-6a14-47eb-8c99-76b7363e1efd {
        clip-path: url(#edac70bd-69cf-4a67-9ccf-ed573b49b5b6);
      }

      .b4dc9bd9-4ac4-40f6-bc82-6f64eb8eab9a {
        fill: #fff;
      }

      .bd288d3f-b38d-4179-91a4-a1162ae77baa {
        font-size: 21px;
        font-family: FutoGoB101Pr6N-Bold, FutoGoB101Pr6N Bold-83pv-RKSJ-H;
        font-weight: 700;
        letter-spacing: 0.1em;
      }

      .a7577f53-88e1-439f-b9ab-c6f84f42526c {
        font-size: 10px;
        letter-spacing: 0.3em;
      }

      .ba7dec56-de45-4042-9d42-af0ba3c43c2e {
        fill: #83ccd2;
      }

      .beb909b8-d543-4806-b738-bd64f10e276d {
        opacity: 0.3;
      }

      .ba34c7c2-8271-4d89-8ac4-1fa81b5e74a4 {
        fill: #dc4335;
      }

      .b90bcd9f-b9ae-405e-a36d-17c0a1c92787 {
        stroke: #000;
        stroke-miterlimit: 10;
      }

      .b1d7dc94-9e8a-4cc3-be76-55f1d9785c96 {
        font-size: 18px;
        font-family: KozGoPr6N-Bold-83pv-RKSJ-H, Kozuka Gothic Pr6N;
      }
    </style>
    <clipPath id="edac70bd-69cf-4a67-9ccf-ed573b49b5b6">
      <rect class="b56d7926-4b44-4b14-89f2-7dddf9d2ff19" x="-101.13" y="-11" width="795.71" height="267.13"/>
    </clipPath>
  </defs>
  <g class="b3e7e023-6a14-47eb-8c99-76b7363e1efd">
    <image width="1980" height="1320" transform="translate(-100.82 -47.08) scale(0.4)" xlink:href="http://3.112.250.183/wp-content/uploads/2021/11/pixta_47892115_XL.jpg"/>
  </g>
  <rect class="b4dc9bd9-4ac4-40f6-bc82-6f64eb8eab9a" x="19.22" y="201" width="299.78" height="96.45" rx="10.89"/>
  <text class="bd288d3f-b38d-4179-91a4-a1162ae77baa" transform="translate(40.84 265.5)">お仕事を探している方へ</text>
  <text class="a7577f53-88e1-439f-b9ab-c6f84f42526c" transform="translate(65.43 236.94)">WORK</text>
  <line class="ba7dec56-de45-4042-9d42-af0ba3c43c2e" x1="59.22" y1="220.45" x2="43.22" y2="236.45"/>
  <rect class="b4dc9bd9-4ac4-40f6-bc82-6f64eb8eab9a" x="20.95" y="17.91" width="337" height="75" rx="10"/>
  <g class="beb909b8-d543-4806-b738-bd64f10e276d">
    <path class="ba34c7c2-8271-4d89-8ac4-1fa81b5e74a4" d="M348,17.91a10,10,0,0,1,10,10v55a10,10,0,0,1-10,10H31a10,10,0,0,1-10-10v-55a10,10,0,0,1,10-10H348m0-5H31a15,15,0,0,0-15,15v55a15,15,0,0,0,15,15H348a15,15,0,0,0,15-15v-55a15,15,0,0,0-15-15Z"/>
  </g>
  <line class="b90bcd9f-b9ae-405e-a36d-17c0a1c92787" x1="51.95" y1="49.91" x2="89.95" y2="49.91"/>
  <line class="b90bcd9f-b9ae-405e-a36d-17c0a1c92787" x1="51.95" y1="58.41" x2="89.95" y2="58.41"/>
  <line class="b90bcd9f-b9ae-405e-a36d-17c0a1c92787" x1="51.95" y1="67.41" x2="89.95" y2="67.41"/>
  <text class="b1d7dc94-9e8a-4cc3-be76-55f1d9785c96" transform="translate(162.57 65.93)">サイバースミス</text>
</svg>
