<svg id="b1d470a1-d7fb-45e0-b03f-8138f0dc256f" data-name="レイヤー 1" xmlns="http://www.w3.org/2000/svg" xmlns:xlink="http://www.w3.org/1999/xlink" viewBox="0 0 1366 587">
  <defs>
    <style>
      .ae353222-1b2e-43e9-b24d-3cf68a45dd33 {
        fill: #fff;
      }

      .a9076c37-9e1a-41ca-9e47-27201cebb08b {
        font-size: 42px;
        font-family: FutoGoB101Pr6N-Bold, FutoGoB101Pr6N Bold-83pv-RKSJ-H;
        letter-spacing: 0.2em;
      }

      .a9076c37-9e1a-41ca-9e47-27201cebb08b, .ad5ba161-5c13-4d3e-83c0-87b316649e6d {
        font-weight: 700;
      }

      .a417d2cb-3c69-4ee2-a75d-a536ddb41c47 {
        font-size: 18px;
        letter-spacing: 0.1em;
      }

      .a417d2cb-3c69-4ee2-a75d-a536ddb41c47, .b6c1513f-02f6-4d3e-97a1-eea283fa5322, .e378277a-0d4f-457f-9dd8-7f8e98bd1806 {
        font-family: HiraKakuProN-W3-83pv-RKSJ-H, Hiragino Kaku Gothic ProN;
      }

      .e570c541-93d6-4d95-9e1a-f12e3d64c293 {
        letter-spacing: -0.4em;
      }

      .adeb431b-40d7-4412-aebd-bfbf9bda1270, .b6c1513f-02f6-4d3e-97a1-eea283fa5322, .b80c9ab3-0b96-40b6-9b06-10b19dd61318 {
        font-size: 14px;
      }

      .adeb431b-40d7-4412-aebd-bfbf9bda1270 {
        letter-spacing: 0.3em;
      }

      .ae40c85d-a845-4056-ac64-be7cd2de91d6 {
        fill: #dc4335;
      }

      .b6c1513f-02f6-4d3e-97a1-eea283fa5322, .b80c9ab3-0b96-40b6-9b06-10b19dd61318 {
        letter-spacing: 0.1em;
      }

      .b80c9ab3-0b96-40b6-9b06-10b19dd61318 {
        font-family: HiraKakuProN-W6-83pv-RKSJ-H, Hiragino Kaku Gothic ProN;
      }

      .a0ae91bc-7ce0-405a-8e86-81eca09678ca, .a0e94d9d-2f91-410f-9040-97d0aa671637 {
        fill: none;
        stroke-miterlimit: 10;
      }

      .a0e94d9d-2f91-410f-9040-97d0aa671637 {
        stroke: #dc4335;
      }

      .a0ae91bc-7ce0-405a-8e86-81eca09678ca {
        stroke: #979797;
      }

      .e378277a-0d4f-457f-9dd8-7f8e98bd1806 {
        font-size: 16px;
        letter-spacing: 0.1em;
      }

      .e236f8eb-a8b2-4d0a-908a-5baca53005ae {
        letter-spacing: -0.4em;
      }

      .ad5ba161-5c13-4d3e-83c0-87b316649e6d {
        font-size: 30px;
        font-family: Arial-BoldMT, Arial;
      }

      .ea1f3f53-0458-4019-a23a-fd406775eac9 {
        fill: #b1b1b1;
      }
    </style>
  </defs>
  <image width="1980" height="966" transform="translate(-79.99 -667.01) scale(0.77)" xlink:href="http://3.112.250.183/wp-content/uploads/2021/11/pixta_54444200_XL.jpg"/>
  <rect class="ae353222-1b2e-43e9-b24d-3cf68a45dd33" x="-10" width="572" height="129" rx="10"/>
  <text class="a9076c37-9e1a-41ca-9e47-27201cebb08b" transform="translate(185.62 121.05)">よくある質問</text>
  <text class="a417d2cb-3c69-4ee2-a75d-a536ddb41c47" transform="translate(284.41 200.64)">サイバースミスへ寄せられるご質問を以下の通りまとめていま<tspan x="0" y="31.5">す。その他ご不明なことはお問い合わせください</tspan><tspan class="e570c541-93d6-4d95-9e1a-f12e3d64c293" x="435.6" y="31.5">。</tspan></text>
  <text class="adeb431b-40d7-4412-aebd-bfbf9bda1270" transform="translate(210.21 69.49)">Q&amp;A</text>
  <line class="ae40c85d-a845-4056-ac64-be7cd2de91d6" x1="204" y1="53" x2="188" y2="69"/>
  <text class="b6c1513f-02f6-4d3e-97a1-eea283fa5322" transform="translate(999.54 118.41)">トップページ</text>
  <text class="b80c9ab3-0b96-40b6-9b06-10b19dd61318" transform="translate(1132.54 117.41)">よくある質問</text>
  <path class="ae40c85d-a845-4056-ac64-be7cd2de91d6" d="M1117.9,112.25l-1-1h0l-4.17-4.16a.36.36,0,0,0-.52,0l-1,1a.36.36,0,0,0,0,.52l2.74,2.75h-9a.29.29,0,0,0-.3.3v1.71a.3.3,0,0,0,.3.31h9l-2.74,2.74a.36.36,0,0,0,0,.52l1,1a.34.34,0,0,0,.26.11.33.33,0,0,0,.26-.11l4.17-4.16h0l1-1A.39.39,0,0,0,1117.9,112.25Z"/>
  <line class="a0e94d9d-2f91-410f-9040-97d0aa671637" x1="1003" y1="123.5" x2="1090" y2="123.5"/>
  <line class="a0ae91bc-7ce0-405a-8e86-81eca09678ca" x1="186" y1="302.5" x2="1186" y2="302.5"/>
  <line class="a0ae91bc-7ce0-405a-8e86-81eca09678ca" x1="186" y1="413.5" x2="1186" y2="413.5"/>
  <text class="a417d2cb-3c69-4ee2-a75d-a536ddb41c47" transform="translate(263.85 347.36)">初期費用や月額費用がかからないのですか？</text>
  <text class="e378277a-0d4f-457f-9dd8-7f8e98bd1806" transform="translate(309.85 389.36)">はい、一切かかりません<tspan class="e236f8eb-a8b2-4d0a-908a-5baca53005ae" x="193.6" y="0">。</tspan></text>
  <text class="ad5ba161-5c13-4d3e-83c0-87b316649e6d" transform="translate(220.75 350.52)">Q</text>
  <text class="ad5ba161-5c13-4d3e-83c0-87b316649e6d" transform="translate(266.75 393.52)">A</text>
  <g>
    <g>
      <polygon class="ea1f3f53-0458-4019-a23a-fd406775eac9" points="1155.48 334.98 1155.48 338.79 1142.04 350.4 1142.04 346.59 1155.48 334.98"/>
      <path class="ea1f3f53-0458-4019-a23a-fd406775eac9" d="M1156.56,335v3.81a1.08,1.08,0,0,1-.37.81l-13.45,11.61a1.08,1.08,0,0,1-1.15.17,1.09,1.09,0,0,1-.63-1v-3.81a1.06,1.06,0,0,1,.38-.81l13.44-11.61a1.08,1.08,0,0,1,1.78.81Zm-2.15,3.32v-1l-11.29,9.75v1Z"/>
    </g>
    <g>
      <polygon class="ea1f3f53-0458-4019-a23a-fd406775eac9" points="1155.48 334.98 1155.48 338.79 1168.92 350.4 1168.92 346.59 1155.48 334.98"/>
      <path class="ea1f3f53-0458-4019-a23a-fd406775eac9" d="M1170,346.59v3.81a1.09,1.09,0,0,1-.63,1,1.08,1.08,0,0,1-1.15-.17l-13.44-11.61a1.05,1.05,0,0,1-.37-.81V335a1.06,1.06,0,0,1,.62-1,1.07,1.07,0,0,1,1.16.16l13.44,11.61A1.08,1.08,0,0,1,1170,346.59Zm-2.15,1.46v-1l-11.29-9.75v1Z"/>
    </g>
  </g>
  <line class="a0ae91bc-7ce0-405a-8e86-81eca09678ca" x1="186" y1="488.5" x2="1186" y2="488.5"/>
  <text class="a417d2cb-3c69-4ee2-a75d-a536ddb41c47" transform="translate(263.85 458.36)">現在、会社に勤めているのですが、会員登録できますか？</text>
  <text class="ad5ba161-5c13-4d3e-83c0-87b316649e6d" transform="translate(220.75 461.52)">Q</text>
  <g>
    <g>
      <polygon class="ea1f3f53-0458-4019-a23a-fd406775eac9" points="1155.48 461.4 1155.48 457.59 1168.92 445.98 1168.92 449.79 1155.48 461.4"/>
      <path class="ea1f3f53-0458-4019-a23a-fd406775eac9" d="M1154.41,461.4v-3.81a1.05,1.05,0,0,1,.37-.81l13.44-11.61a1.08,1.08,0,0,1,1.78.81v3.81a1.08,1.08,0,0,1-.37.81l-13.44,11.61a1.07,1.07,0,0,1-1.78-.81Zm2.15-3.32v1l11.29-9.75v-1Z"/>
    </g>
    <g>
      <polygon class="ea1f3f53-0458-4019-a23a-fd406775eac9" points="1155.48 461.4 1155.48 457.59 1142.04 445.98 1142.04 449.79 1155.48 461.4"/>
      <path class="ea1f3f53-0458-4019-a23a-fd406775eac9" d="M1141,449.79V446a1.08,1.08,0,0,1,1.78-.81l13.45,11.61a1.08,1.08,0,0,1,.37.81v3.81a1.09,1.09,0,0,1-.63,1,1.08,1.08,0,0,1-1.15-.17l-13.44-11.61A1.06,1.06,0,0,1,1141,449.79Zm2.16-1.46v1l11.29,9.75v-1Z"/>
    </g>
  </g>
  <line class="a0ae91bc-7ce0-405a-8e86-81eca09678ca" x1="186" y1="564.5" x2="1186" y2="564.5"/>
  <text class="a417d2cb-3c69-4ee2-a75d-a536ddb41c47" transform="translate(263.85 534.36)">現在、会社に勤めているのですが、会員登録できますか？</text>
  <text class="ad5ba161-5c13-4d3e-83c0-87b316649e6d" transform="translate(220.75 537.52)">Q</text>
  <g>
    <g>
      <polygon class="ea1f3f53-0458-4019-a23a-fd406775eac9" points="1155.48 537.4 1155.48 533.59 1168.92 521.98 1168.92 525.79 1155.48 537.4"/>
      <path class="ea1f3f53-0458-4019-a23a-fd406775eac9" d="M1154.41,537.4v-3.81a1.05,1.05,0,0,1,.37-.81l13.44-11.61a1.08,1.08,0,0,1,1.78.81v3.81a1.08,1.08,0,0,1-.37.81l-13.44,11.61a1.07,1.07,0,0,1-1.78-.81Zm2.15-3.32v1l11.29-9.75v-1Z"/>
    </g>
    <g>
      <polygon class="ea1f3f53-0458-4019-a23a-fd406775eac9" points="1155.48 537.4 1155.48 533.59 1142.04 521.98 1142.04 525.79 1155.48 537.4"/>
      <path class="ea1f3f53-0458-4019-a23a-fd406775eac9" d="M1141,525.79V522a1.08,1.08,0,0,1,1.78-.81l13.45,11.61a1.08,1.08,0,0,1,.37.81v3.81a1.09,1.09,0,0,1-.63,1,1.08,1.08,0,0,1-1.15-.17l-13.44-11.61A1.06,1.06,0,0,1,1141,525.79Zm2.16-1.46v1l11.29,9.75v-1Z"/>
    </g>
  </g>
</svg>
