<svg id="fdaaf2bb-9799-48c9-a495-f162f3a23190" data-name="レイヤー 1" xmlns="http://www.w3.org/2000/svg" xmlns:xlink="http://www.w3.org/1999/xlink" viewBox="0 0 1366 261">
  <defs>
    <style>
      .a09af10a-f147-4867-84fe-5715d3fe471d {
        fill: #fff;
      }

      .fccd3eca-9616-46f4-aed7-0a4bcb698799 {
        opacity: 0.3;
      }

      .aee2ea55-e97f-490d-a9e4-91f7b93f2dac {
        fill: #dc4335;
      }

      .be5f383d-f749-4893-afec-60941ce550db {
        fill: none;
        stroke: #000;
        stroke-miterlimit: 10;
      }

      .ec9ebe14-8ce3-4930-9043-e91ad16a9a1a {
        font-size: 18px;
        font-family: HiraginoSans-W6-83pv-RKSJ-H, Hiragino Sans;
      }

      .a3adf582-4e8c-496f-b7f8-9a51e90bbca7 {
        font-size: 12px;
        fill: #0045ba;
        font-family: HiraginoSans-W4-83pv-RKSJ-H, Hiragino Sans;
      }

      .a36bec37-1d86-4d39-aea6-f84fa3d85e81 {
        font-size: 26px;
        font-family: KozGoPr6N-Bold-83pv-RKSJ-H, Kozuka Gothic Pr6N;
      }
    </style>
  </defs>
  <image width="1980" height="966" transform="translate(-79.99 -406.01) scale(0.77)" xlink:href="http://3.112.250.183/wp-content/uploads/2021/11/pixta_54444200_XL.jpg"/>
  <rect class="a09af10a-f147-4867-84fe-5715d3fe471d" x="-10" y="261" width="572" height="129" rx="10"/>
  <rect class="a09af10a-f147-4867-84fe-5715d3fe471d" x="186" y="22" width="1000" height="100" rx="10"/>
  <g class="fccd3eca-9616-46f4-aed7-0a4bcb698799">
    <path class="aee2ea55-e97f-490d-a9e4-91f7b93f2dac" d="M1176,22a10,10,0,0,1,10,10v80a10,10,0,0,1-10,10H196a10,10,0,0,1-10-10V32a10,10,0,0,1,10-10h980m0-5H196a15,15,0,0,0-15,15v80a15,15,0,0,0,15,15h980a15,15,0,0,0,15-15V32a15,15,0,0,0-15-15Z"/>
  </g>
  <line class="be5f383d-f749-4893-afec-60941ce550db" x1="217" y1="64" x2="255" y2="64"/>
  <line class="be5f383d-f749-4893-afec-60941ce550db" x1="217" y1="72.5" x2="255" y2="72.5"/>
  <line class="be5f383d-f749-4893-afec-60941ce550db" x1="217" y1="81.5" x2="255" y2="81.5"/>
  <text class="ec9ebe14-8ce3-4930-9043-e91ad16a9a1a" transform="translate(769.22 90.22)">案件情報一覧</text>
  <text class="ec9ebe14-8ce3-4930-9043-e91ad16a9a1a" transform="translate(610.89 90.22)">はじめての方へ</text>
  <text class="ec9ebe14-8ce3-4930-9043-e91ad16a9a1a" transform="translate(909.56 90.22)">教育サービス</text>
  <text class="ec9ebe14-8ce3-4930-9043-e91ad16a9a1a" transform="translate(1049.89 90.22)">お問い合わせ</text>
  <text class="a3adf582-4e8c-496f-b7f8-9a51e90bbca7" transform="translate(845.89 58.47)">ご利用の流れ</text>
  <text class="a3adf582-4e8c-496f-b7f8-9a51e90bbca7" transform="translate(949.89 58.47)">企業様へ</text>
  <text class="a3adf582-4e8c-496f-b7f8-9a51e90bbca7" transform="translate(1022.89 58.47)">お仕事を探している方へ</text>
  <text class="a3adf582-4e8c-496f-b7f8-9a51e90bbca7" transform="translate(765.89 58.47)">運営会社</text>
  <text class="a36bec37-1d86-4d39-aea6-f84fa3d85e81" transform="translate(279.61 82.02)">サイバースミス</text>
</svg>
