<svg id="f9003bd9-cb66-4354-8bc5-8aad5951e976" data-name="レイヤー 1" xmlns="http://www.w3.org/2000/svg" viewBox="0 0 1366 87">
  <defs>
    <style>
      .e0299ad3-5ca7-4d2f-b150-89c44ef33966, .eb863834-a929-4d2d-a7e5-7fd0697ed058 {
        font-size: 14px;
        letter-spacing: 0.1em;
      }

      .e0299ad3-5ca7-4d2f-b150-89c44ef33966 {
        font-family: HiraKakuProN-W3-83pv-RKSJ-H, Hiragino Kaku Gothic ProN;
      }

      .eb863834-a929-4d2d-a7e5-7fd0697ed058 {
        font-family: HiraKakuProN-W6-83pv-RKSJ-H, Hiragino Kaku Gothic ProN;
      }

      .bb17da86-435c-40de-9eb1-aa11669dfcb3 {
        fill: #dc4335;
      }

      .bbbfcfa9-de3f-4b21-b090-40ff208290fb {
        fill: none;
        stroke: #dc4335;
        stroke-miterlimit: 10;
      }
    </style>
  </defs>
  <text class="e0299ad3-5ca7-4d2f-b150-89c44ef33966" transform="translate(1000.54 47.41)">トップページ</text>
  <text class="eb863834-a929-4d2d-a7e5-7fd0697ed058" transform="translate(1133.54 46.41)">よくある質問</text>
  <path class="bb17da86-435c-40de-9eb1-aa11669dfcb3" d="M1118.9,41.25l-1-1h0l-4.17-4.16a.36.36,0,0,0-.52,0l-1,1a.36.36,0,0,0,0,.52l2.74,2.75h-9a.29.29,0,0,0-.3.3v1.71a.3.3,0,0,0,.3.31h9l-2.74,2.74a.36.36,0,0,0,0,.52l1,1a.34.34,0,0,0,.26.11.33.33,0,0,0,.26-.11l4.17-4.16h0l1-1A.39.39,0,0,0,1118.9,41.25Z"/>
  <line class="bbbfcfa9-de3f-4b21-b090-40ff208290fb" x1="1004" y1="52.5" x2="1091" y2="52.5"/>
</svg>
