<svg id="abfbd601-90d1-4530-8efe-dcd3b8288a55" data-name="レイヤー 1" xmlns="http://www.w3.org/2000/svg" xmlns:xlink="http://www.w3.org/1999/xlink" viewBox="0 0 1366 1066">
  <defs>
    <style>
      .ac22b0ed-a844-4870-8f1c-eccf351ced5c, .e2e7b572-2603-4249-9429-fb76c9763aac {
        font-size: 42px;
        letter-spacing: 0.2em;
      }

      .ac22b0ed-a844-4870-8f1c-eccf351ced5c {
        font-family: A1MinchoStd-Bold-83pv-RKSJ-H, A-OTF A1 Mincho Std;
      }

      .b5ea53a9-8f5c-4526-9003-966bd8fed1df {
        fill: #fff;
      }

      .e2e7b572-2603-4249-9429-fb76c9763aac {
        font-family: FutoGoB101Pr6N-Bold, FutoGoB101Pr6N Bold-83pv-RKSJ-H;
        font-weight: 700;
      }

      .ab35726f-ccd4-461f-8f4f-188f73597a64, .b2285fb3-9e4c-4e9d-a3e8-fd8c856b8d79, .b319d928-00dc-4940-80b8-a531dd9e3d7d {
        font-size: 14px;
      }

      .b2285fb3-9e4c-4e9d-a3e8-fd8c856b8d79 {
        letter-spacing: 0.3em;
      }

      .fa71871e-0547-4f94-8e21-4d5591a26df2 {
        fill: #dc4335;
      }

      .b319d928-00dc-4940-80b8-a531dd9e3d7d, .bd24ebb2-1565-4205-81f6-4146babb0ee3 {
        font-family: HiraKakuProN-W3-83pv-RKSJ-H, Hiragino Kaku Gothic ProN;
      }

      .ab35726f-ccd4-461f-8f4f-188f73597a64, .b319d928-00dc-4940-80b8-a531dd9e3d7d {
        letter-spacing: 0.1em;
      }

      .ab35726f-ccd4-461f-8f4f-188f73597a64 {
        font-family: HiraKakuProN-W6-83pv-RKSJ-H, Hiragino Kaku Gothic ProN;
      }

      .f886cf98-b30b-471a-9bbe-4af3eb5137cf {
        fill: none;
        stroke: #dc4335;
        stroke-miterlimit: 10;
      }

      .bd24ebb2-1565-4205-81f6-4146babb0ee3 {
        font-size: 18px;
        letter-spacing: 0.1em;
      }

      .bceb751e-25d7-4c73-ad94-da34e88c9be1 {
        letter-spacing: 0.35em;
      }

      .a864760a-3d95-4a23-a21f-3bb5b1a041d3 {
        letter-spacing: 0.1em;
      }

      .ae38900f-71c6-4e20-8a5f-d8c13aaa602e {
        letter-spacing: -0.4em;
      }

      .ae5bde9e-4a51-4e06-b61e-d08c8d0beb86 {
        letter-spacing: 0.35em;
      }

      .ad61536c-9554-498f-9f98-68bad5dee560 {
        letter-spacing: -0.4em;
      }

      .be4af807-b886-4545-81ed-f5fce31d111d {
        fill: #4f3a4e;
      }

      .a017ef32-dc7d-4849-b9f0-c60669b451b7 {
        fill: #ffd5c9;
      }

      .a8fbdf04-efde-46eb-a36a-1933df1adfd1 {
        fill: #855d88;
      }

      .e3276e32-f5e9-467d-9480-d49302330ce4 {
        fill: #604661;
      }

      .e0e72dad-3005-458a-91fd-24d0f86ead52 {
        fill: #ffbfb4;
      }

      .ea747803-37a3-442b-9b1a-7c771fbe9534 {
        fill: #f72;
      }

      .b44f6659-d05e-4029-9f6f-c3891008c58b {
        fill: #ffbaa9;
      }

      .af81e2da-3fa2-48a9-bc33-b17deb4a0523 {
        fill: #d3db00;
      }

      .bdd42296-2b77-4591-a0aa-5beb098f72a1 {
        fill: #b1b200;
      }

      .aa79b4a9-fa00-4828-b5a6-af4ffd3a923c {
        fill: #f1a694;
      }

      .a1d97551-5318-4106-8007-4d4864210044 {
        fill: #a4cdff;
      }

      .a3a865ba-7a74-4833-a789-b18efde114eb {
        fill: #ccdfff;
      }

      .b4c4d17b-ad35-4dad-b519-23dbdc5489a9 {
        fill: #ffac47;
      }

      .aa6bc4e3-a75c-4e40-a753-88eb4338d4ff {
        fill: #0d73a4;
      }

      .abd18bd5-d802-4aad-9522-43102be7e2c1 {
        fill: #ffd1c5;
      }

      .be4d227c-3c25-4d6f-a005-12d4792f200d {
        fill: #4f3b50;
      }

      .aaf3ddf7-8a76-4c71-a686-724d1fcefbe7 {
        fill: #3389c8;
      }

      .aca687a9-39d5-431d-8fde-b8356c7cf06c {
        fill: #fdbab0;
      }

      .a0e91d2d-03b0-4114-a23f-fd11fe69c025 {
        fill: #fbb5a4;
      }

      .a841b93b-55f9-446e-aa1b-d2722dac8e80 {
        fill: #7b749d;
      }

      .b9b3980e-7d62-41ad-aaab-41a8ae1aadc7 {
        fill: #595481;
      }

      .ea1bb537-acc0-4703-8c46-c1f61a95f741 {
        fill: #ffd3c7;
      }

      .b6bf5798-181e-424d-88a4-4ba644632f61 {
        fill: #fdb7a6;
      }

      .f2e1e870-cea8-4019-b4dc-2ec19c6b797d {
        fill: #988db7;
      }

      .aa58bb51-5a8c-4169-b988-655fbb93183c {
        fill: #dceeff;
      }

      .a7f5b810-6e04-48aa-be2d-976a1b47a3fc {
        fill: #e83f47;
      }

      .fb546609-24fb-4148-a439-43ab9d38e18f {
        fill: #ff6560;
      }

      .a5f3fd1f-c2f3-45d4-8264-1bee49983b45 {
        fill: #94bceb;
      }

      .a9b12b98-9ef9-40f0-8ed3-482d1f0559fb {
        fill: #815b89;
      }

      .a33bd701-57fe-4d6b-99eb-c6e7e427be69 {
        fill: #52d3f8;
      }

      .b2c0a618-b5bc-41f7-be91-fb516160ba0b {
        fill: #ffb156;
      }

      .af8da1f2-4ca7-4282-8e96-2787dd2b776f {
        fill: #ffa23c;
      }

      .ae803a7a-da74-463b-ade9-ab174c1446e9 {
        fill: #97809a;
      }

      .f3b2c5a0-6d17-489a-bec1-ca39eddc53f7 {
        fill: #44bce6;
      }

      .bba35896-3342-440c-9062-874459fa5d6c {
        fill: #68e6ff;
      }

      .a0e0bdef-38af-4c00-9c5f-24c7ce9858e0 {
        fill: #c56c5d;
      }

      .bfc115ad-4a29-4d22-bf50-d9a87e0e8b81 {
        fill: #e38c82;
      }

      .ed37f400-b593-4a09-b7bf-35b7311dfc1d {
        fill: #9862ed;
      }

      .f0f0c9c9-c069-4750-85c5-93d6de0f781d {
        fill: #ac80e0;
      }

      .f26315f2-54c6-4cfa-91a3-55df0a2192d9 {
        fill: #ffc000;
      }

      .a2185688-5434-48ac-a136-18a1c5802620 {
        fill: #ff5457;
      }
    </style>
  </defs>
  <image width="1980" height="1386" transform="translate(-512 -1604) scale(1.21)" xlink:href="http://3.112.250.183/wp-content/uploads/2021/11/pixta_79583965_XL.jpg"/>
  <text class="ac22b0ed-a844-4870-8f1c-eccf351ced5c" transform="translate(205.95 273.21)">新たな価値創造を通じて<tspan x="0" y="60">社会課題を解決する</tspan></text>
  <rect class="b5ea53a9-8f5c-4526-9003-966bd8fed1df" x="-112" width="572" height="129" rx="10"/>
  <text class="e2e7b572-2603-4249-9429-fb76c9763aac" transform="translate(185.62 121.05)">運営会社</text>
  <text class="b2285fb3-9e4c-4e9d-a3e8-fd8c856b8d79" transform="translate(210.21 69.49)">COMPANY</text>
  <line class="fa71871e-0547-4f94-8e21-4d5591a26df2" x1="204" y1="53" x2="188" y2="69"/>
  <a href="/"><text class="b319d928-00dc-4940-80b8-a531dd9e3d7d" transform="translate(1029.54 118.41)">トップページ</text></a>
  <a href="."><text class="ab35726f-ccd4-461f-8f4f-188f73597a64" transform="translate(1162.54 117.41)">運営会社</text></a>
  <path class="fa71871e-0547-4f94-8e21-4d5591a26df2" d="M1147.9,112.25l-1-1h0l-4.17-4.16a.36.36,0,0,0-.52,0l-1,1a.36.36,0,0,0,0,.52l2.74,2.75h-9a.29.29,0,0,0-.3.3v1.71a.3.3,0,0,0,.3.31h9l-2.74,2.74a.36.36,0,0,0,0,.52l1,1a.34.34,0,0,0,.26.11.33.33,0,0,0,.26-.11l4.17-4.16h0l1-1A.39.39,0,0,0,1147.9,112.25Z"/>
  <line class="f886cf98-b30b-471a-9bbe-4af3eb5137cf" x1="1033" y1="123.5" x2="1120" y2="123.5"/>
  <text class="bd24ebb2-1565-4205-81f6-4146babb0ee3" transform="translate(271.69 936.66)">教育で日本<tspan class="bceb751e-25d7-4c73-ad94-da34e88c9be1" x="99" y="0">の</tspan><tspan class="a864760a-3d95-4a23-a21f-3bb5b1a041d3" x="123.3" y="0">I</tspan><tspan class="bceb751e-25d7-4c73-ad94-da34e88c9be1" x="129.58" y="0">T</tspan><tspan class="a864760a-3d95-4a23-a21f-3bb5b1a041d3" x="147.56" y="0">人材不足の課題を解決し</tspan><tspan class="ae38900f-71c6-4e20-8a5f-d8c13aaa602e" x="365.36" y="0">、</tspan><tspan class="a864760a-3d95-4a23-a21f-3bb5b1a041d3" x="376.16" y="0">「日</tspan><tspan class="ae5bde9e-4a51-4e06-b61e-d08c8d0beb86" x="415.76" y="0">本</tspan><tspan x="440.06" y="0">I</tspan><tspan class="bceb751e-25d7-4c73-ad94-da34e88c9be1" x="446.34" y="0">T</tspan><tspan x="464.33" y="0">先進国化」を目指すと共に、どうせ教育や</tspan><tspan x="0" y="31.5">るならイノベーター人材を育成し</tspan><tspan class="ae38900f-71c6-4e20-8a5f-d8c13aaa602e" x="297" y="31.5">、</tspan><tspan class="a864760a-3d95-4a23-a21f-3bb5b1a041d3" x="307.8" y="31.5">「スタートアップ大国日本」を創り上げ、日本か</tspan><tspan class="bceb751e-25d7-4c73-ad94-da34e88c9be1" x="743.4" y="31.5">ら</tspan><tspan x="767.7" y="31.5">GAFA</tspan><tspan x="0" y="63">を超える企業を排出する</tspan><tspan class="ad61536c-9554-498f-9f98-68bad5dee560" x="217.8" y="63">。</tspan></text>
  <g>
    <g>
      <path class="be4af807-b886-4545-81ed-f5fce31d111d" d="M655.86,662a.8.8,0,0,1-.17-.43l-.71.1s-1.32,5.14-1.84,8.52c0,.12,0,.24,0,.36a6.85,6.85,0,0,0-.09,2.33c.5,1.58,26,4.54,28,.23a5.88,5.88,0,0,0-1.09-2.31,7.08,7.08,0,0,0-4.52-2.63,24.1,24.1,0,0,1-3.36-.91l-1.27-.47,0,0c-1.27,1-1.87,2.7-2.57,4.12-.34.7-1.39.08-1-.62a13.93,13.93,0,0,1,2.43-4.08l-1-.48a10.23,10.23,0,0,0-2.9,3.95c-.3.72-1.48.4-1.18-.33a11.6,11.6,0,0,1,2.92-4.22c-.38-.21-.74-.42-1.07-.62a11.06,11.06,0,0,0-3.5,4.25.61.61,0,0,1-1.05-.61,13.2,13.2,0,0,1,3.45-4.37,4.9,4.9,0,0,1-1.62-1.68c-.17-.42-.75-.67-1.52-.8l-.21,1.21S659.5,664.09,655.86,662Z"/>
      <path class="a017ef32-dc7d-4849-b9f0-c60669b451b7" d="M655.64,658.43a14.34,14.34,0,0,0,.05,3.09.8.8,0,0,0,.17.43c3.64,2.14,5.92.56,5.92.56l.21-1.21.45-2.5A14.55,14.55,0,0,1,655.64,658.43Z"/>
      <path class="a8fbdf04-efde-46eb-a36a-1933df1adfd1" d="M667.07,670.29c-.34.7.71,1.32,1,.62.7-1.42,1.3-3.11,2.57-4.12l0,0c.5-.5-.33-1.28-.92-.82l-.32.29A13.93,13.93,0,0,0,667.07,670.29Z"/>
      <path class="a8fbdf04-efde-46eb-a36a-1933df1adfd1" d="M664.38,669.35c-.3.73.88,1,1.18.33a10.23,10.23,0,0,1,2.9-3.95l.17-.16c.61-.5-.26-1.35-.86-.86a6.14,6.14,0,0,0-.47.42A11.6,11.6,0,0,0,664.38,669.35Z"/>
      <path class="a8fbdf04-efde-46eb-a36a-1933df1adfd1" d="M661.68,668.15a.61.61,0,0,0,1.05.61,11.06,11.06,0,0,1,3.5-4.25l0,0a.61.61,0,0,0-.62-1.05,5.91,5.91,0,0,0-.52.35A13.2,13.2,0,0,0,661.68,668.15Z"/>
      <path class="e3276e32-f5e9-467d-9480-d49302330ce4" d="M662.44,658.8a14.82,14.82,0,0,0,2.53-.64S684,606.3,685,601.71c.32-17.29-4.13-30-8.16-40.72-3.72,1.77-12.39,3.52-10.73-5.92.27-3.34.49-6.58.68-9.72a10.82,10.82,0,0,1-1.4-2.59,39.67,39.67,0,0,1-7.81.79c0,3.29-.35,7.51-1.5,10.07a2.39,2.39,0,0,1-1.94,1.43,6.09,6.09,0,0,1-2.06-.19s.66-6.38.83-11.4c-1.43-.06-2.81-.16-4.09-.27l-.41,0c-.32,10-1,17-2.32,17.88-4.87,3.13-16,0-16.28-1.17a15.29,15.29,0,0,1,0-1.65,94,94,0,0,0,.73,18.1c1.48,11,2.77,18.14,3.78,22.71-4.75,9.92-19.62,44.93-17.59,68.85,0,0,.7.28,1.78.59a17.72,17.72,0,0,0,6.72.75,6.56,6.56,0,0,0,2.4-.76c.88-7.17,24.63-65.2,24.63-65.2,2.12-12.43-.76-36.28-1-45.37,1.17.08,1.91.1,2.42.1,3.2,10.41,7.53,25.81,11.61,44.59C659,619,652.3,653,653.84,657.66a10.83,10.83,0,0,0,1.8.77A14.55,14.55,0,0,0,662.44,658.8Z"/>
      <path class="a8fbdf04-efde-46eb-a36a-1933df1adfd1" d="M665.43,542.76a10.82,10.82,0,0,0,1.4,2.59c.06-1,.12-2,.18-3C666.5,542.51,666,542.64,665.43,542.76Z"/>
      <path class="a8fbdf04-efde-46eb-a36a-1933df1adfd1" d="M653,543.46c-.17,5-.83,11.4-.83,11.4a6.09,6.09,0,0,0,2.06.19,2.39,2.39,0,0,0,1.94-1.43c1.15-2.56,1.46-6.78,1.5-10.07C656.05,543.57,654.47,543.53,653,543.46Z"/>
      <path class="be4af807-b886-4545-81ed-f5fce31d111d" d="M618.5,673.25a4.21,4.21,0,0,1-.17-1.8c-.82.06-1.36.12-1.36.12s-1.52,4.83-2.24,8.18l0,.13a8.32,8.32,0,0,0-.3,2.78c.41,1.6,25.66,5.91,27.93,1.71a5.75,5.75,0,0,0-.75-2,7,7,0,0,0-4.59-3.22,22,22,0,0,1-2.73-.86c-.7-.27-1.39-.56-2.08-.88a.6.6,0,0,1-.22.19,6.79,6.79,0,0,0-2.73,3.33c-.35.71-1.4.09-1.05-.61a8.45,8.45,0,0,1,2.75-3.54c-.33-.17-.65-.34-1-.52a.68.68,0,0,1-.25.14c-1.72.51-2.63,2.1-3.24,3.67-.28.73-1.46.41-1.17-.32a7.26,7.26,0,0,1,3.39-4.26c-.31-.2-.61-.4-.88-.6l0,0a9.53,9.53,0,0,0-4.78,4.23c-.38.69-1.43.07-1-.62a10.81,10.81,0,0,1,4.78-4.47,4.33,4.33,0,0,1-1.28-1.54,1.17,1.17,0,0,0-.69-.63l-.3,1.68S622.06,675.91,618.5,673.25Z"/>
      <path class="a017ef32-dc7d-4849-b9f0-c60669b451b7" d="M618.51,668.46c-.11,1.19-.17,2.2-.18,3a4.21,4.21,0,0,0,.17,1.8c3.56,2.66,6,.3,6,.3l.3-1.68.46-2.66A17.72,17.72,0,0,1,618.51,668.46Z"/>
      <path class="a8fbdf04-efde-46eb-a36a-1933df1adfd1" d="M628.18,680.31c-.35.7.7,1.32,1.05.61a6.79,6.79,0,0,1,2.73-3.33.6.6,0,0,0,.22-.19.63.63,0,0,0-.84-.86l-.41.23A8.45,8.45,0,0,0,628.18,680.31Z"/>
      <path class="a8fbdf04-efde-46eb-a36a-1933df1adfd1" d="M625.31,679.74c-.29.73.89,1,1.17.32.61-1.57,1.52-3.16,3.24-3.67a.68.68,0,0,0,.25-.14c.4-.38.07-1.23-.58-1a5.17,5.17,0,0,0-.69.26A7.26,7.26,0,0,0,625.31,679.74Z"/>
      <path class="a8fbdf04-efde-46eb-a36a-1933df1adfd1" d="M622,678.51c-.38.69.67,1.31,1,.62a9.53,9.53,0,0,1,4.78-4.23l0,0c.68-.3.37-1.45-.35-1.16l-.73.32A10.81,10.81,0,0,0,622,678.51Z"/>
      <path class="b5ea53a9-8f5c-4526-9003-966bd8fed1df" d="M648.45,543.15l.41,0c1.28.11,2.66.21,4.09.27s3.1.11,4.67.09a39.67,39.67,0,0,0,7.81-.79c.54-.12,1.07-.25,1.58-.4,2.65-48.67-3.44-72.79-4.07-75.12a.41.41,0,0,0-.05-.19l-1.37-2.33a.41.41,0,0,0-.51-.18.39.39,0,0,0-.23.21c-.55,1.13-1.61,3.28-1.94,3.91a.39.39,0,0,0,0,.38l0,.06,2,4.09c0,.19-.05.31-.11.35a5.6,5.6,0,0,1-1.16.31c2.54,9.9,3.42,47.09,3.42,47.09l-2.61,3.65-4.2-3-.5-47.22h0a1.39,1.39,0,0,1-.8-.1,3.23,3.23,0,0,1-.49-1.26l2-3.63h0a.44.44,0,0,0-.1-.55l-7-6-.1-.06a.43.43,0,0,0-.6.27l-1.1,3.46a.77.77,0,0,0,0,.15l-.15,0h.11S649.35,515.75,648.45,543.15Z"/>
      <path class="be4af807-b886-4545-81ed-f5fce31d111d" d="M662.94,467.24c.63,2.33,6.72,26.45,4.07,75.12-.06,1-.12,2-.18,3-.19,3.14-.41,6.38-.68,9.72-1.66,9.44,7,7.69,10.73,5.92,1-.47,1.62-.94,1.62-1.2,0-1.24-3-25.83-3-25.83q.79-6.68,1.58-13.35,1.33-11.37,2.68-22.73c.83-7,2.22-14.46-.39-21.26-1.41-3.65-4.61-6-8-7.65l-1.68-.69-6.8-1.23A.41.41,0,0,1,662.94,467.24Z"/>
      <path class="e0e72dad-3005-458a-91fd-24d0f86ead52" d="M660.84,460.86a19.11,19.11,0,0,1-6.54-2.36,9.83,9.83,0,0,1-4.5-4.42c-.16,1.17-.42,3.32-.54,5.79A16.34,16.34,0,0,0,661,464.06,25.17,25.17,0,0,1,660.84,460.86Z"/>
      <path class="a017ef32-dc7d-4849-b9f0-c60669b451b7" d="M656.3,468.84a.44.44,0,0,1,.1.55h0c.84-.12,1.76-.24,2.47-.3l0-.06a.39.39,0,0,1,0-.38c.33-.63,1.39-2.78,1.94-3.91a.39.39,0,0,1,.23-.21l-.06-.48a16.34,16.34,0,0,1-11.69-4.19c0,.92-.07,1.89-.07,2.86l.1.06Z"/>
      <path class="a017ef32-dc7d-4849-b9f0-c60669b451b7" d="M654.3,458.5a19.11,19.11,0,0,0,6.54,2.36,25.74,25.74,0,0,0,4.35.19,1.75,1.75,0,0,0,1.65-1.37c1.09-5,2.08-11.79,1.61-17.58a2.7,2.7,0,0,0-2.05.43c-.36.32-.9-.21-.54-.54a3.49,3.49,0,0,1,2.52-.68c0-.43-.1-.85-.17-1.27-8.38.67-13.92-.39-17.55-2-.06,1.75-.46,5.4-2.67,7.36l.15.17a4,4,0,0,1,.87,1.89,10.29,10.29,0,0,1,0,1.33,1.88,1.88,0,0,1,.74.29c.71.46,1.57,1.23,2.75,2.21,1.8,1.5,1.11,3.49.57,3.43s-5-2.44-5.81-4a1.5,1.5,0,0,1-.17-.52,1.4,1.4,0,0,0-.39.26.38.38,0,0,1-.54-.54,2.07,2.07,0,0,1,1-.54l-.09-.09c-.48-.44-1.39-1.16-2.09-1.06-.48.07-.68-.67-.2-.74a3.61,3.61,0,0,1,3,1.48,2.34,2.34,0,0,1,.24-.09,3.76,3.76,0,0,0-1.18-2.75l-.06,0v0l0,0a6.61,6.61,0,0,0-1-.61,4.47,4.47,0,0,1-.72-.25,1.33,1.33,0,0,0-1.31.34,1.6,1.6,0,0,0-.16.19c-1.5,2.21,2.11,7.91,5.94,7.81,0,0,0,.11.08.16l.13.26A9.83,9.83,0,0,0,654.3,458.5Zm12.85-12.32a.66.66,0,0,1,1.09.76.67.67,0,0,1-.93.16A.66.66,0,0,1,667.15,446.18Zm-2.61-1a2,2,0,0,1,0-.38c.07-.36.58-1.26,1-.6a1,1,0,0,1,.1.44,14.24,14.24,0,0,0,1.61,6.2,3.19,3.19,0,0,1,.4,1,.77.77,0,0,1-.13.63.91.91,0,0,1-.64.31c-.62.07-1.95.2-2.27-.52a1.61,1.61,0,0,1-.09-.62C664.53,449.5,664.54,447.34,664.54,445.18Zm.38,11.25c.48-.05.48.72,0,.76a11.26,11.26,0,0,1-6.17-1.18c-.44-.22,0-.88.39-.66A10.57,10.57,0,0,0,664.92,456.43Zm-5-9.42a.66.66,0,0,1,1.09.76.67.67,0,0,1-.93.16A.66.66,0,0,1,659.91,447Zm-3.7-2.61c.67-2.27,3.71-3,5.66-2,.44.23,0,.88-.38.66-1.5-.77-4-.25-4.55,1.52A.38.38,0,0,1,656.21,444.4Z"/>
      <path class="e0e72dad-3005-458a-91fd-24d0f86ead52" d="M664.64,452.28c.32.72,1.65.59,2.27.52a.91.91,0,0,0,.64-.31.77.77,0,0,0,.13-.63,3.19,3.19,0,0,0-.4-1,14.24,14.24,0,0,1-1.61-6.2,1,1,0,0,0-.1-.44c-.41-.66-.92.24-1,.6a2,2,0,0,0,0,.38c0,2.16,0,4.32,0,6.48A1.61,1.61,0,0,0,664.64,452.28Z"/>
      <path class="be4af807-b886-4545-81ed-f5fce31d111d" d="M661,447.77a.66.66,0,1,0-.93.16A.67.67,0,0,0,661,447.77Z"/>
      <path class="be4af807-b886-4545-81ed-f5fce31d111d" d="M667.31,447.1a.67.67,0,0,0,.93-.16.66.66,0,1,0-.93.16Z"/>
      <path class="be4af807-b886-4545-81ed-f5fce31d111d" d="M633.86,401.65a.28.28,0,0,1,0-.06l-.16.23Z"/>
      <path class="ea747803-37a3-442b-9b1a-7c771fbe9534" d="M645.84,445.57h0a6.61,6.61,0,0,1,1,.61h0l.06,0A2.88,2.88,0,0,0,645.84,445.57Z"/>
      <path class="ea747803-37a3-442b-9b1a-7c771fbe9534" d="M645.12,445.32c-.29-.14-.48-.32-.22-.52a1.5,1.5,0,0,1,.79-.3,2.6,2.6,0,0,1,2.3.92c2.21-2,2.61-5.61,2.67-7.36,3.63,1.59,9.17,2.65,17.55,2,.88-.07,1.78-.16,2.72-.27a6.89,6.89,0,0,0,2.68-.88c6.91-4,3.33-11.5-.82-12.06-3.81-.47-4.84,2-6.64.5-15.12-11.3-22.3,4.26-22.3,4.26h0a.28.28,0,0,0,0,.06l-.17.17a4.69,4.69,0,0,0-.83,1.61c-1.59,4.71-1,10.17.95,12.23A1.33,1.33,0,0,1,645.12,445.32Z"/>
      <path class="be4af807-b886-4545-81ed-f5fce31d111d" d="M632.07,471l1-.76c-.51.27-1,.54-1.4.78l.22-.09S632,471,632.07,471Z"/>
      <path class="be4af807-b886-4545-81ed-f5fce31d111d" d="M646.13,561c1.3-.84,2-7.93,2.32-17.88.9-27.4-1-76.51-1-76.51h-.11a16.41,16.41,0,0,0-3.64,0,11.16,11.16,0,0,1-.83,1.48v.08c-2,3.63-4.12,7-6.19,10.16,0,.08.05.15.08.22a19.52,19.52,0,0,1,.9,5.93c0,3.62-1,8-3.5,10.75a12.94,12.94,0,0,1-3.26,2.46c-.14,6.36-1.1,51.23-1.07,60.47a15.29,15.29,0,0,0,0,1.65C630.14,561.07,641.26,564.16,646.13,561Z"/>
      <path class="b44f6659-d05e-4029-9f6f-c3891008c58b" d="M647.72,449.08l.18-.11a3.61,3.61,0,0,0-3-1.48c-.48.07-.28.81.2.74.7-.1,1.61.62,2.09,1.06l.09.09a2.07,2.07,0,0,0-1,.54.38.38,0,0,0,.54.54,1.4,1.4,0,0,1,.39-.26A1.15,1.15,0,0,1,647.72,449.08Z"/>
      <path class="e3276e32-f5e9-467d-9480-d49302330ce4" d="M632.07,471c-.07-.06-.13-.09-.17-.07l-.22.09c-4.14,1.76-6.68,4.8-9.89,7.75C625.21,476.19,628.82,473.51,632.07,471Z"/>
      <path class="e3276e32-f5e9-467d-9480-d49302330ce4" d="M634.14,495.28c2.46-2.78,3.47-7.13,3.5-10.75a19.52,19.52,0,0,0-.9-5.93c0-.07,0-.14-.08-.22-11.45,17.34-22.87,27-27.8,26.38a2.59,2.59,0,0,1-1.45-.65h0c0,.24,1.54.79,1.76.86a8.22,8.22,0,0,0,2.2.41c3.07.16,5.88-1.15,8.59-2.44s5.87-2.18,8.5-3.81c.76-.47,1.6-.92,2.42-1.39A12.94,12.94,0,0,0,634.14,495.28Z"/>
      <path class="e0e72dad-3005-458a-91fd-24d0f86ead52" d="M636.66,478.38c2.07-3.14,4.15-6.53,6.19-10.16v-.08a11.16,11.16,0,0,0,.83-1.48,8.75,8.75,0,0,0-.06-7.56,46.77,46.77,0,0,0-2.9-6.24c-1.1-1.6-1.18-6.92-1.18-6.92a5.17,5.17,0,0,0-1.46-2.5.5.5,0,0,0-.34-.13.35.35,0,0,1,.17.35c-.1,2-.6,4-.64,6.08a16.62,16.62,0,0,0,.87,5.82c.18.53-.66.76-.84.23a16.64,16.64,0,0,1-.9-5.65c0-1.93.42-3.79.59-5.69a3.81,3.81,0,0,0-1-1.8.52.52,0,0,0-.24-.13.46.46,0,0,1,.14.41c-.34,2.06-.54,4.15-.71,6.23a13,13,0,0,0,.67,6.32c.22.51-.53.95-.75.44a13.41,13.41,0,0,1-.8-6.49c0-.67.1-1.33.16-2a3.73,3.73,0,0,0-.93-1.44.52.52,0,0,0-.87.34l-.58,6.54c0,.2,1,5.26,1.08,5.45l2,6.14a14.16,14.16,0,0,0,1.21,3.32c-1,.79-2.07,1.62-3.21,2.49l-1,.76c-3.25,2.47-6.86,5.15-10.28,7.77a108.3,108.3,0,0,0-11.4,9.62,14.25,14.25,0,0,0-3.67,5.84c-.94,2.89-1.35,8,.69,9.84a2.59,2.59,0,0,0,1.45.65C613.79,505.36,625.21,495.72,636.66,478.38Zm-1.19-24.59c0-.11-.05-.22-.08-.33Z"/>
      <path class="be4af807-b886-4545-81ed-f5fce31d111d" d="M656.94,444.61c.53-1.77,3-2.29,4.55-1.52.43.22.82-.43.38-.66-2-1-5-.3-5.66,2A.38.38,0,0,0,656.94,444.61Z"/>
      <path class="be4af807-b886-4545-81ed-f5fce31d111d" d="M665.86,442c-.36.33.18.86.54.54a2.7,2.7,0,0,1,2.05-.43.65.65,0,0,1,.39.31c.22.44.88.06.66-.38a1.4,1.4,0,0,0-1.12-.72A3.49,3.49,0,0,0,665.86,442Z"/>
      <path class="af81e2da-3fa2-48a9-bc33-b17deb4a0523" d="M655.66,474.39l.5,47.22,4.2,3,2.61-3.65s-.88-37.19-3.42-47.09a27.05,27.05,0,0,1-3.89.54Z"/>
      <path class="bdd42296-2b77-4591-a0aa-5beb098f72a1" d="M654.37,473a3.23,3.23,0,0,0,.49,1.26,1.39,1.39,0,0,0,.8.1,27.05,27.05,0,0,0,3.89-.54,5.6,5.6,0,0,0,1.16-.31c.06,0,.1-.16.11-.35l-2-4.09c-.71.06-1.63.18-2.47.3Z"/>
      <path class="b44f6659-d05e-4029-9f6f-c3891008c58b" d="M658.75,456a11.26,11.26,0,0,0,6.17,1.18c.48,0,.48-.81,0-.76a10.57,10.57,0,0,1-5.78-1.08C658.7,455.13,658.31,455.79,658.75,456Z"/>
      <path class="e3276e32-f5e9-467d-9480-d49302330ce4" d="M645.69,444.5a1.5,1.5,0,0,0-.79.3c-.26.2-.07.38.22.52a4.47,4.47,0,0,0,.72.25h0a2.88,2.88,0,0,1,1.12.56,3.76,3.76,0,0,1,1.18,2.75,2.34,2.34,0,0,0-.24.09l-.18.11a1.15,1.15,0,0,0-.58,1.12,1.5,1.5,0,0,0,.17.52c.85,1.58,5.27,4,5.81,4s1.23-1.93-.57-3.43c-1.18-1-2-1.75-2.75-2.21a1.88,1.88,0,0,0-.74-.29,10.29,10.29,0,0,0,0-1.33,4,4,0,0,0-.87-1.89l-.15-.17A2.6,2.6,0,0,0,645.69,444.5Z"/>
      <path class="aa79b4a9-fa00-4828-b5a6-af4ffd3a923c" d="M637.3,455.79c.18.53,1,.3.84-.23a16.62,16.62,0,0,1-.87-5.82c0-2.05.54-4,.64-6.08a.35.35,0,0,0-.17-.35.45.45,0,0,0-.69.35l-.06.79c-.17,1.9-.57,3.76-.59,5.69A16.64,16.64,0,0,0,637.3,455.79Z"/>
      <path class="aa79b4a9-fa00-4828-b5a6-af4ffd3a923c" d="M635.05,455.92c.22.51,1,.07.75-.44a13,13,0,0,1-.67-6.32c.17-2.08.37-4.17.71-6.23a.46.46,0,0,0-.14-.41c-.23-.2-.63-.19-.7.18-.25,1.57-.44,3.15-.59,4.74-.06.66-.11,1.32-.16,2A13.41,13.41,0,0,0,635.05,455.92Z"/>
    </g>
    <g>
      <rect class="a1d97551-5318-4106-8007-4d4864210044" x="732.74" y="774.52" width="33.8" height="21.6" transform="translate(-245.09 350.35) rotate(-22.71)"/>
      <polygon class="a3a865ba-7a74-4833-a789-b18efde114eb" points="749.64 785.32 761.06 768.83 729.88 781.88 749.64 785.32"/>
    </g>
    <g>
      <rect class="a1d97551-5318-4106-8007-4d4864210044" x="776.9" y="740.2" width="58.45" height="37.36" transform="translate(130.81 -118.44) rotate(9.14)"/>
      <polygon class="b5ea53a9-8f5c-4526-9003-966bd8fed1df" points="806.12 758.88 837.94 745.08 780.24 735.79 806.12 758.88"/>
    </g>
    <g>
      <path class="b4c4d17b-ad35-4dad-b519-23dbdc5489a9" d="M948.63,603.94a2.17,2.17,0,0,0,3.15-.21l-2.73-45.54c-2.09.41-4.61.88-7.37,1.38C943.42,572.81,947.3,601.3,948.63,603.94Z"/>
      <path class="b4c4d17b-ad35-4dad-b519-23dbdc5489a9" d="M888.05,618.1a2.49,2.49,0,0,0,3.6.45l7.37-55.3-8.71-2.38C889.68,570.84,887,614.32,888.05,618.1Z"/>
      <path class="b4c4d17b-ad35-4dad-b519-23dbdc5489a9" d="M833.21,565.81c-1.46,12.74-2.86,26.4-2.44,28.36a2.18,2.18,0,0,0,3.11.58l7.64-39.14V555C838.85,558.73,836,562.45,833.21,565.81Z"/>
      <path class="af81e2da-3fa2-48a9-bc33-b17deb4a0523" d="M902.42,556.63c.16,3.49,1.67,8.17,3.3,8.44s21.9-3,36-5.5c2.76-.5,5.28-1,7.37-1.38a35.63,35.63,0,0,0,5.93-1.41c.6-.6.69-4.86.66-8C930,555,907.27,556.74,902.42,556.63Z"/>
      <path class="bdd42296-2b77-4591-a0aa-5beb098f72a1" d="M899.54,555.14a15.7,15.7,0,0,1-10.65-2.93c-13.37,1.27-23.19-1-30.12-4.12.14,1.28.26,2.63.35,4,9.78,2.83,21.81,6.17,31.19,8.75l8.71,2.38c4.12,1.13,6.7,1.82,6.7,1.82-1.63-.27-3.14-5-3.3-8.44,4.85.11,27.62-1.61,53.22-7.9h0a11.13,11.13,0,0,0,0-2.53C944.6,550.88,915.12,553.85,899.54,555.14Z"/>
      <path class="af81e2da-3fa2-48a9-bc33-b17deb4a0523" d="M865.76,498.25l1.12.15c.08-.35.16-.7.25-1A7.9,7.9,0,0,1,865.76,498.25Z"/>
      <path class="af81e2da-3fa2-48a9-bc33-b17deb4a0523" d="M826.91,514l.07-.15-.65.13a2.7,2.7,0,0,1,.39.08Z"/>
      <path class="af81e2da-3fa2-48a9-bc33-b17deb4a0523" d="M837.31,525.56l-3-15.56-1.7.48a23.34,23.34,0,0,1-.1,2.43c-.15,1.43-1.8,2.51-3,3.14a10.89,10.89,0,0,1,2,5.9c.31,4.6-1.85,8.49-4.82,8.68s-5.62-3.37-5.92-8c-.26-3.88,1.23-7.25,3.49-8.33a36.13,36.13,0,0,1-4.49.61v0a.36.36,0,0,1-.23.32,20.21,20.21,0,0,0,.06,11.28,12.73,12.73,0,0,0,10.7,9.42l6.78-10.11Z"/>
      <path class="af81e2da-3fa2-48a9-bc33-b17deb4a0523" d="M949.6,439.57c-8.14-2.31-20.53-3.51-32.44-3.48a53.71,53.71,0,0,0-9.43.83c.11,2.13-1.43,5.28-3.66,6.21a7.47,7.47,0,0,1,.21,1.07c16.53-2.35,36.8-2.13,42.61,6.57,4.5,6.73.27,31.11-4.16,50.72.73,6.51.72,12.73,0,16.37h0a10,10,0,0,1-4,6.47c-2.15,1.62-4.5.92-7.09,1.06-7.45.4-16.43-1.74-26-2.73a10.19,10.19,0,0,1-7.42,1.92c-5.86,1.85-10.37,4.07-12.26,6.66l0,.06c-3.55,4.94-2.88,10.73-1.2,15.45a11.88,11.88,0,0,0,4.13,5.46,15.7,15.7,0,0,0,10.65,2.93c15.58-1.29,45.06-4.26,56.12-8.94a13.69,13.69,0,0,0,3-1.66c8-6.26,4-19.51-2.66-24.52,4.61-16.7,8.59-42.66,9.51-59C966.11,450.4,960.45,442.64,949.6,439.57ZM885.8,542c-.31-4.6,1.85-8.49,4.82-8.69s5.62,3.37,5.92,8-1.85,8.49-4.82,8.69S886.1,546.6,885.8,542Z"/>
      <path class="af81e2da-3fa2-48a9-bc33-b17deb4a0523" d="M886.52,448.86a1,1,0,0,1-.12-.16c-.51.68-.75,1.08-.75,1.08h0A8.49,8.49,0,0,1,886.52,448.86Z"/>
      <path class="bdd42296-2b77-4591-a0aa-5beb098f72a1" d="M890.17,454.08a12.37,12.37,0,0,0,.33-1.61,1.58,1.58,0,0,1-1.29-1l-.13-.34h0a9.53,9.53,0,0,1-2.56-2.29,8.49,8.49,0,0,0-.87.92,20.43,20.43,0,0,0-3.44,7.76A43.46,43.46,0,0,1,890.17,454.08Z"/>
      <path class="bdd42296-2b77-4591-a0aa-5beb098f72a1" d="M904.34,445.5a37.69,37.69,0,0,1,.31,7.24,113.33,113.33,0,0,1,19.81,6.33,9.17,9.17,0,0,1,2.55,1.05c5.68,3.4,13.2,17.2,13.82,30.52l0,.05a78.84,78.84,0,0,1,1.92,10.8c4.43-19.61,8.66-44,4.16-50.72-5.81-8.7-26.08-8.92-42.61-6.57A5.85,5.85,0,0,1,904.34,445.5Z"/>
      <path class="aa6bc4e3-a75c-4e40-a753-88eb4338d4ff" d="M810.27,581.86c-4.62-.63-4.7-4.18-4.7-4.18l1-1.38a1.43,1.43,0,0,0-1.21,0c-1.64,1-8.62,0-13.15-2.18s-7.46.65-7.46.65c-.92,4.69,21.37,17.41,22.72,16.43s5.05-10.22,5.05-10.22l-.53-.53C811.1,581.32,810.5,581.85,810.27,581.86Z"/>
      <path class="abd18bd5-d802-4aad-9522-43102be7e2c1" d="M806.53,576.3l-1,1.38s.08,3.55,4.7,4.18c.23,0,.83-.54,1.68-1.45s1.76-2,2.88-3.42a51.67,51.67,0,0,1-5.85-4.24Z"/>
      <path class="aa6bc4e3-a75c-4e40-a753-88eb4338d4ff" d="M845,603.67V602a1.43,1.43,0,0,0-1,.65c-.78,1.76-7.1,4.89-12.07,5.66s-5.77,4.77-5.77,4.77c1.9,4.38,27.48,2.22,28,.65s-1.63-11.28-1.63-11.28l-.75-.14a5.07,5.07,0,0,1-.56,2.15C847.09,606.55,845,603.67,845,603.67Z"/>
      <path class="abd18bd5-d802-4aad-9522-43102be7e2c1" d="M845,596.66v7s2.08,2.88,6.24.78a5.07,5.07,0,0,0,.56-2.15c.2-1.39.39-3.39.52-5.75A13.29,13.29,0,0,1,845,596.66Z"/>
      <path class="be4d227c-3c25-4d6f-a005-12d4792f200d" d="M858.77,548.09c6.93,3.12,16.75,5.39,30.12,4.12a11.88,11.88,0,0,1-4.13-5.46c-1.68-4.72-2.35-10.51,1.2-15.45-2-.57-3.88-1.18-5.67-1.8l-6.22,3L837.39,526l-.08-.41-.2.32L830.33,536l-23.44,35s.82.76,2.09,1.81a51.67,51.67,0,0,0,5.85,4.24,15.8,15.8,0,0,0,5.25,2.22c1,.19,6.75-5.65,13.13-13.4,2.76-3.36,5.64-7.08,8.31-10.83v.63l.48,38.55a4.94,4.94,0,0,0,3,2.5,13.29,13.29,0,0,0,7.31-.11c.28-.07.55-.16.81-.24l3.69-1.23c1.6-.7,3.5-25.77,2.29-43C859,550.72,858.91,549.37,858.77,548.09Z"/>
      <path class="bdd42296-2b77-4591-a0aa-5beb098f72a1" d="M822.89,518.47a.52.52,0,0,1-.63-.7,7.4,7.4,0,0,1,4.46-3.69,2.7,2.7,0,0,0-.39-.08,10.12,10.12,0,0,1-1,.13l-1,.2c-2.26,1.08-3.75,4.45-3.49,8.33.3,4.6,3,8.17,5.92,8s5.13-4.08,4.82-8.68a10.89,10.89,0,0,0-2-5.9c-.67.36-1.2.57-1.24.61Z"/>
      <path class="abd18bd5-d802-4aad-9522-43102be7e2c1" d="M832.63,507.5a6.66,6.66,0,0,1-.19,1,14.56,14.56,0,0,1,.15,1.94l1.7-.48L833,503.07l-2.73,1.9A3.53,3.53,0,0,1,832.63,507.5Z"/>
      <path class="abd18bd5-d802-4aad-9522-43102be7e2c1" d="M865.76,498.25a7.9,7.9,0,0,0,1.37-.9,23.57,23.57,0,0,1,2.57-6.27.91.91,0,0,1,.08-.13c-4.09-.79-7.84-5.22-8.42-9.51-2,3.88-4.09,8.43-4.17,8.57s0,0,0,0a53.73,53.73,0,0,0-12.11,5.35Z"/>
      <path class="abd18bd5-d802-4aad-9522-43102be7e2c1" d="M889.08,451.15h0l.13.34a1.58,1.58,0,0,0,1.29,1,1.15,1.15,0,0,0,.37,0,15.88,15.88,0,0,0,6.65-2.22h0s6.52.16,6.82-4.75a5.85,5.85,0,0,0-.06-1.3,7.47,7.47,0,0,0-.21-1.07c2.23-.93,3.77-4.08,3.66-6.21a2.36,2.36,0,0,0-.56-1.54.8.8,0,0,0-.17-.15c-.75-.57-1.71,0-2.58.95l0,0v0c-3-.94-4.2-4.94-4.58-6.73-2.91,2-7.56,3.82-15,4.53,0,.39,0,.78.07,1.18a3,3,0,0,1,2.28.2c.37.24,0,.83-.35.59a2.39,2.39,0,0,0-1.87-.09,39.71,39.71,0,0,0,.8,4.8h0s-2.09,4.27.64,8.05a1,1,0,0,0,.12.16A9.53,9.53,0,0,0,889.08,451.15ZM892.36,439a.58.58,0,0,1,.83,0,.62.62,0,0,1,0,.86.57.57,0,0,1-.83,0A.62.62,0,0,1,892.36,439ZM891,448.52c-.44.05-.44-.64,0-.68a6,6,0,0,0,2.88-1.12c.37-.25.71.34.35.6A6.73,6.73,0,0,1,891,448.52Zm3.39.51-1.19.54a.35.35,0,0,1-.47-.13.34.34,0,0,1,.12-.47l1.2-.53a.36.36,0,0,1,.47.12A.35.35,0,0,1,894.37,449Zm12-11.29c-.68,0-1.37.85-1.74,1.39a1.75,1.75,0,0,1,1,.32c.36.25,0,.84-.34.59a1.11,1.11,0,0,0-1-.17,5.16,5.16,0,0,0-.34,1.16.31.31,0,0,1-.49.19c-.06-.13-.11-.25-.17-.36h0a5.33,5.33,0,0,1,1.07-2.43,3.17,3.17,0,0,1,2.07-1.37C906.81,437,906.8,437.72,906.36,437.74Zm-15.64-2.58c1.55-1.24,4.34-1.05,5.27.85.2.39-.4.74-.59.34-.72-1.46-3-1.68-4.19-.7C890.87,435.92,890.38,435.44,890.72,435.16Zm-4.8,4.18a.59.59,0,0,1,.83,0,.63.63,0,0,1,0,.87.59.59,0,0,1-.83,0A.63.63,0,0,1,885.92,439.34Zm1.87-1.61a1,1,0,0,1,0-.42c.25-.66.83.07,1,.39a1.53,1.53,0,0,1,.1.34c.35,1.95.71,3.9,1,5.85a1.42,1.42,0,0,1,0,.58c-.16.7-1.34.79-1.9.82a.74.74,0,0,1-.6-.18.72.72,0,0,1-.22-.55,3.26,3.26,0,0,1,.18-1A13.3,13.3,0,0,0,887.79,437.73Z"/>
      <path class="aa6bc4e3-a75c-4e40-a753-88eb4338d4ff" d="M869.78,491c1.59-2.5,3.43-2.86,4.68-3.77a6.91,6.91,0,0,1,1.35-.69c-3.93-20.41,4.93-28.18,5.69-28.56l.35-.19a24.66,24.66,0,0,0-9.52,6.28,60.72,60.72,0,0,0-9,11c-.41.66-.79,1.26-1.14,1.84a7,7,0,0,0-.84,4.62C861.94,485.73,865.69,490.16,869.78,491Z"/>
      <path class="aaf3ddf7-8a76-4c71-a686-724d1fcefbe7" d="M896.49,524.17s-1.91-.37-3.62-.82l-12.58,6.15c1.79.62,3.72,1.23,5.67,1.8l0-.06c1.89-2.59,6.4-4.81,12.26-6.66A10.21,10.21,0,0,1,896.49,524.17Z"/>
      <path class="aaf3ddf7-8a76-4c71-a686-724d1fcefbe7" d="M890.43,518.05l.29,0Z"/>
      <path class="aaf3ddf7-8a76-4c71-a686-724d1fcefbe7" d="M875.81,486.49a6.91,6.91,0,0,0-1.35.69c-1.25.91-3.09,1.27-4.68,3.77a.91.91,0,0,0-.08.13,23.57,23.57,0,0,0-2.57,6.27c-.09.35-.17.7-.25,1l2.36.33,2.53,17.75,12.08,1.76.18,0a1.54,1.54,0,0,1-.74-.7.94.94,0,0,1,.08-.89l.06-.1.12,0a27.64,27.64,0,0,1,6-1.19,1.39,1.39,0,0,1,.41,0h0a11.4,11.4,0,0,1,2.85.12.41.41,0,0,1,.25.19l4.84.49a14.9,14.9,0,0,1,5.1.71c13.1-4,21.41-6.27,27.09-6.93a70.39,70.39,0,0,1-4.56-11.7l-.66-.06-9.34-17.8c-3.22-4.41-3-11.59-.82-16.39a8.41,8.41,0,0,1,9.75-4.8,113.33,113.33,0,0,0-19.81-6.33c0,.42-.06.84-.12,1.26-.23,1.88-1.84,3.49-4.15,4.18a11,11,0,0,1-7.27,0c-1.54-.62-3.47-2.46-3-3.88a2,2,0,0,0,.08-.26,43.46,43.46,0,0,0-8,3.46l-.36.2-.35.19C880.74,458.31,871.88,466.08,875.81,486.49Z"/>
      <path class="aca687a9-39d5-431d-8fde-b8356c7cf06c" d="M904.34,445.5c-.3,4.91-6.82,4.75-6.82,4.75h0a15.88,15.88,0,0,1-6.65,2.22,1.15,1.15,0,0,1-.37,0,12.37,12.37,0,0,1-.33,1.61,2,2,0,0,1-.08.26c-.45,1.42,1.48,3.26,3,3.88a11,11,0,0,0,7.27,0c2.31-.69,3.92-2.3,4.15-4.18.06-.42.09-.84.12-1.26A37.69,37.69,0,0,0,904.34,445.5Z"/>
      <path class="aca687a9-39d5-431d-8fde-b8356c7cf06c" d="M887.39,443.58a3.26,3.26,0,0,0-.18,1,.72.72,0,0,0,.22.55.74.74,0,0,0,.6.18c.56,0,1.74-.12,1.9-.82a1.42,1.42,0,0,0,0-.58c-.33-1.95-.69-3.9-1-5.85a1.53,1.53,0,0,0-.1-.34c-.12-.32-.7-1.05-1-.39a1,1,0,0,0,0,.42A13.3,13.3,0,0,1,887.39,443.58Z"/>
      <path class="be4d227c-3c25-4d6f-a005-12d4792f200d" d="M893.2,439.82a.62.62,0,0,0,0-.86.58.58,0,0,0-.83,0,.62.62,0,0,0,0,.86A.57.57,0,0,0,893.2,439.82Z"/>
      <path class="be4d227c-3c25-4d6f-a005-12d4792f200d" d="M886.76,440.21a.63.63,0,0,0,0-.87.59.59,0,0,0-.83,0,.63.63,0,0,0,0,.87A.59.59,0,0,0,886.76,440.21Z"/>
      <path class="be4d227c-3c25-4d6f-a005-12d4792f200d" d="M904.39,436.17h0c.87-.91,1.83-1.52,2.58-.95,1.37-2.17,1-7.2-1.15-11.2a4.29,4.29,0,0,0-1-1.32l-.17-.19h0s-8.78-12.93-20.12-.36c-1.32,1.68-2.62-.43-5.87.59-3.52,1.16-5.42,8.48,1.24,11a5.87,5.87,0,0,0,2.48.38c.84,0,1.64-.11,2.41-.18,7.42-.71,12.07-2.54,15-4.53C900.19,431.23,901.36,435.23,904.39,436.17Z"/>
      <path class="a0e91d2d-03b0-4114-a23f-fd11fe69c025" d="M904.29,438.42a5.33,5.33,0,0,0-1.07,2.43h0c.06.11.11.23.17.36a.31.31,0,0,0,.49-.19,5.16,5.16,0,0,1,.34-1.16,1.11,1.11,0,0,1,1,.17c.36.25.7-.34.34-.59a1.75,1.75,0,0,0-1-.32c.37-.54,1.06-1.37,1.74-1.39.44,0,.45-.7,0-.69A3.17,3.17,0,0,0,904.29,438.42Z"/>
      <path class="be4d227c-3c25-4d6f-a005-12d4792f200d" d="M891.21,435.65c1.22-1,3.47-.76,4.19.7.19.4.79,0,.59-.34-.93-1.9-3.72-2.09-5.27-.85C890.38,435.44,890.87,435.92,891.21,435.65Z"/>
      <path class="be4d227c-3c25-4d6f-a005-12d4792f200d" d="M886.83,435.94c.37.24.72-.35.35-.59a3,3,0,0,0-2.28-.2,1.26,1.26,0,0,0-.88.85.34.34,0,0,0,.66.18.54.54,0,0,1,.28-.33A2.39,2.39,0,0,1,886.83,435.94Z"/>
      <path class="a0e91d2d-03b0-4114-a23f-fd11fe69c025" d="M894,448.44l-1.2.53a.34.34,0,0,0-.12.47.35.35,0,0,0,.47.13l1.19-.54a.35.35,0,0,0,.13-.47A.36.36,0,0,0,894,448.44Z"/>
      <path class="a0e91d2d-03b0-4114-a23f-fd11fe69c025" d="M893.86,446.72a6,6,0,0,1-2.88,1.12c-.44,0-.44.73,0,.68a6.73,6.73,0,0,0,3.23-1.2C894.57,447.06,894.23,446.47,893.86,446.72Z"/>
      <path class="a841b93b-55f9-446e-aa1b-d2722dac8e80" d="M881.05,519.52a.94.94,0,0,1,.13-.34l.07-.1.11,0c.47-.17,1.41-.47,2.49-.8l-12.08-1.76.26,1.82Z"/>
      <path class="a841b93b-55f9-446e-aa1b-d2722dac8e80" d="M890.59,523h0a9.36,9.36,0,0,0-2.86,0c-.86.07-1.73.14-2.52.14l-.57,0-11.16,5.25.43,3Z"/>
      <path class="be4d227c-3c25-4d6f-a005-12d4792f200d" d="M884.63,523.12a3.34,3.34,0,0,1-2.2-.69,1.34,1.34,0,0,1-.37-1.13v0s0,0,0,0v0l0,0h0l0,0h0l.05,0h0l.06,0h0l.07,0h0a1.91,1.91,0,0,1-1.26-.9.92.92,0,0,1-.06-.55l-9-1.22,1.44,10.07Z"/>
      <path class="b9b3980e-7d62-41ad-aaab-41a8ae1aadc7" d="M892.87,523.35a17.74,17.74,0,0,1-1.78-.54,0,0,0,0,1,0,0,.37.37,0,0,1-.49.18l-16.69,8.36.17,1.18,6.22-3Z"/>
      <path class="ea1bb537-acc0-4703-8c46-c1f61a95f741" d="M819,507.7a.38.38,0,0,1-.29.44c-2.58.51-6.37,3.15-7.65,4.27a.15.15,0,0,0,.05.07c.08.07.41.27,1.46.06a29.46,29.46,0,0,1,3.37-2.42l.35-.18a6.52,6.52,0,0,1,2.64-.87.38.38,0,0,1,.43.31.37.37,0,0,1-.31.43,5.72,5.72,0,0,0-2.41.8l-.36.18a26.37,26.37,0,0,0-2.94,2.09.37.37,0,0,1-.28.32l-.16,0c-1.15.92-2.27,1.85-2.87,2.39a.14.14,0,0,0,0,.08c.09.08.46.3,1.78,0a.36.36,0,0,1,.27,0l.59-.53a20.3,20.3,0,0,1,1.74-1.44,23.1,23.1,0,0,1,2.34-1.47,9.66,9.66,0,0,1,3.21-1.2.37.37,0,0,1,.45.27.37.37,0,0,1-.27.45,9,9,0,0,0-3,1.15,20.26,20.26,0,0,0-2.25,1.42,18.05,18.05,0,0,0-1.67,1.38c-.5.45-1,.9-1.49,1.26a.52.52,0,0,0,.24.2c.85.37,2.95-.7,4.48-1.48a7.83,7.83,0,0,1,3-1.17.38.38,0,0,1,.35.37,36.13,36.13,0,0,0,4.49-.61l1-.2a10.12,10.12,0,0,0,1-.13l.65-.13-.07.15-.19.06a7.4,7.4,0,0,0-4.46,3.69.52.52,0,0,0,.63.7l5.36-1.81s.57-.25,1.24-.61c1.2-.63,2.85-1.71,3-3.14a23.34,23.34,0,0,0,.1-2.43,14.56,14.56,0,0,0-.15-1.94,6.66,6.66,0,0,0,.19-1,3.53,3.53,0,0,0-2.41-2.53c-1.32-.38-3.41-.26-6.72,1.12l-4.65,1.39A.38.38,0,0,1,819,507.7Zm-1.33,3-.28.09Z"/>
      <path class="ea1bb537-acc0-4703-8c46-c1f61a95f741" d="M815.84,508.39a1.35,1.35,0,0,0-.38.19l.4-.2Z"/>
      <path class="b6bf5798-181e-424d-88a4-4ba644632f61" d="M819.8,515v0a.38.38,0,0,0-.35-.37,7.83,7.83,0,0,0-3,1.17c-1.53.78-3.63,1.85-4.48,1.48a.52.52,0,0,1-.24-.2c.47-.36,1-.81,1.49-1.26a18.05,18.05,0,0,1,1.67-1.38,20.26,20.26,0,0,1,2.25-1.42,9,9,0,0,1,3-1.15.37.37,0,0,0,.27-.45.37.37,0,0,0-.45-.27,9.66,9.66,0,0,0-3.21,1.2,23.1,23.1,0,0,0-2.34,1.47,20.3,20.3,0,0,0-1.74,1.44l-.59.53a.36.36,0,0,0-.27,0c-1.32.31-1.69.09-1.78,0a.14.14,0,0,1,0-.08c.6-.54,1.72-1.47,2.87-2.39l.16,0a.37.37,0,0,0,.28-.32,26.37,26.37,0,0,1,2.94-2.09l.36-.18a5.72,5.72,0,0,1,2.41-.8.37.37,0,0,0,.31-.43.38.38,0,0,0-.43-.31,6.52,6.52,0,0,0-2.64.87l-.35.18a29.46,29.46,0,0,0-3.37,2.42c-1,.21-1.38,0-1.46-.06a.15.15,0,0,1-.05-.07c1.28-1.12,5.07-3.76,7.65-4.27a.38.38,0,0,0,.29-.44.38.38,0,0,0-.13-.22.37.37,0,0,0-.31-.07,11.52,11.52,0,0,0-2.68,1l-.4.2A27.39,27.39,0,0,0,810.4,512l-.08.08,0,.12a.94.94,0,0,0,.27.84,1.45,1.45,0,0,0,1,.36c-.94.76-1.75,1.46-2.15,1.82l-.09.08,0,.12a1,1,0,0,0,.27.84,1.6,1.6,0,0,0,1.16.37l.35,0h0a.2.2,0,0,0-.09.09h0a.28.28,0,0,0,0,.12V517a1.36,1.36,0,0,0,.78.9,1.81,1.81,0,0,0,.72.13c1.18,0,2.8-.82,4.39-1.63a9.25,9.25,0,0,1,2.64-1.09.45.45,0,0,0,.16,0A.36.36,0,0,0,819.8,515Z"/>
      <path class="abd18bd5-d802-4aad-9522-43102be7e2c1" d="M925.53,498.12a70.39,70.39,0,0,0,4.56,11.7c-5.68.66-14,2.9-27.09,6.93l-2.63.81c-3.57,3.5.93,5.29.93,5.29s.44-.09,2.28-.39l2.1.2c9.57,1,18.55,3.13,26,2.73,2.59-.14,4.94.56,7.09-1.06a10,10,0,0,0,4-6.47h0c.69-3.64.7-9.86,0-16.37a78.84,78.84,0,0,0-1.92-10.8C938.12,498.56,928.2,498.33,925.53,498.12Z"/>
      <path class="aa6bc4e3-a75c-4e40-a753-88eb4338d4ff" d="M940.81,490.69l0-.05c-.62-13.32-8.14-27.12-13.82-30.52a9.17,9.17,0,0,0-2.55-1.05,8.41,8.41,0,0,0-9.75,4.8c-2.21,4.8-2.4,12,.82,16.39l9.34,17.8.66.06C928.2,498.33,938.12,498.56,940.81,490.69Z"/>
      <path class="f2e1e870-cea8-4019-b4dc-2ec19c6b797d" d="M834.29,510l3,15.56.08.41,36.68,6.58-.17-1.18-.43-3L872,518.3l-.26-1.82-2.53-17.75-2.36-.33-1.12-.15-20.69-2.86-14-1.93,1.86,9.61Zm19.44,3.53c-1.21,1.17-3.63,3.14-3.63,3.14s-3.5-3.68-3.58-5.24a1.63,1.63,0,0,1,2.82-1.12l.89,1a4.14,4.14,0,0,1,2.74-1.21C854.35,510.22,854.94,512.37,853.73,513.53Z"/>
      <path class="bdd42296-2b77-4591-a0aa-5beb098f72a1" d="M891.72,550c3-.2,5.13-4.09,4.82-8.69s-2.95-8.17-5.92-8-5.13,4.09-4.82,8.69S888.75,550.17,891.72,550Z"/>
      <path class="a841b93b-55f9-446e-aa1b-d2722dac8e80" d="M853,510.08a4.14,4.14,0,0,0-2.74,1.21l-.89-1a1.63,1.63,0,0,0-2.82,1.12c.08,1.56,3.58,5.24,3.58,5.24s2.42-2,3.63-3.14S854.35,510.22,853,510.08Z"/>
      <path class="ea1bb537-acc0-4703-8c46-c1f61a95f741" d="M889.93,515.23a1.39,1.39,0,0,0-.41,0c.14,0,.29,0,.44,0Z"/>
      <path class="ea1bb537-acc0-4703-8c46-c1f61a95f741" d="M903.58,522.46c-1.84.3-2.28.39-2.28.39s-4.5-1.79-.93-5.29l2.63-.81a14.9,14.9,0,0,0-5.1-.71l-4.84-.49a.36.36,0,0,1,0,.25.37.37,0,0,1-.44.3c-2.57-.52-7.09.47-8.7,1a.16.16,0,0,0,0,.09c0,.1.27.4,1.33.61a28.6,28.6,0,0,1,4-.94l.39,0a6.44,6.44,0,0,1,2.77.2.38.38,0,0,1,.28.45.36.36,0,0,1-.44.28,6,6,0,0,0-2.55-.19l-.39,0a26.64,26.64,0,0,0-3.51.8.37.37,0,0,1-.33.19h-.06l-.16,0c-1.41.4-2.81.84-3.57,1.11a.18.18,0,0,0,0,.09c.05.1.31.45,1.65.67a.36.36,0,0,1,.23.13l.75-.25a20.75,20.75,0,0,1,2.16-.67,21.74,21.74,0,0,1,2.72-.46,9.89,9.89,0,0,1,3.43.12.37.37,0,0,1,.31.42.38.38,0,0,1-.43.32,9.35,9.35,0,0,0-3.25-.12,21.45,21.45,0,0,0-2.62.46,18.31,18.31,0,0,0-2.08.64c-.63.22-1.28.44-1.85.58a.56.56,0,0,0,.15.29c.64.66,3,.48,4.7.35a7.83,7.83,0,0,1,3.24.07.38.38,0,0,1,.18.48,17.74,17.74,0,0,0,1.78.54c1.71.45,3.62.82,3.62.82a10.07,10.07,0,0,0,9.19-1.51Zm-12.86-4.39-.29,0Z"/>
      <path class="b6bf5798-181e-424d-88a4-4ba644632f61" d="M881.36,519l-.11,0-.07.1a.94.94,0,0,0-.13.34.92.92,0,0,0,.06.55,1.91,1.91,0,0,0,1.26.9h0l-.07,0h0l-.06,0h0l-.05,0h0l0,0h0l0,0v0s0,0,0,0v0a1.34,1.34,0,0,0,.37,1.13,3.34,3.34,0,0,0,2.2.69l.57,0c.79,0,1.66-.07,2.52-.14a9.36,9.36,0,0,1,2.86,0h0a.37.37,0,0,0,.49-.18,0,0,0,0,0,0,0,.38.38,0,0,0-.18-.48,7.83,7.83,0,0,0-3.24-.07c-1.71.13-4.06.31-4.7-.35a.56.56,0,0,1-.15-.29c.57-.14,1.22-.36,1.85-.58a18.31,18.31,0,0,1,2.08-.64,21.45,21.45,0,0,1,2.62-.46,9.35,9.35,0,0,1,3.25.12.38.38,0,0,0,.43-.32.37.37,0,0,0-.31-.42,9.89,9.89,0,0,0-3.43-.12,21.74,21.74,0,0,0-2.72.46,20.75,20.75,0,0,0-2.16.67l-.75.25a.36.36,0,0,0-.23-.13c-1.34-.22-1.6-.57-1.65-.67a.18.18,0,0,1,0-.09c.76-.27,2.16-.71,3.57-1.11l.16,0h.06a.37.37,0,0,0,.33-.19,26.64,26.64,0,0,1,3.51-.8l.39,0a6,6,0,0,1,2.55.19.36.36,0,0,0,.44-.28.38.38,0,0,0-.28-.45,6.44,6.44,0,0,0-2.77-.2l-.39,0a28.6,28.6,0,0,0-4,.94c-1.06-.21-1.29-.51-1.33-.61a.16.16,0,0,1,0-.09c1.61-.54,6.13-1.53,8.7-1a.37.37,0,0,0,.44-.3.36.36,0,0,0,0-.25.41.41,0,0,0-.25-.19,11.4,11.4,0,0,0-2.85-.12c-.15,0-.3,0-.44,0a27.64,27.64,0,0,0-6,1.19l-.12,0-.06.1a.94.94,0,0,0-.08.89,1.54,1.54,0,0,0,.74.7l-.18,0C882.77,518.57,881.83,518.87,881.36,519Z"/>
    </g>
    <g>
      <path class="be4af807-b886-4545-81ed-f5fce31d111d" d="M276.52,524.21c1.85-1.83,7.19-3.41,10.7-4.41h0l1.72-.49s0,0,0-.06c1.19-1.56,1.59-4.14,1.71-6.17a28.07,28.07,0,0,1-7.7,1c-.27-.81-.54-1.67-.8-2.57-1.7-.57-3.65-2.08-4.26-5.9a8.56,8.56,0,0,1,1.53-6.56c-.08-.62-.15-1.23-.21-1.84-.35,0-.68-.42-.35-.72a2,2,0,0,1,.27-.22c0-.39-.06-.78-.08-1.16-4.51,9-4.69,19.34-2.8,29.29l.15-.05A1.18,1.18,0,0,1,276.52,524.21Z"/>
      <path class="be4af807-b886-4545-81ed-f5fce31d111d" d="M288.37,523a7.08,7.08,0,0,1-1.14-3.18A6.5,6.5,0,0,0,288.37,523Z"/>
      <path class="be4af807-b886-4545-81ed-f5fce31d111d" d="M338.26,547.35c-3.43-3.11-5.9-6.16-7.21-10.63-.84-2.88-1.45-5.82-2.06-8.76-1.57-7.46-3-15-5-22.31-2.83-10.34-8.93-27.75-23.49-28.65a5.69,5.69,0,0,0-.81,0h-.37a13.85,13.85,0,0,0-7.52-1.47c-12,.51-17.35,10.63-13.9,18.27a10.3,10.3,0,0,0,1.07-.12c6-.88,13.92-6.27,16.86-8.39.15,1.28,1.37,10.9,3.77,13.42.67-.91,4.89-6.49,6.76-4.19,1.58,1.95-.58,6.93-3.83,8.72a3.77,3.77,0,0,1,.56,2.13,7.52,7.52,0,0,1-2.62,5.43c-.82,4-1.2,8.85.4,12.55a9.41,9.41,0,0,0,1.37,2.25c2.07,2.52,5.68,4,11.64,3.37a38.88,38.88,0,0,0,5.64-1.06v0l.11,0c10.08,3.95,2,24,2,24l-.95,0c-.32,1.25-.7,2.48-1.13,3.68a90.82,90.82,0,0,1-4,8.83c1,2.77,2.93,6.52,4.35,10.82,8.43-1,18.9-3.19,22.76-10.21C346.1,558.82,343.05,551.71,338.26,547.35Z"/>
      <path class="aa58bb51-5a8c-4169-b988-655fbb93183c" d="M234.79,502s6.62-4.84,1.43-13.89-30.78-4.33-31.91,4.7,9.36,15.08,21.3,13.5c4.09-.8,4.88-1.5,4.88-1.5l5.87,5.53Zm-8.47-7.83a8.62,8.62,0,0,1-2.18,3.31,17.55,17.55,0,0,1-1.52,1.34,5.61,5.61,0,0,1-1.2.86c-.12,0-.61-.34-.71-.42-.26-.2-.51-.43-.77-.64-.52-.45-1.05-.9-1.55-1.37-1.14-1.1-3.3-3-2.22-4.76a2.75,2.75,0,0,1,3.81-.61,2.27,2.27,0,0,1,1,1.53,3.17,3.17,0,0,1,1-2.13,4.07,4.07,0,0,1,2-1.22,2.2,2.2,0,0,1,1,0,1.71,1.71,0,0,1,1,.7A3.84,3.84,0,0,1,226.32,494.21Z"/>
      <path class="a017ef32-dc7d-4849-b9f0-c60669b451b7" d="M268.38,577.75c-.11-4.73,2.07-13,4.08-17.21.21-.45.43-.9.65-1.34s1.51-2.54.76-2.7c-2.87-.63-4.4-3.73-4.55-6.21a8.83,8.83,0,0,1,1.2-5.48,15.22,15.22,0,0,1-4.18-3.31,69.45,69.45,0,0,0-1.92,14.89c-4.4-4-9.2-8.22-12.57-10.84a1.58,1.58,0,0,1-1,0c-.26,1.14-1.18,2.3-4,2,3.94,14.16,14.8,27.76,21.51,32.07C268.4,579,268.4,578.39,268.38,577.75Z"/>
      <path class="be4af807-b886-4545-81ed-f5fce31d111d" d="M316.32,735.87l-1.57,1.57c-1.55,1.54-3.08,3.1-4.72,4.55a23.19,23.19,0,0,1-4.11,3.19,14.56,14.56,0,0,1-4.76,1.37,48.25,48.25,0,0,1-7.79.51.67.67,0,0,1-.59-.22s.18,2.55,1.08,2.72a80.24,80.24,0,0,0,13.18-.79c3.58-.7,11.18-5.38,11.18-5.38l-.63-9C317.43,735,316.74,735.44,316.32,735.87Z"/>
      <path class="a017ef32-dc7d-4849-b9f0-c60669b451b7" d="M281.19,710.47l-.05,0,2.71,9.74h0c-1,2.36-1.42,5-2.39,7.65a19.1,19.1,0,0,1-2.26,4.65,12.07,12.07,0,0,1,2.22,1.65c6.11-3,6.11-9.81,8.85-15a3.06,3.06,0,0,1,.55-.72h0c-.05-1.84.28-5.58.42-8.82A9,9,0,0,1,281.19,710.47Z"/>
      <path class="a017ef32-dc7d-4849-b9f0-c60669b451b7" d="M304.93,717.86l1.23,8.24h0c-.93,2.33-1.38,4.87-2.33,7.51a19.35,19.35,0,0,1-2.26,4.66,11.59,11.59,0,0,1,2.22,1.64c6.11-3,6.11-9.81,8.85-15a3.36,3.36,0,0,1,.55-.72l-.15-.09a35.49,35.49,0,0,0,1-7.34A8.19,8.19,0,0,1,304.93,717.86Z"/>
      <path class="a7f5b810-6e04-48aa-be2d-976a1b47a3fc" d="M312.64,724.89c-2.74,5.21-2.74,12-8.85,15a11.59,11.59,0,0,0-2.22-1.64,5.48,5.48,0,0,1-.59.59,10.79,10.79,0,0,1-4,2.39c-1.59.46-3.27,1.3-3.9,3a7.61,7.61,0,0,0-.36,2.13.73.73,0,0,0,.07.51.67.67,0,0,0,.59.22,48.25,48.25,0,0,0,7.79-.51,14.56,14.56,0,0,0,4.76-1.37A23.19,23.19,0,0,0,310,742c1.64-1.45,3.17-3,4.72-4.55l1.57-1.57c.42-.43,1.11-.91,1.27-1.5,1-3.65-1.13-8.13-4.4-10.2A3.36,3.36,0,0,0,312.64,724.89Z"/>
      <path class="be4af807-b886-4545-81ed-f5fce31d111d" d="M294,730.08l-1.57,1.57c-1.55,1.54-3.08,3.09-4.72,4.55a23.67,23.67,0,0,1-4.11,3.19,14.56,14.56,0,0,1-4.76,1.37,48.25,48.25,0,0,1-7.79.51.7.7,0,0,1-.59-.22s.18,2.55,1.08,2.72a80.24,80.24,0,0,0,13.18-.79c3.58-.7,11.18-5.38,11.18-5.38l-.63-9C295.06,729.17,294.37,729.65,294,730.08Z"/>
      <path class="a7f5b810-6e04-48aa-be2d-976a1b47a3fc" d="M290.27,719.1c-2.74,5.21-2.74,12-8.85,15a12.07,12.07,0,0,0-2.22-1.65,4.78,4.78,0,0,1-.59.6,10.79,10.79,0,0,1-4,2.39c-1.59.46-3.27,1.3-3.9,2.95a7.55,7.55,0,0,0-.36,2.13.74.74,0,0,0,.07.51.7.7,0,0,0,.59.22,48.25,48.25,0,0,0,7.79-.51,14.56,14.56,0,0,0,4.76-1.37,23.67,23.67,0,0,0,4.11-3.19c1.64-1.46,3.17-3,4.72-4.55l1.57-1.57c.42-.43,1.11-.91,1.27-1.5,1-3.65-1.13-8.13-4.39-10.2h0A3.06,3.06,0,0,0,290.27,719.1Z"/>
      <path class="a1d97551-5318-4106-8007-4d4864210044" d="M289.53,598.23l-18.87-1.67-.21-.66a94.43,94.43,0,0,0-2.82,12.57c-3.29,20.89-5.15,48-4.45,49,5,21.41,16,51.49,18,52.93l.05,0a9,9,0,0,0,10.06-.91c.3-.25.46-.41.46-.41s6.94-30.6-11.62-51.46c5.36-7.3,9.78-28.6,10-42.3.7-.32,1.44-.35,1.57.52.46,3.28-4.24,40.59-3.45,45.48,0,0,0,0,0,.06,2.06,21.89,15.21,54.6,16.16,56.09.21.12.42.22.62.32a8.19,8.19,0,0,0,9.09-1.12,5.7,5.7,0,0,0,.61-.57s9.08-35.78-9.16-57.18c2.13-10.82,16.29-31,18-46.74a38.12,38.12,0,0,0-2.89-19.88c-.06.19-.13.39-.21.58C310.88,601.78,289.53,598.23,289.53,598.23Zm-16.68,61.89s5.74,0,7.13-1.62C281.8,660.83,277.54,662.12,272.85,660.12Zm16.68-52.26s0-.05,0-.08S289.53,607.77,289.53,607.86Zm16.13,51.94c1.83,2.33-2.43,3.62-7.13,1.63C298.53,661.43,304.27,661.42,305.66,659.8Z"/>
      <path class="fb546609-24fb-4148-a439-43ab9d38e18f" d="M270.52,544.81c.13-.18.26-.34.4-.5,2.08-2.25,4.71-14,4.71-14a26.14,26.14,0,0,1,.78-6l-.15.05A18.27,18.27,0,0,0,264.68,539a12,12,0,0,0,1.66,2.53A15.22,15.22,0,0,0,270.52,544.81Z"/>
      <path class="a7f5b810-6e04-48aa-be2d-976a1b47a3fc" d="M285.81,533.33a2.86,2.86,0,0,0-.07.28Z"/>
      <path class="a7f5b810-6e04-48aa-be2d-976a1b47a3fc" d="M294.32,526.77a6.72,6.72,0,0,1-3.55-1.27,3.37,3.37,0,0,1,0,1.62c.13-.19.26-.38.38-.58a.38.38,0,0,1,.66,0,.45.45,0,0,1,.21.24,4.51,4.51,0,0,1,.07,2.52s-2.14,4.08-2,5.75a33.73,33.73,0,0,1-.3,5.16c.84-1.53,1.76-3.24,2.05-3.64.53-.73,2,.08,2,.08a71.12,71.12,0,0,0-3,7.79A5,5,0,0,1,285.3,548l13.05,23.13a175.75,175.75,0,0,1,7.48-22.58l-1.21-.58c2.14-10.07,5.41-16.48,9.29-19-6,.62-9.57-.85-11.64-3.37C299.81,526.83,296.78,526.84,294.32,526.77Z"/>
      <path class="a7f5b810-6e04-48aa-be2d-976a1b47a3fc" d="M315.53,564.55c-2.73,5.66-7.46,18.91-19.74,19.6-15.92-6.11-15-38-15-38h0a8.3,8.3,0,0,1,.24-4.58l1.06-5.49c0-.17,1.34-4.46,1.44-4.6l3.16-4.74a.45.45,0,0,1,.8.1,3.22,3.22,0,0,1,.12,1.48c.77-1.14,1.57-2.27,2.42-3.36l0-.05a9,9,0,0,1-1.66-1.92,6.5,6.5,0,0,1-1.14-3.18v0c-3.51,1-8.85,2.58-10.7,4.41a1.18,1.18,0,0,0-.11.18,26.14,26.14,0,0,0-.78,6s-2.63,11.71-4.71,14c-.14.16-.27.32-.4.5a8.83,8.83,0,0,0-1.2,5.48c.15,2.48,1.68,5.58,4.55,6.21.75.16-.6,2.39-.76,2.7s-.44.89-.65,1.34c-2,4.21-4.19,12.48-4.08,17.21,0,.64,0,1.27,0,1.88,0,4.53-.43,8.49,2.06,16.27l.21.66,18.87,1.67s21.35,3.55,30.81-5.28c.08-.19.15-.39.21-.58,2.14-6.08,1.14-12-.57-17.21-1.42-4.3-3.34-8-4.35-10.82Z"/>
      <path class="a7f5b810-6e04-48aa-be2d-976a1b47a3fc" d="M284.91,547.84l.39.16s.1-.18.25-.48Z"/>
      <path class="fb546609-24fb-4148-a439-43ab9d38e18f" d="M288.94,519.31l-1.72.49h0v0a7.08,7.08,0,0,0,1.14,3.18,9,9,0,0,0,1.66,1.92.35.35,0,0,1,.55.2.48.48,0,0,1,.14.2,1.21,1.21,0,0,1,0,.18,6.72,6.72,0,0,0,3.55,1.27c2.46.07,5.49.06,7.95-1.21a9.41,9.41,0,0,1-1.37-2.25C295.18,526.81,288.84,520.56,288.94,519.31Z"/>
      <path class="e0e72dad-3005-458a-91fd-24d0f86ead52" d="M290.87,513h0l-.21.06c-.12,2-.52,4.61-1.71,6.17,0,0,0,0,0,.06-.1,1.25,6.24,7.5,12,4-1.6-3.7-1.22-8.53-.4-12.55C298.56,512.46,295.46,513.58,290.87,513Z"/>
      <path class="a017ef32-dc7d-4849-b9f0-c60669b451b7" d="M281.1,495.7c.54-.09.77.73.23.82a3.47,3.47,0,0,0-1.86.61.48.48,0,0,1-.25.12c.06.61.13,1.22.21,1.84a8.56,8.56,0,0,0-1.53,6.56c.61,3.82,2.56,5.33,4.26,5.9.26.9.53,1.76.8,2.57a28.07,28.07,0,0,0,7.7-1l.21-.06h0c4.59.56,7.69-.56,9.63-2.26a7.52,7.52,0,0,0,2.62-5.43,3.77,3.77,0,0,0-.56-2.13c3.25-1.79,5.41-6.77,3.83-8.72-1.87-2.3-6.09,3.28-6.76,4.19-2.4-2.52-3.62-12.14-3.77-13.42-2.94,2.12-10.9,7.51-16.86,8.39,0,.5,0,1,.06,1.51s0,.77.08,1.16A4.51,4.51,0,0,1,281.1,495.7Zm-.92,2.88a.75.75,0,1,1,.77,1.28.76.76,0,0,1-1-.25A.75.75,0,0,1,280.18,498.58Zm4.74,10h-.08c-.55,0-.55-.84,0-.86a14.42,14.42,0,0,0,9.24-3.76c.41-.37,1,.24.6.61-.17.16-.36.32-.54.47-1,2.31-3.57,3.63-5.35,4.23C287.4,509.72,285.64,509.51,284.92,508.55Zm3.29-10.43a.75.75,0,1,1,.78,1.28.75.75,0,0,1-.78-1.28Zm12.59,1.15a5.07,5.07,0,0,1,3.89-3.29c.54-.09.77.74.22.83a4.21,4.21,0,0,0-3.28,2.69C301.45,500,300.62,499.79,300.8,499.27ZM294,502.51a2.3,2.3,0,0,1,2.53,2.27c0,.55-.84.55-.86,0a1.45,1.45,0,0,0-1.67-1.41C293.4,503.42,293.4,502.56,294,502.51ZM287,494.85c2-.21,4.55-.23,5.66,1.66a.43.43,0,0,1-.74.43c-.91-1.55-3.33-1.41-4.92-1.24C286.5,495.76,286.5,494.91,287,494.85Zm-3.8,1.43a1.08,1.08,0,0,1,.1-.51c.42-.76,1,.23,1.13.63a1.64,1.64,0,0,1,.07.43c.11,2.44.23,4.87.32,7.31a1.82,1.82,0,0,1-.07.7c-.32.83-1.83.75-2.54.71a1,1,0,0,1-.73-.32.94.94,0,0,1-.19-.71,4,4,0,0,1,.4-1.16A16,16,0,0,0,283.24,496.28Z"/>
      <path class="e0e72dad-3005-458a-91fd-24d0f86ead52" d="M281.33,504.52a.94.94,0,0,0,.19.71,1,1,0,0,0,.73.32c.71,0,2.22.12,2.54-.71a1.82,1.82,0,0,0,.07-.7c-.09-2.44-.21-4.87-.32-7.31a1.64,1.64,0,0,0-.07-.43c-.09-.4-.71-1.39-1.13-.63a1.08,1.08,0,0,0-.1.51,16,16,0,0,1-1.51,7.08A4,4,0,0,0,281.33,504.52Z"/>
      <path class="be4af807-b886-4545-81ed-f5fce31d111d" d="M289,499.4a.75.75,0,1,0-.78-1.28.75.75,0,0,0,.78,1.28Z"/>
      <path class="be4af807-b886-4545-81ed-f5fce31d111d" d="M279.92,499.61a.75.75,0,0,0,1.29-.78.75.75,0,0,0-1.29.78Z"/>
      <path class="be4d227c-3c25-4d6f-a005-12d4792f200d" d="M287,495.7c1.59-.17,4-.31,4.92,1.24a.43.43,0,0,0,.74-.43c-1.11-1.89-3.69-1.87-5.66-1.66C286.5,494.91,286.5,495.76,287,495.7Z"/>
      <path class="be4d227c-3c25-4d6f-a005-12d4792f200d" d="M281.33,496.52c.54-.09.31-.91-.23-.82a4.51,4.51,0,0,0-2,.61,2,2,0,0,0-.27.22c-.33.3,0,.74.35.72a.48.48,0,0,0,.25-.12A3.47,3.47,0,0,1,281.33,496.52Z"/>
      <path class="b44f6659-d05e-4029-9f6f-c3891008c58b" d="M301.63,499.5a4.21,4.21,0,0,1,3.28-2.69c.55-.09.32-.92-.22-.83a5.07,5.07,0,0,0-3.89,3.29C300.62,499.79,301.45,500,301.63,499.5Z"/>
      <path class="e0e72dad-3005-458a-91fd-24d0f86ead52" d="M305.83,548.55a175.75,175.75,0,0,0-7.48,22.58L285.3,548l-.39-.16.64-.32c-.15.3-.25.48-.25.48a5,5,0,0,0,5.58-3.53,71.12,71.12,0,0,1,3-7.79s-1.51-.81-2-.08c-.29.4-1.21,2.11-2.05,3.64a33.73,33.73,0,0,0,.3-5.16c-.17-1.67,2-5.75,2-5.75a4.51,4.51,0,0,0-.07-2.52.45.45,0,0,0-.21-.24.32.32,0,0,1,0,.35c-1,1.55-2.18,2.89-3.08,4.48a14.14,14.14,0,0,0-1.7,4.69c-.08.47-.8.27-.72-.2a14,14,0,0,1,1.58-4.53c.83-1.52,1.94-2.81,2.89-4.24a3.37,3.37,0,0,0,0-1.62,1.21,1.21,0,0,0,0-.18.48.48,0,0,0-.14-.2.36.36,0,0,1-.06.38c-1.12,1.45-2.16,3-3.16,4.51a11.11,11.11,0,0,0-2.08,5c0,.47-.8.48-.75,0a11.5,11.5,0,0,1,2-5.21c.33-.5.66-1,1-1.51a3.22,3.22,0,0,0-.12-1.48.45.45,0,0,0-.8-.1l-3.16,4.74c-.1.14-1.4,4.43-1.44,4.6L281,541.58a8.3,8.3,0,0,0-.24,4.58h0s-.88,31.88,15,38c12.28-.69,17-13.94,19.74-19.6l.1-.21a90.82,90.82,0,0,0,4-8.83c.43-1.2.81-2.43,1.13-3.68A41.64,41.64,0,0,1,305.83,548.55Zm-20.09-14.94a2.86,2.86,0,0,1,.07-.28Z"/>
      <path class="fb546609-24fb-4148-a439-43ab9d38e18f" d="M304.62,548l1.21.58a41.64,41.64,0,0,0,14.93,3.28l.95,0s8-20-2-24l-.11,0v0a38.88,38.88,0,0,1-5.64,1.06C310,531.49,306.76,537.9,304.62,548Z"/>
      <path class="b5ea53a9-8f5c-4526-9003-966bd8fed1df" d="M294.14,505a15.4,15.4,0,0,1-9.22,3.54c.72,1,2.48,1.17,3.87.69C290.57,508.64,293.1,507.32,294.14,505Z"/>
      <path class="b44f6659-d05e-4029-9f6f-c3891008c58b" d="M294.68,504.54c.41-.37-.19-1-.6-.61a14.42,14.42,0,0,1-9.24,3.76c-.55,0-.55.88,0,.86h.08a15.4,15.4,0,0,0,9.22-3.54C294.32,504.86,294.51,504.7,294.68,504.54Z"/>
      <path class="a5f3fd1f-c2f3-45d4-8264-1bee49983b45" d="M272.85,660.12c4.69,2,8.95.71,7.13-1.62C278.59,660.11,272.85,660.12,272.85,660.12Z"/>
      <path class="a5f3fd1f-c2f3-45d4-8264-1bee49983b45" d="M305.66,659.8c-1.39,1.62-7.13,1.63-7.13,1.63C303.23,663.42,307.49,662.13,305.66,659.8Z"/>
      <path class="abd18bd5-d802-4aad-9522-43102be7e2c1" d="M250.84,545.56a1.58,1.58,0,0,0,1,0l.14,0a29.07,29.07,0,0,0,1-6.38c-.13-2.11-3.42-8.84-3.34-10.07s-1.85-.15-2.07,1.2c1.48,4.39,2.64,8.32,2.49,8.89-.26,1-4.27,3.17-7.3,4.24a3.11,3.11,0,0,1-3.94-1.83l-.79-2.1a1.21,1.21,0,0,0,.78-1.12c0-.68-.8-1.12-1.45-1.21a1.27,1.27,0,0,0,.73-1.28c-.1-.72-1.07-1.05-1.74-1a.77.77,0,0,0-.63.27c-1.05,1.16.5,2.41.5,2.41l.15,0c-.84,1,.38,2.27.38,2.27a11.89,11.89,0,0,0,9.18,7.67,9.51,9.51,0,0,0,.95.14C249.66,547.86,250.58,546.7,250.84,545.56Z"/>
      <path class="be4d227c-3c25-4d6f-a005-12d4792f200d" d="M238.09,535.84a1.27,1.27,0,0,1-.73,1.28c.65.09,1.45.53,1.45,1.21a1.21,1.21,0,0,1-.78,1.12l.79,2.1a3.11,3.11,0,0,0,3.94,1.83c3-1.07,7-3.29,7.3-4.24.15-.57-1-4.5-2.49-8.89-2-5.86-4.5-12.53-5.2-13.08-1.21-1-8.47,1.73-9.43,4.46a9.56,9.56,0,0,0,.5,4c.67,0,1.68.46,1.69,1.23a1.32,1.32,0,0,1-1,1.22c.36,1.22.77,2.51,1.21,3.82.68,0,1.66.28,1.76,1a1.37,1.37,0,0,1-.94,1.39l.2.54C237,534.79,238,535.12,238.09,535.84Zm7.94,5a1.16,1.16,0,1,1,.48-1.57A1.17,1.17,0,0,1,246,540.85Zm-11.5-18.58,7.83-3.9,6,17.81-7.8,4.16Z"/>
      <path class="abd18bd5-d802-4aad-9522-43102be7e2c1" d="M235.13,526.85c0-.77-1-1.22-1.69-1.23a.68.68,0,0,0-.56.19c-1.2,1,.19,2.46.19,2.46a3.46,3.46,0,0,0,1.05-.2A1.32,1.32,0,0,0,235.13,526.85Z"/>
      <path class="abd18bd5-d802-4aad-9522-43102be7e2c1" d="M237.09,532.9c-.1-.73-1.08-1.06-1.76-1a.74.74,0,0,0-.61.27c-1.05,1.16.5,2.41.5,2.41a3.09,3.09,0,0,0,.93-.28A1.37,1.37,0,0,0,237.09,532.9Z"/>
      <path class="b5ea53a9-8f5c-4526-9003-966bd8fed1df" d="M240.53,540.34l7.8-4.16-6-17.81-7.83,3.9Zm5.28-8.82-5.07,2-.61-2,4.93-2.11ZM242,520.29l1.11,2.84-5.05,2.14-1-2.88Zm-5.45,6.51,4.94-2.11,1.72,4.6-5.05,2.15Zm7.78,6.12,1.12,2.83-5.06,2.15-1-2.88Z"/>
      <path class="a9b12b98-9ef9-40f0-8ed3-482d1f0559fb" d="M244.94,538.8a1.16,1.16,0,1,0,1.57.48A1.17,1.17,0,0,0,244.94,538.8Z"/>
      <polygon class="a33bd701-57fe-4d6b-99eb-c6e7e427be69" points="243.15 523.13 242.04 520.29 237.1 522.39 238.1 525.27 243.15 523.13"/>
      <polygon class="a33bd701-57fe-4d6b-99eb-c6e7e427be69" points="245.49 535.75 244.37 532.92 239.43 535.02 240.43 537.9 245.49 535.75"/>
      <polygon class="a33bd701-57fe-4d6b-99eb-c6e7e427be69" points="240.74 533.5 245.81 531.52 245.06 529.37 240.13 531.48 240.74 533.5"/>
      <polygon class="a33bd701-57fe-4d6b-99eb-c6e7e427be69" points="241.53 524.69 236.59 526.8 238.2 531.44 243.25 529.29 241.53 524.69"/>
      <path class="fb546609-24fb-4148-a439-43ab9d38e18f" d="M225,490.07a2.2,2.2,0,0,0-1,0,4.07,4.07,0,0,0-2,1.22,3.17,3.17,0,0,0-1,2.13,2.27,2.27,0,0,0-1-1.53,2.75,2.75,0,0,0-3.81.61c-1.08,1.74,1.08,3.66,2.22,4.76.5.47,1,.92,1.55,1.37.26.21.51.44.77.64.1.08.59.46.71.42a5.61,5.61,0,0,0,1.2-.86,17.55,17.55,0,0,0,1.52-1.34,8.62,8.62,0,0,0,2.18-3.31,3.84,3.84,0,0,0-.36-3.44A1.71,1.71,0,0,0,225,490.07Z"/>
      <path class="aa79b4a9-fa00-4828-b5a6-af4ffd3a923c" d="M286.3,535.89c-.08.47.64.67.72.2a14.14,14.14,0,0,1,1.7-4.69c.9-1.59,2.12-2.93,3.08-4.48a.32.32,0,0,0,0-.35.38.38,0,0,0-.66,0c-.12.2-.25.39-.38.58-.95,1.43-2.06,2.72-2.89,4.24A14,14,0,0,0,286.3,535.89Z"/>
      <path class="aa79b4a9-fa00-4828-b5a6-af4ffd3a923c" d="M284.53,535.05c0,.48.7.47.75,0a11.11,11.11,0,0,1,2.08-5c1-1.54,2-3.06,3.16-4.51a.36.36,0,0,0,.06-.38.35.35,0,0,0-.55-.2l0,.05c-.85,1.09-1.65,2.22-2.42,3.36-.34.5-.67,1-1,1.51A11.5,11.5,0,0,0,284.53,535.05Z"/>
      <path class="b44f6659-d05e-4029-9f6f-c3891008c58b" d="M294,503.37a1.45,1.45,0,0,1,1.67,1.41c0,.55.88.55.86,0a2.3,2.3,0,0,0-2.53-2.27C293.4,502.56,293.4,503.42,294,503.37Z"/>
    </g>
    <g>
      <path class="a8fbdf04-efde-46eb-a36a-1933df1adfd1" d="M1065.06,600.47h0c-4.14-5.49-8.57-9.27-10.79-12.07-2.89-3.64-17.48-19.44-22.35-20.16h0c-3.06-1.11-9.44-1.71-13.93-2.31l3.19.59-.12,28.77-8.24,68.16s-2.24,21.77,19.53,14.79h0a7.85,7.85,0,0,0,1.59-1.3c1.26-.61-1.11-19.75-1.2-24.24-.21-10.74-.57-18.56.25-28.62,1.21-4.68,2.09-16.12,2.79-19.53.14-.71.27-1.47.38-2.28,4.25,3.78,8.73,7.39,11.71,10.21,1.49,1.41,7.1,6.06,12.91,6.83h0c6,2.33,28.68-8.27,46-24.95l-8-10.89C1087.37,589.66,1070.78,597.12,1065.06,600.47Z"/>
      <path class="a8fbdf04-efde-46eb-a36a-1933df1adfd1" d="M1107,579.9l0,0h0l0,0Z"/>
      <path class="a8fbdf04-efde-46eb-a36a-1933df1adfd1" d="M1110.93,585.1c0-.07,0-.13,0-.19h-.09Z"/>
      <path class="e3276e32-f5e9-467d-9480-d49302330ce4" d="M934.84,674.14a5.17,5.17,0,0,1,3.73,5.61l-25.77-5a5.17,5.17,0,0,1,6-3.75l1.08.2a6.21,6.21,0,0,1,.26-1.66c.19-.63.4-1.24.63-1.85l-1.29-.25a8.81,8.81,0,0,0-10.23,6.63l-8.77-1.69-3-.57-2.33-.45a3.27,3.27,0,0,0-3.84,2.59l-.45,2.34-2.08,10.77a3.28,3.28,0,0,0,1.51,3.41l24.31,15,0-.09a1.82,1.82,0,0,1,2.12-1.44l7.33,1.42a1.8,1.8,0,0,1,1.43,2.11l0,.1c8.18-1.44,22.68-4,28.19-5a3.28,3.28,0,0,0,2.64-2.61h0L958.81,687a3.27,3.27,0,0,0-2.6-3.83l-14.08-2.72a8.79,8.79,0,0,0-5.61-9.55,10.45,10.45,0,0,1-.95,2.15A12.45,12.45,0,0,1,934.84,674.14Z"/>
      <path class="a8fbdf04-efde-46eb-a36a-1933df1adfd1" d="M931.33,784.7a2.24,2.24,0,0,1,.56-.84l-1-.81s-6.22,3.36-10.19,6c5.15,11.69,12.51,23.27,24.37,28.69a9.71,9.71,0,0,0-1.48-7.69,32.2,32.2,0,0,1-1.89-3.51c-2.62-5.62-4.12-12.35-3.2-14.34a2.39,2.39,0,0,0-.47-2.07l-1.09.75S932.07,790.91,931.33,784.7Z"/>
      <path class="a017ef32-dc7d-4849-b9f0-c60669b451b7" d="M936.55,779.68a46.38,46.38,0,0,0-4.66,4.18,2.24,2.24,0,0,0-.56.84c.74,6.21,5.59,6.2,5.59,6.2l1.09-.75,3.6-2.48C938.84,785.42,937.3,781.89,936.55,779.68Z"/>
      <path class="a8fbdf04-efde-46eb-a36a-1933df1adfd1" d="M1005.75,819.22a1,1,0,0,1-.14-.46l-.85.07s-2.29,7-3.31,11.7c11.87,4.7,25,7.47,37.19,3.17a9.84,9.84,0,0,0-6.06-4,32.81,32.81,0,0,1-4.59-1.57c-5.5-2.29-10.73-5.88-11.4-7.85-.22-.66-1.12-1.06-2.32-1.31l-.2.92S1010.55,823.2,1005.75,819.22Z"/>
      <path class="be4af807-b886-4545-81ed-f5fce31d111d" d="M1001.45,830.53c0,.17-.07.33-.1.49a9.91,9.91,0,0,0-.33,3.24c.56,2.25,35.74,8.59,39,2.76a8.21,8.21,0,0,0-1.33-3.32C1026.4,838,1013.32,835.23,1001.45,830.53Z"/>
      <path class="a017ef32-dc7d-4849-b9f0-c60669b451b7" d="M1006.21,811a41.62,41.62,0,0,0-.6,7.81,1,1,0,0,0,.14.46c4.8,4,8.32.63,8.32.63l.2-.92,1.3-6.21C1012.14,813.23,1008.59,812,1006.21,811Z"/>
      <path class="be4af807-b886-4545-81ed-f5fce31d111d" d="M920.68,789.07l-.15.09a12.13,12.13,0,0,0-3,2.49c-1.15,2,20,30.85,26.32,28.84a8,8,0,0,0,1.2-2.73C933.19,812.34,925.83,800.76,920.68,789.07Z"/>
      <path class="a8fbdf04-efde-46eb-a36a-1933df1adfd1" d="M998.66,566.58c0-.2,0-.41,0-.61h0q0,.25,0,.6Z"/>
      <path class="e0e72dad-3005-458a-91fd-24d0f86ead52" d="M998.56,565.31c0,.22,0,.44.05.66s0,.41,0,.61h0s5.72,5.1,13.54-.31h0l.07-1.38c-1.46-1.68-2.1-4.58-2.39-6.87a27.39,27.39,0,0,1-6.83-2.9,12.63,12.63,0,0,1-5.83-6.15l-.09-.2a5.12,5.12,0,0,1-.78-.06c.65,3.76,1.65,10.14,2.21,16.59h0Z"/>
      <path class="a017ef32-dc7d-4849-b9f0-c60669b451b7" d="M997.22,549a12.63,12.63,0,0,0,5.83,6.15,27.39,27.39,0,0,0,6.83,2.9,31.73,31.73,0,0,0,8.82.61,94.62,94.62,0,0,0,3-19.44.51.51,0,0,1-.32-.12,3.73,3.73,0,0,0-2-.52c-.62-.07-.62-1,0-1a5.75,5.75,0,0,1,2.38.57,45.75,45.75,0,0,0-.21-5.42,13.6,13.6,0,0,1-3.74.76c-8.5.5-13.4-3.23-15.54-5.46-.81,3.57-2.87,11-6.26,13-1.6-1.6-3.89-3.5-5.42-3a1.6,1.6,0,0,0-.86.64c-1.89,2.65,2,9.43,6.64,10.13a5.12,5.12,0,0,0,.78.06Zm22.35-7.82a.85.85,0,1,1,.36,1.15A.85.85,0,0,1,1019.57,541.15Zm-3.89-2.52c.08-.47.71-1.64,1.25-.8a1.23,1.23,0,0,1,.14.57,18.27,18.27,0,0,0,2.23,7.93,4.07,4.07,0,0,1,.54,1.29,1.07,1.07,0,0,1-.15.82,1.21,1.21,0,0,1-.82.41c-.8.1-2.5.3-2.93-.61a2.17,2.17,0,0,1-.13-.8c-.07-2.77-.12-5.54-.17-8.32A3.29,3.29,0,0,1,1015.68,538.63Zm.44,12.84a.49.49,0,0,1,0,1h0c-.75,1.15-2.73,1.51-4.35,1.07-2.06-.56-5-1.86-6.38-4.42-.23-.16-.46-.33-.68-.51-.49-.39.21-1.08.7-.69A16.37,16.37,0,0,0,1016.12,551.47Zm-5.7-10.25a.85.85,0,1,1,.36,1.15A.85.85,0,0,1,1010.42,541.22Zm-4-1.9c1.11-2.21,4.09-2.37,6.31-2.27.63,0,.63,1,0,1-1.81-.09-4.55,0-5.47,1.79C1006.93,540.38,1006.08,539.88,1006.37,539.32Zm-1,6.93c.63,0,.63,1,0,1a1.66,1.66,0,0,0-1.76,1.75c0,.63-1,.63-1,0A2.63,2.63,0,0,1,1005.4,546.25Zm-13.75-5.13c-.62-.06-.62-1,0-1a5.74,5.74,0,0,1,4.71,3.37c.25.58-.59,1.07-.84.5A4.8,4.8,0,0,0,991.65,541.12Z"/>
      <path class="b2c0a618-b5bc-41f7-be91-fb516160ba0b" d="M996,541c3.39-2,5.45-9.39,6.26-13,2.14,2.23,7,6,15.54,5.46a13.6,13.6,0,0,0,3.74-.76c4.16-1.48,7.65-5,7.51-10l0-.52c-.49-6.43-6.33-8.63-11.49-9.48a26.1,26.1,0,0,0-21.34,5.84c-.25.08-.5.17-.76.28-5.57,2.34-6.9,13.35-4.85,19.12C992.1,537.48,994.39,539.38,996,541Z"/>
      <path class="e0e72dad-3005-458a-91fd-24d0f86ead52" d="M1015.94,548.24c.43.91,2.13.71,2.93.61a1.21,1.21,0,0,0,.82-.41,1.07,1.07,0,0,0,.15-.82,4.07,4.07,0,0,0-.54-1.29,18.27,18.27,0,0,1-2.23-7.93,1.23,1.23,0,0,0-.14-.57c-.54-.84-1.17.33-1.25.8a3.29,3.29,0,0,0,0,.49c.05,2.78.1,5.55.17,8.32A2.17,2.17,0,0,0,1015.94,548.24Z"/>
      <path class="be4af807-b886-4545-81ed-f5fce31d111d" d="M1011.93,542a.85.85,0,1,0-1.15.36A.84.84,0,0,0,1011.93,542Z"/>
      <path class="be4af807-b886-4545-81ed-f5fce31d111d" d="M1019.93,542.3a.86.86,0,0,0,1.15-.36.85.85,0,1,0-1.15.36Z"/>
      <path class="af8da1f2-4ca7-4282-8e96-2787dd2b776f" d="M1007.21,539.82c.92-1.82,3.66-1.88,5.47-1.79.63,0,.63-.95,0-1-2.22-.1-5.2.06-6.31,2.27C1006.08,539.88,1006.93,540.38,1007.21,539.82Z"/>
      <path class="af8da1f2-4ca7-4282-8e96-2787dd2b776f" d="M1019.36,538.55a3.73,3.73,0,0,1,2,.52.51.51,0,0,0,.32.12c.41,0,.76-.5.37-.81a2.62,2.62,0,0,0-.34-.24,5.75,5.75,0,0,0-2.38-.57C1018.74,537.5,1018.74,538.48,1019.36,538.55Z"/>
      <polygon class="a8fbdf04-efde-46eb-a36a-1933df1adfd1" points="1002 651.72 1002 651.72 1002 651.72 1002 651.72"/>
      <path class="a8fbdf04-efde-46eb-a36a-1933df1adfd1" d="M1012.38,653h0L1002,651.72Z"/>
      <path class="a8fbdf04-efde-46eb-a36a-1933df1adfd1" d="M1002.14,659.66s-7.93-52-9.83-62.67c-1.7-9.52-1.29-25.44-1.18-28.85-6,1.33-13.57,2.59-17.56,4.94-14.07,4-26.16,13.94-32.09,19a65.8,65.8,0,0,0-8.31,9.29h0a4.42,4.42,0,0,0-.51.66c-2.1,3.31-3.16,4.94-3.82,8.78-.76,4.4-2,13.14-2.74,19.86-.79,7.37-1.93,13.35-2,19.93L939,653.56c2.47-12.91,7.5-26,10.45-38.58.23-1,.52-2,.79-3.07,9.1-2.55,21.69-8.66,25.54-10.58,0,.81.07,1.6.07,2.37,0,13.54-.89,35.84-1.45,42.91-1,12.15-2.46,32.34,0,32.34l1.24.54.15.06S1003.44,684.3,1002.14,659.66Z"/>
      <path class="b44f6659-d05e-4029-9f6f-c3891008c58b" d="M995.52,544c.25.57,1.09.08.84-.5a5.74,5.74,0,0,0-4.71-3.37c-.62-.07-.62.91,0,1A4.8,4.8,0,0,1,995.52,544Z"/>
      <path class="a017ef32-dc7d-4849-b9f0-c60669b451b7" d="M923.77,664a32.46,32.46,0,0,0-2.5,5.89,5.5,5.5,0,0,0-.16,2c0,.46.1,1.43.49,1.78.86.76,2-.37,2.39-1s.82-1.6,1.21-2.39,1.37-.09,1,.6a12.89,12.89,0,0,1-1.84,3.27c.55.72,1.76-.18,2.14-.73.53-.76.83-1.66,1.32-2.44s1.44-.05,1,.6a17.92,17.92,0,0,1-1.88,3.13,1.41,1.41,0,0,0,1.85-.09,6.31,6.31,0,0,0,.77-1.05l1.44-2.07c.43-.62,1.46,0,1,.6l-1.43,2.07c-.25.35-.49.75-.78,1.09a1.81,1.81,0,0,0,1.55.26,5.36,5.36,0,0,0,.92-.48,3.38,3.38,0,0,0,.79-.67,11.77,11.77,0,0,0,1.61-2.24c1.78-3.32,1.11-7-.61-10.22a.59.59,0,0,1-.07-.38c-2.25-.33-5-.79-7.25-1.37A10.35,10.35,0,0,0,923.77,664Z"/>
      <path class="b44f6659-d05e-4029-9f6f-c3891008c58b" d="M934.06,661.49a.59.59,0,0,0,.07.38c1.72,3.2,2.39,6.9.61,10.22a11.77,11.77,0,0,1-1.61,2.24,3.38,3.38,0,0,1-.79.67,5.36,5.36,0,0,1-.92.48,1.81,1.81,0,0,1-1.55-.26c.29-.34.53-.74.78-1.09l1.43-2.07c.44-.63-.59-1.22-1-.6l-1.44,2.07a6.31,6.31,0,0,1-.77,1.05,1.41,1.41,0,0,1-1.85.09,17.92,17.92,0,0,0,1.88-3.13c.41-.65-.61-1.24-1-.6s-.79,1.68-1.32,2.44c-.38.55-1.59,1.45-2.14.73a12.89,12.89,0,0,0,1.84-3.27c.34-.69-.68-1.29-1-.6s-.75,1.63-1.21,2.39-1.53,1.81-2.39,1c-.39-.35-.45-1.32-.49-1.78a5.5,5.5,0,0,1,.16-2,32.46,32.46,0,0,1,2.5-5.89,10.35,10.35,0,0,1,3-3.87c-.49-.13-1-.26-1.41-.4a12.07,12.07,0,0,0-2.5,3.39,37.07,37.07,0,0,0-2.14,4.61c-.23.61-.44,1.22-.63,1.85a6.21,6.21,0,0,0-.26,1.66c-.06,1.38.21,3,1.2,3.55a2.74,2.74,0,0,0,2.39,0,2.2,2.2,0,0,0,2.54.56,2.6,2.6,0,0,0,2.84.62,3.24,3.24,0,0,0,3,.62,5.57,5.57,0,0,0,1.84-1.1,9.07,9.07,0,0,0,1.18-1.36,12.45,12.45,0,0,0,.73-1.11,10.45,10.45,0,0,0,.95-2.15,12.33,12.33,0,0,0-1.16-9.21Z"/>
      <path class="b5ea53a9-8f5c-4526-9003-966bd8fed1df" d="M1005.34,549.1c1.34,2.56,4.32,3.86,6.38,4.42,1.62.44,3.6.08,4.35-1.07A17.37,17.37,0,0,1,1005.34,549.1Z"/>
      <path class="b44f6659-d05e-4029-9f6f-c3891008c58b" d="M1004.66,548.59c.22.18.45.35.68.51a17.37,17.37,0,0,0,10.73,3.35h0a.49.49,0,0,0,0-1,16.37,16.37,0,0,1-10.76-3.57C1004.87,547.51,1004.17,548.2,1004.66,548.59Z"/>
      <path class="b44f6659-d05e-4029-9f6f-c3891008c58b" d="M1003.64,549a1.66,1.66,0,0,1,1.76-1.75c.63,0,.63-1,0-1a2.63,2.63,0,0,0-2.74,2.73C1002.68,549.61,1003.66,549.61,1003.64,549Z"/>
      <path class="e3276e32-f5e9-467d-9480-d49302330ce4" d="M923.08,650.44a64.91,64.91,0,0,0-.58,7.81,6.79,6.79,0,0,0,2.9,1.47c.44.14.92.27,1.41.4,2.27.58,5,1,7.25,1.37l1.3.18c1.87.25,3.17.38,3.17.38l.87-8.41-.42-.08-14.91-2.92Z"/>
      <path class="b5ea53a9-8f5c-4526-9003-966bd8fed1df" d="M998.66,566.58h0c.43,7.6,2.64,47.9,3.37,85.14h0l10.38,1.25-2.06-48.46,1.88-38.24h0C1004.38,571.68,998.66,566.58,998.66,566.58Z"/>
      <path class="e3276e32-f5e9-467d-9480-d49302330ce4" d="M1012.82,663.45l8.24-68.16.12-28.77-3.19-.59-5.72-1-.07,1.38-1.88,38.24,2.06,48.46h0L1002,651.72h0c-.73-37.24-2.94-77.54-3.37-85.14q0-.35,0-.6c0-.4,0-.63,0-.67h0l-7.41,2.19s0,.23,0,.65c-.11,3.41-.52,19.33,1.18,28.85,1.9,10.7,9.83,62.67,9.83,62.67,1.3,24.64-26.37,19.89-26.37,19.89l-.15-.06c0,.75.09,1.5.15,2.23h0c.06.72.13,1.42.21,2.11,1.95,17.37,10,38.19,14.07,52.76-22,13.33-54.07,41.07-54.07,41.07a20.68,20.68,0,0,0,.57,2c.75,2.21,2.29,5.74,5.06,8a9.11,9.11,0,0,0,4.69,2c2.08-.79,39.75-20,60.35-40.25l3.29-3.35a7.53,7.53,0,0,0,2.09-6h0c.59-6.86-5.84-51.28-5.94-59.39,4.37,14.78,10.22,46,13.13,61.29-7.34,16.24-15.85,67.41-15.85,67.41a23.1,23.1,0,0,0,2.84,1.54c2.38,1.09,5.93,2.28,9.36,1.77a9.64,9.64,0,0,0,3.87-1.45c2-1.32,14.2-41.51,19.07-70,.73-1.36-2-35.86-6.16-63h0C1010.58,685.22,1012.82,663.45,1012.82,663.45Z"/>
      <polygon class="a8fbdf04-efde-46eb-a36a-1933df1adfd1" points="897.49 671.84 897.49 671.84 900.47 672.41 897.49 671.84"/>
      <path class="a8fbdf04-efde-46eb-a36a-1933df1adfd1" d="M953.68,702.52c-5.51,1-20,3.59-28.19,5L925,710a1.81,1.81,0,0,1-2.12,1.43L915.58,710a1.8,1.8,0,0,1-1.43-2.11l.46-2.43-24.31-15a3.28,3.28,0,0,1-1.51-3.41l2.08-10.77h0l-6,31.31a5.65,5.65,0,0,0,4.48,6.62l56.39,10.87a5.66,5.66,0,0,0,6.62-4.49l4-20.72A3.28,3.28,0,0,1,953.68,702.52Z"/>
      <path class="ae803a7a-da74-463b-ade9-ab174c1446e9" d="M915.58,710l7.33,1.41A1.81,1.81,0,0,0,925,710l.46-2.42,0-.1a1.8,1.8,0,0,0-1.43-2.11l-7.33-1.42a1.82,1.82,0,0,0-2.12,1.44l0,.09-.46,2.43A1.8,1.8,0,0,0,915.58,710Z"/>
      <path class="a8fbdf04-efde-46eb-a36a-1933df1adfd1" d="M1092.6,568.62l14.8,6.52a19.77,19.77,0,0,1,1.17-2.07L1097,567.92s23.88-14.62,24.17-14.62,45,17.65,45,17.65l-23.69,17.14-30.06-13.33,0,0a7.73,7.73,0,0,0-.61,2.26l11.34,5,19.85,8.75,29.16-20.34-51.57-20.34Z"/>
      <path class="f2e1e870-cea8-4019-b4dc-2ec19c6b797d" d="M1126.05,518.07l-5.53,32,51.57,20.34,10.79-36.36Zm44.71,48L1123.09,548l4.61-27.33,51.49,15.23Z"/>
      <path class="f3b2c5a0-6d17-489a-bec1-ca39eddc53f7" d="M1127.7,520.69,1123.09,548l47.67,18.06,8.43-30.16Zm26.06,30.5a8.61,8.61,0,1,1,5-7.81A8.61,8.61,0,0,1,1153.76,551.19Z"/>
      <path class="e3276e32-f5e9-467d-9480-d49302330ce4" d="M1110.12,571.32c2.33-1.64,7.06-.42,8.53-.78.87,1,.59,2.5-1.26,2.71s-4.38.64-5,1.51l30.06,13.33L1166.13,571s-44.71-17.65-45-17.65S1097,567.92,1097,567.92l11.61,5.15A6.77,6.77,0,0,1,1110.12,571.32Z"/>
      <path class="a017ef32-dc7d-4849-b9f0-c60669b451b7" d="M1112.35,574.79l0,0c.63-.87,3.2-1.31,5-1.51s2.13-1.73,1.26-2.71c-1.47.36-6.2-.86-8.53.78a6.77,6.77,0,0,0-1.55,1.75,19.77,19.77,0,0,0-1.17,2.07,34.81,34.81,0,0,0-1.48,3.53c.31.36.64.77,1,1.2h0l0,0h0c1.2,1.47,2.63,3.27,3.84,5h.09c.93,0,8.74-.63,11.58-2.45a6.79,6.79,0,0,0,.62-.42l-11.34-5A7.73,7.73,0,0,1,1112.35,574.79Z"/>
      <path class="e3276e32-f5e9-467d-9480-d49302330ce4" d="M1107,579.9l0,0c-.36-.43-.69-.84-1-1.2-1-1.14-1.62-1.88-1.62-1.88l-6.33,5.6.8,1.08,8,10.89,1.06,1.42a64.36,64.36,0,0,0,5.7-5.36c.06-1.1-1.1-3.15-2.61-5.32l-.14-.2C1109.58,583.17,1108.15,581.37,1107,579.9Z"/>
      <path class="bba35896-3342-440c-9062-874459fa5d6c" d="M1158.74,543.38a8.61,8.61,0,1,0-16,4.44c1.53-2.4,4.32-5.86,7.29-5.15,2.8.67,3.55,5.22,3.72,8.52A8.61,8.61,0,0,0,1158.74,543.38Zm-7.65-1.17a3,3,0,1,1,3-3A3,3,0,0,1,1151.09,542.21Z"/>
      <path class="b5ea53a9-8f5c-4526-9003-966bd8fed1df" d="M1151.09,536.2a3,3,0,1,0,3,3A3,3,0,0,0,1151.09,536.2Z"/>
      <path class="b5ea53a9-8f5c-4526-9003-966bd8fed1df" d="M1150,542.67c-3-.71-5.76,2.75-7.29,5.15a8.62,8.62,0,0,0,11,3.37C1153.59,547.89,1152.84,543.34,1150,542.67Z"/>
    </g>
    <g>
      <path class="a0e0bdef-38af-4c00-9c5f-24c7ce9858e0" d="M493.68,482.65a1.45,1.45,0,0,0,.79,1.2,1.73,1.73,0,0,0,2-.61,4.19,4.19,0,0,0,.77-1.18,4.11,4.11,0,0,0-.74-1.08A14.93,14.93,0,0,1,493.68,482.65Z"/>
      <path class="a0e0bdef-38af-4c00-9c5f-24c7ce9858e0" d="M500.85,489.31a1.79,1.79,0,0,0,2.16-.43,4.36,4.36,0,0,0,.82-1s-.73-2.53-2.69-1.83c-.23,0-.46.26-.63.6C500.11,487.46,500,488.82,500.85,489.31Z"/>
      <path class="a0e0bdef-38af-4c00-9c5f-24c7ce9858e0" d="M503.92,492a1.66,1.66,0,0,0,1.93-.24c-.22.85-.1,2,.73,2.39a1.64,1.64,0,0,0,1.77-.38l2.15,2a4.1,4.1,0,0,1,.22,5.72c-2.84,3.15-7.59,6.9-8.86,6.73-.79-.1-5-3.52-9.57-7.55-1.76-.41-3.91,1.44-2.51,1.92s8.06,7.94,10.57,9.17A18.66,18.66,0,0,0,504,513c1-1.69,5.56-8.88,10.35-9.42a15.53,15.53,0,0,0-5-11.19s-.92-2.12-2.56-1.61l.11-.17s-.73-2.53-2.69-1.83c-.23,0-.47.27-.64.62C503.18,490.19,503.09,491.54,503.92,492Z"/>
      <path class="b5ea53a9-8f5c-4526-9003-966bd8fed1df" d="M499.13,504.67l9-7.38-16.1-14c-.38.12-.76.23-1.15.32a61.69,61.69,0,0,1-.46,6.93,2.67,2.67,0,0,1,.36.32.63.63,0,0,1-.54,1.05c-.2,1.46-.44,2.92-.71,4.38Z"/>
      <path class="a9b12b98-9ef9-40f0-8ed3-482d1f0559fb" d="M506.19,502.08a1.53,1.53,0,0,0-2.36,1.94,1.53,1.53,0,1,0,2.36-1.94Z"/>
      <path class="bfc115ad-4a29-4d22-bf50-d9a87e0e8b81" d="M374.93,639.36a38.47,38.47,0,0,0-2.93,7,6.16,6.16,0,0,0-.2,2.38,4.19,4.19,0,0,0,.54,2.15c.89,1,2.35-.23,2.86-1a33.91,33.91,0,0,0,1.57-3.06c.41-.84,1.65-.11,1.24.72a16,16,0,0,1-2.24,4c.66.86,2.14-.24,2.6-.91.64-.92,1-2,1.61-3,.5-.78,1.75-.06,1.24.73-.78,1.21-1.26,2.77-2.28,3.81a1.65,1.65,0,0,0,1.88.15A3.76,3.76,0,0,0,382,651c.64-.91,1.28-1.81,1.91-2.72s1.77,0,1.24.72-1.11,1.59-1.66,2.38a16.06,16.06,0,0,1-1,1.46,2.21,2.21,0,0,0,1.58.41,4.54,4.54,0,0,0,1.16-.54,4.24,4.24,0,0,0,1.2-.94,14,14,0,0,0,2-2.74c2.16-4,1.35-8.52-.74-12.39a.79.79,0,0,1-.08-.23,21.82,21.82,0,0,1-9-1.72A13.27,13.27,0,0,0,374.93,639.36Z"/>
      <path class="b44f6659-d05e-4029-9f6f-c3891008c58b" d="M387.51,636.39a.79.79,0,0,0,.08.23c2.09,3.87,2.9,8.37.74,12.39a14,14,0,0,1-2,2.74,4.24,4.24,0,0,1-1.2.94,4.54,4.54,0,0,1-1.16.54,2.21,2.21,0,0,1-1.58-.41,16.06,16.06,0,0,0,1-1.46c.55-.79,1.11-1.58,1.66-2.38s-.72-1.49-1.24-.72S382.6,650.07,382,651a3.76,3.76,0,0,1-1.14,1.33,1.65,1.65,0,0,1-1.88-.15c1-1,1.5-2.6,2.28-3.81.51-.79-.74-1.51-1.24-.73-.61.94-1,2-1.61,3-.46.67-1.94,1.77-2.6.91a16,16,0,0,0,2.24-4c.41-.83-.83-1.56-1.24-.72a33.91,33.91,0,0,1-1.57,3.06c-.51.81-2,2-2.86,1a4.19,4.19,0,0,1-.54-2.15,6.16,6.16,0,0,1,.2-2.38,38.47,38.47,0,0,1,2.93-7,13.27,13.27,0,0,1,3.54-4.69,9.54,9.54,0,0,1-1.31-.8,15,15,0,0,0-3.31,4.47,40.58,40.58,0,0,0-3.24,7.62c-.53,1.64-.6,5.12,1,6.25a3.21,3.21,0,0,0,3,.09,2.67,2.67,0,0,0,3.08.68,3.15,3.15,0,0,0,3.44.75c1.14.73,2.37,1.28,3.7.72a7.07,7.07,0,0,0,2.2-1.34,14.55,14.55,0,0,0,2.31-3c2.54-4.39,1.92-9.35-.3-13.71C388.62,636.39,388.09,636.39,387.51,636.39Z"/>
      <path class="bdd42296-2b77-4591-a0aa-5beb098f72a1" d="M377.92,792.47a2.51,2.51,0,0,1,.67-1c-.75-.62-1.23-1-1.23-1s-7.55,4.08-12.37,7.3c6.25,14.19,15.17,28.22,29.56,34.8a11.78,11.78,0,0,0-1.79-9.32,38,38,0,0,1-2.29-4.26l-.24-.52a.89.89,0,0,1-.76.12c-2.25-.59-4.42.28-6.5,1.1-1.12.45-1.6-1.36-.5-1.8,2.26-.91,4.57-1.68,7-1.22-.23-.56-.45-1.13-.66-1.69a1,1,0,0,1-.68-.06c-2.48-1.16-5.18-.19-7.44,1-1.07.55-2-1.06-.94-1.62,2.63-1.38,5.51-2.27,8.35-1.37-.17-.54-.34-1.08-.49-1.61a14.75,14.75,0,0,0-10,0c-1.15.41-1.63-1.41-.5-1.8a16.33,16.33,0,0,1,9.9-.32c-.82-3.44-1.05-6.31-.46-7.58a2.87,2.87,0,0,0-.57-2.52l-1.32.92S378.8,800,377.92,792.47Z"/>
      <path class="bfc115ad-4a29-4d22-bf50-d9a87e0e8b81" d="M384.25,786.38a56.24,56.24,0,0,0-5.66,5.08,2.51,2.51,0,0,0-.67,1c.88,7.53,6.77,7.53,6.77,7.53l1.32-.92,4.37-3C387,793.35,385.15,789.07,384.25,786.38Z"/>
      <path class="bdd42296-2b77-4591-a0aa-5beb098f72a1" d="M570.56,842.53a12,12,0,0,0-8.45-2.58,40.79,40.79,0,0,1-5.89-.21c-.85-.09-1.71-.21-2.55-.34l0,.09c-1.28,2-1.29,4.71-1.58,7-.14,1.18-2,1.19-1.87,0,.3-2.46.36-5.22,1.54-7.45l-1.66-.35,0,0a15.86,15.86,0,0,0-2.35,7.5c-.06,1.2-1.94,1.21-1.87,0a17.77,17.77,0,0,1,2.35-8c-.66-.18-1.29-.36-1.9-.55a1,1,0,0,1-.22.66c-1.87,2.24-2.42,5.22-2.94,8-.22,1.18-2,.68-1.8-.5.58-3.12,1.29-6.22,3.33-8.73-2.18-.81-3.78-1.71-4.39-2.56-.48-.68-1.67-.84-3.16-.71l.1,1.15s-2.91,5.12-9.89,2.17a1.35,1.35,0,0,1-.32-.49l-1,.38s-.21,9,.24,14.75C541.68,853.15,557.84,851.8,570.56,842.53Z"/>
      <path class="be4af807-b886-4545-81ed-f5fce31d111d" d="M570.56,842.53c-12.72,9.27-28.88,10.62-44.31,9.31,0,.21,0,.41,0,.61a11.87,11.87,0,0,0,.76,3.87c1.43,2.42,44.5-2.51,46.2-10.4A10,10,0,0,0,570.56,842.53Z"/>
      <path class="bfc115ad-4a29-4d22-bf50-d9a87e0e8b81" d="M527.29,837.2c7,2.95,9.89-2.17,9.89-2.17l-.1-1.15-.65-7.66c-3.81,1.78-8.34,1.65-11.49,1.21a50.46,50.46,0,0,0,2,9.28A1.35,1.35,0,0,0,527.29,837.2Z"/>
      <path class="be4af807-b886-4545-81ed-f5fce31d111d" d="M365,797.77l-.18.12a14.35,14.35,0,0,0-3.64,3c-1.39,2.44,24.23,37.42,31.92,35a9.35,9.35,0,0,0,1.46-3.31C380.16,826,371.24,812,365,797.77Z"/>
      <path class="e3276e32-f5e9-467d-9480-d49302330ce4" d="M536.43,826.22a11.48,11.48,0,0,0,4-3.05c1.84-2.21,2-53.17-2.31-88,.38-1.86-15.34-42.11-29.8-72.33-.9-1.88-1.81-3.71-2.72-5.46-8.93,0-17.61-9.08-20.81-17.79l-4.52.43q-3.3.33-6.62.43c.29,6.95.29,16.54-1.47,21a3.67,3.67,0,0,1-2.88,2.32,9.52,9.52,0,0,1-3.18-.16s.69-13.58.6-23.11c-2-.05-4-.15-6-.28-2.24-.15-4.47-.36-6.7-.67l-1.56-.23c-2.07,9.37-7.34,22.53-20.64,21.91.08.87.16,8.11.26,8.94,2.37,21.07,12.13,46.33,17.07,64-26.64,16.17-65.59,49.81-65.59,49.81a24.58,24.58,0,0,0,.7,2.45c.9,2.69,2.77,7,6.13,9.69a11.1,11.1,0,0,0,5.69,2.47c2.52-1,48.21-24.32,73.21-48.82,0,0,4-4,4-4.07,3.11-2.88,2.54-7.28,2.54-7.28h0c.69-8-6.58-58.64-7.17-70.9-.1-.29,2-.77,3.63-1a2.31,2.31,0,0,1,2.29,1c10.6,16.6,32.92,59.06,41.42,75.34-2.86,21.42,5.13,83.83,5.13,83.83a26.9,26.9,0,0,0,3.84.8C528.09,827.87,532.62,828,536.43,826.22Zm-86.68-91.68c-.13,3.28,6.24,8.79,6.24,8.79C448.69,741.24,445.3,735.6,449.75,734.54Zm67,8.49c2.74,1.8,10.75-.84,10.75-.84C522,747.38,515.37,747.4,516.74,743Z"/>
      <path class="a8fbdf04-efde-46eb-a36a-1933df1adfd1" d="M516.74,743c-1.37,4.37,5.21,4.35,10.75-.84C527.49,742.19,519.48,744.83,516.74,743Z"/>
      <path class="a8fbdf04-efde-46eb-a36a-1933df1adfd1" d="M449.75,734.54c-4.45,1.06-1.06,6.7,6.24,8.79C456,743.33,449.62,737.82,449.75,734.54Z"/>
      <path class="ed37f400-b593-4a09-b7bf-35b7311dfc1d" d="M504,513l-.21.36s1.55,1.72,3.8,4.84c4.61,6.42,10.74,15.31,16.28,23.45-7.68-6.47-18.68-15.36-23.93-16.92a16.63,16.63,0,0,1,8.16,8.27,13,13,0,0,1,.6,1.72c1.54,5.61,4.4,14.27,3.83,20-.29,2.91-.64,5.81-1,8.71.94.6,1.9,1.17,2.85,1.69a100.54,100.54,0,0,0,23.74,9.32c7.5,1.86,16.56,2.37,23-3.12,6.07-9.53-18.16-48.26-45.75-67.77a5.16,5.16,0,0,0-1,0C509.6,504.11,505.05,511.3,504,513Z"/>
      <path class="b5ea53a9-8f5c-4526-9003-966bd8fed1df" d="M552,846.52c.29-2.32.3-5,1.58-7l0-.09c.5-1-1-1.84-1.67-.85-.1.16-.2.34-.29.52-1.18,2.23-1.24,5-1.54,7.45C550,847.71,551.9,847.7,552,846.52Z"/>
      <path class="b5ea53a9-8f5c-4526-9003-966bd8fed1df" d="M547.68,846.27a15.86,15.86,0,0,1,2.35-7.5l0,0a.94.94,0,0,0-1.64-.9l-.25.44a17.77,17.77,0,0,0-2.35,8C545.74,847.48,547.62,847.47,547.68,846.27Z"/>
      <path class="b5ea53a9-8f5c-4526-9003-966bd8fed1df" d="M543.1,846.38c.52-2.79,1.07-5.77,2.94-8a1,1,0,0,0,.22-.66c0-.75-1-1.39-1.55-.67a.76.76,0,0,0-.08.11c-2,2.51-2.75,5.61-3.33,8.73C541.08,847.06,542.88,847.56,543.1,846.38Z"/>
      <path class="b5ea53a9-8f5c-4526-9003-966bd8fed1df" d="M382.47,817.89c-1.1.44-.62,2.25.5,1.8,2.08-.82,4.25-1.69,6.5-1.1a.89.89,0,0,0,.76-.12.94.94,0,0,0-.26-1.68l-.51-.12C387,816.21,384.73,817,382.47,817.89Z"/>
      <path class="b5ea53a9-8f5c-4526-9003-966bd8fed1df" d="M379.74,814.3c-1.07.56-.13,2.17.94,1.62,2.26-1.19,5-2.16,7.44-1a1,1,0,0,0,.68.06c.72-.22,1.11-1.28.26-1.68a7.15,7.15,0,0,0-1-.37C385.25,812,382.37,812.92,379.74,814.3Z"/>
      <path class="b5ea53a9-8f5c-4526-9003-966bd8fed1df" d="M377.14,809.5c-1.13.39-.65,2.21.5,1.8a14.75,14.75,0,0,1,10,0h0c1.13.41,1.62-1.4.49-1.8a10.8,10.8,0,0,0-1.1-.35A16.33,16.33,0,0,0,377.14,809.5Z"/>
      <path class="a8fbdf04-efde-46eb-a36a-1933df1adfd1" d="M492.05,638.34a43.78,43.78,0,0,1-7.28,1.24c3.2,8.71,11.88,17.81,20.81,17.79h0c-3.73-10.07-7.07-18.37-8.52-21.92A9,9,0,0,1,492.05,638.34Z"/>
      <path class="a8fbdf04-efde-46eb-a36a-1933df1adfd1" d="M466.7,640.45c.09,9.53-.6,23.11-.6,23.11a9.52,9.52,0,0,0,3.18.16,3.67,3.67,0,0,0,2.88-2.32c1.76-4.42,1.76-14,1.47-21Q470.17,640.56,466.7,640.45Z"/>
      <path class="a8fbdf04-efde-46eb-a36a-1933df1adfd1" d="M452.45,639.27c-1.66-.26-3.32-.57-5-.94-1.16-.26-2.3-.57-3.44-.89a26.1,26.1,0,0,1-6.25-2.2c-.6-.35-1.19-.75-1.78-1.13a2,2,0,0,0-.43-.28c-5.31,13.38-3.78,27.35-3.78,27.35h0C445.11,661.8,450.38,648.64,452.45,639.27Z"/>
      <path class="f0f0c9c9-c069-4750-85c5-93d6de0f781d" d="M437.8,635.24a26.1,26.1,0,0,0,6.25,2.2c1.14.32,2.28.63,3.44.89,1.64.37,3.3.68,5,.94l1.56.23c2.23.31,4.46.52,6.7.67,2,.13,4,.23,6,.28q3.46.1,6.93,0,3.31-.11,6.62-.43l4.52-.43a43.78,43.78,0,0,0,7.28-1.24,9,9,0,0,0,5-2.89,12.43,12.43,0,0,0,2.05-5.55c2.82-15.53,6.71-30.76,9.28-46.33l.6-3.63-1.44.17a2.35,2.35,0,0,1-2.3-3.53l5.82-9.85c.16-1.1.32-2.19.47-3.29.39-2.9.74-5.8,1-8.71.57-5.75-2.29-14.41-3.83-20a13,13,0,0,0-.6-1.72,16.63,16.63,0,0,0-8.16-8.27,20,20,0,0,0-4.66-1.61c-4.38-.91-9.46-1.76-13.57-2.38a9.43,9.43,0,0,1-8.62,9c-5.68.54-10.09-3.16-13.4-7.53l.54-.18c-7.76,1.67-16.22,3.84-19.31,5,0,0,9.14,22.85-1.47,35.41,0,0-1.74,1.1-4.55,2.8l3.11-.16a2.35,2.35,0,0,1,2.05,3.68l-7.7,11.14c-.67,1-2.28.81-3.24.42a81.7,81.7,0,0,1-.4-11.45l-.15.08c-.84,18.1,7,64.84,7,64.84h0a2,2,0,0,1,.43.28C436.61,634.49,437.2,634.89,437.8,635.24Zm56.38-76.68,13.22-2.06a2.35,2.35,0,0,1,2.42,3.45l-6.49,11.88a2.35,2.35,0,0,1-4,.2l-6.72-9.82A2.35,2.35,0,0,1,494.18,558.56ZM493,568.5l6.38,10a2.35,2.35,0,0,1-1.7,3.6l-13.27,1.61a2.35,2.35,0,0,1-2.31-3.53L489,568.57A2.35,2.35,0,0,1,493,568.5Zm-21.73-6.83,13.25-1.87a2.35,2.35,0,0,1,2.37,3.49l-6.67,11.78a2.34,2.34,0,0,1-4,.14l-6.58-9.91A2.36,2.36,0,0,1,471.24,561.67Zm-3.1,8.39,6.39,10a2.36,2.36,0,0,1-1.7,3.6l-13.28,1.61a2.35,2.35,0,0,1-2.31-3.53l6.9-11.65A2.34,2.34,0,0,1,468.14,570.06ZM447,562.54l13.35-.67a2.35,2.35,0,0,1,2.05,3.69l-7.7,11.14a2.09,2.09,0,0,1-3.77-.45l-5.65-10.47A2,2,0,0,1,447,562.54Zm-12.65,21.15L441.27,572a2.35,2.35,0,0,1,4-.07l6.38,10a2.35,2.35,0,0,1-1.7,3.6l-13.28,1.61A2.35,2.35,0,0,1,434.38,583.69Z"/>
      <path class="b5ea53a9-8f5c-4526-9003-966bd8fed1df" d="M476.19,575.21a2.34,2.34,0,0,0,4-.14l6.67-11.78a2.35,2.35,0,0,0-2.37-3.49l-13.25,1.87a2.36,2.36,0,0,0-1.63,3.63Z"/>
      <path class="b5ea53a9-8f5c-4526-9003-966bd8fed1df" d="M484.38,583.75l13.27-1.61a2.35,2.35,0,0,0,1.7-3.6l-6.38-10a2.35,2.35,0,0,0-4,.07l-6.89,11.65A2.35,2.35,0,0,0,484.38,583.75Z"/>
      <path class="b5ea53a9-8f5c-4526-9003-966bd8fed1df" d="M507.55,580.11l1.44-.17h0c1.29-3.39,2.09-13.21,2.09-13.21h0l-5.82,9.85A2.35,2.35,0,0,0,507.55,580.11Z"/>
      <path class="b5ea53a9-8f5c-4526-9003-966bd8fed1df" d="M451,576.25a2.09,2.09,0,0,0,3.77.45l7.7-11.14a2.35,2.35,0,0,0-2.05-3.69l-13.35.67a2,2,0,0,0-1.72,3.24Z"/>
      <path class="b5ea53a9-8f5c-4526-9003-966bd8fed1df" d="M429.16,580.36c1,.39,2.57.55,3.24-.42l7.7-11.14a2.35,2.35,0,0,0-2.05-3.68l-3.11.16c-1.72,1-3.83,2.28-6.18,3.63A81.7,81.7,0,0,0,429.16,580.36Z"/>
      <path class="b5ea53a9-8f5c-4526-9003-966bd8fed1df" d="M459.55,585.31l13.28-1.61a2.36,2.36,0,0,0,1.7-3.6l-6.39-10a2.34,2.34,0,0,0-4,.07l-6.9,11.65A2.35,2.35,0,0,0,459.55,585.31Z"/>
      <path class="b5ea53a9-8f5c-4526-9003-966bd8fed1df" d="M436.68,587.22,450,585.61a2.35,2.35,0,0,0,1.7-3.6l-6.38-10a2.35,2.35,0,0,0-4,.07l-6.89,11.65A2.35,2.35,0,0,0,436.68,587.22Z"/>
      <path class="b5ea53a9-8f5c-4526-9003-966bd8fed1df" d="M499.33,572a2.35,2.35,0,0,0,4-.2L509.82,560a2.35,2.35,0,0,0-2.42-3.45l-13.22,2.06a2.35,2.35,0,0,0-1.57,3.65Z"/>
      <path class="ed37f400-b593-4a09-b7bf-35b7311dfc1d" d="M473.13,529.74a9.43,9.43,0,0,0,8.62-9h0c-1.08-.24-2.08-.61-2.84-.78l-.22-.05c.11.16.23.32.35.47,3.31,4-6.09,14.32-17,1.43,0-.11,0-.21,0-.32l-1.72.55-.54.18C463,526.58,467.45,530.28,473.13,529.74Z"/>
      <path class="ed37f400-b593-4a09-b7bf-35b7311dfc1d" d="M434.94,565.28c2.81-1.7,4.55-2.8,4.55-2.8,10.61-12.56,1.48-35.39,1.47-35.41h0c-19.38,3.53-36.5,18.1-44.46,24.93a79.5,79.5,0,0,0-10.07,11.27h0a5.24,5.24,0,0,0-.61.8c-2.55,4-3.84,6-4.64,10.65-.92,5.34-2.44,15.94-3.32,24.09-1.33,12.39-3.47,21.51-1.93,33.86a6.37,6.37,0,0,0,1.24,1.19,9.54,9.54,0,0,0,1.31.8,21.82,21.82,0,0,0,9,1.72c.58,0,1.11,0,1.57,0,1.12,0,1.82-.11,1.82-.11s1.67-6.66,2.34-10.73c2.9-17.57,8.67-28.09,12.78-45.28,7.12-2.72,15.83-7.39,22.59-11.26l.15-.08C431.11,567.56,433.22,566.31,434.94,565.28Z"/>
      <path class="a0e0bdef-38af-4c00-9c5f-24c7ce9858e0" d="M462,521.8c10.94,12.89,20.34,2.53,17-1.43-.12-.15-.24-.31-.35-.47a14.07,14.07,0,0,1-1.94-4.64c-5.85-1.32-8.43-3.57-11.52-5.66a15.9,15.9,0,0,1-5.28-6c.71,4.86,1.54,11.33,2,17.9C462,521.59,462,521.69,462,521.8Z"/>
      <path class="bfc115ad-4a29-4d22-bf50-d9a87e0e8b81" d="M465.23,509.6c3.09,2.09,5.67,4.34,11.52,5.66a46.86,46.86,0,0,0,7.24,1A134.31,134.31,0,0,0,489.22,498c.12-.57.23-1.13.34-1.7.27-1.46.51-2.92.71-4.38a.58.58,0,0,1-.33-.18,4.63,4.63,0,0,0-2.56-1c-.77-.17-.44-1.36.33-1.19a6.63,6.63,0,0,1,2.74,1,61.69,61.69,0,0,0,.46-6.93,16.25,16.25,0,0,1-4.69.46c-10.51-.54-16-6-18.37-9.1-1.43,4.32-4.77,13.21-8.87,16.36-1.88-2.56-5.21-6.41-7.38-5.12a2.47,2.47,0,0,0-.56.48c-1.38,1.62-1,4.87.48,7.84,1.55,3.13,4.31,5.93,7.46,6.18a1.14,1.14,0,0,1-.09.26,17,17,0,0,0,1.06,2.61A15.9,15.9,0,0,0,465.23,509.6Zm21.14-9a5.83,5.83,0,0,1,.49,1.72,1.43,1.43,0,0,1-.3,1,1.46,1.46,0,0,1-1.06.41c-1,0-3.11,0-3.51-1.19a2.75,2.75,0,0,1-.06-1c.28-3.54.59-7.08.89-10.62a4.17,4.17,0,0,1,.13-.63c.16-.58,1.09-2,1.63-.84a1.69,1.69,0,0,1,.11.74A24.15,24.15,0,0,0,486.37,500.64Zm1-6.56a1,1,0,0,1,1.46-.3,1.12,1.12,0,0,1,.29,1.51,1,1,0,0,1-1.46.3A1.1,1.1,0,0,1,487.39,494.08Zm-16-4.08a4.09,4.09,0,0,1,3.21-2.11,16.76,16.76,0,0,1,5,.05c.78.13.45,1.32-.33,1.19a16.77,16.77,0,0,0-3.68-.11,3.45,3.45,0,0,0-3.14,1.6C472,491.29,470.94,490.67,471.36,490Zm6.53,4.12a1,1,0,0,1-1.47.3,1.12,1.12,0,0,1-.29-1.51,1,1,0,0,1,1.47-.3A1.12,1.12,0,0,1,477.89,494.12Zm3.82,12.65c.78.06.79,1.29,0,1.23h-.12c-1.06,1.37-3.56,1.56-5.49.77-2.46-1-5.93-3.06-7.25-6.49-.25-.23-.49-.47-.73-.72-.55-.57.32-1.44.87-.87A19.94,19.94,0,0,0,481.71,506.77Zm-12.31-8.11c.79.11.45,1.3-.32,1.19a2,2,0,0,0-2.29,1.95c-.06.78-1.29.79-1.23,0A3.29,3.29,0,0,1,469.4,498.66ZM453.32,489a7.2,7.2,0,0,1,5.28,5c.23.76-1,1.08-1.19.32a6,6,0,0,0-4.41-4.15C452.22,490,452.55,488.81,453.32,489Z"/>
      <path class="be4d227c-3c25-4d6f-a005-12d4792f200d" d="M459,491.33c4.1-3.15,7.44-12,8.87-16.36,2.34,3.13,7.86,8.56,18.37,9.1a16.25,16.25,0,0,0,4.69-.46c.39-.09.77-.2,1.15-.32l16.1,14-9,7.38-9.57-8.38c-.11.57-.22,1.13-.34,1.7,1,.92,2,1.84,3.07,2.73,4.58,4,8.78,7.45,9.57,7.55,1.27.17,6-3.58,8.86-6.73a4.1,4.1,0,0,0-.22-5.72l-2.15-2a1.64,1.64,0,0,1-1.77.38c-.83-.35-.95-1.54-.73-2.39a1.66,1.66,0,0,1-1.93.24c-.83-.48-.74-1.83-.35-2.63l-.56-.51a1.79,1.79,0,0,1-2.16.43c-.84-.49-.74-1.85-.34-2.65-1.37-1.2-2.73-2.36-4-3.42a1.73,1.73,0,0,1-2,.61,1.45,1.45,0,0,1-.79-1.2,14.93,14.93,0,0,0,2.83-1.67,12.36,12.36,0,0,0,5-9.1c0-.21,0-.43,0-.65.25-8.27-6.63-11.88-12.85-13.68a31.38,31.38,0,0,0-27,4.51,9.74,9.74,0,0,0-1,.25c-6.88,2.12-10.27,15.71-9.09,23.9C453.77,484.92,457.1,488.77,459,491.33Zm47,12.9a1.53,1.53,0,1,1-1.94-2.36,1.53,1.53,0,0,1,1.94,2.36Z"/>
      <path class="a0e0bdef-38af-4c00-9c5f-24c7ce9858e0" d="M484.69,490.23a1.69,1.69,0,0,0-.11-.74c-.54-1.14-1.47.26-1.63.84a4.17,4.17,0,0,0-.13.63c-.3,3.54-.61,7.08-.89,10.62a2.75,2.75,0,0,0,.06,1c.4,1.23,2.52,1.21,3.51,1.19a1.46,1.46,0,0,0,1.06-.41,1.43,1.43,0,0,0,.3-1,5.83,5.83,0,0,0-.49-1.72A24.15,24.15,0,0,1,484.69,490.23Z"/>
      <path class="be4d227c-3c25-4d6f-a005-12d4792f200d" d="M476.13,492.91a1.12,1.12,0,0,0,.29,1.51,1,1,0,0,0,1.47-.3,1.12,1.12,0,0,0-.29-1.51A1,1,0,0,0,476.13,492.91Z"/>
      <path class="be4d227c-3c25-4d6f-a005-12d4792f200d" d="M487.68,495.59a1,1,0,0,0,1.46-.3,1.12,1.12,0,0,0-.29-1.51,1,1,0,0,0-1.46.3A1.1,1.1,0,0,0,487.68,495.59Z"/>
      <path class="be4d227c-3c25-4d6f-a005-12d4792f200d" d="M472.42,490.62a3.45,3.45,0,0,1,3.14-1.6,16.77,16.77,0,0,1,3.68.11c.78.13,1.11-1.06.33-1.19a16.76,16.76,0,0,0-5-.05,4.09,4.09,0,0,0-3.21,2.11C470.94,490.67,472,491.29,472.42,490.62Z"/>
      <path class="be4d227c-3c25-4d6f-a005-12d4792f200d" d="M490.81,490.86a2.67,2.67,0,0,0-.36-.32,6.63,6.63,0,0,0-2.74-1c-.77-.17-1.1,1-.33,1.19a4.63,4.63,0,0,1,2.56,1,.58.58,0,0,0,.33.18A.63.63,0,0,0,490.81,490.86Z"/>
      <path class="b5ea53a9-8f5c-4526-9003-966bd8fed1df" d="M468.85,502.27c1.32,3.43,4.79,5.5,7.25,6.49,1.93.79,4.43.6,5.49-.77A21.2,21.2,0,0,1,468.85,502.27Z"/>
      <path class="a0e91d2d-03b0-4114-a23f-fd11fe69c025" d="M468.12,501.55c.24.25.48.49.73.72A21.2,21.2,0,0,0,481.59,508h.12c.79.06.78-1.17,0-1.23A19.94,19.94,0,0,1,469,500.68C468.44,500.11,467.57,501,468.12,501.55Z"/>
      <path class="a0e91d2d-03b0-4114-a23f-fd11fe69c025" d="M465.56,501.8c-.06.79,1.17.78,1.23,0a2,2,0,0,1,2.29-1.95c.77.11,1.11-1.08.32-1.19A3.29,3.29,0,0,0,465.56,501.8Z"/>
      <path class="be4d227c-3c25-4d6f-a005-12d4792f200d" d="M451.52,494.53a29,29,0,0,0,1.24,6.29c1.48,4.82,5.31,5.08,6.09,4s0-3.86,0-3.86a1.14,1.14,0,0,0,.09-.26C455.83,500.46,453.07,497.66,451.52,494.53Z"/>
      <path class="a0e91d2d-03b0-4114-a23f-fd11fe69c025" d="M453,490.17a6,6,0,0,1,4.41,4.15c.23.76,1.42.44,1.19-.32a7.2,7.2,0,0,0-5.28-5C452.55,488.81,452.22,490,453,490.17Z"/>
      <path class="f26315f2-54c6-4cfa-91a3-55df0a2192d9" d="M517.91,452.83a10.67,10.67,0,1,0-13.59-6.56A10.67,10.67,0,0,0,517.91,452.83ZM516.7,437l1.68.82.81-1.69L521,437l-1.69,3.5-3.5-1.69Zm3.31,5.79,0,.13c.94,2.77-.25,5.68-2.65,6.48l-1.36.46c-2.4.8-5.11-.8-6-3.58Zm-13.48-2.24,1.68.81.81-1.68,1.82.88-.81,1.68h0l-.88,1.82-3.5-1.69Z"/>
      <polygon class="a2185688-5434-48ac-a136-18a1c5802620" points="510.03 442.26 510.03 442.26 510.84 440.58 509.02 439.7 508.21 441.38 506.53 440.57 505.65 442.39 509.15 444.08 510.03 442.26"/>
      <polygon class="a2185688-5434-48ac-a136-18a1c5802620" points="521.01 437.03 519.2 436.15 518.38 437.84 516.7 437.02 515.82 438.84 519.32 440.53 521.01 437.03"/>
      <path class="b5ea53a9-8f5c-4526-9003-966bd8fed1df" d="M516,449.88l1.36-.46c2.4-.8,3.59-3.71,2.65-6.48l0-.13-10,3.49C510.93,449.08,513.64,450.68,516,449.88Z"/>
      <path class="f26315f2-54c6-4cfa-91a3-55df0a2192d9" d="M538.56,483.69A16.41,16.41,0,1,0,533.83,461,16.41,16.41,0,0,0,538.56,483.69Zm13.31-14.38c.11,0,2.89-.86,4.77.59a4.76,4.76,0,0,1,1.57,4.23.78.78,0,0,1-.78.76h0a.79.79,0,0,1-.76-.82,3.34,3.34,0,0,0-1-2.92c-1.22-.95-3.34-.34-3.36-.33a.79.79,0,0,1-1-.53A.79.79,0,0,1,551.87,469.31Zm-12.29-6.8c.1-.06,2.57-1.58,4.76-.67a4.76,4.76,0,0,1,2.62,3.68.79.79,0,0,1-.59,1l-.18,0a.78.78,0,0,1-.76-.62,3.36,3.36,0,0,0-1.69-2.57c-1.43-.6-3.31.54-3.33.55a.79.79,0,0,1-.83-1.34Zm-.47,5.4,13.65,8.95-.12.17c-2.51,3.75-7.16,5-10.39,2.85l-1.84-1.24C537.18,476.47,536.6,471.66,539.11,467.91Z"/>
      <path class="b5ea53a9-8f5c-4526-9003-966bd8fed1df" d="M540.41,478.64l1.84,1.24c3.23,2.17,7.88.9,10.39-2.85l.12-.17-13.65-8.95C536.6,471.66,537.18,476.47,540.41,478.64Z"/>
      <path class="be4d227c-3c25-4d6f-a005-12d4792f200d" d="M540.41,463.85s1.9-1.15,3.33-.55a3.36,3.36,0,0,1,1.69,2.57.78.78,0,0,0,.76.62l.18,0a.79.79,0,0,0,.59-1,4.76,4.76,0,0,0-2.62-3.68c-2.19-.91-4.66.61-4.76.67a.79.79,0,0,0,.83,1.34Z"/>
      <path class="be4d227c-3c25-4d6f-a005-12d4792f200d" d="M552.32,470.82s2.14-.62,3.36.33a3.34,3.34,0,0,1,1,2.92.79.79,0,0,0,.76.82h0a.78.78,0,0,0,.78-.76,4.76,4.76,0,0,0-1.57-4.23c-1.88-1.45-4.66-.63-4.77-.59a.79.79,0,0,0-.53,1A.79.79,0,0,0,552.32,470.82Z"/>
    </g>
    <path class="fb546609-24fb-4148-a439-43ab9d38e18f" d="M787.46,463c.2.07,1-.55,1.18-.69.44-.34.85-.71,1.27-1.07.88-.74,1.74-1.49,2.57-2.28,1.9-1.81,5.49-5,3.7-7.88a4.54,4.54,0,0,0-6.33-1,3.7,3.7,0,0,0-1.58,2.52,5.28,5.28,0,0,0-1.69-3.54,6.83,6.83,0,0,0-3.35-2,3.71,3.71,0,0,0-1.69,0,2.84,2.84,0,0,0-1.61,1.15,6.39,6.39,0,0,0-.61,5.72,14.45,14.45,0,0,0,3.63,5.49,29.73,29.73,0,0,0,2.52,2.23A8.83,8.83,0,0,0,787.46,463Z"/>
    <path class="fb546609-24fb-4148-a439-43ab9d38e18f" d="M730.88,704.27c.34,0,1.15-1.38,1.33-1.68.44-.75.83-1.53,1.24-2.3.85-1.58,1.68-3.17,2.44-4.8,1.73-3.74,5.12-10.46.85-13.64-3-2.27-7.91-1-9.83,2.17-.74,1.22-1.38,3.19-.85,4.59-.63-2-2.73-3.34-4.5-4.19a10.62,10.62,0,0,0-6-1,5.81,5.81,0,0,0-2.49.91,4.38,4.38,0,0,0-1.69,2.6c-.81,3.08.44,6.34,2.41,8.71a22.78,22.78,0,0,0,8.45,5.91,41.49,41.49,0,0,0,5,1.8A13.63,13.63,0,0,0,730.88,704.27Z"/>
    <path class="fb546609-24fb-4148-a439-43ab9d38e18f" d="M754.77,723.47c.17.08.89-.36,1-.46.39-.24.77-.52,1.14-.77.79-.54,1.57-1.08,2.32-1.66,1.73-1.33,5-3.66,3.74-6.19a3.8,3.8,0,0,0-5.15-1.39,3.16,3.16,0,0,0-1.52,2,4.3,4.3,0,0,0-1.08-3.06,5.7,5.7,0,0,0-2.59-2,3.19,3.19,0,0,0-1.4-.18,2.31,2.31,0,0,0-1.42.81,5.29,5.29,0,0,0-1,4.67,12,12,0,0,0,2.52,4.84,23,23,0,0,0,1.89,2.06A7.09,7.09,0,0,0,754.77,723.47Z"/>
    <polygon class="b5ea53a9-8f5c-4526-9003-966bd8fed1df" points="443.3 514.15 443.3 496.21 429.35 504.87 443.3 514.15"/>
    <g>
      <rect class="a1d97551-5318-4106-8007-4d4864210044" x="391.54" y="482.5" width="36.21" height="23.14"/>
      <polygon class="a3a865ba-7a74-4833-a789-b18efde114eb" points="409.64 494.06 427.75 482.5 391.54 482.5 409.64 494.06"/>
    </g>
    <g>
      <path class="be4af807-b886-4545-81ed-f5fce31d111d" d="M702.17,497.39c-3.61-7.79-8.5-17.05-13-21.3-8.45-8-19.51-8.17-21.55-8.21l11.68,22.41s9.36,16.21,18.46,25.33h0C697.6,515.54,697,506.23,702.17,497.39Z"/>
      <path class="a8fbdf04-efde-46eb-a36a-1933df1adfd1" d="M701.78,514.23c-2.5-4.49-.72-10.65,3.43-17.92h0a2.13,2.13,0,0,0-2.85.74c-.06.12-.13.23-.19.34-5.19,8.84-4.57,18.15-4.38,18.23h0c1.38,3.25,5.35,3.39,8.68,2a7.11,7.11,0,0,0,4.4-6.93,10.28,10.28,0,0,1-.64,1.11C708.84,514,703.65,517.73,701.78,514.23Z"/>
      <path class="be4d227c-3c25-4d6f-a005-12d4792f200d" d="M739.9,460.75c.16-.66,1.13-.85,1.72-.72a8.56,8.56,0,0,0,1.24-3.37c-.28-2.57-6.06-6.39-7.3-5.79-.72.34-4.26,5.63-7.16,10.32-2.17,3.52-4,6.71-4,7.25,0,.87,3.07,3.61,5.49,5.16a2.77,2.77,0,0,0,3.79-.8c.33-.49.71-1.05,1.11-1.67a1.11,1.11,0,0,1-.45-1.14c.14-.59.92-.8,1.51-.75a1.14,1.14,0,0,1-.37-1.26c.23-.61,1.14-.7,1.71-.53.1-.14.19-.29.28-.43a1.23,1.23,0,0,1-.53-1.4c.23-.61,1.15-.7,1.73-.52.64-1.05,1.27-2.09,1.83-3.07A1.2,1.2,0,0,1,739.9,460.75Zm-10.84,9.88a1,1,0,1,1-.11-1.46A1,1,0,0,1,729.06,470.63Zm3.42.77-6-5.19,8.79-14.29,6,5Z"/>
      <path class="abd18bd5-d802-4aad-9522-43102be7e2c1" d="M741.62,460c-.59-.13-1.56.06-1.72.72a1.2,1.2,0,0,0,.64,1.28,3,3,0,0,0,.87.38s1.49-1,.66-2.1C742,460.17,741.85,460.08,741.62,460Z"/>
      <path class="abd18bd5-d802-4aad-9522-43102be7e2c1" d="M737,465.62a1.23,1.23,0,0,0,.53,1.4,2.78,2.78,0,0,0,.76.43s1.6-.77.91-2c0-.15-.22-.27-.47-.35C738.13,464.92,737.21,465,737,465.62Z"/>
      <path class="abd18bd5-d802-4aad-9522-43102be7e2c1" d="M735.52,468a1.14,1.14,0,0,0,.37,1.26c-.59-.05-1.37.16-1.51.75a1.11,1.11,0,0,0,.45,1.14c-.4.62-.78,1.18-1.11,1.67a2.77,2.77,0,0,1-3.79.8c-2.42-1.55-5.46-4.29-5.49-5.16,0-.54,1.79-3.73,4-7.25.07-1.21-1.4-2.44-1.57-1.45s-4.39,6.28-4.93,8.09a25.14,25.14,0,0,0-.43,5.65c-6.44,8.27-12.38,16-16.26,22.83-4.15,7.27-5.93,13.43-3.43,17.92,1.87,3.5,7.06-.27,8.45-2.4a10.28,10.28,0,0,0,.64-1.11c.35-.69.64-1.41.93-2.13,2.68-6.67,5.42-13.25,8.57-19.72,2-4.12,4.1-8.19,6-12.35l0,0a10.62,10.62,0,0,0,9.46-4.82s1.31-.86.79-1.9l.12.06s1.61-.78.92-2c0-.16-.23-.28-.49-.36C736.66,467.28,735.75,467.37,735.52,468Z"/>
      <polygon class="a9b12b98-9ef9-40f0-8ed3-482d1f0559fb" points="735.32 451.92 726.53 466.21 732.48 471.4 741.34 456.89 735.32 451.92"/>
      <path class="a9b12b98-9ef9-40f0-8ed3-482d1f0559fb" d="M727.49,469.27a1,1,0,1,0,1.46-.1A1,1,0,0,0,727.49,469.27Z"/>
    </g>
    <g>
      <circle class="f26315f2-54c6-4cfa-91a3-55df0a2192d9" cx="1010.71" cy="469.64" r="10.36" transform="translate(-68.72 192.26) rotate(-10.51)"/>
      <g>
        <rect class="a2185688-5434-48ac-a136-18a1c5802620" x="1015.08" y="469.93" width="3.78" height="1.96" transform="translate(-68.84 193.42) rotate(-10.51)"/>
        <rect class="a2185688-5434-48ac-a136-18a1c5802620" x="1014.93" y="468.3" width="1.96" height="3.78" transform="translate(-68.73 193.22) rotate(-10.51)"/>
        <rect class="a2185688-5434-48ac-a136-18a1c5802620" x="1006.45" y="464.01" width="3.78" height="1.96" transform="translate(-67.91 191.76) rotate(-10.51)"/>
        <rect class="a2185688-5434-48ac-a136-18a1c5802620" x="1006.3" y="462.37" width="1.96" height="3.78" transform="translate(-67.79 191.54) rotate(-10.51)"/>
      </g>
      <path class="b5ea53a9-8f5c-4526-9003-966bd8fed1df" d="M1005.44,468.25l8.49,5.84h0c-1.59,2.36-4.53,3.17-6.58,1.8l-1.16-.77c-2-1.37-2.41-4.39-.82-6.76Z"/>
    </g>
    <g>
      <circle class="f26315f2-54c6-4cfa-91a3-55df0a2192d9" cx="972.69" cy="486.66" r="15.94"/>
      <path class="b5ea53a9-8f5c-4526-9003-966bd8fed1df" d="M966.06,491.78l15.07-4.89h0c1.39,4.16-.38,8.51-4,9.72l-2,.69c-3.58,1.21-7.62-1.17-9-5.33Z"/>
      <path class="be4d227c-3c25-4d6f-a005-12d4792f200d" d="M975.05,483.77a.8.8,0,0,1-.36-.09.76.76,0,0,1-.31-1,4.63,4.63,0,0,1,3.39-2.78c2.29-.3,4.22,1.75,4.3,1.84a.77.77,0,0,1-1.13,1s-1.48-1.56-3-1.36a3.24,3.24,0,0,0-2.23,2A.76.76,0,0,1,975.05,483.77Z"/>
      <path class="be4d227c-3c25-4d6f-a005-12d4792f200d" d="M962.38,488.78l-.17,0a.77.77,0,0,1-.57-.92,4.66,4.66,0,0,1,2.55-3.57c2.13-.87,4.53.61,4.63.67a.77.77,0,0,1,.24,1.06.78.78,0,0,1-1.06.24s-1.83-1.13-3.23-.55a3.24,3.24,0,0,0-1.64,2.49A.77.77,0,0,1,962.38,488.78Z"/>
    </g>
    <g>
      <circle class="f26315f2-54c6-4cfa-91a3-55df0a2192d9" cx="234.36" cy="696.04" r="10.36" transform="translate(-283.73 175.48) rotate(-26.26)"/>
      <g>
        <rect class="a2185688-5434-48ac-a136-18a1c5802620" x="238.83" y="694.59" width="3.78" height="1.96" transform="translate(-282.86 178.25) rotate(-26.26)"/>
        <rect class="a2185688-5434-48ac-a136-18a1c5802620" x="238.52" y="693.26" width="1.96" height="3.78" transform="translate(-282.81 177.67) rotate(-26.26)"/>
        <rect class="a2185688-5434-48ac-a136-18a1c5802620" x="228.92" y="691.22" width="3.78" height="1.96" transform="translate(-282.4 173.52) rotate(-26.26)"/>
        <rect class="a2185688-5434-48ac-a136-18a1c5802620" x="228.61" y="689.9" width="1.96" height="3.78" transform="translate(-282.34 172.94) rotate(-26.26)"/>
      </g>
      <path class="b5ea53a9-8f5c-4526-9003-966bd8fed1df" d="M228.9,696.14l9.76,3.31h0c-.89,2.7-3.51,4.28-5.85,3.52l-1.32-.43c-2.34-.76-3.52-3.57-2.63-6.28Z"/>
    </g>
    <g>
      <circle class="f26315f2-54c6-4cfa-91a3-55df0a2192d9" cx="348.54" cy="693.03" r="15.94" transform="translate(-412.51 843.27) rotate(-74.47)"/>
      <path class="b5ea53a9-8f5c-4526-9003-966bd8fed1df" d="M341.91,698.15,357,693.26h0c1.39,4.16-.38,8.51-4,9.72l-2,.69c-3.58,1.21-7.62-1.17-9-5.33Z"/>
      <path class="be4d227c-3c25-4d6f-a005-12d4792f200d" d="M350.91,690.14a.74.74,0,0,1-.36-.09.75.75,0,0,1-.32-1,4.63,4.63,0,0,1,3.39-2.78c2.29-.3,4.22,1.75,4.3,1.84a.76.76,0,1,1-1.12,1s-1.49-1.56-3-1.36a3.24,3.24,0,0,0-2.23,2A.75.75,0,0,1,350.91,690.14Z"/>
      <path class="be4d227c-3c25-4d6f-a005-12d4792f200d" d="M338.23,695.15l-.17,0a.77.77,0,0,1-.57-.92,4.66,4.66,0,0,1,2.55-3.57c2.13-.87,4.53.61,4.63.67a.77.77,0,0,1-.81,1.3s-1.84-1.13-3.24-.55a3.24,3.24,0,0,0-1.64,2.49A.77.77,0,0,1,338.23,695.15Z"/>
    </g>
  </g>
</svg>
