<svg id="a337399a-4e03-4733-8119-6e5108ea93ef" data-name="レイヤー 1" xmlns="http://www.w3.org/2000/svg" xmlns:xlink="http://www.w3.org/1999/xlink" viewBox="0 0 1366 260">
  <defs>
    <style>
      .ac3efd96-5325-4942-9454-1b32e46cb689, .addcda51-1616-47d1-b4ea-422b41281979, .bf541fde-5023-4e2c-aedf-5a431f6b973b, .e784043d-f262-4cf4-9d14-2d617a3ff20b {
        fill: none;
      }

      .bb6baaff-3daf-499a-91e2-95681da5046f {
        clip-path: url(#fe626434-65dd-4b23-a080-4d96cadcff7d);
      }

      .a63a6bbc-e19d-483c-9df9-878830b4bc51, .a842728f-8424-44f9-806c-19d1ce4ce02c {
        font-size: 16px;
      }

      .a63a6bbc-e19d-483c-9df9-878830b4bc51 {
        font-family: HiraKakuProN-W6-83pv-RKSJ-H, Hiragino Kaku Gothic ProN;
        letter-spacing: 0.1em;
      }

      .acf8c786-076d-4e9f-b777-38e0b5d868ba {
        font-size: 14px;
        font-family: HiraKakuProN-W3-83pv-RKSJ-H, Hiragino Kaku Gothic ProN;
        letter-spacing: 0.1em;
      }

      .ea8de1e7-20ed-47c1-90c8-d99317423830 {
        letter-spacing: 0.35em;
      }

      .e4bb1fe6-57c5-4201-b087-09970540645c {
        letter-spacing: 0.1em;
      }

      .bf541fde-5023-4e2c-aedf-5a431f6b973b, .e784043d-f262-4cf4-9d14-2d617a3ff20b {
        stroke: #000;
      }

      .ac3efd96-5325-4942-9454-1b32e46cb689, .bf541fde-5023-4e2c-aedf-5a431f6b973b, .e784043d-f262-4cf4-9d14-2d617a3ff20b {
        stroke-miterlimit: 10;
      }

      .bf541fde-5023-4e2c-aedf-5a431f6b973b {
        stroke-width: 2.31px;
      }

      .a842728f-8424-44f9-806c-19d1ce4ce02c, .a9e27b88-e81c-40a3-bd70-dc3bf07a4edf {
        fill: #fff;
      }

      .ac3efd96-5325-4942-9454-1b32e46cb689 {
        stroke: #e3e3e3;
        stroke-width: 2px;
      }

      .e784043d-f262-4cf4-9d14-2d617a3ff20b {
        stroke-width: 1.64px;
      }

      .e1c90e12-8b52-4efb-9909-86440bc902cf {
        letter-spacing: 0.35em;
      }

      .f0a7157b-d713-415e-a577-1d58b890abca {
        fill: #83ccd2;
      }

      .a842728f-8424-44f9-806c-19d1ce4ce02c {
        font-family: HiraginoSans-W6-83pv-RKSJ-H, Hiragino Sans;
        letter-spacing: 0.3em;
      }
    </style>
    <clipPath id="fe626434-65dd-4b23-a080-4d96cadcff7d">
      <rect class="addcda51-1616-47d1-b4ea-422b41281979" x="-17.5" y="-537.5" width="1415" height="448"/>
    </clipPath>
  </defs>
  <g class="bb6baaff-3daf-499a-91e2-95681da5046f">
    <image width="1980" height="1123" transform="translate(-55.52 -835.61) scale(0.74)" xlink:href="http://3.112.250.183/wp-content/uploads/2021/11/pixta_55338341_XL.jpg"/>
  </g>
  <text class="a63a6bbc-e19d-483c-9df9-878830b4bc51" transform="translate(322.11 74.94)">フリーワード検索</text>
  <text class="a63a6bbc-e19d-483c-9df9-878830b4bc51" transform="translate(324.61 148.44)">報酬</text>
  <text class="acf8c786-076d-4e9f-b777-38e0b5d868ba" transform="translate(554.61 146.44)">6<tspan class="ea8de1e7-20ed-47c1-90c8-d99317423830" x="10.6" y="0">0</tspan><tspan class="e4bb1fe6-57c5-4201-b087-09970540645c" x="24.7" y="0">万円〜</tspan></text>
  <rect class="bf541fde-5023-4e2c-aedf-5a431f6b973b" x="520" y="48" width="475" height="40" rx="4.36"/>
  <path d="M991.54,89H950.36c.65,0,.65-42,0-42h41.18A4.54,4.54,0,0,1,996,51.58V84.42A4.54,4.54,0,0,1,991.54,89Z"/>
  <path class="a9e27b88-e81c-40a3-bd70-dc3bf07a4edf" d="M982.69,75.77l-3.6-3.59a8.26,8.26,0,1,0-1.8,1.8l3.59,3.6Zm-14.21-4.41a5.66,5.66,0,1,1,8,0A5.77,5.77,0,0,1,968.48,71.36Z"/>
  <line class="ac3efd96-5325-4942-9454-1b32e46cb689" x1="283" y1="111" x2="1083" y2="111"/>
  <circle class="e784043d-f262-4cf4-9d14-2d617a3ff20b" cx="533.5" cy="139.5" r="9"/>
  <text class="acf8c786-076d-4e9f-b777-38e0b5d868ba" transform="translate(687.11 146.94)">8<tspan class="ea8de1e7-20ed-47c1-90c8-d99317423830" x="10.6" y="0">0</tspan><tspan class="e4bb1fe6-57c5-4201-b087-09970540645c" x="24.7" y="0">万円〜</tspan></text>
  <circle class="e784043d-f262-4cf4-9d14-2d617a3ff20b" cx="666" cy="140" r="9"/>
  <text class="acf8c786-076d-4e9f-b777-38e0b5d868ba" transform="translate(812.11 146.94)">10<tspan class="e1c90e12-8b52-4efb-9909-86440bc902cf" x="21.2" y="0">0</tspan><tspan x="35.29" y="0">万円〜</tspan></text>
  <circle class="e784043d-f262-4cf4-9d14-2d617a3ff20b" cx="791" cy="140" r="9"/>
  <text class="acf8c786-076d-4e9f-b777-38e0b5d868ba" transform="translate(944.11 146.94)">12<tspan class="e1c90e12-8b52-4efb-9909-86440bc902cf" x="21.2" y="0">0</tspan><tspan x="35.29" y="0">万円〜</tspan></text>
  <circle class="e784043d-f262-4cf4-9d14-2d617a3ff20b" cx="923" cy="140" r="9"/>
  <g>
    <rect class="f0a7157b-d713-415e-a577-1d58b890abca" x="483" y="186.37" width="400" height="60" rx="30"/>
    <g>
      <circle class="f0a7157b-d713-415e-a577-1d58b890abca" cx="845.41" cy="218.77" r="13.51"/>
      <g>
        <path class="a9e27b88-e81c-40a3-bd70-dc3bf07a4edf" d="M846.66,219l0-.05v0s0,0,0-.06h0a.43.43,0,0,0,0-.16h0s0,0,0-.06h0l0-.06,0-.06-5.42-5.41a.38.38,0,0,0-.55,0l-1,1a.39.39,0,0,0-.11.27.39.39,0,0,0,.11.28l4.11,4.11-4.11,4.11a.39.39,0,0,0-.11.28.39.39,0,0,0,.11.27l1,1a.39.39,0,0,0,.28.12.36.36,0,0,0,.27-.12l5.42-5.42A.12.12,0,0,0,846.66,219Z"/>
        <path class="a9e27b88-e81c-40a3-bd70-dc3bf07a4edf" d="M852.66,219v0s0,0,0-.06h0a.43.43,0,0,0,0-.16h0s0,0,0-.06h0l0-.06,0-.06-5.41-5.41a.39.39,0,0,0-.56,0l-1,1a.39.39,0,0,0-.11.27.39.39,0,0,0,.11.28l4.11,4.11-4.11,4.11a.39.39,0,0,0-.11.28.39.39,0,0,0,.11.27l1,1a.39.39,0,0,0,.56,0l5.41-5.42a.12.12,0,0,0,0-.05Z"/>
      </g>
    </g>
    <text class="a842728f-8424-44f9-806c-19d1ce4ce02c" transform="translate(589.91 224.64)">指定条件で検索する</text>
  </g>
</svg>
