<!-- Generator: Adobe Illustrator 26.0.1, SVG Export Plug-In . SVG Version: 6.00 Build 0)  -->
<svg version="1.1" id="レイヤー_1" xmlns="http://www.w3.org/2000/svg" xmlns:xlink="http://www.w3.org/1999/xlink" x="0px"
	 y="0px" viewBox="0 0 1361.25 5610.49" style="enable-background:new 0 0 1361.25 5610.49;" xml:space="preserve">
<style type="text/css">
	.st0{fill:#AC263D;}
	.st1{opacity:0.15;fill:#82CBD1;enable-background:new    ;}
	.st2{opacity:0.16;}
	.st3{fill:none;stroke:#000000;stroke-width:1.83;stroke-linecap:round;stroke-linejoin:round;}
	.st4{fill:#A7A7A7;}
	.st5{fill:#949494;}
	.st6{fill:#BDBDBD;}
	.st7{fill:#868686;}
	.st8{fill:#FFFFFF;}
	.st9{opacity:0.3;}
	.st10{fill:#DB4335;}
	.st11{fill:none;stroke:#000000;stroke-miterlimit:10;}
	.st12{fill:#0045BA;}
	.st13{fill:#82CBD1;}
	.st14{opacity:0.15;fill:#4AA543;enable-background:new    ;}
	.st15{fill:none;}
	.st16{opacity:0.15;fill:#DFD856;enable-background:new    ;}
	.st17{fill:none;stroke:#DB4335;stroke-miterlimit:10;}
	.st18{fill:#ABBCE2;}
	.st19{fill:#C7D8F6;}
	.st20{fill:#E5D8C3;}
	.st21{fill:#FF9682;}
	.st22{fill:#F6EAD9;}
	.st23{fill:#FFF6ED;}
	.st24{fill:#FFE278;}
	.st25{fill:#FF685A;}
	.st26{fill:#6D729D;}
	.st27{fill:#FFF3ED;}
	.st28{fill:#000543;}
	.st29{fill:#F6764A;}
	.st30{fill:#000544;}
	.st31{fill:#384393;}
	.st32{fill:#FFE897;}
	.st33{fill:#FF9F7F;}
	.st34{fill:#F7694F;}
	.st35{fill:#8EB1DB;}
	.st36{fill:#949CC9;}
	.st37{fill:#4DB1E5;}
	.st38{fill:#172377;}
	.st39{fill:#B4BCDF;}
	.st40{fill:#333333;}
	.st41{fill:#4AA543;}
	.st42{fill:#DFD856;}
	.st43{fill:#D54335;}
	.st44{fill:none;stroke:#D54335;stroke-miterlimit:10;}
	.st45{fill:#4CB3D3;}
	.st46{fill:#4AA3C1;}
	.st47{fill:#1178B7;}
	.st48{fill:#1883C6;}
	.st49{fill:none;stroke:#FFFFFF;stroke-width:5;stroke-miterlimit:10;}
	.st50{clip-path:url(#SVGID_00000134242168353777293760000006428496067609061506_);}
	.st51{fill:#311E69;}
	.st52{fill:#1E1240;}
	.st53{fill:#FC9B7A;}
	.st54{fill:#FFA986;}
	.st55{fill:#AD263D;}
	.st56{fill:#F96291;}
	.st57{fill:#614CD4;}
	.st58{fill:#D95F76;}
	.st59{fill:#AA3766;}
	.st60{fill:#FF8DA8;}
	.st61{fill:#473399;}
	.st62{fill:#9388FF;}
	.st63{fill:#6D55ED;}
	.st64{fill:#F1F1F1;}
	.st65{fill:#FFC4C4;}
	.st66{fill:#BCD560;}
	.st67{fill:#002E4E;}
	.st68{opacity:0.2;}
	.st69{clip-path:url(#SVGID_00000086666400031452634190000011243948073025336979_);}
	.st70{opacity:0.79;fill:#82CBD1;enable-background:new    ;}
	.st71{fill:#3F3F3F;}
	.st72{clip-path:url(#SVGID_00000100382589107137588590000012600793444830511802_);}
</style>
<g>
	<g id="レイヤー_2のコピー_3">
		<rect x="-14" y="4884.49" class="st67" width="1427" height="726"/>
		<rect x="-14" y="5449.49" class="st43" width="1427" height="161"/>
		<g class="st68">
			<path d="M666,5169.49v200H266v-200H666 M676,5159.49H256v220h420V5159.49z"/>
		</g>
		<g>
			<path class="st8" d="M464.77,5079.16c-0.55,1.59-1.2,3.14-1.95,4.64c0.94,0,6.27-0.07,7.74-0.14v3.17
				c-1.76-0.08-6.05-0.15-9.18-0.15h-3.6v2.81h2.59c2.85,0,5.69-0.08,8.5-0.33v3.57c-3.67-0.33-8.17-0.33-8.5-0.33h-2.59
				c0,2.23,0,2.38,0.22,6.23h-3.71c0.22-3.46,0.22-3.82,0.22-6.23H452c-2.8,0-5.61,0.07-8.42,0.33v-3.57
				c2.92,0.25,7.13,0.33,8.42,0.33h2.49v-2.85h-5.69c-0.36,0-4.07,0.07-6.95,0.15v-3.1c1.44,0,6.37,0.11,7.85,0.11
				c-0.76-1.6-1.62-3.15-2.56-4.64c-4.6,0.1-5.11,0.1-7.23,0.25v-3.53c3.74,0.22,9.21,0.29,10.87,0.29h3.82v-3.57H452
				c-2.8,0-5.61,0.11-8.38,0.33v-3.44c2.88,0.22,7.09,0.29,8.38,0.29h2.6c-0.08-2.34-0.08-2.63-0.15-3.85l3.6,0.28
				c0.32,0,0.72,0.08,0.72,0.4c0,0.32-0.5,0.68-0.83,0.86c0,0.44,0,2.06-0.07,2.31h2.41c2.85,0,5.65-0.07,8.5-0.29v3.53
				c-3.67-0.29-8.17-0.33-8.5-0.33h-2.41v3.57h3.64c3.67,0,7.34-0.07,11-0.29v3.52C469.55,5079.27,466.75,5079.2,464.77,5079.16z
				 M450.84,5079.16c0.87,1.52,1.63,3.11,2.26,4.75h6.19c0.74-1.53,1.36-3.12,1.84-4.75H450.84z"/>
			<path class="st8" d="M494,5086.72c-0.96-0.86-1.84-1.8-2.63-2.81v7.31c0,2.37,0.11,4.71,0.29,7.05H488
				c0.23-2.38,0.34-4.77,0.32-7.16v-6.62c-0.93,1.01-2.02,1.85-3.24,2.48l-2.84-2.3c4.35-2.16,6.73-4.29,9.86-10h-4.17
				c-1.34,0-2.2,0-4.07,0.14v-2.66c0.61,0,2.34,0,3,0h1.83c-0.07-2.91-0.07-3.24-0.18-6l3.49,0.58c0.22,0,0.54,0.07,0.54,0.43
				s-0.1,0.4-0.86,0.79c0,0.87-0.11,2.92-0.11,4.21c1.14,0,2.29-0.09,3.42-0.25l1.08,1.19c-1.06,2.51-2.43,4.88-4.07,7.05
				c1.26,1.43,2.62,2.77,4.07,4L494,5086.72z M508.94,5070.05h-6.63c-2.19,0-4.35,0.07-6.51,0.18v-2.91
				c2.17,0.17,4.34,0.23,6.51,0.18h6.63c2.2,0.05,4.4-0.01,6.59-0.18v2.91C512.79,5070.09,510.41,5070.05,508.94,5070.05z
				 M510.94,5098.38c0.15-0.66,0.23-1.33,0.26-2h-11.94c0,0.64,0.03,1.28,0.1,1.91h-3.24c0.15-1.48,0.22-2.97,0.22-4.46v-5.87
				c0-0.07,0-1.73-0.22-6.19c0.76,0.07,5.3,0.14,6.19,0.14h5.76c0.94,0,4.58,0,6.34-0.11c-0.07,1.51-0.14,1.88-0.14,5.19v5.61
				c0,1.92,0.1,3.85,0.32,5.76L510.94,5098.38z M508,5079.84h-5.47c-2.27,0-2.56,0-5.08,0.11c0.1-0.84,0.15-1.68,0.15-2.52v-2.84
				c0-0.25-0.08-2.34-0.11-2.67c0.75,0,4,0.15,4.71,0.15h5.8c1.26,0,3.92-0.22,5.07-0.25c0,0.93,0,2.37,0,2.59v2.84
				c-0.01,0.88,0.03,1.76,0.11,2.63C512.18,5079.84,509.73,5079.84,508,5079.84z M503.75,5090.25h-4.61v3.52h4.61V5090.25z
				 M503.75,5084.41h-4.53v3.42h4.53V5084.41z M510.09,5074.48h-9.47v2.88h9.47V5074.48z M511.28,5090.32h-4.65v3.53h4.65V5090.32z
				 M511.28,5084.41h-4.6v3.46h4.6V5084.41z"/>
			<path class="st8" d="M545,5093.49c-0.78,1.77-2.56,2.89-4.5,2.81c-1.11-0.06-2.22-0.21-3.31-0.44l-0.54-3.67
				c1.14,0.38,2.33,0.62,3.53,0.72c0.72,0,1.51-0.14,2.41-1.94c1.09-2.85,1.65-5.88,1.65-8.93c0.11-1.17-0.15-2.35-0.72-3.38
				c-0.43-0.3-0.95-0.45-1.47-0.43c-1.05,0.03-2.08,0.18-3.1,0.43c-0.88,3.8-2.09,7.52-3.6,11.12c-0.98,2.23-2.18,4.36-3.6,6.34
				l-3.81-1.51c1.73-2,5.43-6.23,7.41-15.12c-1.94,0.54-3.84,1.23-5.68,2.05l-1.08-3.71c2.49-0.28,4.96-0.75,7.38-1.4
				c0.46-2.64,0.69-5.32,0.68-8l4.54,0.61c0.26,0.01,0.47,0.21,0.5,0.47c0,0.46-0.72,0.9-1.15,1.15c-0.46,1.64-0.79,3.31-1,5
				c1.1-0.25,2.22-0.4,3.35-0.44c3.53,0,4.61,3.21,4.61,7C547.46,5086.11,546.61,5089.95,545,5093.49z M551.26,5086.49l-2.23-3.35
				c0.79,0,3.31,0,3.31-1.44c0-0.65-1.08-3.63-6.15-8.17l2.73-1.8c2.13,2.03,4.02,4.3,5.62,6.77c0.86,1.13,1.38,2.48,1.51,3.89
				c0.01,1.23-0.89,3.36-4.78,4.04L551.26,5086.49z M554.54,5073.96c-0.4-0.46-1.58-1.83-1.84-2.08c-0.4-0.42-0.85-0.8-1.33-1.12
				l1.73-1.8c1.18,1,2.29,2.08,3.31,3.24L554.54,5073.96z M558.1,5071.48c-0.97-1.16-2.06-2.22-3.24-3.17l1.84-1.55
				c1.16,0.93,2.25,1.95,3.24,3.06L558.1,5071.48z"/>
			<path class="st8" d="M595.66,5076.42h-1.73v3.21c1,0,5.26-0.08,6.12-0.08c0,1.55-0.07,4-0.07,5.22v6.16c0,1.66,0.11,6,0.18,7.63
				h-3.53c0.06-0.49,0.1-0.99,0.11-1.48h-8.49c0,0.69,0,0.8,0.1,1.52h-3.13c0.07-2.09,0.15-5.76,0.15-6.63v-6.4
				c0-1.77,0-4.25-0.08-6c0.87,0,4.72,0.08,5.51,0.08v-3.21h-6.73v2.56c0,7.16-0.57,12.17-4.21,17.93l-3.06-1.59
				c0,0.54,0.07,2.77,0.07,3.24h-3.45c0.07-1.69,0.14-4.61,0.14-5.58v-9.79c-1.12,1.15-1.55,1.58-2.12,2.12l-2.92-2.37
				c2.13-1.47,4.03-3.25,5.62-5.29c1.3-1.52,2.35-3.24,3.13-5.08l2.81,2c0.46,0.36,0.46,0.54,0.46,0.65c0,0.54-0.46,0.54-0.64,0.54
				c-0.21-0.01-0.42-0.04-0.62-0.08c-0.61,1.11-1.28,2.19-2,3.24c0.51,0.22,0.65,0.29,0.65,0.54c0,0.47-0.86,0.76-1.12,0.83
				c0,0.72,0,3.82,0,4.46v5.84c0,1.44,0,3.13,0.07,4.57c3.31-4.79,4.07-8.53,4.07-14.19c0-10,0-11.15-0.11-13.46
				c1.58,0.39,3.2,0.57,4.82,0.54c4.25,0.08,8.48-0.64,12.46-2.12l2.66,2.95c0.13,0.14,0.21,0.31,0.22,0.5
				c0,0.33-0.33,0.47-0.58,0.47s-0.36-0.07-1.37-0.54c-0.57,0.15-4.14,0.94-5,1.15v3.32h1.73c1.37,0,4.32-0.08,6.48-0.22v3.06
				C600.16,5076.49,597,5076.42,595.66,5076.42z M578.78,5069.26c-0.27-0.03-0.54-0.09-0.79-0.18c-1.83,2.3-4.02,4.29-6.48,5.9
				l-2.67-2.44c3.06-1.54,5.65-3.88,7.49-6.77l2.67,2c0.43,0.33,0.54,0.58,0.54,0.8c0.02,0.36-0.26,0.68-0.62,0.7
				C578.87,5069.27,578.83,5069.27,578.78,5069.26L578.78,5069.26z M590.78,5070.63c-2.24,0.24-4.48,0.36-6.73,0.36v2.81h6.73
				V5070.63z M596.72,5081.93h-8.49v2.7h8.49V5081.93z M596.72,5086.93h-8.49v2.78h8.49V5086.93z M596.72,5092.01h-8.49v2.77h8.49
				V5092.01z"/>
			<path class="st8" d="M623.13,5090.1c-1.47,0.54-3.81,1.26-8.75,2.77c-0.07,0.29-0.28,1.16-0.79,1.16c-0.29,0-0.47-0.26-0.57-0.65
				l-1-3.53c1.38-0.12,2.74-0.39,4.07-0.79v-8.43c-1.02-0.03-2.05,0.03-3.06,0.18v-3.23c1.01,0.21,2.03,0.32,3.06,0.32v-7.2
				c-1.16-0.02-2.31,0.05-3.46,0.22v-3.24c1.21,0.18,2.44,0.28,3.67,0.28h3.53c1.18,0.01,2.36-0.08,3.53-0.28v3.24
				c-1.17-0.18-2.35-0.26-3.53-0.22h-0.61v7.2c0.99-0.01,1.98-0.11,2.95-0.32v3.23c-0.98-0.15-1.96-0.21-2.95-0.18v7.64
				c0.11,0,2.7-0.58,4.14-1.08L623.13,5090.1z M643.54,5099.1c-4.65-2.15-8.34-5.94-10.37-10.65c0,1.76-0.07,8.64,0.15,10.26h-3.64
				c0.21-2.33,0.31-4.66,0.29-7c-2.05,2-3.24,2.8-6.91,4.57l-2.45-2.77c3.46-0.89,6.55-2.86,8.82-5.62c-2.41,0-2.66,0-3.78,0.07
				c0-0.68,0.11-2.19,0.11-2.84v-2.23c0-0.43-0.07-2.38-0.11-2.81c1,0.14,3.53,0.22,4.54,0.22h8.28c1.65,0.05,3.3-0.04,4.93-0.26
				c-0.07,0.51-0.07,2.27-0.07,2.92v2.45c-0.02,0.85,0,1.7,0.07,2.55c-1.8-0.07-3.82-0.11-5.65-0.11h-1.44
				c0.62,1.42,1.45,2.73,2.48,3.89c1.29-1.08,2.41-2.34,3.35-3.74l2.88,1.76c0.2,0.13,0.32,0.35,0.32,0.58
				c0,0.61-0.72,0.65-1.47,0.61c-0.92,1.03-1.95,1.95-3.06,2.77c1.51,1.15,3.25,1.95,5.11,2.34L643.54,5099.1z M638.11,5078.49
				h-7.78c-1.55,0-4.82,0.07-7.2,0.21v-2.74c2.92,0.15,5.58,0.22,7.2,0.22h7.78c2,0,4-0.07,7.59-0.22v2.74
				C642.5,5078.55,640,5078.49,638.11,5078.49z M644.62,5070.1v2.09c0,0.39,0,2.19,0.11,2.55c-1.58-0.07-4.9-0.18-6.52-0.18H631
				c-2,0-4,0.11-5.93,0.18c0-0.39,0.07-2.19,0.07-2.55v-1.91c0-1.3,0-2.95-0.07-3.46c1.08,0.15,4.46,0.22,5.65,0.22h7.45
				c0.07,0,4.46,0,6.62-0.11C644.66,5067.98,644.61,5069.03,644.62,5070.1L644.62,5070.1z M630.62,5069.34H628v2.85h2.55
				L630.62,5069.34z M640.49,5082.62H628.6v2.78h11.85L640.49,5082.62z M636.35,5069.34h-2.85v2.85h2.81L636.35,5069.34z
				 M641.85,5069.34h-2.73v2.85h2.73V5069.34z"/>
			<path class="st8" d="M680.3,5074.37c-2.31,0-3.17,0.07-4.57,0.18c-0.08,0.79-0.26,4.29-0.29,5c1.01,1.82,1.55,3.86,1.56,5.94
				c-0.14,5-2.23,9.74-5.83,13.21l-4.1-1.65c1.32-0.58,2.49-1.46,3.42-2.56c1.15-1.31,1.94-2.9,2.3-4.6
				c-0.78,0.6-1.74,0.91-2.73,0.9c-3.5,0-5-3.32-5-6c0-3.06,2-6.87,5.68-6.87c0.65,0,1.44,0.07,1.7,0.1c0-1,0-1.18,0-3.24
				c-4.83,0.13-9.65,0.55-14.43,1.26l-0.4-3.74c1,0,1.22,0.07,2.3,0.07c1.3,0,7-0.21,8.14-0.25c1.62,0,2.52,0,4.28-0.07
				c0.03-1.95-0.11-3.9-0.43-5.83l3.85,0.18c0.58,0,1.37,0,1.37,0.61c0,0.25-0.25,0.43-0.36,0.5c-0.36,0.29-0.39,0.33-0.72,0.58
				c-0.18,1.24-0.26,2.49-0.25,3.74c3.71-0.04,7.41-0.34,11.08-0.9l0.15,3.67C683.83,5074.37,681.09,5074.37,680.3,5074.37z
				 M670.79,5081.07c-1.51,0-2.55,1.69-2.55,3.7c0,2.31,1.44,3.06,2.16,3.06c2.3,0,2.66-2.34,2.66-3.56
				C673.06,5082.22,672,5081.07,670.79,5081.07z"/>
			<path class="st8" d="M715.76,5096.76c-3.1,0-7.49-1.4-7.49-4.86c0-2.95,3-4.79,5.69-4.79c2.06,0.06,4.02,0.85,5.54,2.24
				c0.75,0.68,1.38,1.48,1.87,2.37c1.72-1.09,2.77-2.97,2.81-5c0.01-1.59-0.55-3.14-1.58-4.35c-1.25-1.06-2.86-1.62-4.5-1.55
				c-2.55,0.07-5.02,0.91-7.09,2.41c-1.59,1.12-2.81,2.41-5.58,5.4l-3-2.38c5.32-4.42,10.17-9.38,14.47-14.79
				c-2.37,0.5-3.53,0.76-6,1.08l-4.29,0.43l-0.75-3.49c0.79,0.1,1.58,0.14,2.37,0.14c4.35-0.05,8.66-0.72,12.82-2l2.16,2.52
				c-1.5,0.91-2.85,2.05-4,3.38c-1.75,1.71-3.4,3.53-4.93,5.44c1.42-0.74,3.01-1.12,4.61-1.12c4.69-0.13,8.61,3.56,8.74,8.25
				c0,0.01,0,0.02,0,0.03C727.67,5092.01,722.24,5096.76,715.76,5096.76z M717.05,5091.11c-0.9-0.65-1.98-1-3.09-1
				c-1.8,0-2.56,1-2.56,1.66c0,1.36,2.16,2.09,4.25,2.09c0.97,0.02,1.94-0.14,2.85-0.47
				C718.19,5092.53,717.7,5091.75,717.05,5091.11z"/>
			<path class="st8" d="M755.5,5087.98c-1.43-1.14-2.77-2.39-4-3.75v7.49c0,1.44,0.18,5.58,0.25,6.81H748
				c0.28-3.42,0.32-6.45,0.32-6.63v-7.05c-1.57,1.51-3.3,2.85-5.15,4l-2.16-2.85c6.73-3.63,9.47-7.92,10.44-10.22h-4
				c-1.58,0-3.13,0.11-4.71,0.21v-3.38c1.38,0.19,2.78,0.25,4.17,0.18h1.19v-0.72c0-1.83,0-2.84-0.11-6.05l3.92,0.36
				c0.36,0.03,0.64,0.3,0.69,0.65c0,0.51-0.72,0.79-1,0.87c0,0.86-0.11,2.55-0.11,4.17v0.72c1.28-0.02,2.56-0.15,3.82-0.39
				l1.29,1.36c-0.57,0.9-3.06,4.83-3.6,5.62c-0.43,0.61-0.72,1-1,1.37c1.82,1.81,3.81,3.45,5.94,4.89L755.5,5087.98z
				 M768.07,5096.72h-6.41c-2.14-0.03-4.28,0.05-6.41,0.26v-3.28c2.13,0.17,4.27,0.23,6.41,0.18h1.87v-14H762
				c-1.94-0.04-3.87,0.03-5.8,0.22v-3.24c2.34,0.28,5.58,0.28,5.8,0.28h1.58c0-5.54-0.07-6.15-0.14-11.26l3.74,0.36
				c0.25,0,0.9,0.07,0.9,0.54c0,0.47-0.25,0.5-0.83,0.79c0,4-0.07,4.32-0.11,9.57h0.69c0,0,3.27,0,5.79-0.28v3.24
				c-1.92-0.18-3.86-0.26-5.79-0.22h-0.69v14h1c1.73,0,4.53-0.07,6.73-0.29v3.39C772.39,5096.8,771.41,5096.72,768.07,5096.72
				L768.07,5096.72z"/>
			<path class="st8" d="M816.74,5081.07c-2.2-0.71-4.32-1.66-6.3-2.85v2.06c-1.91-0.18-3.84-0.26-5.76-0.22h-5.8
				c-1.92-0.04-3.85,0.04-5.76,0.22v-2.2c-1.75,1.25-3.66,2.26-5.68,3l-2.63-3c3.36-0.87,6.49-2.48,9.14-4.72
				c2.68-2.02,4.86-4.64,6.34-7.66l3.74,1.29c0.34,0.06,0.6,0.34,0.61,0.69c0,0.28-0.29,0.5-0.61,0.61c1,2.41,6.62,7.7,15,9.57
				L816.74,5081.07z M804.68,5086.61h-3c-0.94,2.48-2.22,4.82-3.81,6.95c2.77-0.22,6.59-0.69,10.33-1.19
				c-0.97-1.02-2.03-1.95-3.17-2.77l2.74-1.87c2.94,2.34,5.38,5.25,7.16,8.56l-2.73,2.27c-0.49-1.28-1.14-2.49-1.95-3.6
				c-12.06,1.76-13,1.91-18.36,2.38c-0.14,0.32-0.43,0.9-0.86,0.9c-0.11,0-0.4-0.08-0.47-0.54l-0.47-3.71
				c1.88,0,2.63-0.07,3.82-0.14c1.68-2.21,3.02-4.65,4-7.24h-1.33c-3.03-0.07-6.06,0.05-9.07,0.36v-3.48
				c3.45,0.19,4.71,0.22,9.32,0.22h7.85c4.24,0,6.76,0,11.91-0.43v3.45C814,5086.61,810.94,5086.61,804.68,5086.61z M801.4,5070.23
				c-1.93,2.68-4.3,5.01-7,6.91c0.36,0,2.7,0.18,4.46,0.18h5.8c1.4,0,3.35-0.1,4.07-0.14C805.86,5075.36,803.37,5073,801.4,5070.23
				L801.4,5070.23z"/>
			<path class="st8" d="M857.71,5081.64c-0.18,0-1-0.11-1.37-0.14c-1.91,0.47-2.09,0.54-6.63,2.37c0,1.05,0,5.8,0.08,6.74
				l-3.89,0.25c0.14-1.15,0.36-2.92,0.5-5.55c-1.76,0.76-3.36,1.82-4.75,3.14c-0.83,0.83-1.34,1.92-1.44,3.09c0,2.77,4,3.1,6.95,3.1
				c2.76-0.02,5.5-0.38,8.17-1.08l-1,3.71c-0.29,0-0.54,0-2.67,0.21c-0.83,0.07-1.83,0.14-3.38,0.14c-6.59,0-8.1-0.86-9.43-2
				c-1.22-1.03-1.91-2.55-1.91-4.14c0-4.68,5.83-8,9.14-9.58c-0.2-1.29-1.35-2.22-2.66-2.15c-2,0-4,1.54-5.15,2.66
				c-1.35,1.36-2.5,2.9-3.42,4.57l-3.13-1.73c3.13-3.06,5.7-6.64,7.6-10.58c-2.52,0.29-3.6,0.43-5.76,0.54l-0.58-3.42
				c1,0.07,1.94,0.18,3.38,0.18c1.43-0.01,2.87-0.09,4.29-0.25c0.71-1.73,1.29-3.51,1.72-5.33l4,0.58c0.33-0.01,0.6,0.24,0.61,0.57
				l0,0c0,0.4-0.07,0.43-1.33,1.23c-0.57,1.18-0.72,1.54-1.11,2.37c2.61-0.41,5.18-1.08,7.66-2l-0.36,3.42
				c-2,0.5-6.51,1.29-8.75,1.58c-0.6,1.24-1.27,2.44-2,3.6c1.23-0.5,2.53-0.8,3.85-0.9c1.76,0.06,3.33,1.11,4.07,2.7
				c0.14,0.32,0.25,0.66,0.33,1c2.22-0.84,4.39-1.8,6.51-2.88l2.34,3c0.12,0.14,0.18,0.32,0.18,0.51c0,0.28-0.23,0.5-0.5,0.5
				C857.81,5081.67,857.76,5081.66,857.71,5081.64z"/>
			<path class="st8" d="M891.51,5075.85c-1-0.51-1.22-0.61-3-1.59v2.38c-1.17-0.14-2.35-0.21-3.53-0.22h-3.48
				c-0.64,0-2.34,0.08-3.56,0.22v-1.69c-1.43,1.23-3,2.28-4.68,3.13l-2.26-2.59c4.64-1.77,8.36-5.34,10.33-9.9l3.6,1.19
				c0.18,0.07,0.69,0.25,0.69,0.54s-0.22,0.36-0.36,0.47c1.15,1.73,4.06,4,8.31,5.54L891.51,5075.85z M888.42,5098.49
				c0-0.25,0-0.72,0-0.94h-7.27c0,0.15,0,0.76,0,1.08h-3.53c0.07-0.61,0.25-2.52,0.25-3.45v-2.56c-0.01-0.48-0.06-0.96-0.14-1.44
				c-0.63,1.97-1.53,3.85-2.67,5.58l-3.17-1.15c2.59-2.91,4-6.68,3.93-10.58v-3.54c0-0.72-0.11-2.44-0.15-3.2
				c0.83,0,4.5,0.07,5.26,0.07h5.62c1.58-0.03,3.15-0.16,4.71-0.39c0,0.5-0.07,2.66-0.07,3.13v4.32c0.02,1.07,0.11,2.14,0.25,3.2
				c-0.43,0-3.17-0.07-4.93-0.07h-8.1c-0.06,0.49-0.15,0.97-0.29,1.44c1.59,0,1.77,0,2.74,0h7c0.9,0,3-0.14,3.67-0.21
				c0,0.65-0.07,1.91-0.07,2.55v2.92c0,0.61,0.1,1.69,0.28,3.24L888.42,5098.49z M888.42,5084.41h-9.57c0,0.58,0,1.37-0.08,1.91
				h9.65V5084.41z M888.42,5080.6h-9.54v1.89h9.54V5080.6z M882.76,5069.49c-1.01,1.52-2.17,2.94-3.45,4.25
				c1.19,0.07,1.62,0.11,2.19,0.11h3.5c0.94,0,2.56-0.11,2.59-0.11C885.83,5072.5,884.21,5071.08,882.76,5069.49z M888.49,5092.28
				H881v3.2h7.49V5092.28z M897.31,5071.47c0,0.61,0,4.46,0,5.29v6.88c-0.01,2.26,0.11,4.52,0.36,6.76h-3.78c0.07-1,0.25-4,0.25-6.4
				v-7.51c0-1.73-0.07-5.33-0.21-7l3.67,0.5c0.54,0.07,0.72,0.11,0.72,0.4s-0.73,0.85-1.01,1.03V5071.47z M903.39,5068.66
				c-0.07,3.17-0.07,6.3-0.07,9.43v9.54c0,1.15,0.07,6.3,0.07,7.35c0,2.77-1,3.6-6.44,3.41l-1.48-3.34
				c0.92,0.14,1.84,0.21,2.77,0.21c1.15,0,1.77-0.1,1.77-0.79v-16.77c0-3.06-0.22-7.92-0.29-10.95l3.74,0.4
				c0.4,0,0.83,0.07,0.83,0.54c0,0.47-0.54,0.71-0.9,0.92V5068.66z"/>
			<path class="st8" d="M931.76,5096.76c-3.1,0-7.49-1.4-7.49-4.86c0-2.95,3-4.79,5.69-4.79c2.06,0.06,4.02,0.85,5.54,2.24
				c0.75,0.68,1.38,1.48,1.87,2.37c1.72-1.09,2.77-2.97,2.81-5c0.01-1.59-0.55-3.14-1.58-4.35c-1.25-1.06-2.86-1.62-4.5-1.55
				c-2.55,0.07-5.02,0.91-7.09,2.41c-1.59,1.12-2.81,2.41-5.58,5.4l-3-2.38c5.32-4.42,10.17-9.38,14.47-14.79
				c-2.37,0.5-3.53,0.76-6,1.08l-4.29,0.43l-0.75-3.49c0.79,0.1,1.58,0.14,2.37,0.14c4.35-0.05,8.66-0.72,12.82-2l2.16,2.52
				c-1.5,0.91-2.85,2.05-4,3.38c-1.75,1.71-3.4,3.53-4.93,5.44c1.42-0.74,3.01-1.12,4.61-1.12c4.69-0.13,8.61,3.56,8.74,8.25
				c0,0.01,0,0.02,0,0.03C943.67,5092.01,938.24,5096.76,931.76,5096.76z M933.05,5091.11c-0.9-0.65-1.98-1-3.09-1
				c-1.8,0-2.56,1-2.56,1.66c0,1.36,2.16,2.09,4.25,2.09c0.97,0.02,1.94-0.14,2.85-0.47
				C934.19,5092.53,933.7,5091.75,933.05,5091.11z"/>
		</g>
		<g>
			<path class="st8" d="M520.34,5515.82c0.46,0.07,0.92,0.1,1.38,0.09h0.9c0.46,0.01,0.93-0.02,1.39-0.09
				c-0.07,0.63-0.1,1.27-0.09,1.91v3.56c0.27,0.74,0.84,1.33,1.57,1.62c1.32,0.47,2.72,0.65,4.12,0.53
				c2.42,0.05,4.84-0.06,7.25-0.33c-0.2,0.4-0.35,0.82-0.43,1.26c-2.1,0.09-3.89,0.13-5.89,0.13c-3.31,0-4.28-0.11-5.34-0.62
				c-0.78-0.38-1.44-0.97-1.89-1.71c-0.64,0.66-1.34,1.27-2.09,1.82c-0.24,0.18-0.47,0.39-0.69,0.6l-0.61-1.19
				c1.07-0.56,2.04-1.28,2.88-2.14v-4.34h-1.15c-0.44-0.01-0.88,0.02-1.31,0.09L520.34,5515.82z M521.52,5509.03
				c0.96,1,1.83,2.09,2.61,3.24l-0.9,0.83c-0.7-1.23-1.56-2.36-2.57-3.35L521.52,5509.03z M524.82,5510.4
				c0-0.38-0.02-0.75-0.07-1.12c0.55,0.06,1.1,0.09,1.65,0.08h8.16c0.56,0.01,1.12-0.02,1.67-0.08c-0.05,0.36-0.08,0.73-0.07,1.1
				v0.76c-0.01,0.38,0.02,0.77,0.07,1.15h-1.15v-2h-9.22v2h-1.11c0.05-0.37,0.07-0.75,0.07-1.12V5510.4z M527.14,5518.97
				c-0.46,0-0.92,0.02-1.38,0.07c0.05-0.39,0.08-0.78,0.07-1.17v-2.93c0.01-0.4-0.02-0.81-0.07-1.21c0.46,0.05,0.92,0.08,1.38,0.07
				h2.67v-1.19h-2.18c-0.47-0.01-0.93,0.02-1.39,0.09v-1.06c0.45,0.07,0.91,0.1,1.37,0.09h2.2c0-0.33-0.03-0.67-0.09-1h1.18
				c-0.06,0.33-0.09,0.66-0.09,1h2.6c0.44,0.01,0.89-0.01,1.33-0.07v1c-0.46-0.07-0.92-0.1-1.39-0.09h-2.54v1.19h3
				c0.47,0.01,0.94-0.02,1.4-0.07c-0.05,0.4-0.07,0.81-0.07,1.21v2.93c0,0.39,0.02,0.78,0.07,1.17c-0.46-0.05-0.93-0.07-1.4-0.07h-3
				v1.26h3.8c0.52,0,1.04-0.03,1.55-0.09v1.1c-0.51-0.07-1.03-0.1-1.55-0.09h-3.8v0.23c0,0.53,0.04,1.05,0.11,1.57h-1.24
				c0.08-0.52,0.13-1.04,0.13-1.57v-0.23h-3.46c-0.51-0.01-1.01,0.03-1.51,0.11v-1.12c0.5,0.06,1.01,0.09,1.51,0.09h3.46v-1.26
				L527.14,5518.97z M526.85,5514.63v1.33h3v-1.33H526.85z M526.85,5516.75v1.39h3v-1.39H526.85z M530.85,5515.96h3.28v-1.33h-3.28
				V5515.96z M530.85,5518.14h3.28v-1.39h-3.28V5518.14z"/>
			<path class="st8" d="M544.19,5511.05c-0.37-0.72-0.83-1.39-1.37-2l1.08-0.31c0.57,0.73,1.07,1.51,1.49,2.33h2.52
				c-0.3-0.82-0.71-1.6-1.2-2.33l1.11-0.25c0.49,0.83,0.92,1.69,1.28,2.58h1.9c0.62-0.78,1.14-1.64,1.55-2.56l1.15,0.41
				c-0.43,0.75-0.91,1.47-1.44,2.15h1.46c1,0,1.42,0,2-0.07c-0.06,0.5-0.08,1.01-0.07,1.51v1.47c-0.01,0.43,0.02,0.87,0.09,1.3
				h-1.24v-3.24h-12.56v3.24h-1.21c0.06-0.42,0.09-0.85,0.09-1.28v-1.51c0-0.5-0.02-1.01-0.07-1.51c0.59,0.05,1.08,0.07,2,0.07
				H544.19z M545.27,5517.67c-0.64-0.02-1.29,0.01-1.93,0.08c0.05-0.48,0.08-0.97,0.07-1.45v-1.56c0.01-0.45-0.01-0.9-0.07-1.35
				c0.54,0.05,1,0.07,1.75,0.07h6.24c0.58,0.01,1.15-0.02,1.73-0.07c-0.02,0.46-0.02,0.91,0,1.37v1.54
				c-0.01,0.48,0.01,0.97,0.07,1.45c-0.64-0.06-1.29-0.09-1.93-0.08h-2.7c-0.25,0.61-0.54,1.2-0.86,1.77h5.15
				c0.57,0.01,1.14-0.02,1.71-0.07c-0.07,0.56-0.1,1.12-0.09,1.69v2.07c-0.02,0.58,0.02,1.17,0.11,1.74h-1.23v-0.73h-10.13v0.72
				h-1.22c0.07-0.57,0.1-1.15,0.1-1.73v-2.07c0.02-0.56-0.01-1.13-0.09-1.69c0.57,0.05,1.15,0.08,1.73,0.07h2.74
				c0.34-0.56,0.63-1.16,0.86-1.77L545.27,5517.67z M543.16,5523.13h10.08v-2.7h-10.08L543.16,5523.13z M544.51,5516.74h7.4v-2.34
				h-7.4V5516.74z"/>
			<path class="st8" d="M568.63,5508.71c0.8,1.25,1.81,2.34,3,3.22c1.51,1.2,3.2,2.17,5,2.88c-0.3,0.34-0.54,0.73-0.71,1.15
				c-1.79-0.84-3.47-1.89-5-3.13c-1.1-0.88-2.07-1.92-2.88-3.08c-0.77,1.1-1.68,2.09-2.7,2.95c-1.46,1.29-3.09,2.36-4.86,3.17
				c-0.19-0.38-0.45-0.71-0.76-1c1.73-0.74,3.33-1.73,4.77-2.94c1.12-0.9,2.09-1.98,2.86-3.2L568.63,5508.71z M562.55,5518.71
				c-0.69-0.01-1.38,0.03-2.06,0.11v-1.29c0.68,0.08,1.37,0.11,2.06,0.1h11.09c0.68,0.01,1.37-0.02,2.05-0.1v1.29
				c-0.68-0.08-1.36-0.12-2.05-0.11h-6.47c-0.62,1.48-1.37,2.9-2.25,4.25c2.49-0.16,4.36-0.34,7-0.66c-1.08-1.17-1.41-1.5-2.2-2.24
				l0.94-0.57c1.58,1.46,3.03,3.05,4.35,4.75l-1,0.74c-0.7-1-0.93-1.3-1.31-1.77c-3.21,0.44-5.93,0.72-8.74,0.94
				c-1.01,0.04-2.01,0.15-3,0.33l-0.21-1.37c0.3,0,0.64,0.05,0.91,0.05s0.29,0,1.91-0.11c0.9-1.37,1.66-2.83,2.29-4.34H562.55z
				 M563.7,5514.23c0.47,0.06,0.95,0.08,1.42,0.07h5.82c0.5,0.01,1.01-0.01,1.51-0.07v1.26c-0.5-0.07-1.01-0.09-1.51-0.08h-5.84
				c-0.47-0.01-0.94,0.02-1.4,0.08L563.7,5514.23z"/>
			<path class="st8" d="M583.75,5523.2c-0.01,0.59,0.03,1.18,0.11,1.77h-1.33c0.07-0.59,0.11-1.19,0.1-1.79v-5.6
				c-0.76,0.79-1.59,1.5-2.48,2.13c-0.16-0.37-0.39-0.71-0.67-1c1.2-0.74,2.29-1.63,3.24-2.67c0.93-0.98,1.68-2.11,2.24-3.34h-3.37
				c-0.48-0.01-0.96,0.02-1.44,0.07v-1.19c0.47,0.05,0.93,0.07,1.4,0.07h1.07v-1.67c0-0.46-0.03-0.93-0.09-1.39h1.35
				c-0.08,0.46-0.12,0.94-0.11,1.41v1.65h1c0.35,0.02,0.7,0.02,1.05,0l0.56,0.63c-0.13,0.2-0.24,0.39-0.44,0.77
				c-0.54,1.1-1.21,2.12-2,3.06c0.82,0.98,1.8,1.81,2.9,2.45c-0.25,0.3-0.45,0.64-0.61,1c-0.95-0.63-1.81-1.39-2.54-2.27
				L583.75,5523.2z M590,5510.27c0-0.55-0.05-1.1-0.13-1.64h1.42c-0.09,0.54-0.13,1.09-0.12,1.64v3.89h2.36
				c0.59,0.01,1.18-0.02,1.76-0.11v1.26c-0.56,0-1.13-0.09-1.76-0.09h-2.36v7.69H594c0.67,0.02,1.34-0.02,2-0.11v1.36
				c-0.66-0.1-1.33-0.14-2-0.13h-6.48c-0.64-0.01-1.28,0.03-1.92,0.13v-1.36c0.64,0.09,1.29,0.13,1.94,0.11H590v-7.69h-1.78
				c-0.62,0-1.21,0-1.77,0.09v-1.26c0.59,0.09,1.18,0.12,1.77,0.11H590V5510.27z"/>
			<path class="st8" d="M614.59,5509.8l-6.49,16.48h-1.35l6.5-16.48H614.59z"/>
			<path class="st8" d="M630.5,5517.22c-1.17,1-1.71,1.8-1.71,2.65c0,0.85,0.52,1.42,1.53,1.76c1.07,0.28,2.18,0.4,3.29,0.36
				c1.82,0.06,3.65-0.17,5.4-0.68l0.17,1.48c-0.21,0.01-0.42,0.04-0.62,0.09c-1.61,0.27-3.23,0.41-4.86,0.41
				c-1.4,0.04-2.8-0.15-4.14-0.56c-1.19-0.38-2-1.47-2-2.72c0-1.17,0.68-2.3,2.07-3.47L630.5,5517.22z M628.61,5510.65
				c1.57,0.33,3.18,0.48,4.79,0.43c1.53,0.05,3.05-0.07,4.55-0.38l0.09,1.19c-1.6,0.77-3.12,1.68-4.54,2.74l-0.91-0.74
				c1.02-0.7,2.08-1.34,3.18-1.91c-0.9,0.17-1.81,0.25-2.72,0.24c-1.34,0-2.67-0.08-4-0.24l-0.59-0.05L628.61,5510.65z
				 M637.61,5513.77c0.72,0.85,1.34,1.79,1.84,2.79l-0.9,0.54c-0.49-1.03-1.11-1.99-1.84-2.87L637.61,5513.77z M639.61,5512.7
				c0.74,0.86,1.37,1.8,1.88,2.81l-0.9,0.51c-0.51-1.01-1.13-1.96-1.84-2.83L639.61,5512.7z"/>
			<path class="st8" d="M649.16,5511.14c-1.11,0.27-1.67,0.39-3,0.63c-0.12-0.36-0.3-0.7-0.53-1c1.95-0.22,3.87-0.68,5.71-1.37
				c0.42-0.11,0.81-0.29,1.17-0.52l0.81,1l-0.72,0.26c-0.83,0.3-1.46,0.52-2.36,0.77v2.81H652c0.52,0.01,1.04-0.02,1.56-0.09v1.19
				c-0.53-0.07-1.07-0.1-1.6-0.09h-1.69c0.2,0.57,0.49,1.1,0.86,1.58c0.64,0.9,1.39,1.7,2.24,2.4c-0.28,0.29-0.5,0.63-0.67,1
				c-1.07-1.02-1.94-2.23-2.56-3.57c0.06,1,0.09,2.24,0.09,3.05v3.74c-0.03,0.74,0.01,1.47,0.11,2.2H649
				c0.09-0.73,0.13-1.46,0.12-2.2v-3.51c0-1,0-1.51,0.09-3.06c-0.7,2.04-1.84,3.91-3.34,5.46c-0.19-0.37-0.44-0.71-0.74-1
				c0.96-0.87,1.79-1.88,2.45-3c0.55-0.96,1.01-1.96,1.38-3h-1.71c-0.57-0.01-1.13,0.03-1.69,0.11v-1.44
				c0.56,0.1,1.14,0.13,1.71,0.11h1.87L649.16,5511.14z M656.16,5509.93c-0.08,0.68-0.11,1.37-0.09,2.05v6.95
				c-0.02,0.7,0.01,1.4,0.09,2.09h-1.33c0.08-0.69,0.11-1.39,0.09-2.09v-6.95c0.02-0.68-0.02-1.37-0.11-2.05H656.16z
				 M660.63,5508.93c-0.1,0.75-0.14,1.51-0.13,2.27v11.83c0,1.28-0.43,1.59-2.14,1.59c-0.5,0-1.26,0-1.84-0.06
				c-0.07-0.41-0.2-0.81-0.37-1.19c0.77,0.1,1.54,0.16,2.32,0.17c0.72,0,0.86-0.09,0.86-0.55v-11.8c0.01-0.76-0.02-1.52-0.1-2.27
				L660.63,5508.93z"/>
			<path class="st8" d="M673.81,5522.36c-0.03,0.67,0,1.34,0.09,2h-1.3c0.08-0.66,0.11-1.33,0.09-2v-3.41h-4.93
				c-0.07,2.12-0.77,4.18-2,5.91c-0.29-0.31-0.63-0.57-1-0.78c0.71-0.87,1.21-1.9,1.46-3c0.48-2.88,0.67-5.81,0.55-8.73
				c0.03-0.98,0-1.96-0.07-2.94c0.66,0.07,1.33,0.09,2,0.08h9.69c0.64,0.01,1.28-0.01,1.91-0.08c-0.06,0.59-0.08,1.18-0.07,1.77
				v12.08c0,1.13-0.42,1.4-2.16,1.4c-0.58,0-1.48,0-2.24-0.09c-0.03-0.4-0.12-0.79-0.27-1.17c0.86,0.12,1.72,0.18,2.58,0.2
				c0.79,0,1-0.09,1-0.54v-4.07h-5.27L673.81,5522.36z M667.92,5514.7c0,0.51,0,0.94,0,1.19c0,1.12,0,1.19-0.07,2h4.86v-3.21
				L667.92,5514.7z M672.69,5510.53H668v3.15h4.75L672.69,5510.53z M679.08,5513.68v-3.19h-5.27v3.15L679.08,5513.68z
				 M673.81,5517.91h5.27v-3.21h-5.27V5517.91z"/>
			<path class="st8" d="M688.89,5517.19c0.71,1.46,1.7,2.76,2.93,3.83c-0.27,0.3-0.51,0.64-0.7,1c-1.03-0.99-1.86-2.15-2.47-3.44
				c-0.35,2.23-1.43,4.29-3.07,5.84c-0.23-0.34-0.54-0.62-0.9-0.81c1.1-0.86,1.93-2.03,2.39-3.35c0.39-0.98,0.63-2.01,0.72-3.06
				h-1.26c-0.51,0-1.02,0.03-1.53,0.1v-1.26c0.49,0.08,0.98,0.12,1.48,0.11h1.4c0-0.57,0.07-1.56,0.11-3h-1.23
				c-0.49,0-0.98,0.04-1.47,0.11v-1.24c0.49,0.08,0.98,0.11,1.47,0.11H688v-1.55c0.01-0.54-0.02-1.08-0.1-1.61h1.27
				c-0.08,0.66-0.11,1.33-0.09,2c0,0.47,0,0.56,0,1.19h1c0.47,0,0.95-0.03,1.42-0.09v1.2c-0.45-0.07-0.9-0.1-1.35-0.09h-1.13
				c0,1.12-0.06,1.75-0.15,3h1.23c0.47,0.01,0.95-0.02,1.42-0.09v1.23c-0.45-0.07-0.9-0.1-1.35-0.09L688.89,5517.19z
				 M693.57,5519.53c-0.52,0-1,0-1.35,0.05c0.03-0.58,0.03-1.15,0-1.73v-6.64c0.02-0.59-0.01-1.19-0.09-1.78
				c0.57,0.07,1.15,0.1,1.73,0.09H698c0.58,0.02,1.16-0.01,1.74-0.09c0,0.54-0.07,1-0.07,1.83v6.7c-0.01,0.55,0.01,1.1,0.07,1.64
				c-0.54-0.06-1.08-0.08-1.62-0.07h-0.61v3.71c0,0.36,0.13,0.41,1.08,0.41s1.15-0.09,1.3-0.36c0.25-0.66,0.38-1.36,0.38-2.07
				c0.29,0.24,0.63,0.42,1,0.52c-0.34,2.76-0.54,2.94-3,2.94c-1.49,0-1.85-0.24-1.85-1.21v-3.98H695c0.02,2.11-1.2,4.03-3.12,4.9
				c-0.44,0.22-0.89,0.42-1.35,0.59c-0.23-0.35-0.51-0.66-0.84-0.92c1.41-0.26,2.67-1.04,3.53-2.18c0.42-0.73,0.65-1.55,0.68-2.39
				L693.57,5519.53z M693.35,5512.53h5.26v-2h-5.26V5512.53z M693.35,5515.53h5.26v-2h-5.26V5515.53z M693.35,5518.61h5.26v-2.12
				h-5.26V5518.61z"/>
			<path class="st8" d="M704.6,5516.49c0.22,0.03,0.43,0.05,0.65,0.05h0.92c0.66-0.8,0.84-1,1.37-1.73
				c-0.81-1.01-1.73-1.94-2.74-2.76l0.67-0.84c0.39,0.38,0.48,0.45,0.77,0.73c0.75-1.02,1.35-2.14,1.78-3.33l1.12,0.51
				c-0.16,0.22-0.3,0.44-0.42,0.68c-0.53,0.98-1.13,1.93-1.78,2.83c0.54,0.54,0.83,0.86,1.21,1.31c0.81-1.05,1.51-2.19,2.07-3.4
				l1.06,0.63l-0.52,0.74c-1,1.59-2.11,3.12-3.33,4.55c1.35-0.09,1.67-0.1,2.91-0.27c-0.21-0.49-0.45-0.96-0.72-1.42l0.83-0.32
				c0.64,1.08,1.17,2.23,1.59,3.42l-0.92,0.41c-0.18-0.57-0.24-0.73-0.41-1.2h-0.46l-1.24,0.14v5.93c-0.01,0.62,0.03,1.23,0.11,1.84
				h-1.31c0.07-0.62,0.11-1.24,0.1-1.86v-5.8c-1.33,0.13-1.33,0.13-2,0.18c-0.37,0.02-0.74,0.06-1.1,0.13L704.6,5516.49z
				 M706.82,5518.72c-0.12,1.75-0.52,3.48-1.19,5.1l-1-0.47c0.69-1.52,1.1-3.16,1.19-4.83L706.82,5518.72z M710.9,5518.41
				c0.47,1.4,0.82,2.83,1.07,4.29l-1.05,0.34c-0.17-1.47-0.48-2.93-0.92-4.34L710.9,5518.41z M713.95,5512.73
				c-0.5,1-1.12,1.94-1.84,2.8c-0.27-0.29-0.59-0.52-0.94-0.7c0.83-0.91,1.5-1.95,2-3.08c0.47-0.95,0.81-1.96,1-3l1.22,0.31
				c-0.14,0.34-0.14,0.34-0.47,1.24c-0.14,0.4-0.28,0.76-0.52,1.33h4.5c0.49,0.02,0.98-0.01,1.46-0.07c0,0.52,0,0.52-0.09,2.77
				c-0.01,2.74-0.27,5.47-0.77,8.16c-0.42,1.73-0.87,2.11-2.6,2.11c-0.52,0-1.18,0-1.9-0.11c-0.04-0.43-0.15-0.84-0.31-1.24
				c0.79,0.14,1.59,0.22,2.4,0.23c0.84,0,1-0.22,1.29-1.37c0.55-3.11,0.81-6.26,0.78-9.41L713.95,5512.73z M715.85,5519.95
				c-0.59-1.6-1.42-3.11-2.46-4.47l0.93-0.54c1.02,1.36,1.88,2.83,2.56,4.39L715.85,5519.95z"/>
			<path class="st8" d="M739.5,5509.8l-6.5,16.48h-1.35l6.5-16.48H739.5z"/>
			<path class="st8" d="M759,5509.08c-0.1,0.79-0.14,1.58-0.1,2.38c0,0.4,0,0.6,0,1.87c1.78,0.04,3.56-0.19,5.28-0.68l0.16,1.33
				c-0.36,0.02-0.72,0.07-1.08,0.13c-1.44,0.23-2.89,0.36-4.34,0.39c0.05,1.75,0.14,3.5,0.23,4.65c1.74,0.56,3.37,1.43,4.81,2.56
				c0.27,0.2,0.54,0.38,0.83,0.55l-0.85,1.27c-0.54-0.62-1.17-1.15-1.87-1.57c-0.77-0.53-1.59-0.99-2.43-1.39
				c-0.15-0.06-0.29-0.12-0.43-0.2c0.04,0.26,0.06,0.52,0.07,0.78c0.03,0.64-0.12,1.27-0.45,1.82c-0.81,0.9-2,1.36-3.21,1.24
				c-2.32,0-3.74-1-3.74-2.67s1.67-2.84,4.23-2.84c0.53,0,1.05,0.05,1.57,0.16c0.09,0,0.09,0,0.16,0s0,0,0.09,0
				c0.01-0.05,0.01-0.11,0-0.16v-0.11c-0.14-2.07-0.27-5.54-0.29-8.12c0.01-0.49-0.02-0.98-0.09-1.46L759,5509.08z M756.12,5519.83
				c-1.83,0-3,0.65-3,1.7c0,0.28,0.1,0.55,0.27,0.77c0.59,0.52,1.37,0.78,2.16,0.72c0.71,0.04,1.42-0.17,2-0.59
				c0.34-0.36,0.5-0.86,0.43-1.35c0.02-0.33,0.02-0.67,0-1c-0.62-0.18-1.26-0.27-1.9-0.25H756.12z"/>
			<path class="st8" d="M781.66,5510.02c-0.2,0.16-0.34,0.29-2.21,2.09c-1.32,1.21-2.7,2.34-4.14,3.4c-0.67,0.51-0.8,0.65-0.8,0.9
				s0.15,0.45,1.61,1.59c2.03,1.5,3.96,3.14,5.76,4.91c0.15,0.16,0.32,0.31,0.5,0.45l-1.13,1.12c-0.69-0.9-1.47-1.72-2.32-2.47
				c-1.21-1.11-1.93-1.71-4.56-3.76c-1-0.79-1.3-1.19-1.3-1.8c0.01-0.46,0.2-0.89,0.53-1.21c0.48-0.44,0.99-0.85,1.53-1.22
				c1.96-1.42,3.73-3.08,5.27-4.94L781.66,5510.02z"/>
			<path class="st8" d="M791.56,5511.34c1.11,0.24,2.24,0.33,3.37,0.28h0.45c0-0.44,0-0.44,0.09-1.35c0-0.2,0-0.9,0-1
				c0.01-0.09,0.01-0.18,0-0.27l1.41,0.09c-0.21,0.82-0.34,1.67-0.38,2.52c2.32-0.04,4.63-0.38,6.86-1l0.07,1.26l-0.63,0.09
				c-2.11,0.38-4.23,0.62-6.37,0.72c-0.11,1.53-0.11,1.53-0.13,2.41c0.87-0.25,1.77-0.37,2.67-0.36c0.33,0,0.67,0.02,1,0.06
				c0.21-0.52,0.36-1.06,0.43-1.62l1.24,0.38c-0.05,0.1-0.25,0.59-0.55,1.44c2.48,0.57,3.87,2.1,3.87,4.21
				c-0.04,1.82-1.15,3.45-2.83,4.16c-1.15,0.57-2.39,0.91-3.67,1c-0.11-0.44-0.31-0.85-0.58-1.21c0.92-0.01,1.83-0.18,2.7-0.49
				c2-0.68,3.1-2,3.1-3.6c0-1.6-1-2.63-3-3.13c-0.77,2.01-1.94,3.84-3.42,5.4c-0.99,1.23-2.43,2.02-4,2.18
				c-1.36-0.07-2.4-1.22-2.33-2.58c0-0.05,0.01-0.11,0.01-0.16c0-2.21,1.57-4.23,4.18-5.36c0-1.32,0-1.41,0.1-2.72h-0.72l-2.43-0.09
				c-0.11-0.01-0.21-0.01-0.32,0c-0.1-0.01-0.19-0.01-0.29,0L791.56,5511.34z M793.29,5518c-0.67,0.74-1.06,1.69-1.1,2.68
				c0,1,0.52,1.64,1.3,1.64c0.78-0.05,1.51-0.38,2.07-0.92c-0.28-1.61-0.4-3.25-0.36-4.88
				C794.47,5516.89,793.83,5517.39,793.29,5518L793.29,5518z M796.58,5520.66c0.09-0.17,0.21-0.33,0.34-0.47
				c1.16-1.34,2.09-2.86,2.76-4.5h-0.86c-0.85,0-1.7,0.14-2.51,0.41c-0.03,1.38,0.04,2.75,0.2,4.12c0.01,0.09,0.01,0.17,0,0.26v0.19
				L796.58,5520.66z"/>
			<path class="st8" d="M813.12,5510.18c0.56,0.09,1.13,0.13,1.7,0.11c1.49,0,3.89-0.11,5.51-0.23c0.3,0,0.59-0.06,0.86-0.2l0.76,1
				c-0.35,0.19-0.66,0.45-0.92,0.76c-1.83,1.87-3.81,3.58-5.93,5.11v0.05c1.35-0.74,2.87-1.12,4.41-1.11c3,0,4.94,1.47,4.94,3.78
				c0,2.81-2.61,4.66-6.61,4.66c-2.54,0-4-0.94-4-2.59c0.12-1.29,1.26-2.24,2.54-2.12c0.02,0,0.04,0,0.07,0.01
				c1.18-0.03,2.3,0.53,3,1.48c0.39,0.52,0.67,1.1,0.83,1.73c1.89-0.53,2.88-1.62,2.88-3.15c0-1.73-1.44-2.76-3.87-2.76
				c-2.82,0.07-5.51,1.16-7.58,3.08l-0.81-1.15c0.89-0.55,1.73-1.16,2.52-1.84c1.93-1.53,4.77-4,6-5.26l0.26-0.25l0.07-0.07
				l0.07-0.07l0,0h-0.16c-0.57,0.11-2.73,0.23-5.47,0.32c-0.4,0-0.58,0-1,0.09L813.12,5510.18z M816.51,5520.43
				c-0.9,0-1.46,0.43-1.46,1.11c0,0.48,0.28,0.91,0.72,1.1c0.63,0.29,1.31,0.43,2,0.42c0.44,0,0.88-0.04,1.31-0.13
				C818.71,5521.29,817.81,5520.43,816.51,5520.43z"/>
			<path class="st8" d="M831.88,5512.24c-0.13,1.34-0.72,2.6-1.66,3.56c-0.26-0.31-0.56-0.6-0.88-0.85c1.15-1,1.6-2.21,1.6-4.26
				c0-0.44-0.03-0.88-0.1-1.32h0.39c1.01-0.03,2.01-0.13,3-0.29c0.78-0.1,1.54-0.33,2.24-0.68l0.81,0.9c-1.69,0.58-3.45,0.92-5.24,1
				c0,0.5,0,0.68,0,1h3.93c0.48,0.01,0.96-0.02,1.44-0.09v1.14c-0.47-0.08-0.95-0.11-1.43-0.09h-0.74v0.86
				c0,0.38,0.03,0.75,0.08,1.12H834c0.04-0.37,0.07-0.73,0.07-1.1v-0.88L831.88,5512.24z M835.73,5523.02
				c-1.66,1.04-3.53,1.72-5.47,2c-0.15-0.39-0.37-0.75-0.65-1.06c1.02-0.09,2.03-0.3,3-0.63c0.76-0.23,1.48-0.57,2.15-1
				L835.73,5523.02z M841.44,5514.59c0.67,0.01,1.33-0.01,2-0.07c-0.08,0.68-0.11,1.37-0.09,2.05v3.59c-0.03,0.67,0,1.34,0.09,2
				c-0.51-0.05-1.1-0.07-1.93-0.07h-7.74c-0.81,0-1.44,0-1.95,0.07c0.08-0.68,0.11-1.37,0.09-2.05v-3.56c0.01-0.67-0.02-1.34-0.09-2
				c0.66,0.06,1.33,0.08,2,0.07L841.44,5514.59z M833.07,5516.81h9.22v-1.32h-9.22V5516.81z M833.07,5518.97h9.22v-1.3h-9.22
				V5518.97z M833.07,5521.17h9.22v-1.34h-9.22V5521.17z M844.07,5511.28c0.49,0.01,0.98-0.02,1.46-0.09v1.14
				c-0.48-0.08-0.97-0.11-1.46-0.09h-1.38v0.9c0,0.36,0.02,0.72,0.07,1.08h-1.21c0.05-0.36,0.07-0.71,0.07-1.07v-0.91H839
				c-0.17,0.83-0.55,1.61-1.1,2.25c-0.25-0.29-0.55-0.54-0.88-0.74c0.41-0.38,0.71-0.86,0.86-1.39c0.19-0.71,0.28-1.45,0.27-2.18
				c0.02-0.28,0.02-0.56,0-0.84c0.17,0.01,0.33,0.01,0.5,0c0.87-0.03,1.75-0.11,2.61-0.24c0.92-0.1,1.81-0.34,2.65-0.72l0.83,0.9
				l-1.15,0.32c-1.41,0.38-2.87,0.58-4.33,0.62c0,0.48,0,0.64-0.07,1L844.07,5511.28z M840.36,5522.36c1.61,0.91,3.4,1.47,5.24,1.63
				c-0.26,0.33-0.46,0.69-0.61,1.08c-1.96-0.29-3.84-0.98-5.51-2.05L840.36,5522.36z"/>
			<path class="st8" d="M851.39,5522.82c-0.02,0.67,0.02,1.34,0.11,2h-1.33c0.08-0.66,0.12-1.33,0.11-2v-11.68
				c0.01-0.67-0.02-1.33-0.08-2c0.62,0.06,1.25,0.08,1.88,0.07h2.57c0.61,0.01,1.23-0.01,1.84-0.07c0,0.54-0.06,1-0.06,1.71v2.41
				c0,0.72,0,1.22,0.06,1.66c-0.4,0-1.08-0.06-1.82-0.06h-3.28L851.39,5522.82z M851.39,5511.59h4v-1.48h-4V5511.59z
				 M851.39,5513.98h4v-1.49h-4V5513.98z M860.65,5520.5c-0.01,0.36,0.01,0.72,0.05,1.08c-0.38-0.04-0.75-0.06-1.13-0.05h-4.32v1.42
				h-1.18c0.08-0.56,0.11-1.12,0.09-1.68v-3.6c0.02-0.38,0.02-0.75,0-1.13c0.36,0,0.76,0.05,1.24,0.05h4c0.52,0,1,0,1.31-0.05
				c-0.04,0.37-0.06,0.73-0.05,1.1L860.65,5520.5z M855.25,5520.57h4.33v-3h-4.33V5520.57z M864.72,5523.09
				c0,1.17-0.35,1.5-1.59,1.5c-0.7,0-1.35,0-2.14-0.07c-0.04-0.4-0.15-0.8-0.33-1.16c0.76,0.1,1.52,0.16,2.29,0.18
				c0.52,0,0.65-0.1,0.65-0.52v-8.14H860c-0.76,0-1.44,0-1.84,0.06c0-0.53,0.06-1,0.06-1.66v-2.41c0-0.63,0-1.17-0.06-1.71
				c0.61,0.06,1.23,0.08,1.84,0.07h2.92c0.63,0.01,1.26-0.01,1.89-0.07c-0.07,0.66-0.1,1.33-0.09,2V5523.09z M859.26,5511.59h4.34
				v-1.48h-4.34V5511.59z M859.26,5513.98h4.34v-1.49h-4.34V5513.98z"/>
		</g>
		<g>
			<path class="st8" d="M546.41,5556.88l-0.49,0.22c-0.18,0.09-0.37,0.16-0.57,0.21c-0.46,0.15-0.93,0.23-1.41,0.23
				c-0.49,0-0.97-0.07-1.44-0.22c-0.42-0.15-0.81-0.39-1.13-0.7c-0.33-0.34-0.57-0.74-0.73-1.18c-0.18-0.53-0.27-1.1-0.26-1.66
				c-0.01-0.55,0.07-1.09,0.25-1.61c0.16-0.44,0.41-0.85,0.73-1.19c0.32-0.32,0.7-0.57,1.13-0.73c0.47-0.17,0.96-0.25,1.45-0.24
				c0.39,0,0.79,0.04,1.17,0.14c0.45,0.12,0.89,0.28,1.3,0.49v1.15h-0.07c-0.36-0.31-0.76-0.55-1.2-0.73
				c-0.4-0.15-0.83-0.23-1.26-0.23c-0.34-0.01-0.68,0.05-1,0.18c-0.3,0.12-0.57,0.31-0.79,0.55c-0.24,0.27-0.42,0.59-0.53,0.93
				c-0.13,0.42-0.19,0.85-0.19,1.29c-0.01,0.45,0.06,0.9,0.21,1.32c0.12,0.33,0.3,0.64,0.54,0.9c0.22,0.24,0.49,0.42,0.79,0.53
				c0.32,0.12,0.66,0.18,1,0.17c0.91,0.01,1.78-0.33,2.45-0.95h0.07L546.41,5556.88z"/>
			<path class="st8" d="M554.35,5554.68c0.04,0.76-0.2,1.51-0.68,2.11c-0.99,1.01-2.62,1.03-3.63,0.04
				c-0.01-0.01-0.02-0.02-0.04-0.04c-0.48-0.59-0.72-1.35-0.68-2.11c-0.05-0.76,0.19-1.51,0.68-2.1c0.98-1.01,2.59-1.04,3.61-0.06
				c0.02,0.02,0.04,0.04,0.06,0.06C554.15,5553.17,554.39,5553.92,554.35,5554.68z M553.35,5554.68c0.04-0.55-0.1-1.11-0.41-1.57
				c-0.56-0.64-1.54-0.7-2.17-0.14c-0.05,0.04-0.09,0.09-0.14,0.14c-0.31,0.46-0.46,1.01-0.42,1.57c-0.04,0.55,0.11,1.1,0.42,1.56
				c0.55,0.64,1.51,0.71,2.14,0.17c0.06-0.05,0.12-0.11,0.17-0.17c0.32-0.46,0.48-1,0.46-1.56H553.35z"/>
			<path class="st8" d="M562.57,5554.61c0.01,0.41-0.06,0.83-0.19,1.22c-0.12,0.34-0.3,0.66-0.54,0.93
				c-0.21,0.24-0.47,0.43-0.76,0.56c-0.29,0.13-0.6,0.2-0.92,0.2c-0.26,0-0.52-0.03-0.77-0.1c-0.24-0.07-0.48-0.17-0.7-0.29v2.29
				h-0.92v-7.47h0.92v0.58c0.25-0.21,0.52-0.39,0.82-0.52c0.31-0.14,0.66-0.21,1-0.21c0.6-0.02,1.18,0.26,1.53,0.75
				C562.44,5553.16,562.62,5553.88,562.57,5554.61z M561.57,5554.61c0.03-0.51-0.08-1.03-0.33-1.48c-0.23-0.31-0.61-0.49-1-0.48
				c-0.27,0-0.54,0.06-0.79,0.17c-0.28,0.11-0.54,0.26-0.77,0.45v3.09c0.22,0.1,0.44,0.18,0.67,0.24c0.21,0.04,0.43,0.06,0.64,0.06
				c0.46,0.03,0.9-0.17,1.19-0.52c0.32-0.43,0.47-0.96,0.44-1.5L561.57,5554.61z"/>
			<path class="st8" d="M570.72,5551.95l-3.18,7.47h-1l1-2.28l-2.17-5.19h1l1.68,4.05l1.69-4.05H570.72z"/>
			<path class="st8" d="M577.32,5552.95h-0.05l-0.39-0.07h-0.46c-0.28,0-0.57,0.06-0.82,0.19c-0.27,0.13-0.52,0.29-0.76,0.48v3.88
				h-0.92v-5.46h0.92v0.81c0.3-0.25,0.64-0.46,1-0.62c0.27-0.12,0.56-0.19,0.85-0.19h0.35h0.32L577.32,5552.95z"/>
			<path class="st8" d="M581.17,5551.04h-1v-0.95h1V5551.04z M581.17,5557.41h-0.92v-5.46h0.92V5557.41z"/>
			<path class="st8" d="M589.36,5556.79c0.05,0.72-0.17,1.44-0.63,2c-0.53,0.48-1.23,0.71-1.94,0.65c-0.28,0-0.57-0.02-0.85-0.06
				c-0.27-0.04-0.54-0.1-0.81-0.17v-0.94l0,0c0.23,0.09,0.47,0.16,0.71,0.22c0.33,0.09,0.66,0.13,1,0.13
				c0.26,0.01,0.52-0.03,0.77-0.12c0.19-0.05,0.35-0.16,0.48-0.31c0.12-0.13,0.2-0.29,0.24-0.46c0.05-0.2,0.08-0.4,0.08-0.6v-0.49
				c-0.24,0.2-0.51,0.36-0.8,0.49c-0.32,0.12-0.66,0.18-1,0.16c-0.6,0.03-1.17-0.23-1.55-0.7c-0.42-0.58-0.62-1.29-0.57-2
				c-0.01-0.41,0.05-0.82,0.19-1.21c0.13-0.33,0.31-0.63,0.54-0.89c0.22-0.23,0.48-0.42,0.77-0.54c0.29-0.12,0.6-0.18,0.91-0.19
				c0.27-0.01,0.53,0.03,0.79,0.1c0.24,0.07,0.47,0.17,0.68,0.29l0.06-0.24h0.86L589.36,5556.79z M588.44,5555.91v-3
				c-0.22-0.11-0.45-0.19-0.68-0.24c-0.21-0.05-0.42-0.07-0.63-0.07c-0.45-0.02-0.89,0.16-1.19,0.5c-0.32,0.42-0.48,0.95-0.44,1.48
				c-0.03,0.49,0.08,0.97,0.33,1.39c0.25,0.33,0.66,0.51,1.07,0.47c0.27,0,0.54-0.05,0.8-0.15
				C587.96,5556.2,588.21,5556.07,588.44,5555.91z"/>
			<path class="st8" d="M597.72,5557.41h-0.91v-3.11c0.02-0.23,0.02-0.47,0-0.7c-0.02-0.18-0.07-0.36-0.16-0.52
				c-0.08-0.13-0.2-0.24-0.35-0.3c-0.19-0.08-0.4-0.11-0.6-0.1c-0.27,0-0.54,0.07-0.78,0.18c-0.28,0.13-0.55,0.29-0.79,0.48v4.07
				h-0.92v-7.6h0.92v2.75c0.27-0.23,0.57-0.41,0.89-0.56c0.3-0.13,0.62-0.2,0.94-0.2c0.51-0.03,1,0.16,1.35,0.53
				c0.34,0.44,0.5,0.99,0.46,1.54L597.72,5557.41z"/>
			<path class="st8" d="M604.32,5557.36l-0.56,0.11c-0.18,0.03-0.37,0.05-0.55,0.05c-0.47,0.03-0.93-0.13-1.27-0.45
				c-0.32-0.41-0.47-0.93-0.43-1.45v-2.9h-0.62v-0.77h0.62v-1.56h0.92v1.56h1.89v0.77h-1.89v2.49c-0.01,0.22-0.01,0.45,0,0.67
				c0.01,0.16,0.06,0.31,0.13,0.45c0.07,0.12,0.17,0.23,0.3,0.29c0.18,0.07,0.38,0.1,0.57,0.09c0.16,0,0.32-0.02,0.47-0.07
				c0.12-0.03,0.24-0.06,0.35-0.11h0.05L604.32,5557.36z"/>
			<path class="st8" d="M621.27,5554.21c0,2.33-1.89,4.22-4.22,4.22c0,0-0.01,0-0.01,0c-2.33-0.01-4.22-1.9-4.21-4.23
				c0.01-2.33,1.9-4.21,4.23-4.21C619.39,5550,621.27,5551.88,621.27,5554.21z M620.7,5554.21c0.01-0.98-0.37-1.92-1.07-2.6
				c-0.68-0.73-1.63-1.13-2.63-1.12c-0.97-0.02-1.91,0.38-2.58,1.08c-1.43,1.44-1.43,3.76,0,5.2c0.67,0.7,1.61,1.1,2.58,1.08
				c0.98,0.01,1.91-0.38,2.59-1.08C620.29,5556.1,620.69,5555.18,620.7,5554.21z M618.76,5556.15c-0.26,0.12-0.53,0.21-0.81,0.28
				c-0.25,0.07-0.51,0.1-0.77,0.1c-0.64,0.04-1.27-0.18-1.75-0.6c-0.87-0.99-0.87-2.48,0-3.47c0.47-0.43,1.1-0.66,1.74-0.63
				c0.29,0,0.57,0.04,0.85,0.11c0.25,0.07,0.49,0.16,0.73,0.26v0.88h-0.08c-0.21-0.15-0.44-0.27-0.68-0.37
				c-0.27-0.11-0.55-0.17-0.84-0.17c-0.41-0.02-0.8,0.13-1.09,0.42c-0.5,0.73-0.5,1.7,0,2.43c0.29,0.3,0.69,0.45,1.1,0.42
				c0.27,0,0.53-0.05,0.78-0.14c0.26-0.1,0.51-0.24,0.74-0.4h0.08L618.76,5556.15z"/>
			<path class="st8" d="M636.15,5556.88l-0.48,0.22c-0.18,0.08-0.38,0.15-0.57,0.21c-0.21,0.07-0.43,0.12-0.65,0.16
				c-0.25,0.05-0.51,0.07-0.77,0.07c-0.49,0-0.97-0.07-1.44-0.22c-0.42-0.14-0.81-0.38-1.12-0.7c-0.33-0.33-0.59-0.74-0.74-1.18
				c-0.18-0.53-0.27-1.1-0.26-1.66c-0.01-0.55,0.08-1.09,0.25-1.61c0.16-0.45,0.41-0.85,0.74-1.19c0.32-0.32,0.7-0.57,1.12-0.73
				c0.47-0.17,0.96-0.25,1.46-0.24c0.39,0,0.78,0.04,1.16,0.14c0.45,0.12,0.89,0.28,1.3,0.49v1.15h-0.07
				c-0.36-0.31-0.76-0.55-1.19-0.73c-0.41-0.15-0.84-0.23-1.27-0.23c-0.34-0.01-0.68,0.05-1,0.18c-0.3,0.12-0.57,0.31-0.79,0.55
				c-0.24,0.27-0.42,0.59-0.53,0.93c-0.13,0.42-0.19,0.85-0.18,1.29c-0.01,0.45,0.06,0.89,0.2,1.32c0.12,0.33,0.3,0.64,0.54,0.9
				c0.22,0.24,0.49,0.42,0.8,0.53c0.32,0.12,0.66,0.18,1,0.17c0.45,0,0.89-0.08,1.31-0.24c0.42-0.16,0.81-0.4,1.14-0.71h0.07
				L636.15,5556.88z"/>
			<path class="st8" d="M644.16,5551.95l-3.18,7.47h-1l1-2.28l-2.17-5.19h1l1.67,4.05l1.69-4.05H644.16z"/>
			<path class="st8" d="M652.16,5554.64c0.01,0.42-0.06,0.83-0.19,1.23c-0.11,0.34-0.29,0.65-0.52,0.92
				c-0.21,0.24-0.47,0.44-0.76,0.58c-0.29,0.13-0.6,0.19-0.92,0.19c-0.27,0-0.55-0.04-0.81-0.11c-0.24-0.08-0.47-0.17-0.68-0.3
				l-0.06,0.26h-0.86v-7.6h0.92v2.68c0.25-0.21,0.53-0.39,0.82-0.53c0.31-0.14,0.66-0.21,1-0.2c0.6-0.02,1.17,0.26,1.52,0.74
				C652.03,5553.13,652.22,5553.89,652.16,5554.64z M651.22,5554.64c0.03-0.51-0.08-1.03-0.33-1.48c-0.22-0.33-0.6-0.52-1-0.5
				c-0.28,0-0.55,0.06-0.81,0.17c-0.27,0.11-0.53,0.26-0.76,0.45v3.12c0.22,0.1,0.44,0.18,0.67,0.25c0.21,0.04,0.43,0.06,0.64,0.06
				c0.45,0.03,0.89-0.16,1.19-0.5c0.31-0.45,0.45-1,0.4-1.55V5554.64z"/>
			<path class="st8" d="M660.16,5554.78h-4c-0.01,0.3,0.05,0.59,0.15,0.87c0.09,0.24,0.23,0.45,0.42,0.62
				c0.18,0.15,0.38,0.27,0.6,0.35c0.25,0.08,0.51,0.12,0.77,0.11c0.38,0,0.76-0.08,1.12-0.22c0.29-0.1,0.56-0.25,0.8-0.44l0,0v1
				c-0.31,0.13-0.63,0.23-0.95,0.32c-0.33,0.09-0.66,0.13-1,0.13c-0.78,0.05-1.54-0.21-2.12-0.73c-0.53-0.56-0.81-1.32-0.76-2.09
				c-0.04-0.77,0.22-1.53,0.73-2.12c0.49-0.53,1.19-0.82,1.92-0.79c0.63-0.04,1.25,0.2,1.7,0.65c0.43,0.51,0.64,1.17,0.6,1.83
				L660.16,5554.78z M659.27,5554.07c0.02-0.41-0.11-0.8-0.37-1.12c-0.29-0.28-0.69-0.42-1.09-0.39c-0.43-0.02-0.86,0.13-1.17,0.43
				c-0.29,0.29-0.47,0.67-0.5,1.08H659.27z"/>
			<path class="st8" d="M667,5552.95h-0.05l-0.39-0.07h-0.46c-0.28,0-0.57,0.06-0.82,0.19c-0.27,0.13-0.52,0.29-0.76,0.48v3.88
				h-0.92v-5.46h0.92v0.81c0.3-0.25,0.64-0.46,1-0.62c0.27-0.12,0.56-0.19,0.85-0.19h0.35h0.32L667,5552.95z"/>
			<path class="st8" d="M673.71,5555.84c0.01,0.48-0.22,0.94-0.61,1.22c-0.49,0.34-1.09,0.51-1.69,0.48c-0.37,0-0.75-0.04-1.11-0.14
				c-0.29-0.08-0.58-0.19-0.85-0.32v-1l0,0c0.3,0.22,0.64,0.4,1,0.52c0.32,0.12,0.66,0.19,1,0.19c0.34,0.02,0.69-0.04,1-0.19
				c0.22-0.13,0.35-0.37,0.34-0.62c0.01-0.18-0.06-0.36-0.19-0.49c-0.21-0.15-0.46-0.24-0.71-0.28l-0.51-0.1l-0.58-0.13
				c-0.38-0.08-0.73-0.28-1-0.56c-0.2-0.25-0.31-0.57-0.3-0.9c-0.01-0.22,0.04-0.44,0.14-0.64c0.1-0.21,0.24-0.39,0.42-0.53
				c0.2-0.17,0.44-0.29,0.69-0.36c0.31-0.09,0.63-0.14,0.95-0.14c0.34,0,0.67,0.04,1,0.12c0.29,0.07,0.56,0.16,0.83,0.29v1l0,0
				c-0.26-0.19-0.55-0.33-0.85-0.43c-0.32-0.12-0.66-0.18-1-0.18c-0.29-0.01-0.59,0.05-0.85,0.19c-0.22,0.11-0.36,0.33-0.35,0.58
				c-0.01,0.19,0.06,0.38,0.21,0.5c0.2,0.14,0.43,0.24,0.67,0.28l0.57,0.12l0.52,0.1c0.38,0.07,0.72,0.25,1,0.51
				C673.65,5555.19,673.74,5555.51,673.71,5555.84z"/>
			<path class="st8" d="M685,5557.41h-0.92v-3.11c0-0.23,0-0.46,0-0.68c-0.01-0.18-0.06-0.36-0.14-0.52
				c-0.07-0.14-0.18-0.25-0.32-0.32c-0.19-0.08-0.4-0.11-0.6-0.1c-0.27,0-0.54,0.07-0.78,0.19c-0.27,0.14-0.53,0.3-0.77,0.49
				c0,0.07,0,0.16,0,0.26s0,0.2,0,0.3v3.49h-0.92v-3.11c0-0.24,0-0.47,0-0.68c-0.01-0.18-0.06-0.36-0.14-0.52
				c-0.07-0.14-0.18-0.25-0.32-0.32c-0.19-0.08-0.4-0.11-0.61-0.1c-0.26,0-0.52,0.06-0.75,0.18c-0.27,0.13-0.52,0.29-0.75,0.48v4.07
				H677v-5.46h1v0.61c0.26-0.22,0.54-0.41,0.85-0.56c0.29-0.13,0.6-0.2,0.91-0.2c0.33-0.01,0.66,0.07,0.95,0.24
				c0.26,0.15,0.46,0.38,0.58,0.65c0.3-0.27,0.64-0.5,1-0.68c0.31-0.14,0.66-0.21,1-0.21c0.51-0.04,1,0.16,1.33,0.55
				c0.31,0.44,0.46,0.98,0.43,1.52L685,5557.41z"/>
			<path class="st8" d="M689.74,5551.04h-1v-0.95h1V5551.04z M689.68,5557.41h-0.92v-5.46h0.92V5557.41z"/>
			<path class="st8" d="M696.33,5557.36l-0.56,0.11c-0.18,0.03-0.37,0.05-0.55,0.05c-0.47,0.03-0.93-0.13-1.27-0.45
				c-0.33-0.41-0.48-0.93-0.43-1.45v-2.9h-0.62v-0.77h0.62v-1.56h0.92v1.56h1.89v0.77h-1.89v2.49c-0.01,0.22-0.01,0.45,0,0.67
				c0.01,0.16,0.05,0.31,0.13,0.45c0.07,0.13,0.17,0.23,0.3,0.29c0.18,0.07,0.38,0.1,0.57,0.09c0.16,0,0.32-0.02,0.47-0.07
				c0.12-0.03,0.24-0.06,0.35-0.11h0.05L696.33,5557.36z"/>
			<path class="st8" d="M704,5557.41h-0.92v-3.11c0.02-0.23,0.02-0.47,0-0.7c-0.02-0.18-0.07-0.36-0.16-0.52
				c-0.09-0.14-0.21-0.24-0.36-0.3c-0.19-0.08-0.39-0.11-0.59-0.1c-0.27,0.01-0.54,0.07-0.79,0.18c-0.28,0.13-0.54,0.29-0.78,0.48
				v4.07h-0.92v-7.6h0.92v2.75c0.27-0.23,0.57-0.42,0.89-0.56c0.3-0.13,0.62-0.2,0.94-0.2c0.51-0.03,1,0.16,1.35,0.53
				c0.33,0.44,0.49,0.99,0.46,1.54L704,5557.41z"/>
			<path class="st8" d="M719.09,5557.41h-1l-0.72-2h-3.17l-0.71,2h-1l2.64-7.27h1.29L719.09,5557.41z M717.09,5554.55l-1.28-3.57
				l-1.28,3.57H717.09z"/>
			<path class="st8" d="M723.05,5557.41h-0.92v-7.6h0.92V5557.41z"/>
			<path class="st8" d="M727.79,5557.41h-0.92v-7.6h0.92V5557.41z"/>
			<path class="st8" d="M740.53,5552.95L740.53,5552.95l-0.4-0.07h-0.46c-0.28,0-0.56,0.07-0.82,0.19
				c-0.27,0.13-0.52,0.29-0.76,0.48v3.88h-0.92v-5.46H738v0.81c0.31-0.25,0.64-0.46,1-0.62c0.27-0.13,0.56-0.19,0.86-0.19h0.34h0.33
				V5552.95z"/>
			<path class="st8" d="M744.38,5551.04h-1v-0.95h1V5551.04z M744.32,5557.41h-0.92v-5.46h0.92V5557.41z"/>
			<path class="st8" d="M752.56,5556.79c0.05,0.72-0.17,1.44-0.63,2c-0.53,0.48-1.23,0.71-1.94,0.65c-0.28,0-0.57-0.02-0.85-0.06
				c-0.27-0.04-0.54-0.1-0.81-0.17v-0.94l0,0c0.15,0.06,0.39,0.13,0.71,0.22c0.33,0.09,0.66,0.13,1,0.13
				c0.26,0.01,0.52-0.03,0.77-0.12c0.19-0.05,0.35-0.16,0.48-0.31c0.12-0.13,0.21-0.29,0.25-0.46c0.05-0.2,0.07-0.4,0.07-0.6v-0.49
				c-0.24,0.2-0.51,0.36-0.79,0.49c-0.32,0.12-0.66,0.18-1,0.16c-0.6,0.03-1.17-0.23-1.55-0.7c-0.42-0.58-0.62-1.29-0.57-2
				c-0.01-0.41,0.05-0.82,0.2-1.21c0.12-0.33,0.31-0.63,0.54-0.89c0.21-0.23,0.48-0.42,0.77-0.54c0.29-0.12,0.59-0.18,0.9-0.19
				c0.27-0.01,0.53,0.03,0.79,0.1c0.24,0.07,0.47,0.17,0.68,0.29l0.06-0.24h0.86L752.56,5556.79z M751.64,5555.91v-3
				c-0.22-0.11-0.44-0.19-0.68-0.24c-0.21-0.05-0.42-0.07-0.63-0.07c-0.45-0.02-0.89,0.16-1.19,0.5c-0.32,0.43-0.47,0.95-0.43,1.48
				c-0.04,0.48,0.08,0.97,0.32,1.39c0.25,0.33,0.66,0.51,1.07,0.47c0.27,0,0.54-0.05,0.8-0.15
				C751.16,5556.2,751.41,5556.07,751.64,5555.91z"/>
			<path class="st8" d="M760.92,5557.41H760v-3.11c0.02-0.23,0.02-0.47,0-0.7c-0.02-0.18-0.07-0.36-0.16-0.52
				c-0.08-0.13-0.2-0.24-0.35-0.3c-0.19-0.08-0.4-0.11-0.6-0.1c-0.27,0-0.54,0.07-0.78,0.18c-0.28,0.13-0.55,0.29-0.79,0.48v4.07
				h-0.92v-7.6h0.92v2.75c0.27-0.22,0.57-0.41,0.89-0.56c0.3-0.13,0.62-0.2,0.94-0.2c0.51-0.03,1,0.16,1.35,0.53
				c0.34,0.44,0.5,0.99,0.46,1.54L760.92,5557.41z"/>
			<path class="st8" d="M767.52,5557.36l-0.56,0.11c-0.18,0.03-0.36,0.05-0.54,0.05c-0.47,0.03-0.93-0.13-1.27-0.45
				c-0.33-0.41-0.49-0.93-0.44-1.45v-2.9h-0.62v-0.77h0.62v-1.56h0.92v1.56h1.89v0.77h-1.89v2.49c0,0.29,0,0.51,0,0.67
				c0.01,0.16,0.06,0.31,0.14,0.45c0.06,0.12,0.17,0.23,0.29,0.29c0.19,0.07,0.38,0.1,0.58,0.09c0.16,0,0.31-0.02,0.46-0.07
				c0.12-0.03,0.24-0.06,0.36-0.11l0,0L767.52,5557.36z"/>
			<path class="st8" d="M774.53,5555.84c0,0.48-0.23,0.94-0.62,1.22c-0.49,0.35-1.09,0.51-1.69,0.48c-0.37,0-0.75-0.04-1.11-0.14
				c-0.29-0.09-0.57-0.19-0.84-0.32v-1h0.05c0.3,0.22,0.64,0.4,1,0.52c0.32,0.12,0.66,0.18,1,0.19c0.34,0.03,0.69-0.04,1-0.19
				c0.22-0.12,0.36-0.37,0.34-0.62c0.01-0.18-0.05-0.36-0.18-0.49c-0.22-0.14-0.46-0.24-0.72-0.28l-0.51-0.1
				c-0.21,0-0.4-0.08-0.57-0.13c-0.38-0.08-0.73-0.28-1-0.56c-0.2-0.25-0.31-0.57-0.3-0.9c0-0.22,0.05-0.44,0.14-0.64
				c0.1-0.21,0.24-0.39,0.42-0.53c0.21-0.17,0.45-0.29,0.7-0.36c0.3-0.09,0.62-0.14,0.94-0.14c0.34,0,0.67,0.04,1,0.12
				c0.29,0.06,0.57,0.16,0.83,0.29v1l0,0c-0.26-0.19-0.55-0.33-0.86-0.43c-0.32-0.12-0.66-0.18-1-0.18
				c-0.29-0.01-0.58,0.05-0.84,0.19c-0.22,0.11-0.36,0.33-0.35,0.58c-0.01,0.19,0.06,0.38,0.21,0.5c0.2,0.14,0.42,0.24,0.66,0.28
				l0.57,0.12l0.53,0.1c0.38,0.07,0.72,0.25,1,0.51C774.5,5555.2,774.58,5555.52,774.53,5555.84z"/>
			<path class="st8" d="M786.76,5552.95L786.76,5552.95l-0.39-0.07h-0.46c-0.28,0-0.57,0.06-0.82,0.19
				c-0.27,0.13-0.53,0.29-0.76,0.48v3.88h-0.92v-5.46h0.92v0.81c0.3-0.25,0.64-0.46,1-0.62c0.27-0.12,0.56-0.19,0.85-0.19h0.35h0.32
				L786.76,5552.95z"/>
			<path class="st8" d="M794.19,5554.78h-4c-0.01,0.3,0.05,0.59,0.15,0.87c0.09,0.23,0.24,0.45,0.42,0.62
				c0.18,0.15,0.38,0.27,0.6,0.35c0.25,0.08,0.51,0.12,0.77,0.11c0.38,0,0.76-0.08,1.12-0.22c0.29-0.1,0.57-0.25,0.81-0.44l0,0v1
				c-0.31,0.13-0.62,0.23-0.94,0.32c-0.33,0.09-0.66,0.13-1,0.13c-0.78,0.05-1.54-0.22-2.12-0.73c-0.53-0.56-0.81-1.32-0.76-2.09
				c-0.04-0.77,0.22-1.53,0.73-2.12c0.49-0.53,1.2-0.82,1.92-0.79c0.63-0.04,1.25,0.2,1.7,0.65c0.43,0.51,0.64,1.17,0.6,1.83
				L794.19,5554.78z M793.3,5554.07c0.02-0.41-0.11-0.8-0.37-1.12c-0.29-0.28-0.69-0.42-1.09-0.39c-0.43-0.02-0.86,0.13-1.17,0.43
				c-0.29,0.29-0.47,0.67-0.5,1.08H793.3z"/>
			<path class="st8" d="M801.48,5555.84c0,0.48-0.23,0.94-0.62,1.22c-0.49,0.35-1.09,0.51-1.69,0.48c-0.37,0-0.75-0.04-1.11-0.14
				c-0.29-0.09-0.57-0.19-0.84-0.32v-1l0,0c0.3,0.22,0.64,0.4,1,0.52c0.32,0.12,0.66,0.18,1,0.19c0.34,0.03,0.69-0.04,1-0.19
				c0.22-0.12,0.36-0.37,0.34-0.62c0.01-0.18-0.05-0.36-0.18-0.49c-0.22-0.15-0.46-0.24-0.72-0.28l-0.51-0.1
				c-0.21,0-0.4-0.08-0.57-0.13c-0.38-0.08-0.73-0.28-1-0.56c-0.2-0.25-0.31-0.57-0.3-0.9c0-0.22,0.05-0.44,0.14-0.64
				c0.1-0.21,0.24-0.39,0.42-0.53c0.21-0.17,0.45-0.29,0.7-0.36c0.3-0.09,0.62-0.14,0.94-0.14c0.34,0,0.67,0.04,1,0.12
				c0.29,0.06,0.57,0.16,0.83,0.29v1l0,0c-0.26-0.19-0.55-0.33-0.86-0.43c-0.32-0.12-0.66-0.18-1-0.18
				c-0.29-0.01-0.59,0.05-0.85,0.19c-0.22,0.11-0.36,0.33-0.35,0.58c-0.01,0.19,0.06,0.38,0.21,0.5c0.2,0.14,0.42,0.24,0.66,0.28
				l0.57,0.12l0.53,0.1c0.38,0.07,0.72,0.25,1,0.51C801.42,5555.19,801.51,5555.51,801.48,5555.84z"/>
			<path class="st8" d="M809.36,5554.78h-4c-0.01,0.3,0.05,0.59,0.15,0.87c0.09,0.24,0.23,0.45,0.42,0.62
				c0.18,0.15,0.38,0.27,0.6,0.35c0.25,0.08,0.51,0.12,0.77,0.11c0.38,0,0.76-0.08,1.12-0.22c0.29-0.1,0.56-0.25,0.8-0.44l0,0v1
				c-0.33,0.13-0.66,0.24-1,0.32c-0.33,0.09-0.66,0.13-1,0.13c-0.78,0.05-1.54-0.21-2.12-0.73c-0.53-0.56-0.81-1.32-0.76-2.09
				c-0.04-0.77,0.22-1.53,0.73-2.12c0.49-0.53,1.19-0.82,1.92-0.79c0.63-0.04,1.25,0.2,1.7,0.65c0.43,0.51,0.64,1.17,0.6,1.83
				L809.36,5554.78z M808.46,5554.07c0.02-0.41-0.1-0.81-0.36-1.12c-0.29-0.28-0.69-0.42-1.09-0.39c-0.43-0.02-0.86,0.13-1.17,0.43
				c-0.29,0.29-0.47,0.67-0.5,1.08H808.46z"/>
			<path class="st8" d="M816.15,5552.95L816.15,5552.95l-0.39-0.07h-0.46c-0.28,0-0.57,0.06-0.82,0.19
				c-0.27,0.13-0.52,0.29-0.76,0.48v3.88h-0.92v-5.46h0.92v0.81c0.3-0.25,0.64-0.46,1-0.62c0.27-0.12,0.56-0.19,0.85-0.19h0.35h0.32
				L816.15,5552.95z"/>
			<path class="st8" d="M823.73,5551.95l-2.2,5.46h-0.93l-2.19-5.46h1l1.69,4.34l1.67-4.34H823.73z"/>
			<path class="st8" d="M831.5,5554.78h-4c-0.01,0.3,0.05,0.59,0.15,0.87c0.09,0.23,0.24,0.45,0.42,0.62
				c0.18,0.15,0.38,0.27,0.6,0.35c0.25,0.08,0.51,0.12,0.77,0.11c0.38,0,0.76-0.08,1.12-0.22c0.29-0.09,0.56-0.24,0.8-0.44l0,0v1
				c-0.31,0.13-0.62,0.23-0.94,0.32c-0.33,0.09-0.66,0.13-1,0.13c-0.78,0.05-1.54-0.22-2.12-0.73c-0.53-0.56-0.81-1.32-0.76-2.09
				c-0.04-0.77,0.22-1.53,0.73-2.12c0.49-0.53,1.2-0.82,1.92-0.79c0.63-0.04,1.25,0.2,1.7,0.65c0.43,0.51,0.64,1.17,0.6,1.83
				L831.5,5554.78z M830.61,5554.07c0.02-0.41-0.11-0.8-0.37-1.12c-0.29-0.28-0.69-0.42-1.09-0.39c-0.43-0.02-0.86,0.13-1.17,0.43
				c-0.29,0.29-0.47,0.67-0.5,1.08H830.61z"/>
			<path class="st8" d="M839.32,5557.41h-0.92v-0.57c-0.25,0.21-0.53,0.39-0.83,0.53c-0.29,0.13-0.61,0.2-0.93,0.19
				c-0.61,0.02-1.19-0.26-1.55-0.75c-0.41-0.62-0.61-1.35-0.57-2.09c-0.01-0.42,0.06-0.83,0.19-1.23c0.12-0.34,0.3-0.66,0.54-0.93
				c0.22-0.24,0.48-0.43,0.77-0.56c0.29-0.13,0.6-0.2,0.92-0.2c0.26,0,0.51,0.03,0.76,0.09c0.24,0.07,0.48,0.17,0.7,0.28v-2.36h0.92
				V5557.41z M838.4,5556.06v-3.12c-0.21-0.1-0.44-0.18-0.67-0.24c-0.21-0.04-0.43-0.06-0.64-0.06c-0.46-0.02-0.91,0.18-1.2,0.54
				c-0.31,0.44-0.46,0.98-0.43,1.52c-0.03,0.52,0.09,1.03,0.34,1.48c0.24,0.35,0.64,0.54,1.06,0.51c0.27,0,0.54-0.07,0.79-0.18
				C837.92,5556.4,838.17,5556.25,838.4,5556.06z"/>
			<path class="st8" d="M844.62,5557.41h-1.16v-1.39h1.16V5557.41z"/>
		</g>
		<g>
			<path class="st8" d="M624.9,5000.95h-4.81v1.15c0,5.43-1.82,10.16-8.17,13.18c-0.72-0.83-1.52-1.58-2.39-2.26
				c6-2.68,7.25-6.64,7.25-10.9v-1.17h-6.7v5.88h-3.28v-5.88h-4.5v-3.12h4.5v-5.2l4.06,0.26c-0.09,0.36-0.41,0.63-0.78,0.65v4.29
				h6.7v-5.54l4.09,0.24c0,0.28-0.29,0.52-0.78,0.59v4.71h4.81L624.9,5000.95z"/>
			<path class="st8" d="M650.06,4994.71c-0.21,0.24-0.52,0.35-0.83,0.29c-2.2,2.12-4.54,4.09-7,5.9c0.29,0.08,0.57,0.21,0.83,0.29
				c-0.13,0.3-0.42,0.5-0.75,0.49v13.57h-3.46v-12.22c-2.77,1.81-5.65,3.43-8.63,4.86c-0.55-0.92-1.23-1.77-2-2.52
				c6.79-3,14.59-8.42,18.57-13.05L650.06,4994.71z"/>
			<path class="st8" d="M663.38,4996.79c-0.13,0.3-0.43,0.49-0.76,0.49c-1,6.11-3,12.59-6,16.54c-1.01-0.67-2.08-1.23-3.2-1.69
				c2.91-3.67,4.91-9.7,5.64-16.2L663.38,4996.79z M674.17,5013.67c-1.68-5.65-3.82-11.16-6.4-16.46l3.12-1.46
				c2.74,5.25,5.01,10.75,6.76,16.41L674.17,5013.67z M672,4991.9c1.08,1.1,2.02,2.32,2.8,3.64l-1.53,1.12
				c-0.81-1.33-1.76-2.56-2.83-3.69L672,4991.9z M675.61,4990.99c1.06,1.11,2.02,2.31,2.86,3.59l-1.59,1.14
				c-0.81-1.31-1.75-2.54-2.8-3.66L675.61,4990.99z"/>
			<path class="st8" d="M680.56,5001.73h21.71v3.28h-20.62c-0.21,0.28-0.53,0.46-0.88,0.49L680.56,5001.73z"/>
			<path class="st8" d="M725.41,4995.23c-0.08,0.21-0.26,0.37-0.47,0.44c-1.27,3.05-2.9,5.95-4.86,8.61c3.04,2.5,5.95,5.17,8.69,8
				l-2.89,2.55c-2.46-2.84-5.11-5.52-7.93-8c-2.67,3.09-5.77,5.78-9.2,8c-0.72-0.91-1.53-1.75-2.42-2.5
				c6.17-3.46,11.1-8.77,14.09-15.18h-11.73v-3.12h13.6l0.55-0.18L725.41,4995.23z"/>
			<path class="st8" d="M735.68,5008.08c5.5,0.64,10.91,1.86,16.15,3.63l-1.46,3.33c-5.17-1.89-10.54-3.22-16-3.95L735.68,5008.08z
				 M737.58,4992.73c4.69,0.47,9.32,1.44,13.81,2.89l-1.38,3.3c-4.39-1.56-8.95-2.6-13.58-3.09L737.58,4992.73z M737.58,5000.46
				c4.23,0.45,8.39,1.35,12.43,2.67l-1.09,3.28c-4.02-1.44-8.19-2.41-12.43-2.88L737.58,5000.46z"/>
			<path class="st8" d="M777.41,4995.23c-0.08,0.21-0.26,0.37-0.47,0.44c-1.27,3.05-2.9,5.95-4.86,8.61c3.04,2.5,5.95,5.17,8.69,8
				l-2.89,2.55c-2.46-2.84-5.11-5.52-7.93-8c-2.67,3.09-5.77,5.78-9.2,8c-0.72-0.91-1.53-1.75-2.42-2.5
				c6.17-3.46,11.1-8.77,14.09-15.18h-11.73v-3.12h13.6l0.55-0.18L777.41,4995.23z"/>
		</g>
		<g>
			<defs>
				<rect id="SVGID_00000049920086908530765630000017964722005793261959_" x="266" y="5169.49" width="400" height="200"/>
			</defs>
			<clipPath id="SVGID_00000143595301818511537140000018300328440727696568_">
				<use xlink:href="#SVGID_00000049920086908530765630000017964722005793261959_"  style="overflow:visible;"/>
			</clipPath>
			<g style="clip-path:url(#SVGID_00000143595301818511537140000018300328440727696568_);">
				
					<image style="overflow:visible;enable-background:new    ;" width="6000" height="4000" xlink:href="<?php bloginfo('template_directory'); ?>/images/pixta_66330729_XL.jpg"  transform="matrix(0.09 0 0 0.09 180.5 5092.4902)">
				</image>
			</g>
		</g>
		<rect x="266" y="5169.49" class="st70" width="400" height="200"/>
		<g>
			<path class="st71" d="M315.58,5253.08c-1.76-0.01-3.19,1.42-3.2,3.18s1.42,3.19,3.18,3.2c1.76,0,3.19-1.42,3.2-3.18
				c0-0.01,0-0.01,0-0.02C318.76,5254.5,317.34,5253.08,315.58,5253.08C315.58,5253.08,315.58,5253.08,315.58,5253.08z"/>
			<circle class="st71" cx="324.59" cy="5265.28" r="3.18"/>
			<path class="st71" d="M315.58,5289.14c-1.76,0-3.18,1.42-3.18,3.18c0,1.76,1.42,3.18,3.18,3.18c1.76,0,3.18-1.42,3.18-3.18
				C318.76,5290.56,317.34,5289.14,315.58,5289.14C315.58,5289.14,315.58,5289.14,315.58,5289.14z"/>
			<circle class="st71" cx="324.59" cy="5283.31" r="3.18"/>
			<path class="st71" d="M333.61,5271.11c-1.76-0.01-3.19,1.42-3.2,3.18s1.42,3.19,3.18,3.2c1.76,0,3.19-1.42,3.2-3.18
				c0-0.01,0-0.01,0-0.02C336.78,5272.54,335.36,5271.12,333.61,5271.11z"/>
		</g>
		<g>
			<path class="st71" d="M397.29,5261.91c0.96,1.45,2.18,2.72,3.59,3.74c1.61,1.24,3.39,2.25,5.29,3c-0.49,0.71-0.88,1.49-1.16,2.31
				c-1.85-0.84-3.59-1.9-5.18-3.17c-1.4-1.07-2.64-2.34-3.68-3.76c-0.98,1.38-2.15,2.62-3.46,3.68c-1.6,1.35-3.36,2.51-5.23,3.44
				c-0.27-0.81-0.67-1.56-1.18-2.24c1.86-0.82,3.6-1.88,5.17-3.17c1.35-1.07,2.5-2.37,3.42-3.83H397.29z M397.77,5278.19H403
				c0.88,0.02,1.76-0.03,2.64-0.15v2.52c-0.87-0.12-1.76-0.17-2.64-0.15h-13.67c-0.9-0.02-1.8,0.03-2.69,0.15v-2.52
				c0.83,0.12,1.66,0.17,2.5,0.15h0.92v-5c0.01-0.8-0.03-1.6-0.12-2.4h2.58c-0.11,0.79-0.16,1.58-0.15,2.38v5.06h3.07v-8.57
				c0.01-0.78-0.03-1.56-0.13-2.33h2.59c-0.1,0.75-0.14,1.51-0.13,2.27v2.08h3.46c0.77,0,1.54-0.03,2.31-0.11v2.44
				c-0.76-0.08-1.53-0.12-2.29-0.11h-3.48L397.77,5278.19z"/>
			<path class="st71" d="M410.58,5270.12c-0.72-0.02-1.44,0.02-2.16,0.11v-2c0.72,0.08,1.44,0.11,2.16,0.09h2.54
				c-0.23-0.53-0.49-1.05-0.78-1.56h-2.26c-1,0-1.83,0-2.5,0.11v-2.1c0.79,0.09,1.59,0.14,2.39,0.13h0.67
				c-0.38-0.73-0.85-1.4-1.42-2l2.1-0.79c0.63,0.86,1.17,1.78,1.61,2.75h1.2v-1.49c0.01-0.55-0.03-1.1-0.11-1.64h2.29
				c-0.05,0.52-0.07,1.03-0.06,1.55v1.58h1.49v-1.58c0-0.67,0-1.15-0.06-1.55H420c-0.08,0.54-0.12,1.09-0.11,1.64v1.49h1.32
				c0.64-0.86,1.15-1.81,1.52-2.82l2.16,0.8c-0.51,0.84-0.84,1.36-1.3,2h0.58c0.8,0.01,1.59-0.03,2.38-0.13v2.1
				c-0.65-0.06-1.47-0.11-2.5-0.11h-2.1c-0.4,0.84-0.48,1-0.78,1.56h2.44c0.72,0.01,1.44-0.02,2.16-0.09v2
				c-0.72-0.09-1.44-0.13-2.16-0.11h-5.51v1h4.39c0.72,0.02,1.44-0.02,2.16-0.1v1.89c-0.72-0.09-1.44-0.13-2.16-0.11h-4.39v1.05h5.9
				c0.85,0.01,1.7-0.03,2.54-0.12v2.09c-0.84-0.08-1.68-0.12-2.52-0.12h-4.22c0.86,0.7,1.82,1.27,2.85,1.68
				c1.4,0.58,2.87,0.98,4.37,1.2c-0.5,0.65-0.91,1.37-1.2,2.14c-2.93-0.65-5.62-2.09-7.79-4.16c0.05,0.5,0.08,0.99,0.07,1.49v1
				c-0.01,0.71,0.03,1.42,0.14,2.12h-2.47c0.09-0.71,0.13-1.42,0.12-2.14v-1c0-0.48,0-0.57,0.06-1.43c-0.86,0.93-1.88,1.71-3,2.31
				c-1.35,0.75-2.79,1.35-4.28,1.77c-0.33-0.72-0.77-1.39-1.28-2c2.5-0.41,4.86-1.44,6.86-3h-3.9c-0.85,0-1.7,0.04-2.54,0.12v-2.09
				c0.84,0.09,1.68,0.13,2.52,0.12h5.56v-1.05h-4.16c-0.72-0.02-1.43,0.02-2.14,0.11v-1.89c0.71,0.08,1.43,0.12,2.14,0.1h4.16v-1
				L410.58,5270.12z M418.81,5268.32c0.27-0.5,0.5-1.02,0.69-1.56h-4.78c0.24,0.51,0.45,1.03,0.63,1.56H418.81z"/>
			<path class="st71" d="M437,5272.18c-0.65-0.01-1.29,0.02-1.93,0.11v-1.45c-0.35,0.58-0.62,1.2-0.82,1.85
				c-0.45-0.73-0.81-1.51-1.07-2.33c0,1.28,0.06,2.3,0.06,2.91v5.34c-0.01,0.86,0.03,1.71,0.13,2.56H431
				c0.09-0.85,0.13-1.71,0.12-2.56v-4.35c0-1.57,0.09-2.56,0.13-2.92c-0.43,1.77-1.16,3.46-2.14,5c-0.24-0.9-0.61-1.77-1.08-2.58
				c0.85-1.08,1.53-2.28,2-3.57c0.35-0.84,0.61-1.72,0.8-2.61H430c-0.47-0.01-0.94,0.02-1.41,0.09v-2.18
				c0.47,0.08,0.94,0.11,1.41,0.09h1.13v-1.68c0.02-0.73-0.02-1.46-0.12-2.19h2.37c-0.11,0.72-0.16,1.46-0.13,2.19v1.68h0.57
				c0.4,0.01,0.8-0.02,1.2-0.09v2.16c-0.41-0.04-0.81-0.06-1.22-0.06h-0.46c0.38,1.06,0.97,2.02,1.74,2.84v-0.19
				c0.71,0.08,1.43,0.12,2.14,0.1h2.54v-1.15h-1.93c-0.67-0.02-1.34,0.01-2,0.08v-2c0.64,0.07,1.29,0.09,1.93,0.08h2v-1.09h-2.26
				c-0.67-0.02-1.34,0.02-2,0.11v-2.08c0.66,0.08,1.33,0.11,2,0.1h0.3c-0.32-0.71-0.72-1.39-1.2-2l2-0.68
				c0.56,0.85,1.02,1.76,1.39,2.71h1.87c0.54-0.84,0.97-1.75,1.26-2.71l2.24,0.61c-0.36,0.72-0.77,1.42-1.21,2.1h1
				c0.7,0.01,1.4-0.03,2.1-0.12v2.1c-0.69-0.09-1.38-0.13-2.07-0.11H442v1.09h2.59c0.7,0.02,1.4-0.01,2.1-0.1v2
				c-0.7-0.09-1.4-0.12-2.1-0.1H442v1.15h3.4c0.73,0.01,1.46-0.03,2.19-0.12v2.12c-0.73-0.09-1.46-0.13-2.19-0.13h-3.3
				c0.3,0.89,0.75,1.72,1.32,2.46c0.75-0.67,1.4-1.45,1.93-2.31l1.73,1.22c-0.71,0.93-1.52,1.79-2.4,2.56
				c0.96,0.95,2.1,1.71,3.34,2.24c-0.55,0.63-1.01,1.33-1.38,2.08c-0.93-0.55-1.77-1.22-2.52-2c-0.96-0.99-1.72-2.15-2.25-3.42
				c0.06,0.94,0.06,1.11,0.06,1.51v2.95c0,1.19-0.67,1.61-2.62,1.61c-0.32,0-0.91,0-1.51-0.06c-0.05-0.74-0.25-1.46-0.57-2.12
				c0.66,0.14,1.33,0.2,2,0.19c0.44,0,0.57-0.11,0.57-0.48v-2c-1.26,1-2.6,1.89-4,2.67c-0.17,0.1-0.59,0.4-0.9,0.61l-0.86-2.25
				c0.59-0.18,1.17-0.41,1.72-0.69c1.43-0.7,2.79-1.52,4.07-2.46v-2.31L437,5272.18z M436.52,5272.35c0.79,0.7,1.5,1.5,2.1,2.37
				l-1.56,1.18c-0.57-0.88-1.24-1.68-2-2.4L436.52,5272.35z"/>
			<path class="st71" d="M449.45,5272.31c0.91-0.63,1.81-1.66,4.58-5.15c0.37-0.5,0.81-0.95,1.3-1.32c0.48-0.38,1.07-0.6,1.68-0.63
				c0.7,0.04,1.37,0.32,1.89,0.8c0.51,0.47,0.98,0.97,1.41,1.51c1.94,2.29,4.04,4.43,6.28,6.43c0.7,0.66,1.46,1.25,2.28,1.76
				l-1.28,3c-0.18-0.23-0.38-0.43-0.61-0.61c-1.09-1-2.75-2.54-4.28-4.07c-1.53-1.53-1.64-1.7-3.88-4.26
				c-1.3-1.49-1.43-1.6-1.83-1.6s-0.55,0.19-1.26,1.13c-1.29,1.77-2.67,3.47-4.14,5.09c-0.16,0.17-0.31,0.36-0.44,0.56
				L449.45,5272.31z"/>
		</g>
		<g class="st68">
			<path d="M1120,5169.49v200H720v-200H1120 M1130,5159.49H710v220h420V5159.49z"/>
		</g>
		<g>
			<defs>
				<rect id="SVGID_00000105415170080936906710000014253770525431458459_" x="720" y="5169.49" width="400" height="200"/>
			</defs>
			<clipPath id="SVGID_00000106837749580253281820000015071030139727395492_">
				<use xlink:href="#SVGID_00000105415170080936906710000014253770525431458459_"  style="overflow:visible;"/>
			</clipPath>
			<g style="clip-path:url(#SVGID_00000106837749580253281820000015071030139727395492_);">
				
					<image style="overflow:visible;enable-background:new    ;" width="6000" height="4000" xlink:href="<?php bloginfo('template_directory'); ?>/images/pixta_63366991_XL.jpg"  transform="matrix(0.07 0 0 0.07 708 5139.8301)">
				</image>
			</g>
		</g>
		<rect x="720" y="5169.49" class="st70" width="400" height="200"/>
		<g>
			<path class="st71" d="M769.58,5253.08c-1.76-0.01-3.19,1.42-3.2,3.18c-0.01,1.76,1.42,3.19,3.18,3.2c1.76,0,3.19-1.42,3.2-3.18
				c0-0.01,0-0.01,0-0.02C772.76,5254.5,771.34,5253.08,769.58,5253.08C769.58,5253.08,769.58,5253.08,769.58,5253.08z"/>
			<circle class="st71" cx="778.59" cy="5265.28" r="3.18"/>
			<path class="st71" d="M769.58,5289.14c-1.76,0-3.18,1.42-3.18,3.18c0,1.76,1.42,3.18,3.18,3.18c1.76,0,3.18-1.42,3.18-3.18
				C772.76,5290.56,771.34,5289.14,769.58,5289.14C769.58,5289.14,769.58,5289.14,769.58,5289.14z"/>
			<circle class="st71" cx="778.59" cy="5283.31" r="3.18"/>
			<path class="st71" d="M787.61,5271.11c-1.76-0.01-3.19,1.42-3.2,3.18c-0.01,1.76,1.42,3.19,3.18,3.2c1.76,0,3.19-1.42,3.2-3.18
				c0-0.01,0-0.01,0-0.02C790.78,5272.54,789.36,5271.12,787.61,5271.11z"/>
		</g>
		<g>
			<path class="st71" d="M834.28,5280.07c0.03,0.6-0.03,1.2-0.16,1.79c-0.29,0.8-1.09,1.31-1.94,1.22c-1.46-0.04-2.87-0.56-4-1.49
				c-0.72-0.58-1.15-1.45-1.16-2.38c0.14-1.24,0.8-2.37,1.81-3.1c0.92-0.76,1.95-1.36,3.06-1.79v-3.23h-0.86c-0.31,0-0.61,0-1.13,0
				h-1.16h-0.52c-0.15-0.01-0.29-0.01-0.44,0v-2.35c0.84,0.14,1.69,0.21,2.54,0.19c0.21,0,0.44,0,0.73,0c0.5,0,0.61,0,0.84,0v-1.38
				c0.03-0.81-0.02-1.62-0.13-2.42h2.63c-0.11,0.76-0.16,1.52-0.13,2.29v1.35c1.37-0.15,2.73-0.42,4.06-0.8l0.08,2.35l-2.23,0.38
				c-0.69,0.12-1.11,0.19-1.91,0.27v2.73c1.39-0.41,2.84-0.61,4.29-0.59c3.5,0,6,2.14,6,5.13c0.07,2.57-1.96,4.71-4.54,4.78
				c-0.07,0-0.15,0-0.22,0c-1.55,0.1-2.97-0.86-3.45-2.33c-0.29-0.87-0.42-1.78-0.36-2.69c0.82-0.19,1.61-0.5,2.34-0.92
				c-0.04,0.31-0.06,0.61-0.05,0.92c-0.05,0.63,0.05,1.27,0.3,1.85c0.27,0.47,0.78,0.75,1.32,0.72c1.19-0.02,2.14-1,2.13-2.19
				c0-0.05,0-0.09-0.01-0.14c0-1.81-1.47-3-3.72-3c-1.36,0.03-2.71,0.27-4,0.7L834.28,5280.07z M831.91,5276.69
				c-1.57,0.84-2.5,1.77-2.5,2.52c0,0.36,0.21,0.67,0.7,1c0.39,0.28,0.86,0.44,1.34,0.46c0.36,0,0.46-0.19,0.46-0.88L831.91,5276.69
				z M843.54,5272.45c-1.12-1.74-2.55-3.28-4.2-4.53l2-1.33c1.62,1.19,3.02,2.65,4.15,4.31L843.54,5272.45z"/>
			<path class="st71" d="M849.89,5275.73c0-1.05,0-1.26,0-2.35c-0.53,0.89-1.16,1.72-1.87,2.47c-0.25-0.88-0.59-1.73-1-2.54
				c1.36-1.41,2.47-3.03,3.29-4.81c0.66-1.26,1.12-2.6,1.37-4l2.39,0.69c-0.17,0.44-0.17,0.44-0.65,1.76
				c-0.36,1.03-0.79,2.03-1.28,3v11.66c-0.01,0.81,0.03,1.62,0.1,2.43h-2.56c0.09-0.81,0.14-1.63,0.13-2.45L849.89,5275.73z
				 M858.39,5267.2c0.01-0.75-0.03-1.5-0.12-2.24h2.62c-0.11,0.75-0.15,1.5-0.13,2.26v3.74h3.62c0.8,0.01,1.6-0.04,2.39-0.15v2.55
				c-0.79-0.1-1.58-0.15-2.37-0.15h-3.64v7.85h3.09c0.79,0.01,1.59-0.04,2.37-0.15v2.44c-0.79-0.11-1.59-0.16-2.39-0.15h-8
				c-0.79-0.01-1.59,0.04-2.37,0.15v-2.44c0.78,0.11,1.56,0.16,2.35,0.15h2.56v-7.85h-2.94c-0.8,0-1.6,0.05-2.39,0.15v-2.55
				c0.81,0.11,1.63,0.17,2.45,0.15h2.88L858.39,5267.2z"/>
			<path class="st71" d="M876.79,5275.27h-5c-0.64-0.01-1.29,0.02-1.93,0.08v-1.86c0.66,0.08,1.33,0.11,2,0.09h4.94v-0.8h-4.45
				c-0.76,0-1.28,0-1.77,0.06c0.05-0.47,0.07-0.94,0.07-1.41v-1.38c0-0.49-0.02-0.98-0.07-1.47c0.55,0,1,0.06,1.79,0.06h4.43v-0.8
				H871c-0.82,0-1.64,0.04-2.46,0.13v-2.08c0.86,0.1,1.72,0.15,2.58,0.13h5.63c0.01-0.48-0.04-0.96-0.13-1.43h2.54
				c-0.1,0.47-0.15,0.95-0.14,1.43H885c0.86,0.02,1.72-0.03,2.58-0.13v2.08c-0.82-0.09-1.64-0.13-2.46-0.13h-6v0.8h4.74
				c0.8,0,1.26,0,1.76-0.06c0,0.46-0.06,0.82-0.06,1.47v1.44c0,0.47,0.02,0.94,0.06,1.41c-0.46,0-1-0.06-1.68-0.06h-4.82v0.8h4.7
				c1.24,0,1.66,0,2.24-0.07c-0.06,0.63-0.08,1.27-0.06,1.91v0.74c0.61,0.01,1.22-0.02,1.83-0.11v2c-0.61-0.08-1.22-0.12-1.83-0.11
				v1.22c-0.02,0.76,0.02,1.52,0.11,2.27h-2.41v-0.82h-4.64v1.18c0,1.89-0.53,2.29-3.09,2.29c-0.51,0-1.35-0.05-2-0.09
				c-0.08-0.73-0.3-1.43-0.65-2.08c0.89,0.12,1.78,0.18,2.67,0.19c0.65,0,0.82-0.1,0.82-0.48v-1h-4.94
				c-0.69-0.02-1.38,0.02-2.07,0.11v-2c0.66,0.08,1.33,0.11,2,0.09h5v-0.91h-6c-0.77-0.03-1.54,0.01-2.31,0.11v-2
				c0.75,0.1,1.51,0.14,2.27,0.11h6.07L876.79,5275.27z M872.86,5270.27v0.86h3.93v-0.86H872.86z M879.06,5271.13h4.22v-0.86h-4.22
				V5271.13z M883.7,5276.13v-0.92h-4.64v0.92H883.7z M879.06,5278.82h4.64v-0.91h-4.64V5278.82z"/>
			<path class="st71" d="M890.94,5267.27c1.61,0.24,3.24,0.33,4.87,0.27c0.42-0.81,0.71-1.69,0.84-2.6l2.75,0.29
				c-0.31,0.62-0.59,1.25-0.84,1.89c-0.1,0.23-0.14,0.29-0.18,0.38l1.32-0.09c1.85-0.06,3.69-0.29,5.5-0.71l0.15,2.39
				c-0.59,0-0.59,0-1.66,0.17c-1.53,0.19-4.2,0.36-6.32,0.42c-0.49,1.03-1.14,1.97-1.93,2.79v0.05l0.42-0.32
				c0.87-0.63,1.92-0.96,3-0.94c1.42-0.15,2.73,0.81,3,2.22c1.62-0.59,2.69-1,3.21-1.13c0.54-0.14,1.07-0.36,1.56-0.63l1,2.41
				c-0.79,0.14-1.57,0.33-2.33,0.57c-0.29,0.08-1.34,0.44-3.15,1.07v0.23c0,0.55,0,0.55,0,0.84v0.84c0,0.36,0,0.55,0,0.69
				c0,0.37,0.02,0.75,0.07,1.12l-2.44,0.06c0.1-0.81,0.14-1.62,0.13-2.44v-0.5c-0.7,0.3-1.37,0.67-2,1.09
				c-0.62,0.36-1.03,1-1.09,1.72c0,1.09,1,1.53,3.55,1.53c2.09,0.06,4.18-0.23,6.17-0.88l0.21,2.71c-0.34,0-0.67,0.03-1,0.09
				c-1.78,0.25-3.57,0.37-5.37,0.37c-1.61,0.13-3.23-0.17-4.68-0.88c-0.98-0.54-1.57-1.59-1.54-2.71c0-0.87,0.33-1.7,0.93-2.33
				c1.21-1.38,2.77-2.42,4.51-3c-0.01-0.64-0.53-1.14-1.16-1.14c-0.04,0-0.08,0-0.12,0.01c-1.22,0-2.69,0.73-4.3,2.16
				c-0.69,0.55-1.31,1.19-1.83,1.91l-1.91-1.89c0.69-0.55,1.33-1.18,1.89-1.87c0.94-1.13,1.78-2.33,2.52-3.59
				c0.04-0.1,0.09-0.19,0.17-0.27h-0.36h-2.64h-0.59c-0.11-0.01-0.23-0.01-0.34,0L890.94,5267.27z"/>
			<path class="st71" d="M916.48,5275.31l-1.49,0.59v6.08c0,1.07-0.28,1.56-1,1.81c-0.61,0.17-1.25,0.26-1.89,0.25
				c-0.29,0-0.52,0-1.07,0c-0.07-0.75-0.23-1.5-0.48-2.21c0.51,0.08,1.03,0.12,1.55,0.13c0.55,0,0.67-0.13,0.67-0.63v-4.6l-1.17,0.4
				c-0.32,0.11-0.57,0.21-0.89,0.34l-0.46-2.33c0.86-0.12,1.7-0.33,2.52-0.61v-3.78h-0.82c-0.5,0-1.01,0.02-1.51,0.08v-2.24
				c0.52,0.08,1.04,0.12,1.56,0.12h0.77v-1.72c0.02-0.71-0.02-1.43-0.12-2.14h2.47c-0.1,0.7-0.14,1.41-0.12,2.12v1.74h0.67
				c0.4,0,0.65,0,0.92,0v-1.72c0-0.59,0-1-0.06-1.45c0.66,0.07,1.33,0.09,2,0.08h8.73c0.69,0.01,1.38-0.01,2.06-0.08
				c-0.05,0.47-0.07,0.94-0.07,1.41v1.09c-0.01,0.48,0.02,0.96,0.09,1.43h-2.23v-1.83h-1.78v3.17c0,0.38,0.15,0.44,1.09,0.44
				c1.39,0,1.43,0,1.49-1.45c0.56,0.24,1.15,0.4,1.76,0.46c-0.21,2.59-0.6,2.9-3.56,2.9c-0.78,0.07-1.56-0.03-2.29-0.31
				c-0.07,0.39-0.1,0.78-0.09,1.17v0.88h3.66c0.72,0.01,1.43-0.03,2.14-0.12v2.29c-0.7-0.08-1.4-0.12-2.1-0.11h-2.53
				c0.67,0.87,1.46,1.64,2.33,2.31c0.88,0.68,1.84,1.23,2.87,1.64c-0.45,0.68-0.83,1.41-1.11,2.18c-2.13-1.09-3.95-2.71-5.29-4.7
				c0,0.29,0,0.52,0,0.67c0,0.51,0,0.61,0,1.16v2.24c0,0.59,0.04,1.17,0.13,1.75h-2.44c0.09-0.59,0.13-1.19,0.13-1.79v-2.37
				c0-0.46,0-1.28,0-1.64c-1.25,1.95-2.97,3.56-5,4.68c-0.34-0.71-0.8-1.35-1.36-1.91c2.07-0.91,3.86-2.37,5.16-4.22h-1.72
				c-0.71-0.02-1.42,0.02-2.12,0.11V5275.31z M916.86,5274.76c0.52,0,1,0.06,1.84,0.06h2.86v-0.54c0.01-0.56-0.03-1.11-0.13-1.66
				h2.21c-0.24-0.27-0.35-0.64-0.3-1v-4.07h-1.15c0,0.71-0.09,1.42-0.25,2.12c-0.51,1.83-1.79,3.17-4.06,4.18
				c-0.35-0.63-0.81-1.21-1.34-1.7c1.15-0.27,2.17-0.92,2.92-1.83c0.55-0.82,0.83-1.79,0.78-2.77h-1.62v2.08h-1.79v1.13
				c-0.38-0.04-0.77-0.06-1.15-0.06H915v3.09c0.69-0.26,0.92-0.34,1.8-0.7L916.86,5274.76z"/>
			<path class="st71" d="M937.81,5265.63c-0.15,0.94-0.23,1.88-0.25,2.83c-0.08,2-0.21,6.22-0.21,7.71c0,2,0.13,2.75,0.55,3.38
				c0.71,0.79,1.75,1.2,2.81,1.09c2.28,0,4.32-1.44,5.08-3.59c0.49-1.13,0.82-2.31,1-3.53c0.75,0.68,1.61,1.23,2.54,1.62
				c-0.84,2.83-1.47,4.2-2.5,5.35c-1.59,1.8-3.9,2.78-6.3,2.67c-1.29,0.04-2.56-0.28-3.67-0.92c-1.45-1-2.06-2.59-2.06-5.4
				c0-1.09,0-3.19,0.17-8.46c0-0.63,0-1.07,0-1.37c0-0.47-0.02-0.95-0.08-1.42L937.81,5265.63z"/>
			<path class="st71" d="M953.25,5267.77h0.8c0.38,0,0.38,0,3.46-0.21c1.18-0.06,4.66-0.25,10.48-0.52
				c0.81,0.01,1.62-0.06,2.41-0.21l0.15,2.68h-0.44c-1.46,0.05-2.88,0.44-4.16,1.14c-2.66,1.38-4.24,3.48-4.24,5.6
				c0.01,1.65,1.17,3.08,2.79,3.42c1.02,0.31,2.07,0.5,3.13,0.55c0,0,0.21,0,0.42,0l-0.38,2.85c-0.23-0.06-0.47-0.1-0.71-0.12
				c-1.71-0.12-3.39-0.6-4.91-1.39c-1.87-0.99-3.03-2.94-3-5.06c0.03-1.84,0.74-3.61,2-4.95c0.83-0.89,1.82-1.6,2.92-2.1
				c-1.7,0.25-2.52,0.31-7.08,0.65c-1.17,0.07-2.33,0.21-3.48,0.42L953.25,5267.77z"/>
			<path class="st71" d="M977.71,5266.93c-0.12,1.06-0.17,2.12-0.16,3.19c-0.01,1.88,0.13,3.77,0.4,5.63c0.35,2.18,1,3.53,1.7,3.53
				c0.31,0,0.6-0.32,0.86-0.91c0.53-1.21,0.9-2.49,1.11-3.8c0.61,0.73,1.31,1.38,2.1,1.91c-1.09,4.1-2.31,5.8-4.1,5.8
				c-1.4,0-2.54-1-3.37-3.05s-1.24-5.14-1.33-11c0-0.45-0.02-0.9-0.08-1.34L977.71,5266.93z M987.65,5267.87
				c2.66,3.21,4.3,7.15,4.72,11.3l-2.6,1c-0.15-2.08-0.6-4.12-1.35-6.07c-0.71-1.88-1.72-3.62-3-5.17L987.65,5267.87z"/>
			<path class="st71" d="M1001.91,5273.69c1.38-0.66,2.88-1,4.41-1c3.59,0,5.89,1.85,5.89,4.73c0.02,1.96-1.09,3.77-2.85,4.64
				c-1.56,0.83-3.31,1.24-5.08,1.2c-1.43,0.09-2.85-0.26-4.07-1c-0.78-0.56-1.25-1.45-1.26-2.41c0-1.75,1.51-3,3.61-3
				c1.41-0.03,2.76,0.61,3.63,1.72c0.45,0.56,0.79,1.2,1,1.89c1.74-0.65,2.49-1.55,2.49-3s-1.61-2.71-4.15-2.71
				c-3.22,0.06-6.31,1.32-8.65,3.53l-1.43-2.27c1.06-0.57,2.06-1.24,3-2c2.2-1.7,4.29-3.52,6.28-5.46l0.37-0.38l0,0
				c-0.79,0.1-2.14,0.19-5.94,0.36c-0.34,0.01-0.67,0.04-1,0.1l-0.1-2.52c0.82,0.1,1.65,0.14,2.48,0.13c1.78,0,4.34-0.11,6.38-0.25
				c0.45,0,0.89-0.09,1.3-0.28l1.3,1.85c-0.4,0.23-0.77,0.52-1.09,0.86c-1.05,1-2.58,2.33-3.3,2.94c-0.37,0.32-1.89,1.45-2.31,1.72
				c-0.27,0.2-0.56,0.39-0.86,0.55L1001.91,5273.69z M1002.54,5278.92c-0.76,0-1.24,0.38-1.24,1c0,0.84,0.94,1.33,2.5,1.33
				c0.37,0.01,0.73-0.02,1.09-0.09C1004.51,5279.67,1003.71,5278.92,1002.54,5278.92z"/>
			<path class="st71" d="M1023.72,5266.49c0.01-0.58-0.04-1.17-0.14-1.74h2.71c-0.1,0.57-0.14,1.16-0.13,1.74v1.28h5.77
				c0.89,0.02,1.77-0.03,2.65-0.15v2.54c-0.85-0.1-1.7-0.14-2.56-0.12h-7.69c-0.1,1.57-0.1,1.64-0.16,2.27h5.83
				c0.72,0.02,1.44-0.01,2.16-0.11c0.01,0.07,0.01,0.14,0,0.21c0,0.32,0,0.57-0.08,1.47c-0.02,2.47-0.26,4.94-0.71,7.37
				c-0.49,2-1.18,2.52-3.28,2.52c-0.73,0-1.22,0-2.83-0.15c-0.06-0.84-0.26-1.66-0.61-2.43c1.04,0.17,2.09,0.26,3.15,0.27
				c0.92,0,1.13-0.23,1.4-1.68c0.31-1.74,0.46-3.5,0.46-5.27h-5.79c-0.88,4.22-2.77,6.91-6.74,9.51c-0.41-0.79-0.99-1.47-1.7-2
				c1.43-0.8,2.7-1.86,3.76-3.11c1.8-2.16,2.52-4.6,2.62-8.88h-3.44c-0.88-0.01-1.76,0.03-2.63,0.12v-2.54
				c0.87,0.11,1.75,0.16,2.63,0.15h5.39L1023.72,5266.49z"/>
			<path class="st71" d="M1036.45,5275.31c0.91-0.63,1.81-1.66,4.58-5.15c0.37-0.5,0.81-0.95,1.3-1.32c0.48-0.38,1.07-0.6,1.68-0.63
				c0.7,0.04,1.37,0.32,1.89,0.8c0.51,0.47,0.98,0.97,1.41,1.51c1.94,2.28,4.04,4.43,6.27,6.43c0.7,0.66,1.47,1.25,2.29,1.76
				l-1.28,3c-0.18-0.23-0.38-0.43-0.61-0.61c-1.09-1-2.75-2.54-4.28-4.07c-1.53-1.53-1.64-1.7-3.88-4.26
				c-1.31-1.49-1.43-1.6-1.83-1.6s-0.55,0.19-1.26,1.13c-1.29,1.77-2.67,3.47-4.14,5.09c-0.16,0.17-0.31,0.36-0.44,0.56
				L1036.45,5275.31z"/>
		</g>
	</g>
</g>
</svg>