<svg id="a4eccc2f-5c4d-4773-81e0-f8e97aa61993" data-name="レイヤー 1" xmlns="http://www.w3.org/2000/svg" xmlns:xlink="http://www.w3.org/1999/xlink" viewBox="0 0 1366 718">
  <defs>
    <style>
      .af98b905-ba5d-4b8d-96ef-304b521769a4 {
        fill: #fff;
      }

      .b58755e4-904c-4fcd-b0f9-e953c8ed821a {
        opacity: 0.3;
      }

      .eedfd376-8194-4b25-8fab-55536838fd58 {
        fill: #db4335;
      }

      .fae9b791-0b3d-4f93-940d-5dec719e8627 {
        fill: none;
        stroke: #000;
        stroke-miterlimit: 10;
      }

      .e3e71f7b-555f-4ec5-bde7-0c3bd267ad89 {
        font-size: 18px;
        font-family: HiraginoSans-W6-83pv-RKSJ-H, Hiragino Sans;
      }

      .a2ff6944-889d-4bd2-8a35-6d4e2739890c {
        font-size: 12px;
        fill: #0045ba;
        font-family: HiraginoSans-W4-83pv-RKSJ-H, Hiragino Sans;
      }

      .a5de3429-9381-42f0-89d0-1ac6cfed62f5 {
        font-size: 26px;
        font-family: KozGoPr6N-Bold-83pv-RKSJ-H, Kozuka Gothic Pr6N;
      }

      .e8091efc-f7a0-4ca0-be9c-a99721e9ec57 {
        font-size: 14px;
        letter-spacing: 0.3em;
      }
    </style>
  </defs>
  <image width="6000" height="4000" transform="translate(-23.07 -220.84) scale(0.24)" xlink:href="../../../../../../Documents/%E5%88%B6%E4%BD%9C%E5%85%B1%E6%9C%89/design_data/IMG/pixta_78855920_XL.jpg"/>
  <rect class="af98b905-ba5d-4b8d-96ef-304b521769a4" x="186" y="22" width="1000" height="100" rx="10"/>
  <g class="b58755e4-904c-4fcd-b0f9-e953c8ed821a">
    <path class="eedfd376-8194-4b25-8fab-55536838fd58" d="M1176,22a10,10,0,0,1,10,10v80a10,10,0,0,1-10,10H196a10,10,0,0,1-10-10V32a10,10,0,0,1,10-10h980m0-5H196a15,15,0,0,0-15,15v80a15,15,0,0,0,15,15h980a15,15,0,0,0,15-15V32a15,15,0,0,0-15-15Z"/>
  </g>
  <line class="fae9b791-0b3d-4f93-940d-5dec719e8627" x1="217" y1="64" x2="255" y2="64"/>
  <line class="fae9b791-0b3d-4f93-940d-5dec719e8627" x1="217" y1="72.5" x2="255" y2="72.5"/>
  <line class="fae9b791-0b3d-4f93-940d-5dec719e8627" x1="217" y1="81.5" x2="255" y2="81.5"/>
  <text class="e3e71f7b-555f-4ec5-bde7-0c3bd267ad89" transform="translate(769.22 90.22)">案件情報一覧</text>
  <text class="e3e71f7b-555f-4ec5-bde7-0c3bd267ad89" transform="translate(610.89 90.22)">はじめての方へ</text>
  <text class="e3e71f7b-555f-4ec5-bde7-0c3bd267ad89" transform="translate(909.56 90.22)">教育サービス</text>
  <text class="e3e71f7b-555f-4ec5-bde7-0c3bd267ad89" transform="translate(1049.89 90.22)">お問い合わせ</text>
  <text class="a2ff6944-889d-4bd2-8a35-6d4e2739890c" transform="translate(731.89 58.47)">ご利用の流れ</text>
  <text class="a2ff6944-889d-4bd2-8a35-6d4e2739890c" transform="translate(825.89 58.47)">エンジニアを探している企業様へ</text>
  <text class="a2ff6944-889d-4bd2-8a35-6d4e2739890c" transform="translate(1022.89 58.47)">お仕事を探している方へ</text>
  <text class="a2ff6944-889d-4bd2-8a35-6d4e2739890c" transform="translate(651.89 58.47)">運営会社</text>
  <text class="a5de3429-9381-42f0-89d0-1ac6cfed62f5" transform="translate(279.61 82.02)">サイバースミス</text>
  <rect class="af98b905-ba5d-4b8d-96ef-304b521769a4" x="-112" y="658" width="746" height="129" rx="10"/>
  <text class="e8091efc-f7a0-4ca0-be9c-a99721e9ec57" transform="translate(210.21 727.49)">ABOUT</text>
  <line class="eedfd376-8194-4b25-8fab-55536838fd58" x1="204" y1="711" x2="188" y2="727"/>
</svg>
