<svg id="fb064fb2-fa4b-4c41-aee4-78cde04209fb" data-name="レイヤー 1" xmlns="http://www.w3.org/2000/svg" viewBox="0 0 1366 603">
  <defs>
    <style>
      .b94178bd-4768-4aa2-a7f8-56facf397e1d {
        font-size: 36px;
        font-family: AGaramondPro-Regular, Adobe Garamond Pro;
        letter-spacing: 0.2em;
      }

      .a5e99f25-fd7b-4dc3-88f7-6ddcf667221a, .a77e276c-2db2-44ec-afd0-b933d5a6e2a2, .beee17fe-8f04-40d4-91cd-2c7bb3823451, .eed73dde-4f08-4f5c-8679-53c026ef33d3 {
        font-size: 14px;
      }

      .eed73dde-4f08-4f5c-8679-53c026ef33d3 {
        font-family: DNPShueiMGoStd-B-83pv-RKSJ-H, DNP ShueiMGoStd;
        letter-spacing: 0.2em;
      }

      .e7b92e53-808a-47dc-8bd8-7e5a6f1a4e77 {
        font-size: 18px;
        letter-spacing: 0.1em;
      }

      .beee17fe-8f04-40d4-91cd-2c7bb3823451, .e7b92e53-808a-47dc-8bd8-7e5a6f1a4e77 {
        font-family: HiraKakuProN-W3-83pv-RKSJ-H, Hiragino Kaku Gothic ProN;
      }

      .a77e276c-2db2-44ec-afd0-b933d5a6e2a2, .beee17fe-8f04-40d4-91cd-2c7bb3823451 {
        letter-spacing: 0.1em;
      }

      .a77e276c-2db2-44ec-afd0-b933d5a6e2a2 {
        font-family: HiraKakuProN-W6-83pv-RKSJ-H, Hiragino Kaku Gothic ProN;
      }

      .f28cbbe6-3807-4118-9361-ae3cce1508d4 {
        fill: #d54335;
      }

      .a87aaede-403e-493e-b242-cabc331f2bfa, .f34fce68-f857-4d33-9129-88cd99dec7a2 {
        fill: none;
        stroke-miterlimit: 10;
      }

      .f34fce68-f857-4d33-9129-88cd99dec7a2 {
        stroke: #d54335;
      }

      .a5e99f25-fd7b-4dc3-88f7-6ddcf667221a {
        font-family: HiraginoSans-W6-83pv-RKSJ-H, Hiragino Sans;
        letter-spacing: 0.3em;
      }

      .a37adcd1-99fa-40a4-b716-c8ddc1a66a53 {
        fill: #fff;
      }

      .a87aaede-403e-493e-b242-cabc331f2bfa {
        stroke: #000;
      }
    </style>
  </defs>
  <text class="b94178bd-4768-4aa2-a7f8-56facf397e1d" transform="translate(513.62 132.21)">INFORMATION</text>
  <text class="eed73dde-4f08-4f5c-8679-53c026ef33d3" transform="translate(177.05 213.11)">2019.12.31</text>
  <text class="e7b92e53-808a-47dc-8bd8-7e5a6f1a4e77" transform="translate(323.05 213.11)">サンプルサンプルサンプルサンプルサンプルサンプルサンプルサンプルサンプルサンプルル</text>
  <text class="eed73dde-4f08-4f5c-8679-53c026ef33d3" transform="translate(177.05 258.11)">2019.12.31</text>
  <text class="e7b92e53-808a-47dc-8bd8-7e5a6f1a4e77" transform="translate(323.05 258.11)">サンプルサンプルサンプルサンプルサンプルサンプルサンプルサンプルサンプルサンプルル</text>
  <text class="eed73dde-4f08-4f5c-8679-53c026ef33d3" transform="translate(177.05 303.11)">2019.12.31</text>
  <text class="e7b92e53-808a-47dc-8bd8-7e5a6f1a4e77" transform="translate(323.05 303.11)">サンプルサンプルサンプルサンプルサンプルサンプルサンプルサンプルサンプルサンプルル</text>
  <text class="eed73dde-4f08-4f5c-8679-53c026ef33d3" transform="translate(177.05 348.11)">2019.12.31</text>
  <text class="e7b92e53-808a-47dc-8bd8-7e5a6f1a4e77" transform="translate(323.05 348.11)">サンプルサンプルサンプルサンプルサンプルサンプルサンプルサンプルサンプルサンプルル</text>
  <text class="eed73dde-4f08-4f5c-8679-53c026ef33d3" transform="translate(177.05 393.11)">2019.12.31</text>
  <text class="e7b92e53-808a-47dc-8bd8-7e5a6f1a4e77" transform="translate(323.05 393.11)">サンプルサンプルサンプルサンプルサンプルサンプルサンプルサンプルサンプルサンプルル</text>
  <text class="beee17fe-8f04-40d4-91cd-2c7bb3823451" transform="translate(920.88 574.53)">トップページ</text>
  <text class="a77e276c-2db2-44ec-afd0-b933d5a6e2a2" transform="translate(1053.88 573.53)">お仕事を探している方へ</text>
  <path class="f28cbbe6-3807-4118-9361-ae3cce1508d4" d="M1039.24,568.38l-1-1h0l-4.17-4.17a.37.37,0,0,0-.52,0l-1,1a.36.36,0,0,0,0,.52l2.74,2.75h-9a.3.3,0,0,0-.31.3v1.72a.31.31,0,0,0,.31.3h9l-2.74,2.74a.38.38,0,0,0-.11.26.39.39,0,0,0,.11.27l1,1a.35.35,0,0,0,.26.1.37.37,0,0,0,.26-.1l4.17-4.17h0l1-1A.37.37,0,0,0,1039.24,568.38Z"/>
  <line class="f34fce68-f857-4d33-9129-88cd99dec7a2" x1="924.34" y1="579.62" x2="1011.34" y2="579.62"/>
  <text class="a5e99f25-fd7b-4dc3-88f7-6ddcf667221a" transform="translate(1011.56 439.44)">VIEW MORE</text>
  <g>
    <circle cx="983.28" cy="434.63" r="13.51"/>
    <g>
      <path class="a37adcd1-99fa-40a4-b716-c8ddc1a66a53" d="M984.54,434.85s0,0,0-.05v0a.14.14,0,0,0,0-.06h0a.38.38,0,0,0,0-.15h0a.14.14,0,0,0,0-.06v0l0-.05,0-.06-5.42-5.42a.39.39,0,0,0-.55,0l-1,1a.43.43,0,0,0-.11.28.39.39,0,0,0,.11.27l4.11,4.11-4.11,4.11a.41.41,0,0,0,0,.56l1,1a.43.43,0,0,0,.28.11.39.39,0,0,0,.27-.11l5.42-5.42Z"/>
      <path class="a37adcd1-99fa-40a4-b716-c8ddc1a66a53" d="M990.54,434.8v0s0,0,0-.06h0a.38.38,0,0,0,0-.15h0s0,0,0-.06v0l0-.05,0-.06L985,428.94a.39.39,0,0,0-.55,0l-1,1a.43.43,0,0,0-.11.28.39.39,0,0,0,.11.27l4.11,4.11-4.11,4.11a.41.41,0,0,0,0,.56l1,1a.43.43,0,0,0,.28.11.39.39,0,0,0,.27-.11l5.42-5.42,0-.06Z"/>
    </g>
  </g>
  <line class="a87aaede-403e-493e-b242-cabc331f2bfa" x1="1010.75" y1="446.91" x2="1134.25" y2="446.91"/>
</svg>
