<svg id="f0b0a250-6aa2-41fe-8d78-57a5194b5e90" data-name="レイヤー 1" xmlns="http://www.w3.org/2000/svg" xmlns:xlink="http://www.w3.org/1999/xlink" viewBox="0 0 1366 742">
  <defs>
    <style>
      .af00249e-853d-4ced-a59d-2ee19878ed87, .b9eccea3-d545-47ec-b786-c824c8cc23e6 {
        fill: none;
      }

      .bfc20f91-9a10-4752-970e-5302d5896ed7 {
        fill: #fff;
      }

      .ad5fcdf8-d2b1-4a98-aa8a-325699f93733 {
        opacity: 0.3;
      }

      .faf0ca68-43c1-49d5-a71a-7a05651932d1 {
        fill: #db4335;
      }

      .af00249e-853d-4ced-a59d-2ee19878ed87 {
        stroke: #000;
        stroke-miterlimit: 10;
      }

      .a17f8c8d-94de-4a64-a33f-f48764de2048, .beeddee0-b3c0-4943-8d68-bc273917c099 {
        font-size: 18px;
      }

      .a17f8c8d-94de-4a64-a33f-f48764de2048 {
        font-family: HiraginoSans-W6-83pv-RKSJ-H, Hiragino Sans;
      }

      .ff985379-9330-4f2e-811e-385cf824ddd0 {
        font-size: 12px;
        fill: #0045ba;
        font-family: HiraginoSans-W4-83pv-RKSJ-H, Hiragino Sans;
      }

      .aee11906-e4b2-46bb-bf48-a3ce0af7448f {
        font-size: 62px;
        font-family: FutoGoB101Pr6N-Bold, FutoGoB101Pr6N Bold-83pv-RKSJ-H;
        font-weight: 700;
        letter-spacing: 0.2em;
      }

      .beeddee0-b3c0-4943-8d68-bc273917c099 {
        font-family: HiraKakuProN-W3-83pv-RKSJ-H, Hiragino Kaku Gothic ProN;
        letter-spacing: 0.1em;
      }

      .fc05a1b4-e8b9-43fb-a8d3-311e7ee6beb3 {
        letter-spacing: -0.4em;
      }

      .b044b34f-90d0-43e1-aa80-246c5efb07ed {
        letter-spacing: -0.4em;
      }

      .a387a385-2dc0-49b9-8140-d52bc1f7ce02 {
        clip-path: url(#a11a000f-0ae0-47af-9160-05f4721beeef);
      }
    </style>
    <clipPath id="a11a000f-0ae0-47af-9160-05f4721beeef">
      <rect class="b9eccea3-d545-47ec-b786-c824c8cc23e6" x="266" y="42" width="250.25" height="61"/>
    </clipPath>
  </defs>
  <image width="2971" height="2120" transform="translate(-7.78 -243) scale(0.46)" xlink:href="<?php bloginfo('template_directory'); ?>/images/pixta_77226296_L.jpg"/>
  <rect class="bfc20f91-9a10-4752-970e-5302d5896ed7" x="186" y="22" width="1000" height="100" rx="10"/>
  <g class="ad5fcdf8-d2b1-4a98-aa8a-325699f93733">
    <path class="faf0ca68-43c1-49d5-a71a-7a05651932d1" d="M1176,22a10,10,0,0,1,10,10v80a10,10,0,0,1-10,10H196a10,10,0,0,1-10-10V32a10,10,0,0,1,10-10h980m0-5H196a15,15,0,0,0-15,15v80a15,15,0,0,0,15,15h980a15,15,0,0,0,15-15V32a15,15,0,0,0-15-15Z"/>
  </g>
  <rect class="bfc20f91-9a10-4752-970e-5302d5896ed7" x="260" y="236" width="540" height="86"/>
  <rect class="bfc20f91-9a10-4752-970e-5302d5896ed7" x="260" y="328" width="400" height="80"/>
  <rect class="bfc20f91-9a10-4752-970e-5302d5896ed7" x="260" y="442" width="613" height="134"/>
  <line class="af00249e-853d-4ced-a59d-2ee19878ed87" x1="217" y1="64" x2="255" y2="64"/>
  <line class="af00249e-853d-4ced-a59d-2ee19878ed87" x1="217" y1="72.5" x2="255" y2="72.5"/>
  <line class="af00249e-853d-4ced-a59d-2ee19878ed87" x1="217" y1="81.5" x2="255" y2="81.5"/>
  <text class="a17f8c8d-94de-4a64-a33f-f48764de2048" transform="translate(769.22 90.22)">案件情報一覧</text>
  <text class="a17f8c8d-94de-4a64-a33f-f48764de2048" transform="translate(610.89 90.22)">はじめての方へ</text>
  <text class="a17f8c8d-94de-4a64-a33f-f48764de2048" transform="translate(909.56 90.22)">教育サービス</text>
  <text class="a17f8c8d-94de-4a64-a33f-f48764de2048" transform="translate(1049.89 90.22)">お問い合わせ</text>
  <text class="ff985379-9330-4f2e-811e-385cf824ddd0" transform="translate(731.89 58.47)">ご利用の流れ</text>
  <text class="ff985379-9330-4f2e-811e-385cf824ddd0" transform="translate(825.89 58.47)">エンジニアを探している企業様へ</text>
  <text class="ff985379-9330-4f2e-811e-385cf824ddd0" transform="translate(1022.89 58.47)">お仕事を探している方へ</text>
  <text class="ff985379-9330-4f2e-811e-385cf824ddd0" transform="translate(651.89 58.47)">運営会社</text>
  <text class="aee11906-e4b2-46bb-bf48-a3ce0af7448f" transform="translate(277.62 305.05)">幸福が循環する<tspan x="0" y="86">社会を創る</tspan></text>
  <text class="beeddee0-b3c0-4943-8d68-bc273917c099" transform="translate(284.41 486.64)">世の中を良くするために、テクノロジーを活用し<tspan class="fc05a1b4-e8b9-43fb-a8d3-311e7ee6beb3" x="435.6" y="0">、</tspan><tspan x="0" y="31.5">世の中のあらゆる課題を解決するためのサービスをつくる</tspan><tspan class="b044b34f-90d0-43e1-aa80-246c5efb07ed" x="514.8" y="31.5">、</tspan><tspan x="0" y="63">プロフェッショナル人材同士が豊かにつながる幸福の輪</tspan><tspan class="b044b34f-90d0-43e1-aa80-246c5efb07ed" x="495" y="63">。</tspan></text>
  <g class="a387a385-2dc0-49b9-8140-d52bc1f7ce02">
    <image width="870" height="1883" transform="translate(231.46 -336.49) scale(0.37)" xlink:href="<?php bloginfo('template_directory'); ?>/images/S__6266903.jpg"/>
  </g>
</svg>
