<svg id="ece07c20-7645-4a5a-bdde-9a581eb60bad" data-name="レイヤー 1" xmlns="http://www.w3.org/2000/svg" xmlns:xlink="http://www.w3.org/1999/xlink" viewBox="0 0 1366 186">
  <defs>
    <style>
      .a60edfcd-c6bb-470a-8765-ac17118adf21, .e0092195-5338-4b14-bb9a-4a8b9a1509ef {
        fill: none;
      }

      .bc14cdbf-00cf-4268-aefb-1ac05884136f {
        clip-path: url(#ba1451a4-f21d-4e29-9cd1-4bddf9afd4db);
      }

      .bd7b9ea6-af38-4259-ae75-cd38cab6c3d0 {
        fill: #fff;
      }

      .b47dd61d-6620-4457-a87a-dae1ffc4e54c {
        font-size: 42px;
        font-family: FutoGoB101Pr6N-Bold, FutoGoB101Pr6N Bold-83pv-RKSJ-H;
        font-weight: 700;
        letter-spacing: 0.2em;
      }

      .a2a819e6-ac2d-442c-88a2-f891ed20f8fe, .aca3f6e9-d6db-42b6-91b1-13cc77fd95d8, .b71a60c0-ca94-4847-95e1-3f79bba85e17 {
        font-size: 14px;
      }

      .a2a819e6-ac2d-442c-88a2-f891ed20f8fe {
        letter-spacing: 0.3em;
      }

      .e41d2be8-4221-4357-bac3-054b3d7205c6 {
        fill: #007b43;
      }

      .b71a60c0-ca94-4847-95e1-3f79bba85e17 {
        font-family: HiraKakuProN-W3-83pv-RKSJ-H, Hiragino Kaku Gothic ProN;
      }

      .aca3f6e9-d6db-42b6-91b1-13cc77fd95d8, .b71a60c0-ca94-4847-95e1-3f79bba85e17 {
        letter-spacing: 0.1em;
      }

      .aca3f6e9-d6db-42b6-91b1-13cc77fd95d8 {
        font-family: HiraKakuProN-W6-83pv-RKSJ-H, Hiragino Kaku Gothic ProN;
      }

      .bbf451b8-1955-4738-a456-7623f5b1ce32 {
        fill: #dc4335;
      }

      .a60edfcd-c6bb-470a-8765-ac17118adf21 {
        stroke: #dc4335;
        stroke-miterlimit: 10;
      }
    </style>
    <clipPath id="ba1451a4-f21d-4e29-9cd1-4bddf9afd4db">
      <rect class="e0092195-5338-4b14-bb9a-4a8b9a1509ef" x="-24" y="-399" width="1403" height="471"/>
    </clipPath>
  </defs>
  <g class="bc14cdbf-00cf-4268-aefb-1ac05884136f">
    <image width="1980" height="850" transform="translate(-97.06 -326.86) scale(0.79)" xlink:href="http://3.112.250.183/wp-content/uploads/2021/11/pixta_76898798_XL.jpg"/>
  </g>
  <rect class="bd7b9ea6-af38-4259-ae75-cd38cab6c3d0" x="-10" width="572" height="129" rx="10"/>
  <text class="b47dd61d-6620-4457-a87a-dae1ffc4e54c" transform="translate(185.62 121.05)">教育サービス</text>
  <text class="a2a819e6-ac2d-442c-88a2-f891ed20f8fe" transform="translate(210.21 69.49)">EDUCATION</text>
  <line class="e41d2be8-4221-4357-bac3-054b3d7205c6" x1="204" y1="53" x2="188" y2="69"/>
  <text class="b71a60c0-ca94-4847-95e1-3f79bba85e17" transform="translate(999.54 118.41)">トップページ</text>
  <text class="aca3f6e9-d6db-42b6-91b1-13cc77fd95d8" transform="translate(1132.54 117.41)">教育サービス</text>
  <path class="bbf451b8-1955-4738-a456-7623f5b1ce32" d="M1117.9,112.25l-1-1h0l-4.17-4.16a.36.36,0,0,0-.52,0l-1,1a.36.36,0,0,0,0,.52l2.74,2.75h-9a.29.29,0,0,0-.3.3v1.71a.3.3,0,0,0,.3.31h9l-2.74,2.74a.36.36,0,0,0,0,.52l1,1a.34.34,0,0,0,.26.11.33.33,0,0,0,.26-.11l4.17-4.16h0l1-1A.39.39,0,0,0,1117.9,112.25Z"/>
  <line class="a60edfcd-c6bb-470a-8765-ac17118adf21" x1="1003" y1="123.5" x2="1090" y2="123.5"/>
</svg>
