<svg id="ad167963-696a-405e-b07b-5ea482fa9d73" data-name="レイヤー 1" xmlns="http://www.w3.org/2000/svg" viewBox="0 0 1366 257">
  <defs>
    <style>
      .e58b18ea-63b2-4afe-9283-5495387550fc {
        fill: none;
        stroke: #e4e4e4;
        stroke-miterlimit: 10;
        stroke-width: 5px;
      }

      .bcaeba7b-de71-4fa7-9302-88cfb7204159, .f5c73878-4d2d-4739-a4e3-4b18512ff3c9 {
        fill: #fff;
      }

      .bcaeba7b-de71-4fa7-9302-88cfb7204159 {
        font-size: 16px;
        font-family: HiraginoSans-W6-83pv-RKSJ-H, Hiragino Sans;
        letter-spacing: 0.3em;
      }

      .f5482064-a10f-4fe2-aea6-7ebb401c9533 {
        font-size: 18px;
        font-family: HiraKakuProN-W3-83pv-RKSJ-H, Hiragino Kaku Gothic ProN;
        letter-spacing: 0.1em;
      }

      .bcb50eea-4fc1-4cdd-a48f-4964e5ba4dc9 {
        letter-spacing: -0.4em;
      }
    </style>
  </defs>
  <rect class="e58b18ea-63b2-4afe-9283-5495387550fc" x="283" y="43" width="800" height="144.5" rx="3.01"/>
  <g>
    <rect x="483" y="155.42" width="400" height="60" rx="30"/>
    <g>
      <circle cx="845.41" cy="187.83" r="13.51"/>
      <g>
        <path class="f5c73878-4d2d-4739-a4e3-4b18512ff3c9" d="M846.66,188.05l0-.05v0s0,0,0-.06h0a.38.38,0,0,0,0-.15v0s0,0,0-.06h0l0,0,0-.06-5.42-5.42a.39.39,0,0,0-.55,0l-1,1a.39.39,0,0,0-.11.28.39.39,0,0,0,.11.27l4.11,4.11-4.11,4.11a.43.43,0,0,0-.11.28.39.39,0,0,0,.11.27l1,1a.43.43,0,0,0,.28.11.39.39,0,0,0,.27-.11l5.42-5.42Z"/>
        <path class="f5c73878-4d2d-4739-a4e3-4b18512ff3c9" d="M852.66,188v0s0,0,0-.06h0a.38.38,0,0,0,0-.15v0s0,0,0-.06h0l0,0,0-.06-5.41-5.42a.4.4,0,0,0-.56,0l-1,1a.39.39,0,0,0-.11.28.39.39,0,0,0,.11.27l4.11,4.11-4.11,4.11a.43.43,0,0,0-.11.28.39.39,0,0,0,.11.27l1,1a.41.41,0,0,0,.56,0l5.41-5.42,0-.06Z"/>
      </g>
    </g>
    <text class="bcaeba7b-de71-4fa7-9302-88cfb7204159" transform="translate(620.91 193.69)">お問い合わせ</text>
  </g>
  <text class="f5482064-a10f-4fe2-aea6-7ebb401c9533" transform="translate(314.91 95.27)">よくある質問に記載されていない内容でお悩みの方・ご質問のある方は、下記より<tspan x="0" y="31.5">お問い合わせください</tspan><tspan class="bcb50eea-4fc1-4cdd-a48f-4964e5ba4dc9" x="198" y="31.5">。</tspan></text>
</svg>
