<?xml version="1.0" encoding="utf-8"?>
<!-- Generator: Adobe Illustrator 26.0.1, SVG Export Plug-In . SVG Version: 6.00 Build 0)  -->
<svg version="1.1" id="acb50989-0b5d-4608-87fc-edf54a74b568"
	 xmlns="http://www.w3.org/2000/svg" xmlns:xlink="http://www.w3.org/1999/xlink" x="0px" y="0px" viewBox="0 0 27 27"
	 style="enable-background:new 0 0 27 27;" xml:space="preserve">
<style type="text/css">
	.st0{fill:#83CCD2;}
	.st1{fill:#FFFFFF;}
</style>
<g>
	<circle class="st0" cx="13.5" cy="13.5" r="13.5"/>
	<g>
		<path class="st1" d="M14.8,13.7L14.8,13.7L14.8,13.7L14.8,13.7L14.8,13.7c0-0.1,0-0.2,0-0.2l0,0v-0.1l0,0l0,0l0-0.1L9.3,8
			C9.1,7.8,8.9,7.8,8.8,8l-1,1C7.7,9.1,7.6,9.2,7.6,9.3c0,0.1,0,0.2,0.1,0.3l4.1,4.1l-4.1,4.1c-0.1,0.1-0.1,0.2-0.1,0.3
			c0,0.1,0,0.2,0.1,0.3l1,1c0.1,0.1,0.2,0.1,0.3,0.1c0.1,0,0.2,0,0.3-0.1l5.4-5.4L14.8,13.7z"/>
		<path class="st1" d="M20.8,13.7L20.8,13.7C20.8,13.7,20.8,13.6,20.8,13.7L20.8,13.7c0-0.1,0-0.2,0-0.2l0,0c0,0,0,0,0-0.1l0,0l0,0
			l0-0.1l-5.4-5.4c-0.2-0.2-0.4-0.2-0.5,0l-1,1c-0.1,0.1-0.1,0.2-0.1,0.3c0,0.1,0,0.2,0.1,0.3l4.1,4.1l-4.1,4.1
			c-0.1,0.1-0.1,0.2-0.1,0.3c0,0.1,0,0.2,0.1,0.3l1,1c0.1,0.1,0.2,0.1,0.3,0.1c0.1,0,0.2,0,0.3-0.1l5.4-5.4L20.8,13.7
			C20.8,13.8,20.8,13.7,20.8,13.7z"/>
	</g>
</g>
</svg>
