<svg id="f63865fc-6095-4c44-976f-3a4d880b88e0" data-name="レイヤー 1" xmlns="http://www.w3.org/2000/svg" viewBox="0 0 303.78 278.3">
  <defs>
    <style>
      .b3e4df9c-5999-4a7e-8aaf-df3e2619001e {
        fill: #ac263d;
      }

      .a9bcf26d-593a-435d-907f-047254cc5ed2 {
        fill: #4cb3d3;
      }

      .b9535eb1-7c64-4e37-8f4c-43c660ac747c {
        fill: #4aa3c1;
      }

      .b1ae801a-c8c7-4582-824c-98c8606a8f65 {
        fill: #1178b7;
      }

      .afcf02fa-7d1c-46f4-ac28-c1e17559586f {
        fill: #1883c6;
      }

      .a57f73cb-4b20-479f-a58d-44697a34d1f0 {
        fill: #311e69;
      }

      .f0e99dde-2eaa-440a-b928-56b317e6dbea {
        fill: #1e1240;
      }

      .e37ad8ca-4040-467a-baa5-0a927beea891 {
        fill: #fc9b7a;
      }

      .a9d3f8ae-7579-4f1f-bfd7-fa001190ae3c {
        fill: #ffa986;
      }

      .ab04b16e-3182-47fb-b134-b113af923cdf {
        fill: #ad263d;
      }

      .a32b0d46-0d03-4a07-a759-f564f1da7664 {
        fill: #fff;
      }

      .e85b29d4-231f-478a-a359-0569666bb338 {
        fill: #f96291;
      }

      .a89105b0-4d67-4433-bd7c-1b7c5925fe3c {
        fill: #614cd4;
      }

      .a18f4db9-9e9b-46ad-a543-de5177a856fc {
        fill: #d95f76;
      }

      .a682db94-7778-4b39-aae5-e38098762e19 {
        fill: #aa3766;
      }

      .a291fa3f-ed8e-4403-846c-258b3fd6a4c2 {
        fill: #ff8da8;
      }

      .be7ce65f-1d62-46cd-a58b-b8e2b7b5ef2d {
        fill: #473399;
      }

      .a67db407-9708-4d35-89e7-55423b785efe {
        fill: #9388ff;
      }

      .e1585c57-1e58-4d37-a474-5e1587595529 {
        fill: #6d55ed;
      }

      .bbf7dfed-9044-434b-875c-d9651ad22b37 {
        fill: #f1f1f1;
      }

      .b1c68250-2ae9-449e-a4ae-9708cfc110e1 {
        fill: #ffc4c4;
      }

      .e6e4f901-ad34-424a-a9a1-3389971f859b {
        fill: #bcd560;
      }
    </style>
  </defs>
  <g id="b5752d2d-b07b-4632-bd42-fcff31e55e1e" data-name="b29fcbd7-7568-455f-83a5-1eeb68779f7a">
    <path class="b3e4df9c-5999-4a7e-8aaf-df3e2619001e" d="M79.57,137.39c.77-.8,2-.84,3.45-1.85.55-.38.77.07-.2,1.1-.25.28-.67.48-.58.66.16.34.75.25,3.16-.59.66-.22.69.52.67.91a1.7,1.7,0,0,1-.67,1.24c-1.13.93-4.42,2.12-5.53,1.39a1.85,1.85,0,0,1-.3-2.86Z" transform="translate(0 0.09)"/>
    <g>
      <circle class="a9bcf26d-593a-435d-907f-047254cc5ed2" cx="153.27" cy="119.64" r="119.55"/>
      <path class="b9535eb1-7c64-4e37-8f4c-43c660ac747c" d="M203.67,185.93s-5.25-15.21-16.77-14.33-20.47,8.51-30.32,11.26-16.07-4.09-19.5,4.94,13.7,15.57,24.29,12.14,26.78-10.49,32.07-10.38S203.67,185.93,203.67,185.93Z" transform="translate(0 0.09)"/>
      <path class="b9535eb1-7c64-4e37-8f4c-43c660ac747c" d="M153.27,239.09A119.55,119.55,0,0,0,216.38,18c-1.88,8.84,5.12,25.92,7.9,34.33,3.74,11.32,9.34,9,21.8,37.68s-4.36,14-12.58,36.66,4.77,19.25,3.55,43.45-5,17.35-11.52,22.65-14,1.87-38.62,5.6-16.5,16.2-37.59,24.6-16.9-2.49-33.54-5c-11.33-1.7-15.75,4-17.41,7.76A119.1,119.1,0,0,0,153.27,239.09Z" transform="translate(0 0.09)"/>
      <path class="b1ae801a-c8c7-4582-824c-98c8606a8f65" d="M241.9,157.79c2.46-6.68-5.54-11.82-5.44-16.58,0-.76.21-1.74-.29-2.25h0c.44-4.06-2.54,3-2.54,3s-.78,2.53-1,3.75c-1.41,2.58-7.33,4.13-7.46,1.4a4.43,4.43,0,0,1,.5-2.14l1.36-1.66c.28-.53.51-1,.26-1.42h0c-.4-.2-.86,0-1.35.42a2.45,2.45,0,0,1-2.51.28c-1.65-.85-3.33,1.73-5,2.27-3.63,8.17-2.77,3.1-6.5,4.94a2.3,2.3,0,0,0-1.11,1c-2.8,3.55-5.8,8.7-8.59,10.5a11.09,11.09,0,0,1-2.12.66,3.16,3.16,0,0,0-1.64.77,1.28,1.28,0,0,0-1.14.93c-4.93,2.41-4.06,7-7,10.49-.6.71-.58,1-.09,1.13h0l-.06.65c-.06.6-.13,1.2-.2,1.81l.45-.09.07.08h0c-.14,1.63.14,3-.87,5.05,0,1-1,2.42-.92,3.4a.57.57,0,0,1-.11.16,11.74,11.74,0,0,0-.76,1.17c-.4.11-.69.62-1,1l.39.51h0c.2.17.39.34.57.52H188c.34.28.8.19,1.45-.5v.11c4.4.24,9-7.16,12-8.21a5.73,5.73,0,0,0,1.76-1.14h0c2-.82,8.71-3.75,8.54-2.08,0,.28-.47.83-.33,1.06,1.67-.22-1.17,2.53.18,2.39h0c.64-.23,3-3.42,3.68-4s.23.41.16.78h0a8.34,8.34,0,0,1-1.52,1.78c-.77,1.18.12.63.37.68.47.1.45,6.59,4.61,3.15a4.45,4.45,0,0,1,.77-.28h0c.59,2.56,6-4.06,7.1-5.28,2.73-2.91,5.43-6.44,7.88-9.08a53.24,53.24,0,0,0,7.12-11Z" transform="translate(0 0.09)"/>
      <path class="b1ae801a-c8c7-4582-824c-98c8606a8f65" d="M224,131.42c.42-.06.41-.79.77-1.09h0c.08.19,0,.48.32.47h0c1.06.39,6.74,4.65,6.87,4.7a13,13,0,0,1,1.24.61c2.63-.14,2.48-1.91,4-2.48,5.09-1.93,3,1.77,7.59,1,.58-.09,1.09.53,1.95-.45.88-.53,1-.89.27-1.09h0c-.63-1.08-2.71-.51-2.92-2.17.06-.44.09-.86-.46-.81a3.94,3.94,0,0,1,.13-.65c.27-.5.5-1,.1-1.27a57.38,57.38,0,0,1-10.34-1.47c-1.78.17-7.42,2.42-7.89,2-.88-.7-1.39-1-3.74,1A2.38,2.38,0,0,0,224,131.42Z" transform="translate(0 0.09)"/>
      <path class="afcf02fa-7d1c-46f4-ac28-c1e17559586f" d="M200.48,134a10.43,10.43,0,0,1,.82-2.29c1.09-.63,1.35-3.78,1.38-4a26.27,26.27,0,0,0-1.17-3.65c-.1-.12-1.78-4.27-2.54-3.94-.11.2-.21.41-.3.62-2.4-1.44-3.09,3.08-3.43,3.56a41.36,41.36,0,0,0-2.25,3.58c-.16.39-1.41,1.4-1.51,2.56a3,3,0,0,1-1.23.59l-1.17.23c-.31.44-.11.77,0,1.11.86,1.5,1.68,3,2.48,4.47h0C194.34,138.88,199.22,136.83,200.48,134Z" transform="translate(0 0.09)"/>
      <path class="afcf02fa-7d1c-46f4-ac28-c1e17559586f" d="M167.9,129a1.24,1.24,0,0,0,.13,1.18c3.21,3.35,11.32,16.07,15.87,13.61.64-.35.25-4.08.26-4.26C182.33,135.72,169.76,126.54,167.9,129Z" transform="translate(0 0.09)"/>
      <path class="afcf02fa-7d1c-46f4-ac28-c1e17559586f" d="M215.79,73.46c-.65-1.22-1.65-3.26-1.06-4.84-.06-.65-2.69-3.74-3.61-3.16s-2.22,5.26-2.22,5.26.41,3.58-1.79,3.28c-1.52-.21-2.84.41-3,2.2-.29.39-.83.81.28,1.09,1,.49,3.92-1,4.91-1.1h0C210.51,77.18,216.9,75.47,215.79,73.46Z" transform="translate(0 0.09)"/>
      <path class="afcf02fa-7d1c-46f4-ac28-c1e17559586f" d="M212.9,59.42c-1.42.23-2.94-.58-4.29-1.82-1.5-.77-1.74.14-1,.62,1,.63-.7,3.8.51,4.79-.47-.38,4.93.23,4.79.2C212.58,63.13,215.59,59,212.9,59.42Z" transform="translate(0 0.09)"/>
      <path class="afcf02fa-7d1c-46f4-ac28-c1e17559586f" d="M184.65,145.09c.28,1.07,10.06,1.58,12.08.63.3-.14.39-.78.25-1.14C193.9,143.3,184.4,144.16,184.65,145.09Z" transform="translate(0 0.09)"/>
      <path class="afcf02fa-7d1c-46f4-ac28-c1e17559586f" d="M149.59,126.72c-1.39-1.21-2-1-1.87.63a10.12,10.12,0,0,0,.05,1.22h-.08c-.72,2.1,2,4.1,3.2,2a1.12,1.12,0,0,0,0-1.22A22.14,22.14,0,0,0,149.59,126.72Z" transform="translate(0 0.09)"/>
      <path class="b1ae801a-c8c7-4582-824c-98c8606a8f65" d="M221.43,129.9h0l-1-.23h-.24a2.83,2.83,0,0,0-.83.25l-.69.1a2,2,0,0,0-.31.19,1.78,1.78,0,0,0-1.13,1.25l4.11-.83c.19.17.46.23.62-.16S221.9,129.85,221.43,129.9Z" transform="translate(0 0.09)"/>
      <path class="afcf02fa-7d1c-46f4-ac28-c1e17559586f" d="M213.9,126.47c-1.23.54-2.9,1.49-3.71,1.44a5.1,5.1,0,0,0-2.59.35,3.68,3.68,0,0,0-1.12.92c.25-.44-.87.25-1.42,1.12-1.61,2.61,1.94,7.08,2.82,7.14.2,0,1.49,1.16,2.41.93,2.82-1.24,1.35-6.69,1.08-7.66-.07-.72-.11-1.45-.12-2.17C211.27,128.48,214.73,127.42,213.9,126.47Z" transform="translate(0 0.09)"/>
      <path class="afcf02fa-7d1c-46f4-ac28-c1e17559586f" d="M213.58,181.25c-.06-.07-.16,0-.32.12a2.23,2.23,0,0,0-1.37,1.47,2.4,2.4,0,0,0,1.7-.62C214.9,180.79,214.05,181.18,213.58,181.25Z" transform="translate(0 0.09)"/>
      <path class="afcf02fa-7d1c-46f4-ac28-c1e17559586f" d="M206.11,114.72a8.75,8.75,0,0,1,1.43,2.08,3.68,3.68,0,0,0-.26.34c-.24.41-.27.78.08,1.06a5.91,5.91,0,0,0,1.81-.81s1.48,2,2.37,1.82a2.11,2.11,0,0,0,1.2-.72,1.47,1.47,0,0,0,1-.95h0a.87.87,0,0,0,.06-1.09,4,4,0,0,0-.31-1c.2-3.18-6-3.93-6-3.93-.3-.11-3.53-4.64-3.82-5.83-.15-.6.22-2.61-.76-3.64-2-2.1-1.59,4.88-.76,5.9C203.72,109.83,204.14,113.24,206.11,114.72Z" transform="translate(0 0.09)"/>
      <path class="afcf02fa-7d1c-46f4-ac28-c1e17559586f" d="M198.9,43.84a33.06,33.06,0,0,1,5.1,6.73,6,6,0,0,0,1.46,2.53,1.93,1.93,0,0,1,.22.28,2.25,2.25,0,0,1,.31.75l1,1.16h0a1.35,1.35,0,0,0,.15.26c.09.22.19.43.28.65a2.6,2.6,0,0,0,.56-.06c3.36,1.39-1.84-4.84-3-5.85a4.25,4.25,0,0,1-.21-.49h0c.19-.24.65-.11.9-.28l.15.27c1.21.22,1.1,0-.35-.63h0c-.09-.22-.18-.45-.26-.67l-.5-.3c-2.11-2.71-4.19-6.24-6.6-7.9a6,6,0,0,0-.81-.39c-.34-.67-.79-1-1.39-.88l1,2h0A6.8,6.8,0,0,0,198.9,43.84Z" transform="translate(0 0.09)"/>
      <path class="afcf02fa-7d1c-46f4-ac28-c1e17559586f" d="M161.51,106.48a1.37,1.37,0,0,1,.07.29c3,4.11,6,3.34,6.77,4.59a3.92,3.92,0,0,0,.33.56V112l.12.13a1.89,1.89,0,0,0,.25,1.5l.33.36a1.16,1.16,0,0,0,1,1.13h0c1.36,3.22,2.18,7.08,3.84,9.73a1.33,1.33,0,0,0,.45.49c1.23,2.63,5.09,9.76,7.33,7.54a1.37,1.37,0,0,0,.07-1.55c-1.33-2.69-4.36-5.89-5.37-7.7-.75-1.35-2.41-4.16-2.94-5.22a4.2,4.2,0,0,1-.06-1h0c4.5-2.16,12.85,5.37,12.56-1-.11-2.52-2.81-6.72-4-10.16-.65-1.87-.8-8.67,1.45-4.77.16.28-.07.77-.26,1.11h0c-.9.79-.72,1.58.51,2.36,1.52.28,2-.63,1.61-2.59-.18-.89-1-.43-1.42-.87a11.8,11.8,0,0,1,5.26-4.13,1.16,1.16,0,0,0,1.36-.78h0c2.58-1.55,3.47-4.18,3.84-7.08a3.31,3.31,0,0,0,.47-2.7c.29-3.68-3-5.68-4.64-8.34-2.1-3.41.06-5.11-.88-6.84-2.21-4.09-5.87-5.78-5-5.78.66,0,5.72,4.28,8.6,5.77,4.24,2.19,10.85,6.16,4.4-1.65a5.57,5.57,0,0,0-.82-1.06c-1.61-1.18-.82-6.78,1.17-6.45a3.52,3.52,0,0,0,1.48-.1c1.38-.58,1.39-2,1.47-3.39a2.35,2.35,0,0,1,0-.53.38.38,0,0,0,0-.15c1-4.93.2-10.9-3.32-14.51-2.15-2.21-11.36-6.94-11.36-6.94a35.84,35.84,0,0,1,1.07-3.67c.26-2.74,1-4.75,4.56-4.55a2.16,2.16,0,0,0,.36,0,3.4,3.4,0,0,0,2.41.13l.42.08c1.29-.34,2.63-.52,4.72,1.33.35.1.33-4.37,4.26-5.52,2.23-.66,5.67,1.87,6.33,1.35.09-.07.84.13.55-.44h.47c-2.82,4.77-4.22,10.37,1.06,14.21.92.67,1.34,1.73,2.47,2.23.43.69,1.43,1.12,1.72,1.86.7.66,1.29,1.36,1.94,2,2,1.55,2.48.8,2.57-.86,0-.5-.89-1.56-.58-2.13.56-4.11-3.39-7.32-3.91-10.39v-.2a4.13,4.13,0,0,0,2.53.46c.54-.21-.66-2.26-.64-2.33A14.32,14.32,0,0,1,222.4,30a29.25,29.25,0,0,0,7.9-1.8A119.58,119.58,0,0,0,41.62,76.72a2.75,2.75,0,0,1,.69.27c3.31,1.8,4.91,7.27,7.92,8.7h0c.4.61.67.32,1-.15a4.32,4.32,0,0,0,.61-1.26,6.48,6.48,0,0,0,0-2.24,1.65,1.65,0,0,1,.22-.57c.38-3.64-7.13-10.54-7.13-10.54s7.4,4.75,8.63,8.17a6.9,6.9,0,0,0,.33.9c.08.27.15.54.22.81a5.58,5.58,0,0,0,2.89,3,1.45,1.45,0,0,1,.41.1.63.63,0,0,0,.32.15c.82.41,2.78,1.36,3.33,0,.62-1.58-2-3.47-1.67-4a.81.81,0,0,0,.3-.59A3,3,0,0,0,60,79a1.29,1.29,0,0,1,.16-.17l.74-.1a3.94,3.94,0,0,0,1,.29c5.1.34,4.9-14.87,4.9-14.87.21.1,2.62,6.08,4.45,3.86.14-.17.27-.38.41-.56a.54.54,0,0,0,.52-.56h0a1.66,1.66,0,0,0,.26-.27h.4c0,.15,7.49,6.08,5.78,6.35-5.52.7-10.84,2.22-14.76,5.58-.15.12-.29.29-.44.43h-.35a2.17,2.17,0,0,1-.13.5,2,2,0,0,0-.19.22,5.08,5.08,0,0,0,0,2.84c1.17,5.46,7.56,5.23,10.82,4.56a4,4,0,0,0,2-1c.38,2.89.82,8.56-.55,9.47h-.33a4.32,4.32,0,0,1-.77-.4,3.21,3.21,0,0,0-3.52.38c-1,.45-2.11,1.3-2.9,1.54a1.5,1.5,0,0,1-.3,0h0a.11.11,0,0,0,0-.08,1.36,1.36,0,0,0-1-1,9.77,9.77,0,0,0-2.28-.36,1.83,1.83,0,0,1-1.6-.49c-3.71-1.49-6.6,3.26-9.89,2.08-2.53-.91-5.39-3.62-7.35-5.94v-.18a2.83,2.83,0,0,1,.11-.31c-.51-2.8-4.21-2.73-7.52-2a120.09,120.09,0,0,0,.71,63.92,10.91,10.91,0,0,1,4-1.7,1.52,1.52,0,0,0,1.34-.87h0c.72-.12,8.24,3.24,8.52,3.66,1.63,2.37-.45,6.35.48,9.12,1.34,4,5.68,6.51,6.91,10.68,2.47,8.38.3,17.9,4.21,24.91a3.13,3.13,0,0,1,.27.72,121,121,0,0,0,17,15.7c2.11-2.08,3.94-4.5,5.22-5.66a2.6,2.6,0,0,0,.83-1.45h0a2.16,2.16,0,0,0,.39-1.72l-.2-.25c.36-.61.88-1.2,1.19-1.7a4.12,4.12,0,0,0,.28-2.54h0c-.51-.85.28-1,.5-1.42h0a.85.85,0,0,0,.4-.26c1-1.76-.61-2.35-.85-3.74.88.7,1.14,2,2,2.37.22,0,.43,0,.51-.42a.74.74,0,0,1,.08-.29,38.83,38.83,0,0,0,.77-4.79c-2.72-10,8.18-16.31,3.91-25.51-1.41-3-1.3-9.62,1.53-12,.31-.26.41-.9.7-1.29,1.2-4.1,4.3-9.22,6.41-11a2.94,2.94,0,0,0,.82-1.48h0c1.53-4,2.58-11.61,1.5-12.67a.51.51,0,0,1-.28-.08c-.47-1-.84-.82-1.14.15h0c-2.1.87-10.56,1.74-9.2.16.44-.5,3.57-1,4.9-2.1a10.1,10.1,0,0,0,1-.86c4.07-3.21,16.4-16,12.52-19-1.29-1-5.39-2.8-5.77-4.32-.07-.28.39-.47.69-.52a1.54,1.54,0,0,0,1.42.23,5.89,5.89,0,0,0,2.7-.28c3.7.29,13.18,2.08,13.25,3.12,0,.17-.25.79.11,1.15a3.62,3.62,0,0,0,4.26,1.2,9.05,9.05,0,0,0,1-.59v.06c.87,1.11.65,2.75,1.43,3.89.06.23.11.47.16.7,3.39,5.71,6.19,13.46,9.49,17.47.91,1.12,3.43-4,3.83-4.55a1.12,1.12,0,0,0,0-1.22,5.43,5.43,0,0,1-.17-2.37C151.07,112.92,157.52,101.34,161.51,106.48ZM72.51,65l-.13.13a12.38,12.38,0,0,0-1.64-1.24c0-.13.78-.77,1.13-1.14.94-.13.34.68.49,1s.23,1.07.19,1.25Zm34.9,36.46-.24.21c-3.83,3.28-10.17-.86-9.79-4.81,0-.52.41-.34.68-.08a8.43,8.43,0,0,0,6.57,4.54l.25-.08c.77.45,1.44,0,2.11-.36a1.15,1.15,0,0,1,.37,0c.16,0,.15.38.09.58Z" transform="translate(0 0.09)"/>
      <path class="b1ae801a-c8c7-4582-824c-98c8606a8f65" d="M68,35.72c1.74,2.62,5.33,4.93,11.85,6.42,25.46,5.81,7.71,1.84,29.9-8s29.89-4.67,42.5-6.54,19.44-14.24,15.56-19.15c-1.6-2,2.44-4.55,4.67-7A119.61,119.61,0,0,0,68,35.72Z" transform="translate(0 0.09)"/>
      <path class="afcf02fa-7d1c-46f4-ac28-c1e17559586f" d="M101.8,188.72c-.13.37,0,.78-.17,1.14,1.08,11.25,6,.53,7.48-3.34,0-.13.13-.28.19-.41,3.26-3,5.32-12.83,1.21-15.85-2.63-1.13-2.88,4.35-3.31,5.55l-.08.12a2.32,2.32,0,0,0,.06.38c0,.21,0,.43-.06.64a1.1,1.1,0,0,0-1.21.15c-2.71-.52-2.67,5.43-2.53,6.74a4.2,4.2,0,0,1-.29.74l-.25.06a3,3,0,0,0,.06.85c-.07.56.15,1.4.07,1.63S102,187.94,101.8,188.72Z" transform="translate(0 0.09)"/>
      <path class="afcf02fa-7d1c-46f4-ac28-c1e17559586f" d="M41.22,78.72a3.53,3.53,0,0,0-.13-.54l-.33.93A.9.9,0,0,0,41.22,78.72Z" transform="translate(0 0.09)"/>
      <path class="b1ae801a-c8c7-4582-824c-98c8606a8f65" d="M107.49,105.23c-4.65,1.92-8.08,12.19-16.8,17.49s-12.45,5.43-21.17,4-11.52-5-14.32,2.21c-2.57,6.61,1.39,27.68.4,38.53,1.6,1.9,3.34,3.74,4,6.14,2.47,8.38.3,17.9,4.21,24.91a3.13,3.13,0,0,1,.27.72,121,121,0,0,0,17,15.7c2.11-2.08,3.94-4.5,5.22-5.66a2.6,2.6,0,0,0,.83-1.45h0a2.16,2.16,0,0,0,.39-1.72l-.2-.25c.36-.61.88-1.2,1.19-1.7a4.12,4.12,0,0,0,.28-2.54h0c-.51-.85.28-1,.5-1.42h0a.85.85,0,0,0,.4-.26c1-1.76-.61-2.35-.85-3.74.88.7,1.14,2,2,2.37.22,0,.43,0,.51-.42a.74.74,0,0,1,.08-.29,38.83,38.83,0,0,0,.77-4.79c-2.72-10,8.18-16.31,3.91-25.51-1.41-3-1.3-9.62,1.53-12,.31-.26.41-.9.7-1.29,1.2-4.1,4.3-9.22,6.41-11a2.94,2.94,0,0,0,.82-1.48h0c1.53-4,2.58-11.61,1.5-12.67a.51.51,0,0,1-.28-.08c-.47-1-.84-.82-1.14.15h0c-2.1.87-10.56,1.74-9.2.16.44-.5,3.57-1,4.9-2.1a10.1,10.1,0,0,0,1-.86c4.07-3.21,16.4-16,12.52-19-.83-.65-2.81-1.62-4.23-2.63A7.88,7.88,0,0,0,107.49,105.23Z" transform="translate(0 0.09)"/>
      <g>
        <path class="b1ae801a-c8c7-4582-824c-98c8606a8f65" d="M184.59,65.79c.66,0,5.72,4.28,8.6,5.77,4.24,2.19,10.85,6.16,4.4-1.65a5.57,5.57,0,0,0-.82-1.06c-1.61-1.18-.82-6.78,1.17-6.45a3.52,3.52,0,0,0,1.48-.1c1.38-.58,1.39-2,1.47-3.39a2.35,2.35,0,0,1,0-.53.38.38,0,0,0,0-.15c1-4.93.2-10.9-3.32-14.51a13.19,13.19,0,0,0-2-1.55,32.39,32.39,0,0,1-8.73,3.32c-10.71,1.78-12.76,10.59-24.6,14.77s-6.85,16.68-16.5,25.4-19.93,2.18-30,7.47c-4.35,2.29-4.52,6.08-3.3,9.65a4.84,4.84,0,0,0,1.6-.31c3.7.29,13.18,2.08,13.25,3.12,0,.17-.25.79.11,1.15a3.62,3.62,0,0,0,4.26,1.2,9.05,9.05,0,0,0,1-.59v.06c.87,1.11.65,2.75,1.43,3.89.06.23.11.47.16.7,3.39,5.71,6.19,13.46,9.49,17.47.91,1.12,3.43-4,3.83-4.55a1.12,1.12,0,0,0,0-1.22,5.43,5.43,0,0,1-.17-2.37c3.69-8.41,10.14-20,14.13-14.85a1.37,1.37,0,0,1,.07.29c3,4.11,6,3.34,6.77,4.59a3.92,3.92,0,0,0,.33.56V112l.12.13a1.89,1.89,0,0,0,.25,1.5l.33.36a1.16,1.16,0,0,0,1,1.13h0c1.36,3.22,2.18,7.08,3.84,9.73a1.33,1.33,0,0,0,.45.49c1.23,2.63,5.09,9.76,7.33,7.54a1.37,1.37,0,0,0,.07-1.55c-1.33-2.69-4.36-5.89-5.37-7.7-.75-1.35-2.41-4.16-2.94-5.22a4.2,4.2,0,0,1-.06-1h0c4.5-2.16,12.85,5.37,12.56-1-.11-2.52-2.81-6.72-4-10.16-.65-1.87-.8-8.67,1.45-4.77.16.28-.07.77-.26,1.11h0c-.9.79-.72,1.58.51,2.36,1.52.28,2-.63,1.61-2.59-.18-.89-1-.43-1.42-.87a11.8,11.8,0,0,1,5.26-4.13,1.16,1.16,0,0,0,1.36-.78h0c2.58-1.55,3.47-4.18,3.84-7.08a3.31,3.31,0,0,0,.47-2.7c.29-3.68-3-5.68-4.64-8.34-2.1-3.41.06-5.11-.88-6.84C187.42,67.48,183.76,65.79,184.59,65.79Z" transform="translate(0 0.09)"/>
        <path class="b1ae801a-c8c7-4582-824c-98c8606a8f65" d="M115.78,108.91a2,2,0,0,0-.74-1.55c-.15-.11-.32-.23-.53-.36A18.62,18.62,0,0,0,115.78,108.91Z" transform="translate(0 0.09)"/>
      </g>
    </g>
    <g>
      <path class="a57f73cb-4b20-479f-a58d-44697a34d1f0" d="M275.38,128.72a2.25,2.25,0,0,1,1.93-2.53l.15,0c2.37-.28,4.56,3.43,2.62,5.39S275.09,130.19,275.38,128.72Z" transform="translate(0 0.09)"/>
      <path class="f0e99dde-2eaa-440a-b928-56b317e6dbea" d="M280.42,128.08a2.53,2.53,0,0,1-.66,1.17c-1.43,1.45-3.46,0-4.31-1.41a2.82,2.82,0,0,0-.07.87c-.29,1.48,2.76,4.8,4.7,2.84A2.94,2.94,0,0,0,280.42,128.08Z" transform="translate(0 0.09)"/>
      <path class="e37ad8ca-4040-467a-baa5-0a927beea891" d="M267,142.18c-5.72-2-15.88,23.35-19,23.41a2.05,2.05,0,0,1-.6-.07c-3.43-.92-5.87-9.24-10.42-16.94-1.39-2.36-5.9-1.91-4.46,4.71,2.57,11.76,6.11,25,16.39,24.19C263,176.32,274,144.56,267,142.18Z" transform="translate(0 0.09)"/>
      <path class="a9d3f8ae-7579-4f1f-bfd7-fa001190ae3c" d="M293.29,185.94c4.14,13.95,3.6,37.67,3.6,37.67s8.55,15,6.58,30.75c-.3,2.41-3.26,1.72-5.52,1.73-2.59,0-22.13-55.34-24.08-61a.92.92,0,0,0-1.18-.58.94.94,0,0,0-.63.88s-.28,26.54.68,29c3.59,9,.81,22.94.14,29.13-.23,2.12-4.29,1.36-5.71,1.32,0,0-13.15-47.66-8.12-69.17C259.76,182.58,293,184.91,293.29,185.94Z" transform="translate(0 0.09)"/>
      <path class="e37ad8ca-4040-467a-baa5-0a927beea891" d="M258.17,191.3c1,.35,2.22.74,3.65,1.09,5.55,1.36,1.14,6.26.88,12.69s.94,17.6,1.53,22.59,4.06,12.85,4.93,21.65a39.21,39.21,0,0,1,.2,5.63c-.87,0-1.69-.14-2.19-.15C267.17,254.8,256.05,214.5,258.17,191.3Z" transform="translate(0 0.09)"/>
      <path class="e37ad8ca-4040-467a-baa5-0a927beea891" d="M279.35,194.72c3.2-1.27,4.33,6.77,6.36,12.86s4,17.76,6,23.09,5.41,14.8,8,19.79a16.12,16.12,0,0,1,1.51,5.65c-1,.08-2.19-.06-3.23-.06-2.21,0-16.83-40.46-22.23-55.75C275.57,196,277,195.72,279.35,194.72Z" transform="translate(0 0.09)"/>
      <path class="f0e99dde-2eaa-440a-b928-56b317e6dbea" d="M256.14,207.43c0-10,.82-24.71,9.08-46.17,1.42-3.69-8.86-13.65.53-20.18,6.79-4.72,17.69-1.7,20,1.83,1.65,2.5-2.52,10.75-1.42,17.46.24,1.47,7.18,9.91,10.84,21.08,1.39,4.24,2.72,14.23,3.92,25.11-2.78,1.75-8.24,3.77-24.14,4.61C272.54,211.3,261.6,209.49,256.14,207.43Z" transform="translate(0 0.09)"/>
      <path class="ab04b16e-3182-47fb-b134-b113af923cdf" d="M232.39,144c-.39-.42-.51-.73-.69-.32s.38,1.21.79,1.53,0,.48,0,.48h0c-1.17-.11-2.89-2.16-3-1.72a7.73,7.73,0,0,0,.9,3.68c.32.52,2.45,1.14,3.54,1.43a1.58,1.58,0,0,0,1.62-.46c.4-.47.6-1.24-.17-2.47S232.78,144.44,232.39,144Z" transform="translate(0 0.09)"/>
      <path class="a57f73cb-4b20-479f-a58d-44697a34d1f0" d="M269.33,132.72a4.45,4.45,0,0,1,.75-4c1.5-1.65,3.34-2.31,5.43-1.41s3.49,8.23-.75,9.26S269.33,132.72,269.33,132.72Z" transform="translate(0 0.09)"/>
      <path class="a9d3f8ae-7579-4f1f-bfd7-fa001190ae3c" d="M274.46,134.78l.76,5.27c.12.87-1.73,3.38-3.24,2.46-.45-.27-.08-1.53.18-2.48l.45-4.67Z" transform="translate(0 0.09)"/>
      <path class="a57f73cb-4b20-479f-a58d-44697a34d1f0" d="M272.34,138.13a6,6,0,0,0,2-2.34l-1.81.23Z" transform="translate(0 0.09)"/>
      <path class="a9d3f8ae-7579-4f1f-bfd7-fa001190ae3c" d="M270.15,131.11a2.69,2.69,0,0,1,.43-.71,5.7,5.7,0,0,0,1.94,1.81,3.23,3.23,0,0,0,1.81.26h0l.27.92a3.05,3.05,0,0,1-1.92,3.79,2.62,2.62,0,0,1-3.33-1.62,3,3,0,0,1-.11-.43C268.83,133.5,269.82,131.91,270.15,131.11Z" transform="translate(0 0.09)"/>
      <path class="e37ad8ca-4040-467a-baa5-0a927beea891" d="M274.22,133.36a2.5,2.5,0,0,0,.07-.54c0-.35.1-.86.61-.59.73.39.57,2.23-.29,2.34C274,134.65,274.11,133.8,274.22,133.36Z" transform="translate(0 0.09)"/>
      <path class="a32b0d46-0d03-4a07-a759-f564f1da7664" d="M272.13,135c-.7,0-1.41-.09-2.11-.19a1.14,1.14,0,0,0,.89.56A1.72,1.72,0,0,0,272.13,135Z" transform="translate(0 0.09)"/>
      <path class="e37ad8ca-4040-467a-baa5-0a927beea891" d="M272.42,136.54a4,4,0,0,1-2.21-.31,4.26,4.26,0,0,1-1-1.19v.09a2.63,2.63,0,0,0,3,2.16,3.25,3.25,0,0,0,.42-.11,3,3,0,0,0,1.92-2A3.88,3.88,0,0,1,272.42,136.54Z" transform="translate(0 0.09)"/>
      <g>
        <path class="a32b0d46-0d03-4a07-a759-f564f1da7664" d="M266.9,253.85s1,4.53.45,5.54a1.86,1.86,0,0,0,1.44.65,19.62,19.62,0,0,0,3.9-.39c-.37-1.49.22-5.33.17-6.17a30.38,30.38,0,0,1-4.35.73C267.26,254.26,266.9,253.85,266.9,253.85Z" transform="translate(0 0.09)"/>
        <g>
          <path class="a32b0d46-0d03-4a07-a759-f564f1da7664" d="M268.46,262.59a45.27,45.27,0,0,1-6.88-.29,2.25,2.25,0,0,0-.07.52c0,.92,9.35,1.24,11,.41a1.44,1.44,0,0,0,.69-1.29A28,28,0,0,1,268.46,262.59Z" transform="translate(0 0.09)"/>
          <path class="f0e99dde-2eaa-440a-b928-56b317e6dbea" d="M268.46,262.59a28.43,28.43,0,0,0,4.7-.65,4.42,4.42,0,0,0-.31-1.83,3.5,3.5,0,0,1-.14-.46,19.62,19.62,0,0,1-3.9.39,1.86,1.86,0,0,1-1.44-.65v.06a4.72,4.72,0,0,1-2.06,1.06c-1.49.7-3.31.25-3.69,1.79A44.69,44.69,0,0,0,268.46,262.59Z" transform="translate(0 0.09)"/>
        </g>
      </g>
      <g>
        <path class="a32b0d46-0d03-4a07-a759-f564f1da7664" d="M296.9,254.81s1.66,4.45,1.1,5.46a1.86,1.86,0,0,0,1.45.66,21.12,21.12,0,0,0,3.89-.39c-.37-1.49.22-5.34.18-6.18A21.68,21.68,0,0,1,300,255,14.33,14.33,0,0,1,296.9,254.81Z" transform="translate(0 0.09)"/>
        <g>
          <path class="a32b0d46-0d03-4a07-a759-f564f1da7664" d="M299.05,263.48a45.34,45.34,0,0,1-6.89-.29,4.46,4.46,0,0,0-.07.51c0,.93,9.36,1.25,11,.42a1.47,1.47,0,0,0,.69-1.29A30.07,30.07,0,0,1,299.05,263.48Z" transform="translate(0 0.09)"/>
          <path class="f0e99dde-2eaa-440a-b928-56b317e6dbea" d="M299.05,263.48a29.69,29.69,0,0,0,4.7-.65,4.4,4.4,0,0,0-.32-1.83c-.05-.15-.1-.3-.14-.46a21.12,21.12,0,0,1-3.89.39,1.86,1.86,0,0,1-1.45-.66.09.09,0,0,1,0,.07,5,5,0,0,1-2.05,1.06c-1.5.69-3.32.24-3.7,1.79A44.87,44.87,0,0,0,299.05,263.48Z" transform="translate(0 0.09)"/>
        </g>
      </g>
      <path class="e85b29d4-231f-478a-a359-0569666bb338" d="M253.41,185.72s13.85-30.9,7.51-49.83c-4.06-12.11-21.08-16.69-28.11-8.56a27.64,27.64,0,0,0-6.56,17.78s-15.6-9.18-25.22,3.17C187.76,165.28,215.08,190,253.41,185.72Z" transform="translate(0 0.09)"/>
      <g>
        <path class="a9d3f8ae-7579-4f1f-bfd7-fa001190ae3c" d="M284.61,142.72c5.4.86,4,23.42-5.46,32.83-10.59,10.52-21.39-6.59-19.74-14.18.95-4.38,1.88-6,4.83-2.7,2.17,2.4,6.88,10.43,8.52,10.2C274.17,168.72,277.66,141.64,284.61,142.72Z" transform="translate(0 0.09)"/>
        <path class="e37ad8ca-4040-467a-baa5-0a927beea891" d="M272.9,168.72h0c1.51-2.11,5-27.06,11.67-26h.11c-.46.29-1.14,1.13-2,3.39C281,150.49,275.32,168.78,272.9,168.72Z" transform="translate(0 0.09)"/>
        <path class="e37ad8ca-4040-467a-baa5-0a927beea891" d="M261.14,157.21a31.72,31.72,0,0,0,.28,3.77,21.42,21.42,0,0,0,1.78,6.38c1.2,2.46,2.26,6.24,6.43,8.92,3,2,7.38.3,9.55-.75h0c-10.59,10.52-21.39-6.59-19.74-14.18a11.36,11.36,0,0,1,1.3-3.83Z" transform="translate(0 0.09)"/>
      </g>
      <path class="e37ad8ca-4040-467a-baa5-0a927beea891" d="M257.78,155.94c-.55-.18-.8-.39-.76,0s.92.88,1.43,1,.2.44.2.44h0c-1.08.47-3.58-.49-3.45-.06a7.65,7.65,0,0,0,2.57,2.79c.53.3,2.7-.19,3.79-.47a1.56,1.56,0,0,0,1.2-1.19c.12-.6-.08-1.37-1.35-2.07S258.33,156.12,257.78,155.94Z" transform="translate(0 0.09)"/>
    </g>
    <g>
      <path class="e37ad8ca-4040-467a-baa5-0a927beea891" d="M68.6,151.82S66.36,164,53.5,163s-8-13.13-1.31-14.11S68.6,151.82,68.6,151.82Z" transform="translate(0 0.09)"/>
      <path class="f0e99dde-2eaa-440a-b928-56b317e6dbea" d="M39.14,119.16s-1-7.51-11.73-7.29S7.52,116,6.8,120s-3.7,44.08,3.7,49,32.15,5.67,31.57-8.49S39.14,119.16,39.14,119.16Z" transform="translate(0 0.09)"/>
      <path class="a9d3f8ae-7579-4f1f-bfd7-fa001190ae3c" d="M50.17,155.43a105.6,105.6,0,0,1-27.22,1c-.28,1.06-.59,2.17-.95,3.34a217,217,0,0,0-7.62,37.87c-2.56,21.84-3,51.46-3,51.46s5.27.11,7.37,0c0,0,7.14-36.82,10.58-47.73.7-2.22,1.28-7,2.69-11.67,1.91-6.23,4.71-12.56,5.6-15.9l2.83,30.27a29.6,29.6,0,0,0-1.55,9.09c0,7.13,2.85,35.91,2.85,35.91s3,.09,6.38,0c0,0,13.63-71.17,9.85-83.32C56.9,162.33,51.55,158.78,50.17,155.43Z" transform="translate(0 0.09)"/>
      <path class="a89105b0-4d67-4433-bd7c-1b7c5925fe3c" d="M57,164.51c0-7.42.94-30.4.94-30.4s-.3-6-.91-11a9.5,9.5,0,0,0-6.68-8c-9.67-2.92-23.6-4.73-32.72,6.18-2.68,3.21,5,11.14,6,17.08,0,0,1.44,9.56-2.19,23.3C26.42,164.8,46,165.9,57,164.51Z" transform="translate(0 0.09)"/>
      <path class="e37ad8ca-4040-467a-baa5-0a927beea891" d="M48.13,249.07c-3.4.09-6.35,0-6.35,0s-2.88-28.78-2.88-35.91A29.8,29.8,0,0,1,40.46,204l-2.23-23.8c2.07,1.44,7.53,5.64,8.2,10.52.83,6,1.46,12.49,0,15.2s-.1,29,.1,34.67C46.66,243.45,47.84,246.53,48.13,249.07Z" transform="translate(0 0.09)"/>
      <path class="e37ad8ca-4040-467a-baa5-0a927beea891" d="M14.38,197.61a221.84,221.84,0,0,1,6.82-35.19,82.64,82.64,0,0,1,.42,19.12c-1.35,12.34,1.61,19.68.62,26.09S18,246.21,17.66,249.11H11.42S11.82,219.45,14.38,197.61Z" transform="translate(0 0.09)"/>
      <path class="a57f73cb-4b20-479f-a58d-44697a34d1f0" d="M20.83,199.45l7.78,4.44c.26-.79.55-1.88.76-2.55.11-.36.22-.78.33-1.27Z" transform="translate(0 0.09)"/>
      <path class="a57f73cb-4b20-479f-a58d-44697a34d1f0" d="M55.7,203.82c.26-1.57.44-3.25.68-4.82a4.68,4.68,0,0,0-1.79-.08c-2.7.56-10,3.18-10,3.18S51.45,203.46,55.7,203.82Z" transform="translate(0 0.09)"/>
      <path class="a18f4db9-9e9b-46ad-a543-de5177a856fc" d="M50.72,127.06s-1.61-9.38-3.13-12.73a8.48,8.48,0,0,0-4.91-1s2.51,6.38,2.37,9.83L34.7,124.38l-3.1-11.1a17.14,17.14,0,0,0-6.83,2.23s13.38,16.76-2.31,41.67h0l-1.85,7.34c-.56,2.09-1.11,4.26-1.63,6.49h0a249.15,249.15,0,0,0-4.6,26.59c2.61.72,12,3.64,18.39,4.54,1.91-6.06,2.7-21.34,3.77-24.61.27-.82,1.08-.18,1.17.67l1.67,23.91a112.66,112.66,0,0,0,17.13-.8C65.77,168.23,50.72,127.06,50.72,127.06Z" transform="translate(0 0.09)"/>
      <path class="a682db94-7778-4b39-aae5-e38098762e19" d="M19,171h0c.52-2.23,1.07-4.4,1.63-6.49l1.85-7.34h0c15.69-24.91,2.31-41.67,2.31-41.67a15.81,15.81,0,0,1,2.89-1.35c.79,1.61,2.23,4.65,3.86,8.83,2.5,6.39,1.87,9.81,1.09,16s-3.16,18.71-2.91,25-2.8,22.54-4.49,26.6c-1.56,3.82-3.36,8.53-3.57,9.07-3.25-.88-6-1.72-7.26-2.06A249.15,249.15,0,0,1,19,171Z" transform="translate(0 0.09)"/>
      <path class="a291fa3f-ed8e-4403-846c-258b3fd6a4c2" d="M36.36,132.44H49.23s.28,2.61-2.36,6C44.77,141.18,35.51,140.25,36.36,132.44Z" transform="translate(0 0.09)"/>
      <path class="f0e99dde-2eaa-440a-b928-56b317e6dbea" d="M53.5,249.57c-1.72-.79-2.94-1.11-4.11-2.38a1.25,1.25,0,0,1-.2-.38,1.29,1.29,0,0,0-1.65-.78l0,0c-1.59.68-4.61,1.11-5.28,2.2-1.12,1.81-1.39,4.17-.06,4.84,2.53,1.28,17.38.67,17.14-.76C59.14,251.47,56.07,250.72,53.5,249.57Z" transform="translate(0 0.09)"/>
      <path class="f0e99dde-2eaa-440a-b928-56b317e6dbea" d="M22.6,249.57c-1.72-.79-2.94-1.11-4.11-2.38a1.25,1.25,0,0,1-.2-.38,1.29,1.29,0,0,0-1.65-.78l-.05,0c-1.6.68-4.61,1.11-5.28,2.2-1.12,1.81-1.39,4.17-.06,4.84,2.52,1.28,17.38.67,17.13-.76C28.24,251.47,25.17,250.72,22.6,249.57Z" transform="translate(0 0.09)"/>
      <path class="f0e99dde-2eaa-440a-b928-56b317e6dbea" d="M23.51,114.34s2.5.2,4.77,6.37c1.77,4.82,4.92,19.77-5.94,27l-2-5.07a19.32,19.32,0,0,0,5.27-10.15c1.14-6.36-2.73-14.52-4.45-15.59S23.51,114.34,23.51,114.34Z" transform="translate(0 0.09)"/>
      <path class="f0e99dde-2eaa-440a-b928-56b317e6dbea" d="M45.75,113.6s4.67.74,7.56,7A48.66,48.66,0,0,1,58,138.06v.47c.09,1.33.37,7.06-.56,9.2,0,0-3.25-25.13-15.43-34.45A6.59,6.59,0,0,1,45.75,113.6Z" transform="translate(0 0.09)"/>
      <path class="a682db94-7778-4b39-aae5-e38098762e19" d="M43.2,182.35c-.42,3.64-2.88,4-.49,7.16,2.25,2.93,5.29,7.38,4.59,12.56a77.32,77.32,0,0,1-7.92,0l-1.67-23.91a1.46,1.46,0,0,0-.24-.67S43.61,178.72,43.2,182.35Z" transform="translate(0 0.09)"/>
      <g>
        <path class="a32b0d46-0d03-4a07-a759-f564f1da7664" d="M42,104.52s0-2.82-2.59-3c-3.66-.33-4.87,3.67-4.23,5.12.89,2,2.25,1.45,3.53.73A21.3,21.3,0,0,0,42,104.52Z" transform="translate(0 0.09)"/>
        <path class="f0e99dde-2eaa-440a-b928-56b317e6dbea" d="M36.9,105.59s2.82-3.41,4.62-3.83c2.47-.58,3.26,1.59,2.78,2.6a8.23,8.23,0,0,1-3.69,2.9C39.9,107.28,36.9,105.59,36.9,105.59Z" transform="translate(0 0.09)"/>
        <g>
          <path class="a9d3f8ae-7579-4f1f-bfd7-fa001190ae3c" d="M36.62,108l-2.15,6.55c0,.92,5,3.42,6.41,2.24.42-.34.3-1.22-.11-2.17l-2.43-5.18Z" transform="translate(0 0.09)"/>
          <path class="a57f73cb-4b20-479f-a58d-44697a34d1f0" d="M38.83,110.46l-2.4-.42A4.42,4.42,0,0,0,38,112.86a4.26,4.26,0,0,0,2.46,1Z" transform="translate(0 0.09)"/>
          <g>
            <path class="a57f73cb-4b20-479f-a58d-44697a34d1f0" d="M42,105.85s.81-.68-.09-2-5.75,1.82-6.1,3.12a4.75,4.75,0,0,0,.12,3.2S41.6,108.14,42,105.85Z" transform="translate(0 0.09)"/>
            <path class="a9d3f8ae-7579-4f1f-bfd7-fa001190ae3c" d="M37.9,105.81l-1.38,3.57a2.34,2.34,0,0,0,1.5,2.89,6.52,6.52,0,0,0,2.84.27c1-.07,1.63-1,1.71-2.4a12.76,12.76,0,0,0-.59-4.29C41.37,103.86,39,103.56,37.9,105.81Z" transform="translate(0 0.09)"/>
            <path class="a57f73cb-4b20-479f-a58d-44697a34d1f0" d="M36.53,109.38l1.37-3.57a4.73,4.73,0,0,1,.45-.71,8.52,8.52,0,0,0,0,2.57c.47.71.46.08,1.69.11a7.34,7.34,0,0,1,2.48.74,9.75,9.75,0,0,1,0,1.62c-.08,1.36-.66,2.33-1.71,2.4a6.52,6.52,0,0,1-2.84-.27A2.33,2.33,0,0,1,36.53,109.38Z" transform="translate(0 0.09)"/>
            <path class="a32b0d46-0d03-4a07-a759-f564f1da7664" d="M39.9,108.58a6.29,6.29,0,0,0,2.07.17s0,.8-.5,1S40.18,109.54,39.9,108.58Z" transform="translate(0 0.09)"/>
            <path class="f0e99dde-2eaa-440a-b928-56b317e6dbea" d="M41.27,111.21c-1.15-.3-2.13,1.41-4.1-.37a3.1,3.1,0,0,1-.61-1.54v.08a2.34,2.34,0,0,0,1.5,2.89,6.52,6.52,0,0,0,2.84.27,1.61,1.61,0,0,0,1.39-1A6.07,6.07,0,0,1,41.27,111.21Z" transform="translate(0 0.09)"/>
            <path class="a9d3f8ae-7579-4f1f-bfd7-fa001190ae3c" d="M37.9,107.29a4.21,4.21,0,0,1,0-.71c0-.45,0-1.13-.73-.83-1,.42-1.13,2.61,0,2.85C38,108.78,38,107.88,37.9,107.29Z" transform="translate(0 0.09)"/>
          </g>
        </g>
      </g>
      <g>
        <path class="a89105b0-4d67-4433-bd7c-1b7c5925fe3c" d="M31.49,152.37l29.14-3.47,17.27,2.47-28.28,3.35-18.48-2.13A.48.48,0,0,1,31.49,152.37Z" transform="translate(0 0.09)"/>
        <path class="be7ce65f-1d62-46cd-a58b-b8e2b7b5ef2d" d="M49.62,154.72l-.72,2.38h-.12l-17.2-2.64a.47.47,0,0,1-.38-.39l-.14-1.18a.5.5,0,0,1,.05-.27Z" transform="translate(0 0.09)"/>
        <polygon class="a67db407-9708-4d35-89e7-55423b785efe" points="50.5 153.96 35.54 152.59 51.67 150.68 50.5 153.96"/>
        <path class="a89105b0-4d67-4433-bd7c-1b7c5925fe3c" d="M49.62,154.72l28.28-3.35,4.33-23.65a.79.79,0,0,0-.61-.93.82.82,0,0,0-.27,0l-26.58,3.16a.79.79,0,0,0-.69.65Z" transform="translate(0 0.09)"/>
        <path class="a67db407-9708-4d35-89e7-55423b785efe" d="M65.16,140.11a1.66,1.66,0,1,0,1.94-1.6A1.79,1.79,0,0,0,65.16,140.11Z" transform="translate(0 0.09)"/>
        <path class="a57f73cb-4b20-479f-a58d-44697a34d1f0" d="M77.9,151.37l-1.12,1.86a1.68,1.68,0,0,1-1.25.81l-25.61,3a4.18,4.18,0,0,1-1,0l.69-2.37Z" transform="translate(0 0.09)"/>
        <path class="e1585c57-1e58-4d37-a474-5e1587595529" d="M72.76,129.46l5.32-.63a1.87,1.87,0,0,1,2.09,1.63,2,2,0,0,1,0,.6l-1.45,7.31a.55.55,0,0,1-.64.44.58.58,0,0,1-.44-.44c-.36-2.45-1-5.41-2-6s-2.15-1.31-3.06-1.87a.54.54,0,0,1,.21-1Z" transform="translate(0 0.09)"/>
      </g>
      <path class="a9d3f8ae-7579-4f1f-bfd7-fa001190ae3c" d="M21.9,120.79c-3.1-1.4-8.38,3.21-13.67,11.78C4.48,138.64-.15,146.12,0,154.37c.36,19.9,29,7.7,37.13,5.72,5.28-1.3,4.91-6.8,2.88-7.22-7.56-1.53-24.19.92-25.25-1-1.19-2.2,2.31-6.83,6.08-15.45C23.35,130.72,25.22,122.26,21.9,120.79Z" transform="translate(0 0.09)"/>
      <path class="e37ad8ca-4040-467a-baa5-0a927beea891" d="M0,154.37c-.15-8.25,4.48-15.73,8.23-21.8,4-6.55,8.08-10.78,11.14-11.79C16.6,124.34,8,135.51,5.59,142.06c-2.92,7.86-2.38,12.71,0,16.41s10.92,5.54,16.86,3.39,18.25-5.53,18.8-5.3a5.28,5.28,0,0,1-4.08,3.53C29.08,162.07.4,174.27,0,154.37Z" transform="translate(0 0.09)"/>
      <path class="e37ad8ca-4040-467a-baa5-0a927beea891" d="M39,153.07c1.42-.62,3.06.11,4.69-.33s1.68.73.57,1.4a2.74,2.74,0,0,1-1.25.39c.62.69,3.32,1.78,4.4,2.19a.25.25,0,0,1,.14.33.29.29,0,0,1-.14.13,6.65,6.65,0,0,1-2.77.71c-2.42.19-5.07.18-6.16-.93C37.83,156.26,37.59,153.72,39,153.07Z" transform="translate(0 0.09)"/>
      <path class="a89105b0-4d67-4433-bd7c-1b7c5925fe3c" d="M8.27,132.57c5.29-8.57,10.57-13.18,13.67-11.78,3.28,1.47,2.47,9.71,0,15.35-1.28,2.91-3,6.12-4.06,8.18-2.71-.37-9.5-2.1-13.24-5.63C5.83,136.52,7.09,134.48,8.27,132.57Z" transform="translate(0 0.09)"/>
      <path class="a57f73cb-4b20-479f-a58d-44697a34d1f0" d="M8.27,132.57c4.76-7.7,9.5-12.2,12.67-12-2.56,3.1-7.37,9.24-8.85,13.14a77.4,77.4,0,0,0-2.5,8.15,18.17,18.17,0,0,1-4.94-3.14C5.83,136.52,7.09,134.48,8.27,132.57Z" transform="translate(0 0.09)"/>
    </g>
    <g>
      <g>
        <path class="a9d3f8ae-7579-4f1f-bfd7-fa001190ae3c" d="M166.9,274.93c-.65-1.11-.56-2.33-1-3.89l-4.81-.28s1.1,2.15.45,3.06c-.29.4-5.46,2.52-5.56,3.09-.18.94,9.61,1.53,11.3.72C168.11,277.21,167.58,276.14,166.9,274.93Z" transform="translate(0 0.09)"/>
        <path class="a57f73cb-4b20-479f-a58d-44697a34d1f0" d="M166.68,274.48c-1.08,0-2.12.74-3.83.73-1.46,0-1.76-.64-1.78-1.11-1.29.71-5,2.33-5.14,2.81-.18.94,9.61,1.53,11.3.72.88-.42.35-1.49-.36-2.7A2.25,2.25,0,0,1,166.68,274.48Z" transform="translate(0 0.09)"/>
      </g>
      <g>
        <path class="a9d3f8ae-7579-4f1f-bfd7-fa001190ae3c" d="M180.9,274.72c.74-1.05-.2-1.85-.69-3.87l5.41-.21a10.85,10.85,0,0,0,.74,3.42c.25.42,5.22,3,5.28,3.53.1,1-9.7.74-11.32-.2C179.45,276.85,180.06,275.83,180.9,274.72Z" transform="translate(0 0.09)"/>
        <path class="a57f73cb-4b20-479f-a58d-44697a34d1f0" d="M181.1,274.25c1.07.12,2,.91,3.75,1,1.46.12,1.81-.5,1.87-1,1.22.81,4.84,2.73,4.89,3.21.1,1-9.7.74-11.32-.2-.84-.5-.23-1.52.58-2.67A1.85,1.85,0,0,0,181.1,274.25Z" transform="translate(0 0.09)"/>
      </g>
      <path class="e37ad8ca-4040-467a-baa5-0a927beea891" d="M167.44,174.81c-4.53-4.26-18.41,11.92-20.65,12.84-5.34,2.17-21-12.48-23.77-8.9s16.58,18.11,24.88,16.78S172.52,179.58,167.44,174.81Z" transform="translate(0 0.09)"/>
      <path class="a9d3f8ae-7579-4f1f-bfd7-fa001190ae3c" d="M147.52,214.39a100.09,100.09,0,0,0,14.1,58.72c.66,1.12,4.65.07,4.65.07.17-1.67-.89-26-5.59-34.79-1.71-3.19,1.84-27.54,2.61-27.4C163.84,211.09,148,207.46,147.52,214.39Z" transform="translate(0 0.09)"/>
      <path class="bbf7dfed-9044-434b-875c-d9651ad22b37" d="M172.9,166c-4.56-2.8-10.51-.56-14.21,3.08-2.79,2.75-1.32,5.73-1.3,8.18,0,3.47-1.71,9.57-2,13.72a3,3,0,0,1-.15.72c3.8.39,14.2.9,21.92-1.54-.69-1.28-.82-10.39-.44-14.84C176.9,173.72,177,168.42,172.9,166Z" transform="translate(0 0.09)"/>
      <path class="e37ad8ca-4040-467a-baa5-0a927beea891" d="M166.24,270.52c-.24-6.26-1.42-21.68-4.56-29.89h-4.91s4.35,14.76,5.67,20A61.36,61.36,0,0,0,166.24,270.52Z" transform="translate(0 0.09)"/>
      <path class="b1c68250-2ae9-449e-a4ae-9708cfc110e1" d="M176.79,175.27c.13-1.57.18-6.85-3.85-9.32a8.21,8.21,0,0,0-2.43-1,26,26,0,0,1,.21,12.4,45.18,45.18,0,0,0-.54,14.21,38.51,38.51,0,0,0,7-1.44C176.54,188.83,176.41,179.72,176.79,175.27Z" transform="translate(0 0.09)"/>
      <g>
        <path class="a57f73cb-4b20-479f-a58d-44697a34d1f0" d="M170.25,154.12a3.18,3.18,0,0,1,3.45-2.86l.3,0c3.51.32,3.79,5.44,2.55,7.06s.79,2.12,1.41,4.16-2.36,3.2-4.06,1.59S170.25,154.12,170.25,154.12Z" transform="translate(0 0.09)"/>
        <path class="f0e99dde-2eaa-440a-b928-56b317e6dbea" d="M170.48,153.22a15.86,15.86,0,0,0,3,1.94,13.86,13.86,0,0,0,3.7,1.51,3.43,3.43,0,0,1-.61,1.69c-1.25,1.62.79,2.12,1.41,4.16s-2.38,3.2-4.08,1.59-3.62-10-3.62-10A4,4,0,0,1,170.48,153.22Z" transform="translate(0 0.09)"/>
        <path class="a57f73cb-4b20-479f-a58d-44697a34d1f0" d="M167.46,154.35a1.86,1.86,0,0,0-2.27-.09c-1.06.67-.61,4.18,0,5.62s4.67,3.3,4.67,3.3a10.21,10.21,0,0,0,2.78-5.16C172.9,156.06,170.9,151.88,167.46,154.35Z" transform="translate(0 0.09)"/>
        <path class="f0e99dde-2eaa-440a-b928-56b317e6dbea" d="M164.65,155.23a2.27,2.27,0,0,0,.7.61c1.46.91,5.57,1.34,6.4,1.2a5.44,5.44,0,0,0,.82-.19,3.29,3.29,0,0,1,0,1.17,10.21,10.21,0,0,1-2.78,5.16s-4.1-1.86-4.67-3.3A10.05,10.05,0,0,1,164.65,155.23Z" transform="translate(0 0.09)"/>
        <g>
          <path class="a9d3f8ae-7579-4f1f-bfd7-fa001190ae3c" d="M170.12,160.63l.13,4.78c0,.78-1.89,2.83-3.14,1.86-.37-.29.09-1.38.42-2.2l.87-4.12Z" transform="translate(0 0.09)"/>
          <path class="a57f73cb-4b20-479f-a58d-44697a34d1f0" d="M167.9,163.4a2.74,2.74,0,0,0,2-2l-1.61.12Z" transform="translate(0 0.09)"/>
          <path class="a9d3f8ae-7579-4f1f-bfd7-fa001190ae3c" d="M170,157.72l.31,1.83a2.74,2.74,0,0,1-2.1,3.19,2.36,2.36,0,0,1-2.81-1.8c0-.13,0-.25-.05-.38-.2-1.5.85-2.81,1.22-3.5C167.43,155.54,169.48,155.72,170,157.72Z" transform="translate(0 0.09)"/>
          <path class="a9d3f8ae-7579-4f1f-bfd7-fa001190ae3c" d="M170,159.53a2.11,2.11,0,0,0,.12-.48c0-.3.18-.75.6-.46.62.43.29,2-.49,2.06C169.62,160.66,169.83,159.91,170,159.53Z" transform="translate(0 0.09)"/>
          <path class="a9d3f8ae-7579-4f1f-bfd7-fa001190ae3c" d="M166.11,159a4,4,0,0,1,0-.49c0-.31,0-.77-.5-.57-.68.29-.68,2,.08,2.11C166.23,160.2,166.18,159.43,166.11,159Z" transform="translate(0 0.09)"/>
          <path class="a32b0d46-0d03-4a07-a759-f564f1da7664" d="M168.26,160.37a5.25,5.25,0,0,1-1.76-.21,2.15,2.15,0,0,0,.52,1.07C167.39,161.52,167.9,161.13,168.26,160.37Z" transform="translate(0 0.09)"/>
          <path class="e37ad8ca-4040-467a-baa5-0a927beea891" d="M168,162.18a3.59,3.59,0,0,1-1.94-.5,3.93,3.93,0,0,1-.76-1.17.14.14,0,0,1,0,.09,2.36,2.36,0,0,0,2.86,2.18,2.6,2.6,0,0,0,1.91-1.58A3.36,3.36,0,0,1,168,162.18Z" transform="translate(0 0.09)"/>
        </g>
      </g>
      <path class="a9d3f8ae-7579-4f1f-bfd7-fa001190ae3c" d="M165.76,224.23s6.09,21.72,7.32,26.23c1,3.58,4.32,16.38,7.67,21.41.86,1.3,5.6,3.05,5.58,2.15-.09-3.42-4.32-48.72-5.55-52.33S165.76,224.23,165.76,224.23Z" transform="translate(0 0.09)"/>
      <path class="a57f73cb-4b20-479f-a58d-44697a34d1f0" d="M147.52,214.39c.46-6.1,3.29-14.83,8-24.63,7.81,2.09,17.93.92,21.72.35.57,1.63,2.26,4.74,2.83,9,1.18,8.91,4.89,34.78,5.39,40.91-1.1.53-2.33-.56-4.1,1.35-1.63,1.75-5.89.66-7.88,1.1-2.77.61-2.65,2.29-8.77,2.45-2.64.07-4.71-1.21-6.68-1.35-2.2-.15-4.23.84-5.8.49s-2.6-1.43-3.81-1.86-2.66-.22-3.67-.59C144.33,236.36,147.17,219,147.52,214.39Z" transform="translate(0 0.09)"/>
      <path class="e37ad8ca-4040-467a-baa5-0a927beea891" d="M186.14,273.63l.17.05c-.28-5.33-4.33-48.47-5.53-52-.32-.92-1.46-1.2-3-1.11-.84,6.47-1.31,12.8-.57,16.07C179.1,245,183.21,272.33,186.14,273.63Z" transform="translate(0 0.09)"/>
      <path class="f0e99dde-2eaa-440a-b928-56b317e6dbea" d="M185.45,240c-.5-6.13-4.21-32-5.39-40.91-.57-4.26-2.26-7.37-2.83-9-1.59.24-4.29.58-7.47.75a40.8,40.8,0,0,0,.06,5.85c.61,7.77,4,36.26,4.61,45.66,2.18-.08,5.52.51,6.92-1C183.12,239.46,184.35,240.55,185.45,240Z" transform="translate(0 0.09)"/>
      <g>
        <path class="bbf7dfed-9044-434b-875c-d9651ad22b37" d="M179.82,197.72c-.1-.54-.23-1.05-.36-1.55-10.14,2.29-21.14,1-26.81,0-.21.51-.42,1-.62,1.51A84.36,84.36,0,0,0,166.9,199,59,59,0,0,0,179.82,197.72Z" transform="translate(0 0.09)"/>
        <path class="bbf7dfed-9044-434b-875c-d9651ad22b37" d="M166.82,209.2a69.17,69.17,0,0,0,14.43-1.42c-.08-.53-.15-1-.22-1.56-12.31,2.68-25.61.9-31.87-.25q-.21.78-.42,1.53A102.58,102.58,0,0,0,166.82,209.2Z" transform="translate(0 0.09)"/>
        <path class="bbf7dfed-9044-434b-875c-d9651ad22b37" d="M165,218.89A76.1,76.1,0,0,0,182.52,217c-.07-.52-.15-1-.22-1.57-13.57,3.29-28.42,1.49-34.93.4-.05.47-.11,1-.18,1.57A111.58,111.58,0,0,0,165,218.89Z" transform="translate(0 0.09)"/>
        <path class="bbf7dfed-9044-434b-875c-d9651ad22b37" d="M146.09,225.84l-.21,1.57A116,116,0,0,0,164.67,229a78.27,78.27,0,0,0,19.23-2.18l-.21-1.58C169.09,229,152.9,227,146.09,225.84Z" transform="translate(0 0.09)"/>
        <path class="bbf7dfed-9044-434b-875c-d9651ad22b37" d="M185.09,236.6,184.9,235c-15.74,4.49-33.8,1.87-40,.74q-.07.83-.12,1.59a115.79,115.79,0,0,0,19.84,1.78A76.85,76.85,0,0,0,185.09,236.6Z" transform="translate(0 0.09)"/>
      </g>
      <g>
        <path class="b1c68250-2ae9-449e-a4ae-9708cfc110e1" d="M170,199a56.66,56.66,0,0,0,9.8-1.27h0c-.11-.54-.23-1-.36-1.55a54.23,54.23,0,0,1-9.59,1.22C169.9,197.84,170,198.38,170,199Z" transform="translate(0 0.09)"/>
        <path class="b1c68250-2ae9-449e-a4ae-9708cfc110e1" d="M170.9,207.52c.06.51.11,1,.17,1.56a63.28,63.28,0,0,0,10.18-1.3c-.08-.53-.15-1-.22-1.56A62.67,62.67,0,0,1,170.9,207.52Z" transform="translate(0 0.09)"/>
        <path class="b1c68250-2ae9-449e-a4ae-9708cfc110e1" d="M171.9,217c0,.52.11,1,.17,1.57A68.91,68.91,0,0,0,182.48,217c-.07-.52-.15-1-.22-1.57A65.85,65.85,0,0,1,171.9,217Z" transform="translate(0 0.09)"/>
        <path class="b1c68250-2ae9-449e-a4ae-9708cfc110e1" d="M183.9,226.82h0l-.21-1.56a67.08,67.08,0,0,1-10.63,1.81c.06.53.11,1,.17,1.57A70,70,0,0,0,183.9,226.82Z" transform="translate(0 0.09)"/>
        <path class="b1c68250-2ae9-449e-a4ae-9708cfc110e1" d="M185.09,236.6,184.9,235h0a63.76,63.76,0,0,1-10.89,2c0,.55.1,1.07.14,1.57A66.52,66.52,0,0,0,185.09,236.6Z" transform="translate(0 0.09)"/>
      </g>
      <g>
        <path class="e6e4f901-ad34-424a-a9a1-3389971f859b" d="M80.34,142.91c3.24-.83,5.24-4,4.93-5.16s-3.56-3-6.8-2.14-5.45,3.14-4.94,5.16S77.1,143.72,80.34,142.91Z" transform="translate(0 0.09)"/>
        <g>
          <path class="e6e4f901-ad34-424a-a9a1-3389971f859b" d="M134.66,209.3a2,2,0,0,0,1.65-2.25c-.16-.56-16.25-54.73-15.31-65.76s3.65-17.29,3.67-17.35a.77.77,0,1,0-1.41-.62c-.12.26-2.84,6.55-3.8,17.84s11.93,65.48,12.57,67.77C132.12,209.27,133.29,209.72,134.66,209.3Z" transform="translate(0 0.09)"/>
          <path class="e6e4f901-ad34-424a-a9a1-3389971f859b" d="M121.25,118c-.71,3.27,1.19,6.46,2.39,6.72,1.36.3,4.26-1.84,5-5.11s-.35-6.28-2.38-6.73S122,114.77,121.25,118Z" transform="translate(0 0.09)"/>
          <ellipse class="e6e4f901-ad34-424a-a9a1-3389971f859b" cx="116.58" cy="126.68" rx="3.77" ry="6.06" transform="translate(-42.32 193.02) rotate(-70.01)"/>
          <ellipse class="e6e4f901-ad34-424a-a9a1-3389971f859b" cx="114.69" cy="137.23" rx="3.77" ry="6.06" transform="translate(-53.48 198.19) rotate(-70.01)"/>
          <ellipse class="e6e4f901-ad34-424a-a9a1-3389971f859b" cx="128.32" cy="128.93" rx="6.06" ry="3.77" transform="translate(-2.56 2.69) rotate(-1.15)"/>
          <ellipse class="e6e4f901-ad34-424a-a9a1-3389971f859b" cx="126.3" cy="137.61" rx="6.06" ry="3.77" transform="translate(-30.25 35.82) rotate(-14.4)"/>
          <path class="e6e4f901-ad34-424a-a9a1-3389971f859b" d="M127.54,149.79c2.57,2.15,6.28,1.94,7.06,1s.34-4.63-2.23-6.78-5.73-2.59-7.06-1S125,147.64,127.54,149.79Z" transform="translate(0 0.09)"/>
          <ellipse class="e6e4f901-ad34-424a-a9a1-3389971f859b" cx="141.52" cy="137.91" rx="3.77" ry="6.06" transform="matrix(0.99, -0.11, 0.11, 0.99, -14.11, 16.24)"/>
          <ellipse class="e6e4f901-ad34-424a-a9a1-3389971f859b" cx="155.34" cy="135.14" rx="6.06" ry="3.77" transform="translate(-48.96 109.6) rotate(-33.87)"/>
          <ellipse class="e6e4f901-ad34-424a-a9a1-3389971f859b" cx="140.27" cy="152.27" rx="3.77" ry="6.06" transform="translate(-49.03 236.17) rotate(-71.23)"/>
          <ellipse class="e6e4f901-ad34-424a-a9a1-3389971f859b" cx="148.06" cy="145.84" rx="3.77" ry="6.06" transform="translate(-37.66 239.19) rotate(-71.23)"/>
          <ellipse class="e6e4f901-ad34-424a-a9a1-3389971f859b" cx="98.18" cy="144.2" rx="6.06" ry="3.77" transform="translate(-56.5 63.63) rotate(-28.21)"/>
          <ellipse class="e6e4f901-ad34-424a-a9a1-3389971f859b" cx="103.99" cy="135.8" rx="6.06" ry="3.77" transform="translate(-50.87 208.51) rotate(-77.68)"/>
          <ellipse class="e6e4f901-ad34-424a-a9a1-3389971f859b" cx="88.47" cy="142.66" rx="6.06" ry="3.77" transform="translate(-77.19 115.64) rotate(-48.9)"/>
          <ellipse class="e6e4f901-ad34-424a-a9a1-3389971f859b" cx="90.9" cy="132.71" rx="3.77" ry="6.06" transform="translate(-18.35 14.74) rotate(-8.37)"/>
          <path class="e6e4f901-ad34-424a-a9a1-3389971f859b" d="M121.82,155.72a.78.78,0,0,0,.76-.8.75.75,0,0,0-.19-.49,67.56,67.56,0,0,0-11.5-9.77c-9.15-6.17-18.18-8.79-26.12-7.56a.77.77,0,1,0,.23,1.53c18.32-2.84,36.06,16.64,36.24,16.83A.77.77,0,0,0,121.82,155.72Z" transform="translate(0 0.09)"/>
          <path class="e6e4f901-ad34-424a-a9a1-3389971f859b" d="M124.15,165.94a.77.77,0,0,0,.69-.43,59.36,59.36,0,0,1,26.8-26.79.78.78,0,0,0,.53-1,.79.79,0,0,0-1-.53l-.16.07a49.64,49.64,0,0,0-10,6.2,62.64,62.64,0,0,0-17.55,21.37.79.79,0,0,0,.34,1A.89.89,0,0,0,124.15,165.94Z" transform="translate(0 0.09)"/>
        </g>
      </g>
      <path class="a57f73cb-4b20-479f-a58d-44697a34d1f0" d="M173.08,171.72l-10.55,12.39a17.07,17.07,0,0,0,2.69,2.12,38,38,0,0,0,5.31-6.37C174,174.77,173.08,171.72,173.08,171.72Z" transform="translate(0 0.09)"/>
      <path class="a57f73cb-4b20-479f-a58d-44697a34d1f0" d="M134.69,183.12a24.68,24.68,0,0,0,12.34,7.6,18.82,18.82,0,0,0,11.47-.6,39.56,39.56,0,0,0,7.33-7.18l-1.39-2s-5.69,5.47-10.78,5.3a33,33,0,0,1-4.42-.55,13.14,13.14,0,0,1-2.45,2C144.25,188.72,139.39,185.92,134.69,183.12Z" transform="translate(0 0.09)"/>
      <path class="a9d3f8ae-7579-4f1f-bfd7-fa001190ae3c" d="M172.13,169.8c-4.53-4.25-18.41,11.92-20.65,12.84-5.34,2.17-21-12.48-23.77-8.9s16.58,18.11,24.91,16.78S177.21,174.57,172.13,169.8Z" transform="translate(0 0.09)"/>
      <path class="e37ad8ca-4040-467a-baa5-0a927beea891" d="M172.75,170.63a21.31,21.31,0,0,1-2.41,4.61,36,36,0,0,1-9.87,9.11c-4.32,2.72-9.21,4.1-14.57,2.19-5.09-1.82-15.63-10.24-18.23-10.93,2.06,5.19,17.69,16.07,25,14.91C160.52,189.26,175.52,176.07,172.75,170.63Z" transform="translate(0 0.09)"/>
      <path class="a9d3f8ae-7579-4f1f-bfd7-fa001190ae3c" d="M129,173.19s-3.06-3-4-2.49-3.38,1.55-3,1.89,2-.59,2-.59-2.14,1.51-2.1,1.81.48.23.48.23a.87.87,0,0,0,.1.63c.19.24,2.21-.61,2.21-.61s2.51,3.59,4.5,1.65S129,173.19,129,173.19Z" transform="translate(0 0.09)"/>
    </g>
  </g>
</svg>
