<svg id="acc7404d-6250-4f24-ac35-96c1f461f091" data-name="acb50989-0b5d-4608-87fc-edf54a74b568" xmlns="http://www.w3.org/2000/svg" viewBox="0 0 27 27">
  <defs>
    <style>
      .e05a422e-66cf-4552-a751-a641a6226072 {
        fill: #83ccd2;
      }

      .bd6d29b0-90d8-4ab9-a1d0-3711c04e9e36 {
        fill: #fff;
      }
    </style>
  </defs>
  <g>
    <circle class="e05a422e-66cf-4552-a751-a641a6226072" cx="13.5" cy="13.5" r="13.5"/>
    <g>
      <path class="bd6d29b0-90d8-4ab9-a1d0-3711c04e9e36" d="M14.8,13.7h0v-.2h0v-.1h0v-.1L9.3,8c-.2-.2-.4-.2-.5,0l-1,1c-.1.1-.2.2-.2.3a.37.37,0,0,0,.1.3l4.1,4.1L7.7,17.8a.5.5,0,0,0,0,.6l1,1a.37.37,0,0,0,.3.1.37.37,0,0,0,.3-.1L14.7,14Z"/>
      <path class="bd6d29b0-90d8-4ab9-a1d0-3711c04e9e36" d="M20.8,13.7h0v-.2h0v-.1h0v-.1L15.4,7.9c-.2-.2-.4-.2-.5,0l-1,1a.5.5,0,0,0,0,.6L18,13.6l-4.1,4.1a.5.5,0,0,0,0,.6l1,1a.5.5,0,0,0,.6,0l5.4-5.4-.1-.2Z"/>
    </g>
  </g>
</svg>
