<svg id="a4b657b1-b206-4ba3-923c-70e94fd91443" data-name="レイヤー 1" xmlns="http://www.w3.org/2000/svg" viewBox="0 0 382.98 293.36">
  <defs>
    <style>
      .bcce1899-046e-449a-ac68-35fff55a3220 {
        opacity: 0;
      }

      .abe49c66-dc5f-4dd3-b17c-277083741f5c {
        fill: none;
      }

      .f18fbe78-fe5d-46af-90d4-d14db4c9c7e4 {
        isolation: isolate;
      }

      .e809ac77-816d-4bcc-929d-f5dfb0217f02 {
        fill: #fff;
      }
    </style>
  </defs>
  <g id="a5d8d988-5e79-4217-922e-86fe5d787bfe" data-name="レイヤー 1 背景" class="bcce1899-046e-449a-ac68-35fff55a3220">
    <rect class="abe49c66-dc5f-4dd3-b17c-277083741f5c" width="382.98" height="293.36"/>
  </g>
  <g id="b3df912a-7d51-491a-b555-b014afa30329" data-name="レイヤー 2 ロゴ">
    <g>
      <g>
        <g class="f18fbe78-fe5d-46af-90d4-d14db4c9c7e4">
          <path class="e809ac77-816d-4bcc-929d-f5dfb0217f02" d="M213.79,55.75c.43.2.86.43,1.28.67a14.13,14.13,0,0,1,1.22.79c.4.28.77.58,1.12.88a9.79,9.79,0,0,1,1,1,6.17,6.17,0,0,1,1.07,1.57,2.26,2.26,0,0,1,.22,1.29,1.22,1.22,0,0,1-.63.86,2.92,2.92,0,0,1-1.51.29c-.27,0-.55,0-.84-.08a8.32,8.32,0,0,1-.91-.2c-.31-.08-.63-.19-1-.31s-.65-.25-1-.4-.8-.39-1.2-.61-.78-.46-1.15-.72-.73-.52-1.07-.8-.66-.57-.95-.86l4,.22-1-1.11-4-.25a4,4,0,0,1-.67-1.41,1.43,1.43,0,0,1,.12-1.06,1.44,1.44,0,0,1,.83-.63,3.62,3.62,0,0,1,1.49-.12,6.15,6.15,0,0,1,.83.12c.29.06.58.13.88.22s.6.19.9.31S213.49,55.61,213.79,55.75Z"/>
          <path class="e809ac77-816d-4bcc-929d-f5dfb0217f02" d="M234.56,70a15.48,15.48,0,0,1,2,1.13,16.14,16.14,0,0,1,1.83,1.41,13.71,13.71,0,0,1,1.5,1.57,6.72,6.72,0,0,1,1,1.59,2.78,2.78,0,0,1,.27,1.45,1.24,1.24,0,0,1-.62.91,2.58,2.58,0,0,1-1.42.27,7.12,7.12,0,0,1-2.11-.48l-.19-.07-.19-.08-.19-.08-.2-.08a13.91,13.91,0,0,1-2-1.09,15.93,15.93,0,0,1-1.83-1.38,14.27,14.27,0,0,1-1.5-1.52,7.35,7.35,0,0,1-1-1.52l4.73,1.77-.41-1.07L229.51,71a1.61,1.61,0,0,1,.16-1.12,1.42,1.42,0,0,1,.86-.6,3.62,3.62,0,0,1,1.42-.06,8.08,8.08,0,0,1,1.88.51l.18.07.18.07.18.08Z"/>
          <polygon class="e809ac77-816d-4bcc-929d-f5dfb0217f02" points="234.21 72.72 234.62 73.8 229.88 72.03 212.39 65.49 213.13 65.27 212.18 64.43 229.51 70.96 234.21 72.72"/>
          <path class="e809ac77-816d-4bcc-929d-f5dfb0217f02" d="M190.34,46.2c.21.09.41.19.61.3s.41.21.6.33.4.23.59.35.39.25.58.38a12.5,12.5,0,0,1,1.92,1.6,6,6,0,0,1,1.12,1.55,2.13,2.13,0,0,1,.22,1.35,1.44,1.44,0,0,1-.79,1,3.41,3.41,0,0,1-1.24.34,7.09,7.09,0,0,1-1.64,0,12.12,12.12,0,0,1-1.9-.42,17.39,17.39,0,0,1-2-.76l-.45-.21-.44-.22-.45-.24-.43-.25,3-1.37-1.53-1.05-3,1.32a9.43,9.43,0,0,1-1.62-1.59,4.23,4.23,0,0,1-.79-1.46,1.57,1.57,0,0,1,.08-1.18,1.72,1.72,0,0,1,1-.78,4.18,4.18,0,0,1,1.35-.23,8,8,0,0,1,1.64.13,12.45,12.45,0,0,1,1.82.46A15.65,15.65,0,0,1,190.34,46.2Z"/>
          <polygon class="e809ac77-816d-4bcc-929d-f5dfb0217f02" points="229.48 76.44 247 88.48 252.13 92.01 251.91 92.95 246.71 89.38 229.01 77.19 230.05 77.37 229.48 76.44"/>
          <polygon class="e809ac77-816d-4bcc-929d-f5dfb0217f02" points="207.17 59.97 212.18 64.43 213.13 65.27 212.39 65.49 208.2 66.71 202.04 61.11 207.17 59.97"/>
          <polygon class="e809ac77-816d-4bcc-929d-f5dfb0217f02" points="226.55 71.66 229.48 76.44 230.05 77.37 229.01 77.19 223.17 76.19 219.83 70.34 226.55 71.66"/>
          <polygon class="e809ac77-816d-4bcc-929d-f5dfb0217f02" points="212.54 58.19 213.49 59.29 209.46 59.07 193.61 58.21 193.94 57.63 192.66 56.96 208.51 57.94 212.54 58.19"/>
          <path class="e809ac77-816d-4bcc-929d-f5dfb0217f02" d="M251.46,88.42q.28.12.57.27l.59.31q.3.16.6.36l.61.4a17.85,17.85,0,0,1,2.31,1.88A14.88,14.88,0,0,1,258,93.72a9.18,9.18,0,0,1,1.16,2,3.69,3.69,0,0,1,.3,1.8,1.58,1.58,0,0,1-.45,1,1.85,1.85,0,0,1-1,.47,4.23,4.23,0,0,1-1.41,0,7.92,7.92,0,0,1-1.74-.53l-.63-.28c-.21-.1-.43-.22-.64-.34s-.44-.25-.66-.39l-.67-.44a18,18,0,0,1-2.31-1.9,15.6,15.6,0,0,1-1.78-2,9.57,9.57,0,0,1-1.12-2,4,4,0,0,1-.34-1.68l5.2,3.57.22-.94L247,88.48a1.5,1.5,0,0,1,.69-.55,2.67,2.67,0,0,1,1-.18,5.72,5.72,0,0,1,1.28.17A8.73,8.73,0,0,1,251.46,88.42Z"/>
          <polygon class="e809ac77-816d-4bcc-929d-f5dfb0217f02" points="234.8 83.51 242.54 87.52 242.96 92.13 243.04 93.03 241.78 92.38 234.88 88.86 234.8 83.51"/>
          <polygon class="e809ac77-816d-4bcc-929d-f5dfb0217f02" points="185.72 53.33 192.66 56.96 193.94 57.63 193.61 58.21 191.72 61.5 183.01 56.99 185.72 53.33"/>
          <polygon class="e809ac77-816d-4bcc-929d-f5dfb0217f02" points="188.04 48.79 189.57 49.84 186.61 51.21 174.41 56.83 174.16 55.91 172.61 55.57 185.03 50.12 188.04 48.79"/>
          <path class="e809ac77-816d-4bcc-929d-f5dfb0217f02" d="M165.22,42.93a17.76,17.76,0,0,1,2.57,1.42,12.41,12.41,0,0,1,1.94,1.59,5.84,5.84,0,0,1,1.16,1.64,2.42,2.42,0,0,1,.19,1.54,2,2,0,0,1-.88,1.18,4.43,4.43,0,0,1-1.82.63,10.89,10.89,0,0,1-2.57,0,16.63,16.63,0,0,1-3.09-.63l1.1-3.22-2.22-.83-1.19,3.21a18.08,18.08,0,0,1-2.84-1.55,11,11,0,0,1-2.07-1.76,4.81,4.81,0,0,1-1.09-1.76,2.11,2.11,0,0,1,0-1.55,2.41,2.41,0,0,1,1.34-1.14,6.37,6.37,0,0,1,2.29-.42,13.3,13.3,0,0,1,2.91.27,18.67,18.67,0,0,1,3.22.94l.26.1.26.1.25.11Z"/>
          <polygon class="e809ac77-816d-4bcc-929d-f5dfb0217f02" points="242.96 92.13 258.65 110.19 263.69 115.98 262.61 116.54 257.54 110.67 241.78 92.38 243.04 93.03 242.96 92.13"/>
          <polygon class="e809ac77-816d-4bcc-929d-f5dfb0217f02" points="244.97 99.69 252.85 106.84 249.93 110.39 249.35 111.09 248.03 109.87 241.08 103.43 244.97 99.69"/>
          <polygon class="e809ac77-816d-4bcc-929d-f5dfb0217f02" points="174.16 55.91 174.41 56.83 175.83 62.03 165.19 59.94 163.97 53.69 172.61 55.57 174.16 55.91"/>
          <path class="e809ac77-816d-4bcc-929d-f5dfb0217f02" d="M261.76,110.68a12.59,12.59,0,0,1,1.58.76A16.6,16.6,0,0,1,265,112.5c.54.4,1.09.85,1.62,1.33a20.61,20.61,0,0,1,3.72,4.5,12.23,12.23,0,0,1,1.25,2.8,5.43,5.43,0,0,1,.22,2.37,2.27,2.27,0,0,1-1,1.59,2.32,2.32,0,0,1-.75.33,3.79,3.79,0,0,1-.91.1,5.54,5.54,0,0,1-1-.12,9,9,0,0,1-1.14-.33,12.27,12.27,0,0,1-1.74-.82,16.79,16.79,0,0,1-1.8-1.18,20.22,20.22,0,0,1-1.78-1.5A20,20,0,0,1,260,119.8a17.62,17.62,0,0,1-2-2.91,11.24,11.24,0,0,1-1.08-2.64,5.17,5.17,0,0,1-.13-2.14,2.29,2.29,0,0,1,.81-1.43l5.06,5.87,1.08-.56-5-5.79a3.85,3.85,0,0,1,.69-.06,5.11,5.11,0,0,1,.76.07,6.61,6.61,0,0,1,.81.18A6.1,6.1,0,0,1,261.76,110.68Z"/>
          <polygon class="e809ac77-816d-4bcc-929d-f5dfb0217f02" points="163.82 47.11 162.72 50.33 158.15 63.72 157.06 62.57 155.46 62.84 160.41 49.49 161.6 46.28 163.82 47.11"/>
          <polygon class="e809ac77-816d-4bcc-929d-f5dfb0217f02" points="246.97 117.09 253.01 127.62 245.79 128.27 244.38 128.4 243.42 126.59 238.55 117.35 246.97 117.09"/>
          <path class="e809ac77-816d-4bcc-929d-f5dfb0217f02" d="M141.48,49.53a18.28,18.28,0,0,1,2.08,1,15,15,0,0,1,1.79,1.18,10,10,0,0,1,1.42,1.3,6.24,6.24,0,0,1,1,1.4,3.53,3.53,0,0,1,.44,2.12,3,3,0,0,1-.93,1.77,5.93,5.93,0,0,1-2.21,1.27,12.41,12.41,0,0,1-3.38.59l-2.44-5.25-2.91-.16,2.38,5.32c-.52-.06-1-.13-1.56-.22s-1-.2-1.55-.33-1-.27-1.52-.43-1-.33-1.46-.52a21.79,21.79,0,0,1-2.38-1.12,15.23,15.23,0,0,1-2-1.33,9.79,9.79,0,0,1-1.53-1.47,5.84,5.84,0,0,1-.94-1.56,3.06,3.06,0,0,1,0-2.41,3.87,3.87,0,0,1,1.73-1.77,9,9,0,0,1,3.07-1,16.86,16.86,0,0,1,4.06-.09c.61,0,1.22.13,1.82.23s1.19.23,1.77.38,1.15.31,1.7.49A12.81,12.81,0,0,1,141.48,49.53Z"/>
          <polygon class="e809ac77-816d-4bcc-929d-f5dfb0217f02" points="157.06 62.57 158.15 63.72 164.14 70.05 153.56 72.45 146.25 64.37 155.46 62.84 157.06 62.57"/>
          <polygon class="e809ac77-816d-4bcc-929d-f5dfb0217f02" points="249.93 110.39 259.29 134.35 262.59 142.79 260.36 142.38 257.14 133.91 248.03 109.87 249.35 111.09 249.93 110.39"/>
          <polygon class="e809ac77-816d-4bcc-929d-f5dfb0217f02" points="139.23 54.93 141.66 60.18 151.37 81.1 149.29 80.11 148.2 81.31 138.7 60.08 136.31 54.76 139.23 54.93"/>
          <path class="e809ac77-816d-4bcc-929d-f5dfb0217f02" d="M259.29,134.35a13.63,13.63,0,0,1,3.18,1.65,20,20,0,0,1,3.08,2.62,25.2,25.2,0,0,1,2.76,3.36,23,23,0,0,1,2.16,3.91,15.46,15.46,0,0,1,1.19,4.2,7.8,7.8,0,0,1-.24,3.41,3.91,3.91,0,0,1-1.67,2.18,4.65,4.65,0,0,1-3.05.49l-.3,0-.3-.06-.31-.07-.3-.09a13.23,13.23,0,0,1-3.62-1.82,21.52,21.52,0,0,1-3.49-3.07,24.89,24.89,0,0,1-2.94-3.88,22,22,0,0,1-2-4.25,13.22,13.22,0,0,1-.75-3.85,6.45,6.45,0,0,1,.5-2.87,3.73,3.73,0,0,1,1.54-1.75,4.29,4.29,0,0,1,2.43-.52l3.21,8.47,2.23.4Z"/>
          <polygon class="e809ac77-816d-4bcc-929d-f5dfb0217f02" points="224.3 125.76 236.15 131.25 236.38 143.68 225.54 138.81 223.48 137.89 223.62 135.85 224.3 125.76"/>
          <polygon class="e809ac77-816d-4bcc-929d-f5dfb0217f02" points="149.29 80.11 151.37 81.1 162.28 86.28 156.02 94.86 141.77 88.27 148.2 81.31 149.29 80.11"/>
          <polygon class="e809ac77-816d-4bcc-929d-f5dfb0217f02" points="124.95 78.99 133.15 85.07 162.33 106.71 159.8 106.66 160.03 108.71 130.29 86.58 121.94 80.36 124.95 78.99"/>
          <polygon class="e809ac77-816d-4bcc-929d-f5dfb0217f02" points="243.42 126.59 244.38 128.4 245.79 128.27 240.22 154 238.13 163.68 235.05 161.4 237.34 151.88 243.42 126.59"/>
          <path class="e809ac77-816d-4bcc-929d-f5dfb0217f02" d="M128.09,71.37c.41.15.8.31,1.19.48s.76.35,1.13.55a12.18,12.18,0,0,1,1.06.61c.35.21.68.44,1,.67a10.77,10.77,0,0,1,2.72,2.78,6.29,6.29,0,0,1,1.06,3,5.3,5.3,0,0,1-.64,3,7.82,7.82,0,0,1-2.45,2.67L125,79l-3,1.38,8.35,6.21a18.39,18.39,0,0,1-3.61,1,24,24,0,0,1-4,.34,26.76,26.76,0,0,1-4.18-.33,24.19,24.19,0,0,1-4.07-1c-.48-.17-1-.34-1.4-.54s-.91-.4-1.34-.62-.85-.46-1.25-.7a13.7,13.7,0,0,1-1.15-.79,9.86,9.86,0,0,1-3.08-3.58,5.57,5.57,0,0,1-.43-3.67,6.51,6.51,0,0,1,2-3.24,12.3,12.3,0,0,1,4.1-2.4,19.35,19.35,0,0,1,4-1,24.43,24.43,0,0,1,4.2-.23,27.44,27.44,0,0,1,4.15.45A25.64,25.64,0,0,1,128.09,71.37Z"/>
          <polygon class="e809ac77-816d-4bcc-929d-f5dfb0217f02" points="199.83 122.67 210.28 134.21 200.79 143.44 191.39 132.49 189.71 130.53 191.42 129.2 199.83 122.67"/>
          <polygon class="e809ac77-816d-4bcc-929d-f5dfb0217f02" points="175.17 106.94 177.77 120.01 161.38 120.57 160.03 108.71 159.8 106.66 162.33 106.71 175.17 106.94"/>
          <path class="e809ac77-816d-4bcc-929d-f5dfb0217f02" d="M234.4,150.58q.36.1.72.24c.24.09.49.19.73.3l.74.35c.25.13.5.26.74.41L235,161.4l3.08,2.28,2.1-9.68a22.31,22.31,0,0,1,3.52,4,26.12,26.12,0,0,1,2.64,4.85,23.81,23.81,0,0,1,1.52,5.32,18,18,0,0,1,.1,5.37,12,12,0,0,1-1.16,3.78,8,8,0,0,1-2.16,2.67,7.13,7.13,0,0,1-3,1.38,8.52,8.52,0,0,1-3.61-.1,10.73,10.73,0,0,1-1.27-.38,12.94,12.94,0,0,1-1.3-.55,14.31,14.31,0,0,1-1.31-.73q-.66-.4-1.32-.9a21.86,21.86,0,0,1-4.69-4.94,26.21,26.21,0,0,1-3.13-6.06,22.72,22.72,0,0,1-1.32-6.21,15.14,15.14,0,0,1,.62-5.54,9.43,9.43,0,0,1,1.65-3.12,7.13,7.13,0,0,1,5.2-2.66A9.67,9.67,0,0,1,234.4,150.58Z"/>
          <polygon class="e809ac77-816d-4bcc-929d-f5dfb0217f02" points="191.42 129.2 189.71 130.53 191.39 132.49 150.5 125.34 136.99 122.99 138.23 119.44 151.4 121.85 191.42 129.2"/>
          <polygon class="e809ac77-816d-4bcc-929d-f5dfb0217f02" points="223.62 135.85 223.48 137.89 225.54 138.81 197.38 153.99 186.89 159.64 184.99 155.54 195.45 150.21 223.62 135.85"/>
          <path class="e809ac77-816d-4bcc-929d-f5dfb0217f02" d="M141.26,108.76a18,18,0,0,1,4.44,2.1,14.21,14.21,0,0,1,3.29,3,11.73,11.73,0,0,1,2,3.72,10.82,10.82,0,0,1,.44,4.26l-13.17-2.42L137,123l13.51,2.36a14.15,14.15,0,0,1-3.06,4.47,18.88,18.88,0,0,1-4.85,3.48,22.24,22.24,0,0,1-6.23,2,22.53,22.53,0,0,1-7,.11l-.62-.1-.61-.11-.6-.13c-.2,0-.39-.09-.59-.15a17.55,17.55,0,0,1-5.87-2.73,13.16,13.16,0,0,1-3.83-4.25,10.78,10.78,0,0,1-1.4-5.12,11.68,11.68,0,0,1,1.23-5.33,15.18,15.18,0,0,1,3.91-4.91,20,20,0,0,1,5.52-3.24,22.43,22.43,0,0,1,6.31-1.48,22.18,22.18,0,0,1,6.49.37l.5.11.49.12.48.13Z"/>
          <path class="e809ac77-816d-4bcc-929d-f5dfb0217f02" d="M186.14,143.2a14.58,14.58,0,0,1,2.66,1,15.05,15.05,0,0,1,2.47,1.52,16.8,16.8,0,0,1,2.24,2,17.61,17.61,0,0,1,1.94,2.47L185,155.54l1.9,4.11L197.37,154a19.93,19.93,0,0,1,1.24,5.85,19.46,19.46,0,0,1-.58,6,17.81,17.81,0,0,1-2.46,5.5,15.85,15.85,0,0,1-4.4,4.35,14.6,14.6,0,0,1-2.51,1.3,14.92,14.92,0,0,1-2.66.77,13.92,13.92,0,0,1-2.73.23,14.12,14.12,0,0,1-2.74-.31,15,15,0,0,1-3.76-1.34,16.76,16.76,0,0,1-3.41-2.33,18,18,0,0,1-2.85-3.22,19,19,0,0,1-2.09-4,19.91,19.91,0,0,1-1.32-7.37,18.85,18.85,0,0,1,1.32-6.74,16.92,16.92,0,0,1,3.4-5.38,14.93,14.93,0,0,1,5-3.49,14.08,14.08,0,0,1,2.36-.76,13.7,13.7,0,0,1,2.35-.33,13.93,13.93,0,0,1,2.33.07A12.79,12.79,0,0,1,186.14,143.2Z"/>
        </g>
        <path class="e809ac77-816d-4bcc-929d-f5dfb0217f02" d="M176.69,89.87l-1,.76q-9,6.57-17.17,13.22l.12.09C164.32,99.24,170.37,94.53,176.69,89.87Zm-20.44,16-.15-.12c-2.81,2.31-5.56,4.61-8.21,6.91l.2.21C150.71,110.57,153.44,108.23,156.25,105.89ZM288.89,45.36c-2.62-3.58-8.09-4.79-15.7-3.94,6.73-.57,11.58.66,14,3.93,9.59,13.09-23.86,53.88-74.71,91.12S112.62,193.29,103,180.2c-5.65-7.72,3.66-25.07,22.68-45.64l-.73-.26c-21.81,22.76-32.82,42.22-26.66,50.63,9.92,13.54,60.62-6.72,113.24-45.26S298.81,58.91,288.89,45.36Z"/>
      </g>
      <g>
        <path class="e809ac77-816d-4bcc-929d-f5dfb0217f02" d="M70.14,226H90.85v-2.5h-22a1.26,1.26,0,0,0-1.26,1.25v14.1a1.25,1.25,0,0,0,1.26,1.25H92.71v-2.51H70.14Z"/>
        <path class="e809ac77-816d-4bcc-929d-f5dfb0217f02" d="M88.14,233.61H65.37V221.22H87.49L100,236.83l2.09-1.67L89.18,219.05a1.33,1.33,0,0,0-1.05-.5H64a1.36,1.36,0,0,0-1,.39,1.34,1.34,0,0,0-.39.95V235A1.33,1.33,0,0,0,64,236.3H89.48v-2.68H88.14Z"/>
        <path class="e809ac77-816d-4bcc-929d-f5dfb0217f02" d="M157.45,227.25H169.5a1.33,1.33,0,0,0,1.34-1.34v-6a1.36,1.36,0,0,0-.39-.95,1.34,1.34,0,0,0-.95-.39H145.39a1.36,1.36,0,0,0-.95.39,1.34,1.34,0,0,0-.39.95V235a1.33,1.33,0,0,0,1.34,1.34h25.45v-2.68H146.73V221.22h21.43v3.35h-12v2.68Z"/>
        <path class="e809ac77-816d-4bcc-929d-f5dfb0217f02" d="M176.87,235V223.72l5-2.5H201v-2.68H181.55a1.39,1.39,0,0,0-.6.14l-6,3a1.33,1.33,0,0,0-.74,1.2v13.39h2.68V235Z"/>
        <path class="e809ac77-816d-4bcc-929d-f5dfb0217f02" d="M227.8,222.81l-3-3.77a1.34,1.34,0,0,0-1-.5H205.66a1.37,1.37,0,0,0-1,.5l-3,3.77a1.34,1.34,0,0,0,0,1.67l3,3.77a1.33,1.33,0,0,0,1,.5H223.1l1.94,2.43-1.94,2.43H206.3l-3.45-4.31L200.76,231l3.85,4.81a1.33,1.33,0,0,0,1,.5h18.08a1.36,1.36,0,0,0,1-.5l3-3.77a1.34,1.34,0,0,0,0-1.67l-3-3.77a1.34,1.34,0,0,0-1-.5H206.3l-1.94-2.43,1.94-2.43h16.79l3.45,4.31,2.09-1.67Z"/>
        <path class="e809ac77-816d-4bcc-929d-f5dfb0217f02" d="M234.12,235v-11.5l2.23-2.23H241l2.64,5.29a1.34,1.34,0,0,0,2.4,0l2.64-5.29h4.64l2.23,2.23v12.84h2.68V222.9a1.36,1.36,0,0,0-.39-1l-3-3a1.36,1.36,0,0,0-.95-.39h-6a1.35,1.35,0,0,0-1.2.74l-1.81,3.63L243,219.29a1.35,1.35,0,0,0-1.2-.74h-6a1.36,1.36,0,0,0-.95.39l-3,3a1.34,1.34,0,0,0-.39,1v13.39h2.68V235Z"/>
        <polyline class="e809ac77-816d-4bcc-929d-f5dfb0217f02" points="261.58 206.49 261.58 212.18 264.25 212.18 264.25 206.49"/>
        <polyline class="e809ac77-816d-4bcc-929d-f5dfb0217f02" points="261.58 215.53 261.58 236.29 264.25 236.29 264.25 215.53"/>
        <path class="e809ac77-816d-4bcc-929d-f5dfb0217f02" d="M267.6,219.88v12.05a1.36,1.36,0,0,0,.39.95l3,3a1.36,1.36,0,0,0,.95.39h28.46V233.6H272.5l-2.23-2.23V218.53h-2.68v1.35Z"/>
        <polyline class="e809ac77-816d-4bcc-929d-f5dfb0217f02" points="267.6 224.24 294.39 224.24 294.39 221.56 267.6 221.56"/>
        <polyline class="e809ac77-816d-4bcc-929d-f5dfb0217f02" points="297.74 206.49 297.74 236.29 300.42 236.29 300.42 206.49"/>
        <path class="e809ac77-816d-4bcc-929d-f5dfb0217f02" d="M299.08,221.22h22.77v15.07h2.68V219.88a1.36,1.36,0,0,0-.39-.95,1.34,1.34,0,0,0-.95-.39H297.74v2.68Z"/>
        <path class="e809ac77-816d-4bcc-929d-f5dfb0217f02" d="M114.31,218.94,87.58,245.67H62.69v2.68H88.14a1.36,1.36,0,0,0,1-.39l26.73-26.73h18.87v-2.68H115.27A1.3,1.3,0,0,0,114.31,218.94Z"/>
        <path class="e809ac77-816d-4bcc-929d-f5dfb0217f02" d="M116.6,216.59v-10.1h-2.68v10.39a3.26,3.26,0,0,1,1.34-.29Z"/>
        <path class="e809ac77-816d-4bcc-929d-f5dfb0217f02" d="M138,218.54v15.07H116.6v-10.4l-2.68,2.68V235a1.36,1.36,0,0,0,.39.95,1.34,1.34,0,0,0,1,.39h24.11a1.36,1.36,0,0,0,.95-.39,1.34,1.34,0,0,0,.39-.95V218.55H138Z"/>
      </g>
    </g>
  </g>
</svg>
